%TF.GenerationSoftware,KiCad,Pcbnew,8.0.8*%
%TF.CreationDate,2025-03-17T14:01:35-04:00*%
%TF.ProjectId,RP2350_V2,52503233-3530-45f5-9632-2e6b69636164,2.0*%
%TF.SameCoordinates,Original*%
%TF.FileFunction,Soldermask,Bot*%
%TF.FilePolarity,Negative*%
%FSLAX46Y46*%
G04 Gerber Fmt 4.6, Leading zero omitted, Abs format (unit mm)*
G04 Created by KiCad (PCBNEW 8.0.8) date 2025-03-17 14:01:35*
%MOMM*%
%LPD*%
G01*
G04 APERTURE LIST*
G04 APERTURE END LIST*
G36*
X137798359Y-145588442D02*
G01*
X137922928Y-145660362D01*
X138024638Y-145762072D01*
X138096558Y-145886641D01*
X138133786Y-146025580D01*
X138138500Y-146097500D01*
X138138500Y-146897500D01*
X138133786Y-146969420D01*
X138096558Y-147108359D01*
X138024638Y-147232928D01*
X137922928Y-147334638D01*
X137798359Y-147406558D01*
X137659420Y-147443786D01*
X137515580Y-147443786D01*
X137376641Y-147406558D01*
X137252072Y-147334638D01*
X137150362Y-147232928D01*
X137078442Y-147108359D01*
X137041214Y-146969420D01*
X137036500Y-146897500D01*
X137036500Y-146097500D01*
X137041214Y-146025580D01*
X137078442Y-145886641D01*
X137150362Y-145762072D01*
X137252072Y-145660362D01*
X137376641Y-145588442D01*
X137515580Y-145551214D01*
X137659420Y-145551214D01*
X137798359Y-145588442D01*
G37*
G36*
X146438359Y-145588442D02*
G01*
X146562928Y-145660362D01*
X146664638Y-145762072D01*
X146736558Y-145886641D01*
X146773786Y-146025580D01*
X146778500Y-146097500D01*
X146778500Y-146897500D01*
X146773786Y-146969420D01*
X146736558Y-147108359D01*
X146664638Y-147232928D01*
X146562928Y-147334638D01*
X146438359Y-147406558D01*
X146299420Y-147443786D01*
X146155580Y-147443786D01*
X146016641Y-147406558D01*
X145892072Y-147334638D01*
X145790362Y-147232928D01*
X145718442Y-147108359D01*
X145681214Y-146969420D01*
X145676500Y-146897500D01*
X145676500Y-146097500D01*
X145681214Y-146025580D01*
X145718442Y-145886641D01*
X145790362Y-145762072D01*
X145892072Y-145660362D01*
X146016641Y-145588442D01*
X146155580Y-145551214D01*
X146299420Y-145551214D01*
X146438359Y-145588442D01*
G37*
G36*
X137798359Y-141258442D02*
G01*
X137922928Y-141330362D01*
X138024638Y-141432072D01*
X138096558Y-141556641D01*
X138133786Y-141695580D01*
X138138500Y-141767500D01*
X138138500Y-142867500D01*
X138133786Y-142939420D01*
X138096558Y-143078359D01*
X138024638Y-143202928D01*
X137922928Y-143304638D01*
X137798359Y-143376558D01*
X137659420Y-143413786D01*
X137515580Y-143413786D01*
X137376641Y-143376558D01*
X137252072Y-143304638D01*
X137150362Y-143202928D01*
X137078442Y-143078359D01*
X137041214Y-142939420D01*
X137036500Y-142867500D01*
X137036500Y-141767500D01*
X137041214Y-141695580D01*
X137078442Y-141556641D01*
X137150362Y-141432072D01*
X137252072Y-141330362D01*
X137376641Y-141258442D01*
X137515580Y-141221214D01*
X137659420Y-141221214D01*
X137798359Y-141258442D01*
G37*
G36*
X146438359Y-141258442D02*
G01*
X146562928Y-141330362D01*
X146664638Y-141432072D01*
X146736558Y-141556641D01*
X146773786Y-141695580D01*
X146778500Y-141767500D01*
X146778500Y-142867500D01*
X146773786Y-142939420D01*
X146736558Y-143078359D01*
X146664638Y-143202928D01*
X146562928Y-143304638D01*
X146438359Y-143376558D01*
X146299420Y-143413786D01*
X146155580Y-143413786D01*
X146016641Y-143376558D01*
X145892072Y-143304638D01*
X145790362Y-143202928D01*
X145718442Y-143078359D01*
X145681214Y-142939420D01*
X145676500Y-142867500D01*
X145676500Y-141767500D01*
X145681214Y-141695580D01*
X145718442Y-141556641D01*
X145790362Y-141432072D01*
X145892072Y-141330362D01*
X146016641Y-141258442D01*
X146155580Y-141221214D01*
X146299420Y-141221214D01*
X146438359Y-141258442D01*
G37*
G36*
X139133690Y-142459903D02*
G01*
X139238507Y-142513310D01*
X139321690Y-142596493D01*
X139375097Y-142701310D01*
X139393500Y-142817500D01*
X139375097Y-142933690D01*
X139321690Y-143038507D01*
X139238507Y-143121690D01*
X139133690Y-143175097D01*
X139017500Y-143193500D01*
X138901310Y-143175097D01*
X138796493Y-143121690D01*
X138713310Y-143038507D01*
X138659903Y-142933690D01*
X138641500Y-142817500D01*
X138659903Y-142701310D01*
X138713310Y-142596493D01*
X138796493Y-142513310D01*
X138901310Y-142459903D01*
X139017500Y-142441500D01*
X139133690Y-142459903D01*
G37*
G36*
X144913690Y-142459903D02*
G01*
X145018507Y-142513310D01*
X145101690Y-142596493D01*
X145155097Y-142701310D01*
X145173500Y-142817500D01*
X145155097Y-142933690D01*
X145101690Y-143038507D01*
X145018507Y-143121690D01*
X144913690Y-143175097D01*
X144797500Y-143193500D01*
X144681310Y-143175097D01*
X144576493Y-143121690D01*
X144493310Y-143038507D01*
X144439903Y-142933690D01*
X144421500Y-142817500D01*
X144439903Y-142701310D01*
X144493310Y-142596493D01*
X144576493Y-142513310D01*
X144681310Y-142459903D01*
X144797500Y-142441500D01*
X144913690Y-142459903D01*
G37*
G36*
X129998914Y-140891995D02*
G01*
X130003645Y-140894084D01*
X130006811Y-140894501D01*
X130046442Y-140912981D01*
X130100106Y-140936676D01*
X130178324Y-141014894D01*
X130202028Y-141068579D01*
X130220498Y-141108188D01*
X130220914Y-141111351D01*
X130223005Y-141116086D01*
X130231000Y-141185000D01*
X130231000Y-142435000D01*
X130223005Y-142503914D01*
X130220914Y-142508648D01*
X130220498Y-142511811D01*
X130202036Y-142551402D01*
X130178324Y-142605106D01*
X130100106Y-142683324D01*
X130046402Y-142707036D01*
X130006811Y-142725498D01*
X130003648Y-142725914D01*
X129998914Y-142728005D01*
X129930000Y-142736000D01*
X129230000Y-142736000D01*
X129161086Y-142728005D01*
X129156351Y-142725914D01*
X129153188Y-142725498D01*
X129113579Y-142707028D01*
X129059894Y-142683324D01*
X128981676Y-142605106D01*
X128957981Y-142551442D01*
X128939501Y-142511811D01*
X128939084Y-142508645D01*
X128936995Y-142503914D01*
X128929000Y-142435000D01*
X128929000Y-141185000D01*
X128936995Y-141116086D01*
X128939084Y-141111354D01*
X128939501Y-141108188D01*
X128957989Y-141068538D01*
X128981676Y-141014894D01*
X129059894Y-140936676D01*
X129113538Y-140912989D01*
X129153188Y-140894501D01*
X129156354Y-140894084D01*
X129161086Y-140891995D01*
X129230000Y-140884000D01*
X129930000Y-140884000D01*
X129998914Y-140891995D01*
G37*
G36*
X127768975Y-140912032D02*
G01*
X127886879Y-140960869D01*
X127992990Y-141031770D01*
X128083230Y-141122010D01*
X128154131Y-141228121D01*
X128202968Y-141346025D01*
X128227865Y-141471191D01*
X128231000Y-141535000D01*
X128231000Y-142085000D01*
X128227865Y-142148809D01*
X128202968Y-142273975D01*
X128154131Y-142391879D01*
X128083230Y-142497990D01*
X127992990Y-142588230D01*
X127886879Y-142659131D01*
X127768975Y-142707968D01*
X127643809Y-142732865D01*
X127516191Y-142732865D01*
X127391025Y-142707968D01*
X127273121Y-142659131D01*
X127167010Y-142588230D01*
X127076770Y-142497990D01*
X127005869Y-142391879D01*
X126957032Y-142273975D01*
X126932135Y-142148809D01*
X126929000Y-142085000D01*
X126929000Y-141535000D01*
X126932135Y-141471191D01*
X126957032Y-141346025D01*
X127005869Y-141228121D01*
X127076770Y-141122010D01*
X127167010Y-141031770D01*
X127273121Y-140960869D01*
X127391025Y-140912032D01*
X127516191Y-140887135D01*
X127643809Y-140887135D01*
X127768975Y-140912032D01*
G37*
G36*
X120571425Y-139375070D02*
G01*
X120790275Y-139450202D01*
X120993774Y-139560330D01*
X121176371Y-139702451D01*
X121333086Y-139872688D01*
X121459643Y-140066398D01*
X121552590Y-140278296D01*
X121609392Y-140502603D01*
X121628500Y-140733200D01*
X121609392Y-140963797D01*
X121552590Y-141188104D01*
X121459643Y-141400002D01*
X121333086Y-141593712D01*
X121176371Y-141763949D01*
X120993774Y-141906070D01*
X120790275Y-142016198D01*
X120571425Y-142091330D01*
X120343194Y-142129415D01*
X120111806Y-142129415D01*
X119883575Y-142091330D01*
X119664725Y-142016198D01*
X119461226Y-141906070D01*
X119278629Y-141763949D01*
X119121914Y-141593712D01*
X118995357Y-141400002D01*
X118902410Y-141188104D01*
X118845608Y-140963797D01*
X118826500Y-140733200D01*
X118845608Y-140502603D01*
X118902410Y-140278296D01*
X118995357Y-140066398D01*
X119121914Y-139872688D01*
X119278629Y-139702451D01*
X119461226Y-139560330D01*
X119664725Y-139450202D01*
X119883575Y-139375070D01*
X120111806Y-139336985D01*
X120343194Y-139336985D01*
X120571425Y-139375070D01*
G37*
G36*
X172731425Y-139375010D02*
G01*
X172950275Y-139450142D01*
X173153774Y-139560270D01*
X173336371Y-139702391D01*
X173493086Y-139872628D01*
X173619643Y-140066338D01*
X173712590Y-140278236D01*
X173769392Y-140502543D01*
X173788500Y-140733140D01*
X173769392Y-140963737D01*
X173712590Y-141188044D01*
X173619643Y-141399942D01*
X173493086Y-141593652D01*
X173336371Y-141763889D01*
X173153774Y-141906010D01*
X172950275Y-142016138D01*
X172731425Y-142091270D01*
X172503194Y-142129355D01*
X172271806Y-142129355D01*
X172043575Y-142091270D01*
X171824725Y-142016138D01*
X171621226Y-141906010D01*
X171438629Y-141763889D01*
X171281914Y-141593652D01*
X171155357Y-141399942D01*
X171062410Y-141188044D01*
X171005608Y-140963737D01*
X170986500Y-140733140D01*
X171005608Y-140502543D01*
X171062410Y-140278236D01*
X171155357Y-140066338D01*
X171281914Y-139872628D01*
X171438629Y-139702391D01*
X171621226Y-139560270D01*
X171824725Y-139450142D01*
X172043575Y-139375010D01*
X172271806Y-139336925D01*
X172503194Y-139336925D01*
X172731425Y-139375010D01*
G37*
G36*
X154937017Y-108475382D02*
G01*
X154953562Y-108486438D01*
X154964618Y-108502983D01*
X154968500Y-108522500D01*
X154968500Y-110222500D01*
X154964618Y-110242017D01*
X154953562Y-110258562D01*
X154937017Y-110269618D01*
X154917500Y-110273500D01*
X153217500Y-110273500D01*
X153197983Y-110269618D01*
X153181438Y-110258562D01*
X153170382Y-110242017D01*
X153166500Y-110222500D01*
X153166500Y-108522500D01*
X153170382Y-108502983D01*
X153181438Y-108486438D01*
X153197983Y-108475382D01*
X153217500Y-108471500D01*
X154917500Y-108471500D01*
X154937017Y-108475382D01*
G37*
G36*
X156655413Y-108476436D02*
G01*
X156701680Y-108476436D01*
X156741629Y-108484927D01*
X156783233Y-108489025D01*
X156835498Y-108504879D01*
X156885924Y-108515598D01*
X156918194Y-108529965D01*
X156952212Y-108540285D01*
X157006267Y-108569178D01*
X157058000Y-108592211D01*
X157082051Y-108609685D01*
X157107947Y-108623527D01*
X157160771Y-108666878D01*
X157210387Y-108702927D01*
X157226496Y-108720818D01*
X157244448Y-108735551D01*
X157292688Y-108794331D01*
X157336424Y-108842905D01*
X157345611Y-108858819D01*
X157356472Y-108872052D01*
X157396649Y-108947219D01*
X157430604Y-109006030D01*
X157434509Y-109018050D01*
X157439714Y-109027787D01*
X157468413Y-109122396D01*
X157488811Y-109185172D01*
X157489528Y-109192002D01*
X157490974Y-109196766D01*
X157505036Y-109339542D01*
X157508500Y-109372500D01*
X157505035Y-109405459D01*
X157490974Y-109548233D01*
X157489529Y-109552996D01*
X157488811Y-109559828D01*
X157468409Y-109622617D01*
X157439714Y-109717212D01*
X157434510Y-109726947D01*
X157430604Y-109738970D01*
X157396642Y-109797793D01*
X157356472Y-109872947D01*
X157345613Y-109886177D01*
X157336424Y-109902095D01*
X157292678Y-109950678D01*
X157244448Y-110009448D01*
X157226500Y-110024177D01*
X157210387Y-110042073D01*
X157160760Y-110078128D01*
X157107947Y-110121472D01*
X157082057Y-110135310D01*
X157058000Y-110152789D01*
X157006256Y-110175826D01*
X156952212Y-110204714D01*
X156918201Y-110215031D01*
X156885924Y-110229402D01*
X156835487Y-110240122D01*
X156783233Y-110255974D01*
X156741638Y-110260070D01*
X156701680Y-110268564D01*
X156655403Y-110268564D01*
X156607500Y-110273282D01*
X156559597Y-110268564D01*
X156513320Y-110268564D01*
X156473362Y-110260070D01*
X156431766Y-110255974D01*
X156379509Y-110240121D01*
X156329076Y-110229402D01*
X156296800Y-110215032D01*
X156262787Y-110204714D01*
X156208737Y-110175823D01*
X156157000Y-110152789D01*
X156132945Y-110135312D01*
X156107052Y-110121472D01*
X156054230Y-110078122D01*
X156004613Y-110042073D01*
X155988502Y-110024180D01*
X155970551Y-110009448D01*
X155922309Y-109950666D01*
X155878576Y-109902095D01*
X155869388Y-109886181D01*
X155858527Y-109872947D01*
X155818344Y-109797769D01*
X155784396Y-109738970D01*
X155780491Y-109726951D01*
X155775285Y-109717212D01*
X155746575Y-109622571D01*
X155726189Y-109559828D01*
X155725471Y-109553001D01*
X155724025Y-109548233D01*
X155709948Y-109405308D01*
X155706500Y-109372500D01*
X155709948Y-109339694D01*
X155724025Y-109196766D01*
X155725471Y-109191997D01*
X155726189Y-109185172D01*
X155746571Y-109122442D01*
X155775285Y-109027787D01*
X155780491Y-109018045D01*
X155784396Y-109006030D01*
X155818336Y-108947242D01*
X155858527Y-108872052D01*
X155869390Y-108858814D01*
X155878576Y-108842905D01*
X155922300Y-108794343D01*
X155970551Y-108735551D01*
X155988505Y-108720815D01*
X156004613Y-108702927D01*
X156054220Y-108666885D01*
X156107052Y-108623527D01*
X156132950Y-108609683D01*
X156157000Y-108592211D01*
X156208726Y-108569181D01*
X156262787Y-108540285D01*
X156296807Y-108529964D01*
X156329076Y-108515598D01*
X156379498Y-108504880D01*
X156431766Y-108489025D01*
X156473371Y-108484927D01*
X156513320Y-108476436D01*
X156559586Y-108476436D01*
X156607500Y-108471717D01*
X156655413Y-108476436D01*
G37*
G36*
X159195413Y-108476436D02*
G01*
X159241680Y-108476436D01*
X159281629Y-108484927D01*
X159323233Y-108489025D01*
X159375498Y-108504879D01*
X159425924Y-108515598D01*
X159458194Y-108529965D01*
X159492212Y-108540285D01*
X159546267Y-108569178D01*
X159598000Y-108592211D01*
X159622051Y-108609685D01*
X159647947Y-108623527D01*
X159700771Y-108666878D01*
X159750387Y-108702927D01*
X159766496Y-108720818D01*
X159784448Y-108735551D01*
X159832688Y-108794331D01*
X159876424Y-108842905D01*
X159885611Y-108858819D01*
X159896472Y-108872052D01*
X159936649Y-108947219D01*
X159970604Y-109006030D01*
X159974509Y-109018050D01*
X159979714Y-109027787D01*
X160008413Y-109122396D01*
X160028811Y-109185172D01*
X160029528Y-109192002D01*
X160030974Y-109196766D01*
X160045036Y-109339542D01*
X160048500Y-109372500D01*
X160045035Y-109405459D01*
X160030974Y-109548233D01*
X160029529Y-109552996D01*
X160028811Y-109559828D01*
X160008409Y-109622617D01*
X159979714Y-109717212D01*
X159974510Y-109726947D01*
X159970604Y-109738970D01*
X159936642Y-109797793D01*
X159896472Y-109872947D01*
X159885613Y-109886177D01*
X159876424Y-109902095D01*
X159832678Y-109950678D01*
X159784448Y-110009448D01*
X159766500Y-110024177D01*
X159750387Y-110042073D01*
X159700760Y-110078128D01*
X159647947Y-110121472D01*
X159622057Y-110135310D01*
X159598000Y-110152789D01*
X159546256Y-110175826D01*
X159492212Y-110204714D01*
X159458201Y-110215031D01*
X159425924Y-110229402D01*
X159375487Y-110240122D01*
X159323233Y-110255974D01*
X159281638Y-110260070D01*
X159241680Y-110268564D01*
X159195403Y-110268564D01*
X159147500Y-110273282D01*
X159099597Y-110268564D01*
X159053320Y-110268564D01*
X159013362Y-110260070D01*
X158971766Y-110255974D01*
X158919509Y-110240121D01*
X158869076Y-110229402D01*
X158836800Y-110215032D01*
X158802787Y-110204714D01*
X158748737Y-110175823D01*
X158697000Y-110152789D01*
X158672945Y-110135312D01*
X158647052Y-110121472D01*
X158594230Y-110078122D01*
X158544613Y-110042073D01*
X158528502Y-110024180D01*
X158510551Y-110009448D01*
X158462309Y-109950666D01*
X158418576Y-109902095D01*
X158409388Y-109886181D01*
X158398527Y-109872947D01*
X158358344Y-109797769D01*
X158324396Y-109738970D01*
X158320491Y-109726951D01*
X158315285Y-109717212D01*
X158286575Y-109622571D01*
X158266189Y-109559828D01*
X158265471Y-109553001D01*
X158264025Y-109548233D01*
X158249948Y-109405308D01*
X158246500Y-109372500D01*
X158249948Y-109339694D01*
X158264025Y-109196766D01*
X158265471Y-109191997D01*
X158266189Y-109185172D01*
X158286571Y-109122442D01*
X158315285Y-109027787D01*
X158320491Y-109018045D01*
X158324396Y-109006030D01*
X158358336Y-108947242D01*
X158398527Y-108872052D01*
X158409390Y-108858814D01*
X158418576Y-108842905D01*
X158462300Y-108794343D01*
X158510551Y-108735551D01*
X158528505Y-108720815D01*
X158544613Y-108702927D01*
X158594220Y-108666885D01*
X158647052Y-108623527D01*
X158672950Y-108609683D01*
X158697000Y-108592211D01*
X158748726Y-108569181D01*
X158802787Y-108540285D01*
X158836807Y-108529964D01*
X158869076Y-108515598D01*
X158919498Y-108504880D01*
X158971766Y-108489025D01*
X159013371Y-108484927D01*
X159053320Y-108476436D01*
X159099586Y-108476436D01*
X159147500Y-108471717D01*
X159195413Y-108476436D01*
G37*
G36*
X161735413Y-108476436D02*
G01*
X161781680Y-108476436D01*
X161821629Y-108484927D01*
X161863233Y-108489025D01*
X161915498Y-108504879D01*
X161965924Y-108515598D01*
X161998194Y-108529965D01*
X162032212Y-108540285D01*
X162086267Y-108569178D01*
X162138000Y-108592211D01*
X162162051Y-108609685D01*
X162187947Y-108623527D01*
X162240771Y-108666878D01*
X162290387Y-108702927D01*
X162306496Y-108720818D01*
X162324448Y-108735551D01*
X162372688Y-108794331D01*
X162416424Y-108842905D01*
X162425611Y-108858819D01*
X162436472Y-108872052D01*
X162476649Y-108947219D01*
X162510604Y-109006030D01*
X162514509Y-109018050D01*
X162519714Y-109027787D01*
X162548413Y-109122396D01*
X162568811Y-109185172D01*
X162569528Y-109192002D01*
X162570974Y-109196766D01*
X162585036Y-109339542D01*
X162588500Y-109372500D01*
X162585035Y-109405459D01*
X162570974Y-109548233D01*
X162569529Y-109552996D01*
X162568811Y-109559828D01*
X162548409Y-109622617D01*
X162519714Y-109717212D01*
X162514510Y-109726947D01*
X162510604Y-109738970D01*
X162476642Y-109797793D01*
X162436472Y-109872947D01*
X162425613Y-109886177D01*
X162416424Y-109902095D01*
X162372678Y-109950678D01*
X162324448Y-110009448D01*
X162306500Y-110024177D01*
X162290387Y-110042073D01*
X162240760Y-110078128D01*
X162187947Y-110121472D01*
X162162057Y-110135310D01*
X162138000Y-110152789D01*
X162086256Y-110175826D01*
X162032212Y-110204714D01*
X161998201Y-110215031D01*
X161965924Y-110229402D01*
X161915487Y-110240122D01*
X161863233Y-110255974D01*
X161821638Y-110260070D01*
X161781680Y-110268564D01*
X161735403Y-110268564D01*
X161687500Y-110273282D01*
X161639597Y-110268564D01*
X161593320Y-110268564D01*
X161553362Y-110260070D01*
X161511766Y-110255974D01*
X161459509Y-110240121D01*
X161409076Y-110229402D01*
X161376800Y-110215032D01*
X161342787Y-110204714D01*
X161288737Y-110175823D01*
X161237000Y-110152789D01*
X161212945Y-110135312D01*
X161187052Y-110121472D01*
X161134230Y-110078122D01*
X161084613Y-110042073D01*
X161068502Y-110024180D01*
X161050551Y-110009448D01*
X161002309Y-109950666D01*
X160958576Y-109902095D01*
X160949388Y-109886181D01*
X160938527Y-109872947D01*
X160898344Y-109797769D01*
X160864396Y-109738970D01*
X160860491Y-109726951D01*
X160855285Y-109717212D01*
X160826575Y-109622571D01*
X160806189Y-109559828D01*
X160805471Y-109553001D01*
X160804025Y-109548233D01*
X160789948Y-109405308D01*
X160786500Y-109372500D01*
X160789948Y-109339694D01*
X160804025Y-109196766D01*
X160805471Y-109191997D01*
X160806189Y-109185172D01*
X160826571Y-109122442D01*
X160855285Y-109027787D01*
X160860491Y-109018045D01*
X160864396Y-109006030D01*
X160898336Y-108947242D01*
X160938527Y-108872052D01*
X160949390Y-108858814D01*
X160958576Y-108842905D01*
X161002300Y-108794343D01*
X161050551Y-108735551D01*
X161068505Y-108720815D01*
X161084613Y-108702927D01*
X161134220Y-108666885D01*
X161187052Y-108623527D01*
X161212950Y-108609683D01*
X161237000Y-108592211D01*
X161288726Y-108569181D01*
X161342787Y-108540285D01*
X161376807Y-108529964D01*
X161409076Y-108515598D01*
X161459498Y-108504880D01*
X161511766Y-108489025D01*
X161553371Y-108484927D01*
X161593320Y-108476436D01*
X161639586Y-108476436D01*
X161687500Y-108471717D01*
X161735413Y-108476436D01*
G37*
G36*
X125210413Y-99831436D02*
G01*
X125256680Y-99831436D01*
X125296629Y-99839927D01*
X125338233Y-99844025D01*
X125390498Y-99859879D01*
X125440924Y-99870598D01*
X125473194Y-99884965D01*
X125507212Y-99895285D01*
X125561267Y-99924178D01*
X125613000Y-99947211D01*
X125637051Y-99964685D01*
X125662947Y-99978527D01*
X125715771Y-100021878D01*
X125765387Y-100057927D01*
X125781496Y-100075818D01*
X125799448Y-100090551D01*
X125847688Y-100149331D01*
X125891424Y-100197905D01*
X125900611Y-100213819D01*
X125911472Y-100227052D01*
X125951649Y-100302219D01*
X125985604Y-100361030D01*
X125989509Y-100373050D01*
X125994714Y-100382787D01*
X126023413Y-100477396D01*
X126043811Y-100540172D01*
X126044528Y-100547002D01*
X126045974Y-100551766D01*
X126060036Y-100694542D01*
X126063500Y-100727500D01*
X126060035Y-100760459D01*
X126045974Y-100903233D01*
X126044529Y-100907996D01*
X126043811Y-100914828D01*
X126023409Y-100977617D01*
X125994714Y-101072212D01*
X125989510Y-101081947D01*
X125985604Y-101093970D01*
X125951642Y-101152793D01*
X125911472Y-101227947D01*
X125900613Y-101241177D01*
X125891424Y-101257095D01*
X125847678Y-101305678D01*
X125799448Y-101364448D01*
X125781500Y-101379177D01*
X125765387Y-101397073D01*
X125715760Y-101433128D01*
X125662947Y-101476472D01*
X125637057Y-101490310D01*
X125613000Y-101507789D01*
X125561256Y-101530826D01*
X125507212Y-101559714D01*
X125473201Y-101570031D01*
X125440924Y-101584402D01*
X125390487Y-101595122D01*
X125338233Y-101610974D01*
X125296638Y-101615070D01*
X125256680Y-101623564D01*
X125210403Y-101623564D01*
X125162500Y-101628282D01*
X125114597Y-101623564D01*
X125068320Y-101623564D01*
X125028362Y-101615070D01*
X124986766Y-101610974D01*
X124934509Y-101595121D01*
X124884076Y-101584402D01*
X124851800Y-101570032D01*
X124817787Y-101559714D01*
X124763737Y-101530823D01*
X124712000Y-101507789D01*
X124687945Y-101490312D01*
X124662052Y-101476472D01*
X124609230Y-101433122D01*
X124559613Y-101397073D01*
X124543502Y-101379180D01*
X124525551Y-101364448D01*
X124477309Y-101305666D01*
X124433576Y-101257095D01*
X124424388Y-101241181D01*
X124413527Y-101227947D01*
X124373344Y-101152769D01*
X124339396Y-101093970D01*
X124335491Y-101081951D01*
X124330285Y-101072212D01*
X124301575Y-100977571D01*
X124281189Y-100914828D01*
X124280471Y-100908001D01*
X124279025Y-100903233D01*
X124264948Y-100760308D01*
X124261500Y-100727500D01*
X124264948Y-100694694D01*
X124279025Y-100551766D01*
X124280471Y-100546997D01*
X124281189Y-100540172D01*
X124301571Y-100477442D01*
X124330285Y-100382787D01*
X124335491Y-100373045D01*
X124339396Y-100361030D01*
X124373336Y-100302242D01*
X124413527Y-100227052D01*
X124424390Y-100213814D01*
X124433576Y-100197905D01*
X124477300Y-100149343D01*
X124525551Y-100090551D01*
X124543505Y-100075815D01*
X124559613Y-100057927D01*
X124609220Y-100021885D01*
X124662052Y-99978527D01*
X124687950Y-99964683D01*
X124712000Y-99947211D01*
X124763726Y-99924181D01*
X124817787Y-99895285D01*
X124851807Y-99884964D01*
X124884076Y-99870598D01*
X124934498Y-99859880D01*
X124986766Y-99844025D01*
X125028371Y-99839927D01*
X125068320Y-99831436D01*
X125114586Y-99831436D01*
X125162500Y-99826717D01*
X125210413Y-99831436D01*
G37*
G36*
X125210413Y-97291436D02*
G01*
X125256680Y-97291436D01*
X125296629Y-97299927D01*
X125338233Y-97304025D01*
X125390498Y-97319879D01*
X125440924Y-97330598D01*
X125473194Y-97344965D01*
X125507212Y-97355285D01*
X125561267Y-97384178D01*
X125613000Y-97407211D01*
X125637051Y-97424685D01*
X125662947Y-97438527D01*
X125715771Y-97481878D01*
X125765387Y-97517927D01*
X125781496Y-97535818D01*
X125799448Y-97550551D01*
X125847688Y-97609331D01*
X125891424Y-97657905D01*
X125900611Y-97673819D01*
X125911472Y-97687052D01*
X125951649Y-97762219D01*
X125985604Y-97821030D01*
X125989509Y-97833050D01*
X125994714Y-97842787D01*
X126023413Y-97937396D01*
X126043811Y-98000172D01*
X126044528Y-98007002D01*
X126045974Y-98011766D01*
X126060036Y-98154542D01*
X126063500Y-98187500D01*
X126060035Y-98220459D01*
X126045974Y-98363233D01*
X126044529Y-98367996D01*
X126043811Y-98374828D01*
X126023409Y-98437617D01*
X125994714Y-98532212D01*
X125989510Y-98541947D01*
X125985604Y-98553970D01*
X125951642Y-98612793D01*
X125911472Y-98687947D01*
X125900613Y-98701177D01*
X125891424Y-98717095D01*
X125847678Y-98765678D01*
X125799448Y-98824448D01*
X125781500Y-98839177D01*
X125765387Y-98857073D01*
X125715760Y-98893128D01*
X125662947Y-98936472D01*
X125637057Y-98950310D01*
X125613000Y-98967789D01*
X125561256Y-98990826D01*
X125507212Y-99019714D01*
X125473201Y-99030031D01*
X125440924Y-99044402D01*
X125390487Y-99055122D01*
X125338233Y-99070974D01*
X125296638Y-99075070D01*
X125256680Y-99083564D01*
X125210403Y-99083564D01*
X125162500Y-99088282D01*
X125114597Y-99083564D01*
X125068320Y-99083564D01*
X125028362Y-99075070D01*
X124986766Y-99070974D01*
X124934509Y-99055121D01*
X124884076Y-99044402D01*
X124851800Y-99030032D01*
X124817787Y-99019714D01*
X124763737Y-98990823D01*
X124712000Y-98967789D01*
X124687945Y-98950312D01*
X124662052Y-98936472D01*
X124609230Y-98893122D01*
X124559613Y-98857073D01*
X124543502Y-98839180D01*
X124525551Y-98824448D01*
X124477309Y-98765666D01*
X124433576Y-98717095D01*
X124424388Y-98701181D01*
X124413527Y-98687947D01*
X124373344Y-98612769D01*
X124339396Y-98553970D01*
X124335491Y-98541951D01*
X124330285Y-98532212D01*
X124301575Y-98437571D01*
X124281189Y-98374828D01*
X124280471Y-98368001D01*
X124279025Y-98363233D01*
X124264948Y-98220308D01*
X124261500Y-98187500D01*
X124264948Y-98154694D01*
X124279025Y-98011766D01*
X124280471Y-98006997D01*
X124281189Y-98000172D01*
X124301571Y-97937442D01*
X124330285Y-97842787D01*
X124335491Y-97833045D01*
X124339396Y-97821030D01*
X124373336Y-97762242D01*
X124413527Y-97687052D01*
X124424390Y-97673814D01*
X124433576Y-97657905D01*
X124477300Y-97609343D01*
X124525551Y-97550551D01*
X124543505Y-97535815D01*
X124559613Y-97517927D01*
X124609220Y-97481885D01*
X124662052Y-97438527D01*
X124687950Y-97424683D01*
X124712000Y-97407211D01*
X124763726Y-97384181D01*
X124817787Y-97355285D01*
X124851807Y-97344964D01*
X124884076Y-97330598D01*
X124934498Y-97319880D01*
X124986766Y-97304025D01*
X125028371Y-97299927D01*
X125068320Y-97291436D01*
X125114586Y-97291436D01*
X125162500Y-97286717D01*
X125210413Y-97291436D01*
G37*
G36*
X125210413Y-94751436D02*
G01*
X125256680Y-94751436D01*
X125296629Y-94759927D01*
X125338233Y-94764025D01*
X125390498Y-94779879D01*
X125440924Y-94790598D01*
X125473194Y-94804965D01*
X125507212Y-94815285D01*
X125561267Y-94844178D01*
X125613000Y-94867211D01*
X125637051Y-94884685D01*
X125662947Y-94898527D01*
X125715771Y-94941878D01*
X125765387Y-94977927D01*
X125781496Y-94995818D01*
X125799448Y-95010551D01*
X125847688Y-95069331D01*
X125891424Y-95117905D01*
X125900611Y-95133819D01*
X125911472Y-95147052D01*
X125951649Y-95222219D01*
X125985604Y-95281030D01*
X125989509Y-95293050D01*
X125994714Y-95302787D01*
X126023413Y-95397396D01*
X126043811Y-95460172D01*
X126044528Y-95467002D01*
X126045974Y-95471766D01*
X126060036Y-95614542D01*
X126063500Y-95647500D01*
X126060035Y-95680459D01*
X126045974Y-95823233D01*
X126044529Y-95827996D01*
X126043811Y-95834828D01*
X126023409Y-95897617D01*
X125994714Y-95992212D01*
X125989510Y-96001947D01*
X125985604Y-96013970D01*
X125951642Y-96072793D01*
X125911472Y-96147947D01*
X125900613Y-96161177D01*
X125891424Y-96177095D01*
X125847678Y-96225678D01*
X125799448Y-96284448D01*
X125781500Y-96299177D01*
X125765387Y-96317073D01*
X125715760Y-96353128D01*
X125662947Y-96396472D01*
X125637057Y-96410310D01*
X125613000Y-96427789D01*
X125561256Y-96450826D01*
X125507212Y-96479714D01*
X125473201Y-96490031D01*
X125440924Y-96504402D01*
X125390487Y-96515122D01*
X125338233Y-96530974D01*
X125296638Y-96535070D01*
X125256680Y-96543564D01*
X125210403Y-96543564D01*
X125162500Y-96548282D01*
X125114597Y-96543564D01*
X125068320Y-96543564D01*
X125028362Y-96535070D01*
X124986766Y-96530974D01*
X124934509Y-96515121D01*
X124884076Y-96504402D01*
X124851800Y-96490032D01*
X124817787Y-96479714D01*
X124763737Y-96450823D01*
X124712000Y-96427789D01*
X124687945Y-96410312D01*
X124662052Y-96396472D01*
X124609230Y-96353122D01*
X124559613Y-96317073D01*
X124543502Y-96299180D01*
X124525551Y-96284448D01*
X124477309Y-96225666D01*
X124433576Y-96177095D01*
X124424388Y-96161181D01*
X124413527Y-96147947D01*
X124373344Y-96072769D01*
X124339396Y-96013970D01*
X124335491Y-96001951D01*
X124330285Y-95992212D01*
X124301575Y-95897571D01*
X124281189Y-95834828D01*
X124280471Y-95828001D01*
X124279025Y-95823233D01*
X124264948Y-95680308D01*
X124261500Y-95647500D01*
X124264948Y-95614694D01*
X124279025Y-95471766D01*
X124280471Y-95466997D01*
X124281189Y-95460172D01*
X124301571Y-95397442D01*
X124330285Y-95302787D01*
X124335491Y-95293045D01*
X124339396Y-95281030D01*
X124373336Y-95222242D01*
X124413527Y-95147052D01*
X124424390Y-95133814D01*
X124433576Y-95117905D01*
X124477300Y-95069343D01*
X124525551Y-95010551D01*
X124543505Y-94995815D01*
X124559613Y-94977927D01*
X124609220Y-94941885D01*
X124662052Y-94898527D01*
X124687950Y-94884683D01*
X124712000Y-94867211D01*
X124763726Y-94844181D01*
X124817787Y-94815285D01*
X124851807Y-94804964D01*
X124884076Y-94790598D01*
X124934498Y-94779880D01*
X124986766Y-94764025D01*
X125028371Y-94759927D01*
X125068320Y-94751436D01*
X125114586Y-94751436D01*
X125162500Y-94746717D01*
X125210413Y-94751436D01*
G37*
G36*
X126032017Y-92210382D02*
G01*
X126048562Y-92221438D01*
X126059618Y-92237983D01*
X126063500Y-92257500D01*
X126063500Y-93957500D01*
X126059618Y-93977017D01*
X126048562Y-93993562D01*
X126032017Y-94004618D01*
X126012500Y-94008500D01*
X124312500Y-94008500D01*
X124292983Y-94004618D01*
X124276438Y-93993562D01*
X124265382Y-93977017D01*
X124261500Y-93957500D01*
X124261500Y-92257500D01*
X124265382Y-92237983D01*
X124276438Y-92221438D01*
X124292983Y-92210382D01*
X124312500Y-92206500D01*
X126012500Y-92206500D01*
X126032017Y-92210382D01*
G37*
G36*
X150218914Y-85781995D02*
G01*
X150223645Y-85784084D01*
X150226811Y-85784501D01*
X150266442Y-85802981D01*
X150320106Y-85826676D01*
X150398324Y-85904894D01*
X150422028Y-85958579D01*
X150440498Y-85998188D01*
X150440914Y-86001351D01*
X150443005Y-86006086D01*
X150451000Y-86075000D01*
X150451000Y-87325000D01*
X150443005Y-87393914D01*
X150440914Y-87398648D01*
X150440498Y-87401811D01*
X150422036Y-87441402D01*
X150398324Y-87495106D01*
X150320106Y-87573324D01*
X150266402Y-87597036D01*
X150226811Y-87615498D01*
X150223648Y-87615914D01*
X150218914Y-87618005D01*
X150150000Y-87626000D01*
X149450000Y-87626000D01*
X149381086Y-87618005D01*
X149376351Y-87615914D01*
X149373188Y-87615498D01*
X149333579Y-87597028D01*
X149279894Y-87573324D01*
X149201676Y-87495106D01*
X149177981Y-87441442D01*
X149159501Y-87401811D01*
X149159084Y-87398645D01*
X149156995Y-87393914D01*
X149149000Y-87325000D01*
X149149000Y-86075000D01*
X149156995Y-86006086D01*
X149159084Y-86001354D01*
X149159501Y-85998188D01*
X149177989Y-85958538D01*
X149201676Y-85904894D01*
X149279894Y-85826676D01*
X149333538Y-85802989D01*
X149373188Y-85784501D01*
X149376354Y-85784084D01*
X149381086Y-85781995D01*
X149450000Y-85774000D01*
X150150000Y-85774000D01*
X150218914Y-85781995D01*
G37*
G36*
X135988975Y-85802032D02*
G01*
X136106879Y-85850869D01*
X136212990Y-85921770D01*
X136303230Y-86012010D01*
X136374131Y-86118121D01*
X136422968Y-86236025D01*
X136447865Y-86361191D01*
X136451000Y-86425000D01*
X136451000Y-86975000D01*
X136447865Y-87038809D01*
X136422968Y-87163975D01*
X136374131Y-87281879D01*
X136303230Y-87387990D01*
X136212990Y-87478230D01*
X136106879Y-87549131D01*
X135988975Y-87597968D01*
X135863809Y-87622865D01*
X135736191Y-87622865D01*
X135611025Y-87597968D01*
X135493121Y-87549131D01*
X135387010Y-87478230D01*
X135296770Y-87387990D01*
X135225869Y-87281879D01*
X135177032Y-87163975D01*
X135152135Y-87038809D01*
X135149000Y-86975000D01*
X135149000Y-86425000D01*
X135152135Y-86361191D01*
X135177032Y-86236025D01*
X135225869Y-86118121D01*
X135296770Y-86012010D01*
X135387010Y-85921770D01*
X135493121Y-85850869D01*
X135611025Y-85802032D01*
X135736191Y-85777135D01*
X135863809Y-85777135D01*
X135988975Y-85802032D01*
G37*
G36*
X137988975Y-85802032D02*
G01*
X138106879Y-85850869D01*
X138212990Y-85921770D01*
X138303230Y-86012010D01*
X138374131Y-86118121D01*
X138422968Y-86236025D01*
X138447865Y-86361191D01*
X138451000Y-86425000D01*
X138451000Y-86975000D01*
X138447865Y-87038809D01*
X138422968Y-87163975D01*
X138374131Y-87281879D01*
X138303230Y-87387990D01*
X138212990Y-87478230D01*
X138106879Y-87549131D01*
X137988975Y-87597968D01*
X137863809Y-87622865D01*
X137736191Y-87622865D01*
X137611025Y-87597968D01*
X137493121Y-87549131D01*
X137387010Y-87478230D01*
X137296770Y-87387990D01*
X137225869Y-87281879D01*
X137177032Y-87163975D01*
X137152135Y-87038809D01*
X137149000Y-86975000D01*
X137149000Y-86425000D01*
X137152135Y-86361191D01*
X137177032Y-86236025D01*
X137225869Y-86118121D01*
X137296770Y-86012010D01*
X137387010Y-85921770D01*
X137493121Y-85850869D01*
X137611025Y-85802032D01*
X137736191Y-85777135D01*
X137863809Y-85777135D01*
X137988975Y-85802032D01*
G37*
G36*
X139988975Y-85802032D02*
G01*
X140106879Y-85850869D01*
X140212990Y-85921770D01*
X140303230Y-86012010D01*
X140374131Y-86118121D01*
X140422968Y-86236025D01*
X140447865Y-86361191D01*
X140451000Y-86425000D01*
X140451000Y-86975000D01*
X140447865Y-87038809D01*
X140422968Y-87163975D01*
X140374131Y-87281879D01*
X140303230Y-87387990D01*
X140212990Y-87478230D01*
X140106879Y-87549131D01*
X139988975Y-87597968D01*
X139863809Y-87622865D01*
X139736191Y-87622865D01*
X139611025Y-87597968D01*
X139493121Y-87549131D01*
X139387010Y-87478230D01*
X139296770Y-87387990D01*
X139225869Y-87281879D01*
X139177032Y-87163975D01*
X139152135Y-87038809D01*
X139149000Y-86975000D01*
X139149000Y-86425000D01*
X139152135Y-86361191D01*
X139177032Y-86236025D01*
X139225869Y-86118121D01*
X139296770Y-86012010D01*
X139387010Y-85921770D01*
X139493121Y-85850869D01*
X139611025Y-85802032D01*
X139736191Y-85777135D01*
X139863809Y-85777135D01*
X139988975Y-85802032D01*
G37*
G36*
X141988975Y-85802032D02*
G01*
X142106879Y-85850869D01*
X142212990Y-85921770D01*
X142303230Y-86012010D01*
X142374131Y-86118121D01*
X142422968Y-86236025D01*
X142447865Y-86361191D01*
X142451000Y-86425000D01*
X142451000Y-86975000D01*
X142447865Y-87038809D01*
X142422968Y-87163975D01*
X142374131Y-87281879D01*
X142303230Y-87387990D01*
X142212990Y-87478230D01*
X142106879Y-87549131D01*
X141988975Y-87597968D01*
X141863809Y-87622865D01*
X141736191Y-87622865D01*
X141611025Y-87597968D01*
X141493121Y-87549131D01*
X141387010Y-87478230D01*
X141296770Y-87387990D01*
X141225869Y-87281879D01*
X141177032Y-87163975D01*
X141152135Y-87038809D01*
X141149000Y-86975000D01*
X141149000Y-86425000D01*
X141152135Y-86361191D01*
X141177032Y-86236025D01*
X141225869Y-86118121D01*
X141296770Y-86012010D01*
X141387010Y-85921770D01*
X141493121Y-85850869D01*
X141611025Y-85802032D01*
X141736191Y-85777135D01*
X141863809Y-85777135D01*
X141988975Y-85802032D01*
G37*
G36*
X143988975Y-85802032D02*
G01*
X144106879Y-85850869D01*
X144212990Y-85921770D01*
X144303230Y-86012010D01*
X144374131Y-86118121D01*
X144422968Y-86236025D01*
X144447865Y-86361191D01*
X144451000Y-86425000D01*
X144451000Y-86975000D01*
X144447865Y-87038809D01*
X144422968Y-87163975D01*
X144374131Y-87281879D01*
X144303230Y-87387990D01*
X144212990Y-87478230D01*
X144106879Y-87549131D01*
X143988975Y-87597968D01*
X143863809Y-87622865D01*
X143736191Y-87622865D01*
X143611025Y-87597968D01*
X143493121Y-87549131D01*
X143387010Y-87478230D01*
X143296770Y-87387990D01*
X143225869Y-87281879D01*
X143177032Y-87163975D01*
X143152135Y-87038809D01*
X143149000Y-86975000D01*
X143149000Y-86425000D01*
X143152135Y-86361191D01*
X143177032Y-86236025D01*
X143225869Y-86118121D01*
X143296770Y-86012010D01*
X143387010Y-85921770D01*
X143493121Y-85850869D01*
X143611025Y-85802032D01*
X143736191Y-85777135D01*
X143863809Y-85777135D01*
X143988975Y-85802032D01*
G37*
G36*
X145988975Y-85802032D02*
G01*
X146106879Y-85850869D01*
X146212990Y-85921770D01*
X146303230Y-86012010D01*
X146374131Y-86118121D01*
X146422968Y-86236025D01*
X146447865Y-86361191D01*
X146451000Y-86425000D01*
X146451000Y-86975000D01*
X146447865Y-87038809D01*
X146422968Y-87163975D01*
X146374131Y-87281879D01*
X146303230Y-87387990D01*
X146212990Y-87478230D01*
X146106879Y-87549131D01*
X145988975Y-87597968D01*
X145863809Y-87622865D01*
X145736191Y-87622865D01*
X145611025Y-87597968D01*
X145493121Y-87549131D01*
X145387010Y-87478230D01*
X145296770Y-87387990D01*
X145225869Y-87281879D01*
X145177032Y-87163975D01*
X145152135Y-87038809D01*
X145149000Y-86975000D01*
X145149000Y-86425000D01*
X145152135Y-86361191D01*
X145177032Y-86236025D01*
X145225869Y-86118121D01*
X145296770Y-86012010D01*
X145387010Y-85921770D01*
X145493121Y-85850869D01*
X145611025Y-85802032D01*
X145736191Y-85777135D01*
X145863809Y-85777135D01*
X145988975Y-85802032D01*
G37*
G36*
X147988975Y-85802032D02*
G01*
X148106879Y-85850869D01*
X148212990Y-85921770D01*
X148303230Y-86012010D01*
X148374131Y-86118121D01*
X148422968Y-86236025D01*
X148447865Y-86361191D01*
X148451000Y-86425000D01*
X148451000Y-86975000D01*
X148447865Y-87038809D01*
X148422968Y-87163975D01*
X148374131Y-87281879D01*
X148303230Y-87387990D01*
X148212990Y-87478230D01*
X148106879Y-87549131D01*
X147988975Y-87597968D01*
X147863809Y-87622865D01*
X147736191Y-87622865D01*
X147611025Y-87597968D01*
X147493121Y-87549131D01*
X147387010Y-87478230D01*
X147296770Y-87387990D01*
X147225869Y-87281879D01*
X147177032Y-87163975D01*
X147152135Y-87038809D01*
X147149000Y-86975000D01*
X147149000Y-86425000D01*
X147152135Y-86361191D01*
X147177032Y-86236025D01*
X147225869Y-86118121D01*
X147296770Y-86012010D01*
X147387010Y-85921770D01*
X147493121Y-85850869D01*
X147611025Y-85802032D01*
X147736191Y-85777135D01*
X147863809Y-85777135D01*
X147988975Y-85802032D01*
G37*
G36*
X142637234Y-41090447D02*
G01*
X142847867Y-41146886D01*
X143045500Y-41239043D01*
X143224127Y-41364119D01*
X143378322Y-41518314D01*
X143503398Y-41696941D01*
X143595555Y-41894574D01*
X143651994Y-42105207D01*
X143671000Y-42322441D01*
X143651994Y-42539675D01*
X143595555Y-42750308D01*
X143503398Y-42947941D01*
X143378322Y-43126568D01*
X143224127Y-43280763D01*
X143045500Y-43405839D01*
X142847867Y-43497996D01*
X142637234Y-43554435D01*
X142420000Y-43573441D01*
X142202766Y-43554435D01*
X141992133Y-43497996D01*
X141794500Y-43405839D01*
X141615873Y-43280763D01*
X141461678Y-43126568D01*
X141336602Y-42947941D01*
X141244445Y-42750308D01*
X141188006Y-42539675D01*
X141169000Y-42322441D01*
X141188006Y-42105207D01*
X141244445Y-41894574D01*
X141336602Y-41696941D01*
X141461678Y-41518314D01*
X141615873Y-41364119D01*
X141794500Y-41239043D01*
X141992133Y-41146886D01*
X142202766Y-41090447D01*
X142420000Y-41071441D01*
X142637234Y-41090447D01*
G37*
G36*
X147717234Y-41090447D02*
G01*
X147927867Y-41146886D01*
X148125500Y-41239043D01*
X148304127Y-41364119D01*
X148458322Y-41518314D01*
X148583398Y-41696941D01*
X148675555Y-41894574D01*
X148731994Y-42105207D01*
X148751000Y-42322441D01*
X148731994Y-42539675D01*
X148675555Y-42750308D01*
X148583398Y-42947941D01*
X148458322Y-43126568D01*
X148304127Y-43280763D01*
X148125500Y-43405839D01*
X147927867Y-43497996D01*
X147717234Y-43554435D01*
X147500000Y-43573441D01*
X147282766Y-43554435D01*
X147072133Y-43497996D01*
X146874500Y-43405839D01*
X146695873Y-43280763D01*
X146541678Y-43126568D01*
X146416602Y-42947941D01*
X146324445Y-42750308D01*
X146268006Y-42539675D01*
X146249000Y-42322441D01*
X146268006Y-42105207D01*
X146324445Y-41894574D01*
X146416602Y-41696941D01*
X146541678Y-41518314D01*
X146695873Y-41364119D01*
X146874500Y-41239043D01*
X147072133Y-41146886D01*
X147282766Y-41090447D01*
X147500000Y-41071441D01*
X147717234Y-41090447D01*
G37*
G36*
X172579246Y-39938690D02*
G01*
X172798096Y-40013822D01*
X173001595Y-40123950D01*
X173184192Y-40266071D01*
X173340907Y-40436308D01*
X173467464Y-40630018D01*
X173560411Y-40841916D01*
X173617213Y-41066223D01*
X173636321Y-41296820D01*
X173617213Y-41527417D01*
X173560411Y-41751724D01*
X173467464Y-41963622D01*
X173340907Y-42157332D01*
X173184192Y-42327569D01*
X173001595Y-42469690D01*
X172798096Y-42579818D01*
X172579246Y-42654950D01*
X172351015Y-42693035D01*
X172119627Y-42693035D01*
X171891396Y-42654950D01*
X171672546Y-42579818D01*
X171469047Y-42469690D01*
X171286450Y-42327569D01*
X171129735Y-42157332D01*
X171003178Y-41963622D01*
X170910231Y-41751724D01*
X170853429Y-41527417D01*
X170834321Y-41296820D01*
X170853429Y-41066223D01*
X170910231Y-40841916D01*
X171003178Y-40630018D01*
X171129735Y-40436308D01*
X171286450Y-40266071D01*
X171469047Y-40123950D01*
X171672546Y-40013822D01*
X171891396Y-39938690D01*
X172119627Y-39900605D01*
X172351015Y-39900605D01*
X172579246Y-39938690D01*
G37*
G36*
X120508606Y-39938670D02*
G01*
X120727456Y-40013802D01*
X120930955Y-40123930D01*
X121113552Y-40266051D01*
X121270267Y-40436288D01*
X121396824Y-40629998D01*
X121489771Y-40841896D01*
X121546573Y-41066203D01*
X121565681Y-41296800D01*
X121546573Y-41527397D01*
X121489771Y-41751704D01*
X121396824Y-41963602D01*
X121270267Y-42157312D01*
X121113552Y-42327549D01*
X120930955Y-42469670D01*
X120727456Y-42579798D01*
X120508606Y-42654930D01*
X120280375Y-42693015D01*
X120048987Y-42693015D01*
X119820756Y-42654930D01*
X119601906Y-42579798D01*
X119398407Y-42469670D01*
X119215810Y-42327549D01*
X119059095Y-42157312D01*
X118932538Y-41963602D01*
X118839591Y-41751704D01*
X118782789Y-41527397D01*
X118763681Y-41296800D01*
X118782789Y-41066203D01*
X118839591Y-40841896D01*
X118932538Y-40629998D01*
X119059095Y-40436288D01*
X119215810Y-40266051D01*
X119398407Y-40123930D01*
X119601906Y-40013802D01*
X119820756Y-39938670D01*
X120048987Y-39900585D01*
X120280375Y-39900585D01*
X120508606Y-39938670D01*
G37*
G36*
X145015380Y-38611458D02*
G01*
X145068508Y-38611458D01*
X145115247Y-38620195D01*
X145164180Y-38624476D01*
X145224240Y-38640569D01*
X145281828Y-38651334D01*
X145320885Y-38666465D01*
X145362158Y-38677524D01*
X145424640Y-38706660D01*
X145484188Y-38729729D01*
X145514924Y-38748760D01*
X145547915Y-38764144D01*
X145610148Y-38807720D01*
X145668698Y-38843973D01*
X145691141Y-38864432D01*
X145715807Y-38881704D01*
X145774808Y-38940705D01*
X145829074Y-38990175D01*
X145843866Y-39009763D01*
X145860736Y-39026633D01*
X145913358Y-39101785D01*
X145959855Y-39163357D01*
X145968185Y-39180086D01*
X145978296Y-39194526D01*
X146021354Y-39286863D01*
X146056587Y-39357621D01*
X146060089Y-39369932D01*
X146064916Y-39380282D01*
X146095330Y-39493789D01*
X146115976Y-39566352D01*
X146116611Y-39573213D01*
X146117964Y-39578260D01*
X146132904Y-39749039D01*
X146136000Y-39782441D01*
X146132904Y-39815845D01*
X146117964Y-39986621D01*
X146116611Y-39991666D01*
X146115976Y-39998530D01*
X146095325Y-40071108D01*
X146064916Y-40184599D01*
X146060090Y-40194947D01*
X146056587Y-40207261D01*
X146021350Y-40278025D01*
X145978296Y-40370356D01*
X145968185Y-40384795D01*
X145959855Y-40401525D01*
X145913353Y-40463103D01*
X145860736Y-40538248D01*
X145843869Y-40555114D01*
X145829074Y-40574707D01*
X145774796Y-40624187D01*
X145715807Y-40683177D01*
X145691146Y-40700444D01*
X145668698Y-40720909D01*
X145610135Y-40757169D01*
X145547915Y-40800737D01*
X145514930Y-40816117D01*
X145484188Y-40835153D01*
X145424627Y-40858226D01*
X145362158Y-40887357D01*
X145320894Y-40898413D01*
X145281828Y-40913548D01*
X145224228Y-40924315D01*
X145164180Y-40940405D01*
X145115257Y-40944685D01*
X145068508Y-40953424D01*
X145015369Y-40953424D01*
X144960000Y-40958268D01*
X144904631Y-40953424D01*
X144851492Y-40953424D01*
X144804742Y-40944685D01*
X144755819Y-40940405D01*
X144695768Y-40924314D01*
X144638172Y-40913548D01*
X144599107Y-40898414D01*
X144557841Y-40887357D01*
X144495366Y-40858224D01*
X144435812Y-40835153D01*
X144405072Y-40816119D01*
X144372084Y-40800737D01*
X144309855Y-40757163D01*
X144251302Y-40720909D01*
X144228857Y-40700447D01*
X144204192Y-40683177D01*
X144145191Y-40624176D01*
X144090926Y-40574707D01*
X144076133Y-40555118D01*
X144059263Y-40538248D01*
X144006632Y-40463084D01*
X143960145Y-40401525D01*
X143951817Y-40384800D01*
X143941703Y-40370356D01*
X143898633Y-40277993D01*
X143863413Y-40207261D01*
X143859910Y-40194952D01*
X143855083Y-40184599D01*
X143824657Y-40071048D01*
X143804024Y-39998530D01*
X143803388Y-39991672D01*
X143802035Y-39986621D01*
X143787077Y-39815652D01*
X143784000Y-39782441D01*
X143787077Y-39749232D01*
X143802035Y-39578260D01*
X143803388Y-39573207D01*
X143804024Y-39566352D01*
X143824652Y-39493849D01*
X143855083Y-39380282D01*
X143859911Y-39369927D01*
X143863413Y-39357621D01*
X143898630Y-39286895D01*
X143941703Y-39194526D01*
X143951817Y-39180081D01*
X143960145Y-39163357D01*
X144006627Y-39101804D01*
X144059263Y-39026633D01*
X144076136Y-39009759D01*
X144090926Y-38990175D01*
X144145180Y-38940715D01*
X144204192Y-38881704D01*
X144228861Y-38864430D01*
X144251302Y-38843973D01*
X144309848Y-38807722D01*
X144372085Y-38764144D01*
X144405076Y-38748759D01*
X144435812Y-38729729D01*
X144495355Y-38706661D01*
X144557841Y-38677524D01*
X144599116Y-38666464D01*
X144638172Y-38651334D01*
X144695756Y-38640569D01*
X144755819Y-38624476D01*
X144804752Y-38620194D01*
X144851492Y-38611458D01*
X144904620Y-38611458D01*
X144960000Y-38606613D01*
X145015380Y-38611458D01*
G37*
G36*
X142637234Y-36010447D02*
G01*
X142847867Y-36066886D01*
X143045500Y-36159043D01*
X143224127Y-36284119D01*
X143378322Y-36438314D01*
X143503398Y-36616941D01*
X143595555Y-36814574D01*
X143651994Y-37025207D01*
X143671000Y-37242441D01*
X143651994Y-37459675D01*
X143595555Y-37670308D01*
X143503398Y-37867941D01*
X143378322Y-38046568D01*
X143224127Y-38200763D01*
X143045500Y-38325839D01*
X142847867Y-38417996D01*
X142637234Y-38474435D01*
X142420000Y-38493441D01*
X142202766Y-38474435D01*
X141992133Y-38417996D01*
X141794500Y-38325839D01*
X141615873Y-38200763D01*
X141461678Y-38046568D01*
X141336602Y-37867941D01*
X141244445Y-37670308D01*
X141188006Y-37459675D01*
X141169000Y-37242441D01*
X141188006Y-37025207D01*
X141244445Y-36814574D01*
X141336602Y-36616941D01*
X141461678Y-36438314D01*
X141615873Y-36284119D01*
X141794500Y-36159043D01*
X141992133Y-36066886D01*
X142202766Y-36010447D01*
X142420000Y-35991441D01*
X142637234Y-36010447D01*
G37*
G36*
X147717234Y-36010447D02*
G01*
X147927867Y-36066886D01*
X148125500Y-36159043D01*
X148304127Y-36284119D01*
X148458322Y-36438314D01*
X148583398Y-36616941D01*
X148675555Y-36814574D01*
X148731994Y-37025207D01*
X148751000Y-37242441D01*
X148731994Y-37459675D01*
X148675555Y-37670308D01*
X148583398Y-37867941D01*
X148458322Y-38046568D01*
X148304127Y-38200763D01*
X148125500Y-38325839D01*
X147927867Y-38417996D01*
X147717234Y-38474435D01*
X147500000Y-38493441D01*
X147282766Y-38474435D01*
X147072133Y-38417996D01*
X146874500Y-38325839D01*
X146695873Y-38200763D01*
X146541678Y-38046568D01*
X146416602Y-37867941D01*
X146324445Y-37670308D01*
X146268006Y-37459675D01*
X146249000Y-37242441D01*
X146268006Y-37025207D01*
X146324445Y-36814574D01*
X146416602Y-36616941D01*
X146541678Y-36438314D01*
X146695873Y-36284119D01*
X146874500Y-36159043D01*
X147072133Y-36066886D01*
X147282766Y-36010447D01*
X147500000Y-35991441D01*
X147717234Y-36010447D01*
G37*
M02*
