M48
; DRILL file {KiCad 8.0.8} date 2025-03-17T14:01:32-0400
; FORMAT={-:-/ absolute / metric / decimal}
; #@! TF.CreationDate,2025-03-17T14:01:32-04:00
; #@! TF.GenerationSoftware,Kicad,Pcbnew,8.0.8
; #@! TF.FileFunction,Plated,1,4,PTH
FMAT,2
METRIC
; #@! TA.AperFunction,Plated,PTH,ViaDrill
T1C0.300
; #@! TA.AperFunction,Plated,PTH,ComponentDrill
T2C0.300
; #@! TA.AperFunction,Plated,PTH,ComponentDrill
T3C0.600
; #@! TA.AperFunction,Plated,PTH,ComponentDrill
T4C0.750
; #@! TA.AperFunction,Plated,PTH,ComponentDrill
T5C1.000
; #@! TA.AperFunction,Plated,PTH,ComponentDrill
T6C1.500
; #@! TA.AperFunction,Plated,PTH,ComponentDrill
T7C1.600
%
G90
G05
T1
X113.22Y-59.125
X113.33Y-65.435
X113.37Y-71.035
X113.41Y-75.445
X113.41Y-78.695
X113.45Y-54.915
X113.53Y-47.762
X113.635Y-82.01
X113.68Y-43.245
X113.7Y-52.072
X113.75Y-38.4
X115.34Y-62.375
X115.4Y-49.28
X115.4Y-73.89
X115.425Y-35.925
X115.5Y-41.435
X115.555Y-84.94
X115.6Y-79.465
X116.16Y-67.785
X116.2Y-39.025
X116.2Y-59.415
X116.35Y-53.015
X116.42Y-82.08
X116.612Y-104.597
X117.36Y-78.102
X117.53Y-75.04
X117.63Y-45.185
X117.725Y-37.15
X117.987Y-109.512
X117.987Y-119.512
X117.987Y-129.512
X118.2Y-34.85
X118.4Y-65.59
X118.42Y-57.092
X118.625Y-61.315
X118.71Y-80.56
X118.87Y-69.222
X119.07Y-71.825
X119.4Y-50.88
X119.4Y-52.722
X119.56Y-48.582
X120.175Y-74.69
X120.485Y-82.28
X120.57Y-78.445
X120.8Y-34.395
X120.91Y-65.875
X121.41Y-59.205
X121.88Y-37.795
X121.88Y-80.51
X121.96Y-63.352
X121.97Y-72.07
X122.19Y-69.983
X122.25Y-47.872
X122.525Y-35.425
X122.675Y-53.315
X122.71Y-56.492
X122.8Y-51.48
X122.82Y-77.492
X122.94Y-74.492
X123.08Y-66.97
X123.762Y-105.297
X124.15Y-59.812
X124.209Y-84.94
X124.27Y-82.08
X124.32Y-80.0
X124.49Y-77.405
X124.56Y-74.465
X124.6Y-38.732
X124.68Y-64.945
X124.86Y-62.422
X125.0Y-42.932
X125.07Y-70.865
X125.18Y-68.085
X125.275Y-50.072
X125.37Y-55.2
X125.42Y-63.595
X125.76Y-57.665
X125.77Y-66.415
X125.8Y-71.975
X125.94Y-34.165
X125.98Y-60.515
X126.0Y-45.242
X126.03Y-75.275
X126.14Y-73.495
X126.19Y-69.215
X126.53Y-77.885
X126.59Y-81.15
X126.6Y-52.322
X127.0Y-109.5
X127.0Y-119.5
X127.0Y-129.5
X127.26Y-136.61
X127.742Y-131.5
X127.767Y-118.0
X127.77Y-113.0
X127.8Y-35.242
X127.8Y-79.505
X127.87Y-51.06
X128.0Y-38.842
X128.15Y-56.065
X128.4Y-42.842
X128.53Y-60.795
X128.53Y-64.255
X128.55Y-66.155
X128.62Y-68.125
X128.64Y-62.645
X128.64Y-72.545
X128.657Y-120.587
X128.72Y-109.55
X128.75Y-70.155
X128.75Y-74.825
X128.862Y-106.1
X128.862Y-107.825
X128.92Y-82.155
X129.2Y-48.79
X129.25Y-76.725
X129.62Y-73.54
X129.64Y-71.435
X129.65Y-68.915
X129.86Y-53.81
X129.88Y-59.885
X130.02Y-58.315
X130.2Y-51.48
X130.23Y-80.86
X130.61Y-77.89
X130.68Y-75.0
X130.688Y-119.108
X130.74Y-76.45
X130.98Y-68.945
X131.2Y-37.442
X131.2Y-44.842
X131.29Y-59.175
X131.51Y-81.76
X131.62Y-95.45
X131.78Y-60.752
X131.93Y-57.732
X131.963Y-117.282
X132.0Y-65.822
X132.0Y-66.822
X132.0Y-67.822
X132.0Y-68.822
X132.0Y-69.822
X132.0Y-70.822
X132.04Y-64.115
X132.11Y-62.695
X132.16Y-78.66
X132.2Y-77.04
X132.25Y-75.58
X132.382Y-73.42
X132.44Y-74.24
X132.46Y-54.722
X132.48Y-34.235
X132.49Y-72.422
X132.59Y-97.72
X132.6Y-41.042
X132.675Y-52.947
X133.0Y-65.822
X133.107Y-135.972
X133.18Y-49.7
X133.188Y-127.218
X133.197Y-125.127
X133.207Y-126.147
X133.275Y-62.597
X133.65Y-64.165
X133.82Y-56.982
X133.92Y-94.32
X133.94Y-45.292
X133.95Y-59.997
X134.0Y-65.822
X134.2Y-35.442
X134.4Y-43.042
X134.44Y-104.6
X134.46Y-98.67
X134.6Y-137.81
X134.7Y-61.347
X134.725Y-47.665
X134.725Y-54.322
X134.75Y-49.96
X134.75Y-51.24
X134.8Y-38.842
X134.85Y-58.398
X134.99Y-66.653
X135.0Y-65.822
X135.0Y-67.562
X135.0Y-68.472
X135.07Y-71.082
X135.15Y-145.73
X135.19Y-95.94
X135.34Y-52.61
X135.43Y-77.53
X135.8Y-59.747
X135.9Y-63.922
X135.91Y-49.74
X135.92Y-79.945
X135.95Y-71.09
X136.0Y-68.522
X136.07Y-73.326
X136.09Y-132.488
X136.125Y-48.74
X136.162Y-106.962
X136.2Y-67.123
X136.252Y-97.68
X136.325Y-54.523
X136.35Y-56.755
X136.35Y-105.34
X136.46Y-61.962
X136.56Y-65.582
X136.625Y-44.942
X136.662Y-124.022
X136.72Y-53.05
X136.775Y-119.285
X136.787Y-127.797
X136.82Y-77.53
X136.86Y-79.945
X136.975Y-58.572
X136.98Y-46.78
X137.0Y-68.522
X137.157Y-117.557
X137.2Y-34.642
X137.2Y-36.242
X137.2Y-38.042
X137.2Y-40.042
X137.2Y-42.442
X137.27Y-49.72
X137.31Y-140.25
X137.5Y-67.322
X137.95Y-48.672
X138.0Y-68.522
X138.08Y-53.495
X138.09Y-63.682
X138.17Y-77.52
X138.23Y-89.39
X138.262Y-140.223
X138.29Y-61.062
X138.3Y-66.532
X138.31Y-59.342
X138.63Y-57.215
X138.76Y-82.76
X138.84Y-49.7
X138.94Y-47.5
X138.94Y-64.793
X139.12Y-52.83
X139.177Y-100.87
X139.177Y-104.26
X139.177Y-106.347
X139.177Y-107.157
X139.177Y-107.947
X139.225Y-109.435
X139.3Y-67.722
X139.32Y-79.8
X139.374Y-100.114
X139.5Y-35.317
X139.5Y-36.242
X139.5Y-37.242
X139.5Y-38.242
X139.5Y-39.242
X139.5Y-40.242
X139.5Y-41.242
X139.5Y-42.242
X139.5Y-43.242
X139.5Y-44.242
X139.51Y-46.222
X139.525Y-34.492
X139.57Y-77.52
X139.588Y-127.047
X139.63Y-48.71
X139.65Y-62.482
X139.74Y-58.052
X139.85Y-53.57
X139.862Y-125.122
X139.88Y-82.74
X139.98Y-45.132
X140.03Y-66.242
X140.07Y-99.927
X140.18Y-60.883
X140.24Y-49.66
X140.25Y-69.572
X140.35Y-55.822
X140.368Y-54.822
X140.525Y-34.467
X140.53Y-59.322
X140.6Y-64.632
X140.61Y-79.81
X140.63Y-89.38
X140.67Y-47.73
X140.75Y-35.65
X140.825Y-40.475
X140.83Y-77.53
X140.877Y-110.447
X140.887Y-109.387
X140.91Y-43.675
X140.97Y-46.42
X141.01Y-82.76
X141.07Y-45.112
X141.08Y-52.83
X141.11Y-97.08
X141.188Y-138.072
X141.2Y-62.822
X141.22Y-95.83
X141.225Y-69.572
X141.454Y-91.92
X141.512Y-131.898
X141.525Y-34.467
X141.55Y-48.46
X141.61Y-49.64
X141.612Y-114.438
X141.688Y-130.438
X141.7Y-67.022
X141.787Y-104.797
X141.8Y-60.792
X141.8Y-65.623
X141.882Y-59.125
X141.92Y-67.962
X141.95Y-53.52
X141.957Y-64.125
X142.0Y-79.79
X142.03Y-68.733
X142.11Y-47.27
X142.15Y-82.72
X142.18Y-45.072
X142.2Y-61.922
X142.47Y-70.932
X142.487Y-114.438
X142.525Y-34.467
X142.548Y-73.106
X142.551Y-72.206
X142.63Y-74.392
X142.633Y-98.51
X142.725Y-39.9
X142.81Y-138.747
X142.87Y-49.68
X142.93Y-46.23
X142.97Y-96.428
X142.97Y-94.37
X143.06Y-89.44
X143.1Y-55.422
X143.1Y-56.222
X143.11Y-79.72
X143.12Y-53.87
X143.21Y-57.525
X143.24Y-45.012
X143.312Y-114.438
X143.362Y-106.647
X143.43Y-82.71
X143.487Y-123.647
X143.525Y-34.467
X143.73Y-95.42
X143.79Y-53.07
X143.82Y-52.02
X143.92Y-110.415
X143.987Y-111.097
X144.0Y-47.09
X144.0Y-47.99
X144.0Y-48.99
X144.0Y-49.99
X144.06Y-51.05
X144.1Y-44.0
X144.2Y-101.947
X144.22Y-46.002
X144.3Y-45.032
X144.48Y-79.72
X144.525Y-34.467
X144.55Y-97.0
X144.607Y-94.992
X144.625Y-75.947
X144.72Y-82.69
X144.735Y-58.01
X144.76Y-65.885
X144.78Y-64.925
X144.82Y-59.935
X144.82Y-60.935
X144.82Y-61.935
X144.82Y-62.935
X144.82Y-63.935
X144.875Y-91.985
X144.93Y-58.995
X144.95Y-35.75
X145.025Y-37.5
X145.525Y-34.467
X145.562Y-119.672
X145.59Y-45.002
X145.61Y-45.892
X145.7Y-99.927
X145.737Y-140.177
X145.84Y-51.19
X145.85Y-44.025
X145.99Y-89.3
X146.0Y-47.99
X146.0Y-48.99
X146.0Y-52.21
X146.0Y-53.3
X146.525Y-34.467
X146.55Y-57.347
X146.55Y-58.398
X146.55Y-59.398
X146.55Y-60.397
X146.55Y-61.397
X146.55Y-62.397
X146.55Y-63.397
X146.55Y-64.397
X146.55Y-65.397
X146.588Y-105.197
X146.625Y-66.373
X146.72Y-45.012
X146.722Y-46.917
X146.75Y-140.17
X146.8Y-53.922
X146.812Y-114.347
X146.825Y-49.89
X147.025Y-51.622
X147.16Y-52.76
X147.237Y-112.422
X147.29Y-48.492
X147.3Y-67.172
X147.35Y-39.7
X147.468Y-139.357
X147.525Y-34.467
X147.56Y-64.905
X147.65Y-46.062
X147.65Y-61.415
X147.68Y-63.345
X147.7Y-68.623
X147.77Y-77.56
X147.8Y-57.523
X147.8Y-59.922
X147.85Y-45.032
X147.96Y-82.54
X148.0Y-58.722
X148.0Y-69.685
X148.025Y-53.515
X148.06Y-80.96
X148.08Y-79.24
X148.29Y-119.665
X148.338Y-97.547
X148.37Y-76.225
X148.47Y-65.605
X148.52Y-48.982
X148.525Y-34.467
X148.58Y-62.345
X148.63Y-67.375
X148.65Y-51.722
X148.7Y-61.085
X148.7Y-64.395
X148.787Y-107.405
X148.86Y-89.39
X148.87Y-43.825
X149.0Y-45.072
X149.1Y-35.525
X149.1Y-39.9
X149.28Y-142.78
X149.3Y-55.023
X149.325Y-56.523
X149.35Y-59.645
X149.39Y-69.76
X149.48Y-46.442
X149.525Y-34.467
X149.55Y-47.872
X149.612Y-110.172
X149.737Y-91.797
X149.8Y-57.845
X149.85Y-52.85
X149.92Y-50.752
X149.963Y-102.867
X150.01Y-77.88
X150.05Y-45.112
X150.05Y-76.23
X150.07Y-81.065
X150.08Y-79.22
X150.118Y-95.767
X150.15Y-82.47
X150.225Y-35.3
X150.225Y-36.2
X150.225Y-37.2
X150.225Y-38.2
X150.225Y-39.2
X150.225Y-40.2
X150.225Y-41.2
X150.225Y-42.2
X150.225Y-43.2
X150.225Y-44.2
X150.35Y-68.94
X150.4Y-49.39
X150.425Y-34.45
X150.45Y-74.588
X150.52Y-59.665
X150.65Y-55.225
X150.82Y-69.93
X150.89Y-58.455
X151.127Y-136.308
X151.43Y-51.982
X151.53Y-76.34
X151.8Y-50.19
X151.88Y-52.88
X152.14Y-63.01
X152.17Y-61.59
X152.17Y-64.45
X152.18Y-66.15
X152.2Y-48.59
X152.21Y-60.37
X152.22Y-59.155
X152.275Y-55.675
X152.31Y-67.49
X152.4Y-36.642
X152.4Y-39.042
X152.4Y-41.042
X152.4Y-43.042
X152.4Y-45.242
X152.42Y-69.91
X152.43Y-142.58
X152.51Y-68.64
X152.51Y-80.905
X152.59Y-82.31
X152.61Y-77.7
X152.64Y-79.25
X152.677Y-102.825
X152.8Y-74.95
X152.938Y-121.022
X152.96Y-53.54
X153.375Y-56.825
X154.02Y-75.985
X154.08Y-51.822
X154.1Y-33.8
X154.2Y-47.59
X154.2Y-54.322
X154.4Y-38.042
X154.4Y-49.99
X154.575Y-57.95
X154.6Y-42.842
X154.6Y-55.922
X154.82Y-80.985
X154.9Y-79.245
X154.9Y-82.39
X155.0Y-35.642
X155.0Y-52.523
X155.0Y-77.475
X155.2Y-63.925
X155.25Y-62.375
X155.3Y-69.615
X155.305Y-60.722
X155.317Y-114.442
X155.325Y-59.325
X155.335Y-68.252
X155.365Y-67.002
X155.38Y-65.37
X155.4Y-40.842
X155.74Y-54.66
X155.922Y-133.282
X156.2Y-44.592
X156.315Y-68.912
X156.385Y-67.58
X156.4Y-48.44
X156.44Y-56.602
X156.51Y-146.66
X156.585Y-61.58
X156.585Y-64.38
X156.67Y-52.142
X156.785Y-58.38
X156.83Y-62.93
X156.88Y-60.08
X156.885Y-65.78
X157.0Y-54.523
X157.025Y-103.375
X157.36Y-71.225
X157.5Y-34.235
X157.575Y-49.99
X157.875Y-42.192
X157.88Y-68.36
X158.15Y-62.435
X158.2Y-57.625
X158.21Y-70.005
X158.4Y-38.042
X158.425Y-55.898
X158.57Y-60.815
X158.63Y-64.445
X158.63Y-66.985
X159.0Y-53.28
X159.01Y-72.935
X159.14Y-44.01
X159.2Y-39.842
X159.44Y-58.555
X159.475Y-47.015
X159.48Y-68.945
X159.95Y-71.38
X159.96Y-57.13
X160.0Y-35.442
X160.09Y-62.735
X160.38Y-60.265
X160.48Y-74.455
X160.525Y-94.35
X160.55Y-82.49
X160.55Y-100.25
X160.85Y-65.875
X160.95Y-78.165
X161.06Y-72.655
X161.125Y-76.315
X161.22Y-70.005
X161.29Y-59.2
X161.325Y-80.14
X161.425Y-67.775
X161.5Y-53.398
X161.8Y-64.075
X161.84Y-38.105
X162.12Y-44.175
X162.25Y-61.775
X162.65Y-55.68
X162.975Y-41.092
X163.06Y-68.835
X163.07Y-74.68
X163.145Y-49.882
X163.51Y-53.325
X163.52Y-46.54
X163.585Y-82.395
X163.84Y-34.395
X164.146Y-95.843
X164.21Y-94.312
X164.25Y-43.925
X164.51Y-55.72
X164.51Y-57.98
X164.6Y-37.442
X164.71Y-73.715
X164.71Y-77.925
X164.873Y-105.442
X164.88Y-70.735
X165.102Y-90.623
X165.41Y-80.33
X165.438Y-109.562
X165.487Y-119.512
X165.487Y-129.512
X165.675Y-53.922
X165.97Y-65.39
X166.0Y-62.8
X166.25Y-75.935
X166.48Y-55.39
X166.798Y-106.692
X166.82Y-60.245
X166.83Y-84.32
X166.925Y-45.267
X166.977Y-89.522
X167.075Y-40.825
X167.135Y-91.43
X167.21Y-78.42
X167.345Y-49.832
X167.42Y-52.325
X167.48Y-34.275
X167.54Y-80.3
X167.61Y-71.975
X167.77Y-68.755
X167.92Y-58.825
X168.23Y-43.815
X168.45Y-82.25
X168.768Y-105.427
X168.84Y-75.445
X168.903Y-90.647
X168.918Y-106.537
X169.06Y-56.98
X169.09Y-78.585
X169.725Y-52.705
X169.92Y-72.225
X170.0Y-37.607
X170.29Y-65.47
X170.48Y-98.5
X170.75Y-47.522
X170.84Y-34.665
X170.882Y-89.483
X170.9Y-108.09
X171.03Y-55.35
X171.12Y-69.265
X171.44Y-80.3
X172.48Y-73.465
X172.498Y-105.367
X172.648Y-106.542
X172.702Y-90.647
X172.72Y-52.382
X172.85Y-60.6
X172.91Y-82.32
X172.93Y-53.8
X173.14Y-77.435
X173.74Y-45.165
X174.17Y-36.715
X174.22Y-78.095
X174.24Y-34.625
X174.38Y-70.405
X174.45Y-109.55
X174.482Y-99.822
X174.5Y-119.5
X174.5Y-129.5
X174.51Y-67.305
X174.642Y-89.492
X174.748Y-106.842
X174.802Y-102.447
X174.81Y-56.65
X175.46Y-64.555
X175.5Y-60.53
X175.83Y-84.25
X176.25Y-76.46
X176.36Y-73.795
X176.4Y-53.89
X176.48Y-80.34
X176.49Y-39.185
X176.61Y-69.15
X176.86Y-82.3
X176.94Y-62.66
X177.15Y-58.53
X177.25Y-51.655
X177.45Y-36.595
X177.5Y-46.822
X178.96Y-71.545
X178.96Y-75.305
X179.08Y-40.005
X179.16Y-78.425
X179.18Y-80.5
X179.2Y-65.14
X179.23Y-68.295
X179.27Y-48.502
X179.27Y-53.015
X179.27Y-56.885
X179.28Y-43.365
X179.32Y-82.28
X179.56Y-61.24
T2
X143.0Y-103.177
X143.0Y-104.377
X143.0Y-105.578
X144.15Y-103.177
X144.2Y-104.377
X144.2Y-105.578
X145.0Y-71.972
X145.0Y-73.248
X145.4Y-103.177
X145.4Y-104.377
X145.4Y-105.578
X146.275Y-71.972
X146.275Y-73.248
T4
X127.58Y-141.81
X129.58Y-141.81
X135.8Y-86.7
X137.8Y-86.7
X139.8Y-86.7
X141.8Y-86.7
X143.8Y-86.7
X145.8Y-86.7
X147.8Y-86.7
X149.8Y-86.7
T5
X125.162Y-93.108
X125.162Y-95.647
X125.162Y-98.188
X125.162Y-100.727
X154.067Y-109.372
X156.607Y-109.372
X159.147Y-109.372
X161.688Y-109.372
T6
X144.96Y-39.782
T7
X142.42Y-37.242
X142.42Y-42.322
X147.5Y-37.242
X147.5Y-42.322
T3
G00X137.588Y-141.767
M15
G01X137.588Y-142.868
M16
G05
G00X137.588Y-146.097
M15
G01X137.588Y-146.897
M16
G05
G00X146.227Y-141.767
M15
G01X146.227Y-142.868
M16
G05
G00X146.227Y-146.097
M15
G01X146.227Y-146.897
M16
G05
M30
