%TF.GenerationSoftware,KiCad,Pcbnew,8.0.7*%
%TF.CreationDate,2025-03-16T18:45:05-04:00*%
%TF.ProjectId,RP2350_V2,52503233-3530-45f5-9632-2e6b69636164,2.0*%
%TF.SameCoordinates,Original*%
%TF.FileFunction,Copper,L2,Inr*%
%TF.FilePolarity,Positive*%
%FSLAX46Y46*%
G04 Gerber Fmt 4.6, Leading zero omitted, Abs format (unit mm)*
G04 Created by KiCad (PCBNEW 8.0.7) date 2025-03-16 18:45:05*
%MOMM*%
%LPD*%
G01*
G04 APERTURE LIST*
G04 Aperture macros list*
%AMRoundRect*
0 Rectangle with rounded corners*
0 $1 Rounding radius*
0 $2 $3 $4 $5 $6 $7 $8 $9 X,Y pos of 4 corners*
0 Add a 4 corners polygon primitive as box body*
4,1,4,$2,$3,$4,$5,$6,$7,$8,$9,$2,$3,0*
0 Add four circle primitives for the rounded corners*
1,1,$1+$1,$2,$3*
1,1,$1+$1,$4,$5*
1,1,$1+$1,$6,$7*
1,1,$1+$1,$8,$9*
0 Add four rect primitives between the rounded corners*
20,1,$1+$1,$2,$3,$4,$5,0*
20,1,$1+$1,$4,$5,$6,$7,0*
20,1,$1+$1,$6,$7,$8,$9,0*
20,1,$1+$1,$8,$9,$2,$3,0*%
G04 Aperture macros list end*
%TA.AperFunction,HeatsinkPad*%
%ADD10C,0.800000*%
%TD*%
%TA.AperFunction,ComponentPad*%
%ADD11C,2.250000*%
%TD*%
%TA.AperFunction,ComponentPad*%
%ADD12C,2.400000*%
%TD*%
%TA.AperFunction,ComponentPad*%
%ADD13O,1.000000X2.100000*%
%TD*%
%TA.AperFunction,ComponentPad*%
%ADD14O,1.000000X1.800000*%
%TD*%
%TA.AperFunction,ComponentPad*%
%ADD15R,1.700000X1.700000*%
%TD*%
%TA.AperFunction,ComponentPad*%
%ADD16O,1.700000X1.700000*%
%TD*%
%TA.AperFunction,ComponentPad*%
%ADD17RoundRect,0.250000X0.350000X0.625000X-0.350000X0.625000X-0.350000X-0.625000X0.350000X-0.625000X0*%
%TD*%
%TA.AperFunction,ComponentPad*%
%ADD18O,1.200000X1.750000*%
%TD*%
%TA.AperFunction,ViaPad*%
%ADD19C,0.700000*%
%TD*%
%TA.AperFunction,Conductor*%
%ADD20C,0.150000*%
%TD*%
%TA.AperFunction,Conductor*%
%ADD21C,0.300000*%
%TD*%
G04 APERTURE END LIST*
D10*
%TO.N,GND*%
%TO.C,*%
X146275000Y-74482559D03*
%TD*%
%TO.N,GND*%
%TO.C,*%
X145000000Y-74482559D03*
%TD*%
%TO.N,GND*%
%TO.C,*%
X145000000Y-73207559D03*
%TD*%
D11*
%TO.N,Net-(C63-Pad2)*%
%TO.C,J4*%
X144960000Y-40807559D03*
D12*
%TO.N,GND*%
X142420000Y-43347559D03*
X147500000Y-43347559D03*
X147500000Y-38267559D03*
X142420000Y-38267559D03*
%TD*%
D13*
%TO.N,unconnected-(J3-SHIELD-PadS1)_3*%
%TO.C,J3*%
X137587500Y-142317500D03*
D14*
%TO.N,unconnected-(J3-SHIELD-PadS1)_1*%
X137587500Y-146497500D03*
D13*
%TO.N,unconnected-(J3-SHIELD-PadS1)_2*%
X146227500Y-142317500D03*
D14*
%TO.N,unconnected-(J3-SHIELD-PadS1)*%
X146227500Y-146497500D03*
%TD*%
D15*
%TO.N,/SWCLK*%
%TO.C,J1*%
X125162500Y-93107500D03*
D16*
%TO.N,GND*%
X125162500Y-95647500D03*
%TO.N,/SWD*%
X125162500Y-98187500D03*
%TO.N,GND*%
X125162500Y-100727500D03*
%TD*%
D17*
%TO.N,/DISPLAY_BUSY*%
%TO.C,J5*%
X149800000Y-86700000D03*
D18*
%TO.N,/DISPLAY_RESET*%
X147800000Y-86700000D03*
%TO.N,/DISPLAY_DC*%
X145800000Y-86700000D03*
%TO.N,/SPI1_CS*%
X143800000Y-86700000D03*
%TO.N,/SPI1_CLK*%
X141800000Y-86700000D03*
%TO.N,/SPI1_TX*%
X139800000Y-86700000D03*
%TO.N,GND*%
X137800000Y-86700000D03*
%TO.N,+3V3*%
X135800000Y-86700000D03*
%TD*%
D17*
%TO.N,/VBAT*%
%TO.C,J6*%
X129580000Y-141810000D03*
D18*
%TO.N,GND*%
X127580000Y-141810000D03*
%TD*%
D15*
%TO.N,/UART_Tx_DEBUG*%
%TO.C,J7*%
X154067500Y-109372500D03*
D16*
%TO.N,GND*%
X156607500Y-109372500D03*
%TO.N,/UART_Rx_DEBUG*%
X159147500Y-109372500D03*
%TO.N,GND*%
X161687500Y-109372500D03*
%TD*%
D10*
%TO.N,GND*%
%TO.C,*%
X146275000Y-73207559D03*
%TD*%
%TO.N,GND*%
%TO.C,U1*%
X145400000Y-105577500D03*
X145400000Y-104377500D03*
X145400000Y-103177500D03*
X144200000Y-105577500D03*
X144200000Y-104377500D03*
X144150000Y-103177500D03*
X143000000Y-105577500D03*
X143000000Y-104377500D03*
X143000000Y-103177500D03*
%TD*%
D19*
%TO.N,GND*%
X167720000Y-51850000D03*
X141800000Y-66857559D03*
X143800000Y-53825000D03*
X131400000Y-91600000D03*
X134850000Y-59632559D03*
X135150000Y-145730000D03*
X134700000Y-62582559D03*
X148800000Y-47667559D03*
X150040000Y-80500000D03*
X150225000Y-45225000D03*
X154600000Y-43867559D03*
X179270000Y-58120000D03*
X146800000Y-55157559D03*
X138700000Y-52650000D03*
X140600000Y-47067559D03*
X142475000Y-46025000D03*
X125980000Y-61750000D03*
X120175000Y-75925000D03*
X151460000Y-80550000D03*
X149310000Y-78960000D03*
X147025000Y-51300000D03*
X122710000Y-57727559D03*
X157500000Y-35260000D03*
X171120000Y-70500000D03*
X148290300Y-119664824D03*
X159950000Y-72615000D03*
X137500000Y-68557559D03*
X168400000Y-82025000D03*
X159200000Y-40867559D03*
X170800000Y-54210000D03*
X145840000Y-52867559D03*
X179270000Y-54250000D03*
X118200000Y-35875000D03*
X139740000Y-59287559D03*
X140530000Y-60557559D03*
X146550000Y-60632559D03*
X156200000Y-45617559D03*
X138090000Y-64917559D03*
X148300000Y-46160000D03*
X148337500Y-97547500D03*
X161325000Y-81375000D03*
X150225000Y-42225000D03*
X147350000Y-45800000D03*
X136662500Y-124022500D03*
X169920000Y-73460000D03*
X136000000Y-69757559D03*
X142525000Y-35492559D03*
X163790000Y-56370000D03*
X146750000Y-140170000D03*
X116612500Y-104597500D03*
X136200000Y-49530000D03*
X154080000Y-51500000D03*
X137925000Y-46717559D03*
X161060000Y-73890000D03*
X149000000Y-48867559D03*
X136125000Y-48417559D03*
X152677500Y-102825000D03*
X165487500Y-119512500D03*
X119560000Y-48260000D03*
X144700000Y-59132559D03*
X159000000Y-52957559D03*
X149525000Y-35492559D03*
X142140000Y-82620000D03*
X125275000Y-49750000D03*
X144700000Y-63132559D03*
X138990000Y-80010000D03*
X126140000Y-74730000D03*
X150400000Y-47467559D03*
X143730000Y-95420000D03*
X129800000Y-55557559D03*
X139500000Y-37267559D03*
X142200000Y-63157559D03*
X155922500Y-133282500D03*
X168767689Y-105426765D03*
X124560000Y-75700000D03*
X132600000Y-42067559D03*
X176490000Y-40210000D03*
X128150000Y-57300000D03*
X121880000Y-38820000D03*
X151800000Y-49867559D03*
X147525000Y-35492559D03*
X130360000Y-76730000D03*
X133000000Y-67057559D03*
X139500000Y-42267559D03*
X155305000Y-61957441D03*
X146625000Y-67607559D03*
X126190000Y-70450000D03*
X148650000Y-51400000D03*
X136460000Y-63197559D03*
X140877500Y-110447500D03*
X132000000Y-71057559D03*
X174500000Y-129500000D03*
X152400000Y-35867559D03*
X162975000Y-42117559D03*
X165095000Y-64660000D03*
X161500000Y-54632559D03*
X179160000Y-79660000D03*
X151820000Y-64950000D03*
X153000000Y-57557559D03*
X140400000Y-48467559D03*
X170320000Y-57810000D03*
X148430000Y-77050000D03*
X164880000Y-71970000D03*
X174482500Y-99822500D03*
X156785000Y-59615000D03*
X164710000Y-79160000D03*
X164250000Y-44950000D03*
X152400000Y-40067559D03*
X149100000Y-36550000D03*
X132000000Y-68057559D03*
X164710000Y-74950000D03*
X116200000Y-60650000D03*
X141187500Y-138072500D03*
X118870000Y-70457559D03*
X174380000Y-71640000D03*
X141920000Y-69197559D03*
X155365000Y-68237441D03*
X125940000Y-35190000D03*
X144700000Y-67132559D03*
X150225000Y-41225000D03*
X153450000Y-58450000D03*
X179270000Y-48180000D03*
X132000000Y-78557559D03*
X134000000Y-67057559D03*
X127000000Y-109500000D03*
X141957500Y-65360059D03*
X143970000Y-51807559D03*
X144700000Y-62132559D03*
X134200000Y-36467559D03*
X119400000Y-50557559D03*
X126000000Y-46267559D03*
X139500000Y-43267559D03*
X113410000Y-76680000D03*
X150225000Y-40225000D03*
X134600000Y-137810000D03*
X144000000Y-54757559D03*
X170000000Y-38632559D03*
X138780000Y-82620000D03*
X117360000Y-79337559D03*
X113220000Y-60360000D03*
X139200000Y-47667559D03*
X137650000Y-58207559D03*
X139500000Y-41267559D03*
X142725000Y-40925000D03*
X122190000Y-71217559D03*
X131200000Y-38467559D03*
X177250000Y-51332559D03*
X143970000Y-52807559D03*
X117725000Y-38175000D03*
X129250000Y-77960000D03*
X174510000Y-68540000D03*
X138310000Y-60577559D03*
X141687500Y-130437700D03*
X148750000Y-70100000D03*
X147467500Y-139357500D03*
X149350000Y-60880000D03*
X136325000Y-55757559D03*
X146550000Y-63632559D03*
X139000000Y-49467559D03*
X154400000Y-49667559D03*
X158425000Y-57132559D03*
X134725000Y-47342559D03*
X154400000Y-39067559D03*
X141600000Y-49467559D03*
X169725000Y-52382559D03*
X113330000Y-66670000D03*
X160480000Y-75690000D03*
X164145571Y-95843479D03*
X156205000Y-105025000D03*
X129200000Y-48467559D03*
X151000000Y-71157559D03*
X137200000Y-43467559D03*
X143430000Y-82610000D03*
X156885000Y-67015000D03*
X125180000Y-69320000D03*
X139500000Y-39267559D03*
X147680000Y-64580000D03*
X154020000Y-77220000D03*
X174220000Y-79330000D03*
X127260000Y-136610000D03*
X135000000Y-68797559D03*
X141882500Y-60360059D03*
X133187500Y-127217500D03*
X144700000Y-65132559D03*
X147300000Y-68407559D03*
X135070000Y-72317559D03*
X177450000Y-37620000D03*
X136787500Y-127797500D03*
X122820000Y-78727559D03*
X136350000Y-105340000D03*
X152400000Y-37667559D03*
X138200000Y-55757559D03*
X124238750Y-86000000D03*
X165690000Y-57240000D03*
X141512500Y-131897500D03*
X177520000Y-61070000D03*
X125770000Y-67650000D03*
X117987500Y-129512500D03*
X155385000Y-66037441D03*
X128640000Y-63880000D03*
X132000000Y-79557559D03*
X136775000Y-119285000D03*
X147420000Y-52697559D03*
X146550000Y-64632559D03*
X130980000Y-70180000D03*
X166820000Y-61480000D03*
X144525000Y-35492559D03*
X152640000Y-65860000D03*
X163100000Y-82250000D03*
X161840000Y-39130000D03*
X148400000Y-53550000D03*
X154900000Y-80480000D03*
X136625000Y-45967559D03*
X151940000Y-68890000D03*
X178960000Y-76540000D03*
X128925000Y-82475000D03*
X122940000Y-75727559D03*
X164360000Y-58630000D03*
X140887500Y-109387500D03*
X141800000Y-62027559D03*
X135770000Y-72317559D03*
X139500000Y-40267559D03*
X130687500Y-119107500D03*
X147800000Y-58757559D03*
X145840000Y-50867559D03*
X144625000Y-77182559D03*
X145525000Y-35492559D03*
X140825000Y-41500000D03*
X139500000Y-46267559D03*
X131930000Y-58967559D03*
X159475000Y-46692559D03*
X156510000Y-146660000D03*
X144000000Y-49667559D03*
X132550000Y-75207559D03*
X122250000Y-47550000D03*
X132230000Y-76410000D03*
X141525000Y-35492559D03*
X132675000Y-54182559D03*
X134400000Y-44067559D03*
X155317500Y-114442500D03*
X172875000Y-58207559D03*
X148025000Y-54750000D03*
X140180000Y-62117559D03*
X176360000Y-75030000D03*
X148700000Y-65630000D03*
X132460000Y-55957559D03*
X159480000Y-70180000D03*
X135000000Y-69707559D03*
X147350000Y-40725000D03*
X159010000Y-74170000D03*
X148000000Y-59957559D03*
X137200000Y-35667559D03*
X168840000Y-76680000D03*
X133950000Y-61232559D03*
X126030000Y-76510000D03*
X146550000Y-58582559D03*
X142600000Y-47267559D03*
X165102500Y-90622500D03*
X167075000Y-41850000D03*
X144875000Y-91985000D03*
X152690000Y-61580000D03*
X138290000Y-62297559D03*
X141200000Y-64057559D03*
X160090000Y-63970000D03*
X128000000Y-39867559D03*
X131340000Y-76240000D03*
X118400000Y-66825000D03*
X128530000Y-62030000D03*
X149800000Y-52757559D03*
X151430000Y-51660000D03*
X142180000Y-52627559D03*
X167420000Y-53560000D03*
X125420000Y-64830000D03*
X134800000Y-39867559D03*
X122800000Y-51157559D03*
X174500000Y-119500000D03*
X118625000Y-62550000D03*
X152220000Y-60390000D03*
X127000000Y-129500000D03*
X133197500Y-125127500D03*
X156315000Y-70147441D03*
X139200000Y-54757559D03*
X144700000Y-60132559D03*
X144000000Y-46767559D03*
X160950000Y-79400000D03*
X113450000Y-56150000D03*
X156400000Y-48117559D03*
X145800000Y-54757559D03*
X172720000Y-52060000D03*
X147800000Y-61157559D03*
X128620000Y-69360000D03*
X168230000Y-44840000D03*
X144000000Y-48667559D03*
X134725000Y-55557559D03*
X150225000Y-39225000D03*
X163145000Y-49560000D03*
X115600000Y-80700000D03*
X133650000Y-65400000D03*
X150425000Y-35475000D03*
X116160000Y-69020000D03*
X155000000Y-53757559D03*
X115500000Y-42460000D03*
X150580000Y-82160000D03*
X150400000Y-49067559D03*
X168902500Y-90647500D03*
X178350000Y-66307559D03*
X179080000Y-41030000D03*
X156385000Y-68815000D03*
X136560000Y-66817559D03*
X149690000Y-70860000D03*
X150225000Y-38225000D03*
X115340000Y-63610000D03*
X154200000Y-55557559D03*
X156670000Y-51820000D03*
X137200000Y-41067559D03*
X146525000Y-35492559D03*
X113370000Y-72270000D03*
X174595000Y-60885000D03*
X149300000Y-56257559D03*
X156585000Y-62815000D03*
X153210000Y-80640000D03*
X132040000Y-65350000D03*
X128550000Y-67390000D03*
X139500000Y-45267559D03*
X152690000Y-67050000D03*
X139500000Y-36342559D03*
X160850000Y-67110000D03*
X124150000Y-61047559D03*
X137950000Y-48350000D03*
X155000000Y-78710000D03*
X136600000Y-52557559D03*
X132000000Y-72057559D03*
X135800000Y-60982559D03*
X128720000Y-109550000D03*
X129650000Y-70150000D03*
X158630000Y-68220000D03*
X149737500Y-91797499D03*
X145850000Y-45050000D03*
X149000000Y-82070000D03*
X126530000Y-79120000D03*
X125000000Y-43957559D03*
X147660000Y-82020000D03*
X145737500Y-140177500D03*
X146550000Y-65632559D03*
X174240000Y-35650000D03*
X129640000Y-72670000D03*
X146812500Y-114347500D03*
X141450000Y-46050000D03*
X144607500Y-94992500D03*
X124275000Y-82400000D03*
X115400000Y-75125000D03*
X125800000Y-73210000D03*
X137200000Y-39067559D03*
X174450000Y-109550000D03*
X172480000Y-74700000D03*
X147560000Y-66140000D03*
X144700000Y-66132559D03*
X152690000Y-64440000D03*
X168242500Y-84990000D03*
X140475000Y-46075000D03*
X172425000Y-82175000D03*
X149850000Y-77560000D03*
X155445000Y-67177441D03*
X140000000Y-82650000D03*
X144700000Y-64132559D03*
X130020000Y-59550000D03*
X132000000Y-67057559D03*
X133820000Y-58217559D03*
X146722500Y-46595059D03*
X179090000Y-82510000D03*
X152840000Y-79100000D03*
X167920000Y-60060000D03*
X149612500Y-110172500D03*
X170840000Y-35690000D03*
X125070000Y-72100000D03*
X137000000Y-69757559D03*
X147750000Y-80330000D03*
X132480000Y-35260000D03*
X125760000Y-58900000D03*
X155365000Y-63257441D03*
X152800000Y-69850000D03*
X141700000Y-68257559D03*
X142030000Y-69967559D03*
X128657500Y-120587500D03*
X146550000Y-59632559D03*
X151200000Y-53757559D03*
X152510000Y-82140000D03*
X124680000Y-66180000D03*
X120570000Y-79680000D03*
X118420000Y-58327559D03*
X154390000Y-59150000D03*
X139690000Y-53380000D03*
X137200000Y-37267559D03*
X145840000Y-51867559D03*
X133107500Y-135972500D03*
X174170000Y-37740000D03*
X139650000Y-63717559D03*
X162120000Y-45200000D03*
X150800000Y-56957559D03*
X134975000Y-53507559D03*
X121410000Y-60440000D03*
X144100000Y-45025000D03*
X179230000Y-69530000D03*
X116350000Y-54250000D03*
X135900000Y-65157559D03*
X136250000Y-58232559D03*
X149800000Y-54557559D03*
X141800000Y-54757559D03*
X132000000Y-70057559D03*
X150150000Y-46150000D03*
X140600000Y-65867559D03*
X139225000Y-109435000D03*
X158400000Y-39067559D03*
X144700000Y-61132559D03*
X154985000Y-60015000D03*
X151140000Y-78660000D03*
X150117500Y-95767500D03*
X156440000Y-57837559D03*
X164445000Y-53160000D03*
X155445000Y-64847441D03*
X148000000Y-70920000D03*
X179275000Y-64400000D03*
X139500000Y-38267559D03*
X147680000Y-78710000D03*
X149310000Y-46200000D03*
X131780000Y-61987559D03*
X115585000Y-86000000D03*
X128750000Y-71390000D03*
X147290000Y-47647559D03*
X122525000Y-36450000D03*
X141600000Y-47867559D03*
X147650000Y-62650000D03*
X131200000Y-45867559D03*
X132400000Y-74557559D03*
X165437500Y-109562500D03*
X176400000Y-55125000D03*
X145850000Y-53825000D03*
X129880000Y-61120000D03*
X140525000Y-35492559D03*
X140400000Y-54357559D03*
X141110000Y-79940000D03*
X132925000Y-51525000D03*
X153000000Y-53357559D03*
X128530000Y-65490000D03*
X179280000Y-44390000D03*
X163060000Y-70070000D03*
X176820000Y-82380000D03*
X115425000Y-36950000D03*
X136975000Y-59807559D03*
X146000000Y-47667559D03*
X137000000Y-53957559D03*
X158570000Y-62050000D03*
X155000000Y-36667559D03*
X143970000Y-50807559D03*
X145562500Y-119672500D03*
X159440000Y-59790000D03*
X140090000Y-79970000D03*
X146825000Y-49567559D03*
X173740000Y-46190000D03*
X152430000Y-142580000D03*
X128750000Y-76060000D03*
X126600000Y-53557559D03*
X173140000Y-78670000D03*
X154600000Y-57157559D03*
X142810246Y-138747499D03*
X113700000Y-51750000D03*
X150220000Y-70030000D03*
X160510000Y-82570000D03*
X146550000Y-61632559D03*
X160850000Y-57707559D03*
X116425000Y-82400000D03*
X167480000Y-35300000D03*
X132000000Y-77557559D03*
X165675000Y-55157559D03*
X152410000Y-77560000D03*
X142630000Y-75627559D03*
X140367500Y-56057559D03*
X157000000Y-55757559D03*
X152400000Y-42067559D03*
X143525000Y-35492559D03*
X157875000Y-43217559D03*
X140030000Y-67477559D03*
X134440280Y-104600280D03*
X160380000Y-61500000D03*
X139500000Y-44267559D03*
X155385000Y-60867441D03*
X152500000Y-70970000D03*
X150890000Y-59690000D03*
X117630000Y-46210000D03*
X146550000Y-62632559D03*
X128640000Y-73780000D03*
X127800000Y-36267559D03*
X175460000Y-65790000D03*
X116200000Y-40050000D03*
X158210000Y-71240000D03*
X148470000Y-66840000D03*
X150225000Y-36325000D03*
X131290000Y-60410000D03*
X148580000Y-63580000D03*
X152660000Y-63000000D03*
X167770000Y-69990000D03*
X167345000Y-49510000D03*
X147000000Y-54157559D03*
X157360000Y-72460000D03*
X155335000Y-69487441D03*
X177500000Y-46500000D03*
X172702500Y-90647500D03*
X127800000Y-80740000D03*
X144700000Y-82610000D03*
X143675000Y-45875000D03*
X150520000Y-60900000D03*
X149100000Y-40925000D03*
X167610000Y-73210000D03*
X161125000Y-77550000D03*
X140750000Y-36675000D03*
X137310000Y-140250000D03*
X130200000Y-51157559D03*
X146000000Y-48667559D03*
X142600000Y-49667559D03*
X115400000Y-48957559D03*
X124600000Y-39757559D03*
X122675000Y-54550000D03*
X138000000Y-69757559D03*
X150225000Y-43225000D03*
X132000000Y-69057559D03*
X170750000Y-47200000D03*
X158150000Y-63670000D03*
X163510000Y-54560000D03*
X138940000Y-66027559D03*
X139525000Y-35517559D03*
X148630000Y-68610000D03*
X147600000Y-48667559D03*
X165487500Y-129512500D03*
X160000000Y-36467559D03*
X141030000Y-82610000D03*
X121960000Y-64587559D03*
X128400000Y-43867559D03*
X146550000Y-66632559D03*
X143100000Y-55337459D03*
X141220001Y-95829949D03*
X137157500Y-117557500D03*
X119070000Y-73060000D03*
X136090000Y-132487700D03*
X120800000Y-35420000D03*
X133275000Y-63832559D03*
X124860000Y-63657559D03*
X113640000Y-82330000D03*
X152400000Y-44067559D03*
X169090000Y-79820000D03*
X173375000Y-53482559D03*
X148700000Y-62320000D03*
X113410000Y-79930000D03*
X113750000Y-39425000D03*
X119400000Y-53957559D03*
X161730000Y-59790000D03*
X152230000Y-76200000D03*
X113680000Y-44270000D03*
X168800000Y-57757559D03*
X152550000Y-68220000D03*
X145025000Y-38525000D03*
X144000000Y-47667559D03*
X155300000Y-70850000D03*
X138261814Y-140223186D03*
X130900000Y-78710000D03*
X154820000Y-82220000D03*
X120490000Y-82600000D03*
X152200000Y-48267559D03*
X172497689Y-105366765D03*
X149800000Y-59080000D03*
X144950000Y-36775000D03*
X147700000Y-69857559D03*
X150225000Y-44225000D03*
X133950000Y-49317559D03*
X151400000Y-70150000D03*
X164600000Y-38467559D03*
X157575000Y-49667559D03*
X143100000Y-56657559D03*
X120910000Y-67110000D03*
X140600000Y-52357559D03*
X132110000Y-63930000D03*
X138300000Y-67767559D03*
X134990000Y-67887559D03*
X166925000Y-46292559D03*
X155400000Y-41867559D03*
X131860000Y-82570000D03*
X135060000Y-50580000D03*
X152400000Y-55557559D03*
X136162500Y-106962500D03*
X124490000Y-78640000D03*
X150225000Y-37225000D03*
X156585000Y-65615000D03*
X133207500Y-126147500D03*
X140250000Y-49480000D03*
X152400000Y-46267559D03*
X166250000Y-77170000D03*
X142600000Y-48667559D03*
X143100000Y-57457559D03*
X137600000Y-49530000D03*
X117987500Y-109512500D03*
X117987500Y-119512500D03*
X158630000Y-65680000D03*
X151730000Y-66960000D03*
X174792500Y-85060000D03*
X164872689Y-105441765D03*
X178960000Y-72780000D03*
X142470000Y-72167559D03*
X148525000Y-35492559D03*
X135000000Y-67057559D03*
X127000000Y-119500000D03*
X136200000Y-68357559D03*
X161220000Y-71240000D03*
X139300000Y-68957559D03*
X163840000Y-35420000D03*
X150800000Y-55557559D03*
X144550000Y-97000000D03*
X154200000Y-47267559D03*
X135120000Y-52210000D03*
X113530000Y-47440000D03*
%TO.N,+3V3*%
X148787500Y-107404700D03*
X139177500Y-106347500D03*
X136860000Y-81180000D03*
X147237500Y-112422500D03*
X172647689Y-106541765D03*
X140350000Y-57057559D03*
X174642500Y-89492500D03*
X143312500Y-114437500D03*
X135900000Y-108000000D03*
X139177500Y-104260000D03*
X168917689Y-106536765D03*
X135250000Y-109250000D03*
X170882500Y-89482500D03*
X139177500Y-107157500D03*
X136010000Y-78700000D03*
X143487500Y-123647500D03*
X135450000Y-108575000D03*
X141225000Y-70807559D03*
X166797689Y-106691765D03*
X136920000Y-78710000D03*
X166977500Y-89522500D03*
X137780000Y-78700000D03*
X152937500Y-121022500D03*
X141612500Y-114437500D03*
X139177500Y-100870000D03*
X149962500Y-102867500D03*
X142487500Y-114437500D03*
X140250000Y-70807559D03*
X135920000Y-81180000D03*
X140070000Y-99927500D03*
X135070000Y-78730000D03*
X174802500Y-102447500D03*
X145700000Y-99927500D03*
X139177500Y-107947500D03*
X139373750Y-100113750D03*
%TO.N,+1V1*%
X143919822Y-110415178D03*
X141787500Y-104797500D03*
X146587500Y-105197500D03*
X144199700Y-101947500D03*
X143987500Y-111097500D03*
X143362500Y-106647500D03*
%TO.N,/VBAT*%
X149280000Y-142780000D03*
%TO.N,/SWD*%
X142969999Y-96427767D03*
%TO.N,/SWCLK*%
X142970000Y-94370000D03*
%TO.N,/DISPLAY_RESET*%
X135190000Y-95940000D03*
X145990000Y-89300000D03*
%TO.N,/SPI1_TX*%
X138230000Y-89390000D03*
X131620000Y-95450000D03*
%TO.N,/DISPLAY_BUSY*%
X136252500Y-97872500D03*
X148860000Y-89390000D03*
%TO.N,/SPI1_CLK*%
X140630000Y-89380000D03*
X132590000Y-97720000D03*
%TO.N,/DISPLAY_DC*%
X141454265Y-91919535D03*
X134460000Y-98670000D03*
%TO.N,/SPI1_CS*%
X133920000Y-94320000D03*
X143060000Y-89440000D03*
%TO.N,/RUN*%
X128862500Y-107825000D03*
X128862500Y-106100000D03*
X142632736Y-98510000D03*
%TO.N,/~{USB_BOOT}*%
X160525000Y-94350000D03*
X160550000Y-100250000D03*
%TO.N,Net-(R20-Pad2)*%
X127770000Y-113000000D03*
X167135000Y-91430000D03*
%TO.N,Net-(R23-Pad2)*%
X170900000Y-108090000D03*
X127767500Y-118000000D03*
%TO.N,Net-(R24-Pad2)*%
X127742500Y-131500000D03*
X174747689Y-106841765D03*
%TO.N,/BTN_MACRO_C*%
X170480000Y-98500000D03*
X164210000Y-94312500D03*
%TO.N,/Converter_In*%
X139587500Y-127047500D03*
X139862500Y-125122500D03*
%TO.N,/UVLO_RST*%
X131962500Y-117282500D03*
X151127500Y-136307500D03*
%TO.N,/STATUS_LED*%
X123762500Y-105297500D03*
X141110000Y-97080000D03*
%TO.N,/SX1262/DIO2*%
X150450000Y-75823559D03*
X149325000Y-57757559D03*
%TO.N,/SX1262/XTB*%
X142547686Y-74340633D03*
X136070000Y-74561493D03*
%TO.N,/SX1262/XTA*%
X132490000Y-73657559D03*
X142550566Y-73440635D03*
%TD*%
D20*
%TO.N,GND*%
X132565000Y-75025000D02*
X132490000Y-75100000D01*
D21*
%TO.N,+3V3*%
X130572441Y-57057559D02*
X140350000Y-57057559D01*
X127440000Y-78160000D02*
X127440000Y-60190000D01*
X135920000Y-81180000D02*
X136860000Y-81180000D01*
X135920000Y-81180000D02*
X130460000Y-81180000D01*
X130460000Y-81180000D02*
X127440000Y-78160000D01*
X127440000Y-60190000D02*
X130572441Y-57057559D01*
%TO.N,/SX1262/DIO2*%
X151097559Y-57757559D02*
X149325000Y-57757559D01*
X153840000Y-60500000D02*
X151097559Y-57757559D01*
X150450000Y-75823559D02*
X153840000Y-72433559D01*
X153840000Y-72433559D02*
X153840000Y-60500000D01*
D20*
%TO.N,/SX1262/XTB*%
X136070000Y-74561493D02*
X136201493Y-74430000D01*
X136201493Y-74430000D02*
X142458319Y-74430000D01*
X142458319Y-74430000D02*
X142547686Y-74340633D01*
%TO.N,/SX1262/XTA*%
X132490000Y-73657559D02*
X132577559Y-73570000D01*
X132577559Y-73570000D02*
X142421201Y-73570000D01*
X142421201Y-73570000D02*
X142550566Y-73440635D01*
%TD*%
%TA.AperFunction,Conductor*%
%TO.N,GND*%
G36*
X172298963Y-34261214D02*
G01*
X172842927Y-34279799D01*
X172851356Y-34280376D01*
X173390682Y-34335824D01*
X173399033Y-34336972D01*
X173933329Y-34429097D01*
X173941601Y-34430817D01*
X174468337Y-34559182D01*
X174476467Y-34561459D01*
X174993095Y-34725433D01*
X174993227Y-34725475D01*
X175001207Y-34728311D01*
X175505549Y-34927201D01*
X175513308Y-34930572D01*
X176002907Y-35163418D01*
X176010416Y-35167308D01*
X176207292Y-35278007D01*
X176482999Y-35433031D01*
X176490217Y-35437421D01*
X176943541Y-35734758D01*
X176950458Y-35739640D01*
X177133826Y-35878693D01*
X177382469Y-36067246D01*
X177389013Y-36072571D01*
X177762897Y-36398583D01*
X177797638Y-36428876D01*
X177803826Y-36434655D01*
X178187181Y-36818013D01*
X178192960Y-36824201D01*
X178549260Y-37232826D01*
X178554603Y-37239394D01*
X178882179Y-37671370D01*
X178887060Y-37678285D01*
X179106913Y-38013479D01*
X179184408Y-38131629D01*
X179188807Y-38138864D01*
X179454511Y-38611423D01*
X179458406Y-38618940D01*
X179691244Y-39108529D01*
X179694618Y-39116296D01*
X179893509Y-39620655D01*
X179896344Y-39628632D01*
X180060351Y-40145374D01*
X180062635Y-40153527D01*
X180190992Y-40680246D01*
X180192715Y-40688536D01*
X180284831Y-41222800D01*
X180285984Y-41231188D01*
X180341425Y-41770488D01*
X180342003Y-41778935D01*
X180348900Y-41980820D01*
X180360644Y-42324606D01*
X180360716Y-42328808D01*
X180360716Y-42381879D01*
X180360752Y-42382344D01*
X180423535Y-140734058D01*
X180423463Y-140738371D01*
X180404881Y-141282289D01*
X180404303Y-141290736D01*
X180348860Y-141830036D01*
X180347707Y-141838424D01*
X180255589Y-142372688D01*
X180253866Y-142380978D01*
X180125506Y-142907699D01*
X180123222Y-142915852D01*
X179959210Y-143432607D01*
X179956374Y-143440585D01*
X179757488Y-143944918D01*
X179754115Y-143952684D01*
X179521273Y-144442278D01*
X179517378Y-144449796D01*
X179251657Y-144922377D01*
X179247257Y-144929611D01*
X178949930Y-145382920D01*
X178945048Y-145389838D01*
X178617445Y-145821844D01*
X178612101Y-145828411D01*
X178255819Y-146237011D01*
X178250040Y-146243200D01*
X177866675Y-146626562D01*
X177860487Y-146632341D01*
X177451861Y-146988642D01*
X177445293Y-146993985D01*
X177013317Y-147321562D01*
X177006400Y-147326445D01*
X176553057Y-147623791D01*
X176545822Y-147628190D01*
X176073262Y-147893895D01*
X176065745Y-147897790D01*
X175576156Y-148130627D01*
X175568390Y-148134001D01*
X175064026Y-148332895D01*
X175056048Y-148335730D01*
X174539310Y-148499734D01*
X174531156Y-148502018D01*
X174004438Y-148630374D01*
X173996149Y-148632097D01*
X173461879Y-148724213D01*
X173453490Y-148725366D01*
X172914191Y-148780806D01*
X172905744Y-148781384D01*
X172668259Y-148789496D01*
X172360421Y-148800011D01*
X172356228Y-148800083D01*
X120291803Y-148800083D01*
X120287570Y-148800011D01*
X119743609Y-148781430D01*
X119735161Y-148780852D01*
X119195858Y-148725411D01*
X119187471Y-148724258D01*
X118653208Y-148632144D01*
X118644918Y-148630421D01*
X118118193Y-148502063D01*
X118110039Y-148499779D01*
X117593294Y-148335772D01*
X117585316Y-148332937D01*
X117080954Y-148134044D01*
X117073188Y-148130670D01*
X116583597Y-147897832D01*
X116576080Y-147893937D01*
X116103520Y-147628231D01*
X116096285Y-147623832D01*
X115642939Y-147326483D01*
X115636022Y-147321600D01*
X115206710Y-146996043D01*
X136586999Y-146996043D01*
X136625447Y-147189329D01*
X136625450Y-147189339D01*
X136700864Y-147371407D01*
X136700871Y-147371420D01*
X136810360Y-147535281D01*
X136810363Y-147535285D01*
X136949714Y-147674636D01*
X136949718Y-147674639D01*
X137113579Y-147784128D01*
X137113592Y-147784135D01*
X137295660Y-147859549D01*
X137295665Y-147859551D01*
X137295669Y-147859551D01*
X137295670Y-147859552D01*
X137488956Y-147898000D01*
X137488959Y-147898000D01*
X137686043Y-147898000D01*
X137816082Y-147872132D01*
X137879335Y-147859551D01*
X138061414Y-147784132D01*
X138225282Y-147674639D01*
X138364639Y-147535282D01*
X138474132Y-147371414D01*
X138549551Y-147189335D01*
X138588000Y-146996043D01*
X145226999Y-146996043D01*
X145265447Y-147189329D01*
X145265450Y-147189339D01*
X145340864Y-147371407D01*
X145340871Y-147371420D01*
X145450360Y-147535281D01*
X145450363Y-147535285D01*
X145589714Y-147674636D01*
X145589718Y-147674639D01*
X145753579Y-147784128D01*
X145753592Y-147784135D01*
X145935660Y-147859549D01*
X145935665Y-147859551D01*
X145935669Y-147859551D01*
X145935670Y-147859552D01*
X146128956Y-147898000D01*
X146128959Y-147898000D01*
X146326043Y-147898000D01*
X146456082Y-147872132D01*
X146519335Y-147859551D01*
X146701414Y-147784132D01*
X146865282Y-147674639D01*
X147004639Y-147535282D01*
X147114132Y-147371414D01*
X147189551Y-147189335D01*
X147228000Y-146996041D01*
X147228000Y-145998959D01*
X147228000Y-145998956D01*
X147189552Y-145805670D01*
X147189551Y-145805669D01*
X147189551Y-145805665D01*
X147181405Y-145785998D01*
X147114135Y-145623592D01*
X147114128Y-145623579D01*
X147004639Y-145459718D01*
X147004636Y-145459714D01*
X146865285Y-145320363D01*
X146865281Y-145320360D01*
X146701420Y-145210871D01*
X146701407Y-145210864D01*
X146519339Y-145135450D01*
X146519329Y-145135447D01*
X146326043Y-145097000D01*
X146326041Y-145097000D01*
X146128959Y-145097000D01*
X146128957Y-145097000D01*
X145935670Y-145135447D01*
X145935660Y-145135450D01*
X145753592Y-145210864D01*
X145753579Y-145210871D01*
X145589718Y-145320360D01*
X145589714Y-145320363D01*
X145450363Y-145459714D01*
X145450360Y-145459718D01*
X145340871Y-145623579D01*
X145340864Y-145623592D01*
X145265450Y-145805660D01*
X145265447Y-145805670D01*
X145227000Y-145998956D01*
X145227000Y-145998959D01*
X145227000Y-146996041D01*
X145227000Y-146996043D01*
X145226999Y-146996043D01*
X138588000Y-146996043D01*
X138588000Y-146996041D01*
X138588000Y-145998959D01*
X138588000Y-145998956D01*
X138549552Y-145805670D01*
X138549551Y-145805669D01*
X138549551Y-145805665D01*
X138541405Y-145785998D01*
X138474135Y-145623592D01*
X138474128Y-145623579D01*
X138364639Y-145459718D01*
X138364636Y-145459714D01*
X138225285Y-145320363D01*
X138225281Y-145320360D01*
X138061420Y-145210871D01*
X138061407Y-145210864D01*
X137879339Y-145135450D01*
X137879329Y-145135447D01*
X137686043Y-145097000D01*
X137686041Y-145097000D01*
X137488959Y-145097000D01*
X137488957Y-145097000D01*
X137295670Y-145135447D01*
X137295660Y-145135450D01*
X137113592Y-145210864D01*
X137113579Y-145210871D01*
X136949718Y-145320360D01*
X136949714Y-145320363D01*
X136810363Y-145459714D01*
X136810360Y-145459718D01*
X136700871Y-145623579D01*
X136700864Y-145623592D01*
X136625450Y-145805660D01*
X136625447Y-145805670D01*
X136587000Y-145998956D01*
X136587000Y-145998959D01*
X136587000Y-146996041D01*
X136587000Y-146996043D01*
X136586999Y-146996043D01*
X115206710Y-146996043D01*
X115204036Y-146994015D01*
X115197468Y-146988671D01*
X114788852Y-146632376D01*
X114782664Y-146626597D01*
X114399304Y-146243238D01*
X114393525Y-146237050D01*
X114392677Y-146236078D01*
X114037231Y-145828434D01*
X114031887Y-145821866D01*
X113704301Y-145389880D01*
X113699418Y-145382963D01*
X113658357Y-145320361D01*
X113402065Y-144929611D01*
X113397670Y-144922382D01*
X113131964Y-144449822D01*
X113128069Y-144442305D01*
X112895230Y-143952714D01*
X112891856Y-143944948D01*
X112891844Y-143944918D01*
X112718477Y-143505285D01*
X112692963Y-143440586D01*
X112690128Y-143432608D01*
X112633073Y-143252841D01*
X112526115Y-142915845D01*
X112523840Y-142907723D01*
X112407953Y-142432170D01*
X112395480Y-142380987D01*
X112393757Y-142372698D01*
X112392906Y-142367762D01*
X112301637Y-141838411D01*
X112300489Y-141830061D01*
X112245046Y-141290728D01*
X112244469Y-141282293D01*
X112244302Y-141277415D01*
X112225893Y-140738478D01*
X112225821Y-140734245D01*
X112225821Y-140679148D01*
X112225783Y-140678685D01*
X112225740Y-140611173D01*
X118677000Y-140611173D01*
X118677000Y-140855227D01*
X118678654Y-140865668D01*
X118715168Y-141096212D01*
X118715179Y-141096276D01*
X118790596Y-141328385D01*
X118901363Y-141545779D01*
X118901396Y-141545842D01*
X119044839Y-141743276D01*
X119044843Y-141743281D01*
X119217418Y-141915856D01*
X119217423Y-141915860D01*
X119387445Y-142039387D01*
X119414861Y-142059306D01*
X119632315Y-142170104D01*
X119864424Y-142245521D01*
X120105473Y-142283700D01*
X120105474Y-142283700D01*
X120349526Y-142283700D01*
X120349527Y-142283700D01*
X120590576Y-142245521D01*
X120822685Y-142170104D01*
X121040139Y-142059306D01*
X121237583Y-141915855D01*
X121410155Y-141743283D01*
X121553606Y-141545839D01*
X121603239Y-141448428D01*
X126480000Y-141448428D01*
X126480000Y-141560000D01*
X127299670Y-141560000D01*
X127279925Y-141579745D01*
X127230556Y-141665255D01*
X127205000Y-141760630D01*
X127205000Y-141859370D01*
X127230556Y-141954745D01*
X127279925Y-142040255D01*
X127299670Y-142060000D01*
X126480000Y-142060000D01*
X126480000Y-142171571D01*
X126507085Y-142342584D01*
X126560591Y-142507257D01*
X126639195Y-142661524D01*
X126740967Y-142801602D01*
X126863397Y-142924032D01*
X127003475Y-143025804D01*
X127157744Y-143104408D01*
X127322415Y-143157914D01*
X127322414Y-143157914D01*
X127329999Y-143159115D01*
X127330000Y-143159114D01*
X127330000Y-142090330D01*
X127349745Y-142110075D01*
X127435255Y-142159444D01*
X127530630Y-142185000D01*
X127629370Y-142185000D01*
X127724745Y-142159444D01*
X127810255Y-142110075D01*
X127830000Y-142090330D01*
X127830000Y-143159115D01*
X127837584Y-143157914D01*
X128002255Y-143104408D01*
X128156524Y-143025804D01*
X128296598Y-142924035D01*
X128404199Y-142816434D01*
X128465522Y-142782949D01*
X128535214Y-142787933D01*
X128591148Y-142829804D01*
X128597418Y-142839016D01*
X128637288Y-142903656D01*
X128761344Y-143027712D01*
X128910666Y-143119814D01*
X129077203Y-143174999D01*
X129179991Y-143185500D01*
X129980008Y-143185499D01*
X129980016Y-143185498D01*
X129980019Y-143185498D01*
X130036302Y-143179748D01*
X130082797Y-143174999D01*
X130249334Y-143119814D01*
X130398656Y-143027712D01*
X130460325Y-142966043D01*
X136586999Y-142966043D01*
X136625447Y-143159329D01*
X136625450Y-143159339D01*
X136700864Y-143341407D01*
X136700871Y-143341420D01*
X136810360Y-143505281D01*
X136810363Y-143505285D01*
X136949714Y-143644636D01*
X136949718Y-143644639D01*
X137113579Y-143754128D01*
X137113592Y-143754135D01*
X137295660Y-143829549D01*
X137295665Y-143829551D01*
X137295669Y-143829551D01*
X137295670Y-143829552D01*
X137488956Y-143868000D01*
X137488959Y-143868000D01*
X137686043Y-143868000D01*
X137816082Y-143842132D01*
X137879335Y-143829551D01*
X138061414Y-143754132D01*
X138225282Y-143644639D01*
X138364639Y-143505282D01*
X138474132Y-143341414D01*
X138498044Y-143283682D01*
X138541884Y-143229282D01*
X138608178Y-143207216D01*
X138675877Y-143224495D01*
X138687834Y-143233783D01*
X138688390Y-143233059D01*
X138694833Y-143238003D01*
X138694835Y-143238005D01*
X138814664Y-143307188D01*
X138948317Y-143343000D01*
X138948319Y-143343000D01*
X139086681Y-143343000D01*
X139086683Y-143343000D01*
X139220336Y-143307188D01*
X139340165Y-143238005D01*
X139438005Y-143140165D01*
X139507188Y-143020336D01*
X139543000Y-142886683D01*
X139543000Y-142748317D01*
X144272000Y-142748317D01*
X144272000Y-142886683D01*
X144293265Y-142966043D01*
X144307812Y-143020335D01*
X144307813Y-143020338D01*
X144376992Y-143140161D01*
X144376994Y-143140164D01*
X144376995Y-143140165D01*
X144474835Y-143238005D01*
X144594664Y-143307188D01*
X144728317Y-143343000D01*
X144728319Y-143343000D01*
X144866681Y-143343000D01*
X144866683Y-143343000D01*
X145000336Y-143307188D01*
X145120165Y-143238005D01*
X145120169Y-143238000D01*
X145126610Y-143233059D01*
X145128738Y-143235833D01*
X145175831Y-143210016D01*
X145245531Y-143214882D01*
X145301535Y-143256659D01*
X145316955Y-143283684D01*
X145340866Y-143341410D01*
X145340871Y-143341420D01*
X145450360Y-143505281D01*
X145450363Y-143505285D01*
X145589714Y-143644636D01*
X145589718Y-143644639D01*
X145753579Y-143754128D01*
X145753592Y-143754135D01*
X145935660Y-143829549D01*
X145935665Y-143829551D01*
X145935669Y-143829551D01*
X145935670Y-143829552D01*
X146128956Y-143868000D01*
X146128959Y-143868000D01*
X146326043Y-143868000D01*
X146456082Y-143842132D01*
X146519335Y-143829551D01*
X146701414Y-143754132D01*
X146865282Y-143644639D01*
X147004639Y-143505282D01*
X147114132Y-143341414D01*
X147189551Y-143159335D01*
X147228000Y-142966041D01*
X147228000Y-142780000D01*
X148424815Y-142780000D01*
X148443503Y-142957805D01*
X148443504Y-142957807D01*
X148498747Y-143127829D01*
X148498750Y-143127835D01*
X148588141Y-143282665D01*
X148610220Y-143307186D01*
X148707764Y-143415521D01*
X148707767Y-143415523D01*
X148707770Y-143415526D01*
X148852407Y-143520612D01*
X149015733Y-143593329D01*
X149190609Y-143630500D01*
X149190610Y-143630500D01*
X149369389Y-143630500D01*
X149369391Y-143630500D01*
X149544267Y-143593329D01*
X149707593Y-143520612D01*
X149852230Y-143415526D01*
X149971859Y-143282665D01*
X150061250Y-143127835D01*
X150116497Y-142957803D01*
X150135185Y-142780000D01*
X150116497Y-142602197D01*
X150081612Y-142494833D01*
X150061252Y-142432170D01*
X150061249Y-142432164D01*
X150040945Y-142396996D01*
X149971859Y-142277335D01*
X149925003Y-142225296D01*
X149852235Y-142144478D01*
X149852232Y-142144476D01*
X149852231Y-142144475D01*
X149852230Y-142144474D01*
X149707593Y-142039388D01*
X149544267Y-141966671D01*
X149544265Y-141966670D01*
X149416594Y-141939533D01*
X149369391Y-141929500D01*
X149190609Y-141929500D01*
X149159954Y-141936015D01*
X149015733Y-141966670D01*
X149015728Y-141966672D01*
X148852408Y-142039387D01*
X148707768Y-142144475D01*
X148588140Y-142277336D01*
X148498750Y-142432164D01*
X148498747Y-142432170D01*
X148443504Y-142602192D01*
X148443503Y-142602194D01*
X148424815Y-142780000D01*
X147228000Y-142780000D01*
X147228000Y-141668959D01*
X147228000Y-141668956D01*
X147189552Y-141475670D01*
X147189551Y-141475669D01*
X147189551Y-141475665D01*
X147128547Y-141328387D01*
X147114135Y-141293592D01*
X147114128Y-141293579D01*
X147004639Y-141129718D01*
X147004636Y-141129714D01*
X146865285Y-140990363D01*
X146865281Y-140990360D01*
X146701420Y-140880871D01*
X146701407Y-140880864D01*
X146519339Y-140805450D01*
X146519329Y-140805447D01*
X146326043Y-140767000D01*
X146326041Y-140767000D01*
X146128959Y-140767000D01*
X146128957Y-140767000D01*
X145935670Y-140805447D01*
X145935660Y-140805450D01*
X145753592Y-140880864D01*
X145753579Y-140880871D01*
X145589718Y-140990360D01*
X145589714Y-140990363D01*
X145450363Y-141129714D01*
X145450360Y-141129718D01*
X145340871Y-141293579D01*
X145340864Y-141293592D01*
X145265450Y-141475660D01*
X145265447Y-141475670D01*
X145227000Y-141668956D01*
X145227000Y-142243902D01*
X145207315Y-142310941D01*
X145154511Y-142356696D01*
X145085353Y-142366640D01*
X145041001Y-142351289D01*
X145000342Y-142327815D01*
X145000338Y-142327813D01*
X145000336Y-142327812D01*
X144866683Y-142292000D01*
X144728317Y-142292000D01*
X144594664Y-142327812D01*
X144594661Y-142327813D01*
X144474838Y-142396992D01*
X144474833Y-142396996D01*
X144376996Y-142494833D01*
X144376992Y-142494838D01*
X144307813Y-142614661D01*
X144307812Y-142614664D01*
X144272000Y-142748317D01*
X139543000Y-142748317D01*
X139507188Y-142614664D01*
X139438005Y-142494835D01*
X139340165Y-142396995D01*
X139340164Y-142396994D01*
X139340161Y-142396992D01*
X139220338Y-142327813D01*
X139220337Y-142327812D01*
X139220336Y-142327812D01*
X139086683Y-142292000D01*
X138948317Y-142292000D01*
X138814664Y-142327812D01*
X138814657Y-142327815D01*
X138773999Y-142351289D01*
X138706099Y-142367762D01*
X138640072Y-142344909D01*
X138596882Y-142289988D01*
X138588000Y-142243902D01*
X138588000Y-141668956D01*
X138549552Y-141475670D01*
X138549551Y-141475669D01*
X138549551Y-141475665D01*
X138488547Y-141328387D01*
X138474135Y-141293592D01*
X138474128Y-141293579D01*
X138364639Y-141129718D01*
X138364636Y-141129714D01*
X138225285Y-140990363D01*
X138225281Y-140990360D01*
X138061420Y-140880871D01*
X138061407Y-140880864D01*
X137879339Y-140805450D01*
X137879329Y-140805447D01*
X137686043Y-140767000D01*
X137686041Y-140767000D01*
X137488959Y-140767000D01*
X137488957Y-140767000D01*
X137295670Y-140805447D01*
X137295660Y-140805450D01*
X137113592Y-140880864D01*
X137113579Y-140880871D01*
X136949718Y-140990360D01*
X136949714Y-140990363D01*
X136810363Y-141129714D01*
X136810360Y-141129718D01*
X136700871Y-141293579D01*
X136700864Y-141293592D01*
X136625450Y-141475660D01*
X136625447Y-141475670D01*
X136587000Y-141668956D01*
X136587000Y-141668959D01*
X136587000Y-142966041D01*
X136587000Y-142966043D01*
X136586999Y-142966043D01*
X130460325Y-142966043D01*
X130522712Y-142903656D01*
X130614814Y-142754334D01*
X130669999Y-142587797D01*
X130680500Y-142485009D01*
X130680499Y-141134992D01*
X130669999Y-141032203D01*
X130614814Y-140865666D01*
X130522712Y-140716344D01*
X130417481Y-140611113D01*
X170837000Y-140611113D01*
X170837000Y-140855167D01*
X170838663Y-140865666D01*
X170865039Y-141032200D01*
X170875179Y-141096216D01*
X170950596Y-141328325D01*
X171025669Y-141475665D01*
X171061396Y-141545782D01*
X171204839Y-141743216D01*
X171204843Y-141743221D01*
X171377418Y-141915796D01*
X171377423Y-141915800D01*
X171447442Y-141966671D01*
X171574861Y-142059246D01*
X171792315Y-142170044D01*
X172024424Y-142245461D01*
X172265473Y-142283640D01*
X172265474Y-142283640D01*
X172509526Y-142283640D01*
X172509527Y-142283640D01*
X172750576Y-142245461D01*
X172982685Y-142170044D01*
X173200139Y-142059246D01*
X173397583Y-141915795D01*
X173570155Y-141743223D01*
X173713606Y-141545779D01*
X173824404Y-141328325D01*
X173899821Y-141096216D01*
X173938000Y-140855167D01*
X173938000Y-140611113D01*
X173899821Y-140370064D01*
X173824404Y-140137955D01*
X173713606Y-139920501D01*
X173695279Y-139895276D01*
X173570160Y-139723063D01*
X173570156Y-139723058D01*
X173397581Y-139550483D01*
X173397576Y-139550479D01*
X173200142Y-139407036D01*
X173200141Y-139407035D01*
X173200139Y-139407034D01*
X172982685Y-139296236D01*
X172750576Y-139220819D01*
X172750574Y-139220818D01*
X172750572Y-139220818D01*
X172582269Y-139194161D01*
X172509527Y-139182640D01*
X172265473Y-139182640D01*
X172209593Y-139191490D01*
X172024427Y-139220818D01*
X171792312Y-139296237D01*
X171574857Y-139407036D01*
X171377423Y-139550479D01*
X171377418Y-139550483D01*
X171204843Y-139723058D01*
X171204839Y-139723063D01*
X171061396Y-139920497D01*
X170950597Y-140137952D01*
X170950596Y-140137954D01*
X170950596Y-140137955D01*
X170950577Y-140138015D01*
X170875178Y-140370067D01*
X170854569Y-140500186D01*
X170837000Y-140611113D01*
X130417481Y-140611113D01*
X130398656Y-140592288D01*
X130249334Y-140500186D01*
X130082797Y-140445001D01*
X130082795Y-140445000D01*
X129980010Y-140434500D01*
X129179998Y-140434500D01*
X129179980Y-140434501D01*
X129077203Y-140445000D01*
X129077200Y-140445001D01*
X128910668Y-140500185D01*
X128910663Y-140500187D01*
X128761342Y-140592289D01*
X128637289Y-140716342D01*
X128597420Y-140780981D01*
X128545472Y-140827705D01*
X128476509Y-140838928D01*
X128412427Y-140811084D01*
X128404200Y-140803565D01*
X128296602Y-140695967D01*
X128156524Y-140594195D01*
X128002257Y-140515591D01*
X127837589Y-140462087D01*
X127837581Y-140462085D01*
X127830000Y-140460884D01*
X127830000Y-141529670D01*
X127810255Y-141509925D01*
X127724745Y-141460556D01*
X127629370Y-141435000D01*
X127530630Y-141435000D01*
X127435255Y-141460556D01*
X127349745Y-141509925D01*
X127330000Y-141529670D01*
X127330000Y-140460884D01*
X127329999Y-140460884D01*
X127322418Y-140462085D01*
X127322410Y-140462087D01*
X127157742Y-140515591D01*
X127003475Y-140594195D01*
X126863397Y-140695967D01*
X126740967Y-140818397D01*
X126639195Y-140958475D01*
X126560591Y-141112742D01*
X126507085Y-141277415D01*
X126480000Y-141448428D01*
X121603239Y-141448428D01*
X121664404Y-141328385D01*
X121739821Y-141096276D01*
X121778000Y-140855227D01*
X121778000Y-140611173D01*
X121739821Y-140370124D01*
X121664404Y-140138015D01*
X121553606Y-139920561D01*
X121535279Y-139895336D01*
X121410160Y-139723123D01*
X121410156Y-139723118D01*
X121237581Y-139550543D01*
X121237576Y-139550539D01*
X121040142Y-139407096D01*
X121040141Y-139407095D01*
X121040139Y-139407094D01*
X120822685Y-139296296D01*
X120590576Y-139220879D01*
X120590574Y-139220878D01*
X120590572Y-139220878D01*
X120422269Y-139194221D01*
X120349527Y-139182700D01*
X120105473Y-139182700D01*
X120049593Y-139191550D01*
X119864427Y-139220878D01*
X119632312Y-139296297D01*
X119414857Y-139407096D01*
X119217423Y-139550539D01*
X119217418Y-139550543D01*
X119044843Y-139723118D01*
X119044839Y-139723123D01*
X118901396Y-139920557D01*
X118790597Y-140138012D01*
X118715178Y-140370127D01*
X118692139Y-140515591D01*
X118677000Y-140611173D01*
X112225740Y-140611173D01*
X112222993Y-136307500D01*
X150272315Y-136307500D01*
X150291003Y-136485305D01*
X150291004Y-136485307D01*
X150346247Y-136655329D01*
X150346250Y-136655335D01*
X150435641Y-136810165D01*
X150477312Y-136856446D01*
X150555264Y-136943021D01*
X150555267Y-136943023D01*
X150555270Y-136943026D01*
X150699907Y-137048112D01*
X150863233Y-137120829D01*
X151038109Y-137158000D01*
X151038110Y-137158000D01*
X151216889Y-137158000D01*
X151216891Y-137158000D01*
X151391767Y-137120829D01*
X151555093Y-137048112D01*
X151699730Y-136943026D01*
X151819359Y-136810165D01*
X151908750Y-136655335D01*
X151963997Y-136485303D01*
X151982685Y-136307500D01*
X151963997Y-136129697D01*
X151908750Y-135959665D01*
X151819359Y-135804835D01*
X151772503Y-135752796D01*
X151699735Y-135671978D01*
X151699732Y-135671976D01*
X151699731Y-135671975D01*
X151699730Y-135671974D01*
X151555093Y-135566888D01*
X151391767Y-135494171D01*
X151391765Y-135494170D01*
X151264094Y-135467033D01*
X151216891Y-135457000D01*
X151038109Y-135457000D01*
X151007454Y-135463515D01*
X150863233Y-135494170D01*
X150863228Y-135494172D01*
X150699908Y-135566887D01*
X150555268Y-135671975D01*
X150435640Y-135804836D01*
X150346250Y-135959664D01*
X150346247Y-135959670D01*
X150291004Y-136129692D01*
X150291003Y-136129694D01*
X150272315Y-136307500D01*
X112222993Y-136307500D01*
X112219924Y-131500000D01*
X126887315Y-131500000D01*
X126906003Y-131677805D01*
X126906004Y-131677807D01*
X126961247Y-131847829D01*
X126961250Y-131847835D01*
X127050641Y-132002665D01*
X127092312Y-132048946D01*
X127170264Y-132135521D01*
X127170267Y-132135523D01*
X127170270Y-132135526D01*
X127314907Y-132240612D01*
X127478233Y-132313329D01*
X127653109Y-132350500D01*
X127653110Y-132350500D01*
X127831889Y-132350500D01*
X127831891Y-132350500D01*
X128006767Y-132313329D01*
X128170093Y-132240612D01*
X128314730Y-132135526D01*
X128434359Y-132002665D01*
X128523750Y-131847835D01*
X128578997Y-131677803D01*
X128597685Y-131500000D01*
X128578997Y-131322197D01*
X128523750Y-131152165D01*
X128434359Y-130997335D01*
X128387503Y-130945296D01*
X128314735Y-130864478D01*
X128314732Y-130864476D01*
X128314731Y-130864475D01*
X128314730Y-130864474D01*
X128170093Y-130759388D01*
X128006767Y-130686671D01*
X128006765Y-130686670D01*
X127879094Y-130659533D01*
X127831891Y-130649500D01*
X127653109Y-130649500D01*
X127622454Y-130656015D01*
X127478233Y-130686670D01*
X127478228Y-130686672D01*
X127314908Y-130759387D01*
X127170268Y-130864475D01*
X127050640Y-130997336D01*
X126961250Y-131152164D01*
X126961247Y-131152170D01*
X126906004Y-131322192D01*
X126906003Y-131322194D01*
X126887315Y-131500000D01*
X112219924Y-131500000D01*
X112217082Y-127047500D01*
X138732315Y-127047500D01*
X138751003Y-127225305D01*
X138751004Y-127225307D01*
X138806247Y-127395329D01*
X138806250Y-127395335D01*
X138895641Y-127550165D01*
X138937312Y-127596446D01*
X139015264Y-127683021D01*
X139015267Y-127683023D01*
X139015270Y-127683026D01*
X139159907Y-127788112D01*
X139323233Y-127860829D01*
X139498109Y-127898000D01*
X139498110Y-127898000D01*
X139676889Y-127898000D01*
X139676891Y-127898000D01*
X139851767Y-127860829D01*
X140015093Y-127788112D01*
X140159730Y-127683026D01*
X140279359Y-127550165D01*
X140368750Y-127395335D01*
X140423997Y-127225303D01*
X140442685Y-127047500D01*
X140423997Y-126869697D01*
X140368750Y-126699665D01*
X140279359Y-126544835D01*
X140232503Y-126492796D01*
X140159735Y-126411978D01*
X140159732Y-126411976D01*
X140159731Y-126411975D01*
X140159730Y-126411974D01*
X140015093Y-126306888D01*
X139851767Y-126234171D01*
X139851765Y-126234170D01*
X139777053Y-126218290D01*
X139715571Y-126185098D01*
X139710650Y-126176187D01*
X139656601Y-126196641D01*
X139647166Y-126197000D01*
X139498109Y-126197000D01*
X139467454Y-126203515D01*
X139323233Y-126234170D01*
X139323228Y-126234172D01*
X139159908Y-126306887D01*
X139015268Y-126411975D01*
X138895640Y-126544836D01*
X138806250Y-126699664D01*
X138806247Y-126699670D01*
X138751004Y-126869692D01*
X138751003Y-126869694D01*
X138732315Y-127047500D01*
X112217082Y-127047500D01*
X112215853Y-125122500D01*
X139007315Y-125122500D01*
X139026003Y-125300305D01*
X139026004Y-125300307D01*
X139081247Y-125470329D01*
X139081250Y-125470335D01*
X139170641Y-125625165D01*
X139212312Y-125671446D01*
X139290264Y-125758021D01*
X139290267Y-125758023D01*
X139290270Y-125758026D01*
X139434907Y-125863112D01*
X139598233Y-125935829D01*
X139655104Y-125947917D01*
X139672947Y-125951710D01*
X139734429Y-125984902D01*
X139739349Y-125993812D01*
X139793399Y-125973359D01*
X139802834Y-125973000D01*
X139951889Y-125973000D01*
X139951891Y-125973000D01*
X140126767Y-125935829D01*
X140290093Y-125863112D01*
X140434730Y-125758026D01*
X140554359Y-125625165D01*
X140643750Y-125470335D01*
X140698997Y-125300303D01*
X140717685Y-125122500D01*
X140698997Y-124944697D01*
X140643750Y-124774665D01*
X140554359Y-124619835D01*
X140507503Y-124567796D01*
X140434735Y-124486978D01*
X140434732Y-124486976D01*
X140434731Y-124486975D01*
X140434730Y-124486974D01*
X140290093Y-124381888D01*
X140126767Y-124309171D01*
X140126765Y-124309170D01*
X139999094Y-124282033D01*
X139951891Y-124272000D01*
X139773109Y-124272000D01*
X139742454Y-124278515D01*
X139598233Y-124309170D01*
X139598228Y-124309172D01*
X139434908Y-124381887D01*
X139290268Y-124486975D01*
X139170640Y-124619836D01*
X139081250Y-124774664D01*
X139081247Y-124774670D01*
X139026004Y-124944692D01*
X139026003Y-124944694D01*
X139007315Y-125122500D01*
X112215853Y-125122500D01*
X112214911Y-123647500D01*
X142632315Y-123647500D01*
X142651003Y-123825305D01*
X142651004Y-123825307D01*
X142706247Y-123995329D01*
X142706250Y-123995335D01*
X142795641Y-124150165D01*
X142837312Y-124196446D01*
X142915264Y-124283021D01*
X142915267Y-124283023D01*
X142915270Y-124283026D01*
X143059907Y-124388112D01*
X143223233Y-124460829D01*
X143398109Y-124498000D01*
X143398110Y-124498000D01*
X143576889Y-124498000D01*
X143576891Y-124498000D01*
X143751767Y-124460829D01*
X143915093Y-124388112D01*
X144059730Y-124283026D01*
X144179359Y-124150165D01*
X144268750Y-123995335D01*
X144323997Y-123825303D01*
X144342685Y-123647500D01*
X144323997Y-123469697D01*
X144268750Y-123299665D01*
X144179359Y-123144835D01*
X144132503Y-123092796D01*
X144059735Y-123011978D01*
X144059732Y-123011976D01*
X144059731Y-123011975D01*
X144059730Y-123011974D01*
X143915093Y-122906888D01*
X143751767Y-122834171D01*
X143751765Y-122834170D01*
X143624094Y-122807033D01*
X143576891Y-122797000D01*
X143398109Y-122797000D01*
X143367454Y-122803515D01*
X143223233Y-122834170D01*
X143223228Y-122834172D01*
X143059908Y-122906887D01*
X142915268Y-123011975D01*
X142795640Y-123144836D01*
X142706250Y-123299664D01*
X142706247Y-123299670D01*
X142651004Y-123469692D01*
X142651003Y-123469694D01*
X142632315Y-123647500D01*
X112214911Y-123647500D01*
X112213235Y-121022500D01*
X152082315Y-121022500D01*
X152101003Y-121200305D01*
X152101004Y-121200307D01*
X152156247Y-121370329D01*
X152156250Y-121370335D01*
X152245641Y-121525165D01*
X152287312Y-121571446D01*
X152365264Y-121658021D01*
X152365267Y-121658023D01*
X152365270Y-121658026D01*
X152509907Y-121763112D01*
X152673233Y-121835829D01*
X152848109Y-121873000D01*
X152848110Y-121873000D01*
X153026889Y-121873000D01*
X153026891Y-121873000D01*
X153201767Y-121835829D01*
X153365093Y-121763112D01*
X153509730Y-121658026D01*
X153629359Y-121525165D01*
X153718750Y-121370335D01*
X153773997Y-121200303D01*
X153792685Y-121022500D01*
X153773997Y-120844697D01*
X153718750Y-120674665D01*
X153629359Y-120519835D01*
X153582503Y-120467796D01*
X153509735Y-120386978D01*
X153509732Y-120386976D01*
X153509731Y-120386975D01*
X153509730Y-120386974D01*
X153365093Y-120281888D01*
X153201767Y-120209171D01*
X153201765Y-120209170D01*
X153074094Y-120182033D01*
X153026891Y-120172000D01*
X152848109Y-120172000D01*
X152817454Y-120178515D01*
X152673233Y-120209170D01*
X152673228Y-120209172D01*
X152509908Y-120281887D01*
X152365268Y-120386975D01*
X152245640Y-120519836D01*
X152156250Y-120674664D01*
X152156247Y-120674670D01*
X152101004Y-120844692D01*
X152101003Y-120844694D01*
X152082315Y-121022500D01*
X112213235Y-121022500D01*
X112211306Y-118000000D01*
X126912315Y-118000000D01*
X126931003Y-118177805D01*
X126931004Y-118177807D01*
X126986247Y-118347829D01*
X126986250Y-118347835D01*
X127075641Y-118502665D01*
X127117312Y-118548946D01*
X127195264Y-118635521D01*
X127195267Y-118635523D01*
X127195270Y-118635526D01*
X127339907Y-118740612D01*
X127503233Y-118813329D01*
X127678109Y-118850500D01*
X127678110Y-118850500D01*
X127856889Y-118850500D01*
X127856891Y-118850500D01*
X128031767Y-118813329D01*
X128195093Y-118740612D01*
X128339730Y-118635526D01*
X128459359Y-118502665D01*
X128548750Y-118347835D01*
X128603997Y-118177803D01*
X128622685Y-118000000D01*
X128603997Y-117822197D01*
X128548750Y-117652165D01*
X128459359Y-117497335D01*
X128412503Y-117445296D01*
X128339735Y-117364478D01*
X128339732Y-117364476D01*
X128339731Y-117364475D01*
X128339730Y-117364474D01*
X128226904Y-117282500D01*
X131107315Y-117282500D01*
X131126003Y-117460305D01*
X131126004Y-117460307D01*
X131181247Y-117630329D01*
X131181250Y-117630335D01*
X131270641Y-117785165D01*
X131303982Y-117822194D01*
X131390264Y-117918021D01*
X131390267Y-117918023D01*
X131390270Y-117918026D01*
X131534907Y-118023112D01*
X131698233Y-118095829D01*
X131873109Y-118133000D01*
X131873110Y-118133000D01*
X132051889Y-118133000D01*
X132051891Y-118133000D01*
X132226767Y-118095829D01*
X132390093Y-118023112D01*
X132534730Y-117918026D01*
X132654359Y-117785165D01*
X132743750Y-117630335D01*
X132798997Y-117460303D01*
X132817685Y-117282500D01*
X132798997Y-117104697D01*
X132743750Y-116934665D01*
X132654359Y-116779835D01*
X132607503Y-116727796D01*
X132534735Y-116646978D01*
X132534732Y-116646976D01*
X132534731Y-116646975D01*
X132534730Y-116646974D01*
X132390093Y-116541888D01*
X132226767Y-116469171D01*
X132226765Y-116469170D01*
X132099094Y-116442033D01*
X132051891Y-116432000D01*
X131873109Y-116432000D01*
X131842454Y-116438515D01*
X131698233Y-116469170D01*
X131698228Y-116469172D01*
X131534908Y-116541887D01*
X131390268Y-116646975D01*
X131270640Y-116779836D01*
X131181250Y-116934664D01*
X131181247Y-116934670D01*
X131126004Y-117104692D01*
X131126003Y-117104694D01*
X131107315Y-117282500D01*
X128226904Y-117282500D01*
X128195093Y-117259388D01*
X128031767Y-117186671D01*
X128031765Y-117186670D01*
X127904094Y-117159533D01*
X127856891Y-117149500D01*
X127678109Y-117149500D01*
X127647454Y-117156015D01*
X127503233Y-117186670D01*
X127503228Y-117186672D01*
X127339908Y-117259387D01*
X127195268Y-117364475D01*
X127075640Y-117497336D01*
X126986250Y-117652164D01*
X126986247Y-117652170D01*
X126931004Y-117822192D01*
X126931003Y-117822194D01*
X126912315Y-118000000D01*
X112211306Y-118000000D01*
X112209032Y-114437500D01*
X140757315Y-114437500D01*
X140776003Y-114615305D01*
X140776004Y-114615307D01*
X140831247Y-114785329D01*
X140831250Y-114785335D01*
X140920641Y-114940165D01*
X140962312Y-114986446D01*
X141040264Y-115073021D01*
X141040267Y-115073023D01*
X141040270Y-115073026D01*
X141184907Y-115178112D01*
X141348233Y-115250829D01*
X141523109Y-115288000D01*
X141523110Y-115288000D01*
X141701889Y-115288000D01*
X141701891Y-115288000D01*
X141876767Y-115250829D01*
X141999565Y-115196155D01*
X142068814Y-115186871D01*
X142100432Y-115196154D01*
X142223233Y-115250829D01*
X142398109Y-115288000D01*
X142398110Y-115288000D01*
X142576889Y-115288000D01*
X142576891Y-115288000D01*
X142751767Y-115250829D01*
X142792698Y-115232604D01*
X142849564Y-115207287D01*
X142918814Y-115198002D01*
X142950436Y-115207287D01*
X143048228Y-115250827D01*
X143048231Y-115250828D01*
X143048233Y-115250829D01*
X143223109Y-115288000D01*
X143223110Y-115288000D01*
X143401889Y-115288000D01*
X143401891Y-115288000D01*
X143576767Y-115250829D01*
X143740093Y-115178112D01*
X143884730Y-115073026D01*
X144004359Y-114940165D01*
X144093750Y-114785335D01*
X144148997Y-114615303D01*
X144167685Y-114437500D01*
X144148997Y-114259697D01*
X144093750Y-114089665D01*
X144004359Y-113934835D01*
X143957503Y-113882796D01*
X143884735Y-113801978D01*
X143884732Y-113801976D01*
X143884731Y-113801975D01*
X143884730Y-113801974D01*
X143740093Y-113696888D01*
X143576767Y-113624171D01*
X143576765Y-113624170D01*
X143449094Y-113597033D01*
X143401891Y-113587000D01*
X143223109Y-113587000D01*
X143185939Y-113594900D01*
X143048234Y-113624170D01*
X143048233Y-113624170D01*
X142950435Y-113667713D01*
X142881185Y-113676997D01*
X142849565Y-113667713D01*
X142751765Y-113624170D01*
X142624094Y-113597033D01*
X142576891Y-113587000D01*
X142398109Y-113587000D01*
X142367454Y-113593515D01*
X142223233Y-113624170D01*
X142223232Y-113624170D01*
X142100434Y-113678844D01*
X142031184Y-113688128D01*
X141999567Y-113678845D01*
X141876767Y-113624171D01*
X141876765Y-113624170D01*
X141749094Y-113597033D01*
X141701891Y-113587000D01*
X141523109Y-113587000D01*
X141492454Y-113593515D01*
X141348233Y-113624170D01*
X141348228Y-113624172D01*
X141184908Y-113696887D01*
X141040268Y-113801975D01*
X140920640Y-113934836D01*
X140831250Y-114089664D01*
X140831247Y-114089670D01*
X140776004Y-114259692D01*
X140776003Y-114259694D01*
X140757315Y-114437500D01*
X112209032Y-114437500D01*
X112208115Y-113000000D01*
X126914815Y-113000000D01*
X126933503Y-113177805D01*
X126933504Y-113177807D01*
X126988747Y-113347829D01*
X126988750Y-113347835D01*
X127078141Y-113502665D01*
X127119812Y-113548946D01*
X127197764Y-113635521D01*
X127197767Y-113635523D01*
X127197770Y-113635526D01*
X127342407Y-113740612D01*
X127505733Y-113813329D01*
X127680609Y-113850500D01*
X127680610Y-113850500D01*
X127859389Y-113850500D01*
X127859391Y-113850500D01*
X128034267Y-113813329D01*
X128197593Y-113740612D01*
X128342230Y-113635526D01*
X128352454Y-113624172D01*
X128385923Y-113587000D01*
X128461859Y-113502665D01*
X128551250Y-113347835D01*
X128606497Y-113177803D01*
X128625185Y-113000000D01*
X128606497Y-112822197D01*
X128551250Y-112652165D01*
X128461859Y-112497335D01*
X128394477Y-112422500D01*
X146382315Y-112422500D01*
X146401003Y-112600305D01*
X146401004Y-112600307D01*
X146456247Y-112770329D01*
X146456250Y-112770335D01*
X146545641Y-112925165D01*
X146587312Y-112971446D01*
X146665264Y-113058021D01*
X146665267Y-113058023D01*
X146665270Y-113058026D01*
X146809907Y-113163112D01*
X146973233Y-113235829D01*
X147148109Y-113273000D01*
X147148110Y-113273000D01*
X147326889Y-113273000D01*
X147326891Y-113273000D01*
X147501767Y-113235829D01*
X147665093Y-113163112D01*
X147809730Y-113058026D01*
X147929359Y-112925165D01*
X148018750Y-112770335D01*
X148073997Y-112600303D01*
X148092685Y-112422500D01*
X148073997Y-112244697D01*
X148046373Y-112159681D01*
X148018752Y-112074670D01*
X148018749Y-112074664D01*
X147929359Y-111919835D01*
X147882503Y-111867796D01*
X147809735Y-111786978D01*
X147809732Y-111786976D01*
X147809731Y-111786975D01*
X147809730Y-111786974D01*
X147665093Y-111681888D01*
X147501767Y-111609171D01*
X147501765Y-111609170D01*
X147374094Y-111582033D01*
X147326891Y-111572000D01*
X147148109Y-111572000D01*
X147117454Y-111578515D01*
X146973233Y-111609170D01*
X146973228Y-111609172D01*
X146809908Y-111681887D01*
X146665268Y-111786975D01*
X146545640Y-111919836D01*
X146456250Y-112074664D01*
X146456247Y-112074670D01*
X146401004Y-112244692D01*
X146401003Y-112244694D01*
X146382315Y-112422500D01*
X128394477Y-112422500D01*
X128342235Y-112364478D01*
X128342232Y-112364476D01*
X128342231Y-112364475D01*
X128342230Y-112364474D01*
X128197593Y-112259388D01*
X128034267Y-112186671D01*
X128034265Y-112186670D01*
X127906594Y-112159533D01*
X127859391Y-112149500D01*
X127680609Y-112149500D01*
X127649954Y-112156015D01*
X127505733Y-112186670D01*
X127505728Y-112186672D01*
X127342408Y-112259387D01*
X127197768Y-112364475D01*
X127078140Y-112497336D01*
X126988750Y-112652164D01*
X126988747Y-112652170D01*
X126933504Y-112822192D01*
X126933503Y-112822194D01*
X126914815Y-113000000D01*
X112208115Y-113000000D01*
X112206465Y-110415178D01*
X143064637Y-110415178D01*
X143083325Y-110592983D01*
X143083326Y-110592985D01*
X143138572Y-110763015D01*
X143138573Y-110763017D01*
X143151498Y-110785404D01*
X143167971Y-110853304D01*
X143162043Y-110885719D01*
X143151003Y-110919695D01*
X143132315Y-111097500D01*
X143151003Y-111275305D01*
X143151004Y-111275307D01*
X143206247Y-111445329D01*
X143206250Y-111445335D01*
X143295641Y-111600165D01*
X143337312Y-111646446D01*
X143415264Y-111733021D01*
X143415267Y-111733023D01*
X143415270Y-111733026D01*
X143559907Y-111838112D01*
X143723233Y-111910829D01*
X143898109Y-111948000D01*
X143898110Y-111948000D01*
X144076889Y-111948000D01*
X144076891Y-111948000D01*
X144251767Y-111910829D01*
X144415093Y-111838112D01*
X144559730Y-111733026D01*
X144679359Y-111600165D01*
X144768750Y-111445335D01*
X144823997Y-111275303D01*
X144842685Y-111097500D01*
X144823997Y-110919697D01*
X144795897Y-110833214D01*
X144768752Y-110749670D01*
X144768747Y-110749659D01*
X144755823Y-110727274D01*
X144739350Y-110659374D01*
X144745277Y-110626962D01*
X144756319Y-110592981D01*
X144775007Y-110415178D01*
X144756319Y-110237375D01*
X144728695Y-110152359D01*
X144701074Y-110067348D01*
X144701071Y-110067342D01*
X144611681Y-109912513D01*
X144542776Y-109835986D01*
X144492057Y-109779656D01*
X144492054Y-109779654D01*
X144492053Y-109779653D01*
X144492052Y-109779652D01*
X144347415Y-109674566D01*
X144184089Y-109601849D01*
X144184087Y-109601848D01*
X144056416Y-109574711D01*
X144009213Y-109564678D01*
X143830431Y-109564678D01*
X143799776Y-109571193D01*
X143655555Y-109601848D01*
X143655550Y-109601850D01*
X143492230Y-109674565D01*
X143347590Y-109779653D01*
X143227962Y-109912514D01*
X143138572Y-110067342D01*
X143138569Y-110067348D01*
X143083326Y-110237370D01*
X143083325Y-110237372D01*
X143064637Y-110415178D01*
X112206465Y-110415178D01*
X112205721Y-109250000D01*
X134394815Y-109250000D01*
X134413503Y-109427805D01*
X134413504Y-109427807D01*
X134468747Y-109597829D01*
X134468750Y-109597835D01*
X134558141Y-109752665D01*
X134582442Y-109779654D01*
X134677764Y-109885521D01*
X134677767Y-109885523D01*
X134677770Y-109885526D01*
X134822407Y-109990612D01*
X134985733Y-110063329D01*
X135160609Y-110100500D01*
X135160610Y-110100500D01*
X135339389Y-110100500D01*
X135339391Y-110100500D01*
X135514267Y-110063329D01*
X135677593Y-109990612D01*
X135822230Y-109885526D01*
X135941859Y-109752665D01*
X136031250Y-109597835D01*
X136086497Y-109427803D01*
X136105185Y-109250000D01*
X136098569Y-109187057D01*
X136111138Y-109118328D01*
X136129741Y-109091123D01*
X136130054Y-109090775D01*
X136141859Y-109077665D01*
X136148887Y-109065493D01*
X136231248Y-108922838D01*
X136231250Y-108922834D01*
X136236533Y-108906575D01*
X136267173Y-108812271D01*
X136306610Y-108754597D01*
X136323112Y-108743198D01*
X136327579Y-108740618D01*
X136327593Y-108740612D01*
X136472230Y-108635526D01*
X136591859Y-108502665D01*
X136681250Y-108347835D01*
X136736497Y-108177803D01*
X136755185Y-108000000D01*
X136736497Y-107822197D01*
X136708873Y-107737181D01*
X136681252Y-107652170D01*
X136681249Y-107652164D01*
X136591859Y-107497335D01*
X136545003Y-107445296D01*
X136472235Y-107364478D01*
X136472232Y-107364476D01*
X136472231Y-107364475D01*
X136472230Y-107364474D01*
X136327593Y-107259388D01*
X136164267Y-107186671D01*
X136164265Y-107186670D01*
X136027028Y-107157500D01*
X135989391Y-107149500D01*
X135810609Y-107149500D01*
X135779954Y-107156015D01*
X135635733Y-107186670D01*
X135635728Y-107186672D01*
X135472408Y-107259387D01*
X135327768Y-107364475D01*
X135208140Y-107497336D01*
X135118750Y-107652164D01*
X135118748Y-107652168D01*
X135082824Y-107762730D01*
X135043386Y-107820405D01*
X135026903Y-107831792D01*
X135022412Y-107834385D01*
X134877770Y-107939473D01*
X134758140Y-108072336D01*
X134668750Y-108227164D01*
X134668747Y-108227170D01*
X134613504Y-108397192D01*
X134613503Y-108397194D01*
X134594815Y-108575000D01*
X134601430Y-108637943D01*
X134588860Y-108706672D01*
X134570260Y-108733874D01*
X134558144Y-108747329D01*
X134558139Y-108747336D01*
X134468750Y-108902164D01*
X134468747Y-108902170D01*
X134413504Y-109072192D01*
X134413503Y-109072194D01*
X134394815Y-109250000D01*
X112205721Y-109250000D01*
X112203198Y-105297500D01*
X122907315Y-105297500D01*
X122926003Y-105475305D01*
X122926004Y-105475307D01*
X122981247Y-105645329D01*
X122981250Y-105645335D01*
X123070641Y-105800165D01*
X123101260Y-105834171D01*
X123190264Y-105933021D01*
X123190267Y-105933023D01*
X123190270Y-105933026D01*
X123334907Y-106038112D01*
X123498233Y-106110829D01*
X123673109Y-106148000D01*
X123673110Y-106148000D01*
X123851889Y-106148000D01*
X123851891Y-106148000D01*
X124026767Y-106110829D01*
X124051089Y-106100000D01*
X128007315Y-106100000D01*
X128026003Y-106277805D01*
X128026004Y-106277807D01*
X128081247Y-106447829D01*
X128081250Y-106447835D01*
X128170641Y-106602665D01*
X128211011Y-106647500D01*
X128290264Y-106735521D01*
X128290267Y-106735523D01*
X128290270Y-106735526D01*
X128392313Y-106809665D01*
X128434907Y-106840612D01*
X128454243Y-106849221D01*
X128507480Y-106894471D01*
X128527801Y-106961320D01*
X128508756Y-107028544D01*
X128456389Y-107074799D01*
X128454277Y-107075763D01*
X128443850Y-107080406D01*
X128434905Y-107084389D01*
X128290268Y-107189475D01*
X128170640Y-107322336D01*
X128081250Y-107477164D01*
X128081247Y-107477170D01*
X128026004Y-107647192D01*
X128026003Y-107647194D01*
X128007315Y-107825000D01*
X128026003Y-108002805D01*
X128026004Y-108002807D01*
X128081247Y-108172829D01*
X128081250Y-108172835D01*
X128170641Y-108327665D01*
X128212312Y-108373946D01*
X128290264Y-108460521D01*
X128290267Y-108460523D01*
X128290270Y-108460526D01*
X128434907Y-108565612D01*
X128598233Y-108638329D01*
X128773109Y-108675500D01*
X128773110Y-108675500D01*
X128951889Y-108675500D01*
X128951891Y-108675500D01*
X129126767Y-108638329D01*
X129290093Y-108565612D01*
X129434730Y-108460526D01*
X129554359Y-108327665D01*
X129643750Y-108172835D01*
X129698997Y-108002803D01*
X129717685Y-107825000D01*
X129698997Y-107647197D01*
X129654978Y-107511721D01*
X129643752Y-107477170D01*
X129643749Y-107477164D01*
X129634318Y-107460829D01*
X129554359Y-107322335D01*
X129479774Y-107239500D01*
X129434735Y-107189478D01*
X129434732Y-107189476D01*
X129434731Y-107189475D01*
X129434730Y-107189474D01*
X129290093Y-107084388D01*
X129270756Y-107075779D01*
X129217520Y-107030530D01*
X129197198Y-106963682D01*
X129216243Y-106896458D01*
X129268608Y-106850202D01*
X129270719Y-106849237D01*
X129290093Y-106840612D01*
X129434730Y-106735526D01*
X129554359Y-106602665D01*
X129643750Y-106447835D01*
X129676351Y-106347500D01*
X138322315Y-106347500D01*
X138341003Y-106525305D01*
X138341004Y-106525307D01*
X138396250Y-106695337D01*
X138398893Y-106701273D01*
X138396362Y-106702399D01*
X138409925Y-106758498D01*
X138396904Y-106802841D01*
X138398893Y-106803727D01*
X138396250Y-106809662D01*
X138341004Y-106979692D01*
X138341003Y-106979694D01*
X138322315Y-107157500D01*
X138341003Y-107335305D01*
X138341004Y-107335307D01*
X138398258Y-107511515D01*
X138396155Y-107512198D01*
X138404076Y-107571331D01*
X138397630Y-107593281D01*
X138398258Y-107593485D01*
X138341004Y-107769692D01*
X138341003Y-107769694D01*
X138322315Y-107947500D01*
X138341003Y-108125305D01*
X138341004Y-108125307D01*
X138396247Y-108295329D01*
X138396250Y-108295335D01*
X138485641Y-108450165D01*
X138507657Y-108474616D01*
X138605264Y-108583021D01*
X138605267Y-108583023D01*
X138605270Y-108583026D01*
X138749907Y-108688112D01*
X138913233Y-108760829D01*
X139088109Y-108798000D01*
X139088110Y-108798000D01*
X139266889Y-108798000D01*
X139266891Y-108798000D01*
X139441767Y-108760829D01*
X139605093Y-108688112D01*
X139749730Y-108583026D01*
X139765412Y-108565610D01*
X139775648Y-108554241D01*
X139847326Y-108474635D01*
X152717000Y-108474635D01*
X152717000Y-110270370D01*
X152717001Y-110270376D01*
X152723408Y-110329983D01*
X152773702Y-110464828D01*
X152773706Y-110464835D01*
X152859952Y-110580044D01*
X152859955Y-110580047D01*
X152975164Y-110666293D01*
X152975171Y-110666297D01*
X153110017Y-110716591D01*
X153110016Y-110716591D01*
X153116944Y-110717335D01*
X153169627Y-110723000D01*
X154965372Y-110722999D01*
X155024983Y-110716591D01*
X155159831Y-110666296D01*
X155275046Y-110580046D01*
X155361296Y-110464831D01*
X155410502Y-110332901D01*
X155452372Y-110276968D01*
X155517837Y-110252550D01*
X155586110Y-110267401D01*
X155614365Y-110288553D01*
X155736417Y-110410605D01*
X155929921Y-110546100D01*
X156144007Y-110645929D01*
X156144016Y-110645933D01*
X156357500Y-110703134D01*
X156357500Y-109805512D01*
X156414507Y-109838425D01*
X156541674Y-109872500D01*
X156673326Y-109872500D01*
X156800493Y-109838425D01*
X156857500Y-109805512D01*
X156857500Y-110703133D01*
X157070983Y-110645933D01*
X157070992Y-110645929D01*
X157285078Y-110546100D01*
X157478582Y-110410605D01*
X157645605Y-110243582D01*
X157775619Y-110057905D01*
X157830196Y-110014281D01*
X157899695Y-110007088D01*
X157962049Y-110038610D01*
X157978769Y-110057905D01*
X158109005Y-110243901D01*
X158276099Y-110410995D01*
X158372884Y-110478765D01*
X158469665Y-110546532D01*
X158469667Y-110546533D01*
X158469670Y-110546535D01*
X158683837Y-110646403D01*
X158912092Y-110707563D01*
X159088534Y-110723000D01*
X159147499Y-110728159D01*
X159147500Y-110728159D01*
X159147501Y-110728159D01*
X159206466Y-110723000D01*
X159382908Y-110707563D01*
X159611163Y-110646403D01*
X159825330Y-110546535D01*
X160018901Y-110410995D01*
X160185995Y-110243901D01*
X160316230Y-110057905D01*
X160370807Y-110014281D01*
X160440305Y-110007087D01*
X160502660Y-110038610D01*
X160519379Y-110057905D01*
X160649390Y-110243578D01*
X160816417Y-110410605D01*
X161009921Y-110546100D01*
X161224007Y-110645929D01*
X161224016Y-110645933D01*
X161437500Y-110703134D01*
X161437500Y-109805512D01*
X161494507Y-109838425D01*
X161621674Y-109872500D01*
X161753326Y-109872500D01*
X161880493Y-109838425D01*
X161937500Y-109805512D01*
X161937500Y-110703133D01*
X162150983Y-110645933D01*
X162150992Y-110645929D01*
X162365078Y-110546100D01*
X162558582Y-110410605D01*
X162725605Y-110243582D01*
X162861100Y-110050078D01*
X162960929Y-109835992D01*
X162960932Y-109835986D01*
X163018136Y-109622500D01*
X162120512Y-109622500D01*
X162153425Y-109565493D01*
X162187500Y-109438326D01*
X162187500Y-109306674D01*
X162153425Y-109179507D01*
X162120512Y-109122500D01*
X163018136Y-109122500D01*
X163018135Y-109122499D01*
X162960932Y-108909013D01*
X162960929Y-108909007D01*
X162861100Y-108694922D01*
X162861099Y-108694920D01*
X162725613Y-108501426D01*
X162725608Y-108501420D01*
X162558582Y-108334394D01*
X162365078Y-108198899D01*
X162150992Y-108099070D01*
X162150986Y-108099067D01*
X162117147Y-108090000D01*
X170044815Y-108090000D01*
X170063503Y-108267805D01*
X170063504Y-108267807D01*
X170118747Y-108437829D01*
X170118750Y-108437835D01*
X170208141Y-108592665D01*
X170246729Y-108635521D01*
X170327764Y-108725521D01*
X170327767Y-108725523D01*
X170327770Y-108725526D01*
X170472407Y-108830612D01*
X170635733Y-108903329D01*
X170810609Y-108940500D01*
X170810610Y-108940500D01*
X170989389Y-108940500D01*
X170989391Y-108940500D01*
X171164267Y-108903329D01*
X171327593Y-108830612D01*
X171472230Y-108725526D01*
X171591859Y-108592665D01*
X171681250Y-108437835D01*
X171736497Y-108267803D01*
X171755185Y-108090000D01*
X171736497Y-107912197D01*
X171706672Y-107820405D01*
X171681252Y-107742170D01*
X171681249Y-107742164D01*
X171652440Y-107692265D01*
X171591859Y-107587335D01*
X171543587Y-107533724D01*
X171472235Y-107454478D01*
X171472232Y-107454476D01*
X171472231Y-107454475D01*
X171472230Y-107454474D01*
X171327593Y-107349388D01*
X171164267Y-107276671D01*
X171164265Y-107276670D01*
X171036594Y-107249533D01*
X170989391Y-107239500D01*
X170810609Y-107239500D01*
X170779954Y-107246015D01*
X170635733Y-107276670D01*
X170635728Y-107276672D01*
X170472408Y-107349387D01*
X170327768Y-107454475D01*
X170208140Y-107587336D01*
X170118750Y-107742164D01*
X170118747Y-107742170D01*
X170063504Y-107912192D01*
X170063503Y-107912194D01*
X170044815Y-108090000D01*
X162117147Y-108090000D01*
X161937500Y-108041864D01*
X161937500Y-108939488D01*
X161880493Y-108906575D01*
X161753326Y-108872500D01*
X161621674Y-108872500D01*
X161494507Y-108906575D01*
X161437500Y-108939488D01*
X161437500Y-108041864D01*
X161437499Y-108041864D01*
X161224013Y-108099067D01*
X161224007Y-108099070D01*
X161009922Y-108198899D01*
X161009920Y-108198900D01*
X160816426Y-108334386D01*
X160816420Y-108334391D01*
X160649391Y-108501420D01*
X160649390Y-108501422D01*
X160519380Y-108687095D01*
X160464803Y-108730719D01*
X160395304Y-108737912D01*
X160332950Y-108706390D01*
X160316230Y-108687094D01*
X160185994Y-108501097D01*
X160018902Y-108334006D01*
X160018895Y-108334001D01*
X160009846Y-108327665D01*
X159942018Y-108280171D01*
X159825334Y-108198467D01*
X159825330Y-108198465D01*
X159781029Y-108177807D01*
X159611163Y-108098597D01*
X159611159Y-108098596D01*
X159611155Y-108098594D01*
X159382913Y-108037438D01*
X159382903Y-108037436D01*
X159147501Y-108016841D01*
X159147499Y-108016841D01*
X158912096Y-108037436D01*
X158912086Y-108037438D01*
X158683844Y-108098594D01*
X158683835Y-108098598D01*
X158469671Y-108198464D01*
X158469669Y-108198465D01*
X158276097Y-108334005D01*
X158109008Y-108501094D01*
X157978769Y-108687095D01*
X157924192Y-108730719D01*
X157854693Y-108737912D01*
X157792339Y-108706390D01*
X157775619Y-108687094D01*
X157645613Y-108501426D01*
X157645608Y-108501420D01*
X157478582Y-108334394D01*
X157285078Y-108198899D01*
X157070992Y-108099070D01*
X157070986Y-108099067D01*
X156857500Y-108041864D01*
X156857500Y-108939488D01*
X156800493Y-108906575D01*
X156673326Y-108872500D01*
X156541674Y-108872500D01*
X156414507Y-108906575D01*
X156357500Y-108939488D01*
X156357500Y-108041864D01*
X156357499Y-108041864D01*
X156144013Y-108099067D01*
X156144007Y-108099070D01*
X155929922Y-108198899D01*
X155929920Y-108198900D01*
X155736426Y-108334386D01*
X155614365Y-108456447D01*
X155553042Y-108489931D01*
X155483350Y-108484947D01*
X155427417Y-108443075D01*
X155410502Y-108412098D01*
X155404944Y-108397197D01*
X155381521Y-108334394D01*
X155361297Y-108280171D01*
X155361293Y-108280164D01*
X155275047Y-108164955D01*
X155275044Y-108164952D01*
X155159835Y-108078706D01*
X155159828Y-108078702D01*
X155024982Y-108028408D01*
X155024983Y-108028408D01*
X154965383Y-108022001D01*
X154965381Y-108022000D01*
X154965373Y-108022000D01*
X154965364Y-108022000D01*
X153169629Y-108022000D01*
X153169623Y-108022001D01*
X153110016Y-108028408D01*
X152975171Y-108078702D01*
X152975164Y-108078706D01*
X152859955Y-108164952D01*
X152859952Y-108164955D01*
X152773706Y-108280164D01*
X152773702Y-108280171D01*
X152723408Y-108415017D01*
X152717001Y-108474616D01*
X152717000Y-108474635D01*
X139847326Y-108474635D01*
X139869359Y-108450165D01*
X139958750Y-108295335D01*
X140013997Y-108125303D01*
X140032685Y-107947500D01*
X140013997Y-107769697D01*
X139958750Y-107599665D01*
X139956742Y-107593484D01*
X139958853Y-107592797D01*
X139950915Y-107533724D01*
X139957374Y-107511721D01*
X139956742Y-107511516D01*
X139975375Y-107454168D01*
X140013997Y-107335303D01*
X140032685Y-107157500D01*
X140013997Y-106979697D01*
X139958750Y-106809665D01*
X139958749Y-106809664D01*
X139958749Y-106809662D01*
X139956108Y-106803730D01*
X139958667Y-106802590D01*
X139945064Y-106746686D01*
X139958134Y-106702172D01*
X139956108Y-106701270D01*
X139958749Y-106695337D01*
X139968902Y-106664089D01*
X139974292Y-106647500D01*
X142507315Y-106647500D01*
X142526003Y-106825305D01*
X142526004Y-106825307D01*
X142581247Y-106995329D01*
X142581250Y-106995335D01*
X142670641Y-107150165D01*
X142703511Y-107186671D01*
X142790264Y-107283021D01*
X142790267Y-107283023D01*
X142790270Y-107283026D01*
X142934907Y-107388112D01*
X143098233Y-107460829D01*
X143273109Y-107498000D01*
X143273110Y-107498000D01*
X143451889Y-107498000D01*
X143451891Y-107498000D01*
X143626767Y-107460829D01*
X143752836Y-107404700D01*
X147932315Y-107404700D01*
X147951003Y-107582505D01*
X147951004Y-107582507D01*
X148006247Y-107752529D01*
X148006250Y-107752535D01*
X148095641Y-107907365D01*
X148124552Y-107939474D01*
X148215264Y-108040221D01*
X148215267Y-108040223D01*
X148215270Y-108040226D01*
X148359907Y-108145312D01*
X148523233Y-108218029D01*
X148698109Y-108255200D01*
X148698110Y-108255200D01*
X148876889Y-108255200D01*
X148876891Y-108255200D01*
X149051767Y-108218029D01*
X149215093Y-108145312D01*
X149359730Y-108040226D01*
X149362241Y-108037438D01*
X149395950Y-108000000D01*
X149479359Y-107907365D01*
X149568750Y-107752535D01*
X149623997Y-107582503D01*
X149642685Y-107404700D01*
X149623997Y-107226897D01*
X149568750Y-107056865D01*
X149479359Y-106902035D01*
X149431804Y-106849220D01*
X149359735Y-106769178D01*
X149359732Y-106769176D01*
X149359731Y-106769175D01*
X149359730Y-106769174D01*
X149253187Y-106691765D01*
X165942504Y-106691765D01*
X165961192Y-106869570D01*
X165961193Y-106869572D01*
X166016436Y-107039594D01*
X166016439Y-107039600D01*
X166105830Y-107194430D01*
X166135059Y-107226892D01*
X166225453Y-107327286D01*
X166225456Y-107327288D01*
X166225459Y-107327291D01*
X166370096Y-107432377D01*
X166533422Y-107505094D01*
X166708298Y-107542265D01*
X166708299Y-107542265D01*
X166887078Y-107542265D01*
X166887080Y-107542265D01*
X167061956Y-107505094D01*
X167225282Y-107432377D01*
X167369919Y-107327291D01*
X167374382Y-107322335D01*
X167395837Y-107298506D01*
X167489548Y-107194430D01*
X167578939Y-107039600D01*
X167634186Y-106869568D01*
X167652874Y-106691765D01*
X167636583Y-106536765D01*
X168062504Y-106536765D01*
X168081192Y-106714570D01*
X168081193Y-106714572D01*
X168136436Y-106884594D01*
X168136439Y-106884600D01*
X168225830Y-107039430D01*
X168257677Y-107074799D01*
X168345453Y-107172286D01*
X168345456Y-107172288D01*
X168345459Y-107172291D01*
X168490096Y-107277377D01*
X168653422Y-107350094D01*
X168828298Y-107387265D01*
X168828299Y-107387265D01*
X169007078Y-107387265D01*
X169007080Y-107387265D01*
X169181956Y-107350094D01*
X169345282Y-107277377D01*
X169489919Y-107172291D01*
X169509842Y-107150165D01*
X169515837Y-107143506D01*
X169609548Y-107039430D01*
X169698939Y-106884600D01*
X169754186Y-106714568D01*
X169772348Y-106541765D01*
X171792504Y-106541765D01*
X171811192Y-106719570D01*
X171811193Y-106719572D01*
X171866436Y-106889594D01*
X171866439Y-106889600D01*
X171955830Y-107044430D01*
X171991809Y-107084389D01*
X172075453Y-107177286D01*
X172075456Y-107177288D01*
X172075459Y-107177291D01*
X172220096Y-107282377D01*
X172383422Y-107355094D01*
X172558298Y-107392265D01*
X172558299Y-107392265D01*
X172737078Y-107392265D01*
X172737080Y-107392265D01*
X172911956Y-107355094D01*
X173075282Y-107282377D01*
X173219919Y-107177291D01*
X173339548Y-107044430D01*
X173428939Y-106889600D01*
X173444482Y-106841765D01*
X173892504Y-106841765D01*
X173911192Y-107019570D01*
X173911193Y-107019572D01*
X173966436Y-107189594D01*
X173966439Y-107189600D01*
X174055830Y-107344430D01*
X174094399Y-107387265D01*
X174175453Y-107477286D01*
X174175456Y-107477288D01*
X174175459Y-107477291D01*
X174320096Y-107582377D01*
X174483422Y-107655094D01*
X174658298Y-107692265D01*
X174658299Y-107692265D01*
X174837078Y-107692265D01*
X174837080Y-107692265D01*
X175011956Y-107655094D01*
X175175282Y-107582377D01*
X175319919Y-107477291D01*
X175320033Y-107477165D01*
X175360360Y-107432377D01*
X175439548Y-107344430D01*
X175528939Y-107189600D01*
X175584186Y-107019568D01*
X175602874Y-106841765D01*
X175584186Y-106663962D01*
X175539134Y-106525307D01*
X175528941Y-106493935D01*
X175528938Y-106493929D01*
X175502326Y-106447835D01*
X175439548Y-106339100D01*
X175392692Y-106287061D01*
X175319924Y-106206243D01*
X175319921Y-106206241D01*
X175319920Y-106206240D01*
X175319919Y-106206239D01*
X175175282Y-106101153D01*
X175011956Y-106028436D01*
X175011954Y-106028435D01*
X174876594Y-105999664D01*
X174837080Y-105991265D01*
X174658298Y-105991265D01*
X174627643Y-105997780D01*
X174483422Y-106028435D01*
X174483417Y-106028437D01*
X174320097Y-106101152D01*
X174175457Y-106206240D01*
X174055829Y-106339101D01*
X173966439Y-106493929D01*
X173966436Y-106493935D01*
X173911193Y-106663957D01*
X173911192Y-106663959D01*
X173892504Y-106841765D01*
X173444482Y-106841765D01*
X173484186Y-106719568D01*
X173502874Y-106541765D01*
X173484186Y-106363962D01*
X173432939Y-106206240D01*
X173428941Y-106193935D01*
X173428938Y-106193929D01*
X173426052Y-106188930D01*
X173339548Y-106039100D01*
X173260361Y-105951154D01*
X173219924Y-105906243D01*
X173219921Y-105906241D01*
X173219920Y-105906240D01*
X173219919Y-105906239D01*
X173075282Y-105801153D01*
X172911956Y-105728436D01*
X172911954Y-105728435D01*
X172778942Y-105700163D01*
X172737080Y-105691265D01*
X172558298Y-105691265D01*
X172527643Y-105697780D01*
X172383422Y-105728435D01*
X172383417Y-105728437D01*
X172220097Y-105801152D01*
X172075457Y-105906240D01*
X171955829Y-106039101D01*
X171866439Y-106193929D01*
X171866436Y-106193935D01*
X171811193Y-106363957D01*
X171811192Y-106363959D01*
X171792504Y-106541765D01*
X169772348Y-106541765D01*
X169772874Y-106536765D01*
X169754186Y-106358962D01*
X169726562Y-106273946D01*
X169698941Y-106188935D01*
X169698938Y-106188929D01*
X169609548Y-106034100D01*
X169534862Y-105951153D01*
X169489924Y-105901243D01*
X169489921Y-105901241D01*
X169489920Y-105901240D01*
X169489919Y-105901239D01*
X169345282Y-105796153D01*
X169181956Y-105723436D01*
X169181954Y-105723435D01*
X169030603Y-105691265D01*
X169007080Y-105686265D01*
X168828298Y-105686265D01*
X168804775Y-105691265D01*
X168653422Y-105723435D01*
X168653417Y-105723437D01*
X168490097Y-105796152D01*
X168345457Y-105901240D01*
X168225829Y-106034101D01*
X168136439Y-106188929D01*
X168136436Y-106188935D01*
X168081193Y-106358957D01*
X168081192Y-106358959D01*
X168062504Y-106536765D01*
X167636583Y-106536765D01*
X167634186Y-106513962D01*
X167585446Y-106363957D01*
X167578941Y-106343935D01*
X167578938Y-106343929D01*
X167576150Y-106339100D01*
X167489548Y-106189100D01*
X167442692Y-106137061D01*
X167369924Y-106056243D01*
X167369921Y-106056241D01*
X167369920Y-106056240D01*
X167369919Y-106056239D01*
X167225282Y-105951153D01*
X167061956Y-105878436D01*
X167061954Y-105878435D01*
X166903880Y-105844836D01*
X166887080Y-105841265D01*
X166708298Y-105841265D01*
X166691498Y-105844836D01*
X166533422Y-105878435D01*
X166533417Y-105878437D01*
X166370097Y-105951152D01*
X166225457Y-106056240D01*
X166105829Y-106189101D01*
X166016439Y-106343929D01*
X166016436Y-106343935D01*
X165961193Y-106513957D01*
X165961192Y-106513959D01*
X165942504Y-106691765D01*
X149253187Y-106691765D01*
X149215093Y-106664088D01*
X149051767Y-106591371D01*
X149051765Y-106591370D01*
X148924094Y-106564233D01*
X148876891Y-106554200D01*
X148698109Y-106554200D01*
X148667454Y-106560715D01*
X148523233Y-106591370D01*
X148523228Y-106591372D01*
X148359908Y-106664087D01*
X148215268Y-106769175D01*
X148095640Y-106902036D01*
X148006250Y-107056864D01*
X148006247Y-107056870D01*
X147951004Y-107226892D01*
X147951003Y-107226894D01*
X147932315Y-107404700D01*
X143752836Y-107404700D01*
X143790093Y-107388112D01*
X143934730Y-107283026D01*
X143935315Y-107282377D01*
X143973921Y-107239500D01*
X144054359Y-107150165D01*
X144143750Y-106995335D01*
X144198997Y-106825303D01*
X144217685Y-106647500D01*
X144198997Y-106469697D01*
X144171373Y-106384681D01*
X144143752Y-106299670D01*
X144143749Y-106299664D01*
X144131128Y-106277803D01*
X144054359Y-106144835D01*
X144007503Y-106092796D01*
X143934735Y-106011978D01*
X143934732Y-106011976D01*
X143934731Y-106011975D01*
X143934730Y-106011974D01*
X143790093Y-105906888D01*
X143626767Y-105834171D01*
X143626765Y-105834170D01*
X143499094Y-105807033D01*
X143451891Y-105797000D01*
X143273109Y-105797000D01*
X143253571Y-105801153D01*
X143098233Y-105834170D01*
X143098228Y-105834172D01*
X142934908Y-105906887D01*
X142790268Y-106011975D01*
X142670640Y-106144836D01*
X142581250Y-106299664D01*
X142581247Y-106299670D01*
X142526004Y-106469692D01*
X142526003Y-106469694D01*
X142507315Y-106647500D01*
X139974292Y-106647500D01*
X140013997Y-106525303D01*
X140032685Y-106347500D01*
X140013997Y-106169697D01*
X139986373Y-106084681D01*
X139958752Y-105999670D01*
X139958749Y-105999664D01*
X139930742Y-105951154D01*
X139869359Y-105844835D01*
X139785923Y-105752170D01*
X139749735Y-105711978D01*
X139749732Y-105711976D01*
X139749731Y-105711975D01*
X139749730Y-105711974D01*
X139605093Y-105606888D01*
X139441767Y-105534171D01*
X139441765Y-105534170D01*
X139314094Y-105507033D01*
X139266891Y-105497000D01*
X139088109Y-105497000D01*
X139057454Y-105503515D01*
X138913233Y-105534170D01*
X138913228Y-105534172D01*
X138749908Y-105606887D01*
X138605268Y-105711975D01*
X138485640Y-105844836D01*
X138396250Y-105999664D01*
X138396247Y-105999670D01*
X138341004Y-106169692D01*
X138341003Y-106169694D01*
X138322315Y-106347500D01*
X129676351Y-106347500D01*
X129698997Y-106277803D01*
X129717685Y-106100000D01*
X129698997Y-105922197D01*
X129670396Y-105834172D01*
X129643752Y-105752170D01*
X129643749Y-105752164D01*
X129554359Y-105597335D01*
X129501034Y-105538112D01*
X129434735Y-105464478D01*
X129434732Y-105464476D01*
X129434731Y-105464475D01*
X129434730Y-105464474D01*
X129290093Y-105359388D01*
X129126767Y-105286671D01*
X129126765Y-105286670D01*
X128999094Y-105259533D01*
X128951891Y-105249500D01*
X128773109Y-105249500D01*
X128742454Y-105256015D01*
X128598233Y-105286670D01*
X128598228Y-105286672D01*
X128434908Y-105359387D01*
X128290268Y-105464475D01*
X128170640Y-105597336D01*
X128081250Y-105752164D01*
X128081247Y-105752170D01*
X128026004Y-105922192D01*
X128026003Y-105922194D01*
X128007315Y-106100000D01*
X124051089Y-106100000D01*
X124190093Y-106038112D01*
X124334730Y-105933026D01*
X124344484Y-105922194D01*
X124383884Y-105878435D01*
X124454359Y-105800165D01*
X124543750Y-105645335D01*
X124598997Y-105475303D01*
X124617685Y-105297500D01*
X124598997Y-105119697D01*
X124552081Y-104975305D01*
X124543752Y-104949670D01*
X124543749Y-104949664D01*
X124454359Y-104794835D01*
X124407503Y-104742796D01*
X124334735Y-104661978D01*
X124334732Y-104661976D01*
X124334731Y-104661975D01*
X124334730Y-104661974D01*
X124190093Y-104556888D01*
X124026767Y-104484171D01*
X124026765Y-104484170D01*
X123864452Y-104449670D01*
X123851891Y-104447000D01*
X123673109Y-104447000D01*
X123660548Y-104449670D01*
X123498233Y-104484170D01*
X123498228Y-104484172D01*
X123334908Y-104556887D01*
X123190268Y-104661975D01*
X123070640Y-104794836D01*
X122981250Y-104949664D01*
X122981247Y-104949670D01*
X122926004Y-105119692D01*
X122926003Y-105119694D01*
X122907315Y-105297500D01*
X112203198Y-105297500D01*
X112202536Y-104260000D01*
X138322315Y-104260000D01*
X138341003Y-104437805D01*
X138341004Y-104437807D01*
X138396247Y-104607829D01*
X138396250Y-104607835D01*
X138485641Y-104762665D01*
X138514607Y-104794835D01*
X138605264Y-104895521D01*
X138605267Y-104895523D01*
X138605270Y-104895526D01*
X138749907Y-105000612D01*
X138913233Y-105073329D01*
X139088109Y-105110500D01*
X139088110Y-105110500D01*
X139266889Y-105110500D01*
X139266891Y-105110500D01*
X139441767Y-105073329D01*
X139605093Y-105000612D01*
X139749730Y-104895526D01*
X139837993Y-104797500D01*
X140932315Y-104797500D01*
X140951003Y-104975305D01*
X140951004Y-104975307D01*
X141006247Y-105145329D01*
X141006250Y-105145335D01*
X141095641Y-105300165D01*
X141137312Y-105346446D01*
X141215264Y-105433021D01*
X141215267Y-105433023D01*
X141215270Y-105433026D01*
X141359907Y-105538112D01*
X141523233Y-105610829D01*
X141698109Y-105648000D01*
X141698110Y-105648000D01*
X141876889Y-105648000D01*
X141876891Y-105648000D01*
X142051767Y-105610829D01*
X142215093Y-105538112D01*
X142359730Y-105433026D01*
X142479359Y-105300165D01*
X142538633Y-105197500D01*
X145732315Y-105197500D01*
X145751003Y-105375305D01*
X145751004Y-105375307D01*
X145806247Y-105545329D01*
X145806250Y-105545335D01*
X145895641Y-105700165D01*
X145937312Y-105746446D01*
X146015264Y-105833021D01*
X146015267Y-105833023D01*
X146015270Y-105833026D01*
X146159907Y-105938112D01*
X146323233Y-106010829D01*
X146498109Y-106048000D01*
X146498110Y-106048000D01*
X146676889Y-106048000D01*
X146676891Y-106048000D01*
X146851767Y-106010829D01*
X147015093Y-105938112D01*
X147159730Y-105833026D01*
X147279359Y-105700165D01*
X147368750Y-105545335D01*
X147423997Y-105375303D01*
X147442685Y-105197500D01*
X147423997Y-105019697D01*
X147368750Y-104849665D01*
X147279359Y-104694835D01*
X147232503Y-104642796D01*
X147159735Y-104561978D01*
X147159732Y-104561976D01*
X147159731Y-104561975D01*
X147159730Y-104561974D01*
X147015093Y-104456888D01*
X146851767Y-104384171D01*
X146851765Y-104384170D01*
X146724094Y-104357033D01*
X146676891Y-104347000D01*
X146498109Y-104347000D01*
X146467454Y-104353515D01*
X146323233Y-104384170D01*
X146323228Y-104384172D01*
X146159908Y-104456887D01*
X146015268Y-104561975D01*
X145895640Y-104694836D01*
X145806250Y-104849664D01*
X145806247Y-104849670D01*
X145751004Y-105019692D01*
X145751003Y-105019694D01*
X145732315Y-105197500D01*
X142538633Y-105197500D01*
X142568750Y-105145335D01*
X142623997Y-104975303D01*
X142642685Y-104797500D01*
X142623997Y-104619697D01*
X142579962Y-104484171D01*
X142568752Y-104449670D01*
X142568749Y-104449664D01*
X142567211Y-104447000D01*
X142479359Y-104294835D01*
X142432503Y-104242796D01*
X142359735Y-104161978D01*
X142359732Y-104161976D01*
X142359731Y-104161975D01*
X142359730Y-104161974D01*
X142215093Y-104056888D01*
X142051767Y-103984171D01*
X142051765Y-103984170D01*
X141924094Y-103957033D01*
X141876891Y-103947000D01*
X141698109Y-103947000D01*
X141667454Y-103953515D01*
X141523233Y-103984170D01*
X141523228Y-103984172D01*
X141359908Y-104056887D01*
X141215268Y-104161975D01*
X141095640Y-104294836D01*
X141006250Y-104449664D01*
X141006247Y-104449670D01*
X140951004Y-104619692D01*
X140951003Y-104619694D01*
X140932315Y-104797500D01*
X139837993Y-104797500D01*
X139869359Y-104762665D01*
X139958750Y-104607835D01*
X140013997Y-104437803D01*
X140032685Y-104260000D01*
X140013997Y-104082197D01*
X139958750Y-103912165D01*
X139869359Y-103757335D01*
X139822503Y-103705296D01*
X139749735Y-103624478D01*
X139749732Y-103624476D01*
X139749731Y-103624475D01*
X139749730Y-103624474D01*
X139605093Y-103519388D01*
X139441767Y-103446671D01*
X139441765Y-103446670D01*
X139314094Y-103419533D01*
X139266891Y-103409500D01*
X139088109Y-103409500D01*
X139057454Y-103416015D01*
X138913233Y-103446670D01*
X138913228Y-103446672D01*
X138749908Y-103519387D01*
X138605268Y-103624475D01*
X138485640Y-103757336D01*
X138396250Y-103912164D01*
X138396247Y-103912170D01*
X138341004Y-104082192D01*
X138341003Y-104082194D01*
X138322315Y-104260000D01*
X112202536Y-104260000D01*
X112201647Y-102867500D01*
X149107315Y-102867500D01*
X149126003Y-103045305D01*
X149126004Y-103045307D01*
X149181247Y-103215329D01*
X149181250Y-103215335D01*
X149270641Y-103370165D01*
X149306059Y-103409500D01*
X149390264Y-103503021D01*
X149390267Y-103503023D01*
X149390270Y-103503026D01*
X149534907Y-103608112D01*
X149698233Y-103680829D01*
X149873109Y-103718000D01*
X149873110Y-103718000D01*
X150051889Y-103718000D01*
X150051891Y-103718000D01*
X150226767Y-103680829D01*
X150390093Y-103608112D01*
X150534730Y-103503026D01*
X150654359Y-103370165D01*
X150743750Y-103215335D01*
X150798997Y-103045303D01*
X150817685Y-102867500D01*
X150798997Y-102689697D01*
X150743750Y-102519665D01*
X150702086Y-102447500D01*
X173947315Y-102447500D01*
X173966003Y-102625305D01*
X173966004Y-102625307D01*
X174021247Y-102795329D01*
X174021250Y-102795335D01*
X174110641Y-102950165D01*
X174152312Y-102996446D01*
X174230264Y-103083021D01*
X174230267Y-103083023D01*
X174230270Y-103083026D01*
X174374907Y-103188112D01*
X174538233Y-103260829D01*
X174713109Y-103298000D01*
X174713110Y-103298000D01*
X174891889Y-103298000D01*
X174891891Y-103298000D01*
X175066767Y-103260829D01*
X175230093Y-103188112D01*
X175374730Y-103083026D01*
X175494359Y-102950165D01*
X175583750Y-102795335D01*
X175638997Y-102625303D01*
X175657685Y-102447500D01*
X175638997Y-102269697D01*
X175592596Y-102126889D01*
X175583752Y-102099670D01*
X175583749Y-102099664D01*
X175559772Y-102058134D01*
X175494359Y-101944835D01*
X175447503Y-101892796D01*
X175374735Y-101811978D01*
X175374732Y-101811976D01*
X175374731Y-101811975D01*
X175374730Y-101811974D01*
X175230093Y-101706888D01*
X175066767Y-101634171D01*
X175066765Y-101634170D01*
X174904452Y-101599670D01*
X174891891Y-101597000D01*
X174713109Y-101597000D01*
X174700548Y-101599670D01*
X174538233Y-101634170D01*
X174538228Y-101634172D01*
X174374908Y-101706887D01*
X174230268Y-101811975D01*
X174110640Y-101944836D01*
X174021250Y-102099664D01*
X174021247Y-102099670D01*
X173966004Y-102269692D01*
X173966003Y-102269694D01*
X173947315Y-102447500D01*
X150702086Y-102447500D01*
X150654359Y-102364835D01*
X150591781Y-102295335D01*
X150534735Y-102231978D01*
X150534732Y-102231976D01*
X150534731Y-102231975D01*
X150534730Y-102231974D01*
X150390093Y-102126888D01*
X150226767Y-102054171D01*
X150226765Y-102054170D01*
X150099094Y-102027033D01*
X150051891Y-102017000D01*
X149873109Y-102017000D01*
X149842454Y-102023515D01*
X149698233Y-102054170D01*
X149698228Y-102054172D01*
X149534908Y-102126887D01*
X149390268Y-102231975D01*
X149270640Y-102364836D01*
X149181250Y-102519664D01*
X149181247Y-102519670D01*
X149126004Y-102689692D01*
X149126003Y-102689694D01*
X149107315Y-102867500D01*
X112201647Y-102867500D01*
X112198659Y-98187499D01*
X123806841Y-98187499D01*
X123806841Y-98187500D01*
X123827436Y-98422903D01*
X123827438Y-98422913D01*
X123888594Y-98651155D01*
X123888596Y-98651159D01*
X123888597Y-98651163D01*
X123980292Y-98847803D01*
X123988465Y-98865330D01*
X123988467Y-98865334D01*
X124124001Y-99058895D01*
X124124006Y-99058902D01*
X124291097Y-99225993D01*
X124291103Y-99225998D01*
X124345330Y-99263968D01*
X124468910Y-99350500D01*
X124477094Y-99356230D01*
X124520719Y-99410807D01*
X124527913Y-99480305D01*
X124496390Y-99542660D01*
X124477095Y-99559380D01*
X124291422Y-99689390D01*
X124291420Y-99689391D01*
X124124391Y-99856420D01*
X124124386Y-99856426D01*
X123988900Y-100049920D01*
X123988899Y-100049922D01*
X123889070Y-100264007D01*
X123889067Y-100264013D01*
X123831864Y-100477499D01*
X123831864Y-100477500D01*
X124729488Y-100477500D01*
X124696575Y-100534507D01*
X124662500Y-100661674D01*
X124662500Y-100793326D01*
X124696575Y-100920493D01*
X124729488Y-100977500D01*
X123831864Y-100977500D01*
X123889067Y-101190986D01*
X123889070Y-101190992D01*
X123988899Y-101405078D01*
X124124394Y-101598582D01*
X124291417Y-101765605D01*
X124484921Y-101901100D01*
X124699007Y-102000929D01*
X124699016Y-102000933D01*
X124912500Y-102058134D01*
X124912500Y-101160512D01*
X124969507Y-101193425D01*
X125096674Y-101227500D01*
X125228326Y-101227500D01*
X125355493Y-101193425D01*
X125412500Y-101160512D01*
X125412500Y-102058133D01*
X125625983Y-102000933D01*
X125625992Y-102000929D01*
X125740572Y-101947500D01*
X143344515Y-101947500D01*
X143363203Y-102125305D01*
X143363204Y-102125307D01*
X143418447Y-102295329D01*
X143418450Y-102295335D01*
X143507841Y-102450165D01*
X143549512Y-102496446D01*
X143627464Y-102583021D01*
X143627467Y-102583023D01*
X143627470Y-102583026D01*
X143772107Y-102688112D01*
X143935433Y-102760829D01*
X144110309Y-102798000D01*
X144110310Y-102798000D01*
X144289089Y-102798000D01*
X144289091Y-102798000D01*
X144463967Y-102760829D01*
X144627293Y-102688112D01*
X144771930Y-102583026D01*
X144891559Y-102450165D01*
X144980950Y-102295335D01*
X145036197Y-102125303D01*
X145054885Y-101947500D01*
X145036197Y-101769697D01*
X144992162Y-101634171D01*
X144980952Y-101599670D01*
X144980949Y-101599664D01*
X144891559Y-101444835D01*
X144826575Y-101372663D01*
X144771935Y-101311978D01*
X144771932Y-101311976D01*
X144771931Y-101311975D01*
X144771930Y-101311974D01*
X144627293Y-101206888D01*
X144463967Y-101134171D01*
X144463965Y-101134170D01*
X144305557Y-101100500D01*
X144289091Y-101097000D01*
X144110309Y-101097000D01*
X144093843Y-101100500D01*
X143935433Y-101134170D01*
X143935428Y-101134172D01*
X143772108Y-101206887D01*
X143627468Y-101311975D01*
X143507840Y-101444836D01*
X143418450Y-101599664D01*
X143418447Y-101599670D01*
X143363204Y-101769692D01*
X143363203Y-101769694D01*
X143344515Y-101947500D01*
X125740572Y-101947500D01*
X125840078Y-101901100D01*
X126033582Y-101765605D01*
X126200605Y-101598582D01*
X126336100Y-101405078D01*
X126435929Y-101190992D01*
X126435932Y-101190986D01*
X126493136Y-100977500D01*
X125595512Y-100977500D01*
X125628425Y-100920493D01*
X125641955Y-100870000D01*
X138322315Y-100870000D01*
X138341003Y-101047805D01*
X138341004Y-101047807D01*
X138396247Y-101217829D01*
X138396250Y-101217835D01*
X138485641Y-101372665D01*
X138514826Y-101405078D01*
X138605264Y-101505521D01*
X138605267Y-101505523D01*
X138605270Y-101505526D01*
X138749907Y-101610612D01*
X138913233Y-101683329D01*
X139088109Y-101720500D01*
X139088110Y-101720500D01*
X139266889Y-101720500D01*
X139266891Y-101720500D01*
X139441767Y-101683329D01*
X139605093Y-101610612D01*
X139749730Y-101505526D01*
X139869359Y-101372665D01*
X139958750Y-101217835D01*
X140013997Y-101047803D01*
X140030684Y-100889037D01*
X140057269Y-100824423D01*
X140114567Y-100784439D01*
X140154005Y-100778000D01*
X140159389Y-100778000D01*
X140159391Y-100778000D01*
X140334267Y-100740829D01*
X140497593Y-100668112D01*
X140642230Y-100563026D01*
X140761859Y-100430165D01*
X140851250Y-100275335D01*
X140906497Y-100105303D01*
X140925185Y-99927500D01*
X144844815Y-99927500D01*
X144863503Y-100105305D01*
X144863504Y-100105307D01*
X144918747Y-100275329D01*
X144918750Y-100275335D01*
X145008141Y-100430165D01*
X145049812Y-100476446D01*
X145127764Y-100563021D01*
X145127767Y-100563023D01*
X145127770Y-100563026D01*
X145272407Y-100668112D01*
X145435733Y-100740829D01*
X145610609Y-100778000D01*
X145610610Y-100778000D01*
X145789389Y-100778000D01*
X145789391Y-100778000D01*
X145964267Y-100740829D01*
X146127593Y-100668112D01*
X146272230Y-100563026D01*
X146391859Y-100430165D01*
X146481250Y-100275335D01*
X146489482Y-100250000D01*
X159694815Y-100250000D01*
X159713503Y-100427805D01*
X159713504Y-100427807D01*
X159768747Y-100597829D01*
X159768750Y-100597835D01*
X159858141Y-100752665D01*
X159899812Y-100798946D01*
X159977764Y-100885521D01*
X159977767Y-100885523D01*
X159977770Y-100885526D01*
X160122407Y-100990612D01*
X160285733Y-101063329D01*
X160460609Y-101100500D01*
X160460610Y-101100500D01*
X160639389Y-101100500D01*
X160639391Y-101100500D01*
X160814267Y-101063329D01*
X160977593Y-100990612D01*
X161122230Y-100885526D01*
X161241859Y-100752665D01*
X161331250Y-100597835D01*
X161386497Y-100427803D01*
X161405185Y-100250000D01*
X161386497Y-100072197D01*
X161358873Y-99987181D01*
X161331252Y-99902170D01*
X161331249Y-99902164D01*
X161241859Y-99747335D01*
X161189685Y-99689390D01*
X161122235Y-99614478D01*
X161122232Y-99614476D01*
X161122231Y-99614475D01*
X161122230Y-99614474D01*
X160977593Y-99509388D01*
X160814267Y-99436671D01*
X160814265Y-99436670D01*
X160686594Y-99409533D01*
X160639391Y-99399500D01*
X160460609Y-99399500D01*
X160429954Y-99406015D01*
X160285733Y-99436670D01*
X160285728Y-99436672D01*
X160122408Y-99509387D01*
X159977768Y-99614475D01*
X159858140Y-99747336D01*
X159768750Y-99902164D01*
X159768747Y-99902170D01*
X159713504Y-100072192D01*
X159713503Y-100072194D01*
X159694815Y-100250000D01*
X146489482Y-100250000D01*
X146536497Y-100105303D01*
X146555185Y-99927500D01*
X146536497Y-99749697D01*
X146508873Y-99664681D01*
X146481252Y-99579670D01*
X146481249Y-99579664D01*
X146469538Y-99559380D01*
X146391859Y-99424835D01*
X146334863Y-99361535D01*
X146272235Y-99291978D01*
X146272232Y-99291976D01*
X146272231Y-99291975D01*
X146272230Y-99291974D01*
X146127593Y-99186888D01*
X145964267Y-99114171D01*
X145964265Y-99114170D01*
X145836594Y-99087033D01*
X145789391Y-99077000D01*
X145610609Y-99077000D01*
X145579954Y-99083515D01*
X145435733Y-99114170D01*
X145435728Y-99114172D01*
X145272408Y-99186887D01*
X145127768Y-99291975D01*
X145008140Y-99424836D01*
X144918750Y-99579664D01*
X144918747Y-99579670D01*
X144863504Y-99749692D01*
X144863503Y-99749694D01*
X144844815Y-99927500D01*
X140925185Y-99927500D01*
X140906497Y-99749697D01*
X140878873Y-99664681D01*
X140851252Y-99579670D01*
X140851249Y-99579664D01*
X140839538Y-99559380D01*
X140761859Y-99424835D01*
X140704863Y-99361535D01*
X140642235Y-99291978D01*
X140642232Y-99291976D01*
X140642231Y-99291975D01*
X140642230Y-99291974D01*
X140497593Y-99186888D01*
X140334267Y-99114171D01*
X140334265Y-99114170D01*
X140206594Y-99087033D01*
X140159391Y-99077000D01*
X139980609Y-99077000D01*
X139949954Y-99083515D01*
X139805733Y-99114170D01*
X139805728Y-99114172D01*
X139642408Y-99186888D01*
X139642403Y-99186890D01*
X139565182Y-99242995D01*
X139499376Y-99266475D01*
X139466521Y-99263968D01*
X139463142Y-99263250D01*
X139463141Y-99263250D01*
X139284359Y-99263250D01*
X139269187Y-99266475D01*
X139109483Y-99300420D01*
X139109478Y-99300422D01*
X138946158Y-99373137D01*
X138801518Y-99478225D01*
X138681890Y-99611086D01*
X138592500Y-99765914D01*
X138592497Y-99765920D01*
X138537254Y-99935942D01*
X138537253Y-99935944D01*
X138518565Y-100113750D01*
X138533219Y-100253178D01*
X138520649Y-100321908D01*
X138502052Y-100349107D01*
X138485642Y-100367333D01*
X138485638Y-100367338D01*
X138396250Y-100522164D01*
X138396247Y-100522170D01*
X138341004Y-100692192D01*
X138341003Y-100692194D01*
X138322315Y-100870000D01*
X125641955Y-100870000D01*
X125662500Y-100793326D01*
X125662500Y-100661674D01*
X125628425Y-100534507D01*
X125595512Y-100477500D01*
X126493136Y-100477500D01*
X126493135Y-100477499D01*
X126435932Y-100264013D01*
X126435929Y-100264007D01*
X126336100Y-100049922D01*
X126336099Y-100049920D01*
X126200613Y-99856426D01*
X126200608Y-99856420D01*
X126033578Y-99689390D01*
X125847905Y-99559379D01*
X125804280Y-99504802D01*
X125797088Y-99435304D01*
X125828610Y-99372949D01*
X125847906Y-99356230D01*
X126033901Y-99225995D01*
X126200995Y-99058901D01*
X126336535Y-98865330D01*
X126427619Y-98670000D01*
X133604815Y-98670000D01*
X133623503Y-98847805D01*
X133623504Y-98847807D01*
X133678747Y-99017829D01*
X133678750Y-99017835D01*
X133768141Y-99172665D01*
X133809812Y-99218946D01*
X133887764Y-99305521D01*
X133887767Y-99305523D01*
X133887770Y-99305526D01*
X134032407Y-99410612D01*
X134195733Y-99483329D01*
X134370609Y-99520500D01*
X134370610Y-99520500D01*
X134549389Y-99520500D01*
X134549391Y-99520500D01*
X134724267Y-99483329D01*
X134887593Y-99410612D01*
X135032230Y-99305526D01*
X135036828Y-99300420D01*
X135069649Y-99263968D01*
X135151859Y-99172665D01*
X135241250Y-99017835D01*
X135242931Y-99012663D01*
X135246180Y-99002663D01*
X135296497Y-98847803D01*
X135315185Y-98670000D01*
X135296497Y-98492197D01*
X135244508Y-98332192D01*
X135241252Y-98322170D01*
X135241249Y-98322164D01*
X135151859Y-98167335D01*
X135105003Y-98115296D01*
X135032235Y-98034478D01*
X135032232Y-98034476D01*
X135032231Y-98034475D01*
X135032230Y-98034474D01*
X134887593Y-97929388D01*
X134759820Y-97872500D01*
X135397315Y-97872500D01*
X135416003Y-98050305D01*
X135416004Y-98050307D01*
X135471247Y-98220329D01*
X135471250Y-98220335D01*
X135560641Y-98375165D01*
X135602312Y-98421446D01*
X135680264Y-98508021D01*
X135680267Y-98508023D01*
X135680270Y-98508026D01*
X135824907Y-98613112D01*
X135988233Y-98685829D01*
X136163109Y-98723000D01*
X136163110Y-98723000D01*
X136341889Y-98723000D01*
X136341891Y-98723000D01*
X136516767Y-98685829D01*
X136680093Y-98613112D01*
X136822013Y-98510000D01*
X141777551Y-98510000D01*
X141796239Y-98687805D01*
X141796240Y-98687807D01*
X141851483Y-98857829D01*
X141851486Y-98857835D01*
X141940877Y-99012665D01*
X141982503Y-99058895D01*
X142060500Y-99145521D01*
X142060503Y-99145523D01*
X142060506Y-99145526D01*
X142205143Y-99250612D01*
X142368469Y-99323329D01*
X142543345Y-99360500D01*
X142543346Y-99360500D01*
X142722125Y-99360500D01*
X142722127Y-99360500D01*
X142897003Y-99323329D01*
X143060329Y-99250612D01*
X143204966Y-99145526D01*
X143324595Y-99012665D01*
X143413986Y-98857835D01*
X143469233Y-98687803D01*
X143487921Y-98510000D01*
X143486870Y-98500000D01*
X169624815Y-98500000D01*
X169643503Y-98677805D01*
X169643504Y-98677807D01*
X169698747Y-98847829D01*
X169698750Y-98847835D01*
X169788141Y-99002665D01*
X169829812Y-99048946D01*
X169907764Y-99135521D01*
X169907767Y-99135523D01*
X169907770Y-99135526D01*
X170052407Y-99240612D01*
X170215733Y-99313329D01*
X170390609Y-99350500D01*
X170390610Y-99350500D01*
X170569389Y-99350500D01*
X170569391Y-99350500D01*
X170744267Y-99313329D01*
X170907593Y-99240612D01*
X171052230Y-99135526D01*
X171171859Y-99002665D01*
X171261250Y-98847835D01*
X171316497Y-98677803D01*
X171335185Y-98500000D01*
X171316497Y-98322197D01*
X171272731Y-98187499D01*
X171261252Y-98152170D01*
X171261249Y-98152164D01*
X171212562Y-98067835D01*
X171171859Y-97997335D01*
X171125003Y-97945296D01*
X171052235Y-97864478D01*
X171052232Y-97864476D01*
X171052231Y-97864475D01*
X171052230Y-97864474D01*
X170907593Y-97759388D01*
X170744267Y-97686671D01*
X170744265Y-97686670D01*
X170616437Y-97659500D01*
X170569391Y-97649500D01*
X170390609Y-97649500D01*
X170359954Y-97656015D01*
X170215733Y-97686670D01*
X170215728Y-97686672D01*
X170052408Y-97759387D01*
X169907768Y-97864475D01*
X169788140Y-97997336D01*
X169698750Y-98152164D01*
X169698747Y-98152170D01*
X169643504Y-98322192D01*
X169643503Y-98322194D01*
X169624815Y-98500000D01*
X143486870Y-98500000D01*
X143469233Y-98332197D01*
X143422218Y-98187499D01*
X143413988Y-98162170D01*
X143413985Y-98162164D01*
X143408215Y-98152170D01*
X143324595Y-98007335D01*
X143274848Y-97952086D01*
X143204971Y-97874478D01*
X143204968Y-97874476D01*
X143204967Y-97874475D01*
X143204966Y-97874474D01*
X143060329Y-97769388D01*
X142897003Y-97696671D01*
X142897001Y-97696670D01*
X142769330Y-97669533D01*
X142722127Y-97659500D01*
X142543345Y-97659500D01*
X142512690Y-97666015D01*
X142368469Y-97696670D01*
X142368464Y-97696672D01*
X142205144Y-97769387D01*
X142060504Y-97874475D01*
X141940876Y-98007336D01*
X141851486Y-98162164D01*
X141851483Y-98162170D01*
X141796240Y-98332192D01*
X141796239Y-98332194D01*
X141777551Y-98510000D01*
X136822013Y-98510000D01*
X136824730Y-98508026D01*
X136944359Y-98375165D01*
X137033750Y-98220335D01*
X137088997Y-98050303D01*
X137107685Y-97872500D01*
X137088997Y-97694697D01*
X137061373Y-97609681D01*
X137033752Y-97524670D01*
X137033749Y-97524664D01*
X136977845Y-97427835D01*
X136944359Y-97369835D01*
X136861911Y-97278267D01*
X136824735Y-97236978D01*
X136824732Y-97236976D01*
X136824731Y-97236975D01*
X136824730Y-97236974D01*
X136680093Y-97131888D01*
X136563550Y-97080000D01*
X140254815Y-97080000D01*
X140273503Y-97257805D01*
X140273504Y-97257807D01*
X140328747Y-97427829D01*
X140328750Y-97427835D01*
X140418141Y-97582665D01*
X140459812Y-97628946D01*
X140537764Y-97715521D01*
X140537767Y-97715523D01*
X140537770Y-97715526D01*
X140682407Y-97820612D01*
X140845733Y-97893329D01*
X141020609Y-97930500D01*
X141020610Y-97930500D01*
X141199389Y-97930500D01*
X141199391Y-97930500D01*
X141374267Y-97893329D01*
X141537593Y-97820612D01*
X141682230Y-97715526D01*
X141801859Y-97582665D01*
X141891250Y-97427835D01*
X141946497Y-97257803D01*
X141965185Y-97080000D01*
X141946497Y-96902197D01*
X141891250Y-96732165D01*
X141801859Y-96577335D01*
X141748957Y-96518582D01*
X141682235Y-96444478D01*
X141682232Y-96444476D01*
X141682231Y-96444475D01*
X141682230Y-96444474D01*
X141659235Y-96427767D01*
X142114814Y-96427767D01*
X142133502Y-96605572D01*
X142133503Y-96605574D01*
X142188746Y-96775596D01*
X142188749Y-96775602D01*
X142278140Y-96930432D01*
X142308538Y-96964192D01*
X142397763Y-97063288D01*
X142397766Y-97063290D01*
X142397769Y-97063293D01*
X142542406Y-97168379D01*
X142705732Y-97241096D01*
X142880608Y-97278267D01*
X142880609Y-97278267D01*
X143059388Y-97278267D01*
X143059390Y-97278267D01*
X143234266Y-97241096D01*
X143397592Y-97168379D01*
X143542229Y-97063293D01*
X143545941Y-97059171D01*
X143568147Y-97034508D01*
X143661858Y-96930432D01*
X143751249Y-96775602D01*
X143806496Y-96605570D01*
X143825184Y-96427767D01*
X143806496Y-96249964D01*
X143773203Y-96147500D01*
X143751251Y-96079937D01*
X143751248Y-96079931D01*
X143661858Y-95925102D01*
X143615002Y-95873063D01*
X143542234Y-95792245D01*
X143542231Y-95792243D01*
X143542230Y-95792242D01*
X143542229Y-95792241D01*
X143397592Y-95687155D01*
X143234266Y-95614438D01*
X143234264Y-95614437D01*
X143080123Y-95581674D01*
X143059390Y-95577267D01*
X142880608Y-95577267D01*
X142859875Y-95581674D01*
X142705732Y-95614437D01*
X142705727Y-95614439D01*
X142542407Y-95687154D01*
X142397767Y-95792242D01*
X142278139Y-95925103D01*
X142188749Y-96079931D01*
X142188746Y-96079937D01*
X142133503Y-96249959D01*
X142133502Y-96249961D01*
X142114814Y-96427767D01*
X141659235Y-96427767D01*
X141537593Y-96339388D01*
X141374267Y-96266671D01*
X141374265Y-96266670D01*
X141246594Y-96239533D01*
X141199391Y-96229500D01*
X141020609Y-96229500D01*
X140989954Y-96236015D01*
X140845733Y-96266670D01*
X140845728Y-96266672D01*
X140682408Y-96339387D01*
X140537768Y-96444475D01*
X140418140Y-96577336D01*
X140328750Y-96732164D01*
X140328747Y-96732170D01*
X140273504Y-96902192D01*
X140273503Y-96902194D01*
X140254815Y-97080000D01*
X136563550Y-97080000D01*
X136516767Y-97059171D01*
X136516765Y-97059170D01*
X136389094Y-97032033D01*
X136341891Y-97022000D01*
X136163109Y-97022000D01*
X136132454Y-97028515D01*
X135988233Y-97059170D01*
X135988228Y-97059172D01*
X135824908Y-97131887D01*
X135680268Y-97236975D01*
X135560640Y-97369836D01*
X135471250Y-97524664D01*
X135471247Y-97524670D01*
X135416004Y-97694692D01*
X135416003Y-97694694D01*
X135397315Y-97872500D01*
X134759820Y-97872500D01*
X134724267Y-97856671D01*
X134724265Y-97856670D01*
X134596594Y-97829533D01*
X134549391Y-97819500D01*
X134370609Y-97819500D01*
X134339954Y-97826015D01*
X134195733Y-97856670D01*
X134195728Y-97856672D01*
X134032408Y-97929387D01*
X133887768Y-98034475D01*
X133768140Y-98167336D01*
X133678750Y-98322164D01*
X133678747Y-98322170D01*
X133623504Y-98492192D01*
X133623503Y-98492194D01*
X133604815Y-98670000D01*
X126427619Y-98670000D01*
X126436403Y-98651163D01*
X126497563Y-98422908D01*
X126518159Y-98187500D01*
X126497563Y-97952092D01*
X126445929Y-97759388D01*
X126436405Y-97723844D01*
X126436404Y-97723843D01*
X126436403Y-97723837D01*
X126434614Y-97720000D01*
X131734815Y-97720000D01*
X131753503Y-97897805D01*
X131753504Y-97897807D01*
X131808747Y-98067829D01*
X131808750Y-98067835D01*
X131898141Y-98222665D01*
X131939812Y-98268946D01*
X132017764Y-98355521D01*
X132017767Y-98355523D01*
X132017770Y-98355526D01*
X132162407Y-98460612D01*
X132325733Y-98533329D01*
X132500609Y-98570500D01*
X132500610Y-98570500D01*
X132679389Y-98570500D01*
X132679391Y-98570500D01*
X132854267Y-98533329D01*
X133017593Y-98460612D01*
X133162230Y-98355526D01*
X133281859Y-98222665D01*
X133371250Y-98067835D01*
X133426497Y-97897803D01*
X133445185Y-97720000D01*
X133426497Y-97542197D01*
X133389338Y-97427835D01*
X133371252Y-97372170D01*
X133371249Y-97372164D01*
X133369905Y-97369836D01*
X133281859Y-97217335D01*
X133204922Y-97131888D01*
X133162235Y-97084478D01*
X133162232Y-97084476D01*
X133162231Y-97084475D01*
X133162230Y-97084474D01*
X133017593Y-96979388D01*
X132854267Y-96906671D01*
X132854265Y-96906670D01*
X132726594Y-96879533D01*
X132679391Y-96869500D01*
X132500609Y-96869500D01*
X132497335Y-96870196D01*
X132325733Y-96906670D01*
X132325728Y-96906672D01*
X132162408Y-96979387D01*
X132017768Y-97084475D01*
X131898140Y-97217336D01*
X131808750Y-97372164D01*
X131808747Y-97372170D01*
X131753504Y-97542192D01*
X131753503Y-97542194D01*
X131734815Y-97720000D01*
X126434614Y-97720000D01*
X126336535Y-97509671D01*
X126240257Y-97372170D01*
X126200994Y-97316097D01*
X126033902Y-97149006D01*
X126033901Y-97149005D01*
X125847905Y-97018769D01*
X125804281Y-96964192D01*
X125797088Y-96894693D01*
X125828610Y-96832339D01*
X125847905Y-96815619D01*
X126033582Y-96685605D01*
X126200605Y-96518582D01*
X126336100Y-96325078D01*
X126435929Y-96110992D01*
X126435932Y-96110986D01*
X126493136Y-95897500D01*
X125595512Y-95897500D01*
X125628425Y-95840493D01*
X125662500Y-95713326D01*
X125662500Y-95581674D01*
X125628425Y-95454507D01*
X125625823Y-95450000D01*
X130764815Y-95450000D01*
X130783503Y-95627805D01*
X130783504Y-95627807D01*
X130838747Y-95797829D01*
X130838750Y-95797835D01*
X130928141Y-95952665D01*
X130929800Y-95954507D01*
X131047764Y-96085521D01*
X131047767Y-96085523D01*
X131047770Y-96085526D01*
X131192407Y-96190612D01*
X131355733Y-96263329D01*
X131530609Y-96300500D01*
X131530610Y-96300500D01*
X131709389Y-96300500D01*
X131709391Y-96300500D01*
X131884267Y-96263329D01*
X132047593Y-96190612D01*
X132192230Y-96085526D01*
X132197263Y-96079937D01*
X132226380Y-96047599D01*
X132311859Y-95952665D01*
X132319171Y-95940000D01*
X134334815Y-95940000D01*
X134353503Y-96117805D01*
X134353504Y-96117807D01*
X134408747Y-96287829D01*
X134408750Y-96287835D01*
X134498141Y-96442665D01*
X134539812Y-96488946D01*
X134617764Y-96575521D01*
X134617767Y-96575523D01*
X134617770Y-96575526D01*
X134762407Y-96680612D01*
X134925733Y-96753329D01*
X135100609Y-96790500D01*
X135100610Y-96790500D01*
X135279389Y-96790500D01*
X135279391Y-96790500D01*
X135454267Y-96753329D01*
X135617593Y-96680612D01*
X135762230Y-96575526D01*
X135881859Y-96442665D01*
X135971250Y-96287835D01*
X136026497Y-96117803D01*
X136045185Y-95940000D01*
X136026497Y-95762197D01*
X135982830Y-95627803D01*
X135971252Y-95592170D01*
X135971249Y-95592164D01*
X135965193Y-95581674D01*
X135881859Y-95437335D01*
X135835003Y-95385296D01*
X135762235Y-95304478D01*
X135762232Y-95304476D01*
X135762231Y-95304475D01*
X135762230Y-95304474D01*
X135617593Y-95199388D01*
X135454267Y-95126671D01*
X135454265Y-95126670D01*
X135326594Y-95099533D01*
X135279391Y-95089500D01*
X135100609Y-95089500D01*
X135069954Y-95096015D01*
X134925733Y-95126670D01*
X134925728Y-95126672D01*
X134762408Y-95199387D01*
X134617768Y-95304475D01*
X134498140Y-95437336D01*
X134408750Y-95592164D01*
X134408747Y-95592170D01*
X134353504Y-95762192D01*
X134353503Y-95762194D01*
X134334815Y-95940000D01*
X132319171Y-95940000D01*
X132401250Y-95797835D01*
X132456497Y-95627803D01*
X132475185Y-95450000D01*
X132456497Y-95272197D01*
X132427052Y-95181575D01*
X132401252Y-95102170D01*
X132401249Y-95102164D01*
X132311859Y-94947335D01*
X132244624Y-94872663D01*
X132192235Y-94814478D01*
X132192232Y-94814476D01*
X132192231Y-94814475D01*
X132192230Y-94814474D01*
X132047593Y-94709388D01*
X131884267Y-94636671D01*
X131884265Y-94636670D01*
X131756594Y-94609533D01*
X131709391Y-94599500D01*
X131530609Y-94599500D01*
X131499954Y-94606015D01*
X131355733Y-94636670D01*
X131355728Y-94636672D01*
X131192408Y-94709387D01*
X131047768Y-94814475D01*
X130928140Y-94947336D01*
X130838750Y-95102164D01*
X130838747Y-95102170D01*
X130783504Y-95272192D01*
X130783503Y-95272194D01*
X130764815Y-95450000D01*
X125625823Y-95450000D01*
X125595512Y-95397500D01*
X126493136Y-95397500D01*
X126493135Y-95397499D01*
X126435932Y-95184013D01*
X126435929Y-95184007D01*
X126336100Y-94969922D01*
X126336099Y-94969920D01*
X126200613Y-94776426D01*
X126200608Y-94776420D01*
X126078553Y-94654365D01*
X126045068Y-94593042D01*
X126050052Y-94523350D01*
X126091924Y-94467417D01*
X126122900Y-94450502D01*
X126254831Y-94401296D01*
X126363428Y-94320000D01*
X133064815Y-94320000D01*
X133083503Y-94497805D01*
X133083504Y-94497807D01*
X133138747Y-94667829D01*
X133138750Y-94667835D01*
X133228141Y-94822665D01*
X133255153Y-94852665D01*
X133347764Y-94955521D01*
X133347767Y-94955523D01*
X133347770Y-94955526D01*
X133492407Y-95060612D01*
X133655733Y-95133329D01*
X133830609Y-95170500D01*
X133830610Y-95170500D01*
X134009389Y-95170500D01*
X134009391Y-95170500D01*
X134184267Y-95133329D01*
X134347593Y-95060612D01*
X134492230Y-94955526D01*
X134499605Y-94947336D01*
X134518148Y-94926741D01*
X134611859Y-94822665D01*
X134701250Y-94667835D01*
X134756497Y-94497803D01*
X134769930Y-94370000D01*
X142114815Y-94370000D01*
X142133503Y-94547805D01*
X142133504Y-94547807D01*
X142188747Y-94717829D01*
X142188750Y-94717835D01*
X142278141Y-94872665D01*
X142319812Y-94918946D01*
X142397764Y-95005521D01*
X142397767Y-95005523D01*
X142397770Y-95005526D01*
X142542407Y-95110612D01*
X142705733Y-95183329D01*
X142880609Y-95220500D01*
X142880610Y-95220500D01*
X143059389Y-95220500D01*
X143059391Y-95220500D01*
X143234267Y-95183329D01*
X143397593Y-95110612D01*
X143542230Y-95005526D01*
X143661859Y-94872665D01*
X143751250Y-94717835D01*
X143806497Y-94547803D01*
X143825185Y-94370000D01*
X143823083Y-94350000D01*
X159669815Y-94350000D01*
X159688503Y-94527805D01*
X159688504Y-94527807D01*
X159743747Y-94697829D01*
X159743750Y-94697835D01*
X159833141Y-94852665D01*
X159874812Y-94898946D01*
X159952764Y-94985521D01*
X159952767Y-94985523D01*
X159952770Y-94985526D01*
X160097407Y-95090612D01*
X160260733Y-95163329D01*
X160435609Y-95200500D01*
X160435610Y-95200500D01*
X160614389Y-95200500D01*
X160614391Y-95200500D01*
X160789267Y-95163329D01*
X160952593Y-95090612D01*
X161097230Y-94985526D01*
X161216859Y-94852665D01*
X161306250Y-94697835D01*
X161361497Y-94527803D01*
X161380185Y-94350000D01*
X161376244Y-94312500D01*
X163354815Y-94312500D01*
X163373503Y-94490305D01*
X163373504Y-94490307D01*
X163428747Y-94660329D01*
X163428750Y-94660335D01*
X163518141Y-94815165D01*
X163551906Y-94852665D01*
X163637764Y-94948021D01*
X163637767Y-94948023D01*
X163637770Y-94948026D01*
X163782407Y-95053112D01*
X163945733Y-95125829D01*
X164120609Y-95163000D01*
X164120610Y-95163000D01*
X164299389Y-95163000D01*
X164299391Y-95163000D01*
X164474267Y-95125829D01*
X164637593Y-95053112D01*
X164782230Y-94948026D01*
X164782852Y-94947336D01*
X164808148Y-94919241D01*
X164901859Y-94815165D01*
X164991250Y-94660335D01*
X165046497Y-94490303D01*
X165065185Y-94312500D01*
X165046497Y-94134697D01*
X164991250Y-93964665D01*
X164901859Y-93809835D01*
X164834007Y-93734478D01*
X164782235Y-93676978D01*
X164782232Y-93676976D01*
X164782231Y-93676975D01*
X164782230Y-93676974D01*
X164637593Y-93571888D01*
X164474267Y-93499171D01*
X164474265Y-93499170D01*
X164334676Y-93469500D01*
X164299391Y-93462000D01*
X164120609Y-93462000D01*
X164089954Y-93468515D01*
X163945733Y-93499170D01*
X163945728Y-93499172D01*
X163782408Y-93571887D01*
X163637768Y-93676975D01*
X163518140Y-93809836D01*
X163428750Y-93964664D01*
X163428747Y-93964670D01*
X163373504Y-94134692D01*
X163373503Y-94134694D01*
X163354815Y-94312500D01*
X161376244Y-94312500D01*
X161361497Y-94172197D01*
X161312750Y-94022170D01*
X161306252Y-94002170D01*
X161306249Y-94002164D01*
X161288932Y-93972170D01*
X161216859Y-93847335D01*
X161170003Y-93795296D01*
X161097235Y-93714478D01*
X161097232Y-93714476D01*
X161097231Y-93714475D01*
X161097230Y-93714474D01*
X160952593Y-93609388D01*
X160789267Y-93536671D01*
X160789265Y-93536670D01*
X160661594Y-93509533D01*
X160614391Y-93499500D01*
X160435609Y-93499500D01*
X160404954Y-93506015D01*
X160260733Y-93536670D01*
X160260728Y-93536672D01*
X160097408Y-93609387D01*
X159952768Y-93714475D01*
X159833140Y-93847336D01*
X159743750Y-94002164D01*
X159743747Y-94002170D01*
X159688504Y-94172192D01*
X159688503Y-94172194D01*
X159669815Y-94350000D01*
X143823083Y-94350000D01*
X143806497Y-94192197D01*
X143778873Y-94107181D01*
X143751252Y-94022170D01*
X143751249Y-94022164D01*
X143661859Y-93867335D01*
X143615003Y-93815296D01*
X143542235Y-93734478D01*
X143542232Y-93734476D01*
X143542231Y-93734475D01*
X143542230Y-93734474D01*
X143397593Y-93629388D01*
X143234267Y-93556671D01*
X143234265Y-93556670D01*
X143106594Y-93529533D01*
X143059391Y-93519500D01*
X142880609Y-93519500D01*
X142849954Y-93526015D01*
X142705733Y-93556670D01*
X142705728Y-93556672D01*
X142542408Y-93629387D01*
X142397768Y-93734475D01*
X142278140Y-93867336D01*
X142188750Y-94022164D01*
X142188747Y-94022170D01*
X142133504Y-94192192D01*
X142133503Y-94192194D01*
X142114815Y-94370000D01*
X134769930Y-94370000D01*
X134775185Y-94320000D01*
X134756497Y-94142197D01*
X134712037Y-94005364D01*
X134701252Y-93972170D01*
X134701249Y-93972164D01*
X134611859Y-93817335D01*
X134537254Y-93734478D01*
X134492235Y-93684478D01*
X134492232Y-93684476D01*
X134492231Y-93684475D01*
X134492230Y-93684474D01*
X134347593Y-93579388D01*
X134184267Y-93506671D01*
X134184265Y-93506670D01*
X134056594Y-93479533D01*
X134009391Y-93469500D01*
X133830609Y-93469500D01*
X133799954Y-93476015D01*
X133655733Y-93506670D01*
X133655728Y-93506672D01*
X133492408Y-93579387D01*
X133347768Y-93684475D01*
X133228140Y-93817336D01*
X133138750Y-93972164D01*
X133138747Y-93972170D01*
X133083504Y-94142192D01*
X133083503Y-94142194D01*
X133064815Y-94320000D01*
X126363428Y-94320000D01*
X126370046Y-94315046D01*
X126456296Y-94199831D01*
X126506591Y-94064983D01*
X126513000Y-94005373D01*
X126512999Y-92209628D01*
X126506591Y-92150017D01*
X126456296Y-92015169D01*
X126456295Y-92015168D01*
X126456293Y-92015164D01*
X126384705Y-91919535D01*
X140599080Y-91919535D01*
X140617768Y-92097340D01*
X140617769Y-92097342D01*
X140673012Y-92267364D01*
X140673015Y-92267370D01*
X140762406Y-92422200D01*
X140804077Y-92468481D01*
X140882029Y-92555056D01*
X140882032Y-92555058D01*
X140882035Y-92555061D01*
X141026672Y-92660147D01*
X141189998Y-92732864D01*
X141364874Y-92770035D01*
X141364875Y-92770035D01*
X141543654Y-92770035D01*
X141543656Y-92770035D01*
X141718532Y-92732864D01*
X141881858Y-92660147D01*
X142026495Y-92555061D01*
X142146124Y-92422200D01*
X142235515Y-92267370D01*
X142290762Y-92097338D01*
X142309450Y-91919535D01*
X142290762Y-91741732D01*
X142235515Y-91571700D01*
X142146124Y-91416870D01*
X142099268Y-91364831D01*
X142026500Y-91284013D01*
X142026497Y-91284011D01*
X142026496Y-91284010D01*
X142026495Y-91284009D01*
X141881858Y-91178923D01*
X141718532Y-91106206D01*
X141718530Y-91106205D01*
X141590859Y-91079068D01*
X141543656Y-91069035D01*
X141364874Y-91069035D01*
X141334219Y-91075550D01*
X141189998Y-91106205D01*
X141189993Y-91106207D01*
X141026673Y-91178922D01*
X140882033Y-91284010D01*
X140762405Y-91416871D01*
X140673015Y-91571699D01*
X140673012Y-91571705D01*
X140617769Y-91741727D01*
X140617768Y-91741729D01*
X140599080Y-91919535D01*
X126384705Y-91919535D01*
X126370047Y-91899955D01*
X126370044Y-91899952D01*
X126254835Y-91813706D01*
X126254828Y-91813702D01*
X126119982Y-91763408D01*
X126119983Y-91763408D01*
X126060383Y-91757001D01*
X126060381Y-91757000D01*
X126060373Y-91757000D01*
X126060364Y-91757000D01*
X124264629Y-91757000D01*
X124264623Y-91757001D01*
X124205016Y-91763408D01*
X124070171Y-91813702D01*
X124070164Y-91813706D01*
X123954955Y-91899952D01*
X123954952Y-91899955D01*
X123868706Y-92015164D01*
X123868702Y-92015171D01*
X123818408Y-92150017D01*
X123812001Y-92209616D01*
X123812001Y-92209623D01*
X123812000Y-92209635D01*
X123812000Y-94005370D01*
X123812001Y-94005376D01*
X123818408Y-94064983D01*
X123868702Y-94199828D01*
X123868706Y-94199835D01*
X123954952Y-94315044D01*
X123954955Y-94315047D01*
X124070164Y-94401293D01*
X124070171Y-94401297D01*
X124070174Y-94401298D01*
X124202098Y-94450502D01*
X124258031Y-94492373D01*
X124282449Y-94557837D01*
X124267598Y-94626110D01*
X124246447Y-94654365D01*
X124124386Y-94776426D01*
X123988900Y-94969920D01*
X123988899Y-94969922D01*
X123889070Y-95184007D01*
X123889067Y-95184013D01*
X123831864Y-95397499D01*
X123831864Y-95397500D01*
X124729488Y-95397500D01*
X124696575Y-95454507D01*
X124662500Y-95581674D01*
X124662500Y-95713326D01*
X124696575Y-95840493D01*
X124729488Y-95897500D01*
X123831864Y-95897500D01*
X123889067Y-96110986D01*
X123889070Y-96110992D01*
X123988899Y-96325078D01*
X124124394Y-96518582D01*
X124291417Y-96685605D01*
X124477095Y-96815619D01*
X124520719Y-96870196D01*
X124527912Y-96939695D01*
X124496390Y-97002049D01*
X124477095Y-97018769D01*
X124291094Y-97149008D01*
X124124005Y-97316097D01*
X123988465Y-97509669D01*
X123988464Y-97509671D01*
X123888598Y-97723835D01*
X123888594Y-97723844D01*
X123827438Y-97952086D01*
X123827436Y-97952096D01*
X123806841Y-98187499D01*
X112198659Y-98187499D01*
X112193043Y-89390000D01*
X137374815Y-89390000D01*
X137393503Y-89567805D01*
X137393504Y-89567807D01*
X137448747Y-89737829D01*
X137448750Y-89737835D01*
X137538141Y-89892665D01*
X137576729Y-89935521D01*
X137657764Y-90025521D01*
X137657767Y-90025523D01*
X137657770Y-90025526D01*
X137802407Y-90130612D01*
X137965733Y-90203329D01*
X138140609Y-90240500D01*
X138140610Y-90240500D01*
X138319389Y-90240500D01*
X138319391Y-90240500D01*
X138494267Y-90203329D01*
X138657593Y-90130612D01*
X138802230Y-90025526D01*
X138802556Y-90025165D01*
X138838573Y-89985163D01*
X138921859Y-89892665D01*
X139011250Y-89737835D01*
X139066497Y-89567803D01*
X139085185Y-89390000D01*
X139084134Y-89380000D01*
X139774815Y-89380000D01*
X139793503Y-89557805D01*
X139793504Y-89557807D01*
X139848747Y-89727829D01*
X139848750Y-89727835D01*
X139938141Y-89882665D01*
X139979812Y-89928946D01*
X140057764Y-90015521D01*
X140057767Y-90015523D01*
X140057770Y-90015526D01*
X140202407Y-90120612D01*
X140365733Y-90193329D01*
X140540609Y-90230500D01*
X140540610Y-90230500D01*
X140719389Y-90230500D01*
X140719391Y-90230500D01*
X140894267Y-90193329D01*
X141057593Y-90120612D01*
X141202230Y-90015526D01*
X141321859Y-89882665D01*
X141411250Y-89727835D01*
X141466497Y-89557803D01*
X141478879Y-89440000D01*
X142204815Y-89440000D01*
X142223503Y-89617805D01*
X142223504Y-89617807D01*
X142278747Y-89787829D01*
X142278750Y-89787835D01*
X142368141Y-89942665D01*
X142406407Y-89985163D01*
X142487764Y-90075521D01*
X142487767Y-90075523D01*
X142487770Y-90075526D01*
X142632407Y-90180612D01*
X142795733Y-90253329D01*
X142970609Y-90290500D01*
X142970610Y-90290500D01*
X143149389Y-90290500D01*
X143149391Y-90290500D01*
X143324267Y-90253329D01*
X143487593Y-90180612D01*
X143632230Y-90075526D01*
X143751859Y-89942665D01*
X143841250Y-89787835D01*
X143896497Y-89617803D01*
X143915185Y-89440000D01*
X143900470Y-89300000D01*
X145134815Y-89300000D01*
X145153503Y-89477805D01*
X145153504Y-89477807D01*
X145208747Y-89647829D01*
X145208750Y-89647835D01*
X145298141Y-89802665D01*
X145332054Y-89840329D01*
X145417764Y-89935521D01*
X145417767Y-89935523D01*
X145417770Y-89935526D01*
X145562407Y-90040612D01*
X145725733Y-90113329D01*
X145900609Y-90150500D01*
X145900610Y-90150500D01*
X146079389Y-90150500D01*
X146079391Y-90150500D01*
X146254267Y-90113329D01*
X146417593Y-90040612D01*
X146562230Y-89935526D01*
X146681859Y-89802665D01*
X146771250Y-89647835D01*
X146826497Y-89477803D01*
X146835726Y-89390000D01*
X148004815Y-89390000D01*
X148023503Y-89567805D01*
X148023504Y-89567807D01*
X148078747Y-89737829D01*
X148078750Y-89737835D01*
X148168141Y-89892665D01*
X148206729Y-89935521D01*
X148287764Y-90025521D01*
X148287767Y-90025523D01*
X148287770Y-90025526D01*
X148432407Y-90130612D01*
X148595733Y-90203329D01*
X148770609Y-90240500D01*
X148770610Y-90240500D01*
X148949389Y-90240500D01*
X148949391Y-90240500D01*
X149124267Y-90203329D01*
X149287593Y-90130612D01*
X149432230Y-90025526D01*
X149432556Y-90025165D01*
X149468573Y-89985163D01*
X149551859Y-89892665D01*
X149641250Y-89737835D01*
X149696497Y-89567803D01*
X149701259Y-89522500D01*
X166122315Y-89522500D01*
X166141003Y-89700305D01*
X166141004Y-89700307D01*
X166196247Y-89870329D01*
X166196250Y-89870335D01*
X166285641Y-90025165D01*
X166299548Y-90040610D01*
X166405264Y-90158021D01*
X166405267Y-90158023D01*
X166405270Y-90158026D01*
X166549907Y-90263112D01*
X166713233Y-90335829D01*
X166713235Y-90335829D01*
X166713236Y-90335830D01*
X166782721Y-90350599D01*
X166881987Y-90371698D01*
X166943468Y-90404890D01*
X166977245Y-90466053D01*
X166972593Y-90535767D01*
X166930989Y-90591900D01*
X166881991Y-90614277D01*
X166870737Y-90616669D01*
X166870728Y-90616672D01*
X166707408Y-90689387D01*
X166562768Y-90794475D01*
X166443140Y-90927336D01*
X166353750Y-91082164D01*
X166353747Y-91082170D01*
X166298504Y-91252192D01*
X166298503Y-91252194D01*
X166279815Y-91430000D01*
X166298503Y-91607805D01*
X166298504Y-91607807D01*
X166353747Y-91777829D01*
X166353750Y-91777835D01*
X166443141Y-91932665D01*
X166484812Y-91978946D01*
X166562764Y-92065521D01*
X166562767Y-92065523D01*
X166562770Y-92065526D01*
X166707407Y-92170612D01*
X166870733Y-92243329D01*
X167045609Y-92280500D01*
X167045610Y-92280500D01*
X167224389Y-92280500D01*
X167224391Y-92280500D01*
X167399267Y-92243329D01*
X167562593Y-92170612D01*
X167707230Y-92065526D01*
X167826859Y-91932665D01*
X167916250Y-91777835D01*
X167971497Y-91607803D01*
X167990185Y-91430000D01*
X167971497Y-91252197D01*
X167924062Y-91106207D01*
X167916252Y-91082170D01*
X167916249Y-91082164D01*
X167908669Y-91069035D01*
X167826859Y-90927335D01*
X167780003Y-90875296D01*
X167707235Y-90794478D01*
X167707232Y-90794476D01*
X167707231Y-90794475D01*
X167707230Y-90794474D01*
X167562593Y-90689388D01*
X167399267Y-90616671D01*
X167399265Y-90616670D01*
X167230512Y-90580801D01*
X167169030Y-90547609D01*
X167135254Y-90486446D01*
X167139906Y-90416731D01*
X167181511Y-90360599D01*
X167230514Y-90338220D01*
X167241767Y-90335829D01*
X167405093Y-90263112D01*
X167549730Y-90158026D01*
X167556507Y-90150500D01*
X167583418Y-90120612D01*
X167669359Y-90025165D01*
X167758750Y-89870335D01*
X167813997Y-89700303D01*
X167832685Y-89522500D01*
X167828481Y-89482500D01*
X170027315Y-89482500D01*
X170046003Y-89660305D01*
X170046004Y-89660307D01*
X170101247Y-89830329D01*
X170101250Y-89830335D01*
X170190641Y-89985165D01*
X170226657Y-90025165D01*
X170310264Y-90118021D01*
X170310267Y-90118023D01*
X170310270Y-90118026D01*
X170454907Y-90223112D01*
X170618233Y-90295829D01*
X170793109Y-90333000D01*
X170793110Y-90333000D01*
X170971889Y-90333000D01*
X170971891Y-90333000D01*
X171146767Y-90295829D01*
X171310093Y-90223112D01*
X171454730Y-90118026D01*
X171458960Y-90113329D01*
X171493002Y-90075521D01*
X171574359Y-89985165D01*
X171663750Y-89830335D01*
X171718997Y-89660303D01*
X171736634Y-89492500D01*
X173787315Y-89492500D01*
X173806003Y-89670305D01*
X173806004Y-89670307D01*
X173861247Y-89840329D01*
X173861250Y-89840335D01*
X173950641Y-89995165D01*
X173991560Y-90040610D01*
X174070264Y-90128021D01*
X174070267Y-90128023D01*
X174070270Y-90128026D01*
X174214907Y-90233112D01*
X174378233Y-90305829D01*
X174553109Y-90343000D01*
X174553110Y-90343000D01*
X174731889Y-90343000D01*
X174731891Y-90343000D01*
X174906767Y-90305829D01*
X175070093Y-90233112D01*
X175214730Y-90128026D01*
X175221408Y-90120610D01*
X175262004Y-90075523D01*
X175334359Y-89995165D01*
X175423750Y-89840335D01*
X175478997Y-89670303D01*
X175497685Y-89492500D01*
X175478997Y-89314697D01*
X175442443Y-89202197D01*
X175423752Y-89144670D01*
X175423749Y-89144664D01*
X175417979Y-89134670D01*
X175334359Y-88989835D01*
X175287088Y-88937335D01*
X175214735Y-88856978D01*
X175214732Y-88856976D01*
X175214731Y-88856975D01*
X175214730Y-88856974D01*
X175070093Y-88751888D01*
X174906767Y-88679171D01*
X174906765Y-88679170D01*
X174779094Y-88652033D01*
X174731891Y-88642000D01*
X174553109Y-88642000D01*
X174522454Y-88648515D01*
X174378233Y-88679170D01*
X174378228Y-88679172D01*
X174214908Y-88751887D01*
X174070268Y-88856975D01*
X173950640Y-88989836D01*
X173861250Y-89144664D01*
X173861247Y-89144670D01*
X173806004Y-89314692D01*
X173806003Y-89314694D01*
X173787315Y-89492500D01*
X171736634Y-89492500D01*
X171737685Y-89482500D01*
X171718997Y-89304697D01*
X171685691Y-89202192D01*
X171663752Y-89134670D01*
X171663749Y-89134664D01*
X171574359Y-88979835D01*
X171527503Y-88927796D01*
X171454735Y-88846978D01*
X171454732Y-88846976D01*
X171454731Y-88846975D01*
X171454730Y-88846974D01*
X171310093Y-88741888D01*
X171146767Y-88669171D01*
X171146765Y-88669170D01*
X171018937Y-88642000D01*
X170971891Y-88632000D01*
X170793109Y-88632000D01*
X170762454Y-88638515D01*
X170618233Y-88669170D01*
X170618228Y-88669172D01*
X170454908Y-88741887D01*
X170310268Y-88846975D01*
X170190640Y-88979836D01*
X170101250Y-89134664D01*
X170101247Y-89134670D01*
X170046004Y-89304692D01*
X170046003Y-89304694D01*
X170027315Y-89482500D01*
X167828481Y-89482500D01*
X167813997Y-89344697D01*
X167770944Y-89212194D01*
X167758752Y-89174670D01*
X167758749Y-89174664D01*
X167741432Y-89144670D01*
X167669359Y-89019835D01*
X167608433Y-88952170D01*
X167549735Y-88886978D01*
X167549732Y-88886976D01*
X167549731Y-88886975D01*
X167549730Y-88886974D01*
X167405093Y-88781888D01*
X167241767Y-88709171D01*
X167241765Y-88709170D01*
X167114094Y-88682033D01*
X167066891Y-88672000D01*
X166888109Y-88672000D01*
X166857454Y-88678515D01*
X166713233Y-88709170D01*
X166713228Y-88709172D01*
X166549908Y-88781887D01*
X166405268Y-88886975D01*
X166285640Y-89019836D01*
X166196250Y-89174664D01*
X166196247Y-89174670D01*
X166141004Y-89344692D01*
X166141003Y-89344694D01*
X166122315Y-89522500D01*
X149701259Y-89522500D01*
X149715185Y-89390000D01*
X149696497Y-89212197D01*
X149641250Y-89042165D01*
X149551859Y-88887335D01*
X149477254Y-88804478D01*
X149432235Y-88754478D01*
X149432232Y-88754476D01*
X149432231Y-88754475D01*
X149432230Y-88754474D01*
X149287593Y-88649388D01*
X149124267Y-88576671D01*
X149124265Y-88576670D01*
X148996594Y-88549533D01*
X148949391Y-88539500D01*
X148770609Y-88539500D01*
X148739954Y-88546015D01*
X148595733Y-88576670D01*
X148595728Y-88576672D01*
X148432408Y-88649387D01*
X148287768Y-88754475D01*
X148168140Y-88887336D01*
X148078750Y-89042164D01*
X148078747Y-89042170D01*
X148023504Y-89212192D01*
X148023503Y-89212194D01*
X148004815Y-89390000D01*
X146835726Y-89390000D01*
X146845185Y-89300000D01*
X146826497Y-89122197D01*
X146771250Y-88952165D01*
X146681859Y-88797335D01*
X146631933Y-88741887D01*
X146562235Y-88664478D01*
X146562232Y-88664476D01*
X146562231Y-88664475D01*
X146562230Y-88664474D01*
X146417593Y-88559388D01*
X146254267Y-88486671D01*
X146254265Y-88486670D01*
X146126594Y-88459533D01*
X146079391Y-88449500D01*
X145900609Y-88449500D01*
X145869954Y-88456015D01*
X145725733Y-88486670D01*
X145725728Y-88486672D01*
X145562408Y-88559387D01*
X145417768Y-88664475D01*
X145298140Y-88797336D01*
X145208750Y-88952164D01*
X145208747Y-88952170D01*
X145153504Y-89122192D01*
X145153503Y-89122194D01*
X145134815Y-89300000D01*
X143900470Y-89300000D01*
X143896497Y-89262197D01*
X143858310Y-89144670D01*
X143841252Y-89092170D01*
X143841249Y-89092164D01*
X143812385Y-89042170D01*
X143751859Y-88937335D01*
X143705003Y-88885296D01*
X143632235Y-88804478D01*
X143632232Y-88804476D01*
X143632231Y-88804475D01*
X143632230Y-88804474D01*
X143487593Y-88699388D01*
X143324267Y-88626671D01*
X143324265Y-88626670D01*
X143196594Y-88599533D01*
X143149391Y-88589500D01*
X142970609Y-88589500D01*
X142939954Y-88596015D01*
X142795733Y-88626670D01*
X142795728Y-88626672D01*
X142632408Y-88699387D01*
X142487768Y-88804475D01*
X142368140Y-88937336D01*
X142278750Y-89092164D01*
X142278747Y-89092170D01*
X142223504Y-89262192D01*
X142223503Y-89262194D01*
X142204815Y-89440000D01*
X141478879Y-89440000D01*
X141485185Y-89380000D01*
X141466497Y-89202197D01*
X141414501Y-89042170D01*
X141411252Y-89032170D01*
X141411249Y-89032164D01*
X141321859Y-88877335D01*
X141256258Y-88804478D01*
X141202235Y-88744478D01*
X141202232Y-88744476D01*
X141202231Y-88744475D01*
X141202230Y-88744474D01*
X141057593Y-88639388D01*
X140894267Y-88566671D01*
X140894265Y-88566670D01*
X140766437Y-88539500D01*
X140719391Y-88529500D01*
X140540609Y-88529500D01*
X140509954Y-88536015D01*
X140365733Y-88566670D01*
X140365728Y-88566672D01*
X140202408Y-88639387D01*
X140057768Y-88744475D01*
X139938140Y-88877336D01*
X139848750Y-89032164D01*
X139848747Y-89032170D01*
X139793504Y-89202192D01*
X139793503Y-89202194D01*
X139774815Y-89380000D01*
X139084134Y-89380000D01*
X139066497Y-89212197D01*
X139011250Y-89042165D01*
X138921859Y-88887335D01*
X138847254Y-88804478D01*
X138802235Y-88754478D01*
X138802232Y-88754476D01*
X138802231Y-88754475D01*
X138802230Y-88754474D01*
X138657593Y-88649388D01*
X138494267Y-88576671D01*
X138494265Y-88576670D01*
X138366594Y-88549533D01*
X138319391Y-88539500D01*
X138140609Y-88539500D01*
X138109954Y-88546015D01*
X137965733Y-88576670D01*
X137965728Y-88576672D01*
X137802408Y-88649387D01*
X137657768Y-88754475D01*
X137538140Y-88887336D01*
X137448750Y-89042164D01*
X137448747Y-89042170D01*
X137393504Y-89212192D01*
X137393503Y-89212194D01*
X137374815Y-89390000D01*
X112193043Y-89390000D01*
X112191095Y-86338389D01*
X134699500Y-86338389D01*
X134699500Y-87061611D01*
X134726598Y-87232701D01*
X134780127Y-87397445D01*
X134858768Y-87551788D01*
X134960586Y-87691928D01*
X135083072Y-87814414D01*
X135223212Y-87916232D01*
X135377555Y-87994873D01*
X135542299Y-88048402D01*
X135713389Y-88075500D01*
X135713390Y-88075500D01*
X135886610Y-88075500D01*
X135886611Y-88075500D01*
X136057701Y-88048402D01*
X136222445Y-87994873D01*
X136376788Y-87916232D01*
X136516928Y-87814414D01*
X136639414Y-87691928D01*
X136699991Y-87608550D01*
X136755321Y-87565885D01*
X136824934Y-87559906D01*
X136886729Y-87592512D01*
X136900628Y-87608551D01*
X136960967Y-87691602D01*
X137083397Y-87814032D01*
X137223475Y-87915804D01*
X137377744Y-87994408D01*
X137542415Y-88047914D01*
X137542414Y-88047914D01*
X137549999Y-88049115D01*
X137550000Y-88049114D01*
X137550000Y-86980330D01*
X137569745Y-87000075D01*
X137655255Y-87049444D01*
X137750630Y-87075000D01*
X137849370Y-87075000D01*
X137944745Y-87049444D01*
X138030255Y-87000075D01*
X138050000Y-86980330D01*
X138050000Y-88049115D01*
X138057584Y-88047914D01*
X138222255Y-87994408D01*
X138376524Y-87915804D01*
X138516602Y-87814032D01*
X138639036Y-87691598D01*
X138699371Y-87608552D01*
X138754700Y-87565886D01*
X138824313Y-87559905D01*
X138886109Y-87592510D01*
X138900008Y-87608550D01*
X138900318Y-87608976D01*
X138960586Y-87691928D01*
X139083072Y-87814414D01*
X139223212Y-87916232D01*
X139377555Y-87994873D01*
X139542299Y-88048402D01*
X139713389Y-88075500D01*
X139713390Y-88075500D01*
X139886610Y-88075500D01*
X139886611Y-88075500D01*
X140057701Y-88048402D01*
X140222445Y-87994873D01*
X140376788Y-87916232D01*
X140516928Y-87814414D01*
X140639414Y-87691928D01*
X140699682Y-87608975D01*
X140755012Y-87566311D01*
X140824626Y-87560332D01*
X140886421Y-87592938D01*
X140900315Y-87608973D01*
X140960586Y-87691928D01*
X141083072Y-87814414D01*
X141223212Y-87916232D01*
X141377555Y-87994873D01*
X141542299Y-88048402D01*
X141713389Y-88075500D01*
X141713390Y-88075500D01*
X141886610Y-88075500D01*
X141886611Y-88075500D01*
X142057701Y-88048402D01*
X142222445Y-87994873D01*
X142376788Y-87916232D01*
X142516928Y-87814414D01*
X142639414Y-87691928D01*
X142699682Y-87608975D01*
X142755012Y-87566311D01*
X142824626Y-87560332D01*
X142886421Y-87592938D01*
X142900315Y-87608973D01*
X142960586Y-87691928D01*
X143083072Y-87814414D01*
X143223212Y-87916232D01*
X143377555Y-87994873D01*
X143542299Y-88048402D01*
X143713389Y-88075500D01*
X143713390Y-88075500D01*
X143886610Y-88075500D01*
X143886611Y-88075500D01*
X144057701Y-88048402D01*
X144222445Y-87994873D01*
X144376788Y-87916232D01*
X144516928Y-87814414D01*
X144639414Y-87691928D01*
X144699682Y-87608975D01*
X144755012Y-87566311D01*
X144824626Y-87560332D01*
X144886421Y-87592938D01*
X144900315Y-87608973D01*
X144960586Y-87691928D01*
X145083072Y-87814414D01*
X145223212Y-87916232D01*
X145377555Y-87994873D01*
X145542299Y-88048402D01*
X145713389Y-88075500D01*
X145713390Y-88075500D01*
X145886610Y-88075500D01*
X145886611Y-88075500D01*
X146057701Y-88048402D01*
X146222445Y-87994873D01*
X146376788Y-87916232D01*
X146516928Y-87814414D01*
X146639414Y-87691928D01*
X146699682Y-87608975D01*
X146755012Y-87566311D01*
X146824626Y-87560332D01*
X146886421Y-87592938D01*
X146900315Y-87608973D01*
X146960586Y-87691928D01*
X147083072Y-87814414D01*
X147223212Y-87916232D01*
X147377555Y-87994873D01*
X147542299Y-88048402D01*
X147713389Y-88075500D01*
X147713390Y-88075500D01*
X147886610Y-88075500D01*
X147886611Y-88075500D01*
X148057701Y-88048402D01*
X148222445Y-87994873D01*
X148376788Y-87916232D01*
X148516928Y-87814414D01*
X148624472Y-87706869D01*
X148685791Y-87673387D01*
X148755483Y-87678371D01*
X148811417Y-87720242D01*
X148817688Y-87729456D01*
X148857285Y-87793652D01*
X148857288Y-87793656D01*
X148981344Y-87917712D01*
X149130666Y-88009814D01*
X149297203Y-88064999D01*
X149399991Y-88075500D01*
X150200008Y-88075499D01*
X150200016Y-88075498D01*
X150200019Y-88075498D01*
X150256302Y-88069748D01*
X150302797Y-88064999D01*
X150469334Y-88009814D01*
X150618656Y-87917712D01*
X150742712Y-87793656D01*
X150834814Y-87644334D01*
X150889999Y-87477797D01*
X150900500Y-87375009D01*
X150900499Y-86024992D01*
X150889999Y-85922203D01*
X150834814Y-85755666D01*
X150742712Y-85606344D01*
X150618656Y-85482288D01*
X150493559Y-85405128D01*
X150469336Y-85390187D01*
X150469331Y-85390185D01*
X150467862Y-85389698D01*
X150302797Y-85335001D01*
X150302795Y-85335000D01*
X150200010Y-85324500D01*
X149399998Y-85324500D01*
X149399980Y-85324501D01*
X149297203Y-85335000D01*
X149297200Y-85335001D01*
X149130668Y-85390185D01*
X149130663Y-85390187D01*
X148981342Y-85482289D01*
X148857287Y-85606344D01*
X148817688Y-85670544D01*
X148765739Y-85717268D01*
X148696777Y-85728489D01*
X148632695Y-85700645D01*
X148624469Y-85693127D01*
X148516930Y-85585588D01*
X148516928Y-85585586D01*
X148376788Y-85483768D01*
X148222445Y-85405127D01*
X148057701Y-85351598D01*
X148057699Y-85351597D01*
X148057698Y-85351597D01*
X147926271Y-85330781D01*
X147886611Y-85324500D01*
X147713389Y-85324500D01*
X147673728Y-85330781D01*
X147542302Y-85351597D01*
X147377552Y-85405128D01*
X147223211Y-85483768D01*
X147143256Y-85541859D01*
X147083072Y-85585586D01*
X147083070Y-85585588D01*
X147083069Y-85585588D01*
X146960588Y-85708069D01*
X146960581Y-85708078D01*
X146900317Y-85791023D01*
X146844987Y-85833689D01*
X146775374Y-85839667D01*
X146713579Y-85807061D01*
X146699683Y-85791023D01*
X146639653Y-85708401D01*
X146639414Y-85708072D01*
X146516928Y-85585586D01*
X146376788Y-85483768D01*
X146222445Y-85405127D01*
X146057701Y-85351598D01*
X146057699Y-85351597D01*
X146057698Y-85351597D01*
X145926271Y-85330781D01*
X145886611Y-85324500D01*
X145713389Y-85324500D01*
X145673728Y-85330781D01*
X145542302Y-85351597D01*
X145377552Y-85405128D01*
X145223211Y-85483768D01*
X145143256Y-85541859D01*
X145083072Y-85585586D01*
X145083070Y-85585588D01*
X145083069Y-85585588D01*
X144960588Y-85708069D01*
X144960581Y-85708078D01*
X144900317Y-85791023D01*
X144844987Y-85833689D01*
X144775374Y-85839667D01*
X144713579Y-85807061D01*
X144699683Y-85791023D01*
X144639653Y-85708401D01*
X144639414Y-85708072D01*
X144516928Y-85585586D01*
X144376788Y-85483768D01*
X144222445Y-85405127D01*
X144057701Y-85351598D01*
X144057699Y-85351597D01*
X144057698Y-85351597D01*
X143926271Y-85330781D01*
X143886611Y-85324500D01*
X143713389Y-85324500D01*
X143673728Y-85330781D01*
X143542302Y-85351597D01*
X143377552Y-85405128D01*
X143223211Y-85483768D01*
X143143256Y-85541859D01*
X143083072Y-85585586D01*
X143083070Y-85585588D01*
X143083069Y-85585588D01*
X142960588Y-85708069D01*
X142960581Y-85708078D01*
X142900317Y-85791023D01*
X142844987Y-85833689D01*
X142775374Y-85839667D01*
X142713579Y-85807061D01*
X142699683Y-85791023D01*
X142639653Y-85708401D01*
X142639414Y-85708072D01*
X142516928Y-85585586D01*
X142376788Y-85483768D01*
X142222445Y-85405127D01*
X142057701Y-85351598D01*
X142057699Y-85351597D01*
X142057698Y-85351597D01*
X141926271Y-85330781D01*
X141886611Y-85324500D01*
X141713389Y-85324500D01*
X141673728Y-85330781D01*
X141542302Y-85351597D01*
X141377552Y-85405128D01*
X141223211Y-85483768D01*
X141143256Y-85541859D01*
X141083072Y-85585586D01*
X141083070Y-85585588D01*
X141083069Y-85585588D01*
X140960588Y-85708069D01*
X140960581Y-85708078D01*
X140900317Y-85791023D01*
X140844987Y-85833689D01*
X140775374Y-85839667D01*
X140713579Y-85807061D01*
X140699683Y-85791023D01*
X140639653Y-85708401D01*
X140639414Y-85708072D01*
X140516928Y-85585586D01*
X140376788Y-85483768D01*
X140222445Y-85405127D01*
X140057701Y-85351598D01*
X140057699Y-85351597D01*
X140057698Y-85351597D01*
X139926271Y-85330781D01*
X139886611Y-85324500D01*
X139713389Y-85324500D01*
X139673728Y-85330781D01*
X139542302Y-85351597D01*
X139377552Y-85405128D01*
X139223211Y-85483768D01*
X139143256Y-85541859D01*
X139083072Y-85585586D01*
X139083070Y-85585588D01*
X139083069Y-85585588D01*
X138960585Y-85708072D01*
X138900007Y-85791450D01*
X138844677Y-85834115D01*
X138775063Y-85840093D01*
X138713269Y-85807486D01*
X138699371Y-85791447D01*
X138639036Y-85708401D01*
X138516602Y-85585967D01*
X138376524Y-85484195D01*
X138222257Y-85405591D01*
X138057589Y-85352087D01*
X138057581Y-85352085D01*
X138050000Y-85350884D01*
X138050000Y-86419670D01*
X138030255Y-86399925D01*
X137944745Y-86350556D01*
X137849370Y-86325000D01*
X137750630Y-86325000D01*
X137655255Y-86350556D01*
X137569745Y-86399925D01*
X137550000Y-86419670D01*
X137550000Y-85350884D01*
X137549999Y-85350884D01*
X137542418Y-85352085D01*
X137542410Y-85352087D01*
X137377742Y-85405591D01*
X137223475Y-85484195D01*
X137083397Y-85585967D01*
X136960965Y-85708399D01*
X136960961Y-85708404D01*
X136900627Y-85791448D01*
X136845297Y-85834114D01*
X136775684Y-85840093D01*
X136713889Y-85807488D01*
X136699991Y-85791449D01*
X136699990Y-85791447D01*
X136639414Y-85708072D01*
X136516928Y-85585586D01*
X136376788Y-85483768D01*
X136222445Y-85405127D01*
X136057701Y-85351598D01*
X136057699Y-85351597D01*
X136057698Y-85351597D01*
X135926271Y-85330781D01*
X135886611Y-85324500D01*
X135713389Y-85324500D01*
X135673728Y-85330781D01*
X135542302Y-85351597D01*
X135377552Y-85405128D01*
X135223211Y-85483768D01*
X135143256Y-85541859D01*
X135083072Y-85585586D01*
X135083070Y-85585588D01*
X135083069Y-85585588D01*
X134960588Y-85708069D01*
X134960588Y-85708070D01*
X134960586Y-85708072D01*
X134960345Y-85708404D01*
X134858768Y-85848211D01*
X134780128Y-86002552D01*
X134726597Y-86167302D01*
X134701621Y-86325000D01*
X134699500Y-86338389D01*
X112191095Y-86338389D01*
X112174363Y-60125928D01*
X126789500Y-60125928D01*
X126789500Y-78224069D01*
X126799725Y-78275469D01*
X126799725Y-78275472D01*
X126814497Y-78349736D01*
X126814499Y-78349744D01*
X126863534Y-78468125D01*
X126934726Y-78574673D01*
X130045326Y-81685273D01*
X130045329Y-81685275D01*
X130045331Y-81685277D01*
X130151873Y-81756465D01*
X130270256Y-81805501D01*
X130270260Y-81805501D01*
X130270261Y-81805502D01*
X130395928Y-81830500D01*
X130395931Y-81830500D01*
X135328089Y-81830500D01*
X135395128Y-81850185D01*
X135400976Y-81854182D01*
X135492407Y-81920612D01*
X135655733Y-81993329D01*
X135830609Y-82030500D01*
X135830610Y-82030500D01*
X136009389Y-82030500D01*
X136009391Y-82030500D01*
X136184267Y-81993329D01*
X136339566Y-81924185D01*
X136408814Y-81914901D01*
X136440431Y-81924184D01*
X136595733Y-81993329D01*
X136770609Y-82030500D01*
X136770610Y-82030500D01*
X136949389Y-82030500D01*
X136949391Y-82030500D01*
X137124267Y-81993329D01*
X137287593Y-81920612D01*
X137432230Y-81815526D01*
X137441258Y-81805500D01*
X137458148Y-81786741D01*
X137551859Y-81682665D01*
X137641250Y-81527835D01*
X137696497Y-81357803D01*
X137715185Y-81180000D01*
X137696497Y-81002197D01*
X137641250Y-80832165D01*
X137551859Y-80677335D01*
X137505003Y-80625296D01*
X137432235Y-80544478D01*
X137432232Y-80544476D01*
X137432231Y-80544475D01*
X137432230Y-80544474D01*
X137287593Y-80439388D01*
X137124267Y-80366671D01*
X137124265Y-80366670D01*
X136996594Y-80339533D01*
X136949391Y-80329500D01*
X136770609Y-80329500D01*
X136739954Y-80336015D01*
X136595733Y-80366670D01*
X136440435Y-80435814D01*
X136371185Y-80445098D01*
X136339566Y-80435814D01*
X136184267Y-80366671D01*
X136184265Y-80366670D01*
X136056594Y-80339533D01*
X136009391Y-80329500D01*
X135830609Y-80329500D01*
X135799954Y-80336015D01*
X135655733Y-80366670D01*
X135655728Y-80366672D01*
X135492408Y-80439388D01*
X135492403Y-80439390D01*
X135400974Y-80505818D01*
X135335168Y-80529298D01*
X135328089Y-80529500D01*
X134598767Y-80529500D01*
X134531728Y-80509815D01*
X134485973Y-80457011D01*
X134474767Y-80405500D01*
X134474767Y-79586916D01*
X134494452Y-79519877D01*
X134547256Y-79474122D01*
X134616414Y-79464178D01*
X134649198Y-79473635D01*
X134805733Y-79543329D01*
X134980609Y-79580500D01*
X134980610Y-79580500D01*
X135159389Y-79580500D01*
X135159391Y-79580500D01*
X135334267Y-79543329D01*
X135497593Y-79470612D01*
X135497597Y-79470608D01*
X135503224Y-79467361D01*
X135503836Y-79468422D01*
X135563286Y-79447198D01*
X135620820Y-79457714D01*
X135745733Y-79513329D01*
X135920609Y-79550500D01*
X135920610Y-79550500D01*
X136099389Y-79550500D01*
X136099391Y-79550500D01*
X136274267Y-79513329D01*
X136403336Y-79455863D01*
X136472585Y-79446580D01*
X136504199Y-79455862D01*
X136655733Y-79523329D01*
X136830609Y-79560500D01*
X136830610Y-79560500D01*
X137009389Y-79560500D01*
X137009391Y-79560500D01*
X137184267Y-79523329D01*
X137310796Y-79466994D01*
X137380045Y-79457711D01*
X137411665Y-79466995D01*
X137427673Y-79474122D01*
X137515733Y-79513329D01*
X137690609Y-79550500D01*
X137690610Y-79550500D01*
X137869389Y-79550500D01*
X137869391Y-79550500D01*
X138044267Y-79513329D01*
X138207593Y-79440612D01*
X138352230Y-79335526D01*
X138471859Y-79202665D01*
X138561250Y-79047835D01*
X138616497Y-78877803D01*
X138635185Y-78700000D01*
X138616497Y-78522197D01*
X138561250Y-78352165D01*
X138500681Y-78247257D01*
X138484209Y-78179357D01*
X138507062Y-78113331D01*
X138561983Y-78070140D01*
X138608387Y-78061258D01*
X142244767Y-78070619D01*
X142246680Y-75299191D01*
X142266411Y-75232168D01*
X142319246Y-75186449D01*
X142388412Y-75176553D01*
X142396432Y-75177983D01*
X142458295Y-75191133D01*
X142458297Y-75191133D01*
X142637075Y-75191133D01*
X142637077Y-75191133D01*
X142811953Y-75153962D01*
X142975279Y-75081245D01*
X143119916Y-74976159D01*
X143120791Y-74975188D01*
X143150940Y-74941703D01*
X143239545Y-74843298D01*
X143328936Y-74688468D01*
X143384183Y-74518436D01*
X143402871Y-74340633D01*
X143384183Y-74162830D01*
X143328936Y-73992798D01*
X143307186Y-73955127D01*
X143290714Y-73887228D01*
X143307186Y-73831129D01*
X143331816Y-73788470D01*
X143387063Y-73618438D01*
X143405751Y-73440635D01*
X143387063Y-73262832D01*
X143331816Y-73092800D01*
X143242425Y-72937970D01*
X143180453Y-72869143D01*
X143122801Y-72805113D01*
X143122798Y-72805111D01*
X143122797Y-72805110D01*
X143122796Y-72805109D01*
X142978159Y-72700023D01*
X142814833Y-72627306D01*
X142814831Y-72627305D01*
X142687160Y-72600168D01*
X142639957Y-72590135D01*
X142461175Y-72590135D01*
X142430520Y-72596650D01*
X142286299Y-72627305D01*
X142286294Y-72627307D01*
X142220770Y-72656480D01*
X142151520Y-72665764D01*
X142088244Y-72636135D01*
X142051031Y-72576999D01*
X142046370Y-72540295D01*
X142074767Y-71330619D01*
X142074766Y-71330618D01*
X142074767Y-71330618D01*
X142057058Y-71312435D01*
X142051758Y-71310861D01*
X142006166Y-71257916D01*
X141996435Y-71188728D01*
X142004308Y-71161596D01*
X142004242Y-71161575D01*
X142004926Y-71159467D01*
X142005846Y-71156300D01*
X142006245Y-71155402D01*
X142006250Y-71155394D01*
X142061497Y-70985362D01*
X142080185Y-70807559D01*
X142061497Y-70629756D01*
X142006250Y-70459724D01*
X141916859Y-70304894D01*
X141847797Y-70228193D01*
X141797235Y-70172037D01*
X141797232Y-70172035D01*
X141797231Y-70172034D01*
X141797230Y-70172033D01*
X141652593Y-70066947D01*
X141489267Y-69994230D01*
X141489265Y-69994229D01*
X141361594Y-69967092D01*
X141314391Y-69957059D01*
X141135609Y-69957059D01*
X141104954Y-69963574D01*
X140960733Y-69994229D01*
X140791471Y-70069590D01*
X140790707Y-70067874D01*
X140731586Y-70082210D01*
X140684118Y-70068268D01*
X140683530Y-70069590D01*
X140602614Y-70033564D01*
X140514267Y-69994230D01*
X140514265Y-69994229D01*
X140386594Y-69967092D01*
X140339391Y-69957059D01*
X140160609Y-69957059D01*
X140129954Y-69963574D01*
X139985733Y-69994229D01*
X139985728Y-69994231D01*
X139822408Y-70066946D01*
X139677768Y-70172034D01*
X139558140Y-70304895D01*
X139468750Y-70459723D01*
X139468747Y-70459729D01*
X139413504Y-70629751D01*
X139413503Y-70629753D01*
X139394815Y-70807559D01*
X139413503Y-70985364D01*
X139413504Y-70985366D01*
X139470278Y-71160100D01*
X139472273Y-71229942D01*
X139436192Y-71289774D01*
X139373491Y-71320602D01*
X139351974Y-71322417D01*
X138878394Y-71320991D01*
X138811414Y-71301105D01*
X138765818Y-71248164D01*
X138754767Y-71196992D01*
X138754767Y-70330619D01*
X138754766Y-70330618D01*
X134287005Y-70301417D01*
X134220095Y-70281295D01*
X134174686Y-70228193D01*
X134163819Y-70178381D01*
X134162965Y-70068268D01*
X134144767Y-67720619D01*
X132824767Y-67700619D01*
X132824766Y-67700619D01*
X132874767Y-71910619D01*
X136135150Y-71910619D01*
X136202189Y-71930304D01*
X136247944Y-71983108D01*
X136259142Y-72033259D01*
X136266898Y-72741686D01*
X136268293Y-72869143D01*
X136249343Y-72936394D01*
X136197043Y-72982724D01*
X136144300Y-72994500D01*
X133064625Y-72994500D01*
X132997586Y-72974815D01*
X132991739Y-72970818D01*
X132990917Y-72970221D01*
X132917593Y-72916947D01*
X132754267Y-72844230D01*
X132754265Y-72844229D01*
X132626594Y-72817092D01*
X132579391Y-72807059D01*
X132400609Y-72807059D01*
X132369954Y-72813574D01*
X132225733Y-72844229D01*
X132225728Y-72844231D01*
X132062408Y-72916946D01*
X131917768Y-73022034D01*
X131798140Y-73154895D01*
X131708750Y-73309723D01*
X131708747Y-73309729D01*
X131653504Y-73479751D01*
X131653503Y-73479753D01*
X131634815Y-73657559D01*
X131653503Y-73835364D01*
X131653504Y-73835366D01*
X131708747Y-74005388D01*
X131708750Y-74005394D01*
X131798141Y-74160224D01*
X131839812Y-74206505D01*
X131917764Y-74293080D01*
X131917767Y-74293082D01*
X131917770Y-74293085D01*
X132062407Y-74398171D01*
X132225733Y-74470888D01*
X132400609Y-74508059D01*
X132400610Y-74508059D01*
X132579389Y-74508059D01*
X132579391Y-74508059D01*
X132754267Y-74470888D01*
X132917593Y-74398171D01*
X133062230Y-74293085D01*
X133158175Y-74186528D01*
X133217661Y-74149879D01*
X133250325Y-74145500D01*
X135140224Y-74145500D01*
X135207263Y-74165185D01*
X135253018Y-74217989D01*
X135262962Y-74287147D01*
X135258155Y-74307818D01*
X135233504Y-74383685D01*
X135233503Y-74383687D01*
X135214815Y-74561493D01*
X135233503Y-74739298D01*
X135233504Y-74739300D01*
X135288747Y-74909322D01*
X135288750Y-74909328D01*
X135378141Y-75064158D01*
X135395058Y-75082946D01*
X135497764Y-75197014D01*
X135497767Y-75197016D01*
X135497770Y-75197019D01*
X135642407Y-75302105D01*
X135805733Y-75374822D01*
X135808118Y-75375329D01*
X135809364Y-75376001D01*
X135811913Y-75376830D01*
X135811761Y-75377296D01*
X135869599Y-75408522D01*
X135903376Y-75469685D01*
X135898723Y-75539400D01*
X135857118Y-75595532D01*
X135791770Y-75620260D01*
X135782336Y-75620619D01*
X132924609Y-75620619D01*
X132918475Y-78574673D01*
X132914832Y-80329500D01*
X132914767Y-80360619D01*
X132914673Y-80405757D01*
X132894849Y-80472756D01*
X132841950Y-80518401D01*
X132790673Y-80529500D01*
X130780808Y-80529500D01*
X130713769Y-80509815D01*
X130693127Y-80493181D01*
X128126819Y-77926873D01*
X128093334Y-77865550D01*
X128090500Y-77839192D01*
X128090500Y-60510808D01*
X128110185Y-60443769D01*
X128126819Y-60423127D01*
X130805568Y-57744378D01*
X130866891Y-57710893D01*
X130893249Y-57708059D01*
X139758089Y-57708059D01*
X139825128Y-57727744D01*
X139830976Y-57731741D01*
X139922407Y-57798171D01*
X140085733Y-57870888D01*
X140260609Y-57908059D01*
X140260610Y-57908059D01*
X140439389Y-57908059D01*
X140439391Y-57908059D01*
X140614267Y-57870888D01*
X140777593Y-57798171D01*
X140833490Y-57757559D01*
X148469815Y-57757559D01*
X148488503Y-57935364D01*
X148488504Y-57935366D01*
X148543747Y-58105388D01*
X148543750Y-58105394D01*
X148633141Y-58260224D01*
X148674812Y-58306505D01*
X148752764Y-58393080D01*
X148752767Y-58393082D01*
X148752770Y-58393085D01*
X148897407Y-58498171D01*
X149060733Y-58570888D01*
X149235609Y-58608059D01*
X149235610Y-58608059D01*
X149414389Y-58608059D01*
X149414391Y-58608059D01*
X149589267Y-58570888D01*
X149752593Y-58498171D01*
X149844025Y-58431741D01*
X149909831Y-58408261D01*
X149916911Y-58408059D01*
X150776751Y-58408059D01*
X150843790Y-58427744D01*
X150864432Y-58444378D01*
X153153181Y-60733127D01*
X153186666Y-60794450D01*
X153189500Y-60820808D01*
X153189500Y-72112751D01*
X153169815Y-72179790D01*
X153153181Y-72200432D01*
X150411909Y-74941703D01*
X150350586Y-74975188D01*
X150350009Y-74975312D01*
X150185733Y-75010229D01*
X150185728Y-75010231D01*
X150022408Y-75082946D01*
X149877768Y-75188034D01*
X149758140Y-75320895D01*
X149668750Y-75475723D01*
X149668747Y-75475729D01*
X149613504Y-75645751D01*
X149613503Y-75645753D01*
X149594815Y-75823559D01*
X149613503Y-76001364D01*
X149613504Y-76001366D01*
X149668747Y-76171388D01*
X149668750Y-76171394D01*
X149758141Y-76326224D01*
X149799812Y-76372505D01*
X149877764Y-76459080D01*
X149877767Y-76459082D01*
X149877770Y-76459085D01*
X150022407Y-76564171D01*
X150185733Y-76636888D01*
X150360609Y-76674059D01*
X150360610Y-76674059D01*
X150539389Y-76674059D01*
X150539391Y-76674059D01*
X150714267Y-76636888D01*
X150877593Y-76564171D01*
X151022230Y-76459085D01*
X151141859Y-76326224D01*
X151231250Y-76171394D01*
X151286497Y-76001362D01*
X151292988Y-75939595D01*
X151319571Y-75874982D01*
X151328619Y-75864884D01*
X154345277Y-72848228D01*
X154416465Y-72741686D01*
X154465501Y-72623303D01*
X154490500Y-72497628D01*
X154490500Y-60435931D01*
X154490500Y-60435928D01*
X154465502Y-60310261D01*
X154465501Y-60310260D01*
X154465501Y-60310256D01*
X154416465Y-60191873D01*
X154372404Y-60125931D01*
X154345276Y-60085330D01*
X154035272Y-59775326D01*
X151512233Y-57252286D01*
X151512232Y-57252285D01*
X151486905Y-57235362D01*
X151405686Y-57181094D01*
X151287303Y-57132058D01*
X151287297Y-57132056D01*
X151161630Y-57107059D01*
X151161628Y-57107059D01*
X149916911Y-57107059D01*
X149849872Y-57087374D01*
X149844025Y-57083377D01*
X149752594Y-57016948D01*
X149752593Y-57016947D01*
X149589267Y-56944230D01*
X149589265Y-56944229D01*
X149461594Y-56917092D01*
X149414391Y-56907059D01*
X149235609Y-56907059D01*
X149204954Y-56913574D01*
X149060733Y-56944229D01*
X149060728Y-56944231D01*
X148897408Y-57016946D01*
X148752768Y-57122034D01*
X148633140Y-57254895D01*
X148543750Y-57409723D01*
X148543747Y-57409729D01*
X148488504Y-57579751D01*
X148488503Y-57579753D01*
X148469815Y-57757559D01*
X140833490Y-57757559D01*
X140922230Y-57693085D01*
X141041859Y-57560224D01*
X141131250Y-57405394D01*
X141186497Y-57235362D01*
X141205185Y-57057559D01*
X141186497Y-56879756D01*
X141131250Y-56709724D01*
X141041859Y-56554894D01*
X140995003Y-56502855D01*
X140922235Y-56422037D01*
X140922232Y-56422035D01*
X140922231Y-56422034D01*
X140922230Y-56422033D01*
X140777593Y-56316947D01*
X140614267Y-56244230D01*
X140614265Y-56244229D01*
X140486594Y-56217092D01*
X140439391Y-56207059D01*
X140260609Y-56207059D01*
X140229954Y-56213574D01*
X140085733Y-56244229D01*
X140085728Y-56244231D01*
X139922408Y-56316947D01*
X139922403Y-56316949D01*
X139830974Y-56383377D01*
X139765168Y-56406857D01*
X139758089Y-56407059D01*
X130508370Y-56407059D01*
X130382702Y-56432056D01*
X130382692Y-56432059D01*
X130351782Y-56444862D01*
X130351783Y-56444863D01*
X130264318Y-56481091D01*
X130264304Y-56481099D01*
X130157773Y-56552280D01*
X130157766Y-56552286D01*
X126934726Y-59775326D01*
X126885167Y-59849499D01*
X126885165Y-59849501D01*
X126863539Y-59881864D01*
X126863533Y-59881875D01*
X126814499Y-60000255D01*
X126814497Y-60000261D01*
X126789500Y-60125928D01*
X112174363Y-60125928D01*
X112163001Y-42327130D01*
X112163073Y-42322840D01*
X112167273Y-42199891D01*
X118614181Y-42199891D01*
X118614181Y-42443945D01*
X118652360Y-42684994D01*
X118727777Y-42917103D01*
X118766960Y-42994005D01*
X118838577Y-43134560D01*
X118982020Y-43331994D01*
X118982024Y-43331999D01*
X119154599Y-43504574D01*
X119154604Y-43504578D01*
X119154632Y-43504598D01*
X119352042Y-43648024D01*
X119569496Y-43758822D01*
X119801605Y-43834239D01*
X120042654Y-43872418D01*
X120042655Y-43872418D01*
X120286707Y-43872418D01*
X120286708Y-43872418D01*
X120527757Y-43834239D01*
X120759866Y-43758822D01*
X120977320Y-43648024D01*
X121174764Y-43504573D01*
X121331783Y-43347554D01*
X140715233Y-43347554D01*
X140715233Y-43347563D01*
X140734273Y-43601638D01*
X140790968Y-43850036D01*
X140790973Y-43850053D01*
X140884058Y-44087230D01*
X140884057Y-44087230D01*
X141011457Y-44307891D01*
X141053452Y-44360552D01*
X141704152Y-43709851D01*
X141711049Y-43726501D01*
X141798599Y-43857529D01*
X141910030Y-43968960D01*
X142041058Y-44056510D01*
X142057705Y-44063405D01*
X141406813Y-44714296D01*
X141567623Y-44823934D01*
X141567624Y-44823935D01*
X141797176Y-44934480D01*
X141797174Y-44934480D01*
X142040652Y-45009583D01*
X142040658Y-45009585D01*
X142292595Y-45047558D01*
X142292604Y-45047559D01*
X142547396Y-45047559D01*
X142547404Y-45047558D01*
X142799341Y-45009585D01*
X142799347Y-45009583D01*
X143042824Y-44934480D01*
X143272381Y-44823932D01*
X143433185Y-44714296D01*
X142782294Y-44063405D01*
X142798942Y-44056510D01*
X142929970Y-43968960D01*
X143041401Y-43857529D01*
X143128951Y-43726501D01*
X143135846Y-43709853D01*
X143786545Y-44360552D01*
X143828545Y-44307886D01*
X143955941Y-44087230D01*
X144049026Y-43850053D01*
X144049031Y-43850036D01*
X144105726Y-43601638D01*
X144124767Y-43347563D01*
X144124767Y-43347554D01*
X145795233Y-43347554D01*
X145795233Y-43347563D01*
X145814273Y-43601638D01*
X145870968Y-43850036D01*
X145870973Y-43850053D01*
X145964058Y-44087230D01*
X145964057Y-44087230D01*
X146091457Y-44307891D01*
X146133452Y-44360552D01*
X146784152Y-43709851D01*
X146791049Y-43726501D01*
X146878599Y-43857529D01*
X146990030Y-43968960D01*
X147121058Y-44056510D01*
X147137705Y-44063405D01*
X146486813Y-44714296D01*
X146647623Y-44823934D01*
X146647624Y-44823935D01*
X146877176Y-44934480D01*
X146877174Y-44934480D01*
X147120652Y-45009583D01*
X147120658Y-45009585D01*
X147372595Y-45047558D01*
X147372604Y-45047559D01*
X147627396Y-45047559D01*
X147627404Y-45047558D01*
X147879341Y-45009585D01*
X147879347Y-45009583D01*
X148122824Y-44934480D01*
X148352381Y-44823932D01*
X148513185Y-44714296D01*
X147862294Y-44063405D01*
X147878942Y-44056510D01*
X148009970Y-43968960D01*
X148121401Y-43857529D01*
X148208951Y-43726501D01*
X148215846Y-43709853D01*
X148866545Y-44360552D01*
X148908545Y-44307886D01*
X149035941Y-44087230D01*
X149129026Y-43850053D01*
X149129031Y-43850036D01*
X149185726Y-43601638D01*
X149204767Y-43347563D01*
X149204767Y-43347554D01*
X149185726Y-43093479D01*
X149129031Y-42845081D01*
X149129026Y-42845064D01*
X149035941Y-42607887D01*
X149035942Y-42607887D01*
X148908544Y-42387230D01*
X148866546Y-42334565D01*
X148215846Y-42985264D01*
X148208951Y-42968617D01*
X148121401Y-42837589D01*
X148009970Y-42726158D01*
X147878942Y-42638608D01*
X147862292Y-42631711D01*
X148294093Y-42199911D01*
X170684821Y-42199911D01*
X170684821Y-42443964D01*
X170722996Y-42684994D01*
X170723000Y-42685014D01*
X170798417Y-42917123D01*
X170909206Y-43134560D01*
X170909217Y-43134580D01*
X171052660Y-43332014D01*
X171052664Y-43332019D01*
X171225239Y-43504594D01*
X171225244Y-43504598D01*
X171358809Y-43601638D01*
X171422682Y-43648044D01*
X171640136Y-43758842D01*
X171872245Y-43834259D01*
X172113294Y-43872438D01*
X172113295Y-43872438D01*
X172357347Y-43872438D01*
X172357348Y-43872438D01*
X172598397Y-43834259D01*
X172830506Y-43758842D01*
X173047960Y-43648044D01*
X173245404Y-43504593D01*
X173417976Y-43332021D01*
X173561427Y-43134577D01*
X173672225Y-42917123D01*
X173747642Y-42685014D01*
X173785821Y-42443965D01*
X173785821Y-42199911D01*
X173747642Y-41958862D01*
X173672225Y-41726753D01*
X173561427Y-41509299D01*
X173536681Y-41475239D01*
X173417981Y-41311861D01*
X173417977Y-41311856D01*
X173245402Y-41139281D01*
X173245397Y-41139277D01*
X173047963Y-40995834D01*
X173047962Y-40995833D01*
X173047960Y-40995832D01*
X172830506Y-40885034D01*
X172598397Y-40809617D01*
X172598395Y-40809616D01*
X172598393Y-40809616D01*
X172430090Y-40782959D01*
X172357348Y-40771438D01*
X172113294Y-40771438D01*
X172057414Y-40780288D01*
X171872248Y-40809616D01*
X171872245Y-40809617D01*
X171640195Y-40885015D01*
X171640133Y-40885035D01*
X171422678Y-40995834D01*
X171225244Y-41139277D01*
X171225239Y-41139281D01*
X171052664Y-41311856D01*
X171052660Y-41311861D01*
X170909217Y-41509295D01*
X170798418Y-41726750D01*
X170798417Y-41726752D01*
X170798417Y-41726753D01*
X170785678Y-41765960D01*
X170722999Y-41958865D01*
X170684821Y-42199911D01*
X148294093Y-42199911D01*
X148513185Y-41980820D01*
X148352377Y-41871183D01*
X148352376Y-41871182D01*
X148122823Y-41760637D01*
X148122825Y-41760637D01*
X147879347Y-41685534D01*
X147879341Y-41685532D01*
X147627404Y-41647559D01*
X147372595Y-41647559D01*
X147120658Y-41685532D01*
X147120652Y-41685534D01*
X146877175Y-41760637D01*
X146647624Y-41871182D01*
X146647616Y-41871187D01*
X146486813Y-41980820D01*
X147137705Y-42631712D01*
X147121058Y-42638608D01*
X146990030Y-42726158D01*
X146878599Y-42837589D01*
X146791049Y-42968617D01*
X146784153Y-42985265D01*
X146133453Y-42334565D01*
X146091455Y-42387229D01*
X145964058Y-42607887D01*
X145870973Y-42845064D01*
X145870968Y-42845081D01*
X145814273Y-43093479D01*
X145795233Y-43347554D01*
X144124767Y-43347554D01*
X144105726Y-43093479D01*
X144049031Y-42845081D01*
X144049026Y-42845064D01*
X143955941Y-42607887D01*
X143955942Y-42607887D01*
X143828544Y-42387230D01*
X143786546Y-42334565D01*
X143135846Y-42985264D01*
X143128951Y-42968617D01*
X143041401Y-42837589D01*
X142929970Y-42726158D01*
X142798942Y-42638608D01*
X142782292Y-42631711D01*
X143433185Y-41980820D01*
X143272377Y-41871183D01*
X143272376Y-41871182D01*
X143042823Y-41760637D01*
X143042825Y-41760637D01*
X142799347Y-41685534D01*
X142799341Y-41685532D01*
X142547404Y-41647559D01*
X142292595Y-41647559D01*
X142040658Y-41685532D01*
X142040652Y-41685534D01*
X141797175Y-41760637D01*
X141567624Y-41871182D01*
X141567616Y-41871187D01*
X141406813Y-41980820D01*
X142057705Y-42631712D01*
X142041058Y-42638608D01*
X141910030Y-42726158D01*
X141798599Y-42837589D01*
X141711049Y-42968617D01*
X141704153Y-42985265D01*
X141053453Y-42334565D01*
X141011455Y-42387229D01*
X140884058Y-42607887D01*
X140790973Y-42845064D01*
X140790968Y-42845081D01*
X140734273Y-43093479D01*
X140715233Y-43347554D01*
X121331783Y-43347554D01*
X121347336Y-43332001D01*
X121490787Y-43134557D01*
X121601585Y-42917103D01*
X121677002Y-42684994D01*
X121715181Y-42443945D01*
X121715181Y-42199891D01*
X121677002Y-41958842D01*
X121601585Y-41726733D01*
X121490787Y-41509279D01*
X121466056Y-41475239D01*
X121347341Y-41311841D01*
X121347337Y-41311836D01*
X121174762Y-41139261D01*
X121174757Y-41139257D01*
X120977323Y-40995814D01*
X120977322Y-40995813D01*
X120977320Y-40995812D01*
X120759866Y-40885014D01*
X120527757Y-40809597D01*
X120527755Y-40809596D01*
X120527753Y-40809596D01*
X120514892Y-40807559D01*
X143329474Y-40807559D01*
X143349547Y-41062623D01*
X143349547Y-41062626D01*
X143349548Y-41062629D01*
X143388002Y-41222800D01*
X143409279Y-41311423D01*
X143507188Y-41547798D01*
X143507190Y-41547801D01*
X143640875Y-41765955D01*
X143640878Y-41765960D01*
X143651960Y-41778935D01*
X143807044Y-41960515D01*
X143901682Y-42041343D01*
X144001598Y-42126680D01*
X144001600Y-42126681D01*
X144001601Y-42126682D01*
X144121100Y-42199911D01*
X144219757Y-42260368D01*
X144219760Y-42260370D01*
X144398884Y-42334565D01*
X144456140Y-42358281D01*
X144704930Y-42418011D01*
X144960000Y-42438085D01*
X145215070Y-42418011D01*
X145463860Y-42358281D01*
X145582051Y-42309324D01*
X145700239Y-42260370D01*
X145700240Y-42260369D01*
X145700243Y-42260368D01*
X145918399Y-42126682D01*
X146112956Y-41960515D01*
X146279123Y-41765958D01*
X146412809Y-41547802D01*
X146428758Y-41509299D01*
X146510549Y-41311836D01*
X146510722Y-41311419D01*
X146570452Y-41062629D01*
X146590526Y-40807559D01*
X146570452Y-40552489D01*
X146510722Y-40303699D01*
X146448519Y-40153527D01*
X146412811Y-40067319D01*
X146412809Y-40067316D01*
X146279124Y-39849162D01*
X146279121Y-39849157D01*
X146219319Y-39779138D01*
X146112956Y-39654603D01*
X146006591Y-39563759D01*
X145918401Y-39488437D01*
X145918396Y-39488434D01*
X145700242Y-39354749D01*
X145700239Y-39354747D01*
X145463864Y-39256838D01*
X145463860Y-39256837D01*
X145215070Y-39197107D01*
X145215067Y-39197106D01*
X145215064Y-39197106D01*
X144960000Y-39177033D01*
X144704935Y-39197106D01*
X144704931Y-39197106D01*
X144704930Y-39197107D01*
X144580535Y-39226972D01*
X144456135Y-39256838D01*
X144219760Y-39354747D01*
X144219757Y-39354749D01*
X144001603Y-39488434D01*
X144001598Y-39488437D01*
X143807044Y-39654603D01*
X143640878Y-39849157D01*
X143640875Y-39849162D01*
X143507190Y-40067316D01*
X143507188Y-40067319D01*
X143409279Y-40303694D01*
X143349547Y-40552494D01*
X143329474Y-40807559D01*
X120514892Y-40807559D01*
X120359450Y-40782939D01*
X120286708Y-40771418D01*
X120042654Y-40771418D01*
X119986774Y-40780268D01*
X119801608Y-40809596D01*
X119569493Y-40885015D01*
X119352038Y-40995814D01*
X119154604Y-41139257D01*
X119154599Y-41139261D01*
X118982024Y-41311836D01*
X118982020Y-41311841D01*
X118838577Y-41509275D01*
X118727778Y-41726730D01*
X118727777Y-41726732D01*
X118727777Y-41726733D01*
X118690068Y-41842787D01*
X118652359Y-41958845D01*
X118639293Y-42041341D01*
X118614181Y-42199891D01*
X112167273Y-42199891D01*
X112181654Y-41778917D01*
X112182232Y-41770486D01*
X112237676Y-41231156D01*
X112238822Y-41222822D01*
X112330945Y-40688519D01*
X112332667Y-40680236D01*
X112461029Y-40153493D01*
X112463300Y-40145387D01*
X112627317Y-39628611D01*
X112630151Y-39620637D01*
X112735003Y-39354750D01*
X112829053Y-39116253D01*
X112832410Y-39108528D01*
X113065262Y-38618906D01*
X113069153Y-38611399D01*
X113119623Y-38521638D01*
X113262486Y-38267554D01*
X140715233Y-38267554D01*
X140715233Y-38267563D01*
X140734273Y-38521638D01*
X140790968Y-38770036D01*
X140790973Y-38770053D01*
X140884058Y-39007230D01*
X140884057Y-39007230D01*
X141011457Y-39227891D01*
X141053452Y-39280552D01*
X141704152Y-38629851D01*
X141711049Y-38646501D01*
X141798599Y-38777529D01*
X141910030Y-38888960D01*
X142041058Y-38976510D01*
X142057705Y-38983405D01*
X141406813Y-39634296D01*
X141567623Y-39743934D01*
X141567624Y-39743935D01*
X141797176Y-39854480D01*
X141797174Y-39854480D01*
X142040652Y-39929583D01*
X142040658Y-39929585D01*
X142292595Y-39967558D01*
X142292604Y-39967559D01*
X142547396Y-39967559D01*
X142547404Y-39967558D01*
X142799341Y-39929585D01*
X142799347Y-39929583D01*
X143042824Y-39854480D01*
X143272381Y-39743932D01*
X143433185Y-39634296D01*
X142782294Y-38983405D01*
X142798942Y-38976510D01*
X142929970Y-38888960D01*
X143041401Y-38777529D01*
X143128951Y-38646501D01*
X143135846Y-38629853D01*
X143786545Y-39280552D01*
X143828545Y-39227886D01*
X143955941Y-39007230D01*
X144049026Y-38770053D01*
X144049031Y-38770036D01*
X144105726Y-38521638D01*
X144124767Y-38267563D01*
X144124767Y-38267554D01*
X145795233Y-38267554D01*
X145795233Y-38267563D01*
X145814273Y-38521638D01*
X145870968Y-38770036D01*
X145870973Y-38770053D01*
X145964058Y-39007230D01*
X145964057Y-39007230D01*
X146091457Y-39227891D01*
X146133452Y-39280552D01*
X146784152Y-38629851D01*
X146791049Y-38646501D01*
X146878599Y-38777529D01*
X146990030Y-38888960D01*
X147121058Y-38976510D01*
X147137705Y-38983405D01*
X146486813Y-39634296D01*
X146647623Y-39743934D01*
X146647624Y-39743935D01*
X146877176Y-39854480D01*
X146877174Y-39854480D01*
X147120652Y-39929583D01*
X147120658Y-39929585D01*
X147372595Y-39967558D01*
X147372604Y-39967559D01*
X147627396Y-39967559D01*
X147627404Y-39967558D01*
X147879341Y-39929585D01*
X147879347Y-39929583D01*
X148122824Y-39854480D01*
X148352381Y-39743932D01*
X148513185Y-39634296D01*
X147862294Y-38983405D01*
X147878942Y-38976510D01*
X148009970Y-38888960D01*
X148121401Y-38777529D01*
X148208951Y-38646501D01*
X148215846Y-38629853D01*
X148866545Y-39280552D01*
X148908545Y-39227886D01*
X149035941Y-39007230D01*
X149129026Y-38770053D01*
X149129031Y-38770036D01*
X149185726Y-38521638D01*
X149204767Y-38267563D01*
X149204767Y-38267554D01*
X149185726Y-38013479D01*
X149129031Y-37765081D01*
X149129026Y-37765064D01*
X149035941Y-37527887D01*
X149035942Y-37527887D01*
X148908544Y-37307230D01*
X148866546Y-37254565D01*
X148215846Y-37905264D01*
X148208951Y-37888617D01*
X148121401Y-37757589D01*
X148009970Y-37646158D01*
X147878942Y-37558608D01*
X147862292Y-37551711D01*
X148513185Y-36900820D01*
X148352377Y-36791183D01*
X148352376Y-36791182D01*
X148122823Y-36680637D01*
X148122825Y-36680637D01*
X147879347Y-36605534D01*
X147879341Y-36605532D01*
X147627404Y-36567559D01*
X147372595Y-36567559D01*
X147120658Y-36605532D01*
X147120652Y-36605534D01*
X146877175Y-36680637D01*
X146647624Y-36791182D01*
X146647616Y-36791187D01*
X146486813Y-36900820D01*
X147137705Y-37551712D01*
X147121058Y-37558608D01*
X146990030Y-37646158D01*
X146878599Y-37757589D01*
X146791049Y-37888617D01*
X146784153Y-37905265D01*
X146133453Y-37254565D01*
X146091455Y-37307229D01*
X145964058Y-37527887D01*
X145870973Y-37765064D01*
X145870968Y-37765081D01*
X145814273Y-38013479D01*
X145795233Y-38267554D01*
X144124767Y-38267554D01*
X144105726Y-38013479D01*
X144049031Y-37765081D01*
X144049026Y-37765064D01*
X143955941Y-37527887D01*
X143955942Y-37527887D01*
X143828544Y-37307230D01*
X143786546Y-37254565D01*
X143135846Y-37905264D01*
X143128951Y-37888617D01*
X143041401Y-37757589D01*
X142929970Y-37646158D01*
X142798942Y-37558608D01*
X142782292Y-37551711D01*
X143433185Y-36900820D01*
X143272377Y-36791183D01*
X143272376Y-36791182D01*
X143042823Y-36680637D01*
X143042825Y-36680637D01*
X142799347Y-36605534D01*
X142799341Y-36605532D01*
X142547404Y-36567559D01*
X142292595Y-36567559D01*
X142040658Y-36605532D01*
X142040652Y-36605534D01*
X141797175Y-36680637D01*
X141567624Y-36791182D01*
X141567616Y-36791187D01*
X141406813Y-36900820D01*
X142057705Y-37551712D01*
X142041058Y-37558608D01*
X141910030Y-37646158D01*
X141798599Y-37757589D01*
X141711049Y-37888617D01*
X141704153Y-37905265D01*
X141053453Y-37254565D01*
X141011455Y-37307229D01*
X140884058Y-37527887D01*
X140790973Y-37765064D01*
X140790968Y-37765081D01*
X140734273Y-38013479D01*
X140715233Y-38267554D01*
X113262486Y-38267554D01*
X113334874Y-38138812D01*
X113339242Y-38131629D01*
X113636621Y-37678235D01*
X113641473Y-37671361D01*
X113969077Y-37239351D01*
X113974401Y-37232806D01*
X114330727Y-36824153D01*
X114336479Y-36817993D01*
X114719872Y-36434597D01*
X114726030Y-36428847D01*
X115134660Y-36072538D01*
X115141216Y-36067205D01*
X115573225Y-35739601D01*
X115580122Y-35734731D01*
X116033480Y-35437371D01*
X116040670Y-35432999D01*
X116513295Y-35167253D01*
X116520763Y-35163384D01*
X117010400Y-34930521D01*
X117018122Y-34927167D01*
X117522527Y-34728253D01*
X117530430Y-34725444D01*
X118047248Y-34561411D01*
X118055347Y-34559142D01*
X118582125Y-34430768D01*
X118590358Y-34429056D01*
X119124657Y-34336932D01*
X119133034Y-34335780D01*
X119672357Y-34280333D01*
X119680780Y-34279756D01*
X120223524Y-34261214D01*
X120227758Y-34261142D01*
X120274454Y-34261142D01*
X172249261Y-34261142D01*
X172294729Y-34261142D01*
X172298963Y-34261214D01*
G37*
%TD.AperFunction*%
%TD*%
M02*
