M48
; DRILL file {KiCad 8.0.7} date 2025-03-16T18:44:34-0400
; FORMAT={-:-/ absolute / metric / decimal}
; #@! TF.CreationDate,2025-03-16T18:44:34-04:00
; #@! TF.GenerationSoftware,Kicad,Pcbnew,8.0.7
; #@! TF.FileFunction,Plated,1,4,PTH
FMAT,2
METRIC
; #@! TA.AperFunction,Plated,PTH,ViaDrill
T1C0.300
; #@! TA.AperFunction,Plated,PTH,ComponentDrill
T2C0.300
; #@! TA.AperFunction,Plated,PTH,ComponentDrill
T3C0.600
; #@! TA.AperFunction,Plated,PTH,ComponentDrill
T4C0.750
; #@! TA.AperFunction,Plated,PTH,ComponentDrill
T5C1.000
; #@! TA.AperFunction,Plated,PTH,ComponentDrill
T6C1.500
; #@! TA.AperFunction,Plated,PTH,ComponentDrill
T7C1.600
%
G90
G05
T1
X113.22Y-60.36
X113.33Y-66.67
X113.37Y-72.27
X113.41Y-76.68
X113.41Y-79.93
X113.45Y-56.15
X113.53Y-47.44
X113.64Y-82.33
X113.68Y-44.27
X113.7Y-51.75
X113.75Y-39.425
X115.34Y-63.61
X115.4Y-48.958
X115.4Y-75.125
X115.425Y-36.95
X115.5Y-42.46
X115.585Y-86.0
X115.6Y-80.7
X116.16Y-69.02
X116.2Y-40.05
X116.2Y-60.65
X116.35Y-54.25
X116.425Y-82.4
X116.612Y-104.597
X117.36Y-79.338
X117.63Y-46.21
X117.725Y-38.175
X117.987Y-109.512
X117.987Y-119.512
X117.987Y-129.512
X118.2Y-35.875
X118.4Y-66.825
X118.42Y-58.328
X118.625Y-62.55
X118.87Y-70.458
X119.07Y-73.06
X119.4Y-50.558
X119.4Y-53.958
X119.56Y-48.26
X120.175Y-75.925
X120.49Y-82.6
X120.57Y-79.68
X120.8Y-35.42
X120.91Y-67.11
X121.41Y-60.44
X121.88Y-38.82
X121.96Y-64.588
X122.19Y-71.218
X122.25Y-47.55
X122.525Y-36.45
X122.675Y-54.55
X122.71Y-57.728
X122.8Y-51.158
X122.82Y-78.728
X122.94Y-75.728
X123.762Y-105.297
X124.15Y-61.048
X124.239Y-86.0
X124.275Y-82.4
X124.49Y-78.64
X124.56Y-75.7
X124.6Y-39.758
X124.68Y-66.18
X124.86Y-63.658
X125.0Y-43.958
X125.07Y-72.1
X125.18Y-69.32
X125.275Y-49.75
X125.42Y-64.83
X125.76Y-58.9
X125.77Y-67.65
X125.8Y-73.21
X125.94Y-35.19
X125.98Y-61.75
X126.0Y-46.268
X126.03Y-76.51
X126.14Y-74.73
X126.19Y-70.45
X126.53Y-79.12
X126.6Y-53.558
X127.0Y-109.5
X127.0Y-119.5
X127.0Y-129.5
X127.26Y-136.61
X127.742Y-131.5
X127.767Y-118.0
X127.77Y-113.0
X127.8Y-36.268
X127.8Y-80.74
X128.0Y-39.868
X128.15Y-57.3
X128.4Y-43.868
X128.53Y-62.03
X128.53Y-65.49
X128.55Y-67.39
X128.62Y-69.36
X128.64Y-63.88
X128.64Y-73.78
X128.657Y-120.587
X128.72Y-109.55
X128.75Y-71.39
X128.75Y-76.06
X128.862Y-106.1
X128.862Y-107.825
X128.925Y-82.475
X129.2Y-48.468
X129.25Y-77.96
X129.64Y-72.67
X129.65Y-70.15
X129.8Y-55.558
X129.88Y-61.12
X130.02Y-59.55
X130.2Y-51.158
X130.36Y-76.73
X130.688Y-119.108
X130.9Y-78.71
X130.98Y-70.18
X131.2Y-38.468
X131.2Y-45.868
X131.29Y-60.41
X131.34Y-76.24
X131.4Y-91.6
X131.62Y-95.45
X131.78Y-61.988
X131.86Y-82.57
X131.93Y-58.968
X131.963Y-117.282
X132.0Y-67.058
X132.0Y-68.058
X132.0Y-69.058
X132.0Y-70.058
X132.0Y-71.058
X132.0Y-72.058
X132.0Y-77.558
X132.0Y-78.558
X132.0Y-79.558
X132.04Y-65.35
X132.11Y-63.93
X132.23Y-76.41
X132.4Y-74.558
X132.46Y-55.958
X132.48Y-35.26
X132.49Y-73.658
X132.55Y-75.208
X132.59Y-97.72
X132.6Y-42.068
X132.675Y-54.183
X132.925Y-51.525
X133.0Y-67.058
X133.107Y-135.972
X133.188Y-127.218
X133.197Y-125.127
X133.207Y-126.147
X133.275Y-63.833
X133.65Y-65.4
X133.82Y-58.218
X133.92Y-94.32
X133.95Y-49.318
X133.95Y-61.233
X134.0Y-67.058
X134.2Y-36.468
X134.4Y-44.068
X134.44Y-104.6
X134.46Y-98.67
X134.6Y-137.81
X134.7Y-62.583
X134.725Y-47.343
X134.725Y-55.558
X134.8Y-39.868
X134.85Y-59.633
X134.975Y-53.508
X134.99Y-67.888
X135.0Y-67.058
X135.0Y-68.798
X135.0Y-69.708
X135.06Y-50.58
X135.07Y-72.318
X135.07Y-78.73
X135.12Y-52.21
X135.15Y-145.73
X135.19Y-95.94
X135.25Y-109.25
X135.45Y-108.575
X135.77Y-72.318
X135.8Y-60.983
X135.9Y-65.158
X135.9Y-108.0
X135.92Y-81.18
X136.0Y-69.758
X136.01Y-78.7
X136.07Y-74.561
X136.09Y-132.488
X136.125Y-48.418
X136.162Y-106.962
X136.2Y-49.53
X136.2Y-68.358
X136.25Y-58.233
X136.252Y-97.873
X136.325Y-55.758
X136.35Y-105.34
X136.46Y-63.198
X136.56Y-66.818
X136.6Y-52.558
X136.625Y-45.968
X136.662Y-124.022
X136.775Y-119.285
X136.787Y-127.797
X136.86Y-81.18
X136.92Y-78.71
X136.975Y-59.808
X137.0Y-53.958
X137.0Y-69.758
X137.157Y-117.557
X137.2Y-35.668
X137.2Y-37.268
X137.2Y-39.068
X137.2Y-41.068
X137.2Y-43.468
X137.31Y-140.25
X137.5Y-68.558
X137.6Y-49.53
X137.65Y-58.208
X137.78Y-78.7
X137.925Y-46.718
X137.95Y-48.35
X138.0Y-69.758
X138.09Y-64.918
X138.2Y-55.758
X138.23Y-89.39
X138.262Y-140.223
X138.29Y-62.298
X138.3Y-67.768
X138.31Y-60.578
X138.7Y-52.65
X138.78Y-82.62
X138.94Y-66.028
X138.99Y-80.01
X139.0Y-49.468
X139.177Y-100.87
X139.177Y-104.26
X139.177Y-106.347
X139.177Y-107.157
X139.177Y-107.947
X139.2Y-47.668
X139.2Y-54.758
X139.225Y-109.435
X139.3Y-68.958
X139.374Y-100.114
X139.5Y-36.343
X139.5Y-37.268
X139.5Y-38.268
X139.5Y-39.268
X139.5Y-40.268
X139.5Y-41.268
X139.5Y-42.268
X139.5Y-43.268
X139.5Y-44.268
X139.5Y-45.268
X139.5Y-46.268
X139.525Y-35.518
X139.588Y-127.047
X139.65Y-63.718
X139.69Y-53.38
X139.74Y-59.288
X139.862Y-125.122
X140.0Y-82.65
X140.03Y-67.478
X140.07Y-99.927
X140.09Y-79.97
X140.18Y-62.118
X140.25Y-49.48
X140.25Y-70.808
X140.35Y-57.058
X140.368Y-56.058
X140.4Y-48.468
X140.4Y-54.358
X140.475Y-46.075
X140.525Y-35.493
X140.53Y-60.558
X140.6Y-47.068
X140.6Y-52.358
X140.6Y-65.868
X140.63Y-89.38
X140.75Y-36.675
X140.825Y-41.5
X140.877Y-110.447
X140.887Y-109.387
X141.03Y-82.61
X141.11Y-79.94
X141.11Y-97.08
X141.188Y-138.072
X141.2Y-64.058
X141.22Y-95.83
X141.225Y-70.808
X141.45Y-46.05
X141.454Y-91.92
X141.512Y-131.898
X141.525Y-35.493
X141.6Y-47.868
X141.6Y-49.468
X141.612Y-114.438
X141.688Y-130.438
X141.7Y-68.258
X141.787Y-104.797
X141.8Y-54.758
X141.8Y-62.028
X141.8Y-66.858
X141.882Y-60.36
X141.92Y-69.198
X141.957Y-65.36
X142.03Y-69.968
X142.14Y-82.62
X142.18Y-52.628
X142.2Y-63.158
X142.47Y-72.168
X142.475Y-46.025
X142.487Y-114.438
X142.525Y-35.493
X142.548Y-74.341
X142.551Y-73.441
X142.6Y-47.268
X142.6Y-48.668
X142.6Y-49.668
X142.63Y-75.628
X142.633Y-98.51
X142.725Y-40.925
X142.81Y-138.747
X142.97Y-96.428
X142.97Y-94.37
X143.06Y-89.44
X143.1Y-55.337
X143.1Y-56.658
X143.1Y-57.458
X143.312Y-114.438
X143.362Y-106.647
X143.43Y-82.61
X143.487Y-123.647
X143.525Y-35.493
X143.675Y-45.875
X143.73Y-95.42
X143.8Y-53.825
X143.92Y-110.415
X143.97Y-50.808
X143.97Y-51.808
X143.97Y-52.808
X143.987Y-111.097
X144.0Y-46.768
X144.0Y-47.668
X144.0Y-48.668
X144.0Y-49.668
X144.0Y-54.758
X144.1Y-45.025
X144.2Y-101.947
X144.525Y-35.493
X144.55Y-97.0
X144.607Y-94.992
X144.625Y-77.183
X144.7Y-59.133
X144.7Y-60.133
X144.7Y-61.133
X144.7Y-62.133
X144.7Y-63.133
X144.7Y-64.133
X144.7Y-65.133
X144.7Y-66.133
X144.7Y-67.133
X144.7Y-82.61
X144.875Y-91.985
X144.95Y-36.775
X145.025Y-38.525
X145.525Y-35.493
X145.562Y-119.672
X145.7Y-99.927
X145.737Y-140.177
X145.8Y-54.758
X145.84Y-50.868
X145.84Y-51.868
X145.84Y-52.868
X145.85Y-45.05
X145.85Y-53.825
X145.99Y-89.3
X146.0Y-47.668
X146.0Y-48.668
X146.525Y-35.493
X146.55Y-58.583
X146.55Y-59.633
X146.55Y-60.633
X146.55Y-61.633
X146.55Y-62.633
X146.55Y-63.633
X146.55Y-64.633
X146.55Y-65.633
X146.55Y-66.633
X146.588Y-105.197
X146.625Y-67.608
X146.722Y-46.595
X146.75Y-140.17
X146.8Y-55.158
X146.812Y-114.347
X146.825Y-49.568
X147.0Y-54.158
X147.025Y-51.3
X147.237Y-112.422
X147.29Y-47.648
X147.3Y-68.408
X147.35Y-40.725
X147.35Y-45.8
X147.42Y-52.698
X147.468Y-139.357
X147.525Y-35.493
X147.56Y-66.14
X147.6Y-48.668
X147.65Y-62.65
X147.66Y-82.02
X147.68Y-64.58
X147.68Y-78.71
X147.7Y-69.858
X147.75Y-80.33
X147.8Y-58.758
X147.8Y-61.158
X148.0Y-59.958
X148.0Y-70.92
X148.025Y-54.75
X148.29Y-119.665
X148.3Y-46.16
X148.338Y-97.547
X148.4Y-53.55
X148.43Y-77.05
X148.47Y-66.84
X148.525Y-35.493
X148.58Y-63.58
X148.63Y-68.61
X148.65Y-51.4
X148.7Y-62.32
X148.7Y-65.63
X148.75Y-70.1
X148.787Y-107.405
X148.8Y-47.668
X148.86Y-89.39
X149.0Y-48.868
X149.0Y-82.07
X149.1Y-36.55
X149.1Y-40.925
X149.28Y-142.78
X149.3Y-56.258
X149.31Y-46.2
X149.31Y-78.96
X149.325Y-57.758
X149.35Y-60.88
X149.525Y-35.493
X149.612Y-110.172
X149.69Y-70.86
X149.737Y-91.797
X149.8Y-52.758
X149.8Y-54.558
X149.8Y-59.08
X149.85Y-77.56
X149.963Y-102.867
X150.04Y-80.5
X150.118Y-95.767
X150.15Y-46.15
X150.22Y-70.03
X150.225Y-36.325
X150.225Y-37.225
X150.225Y-38.225
X150.225Y-39.225
X150.225Y-40.225
X150.225Y-41.225
X150.225Y-42.225
X150.225Y-43.225
X150.225Y-44.225
X150.225Y-45.225
X150.4Y-47.468
X150.4Y-49.068
X150.425Y-35.475
X150.45Y-75.824
X150.52Y-60.9
X150.58Y-82.16
X150.8Y-55.558
X150.8Y-56.958
X150.89Y-59.69
X151.0Y-71.158
X151.127Y-136.308
X151.14Y-78.66
X151.2Y-53.758
X151.4Y-70.15
X151.43Y-51.66
X151.46Y-80.55
X151.73Y-66.96
X151.8Y-49.868
X151.82Y-64.95
X151.94Y-68.89
X152.2Y-48.268
X152.22Y-60.39
X152.23Y-76.2
X152.4Y-35.868
X152.4Y-37.668
X152.4Y-40.068
X152.4Y-42.068
X152.4Y-44.068
X152.4Y-46.268
X152.4Y-55.558
X152.41Y-77.56
X152.43Y-142.58
X152.5Y-70.97
X152.51Y-82.14
X152.55Y-68.22
X152.64Y-65.86
X152.66Y-63.0
X152.677Y-102.825
X152.69Y-61.58
X152.69Y-64.44
X152.69Y-67.05
X152.8Y-69.85
X152.84Y-79.1
X152.938Y-121.022
X153.0Y-53.358
X153.0Y-57.558
X153.21Y-80.64
X153.45Y-58.45
X154.02Y-77.22
X154.08Y-51.5
X154.2Y-47.268
X154.2Y-55.558
X154.39Y-59.15
X154.4Y-39.068
X154.4Y-49.668
X154.6Y-43.868
X154.6Y-57.158
X154.82Y-82.22
X154.9Y-80.48
X154.985Y-60.015
X155.0Y-36.668
X155.0Y-53.758
X155.0Y-78.71
X155.3Y-70.85
X155.305Y-61.957
X155.317Y-114.442
X155.335Y-69.487
X155.365Y-63.257
X155.365Y-68.237
X155.385Y-60.867
X155.385Y-66.037
X155.4Y-41.868
X155.445Y-64.847
X155.445Y-67.177
X155.922Y-133.282
X156.2Y-45.618
X156.205Y-105.025
X156.315Y-70.147
X156.385Y-68.815
X156.4Y-48.118
X156.44Y-57.838
X156.51Y-146.66
X156.585Y-62.815
X156.585Y-65.615
X156.67Y-51.82
X156.785Y-59.615
X156.885Y-67.015
X157.0Y-55.758
X157.36Y-72.46
X157.5Y-35.26
X157.575Y-49.668
X157.875Y-43.218
X158.15Y-63.67
X158.21Y-71.24
X158.4Y-39.068
X158.425Y-57.133
X158.57Y-62.05
X158.63Y-65.68
X158.63Y-68.22
X159.0Y-52.958
X159.01Y-74.17
X159.2Y-40.868
X159.44Y-59.79
X159.475Y-46.693
X159.48Y-70.18
X159.95Y-72.615
X160.0Y-36.468
X160.09Y-63.97
X160.38Y-61.5
X160.48Y-75.69
X160.51Y-82.57
X160.525Y-94.35
X160.55Y-100.25
X160.85Y-57.708
X160.85Y-67.11
X160.95Y-79.4
X161.06Y-73.89
X161.125Y-77.55
X161.22Y-71.24
X161.325Y-81.375
X161.5Y-54.633
X161.73Y-59.79
X161.84Y-39.13
X162.12Y-45.2
X162.975Y-42.118
X163.06Y-70.07
X163.1Y-82.25
X163.145Y-49.56
X163.51Y-54.56
X163.79Y-56.37
X163.84Y-35.42
X164.146Y-95.843
X164.21Y-94.312
X164.25Y-44.95
X164.36Y-58.63
X164.445Y-53.16
X164.6Y-38.468
X164.71Y-74.95
X164.71Y-79.16
X164.873Y-105.442
X164.88Y-71.97
X165.095Y-64.66
X165.102Y-90.623
X165.438Y-109.562
X165.487Y-119.512
X165.487Y-129.512
X165.675Y-55.158
X165.69Y-57.24
X166.25Y-77.17
X166.798Y-106.692
X166.82Y-61.48
X166.925Y-46.293
X166.977Y-89.522
X167.075Y-41.85
X167.135Y-91.43
X167.345Y-49.51
X167.42Y-53.56
X167.48Y-35.3
X167.61Y-73.21
X167.72Y-51.85
X167.77Y-69.99
X167.92Y-60.06
X168.23Y-44.84
X168.242Y-84.99
X168.4Y-82.025
X168.768Y-105.427
X168.8Y-57.758
X168.84Y-76.68
X168.903Y-90.647
X168.918Y-106.537
X169.09Y-79.82
X169.725Y-52.383
X169.92Y-73.46
X170.0Y-38.633
X170.32Y-57.81
X170.48Y-98.5
X170.75Y-47.2
X170.8Y-54.21
X170.84Y-35.69
X170.882Y-89.483
X170.9Y-108.09
X171.12Y-70.5
X172.425Y-82.175
X172.48Y-74.7
X172.498Y-105.367
X172.648Y-106.542
X172.702Y-90.647
X172.72Y-52.06
X172.875Y-58.208
X173.14Y-78.67
X173.375Y-53.483
X173.74Y-46.19
X174.17Y-37.74
X174.22Y-79.33
X174.24Y-35.65
X174.38Y-71.64
X174.45Y-109.55
X174.482Y-99.822
X174.5Y-119.5
X174.5Y-129.5
X174.51Y-68.54
X174.595Y-60.885
X174.642Y-89.492
X174.748Y-106.842
X174.792Y-85.06
X174.802Y-102.447
X175.46Y-65.79
X176.36Y-75.03
X176.4Y-55.125
X176.49Y-40.21
X176.82Y-82.38
X177.25Y-51.333
X177.45Y-37.62
X177.5Y-46.5
X177.52Y-61.07
X178.35Y-66.308
X178.96Y-72.78
X178.96Y-76.54
X179.08Y-41.03
X179.09Y-82.51
X179.16Y-79.66
X179.23Y-69.53
X179.27Y-48.18
X179.27Y-54.25
X179.27Y-58.12
X179.275Y-64.4
X179.28Y-44.39
T2
X143.0Y-103.177
X143.0Y-104.377
X143.0Y-105.578
X144.15Y-103.177
X144.2Y-104.377
X144.2Y-105.578
X145.0Y-73.208
X145.0Y-74.483
X145.4Y-103.177
X145.4Y-104.377
X145.4Y-105.578
X146.275Y-73.208
X146.275Y-74.483
T4
X127.58Y-141.81
X129.58Y-141.81
X135.8Y-86.7
X137.8Y-86.7
X139.8Y-86.7
X141.8Y-86.7
X143.8Y-86.7
X145.8Y-86.7
X147.8Y-86.7
X149.8Y-86.7
T5
X125.162Y-93.108
X125.162Y-95.647
X125.162Y-98.188
X125.162Y-100.727
X154.067Y-109.372
X156.607Y-109.372
X159.147Y-109.372
X161.688Y-109.372
T6
X144.96Y-40.808
T7
X142.42Y-38.268
X142.42Y-43.348
X147.5Y-38.268
X147.5Y-43.348
T3
G00X137.588Y-141.767
M15
G01X137.588Y-142.868
M16
G05
G00X137.588Y-146.097
M15
G01X137.588Y-146.897
M16
G05
G00X146.227Y-141.767
M15
G01X146.227Y-142.868
M16
G05
G00X146.227Y-146.097
M15
G01X146.227Y-146.897
M16
G05
M30
