%TF.GenerationSoftware,KiCad,Pcbnew,8.0.7*%
%TF.CreationDate,2025-03-17T23:14:39-04:00*%
%TF.ProjectId,RP2350_V2,52503233-3530-45f5-9632-2e6b69636164,2.0*%
%TF.SameCoordinates,Original*%
%TF.FileFunction,Paste,Top*%
%TF.FilePolarity,Positive*%
%FSLAX46Y46*%
G04 Gerber Fmt 4.6, Leading zero omitted, Abs format (unit mm)*
G04 Created by KiCad (PCBNEW 8.0.7) date 2025-03-17 23:14:39*
%MOMM*%
%LPD*%
G01*
G04 APERTURE LIST*
G04 Aperture macros list*
%AMRoundRect*
0 Rectangle with rounded corners*
0 $1 Rounding radius*
0 $2 $3 $4 $5 $6 $7 $8 $9 X,Y pos of 4 corners*
0 Add a 4 corners polygon primitive as box body*
4,1,4,$2,$3,$4,$5,$6,$7,$8,$9,$2,$3,0*
0 Add four circle primitives for the rounded corners*
1,1,$1+$1,$2,$3*
1,1,$1+$1,$4,$5*
1,1,$1+$1,$6,$7*
1,1,$1+$1,$8,$9*
0 Add four rect primitives between the rounded corners*
20,1,$1+$1,$2,$3,$4,$5,0*
20,1,$1+$1,$4,$5,$6,$7,0*
20,1,$1+$1,$6,$7,$8,$9,0*
20,1,$1+$1,$8,$9,$2,$3,0*%
%AMFreePoly0*
4,1,18,-0.437500,0.050000,-0.433694,0.069134,-0.422855,0.085355,-0.406634,0.096194,-0.387500,0.100000,0.387500,0.100000,0.437500,0.050000,0.437500,-0.050000,0.433694,-0.069134,0.422855,-0.085355,0.406634,-0.096194,0.387500,-0.100000,-0.387500,-0.100000,-0.406634,-0.096194,-0.422855,-0.085355,-0.433694,-0.069134,-0.437500,-0.050000,-0.437500,0.050000,-0.437500,0.050000,$1*%
%AMFreePoly1*
4,1,18,-0.437500,0.050000,-0.433694,0.069134,-0.422855,0.085355,-0.406634,0.096194,-0.387500,0.100000,0.387500,0.100000,0.406634,0.096194,0.422855,0.085355,0.433694,0.069134,0.437500,0.050000,0.437500,-0.050000,0.387500,-0.100000,-0.387500,-0.100000,-0.406634,-0.096194,-0.422855,-0.085355,-0.433694,-0.069134,-0.437500,-0.050000,-0.437500,0.050000,-0.437500,0.050000,$1*%
%AMFreePoly2*
4,1,18,-0.100000,0.387500,-0.050000,0.437500,0.050000,0.437500,0.069134,0.433694,0.085355,0.422855,0.096194,0.406634,0.100000,0.387500,0.100000,-0.387500,0.096194,-0.406634,0.085355,-0.422855,0.069134,-0.433694,0.050000,-0.437500,-0.050000,-0.437500,-0.069134,-0.433694,-0.085355,-0.422855,-0.096194,-0.406634,-0.100000,-0.387500,-0.100000,0.387500,-0.100000,0.387500,$1*%
%AMFreePoly3*
4,1,18,-0.100000,0.387500,-0.096194,0.406634,-0.085355,0.422855,-0.069134,0.433694,-0.050000,0.437500,0.050000,0.437500,0.100000,0.387500,0.100000,-0.387500,0.096194,-0.406634,0.085355,-0.422855,0.069134,-0.433694,0.050000,-0.437500,-0.050000,-0.437500,-0.069134,-0.433694,-0.085355,-0.422855,-0.096194,-0.406634,-0.100000,-0.387500,-0.100000,0.387500,-0.100000,0.387500,$1*%
%AMFreePoly4*
4,1,18,-0.437500,0.050000,-0.433694,0.069134,-0.422855,0.085355,-0.406634,0.096194,-0.387500,0.100000,0.387500,0.100000,0.406634,0.096194,0.422855,0.085355,0.433694,0.069134,0.437500,0.050000,0.437500,-0.050000,0.433694,-0.069134,0.422855,-0.085355,0.406634,-0.096194,0.387500,-0.100000,-0.387500,-0.100000,-0.437500,-0.050000,-0.437500,0.050000,-0.437500,0.050000,$1*%
%AMFreePoly5*
4,1,18,-0.437500,0.050000,-0.387500,0.100000,0.387500,0.100000,0.406634,0.096194,0.422855,0.085355,0.433694,0.069134,0.437500,0.050000,0.437500,-0.050000,0.433694,-0.069134,0.422855,-0.085355,0.406634,-0.096194,0.387500,-0.100000,-0.387500,-0.100000,-0.406634,-0.096194,-0.422855,-0.085355,-0.433694,-0.069134,-0.437500,-0.050000,-0.437500,0.050000,-0.437500,0.050000,$1*%
%AMFreePoly6*
4,1,18,-0.100000,0.387500,-0.096194,0.406634,-0.085355,0.422855,-0.069134,0.433694,-0.050000,0.437500,0.050000,0.437500,0.069134,0.433694,0.085355,0.422855,0.096194,0.406634,0.100000,0.387500,0.100000,-0.387500,0.050000,-0.437500,-0.050000,-0.437500,-0.069134,-0.433694,-0.085355,-0.422855,-0.096194,-0.406634,-0.100000,-0.387500,-0.100000,0.387500,-0.100000,0.387500,$1*%
%AMFreePoly7*
4,1,18,-0.100000,0.387500,-0.096194,0.406634,-0.085355,0.422855,-0.069134,0.433694,-0.050000,0.437500,0.050000,0.437500,0.069134,0.433694,0.085355,0.422855,0.096194,0.406634,0.100000,0.387500,0.100000,-0.387500,0.096194,-0.406634,0.085355,-0.422855,0.069134,-0.433694,0.050000,-0.437500,-0.050000,-0.437500,-0.100000,-0.387500,-0.100000,0.387500,-0.100000,0.387500,$1*%
G04 Aperture macros list end*
%ADD10C,0.000000*%
%ADD11RoundRect,0.140000X0.170000X-0.140000X0.170000X0.140000X-0.170000X0.140000X-0.170000X-0.140000X0*%
%ADD12RoundRect,0.140000X-0.140000X-0.170000X0.140000X-0.170000X0.140000X0.170000X-0.140000X0.170000X0*%
%ADD13RoundRect,0.140000X-0.170000X0.140000X-0.170000X-0.140000X0.170000X-0.140000X0.170000X0.140000X0*%
%ADD14RoundRect,0.135000X0.185000X-0.135000X0.185000X0.135000X-0.185000X0.135000X-0.185000X-0.135000X0*%
%ADD15R,1.701800X0.990600*%
%ADD16R,0.762000X0.254000*%
%ADD17R,0.254000X0.762000*%
%ADD18R,2.641600X2.641600*%
%ADD19R,0.845299X0.354800*%
%ADD20RoundRect,0.375000X-0.375000X-0.875000X0.375000X-0.875000X0.375000X0.875000X-0.375000X0.875000X0*%
%ADD21RoundRect,0.140000X0.140000X0.170000X-0.140000X0.170000X-0.140000X-0.170000X0.140000X-0.170000X0*%
%ADD22R,0.925000X2.300000*%
%ADD23R,0.925000X1.300000*%
%ADD24R,0.800000X0.800000*%
%ADD25R,0.650000X1.100000*%
%ADD26RoundRect,0.135000X-0.135000X-0.185000X0.135000X-0.185000X0.135000X0.185000X-0.135000X0.185000X0*%
%ADD27R,1.100000X0.650000*%
%ADD28R,2.300000X0.925000*%
%ADD29R,1.300000X0.925000*%
%ADD30RoundRect,0.135000X0.135000X0.185000X-0.135000X0.185000X-0.135000X-0.185000X0.135000X-0.185000X0*%
%ADD31R,0.228600X0.406400*%
%ADD32R,0.700000X1.700000*%
%ADD33R,1.193800X1.092200*%
%ADD34RoundRect,0.147500X0.172500X-0.147500X0.172500X0.147500X-0.172500X0.147500X-0.172500X-0.147500X0*%
%ADD35R,0.810000X0.930000*%
%ADD36RoundRect,0.225000X-0.375000X0.225000X-0.375000X-0.225000X0.375000X-0.225000X0.375000X0.225000X0*%
%ADD37RoundRect,0.135000X-0.185000X0.135000X-0.185000X-0.135000X0.185000X-0.135000X0.185000X0.135000X0*%
%ADD38RoundRect,0.250000X-0.475000X0.250000X-0.475000X-0.250000X0.475000X-0.250000X0.475000X0.250000X0*%
%ADD39RoundRect,0.150000X-0.512500X-0.150000X0.512500X-0.150000X0.512500X0.150000X-0.512500X0.150000X0*%
%ADD40R,1.400000X1.100000*%
%ADD41RoundRect,0.250000X0.250000X0.475000X-0.250000X0.475000X-0.250000X-0.475000X0.250000X-0.475000X0*%
%ADD42RoundRect,0.250000X-0.250000X-0.475000X0.250000X-0.475000X0.250000X0.475000X-0.250000X0.475000X0*%
%ADD43R,0.355600X0.787400*%
%ADD44R,0.650001X0.249999*%
%ADD45RoundRect,0.150000X-0.150000X-0.425000X0.150000X-0.425000X0.150000X0.425000X-0.150000X0.425000X0*%
%ADD46RoundRect,0.075000X-0.075000X-0.500000X0.075000X-0.500000X0.075000X0.500000X-0.075000X0.500000X0*%
%ADD47O,1.000000X2.100000*%
%ADD48O,1.000000X1.800000*%
%ADD49R,0.470000X0.530000*%
%ADD50R,1.524000X0.533400*%
%ADD51RoundRect,0.218750X-0.218750X-0.381250X0.218750X-0.381250X0.218750X0.381250X-0.218750X0.381250X0*%
%ADD52R,0.910000X0.930000*%
%ADD53RoundRect,0.147500X0.147500X0.172500X-0.147500X0.172500X-0.147500X-0.172500X0.147500X-0.172500X0*%
%ADD54R,0.558800X1.981200*%
%ADD55R,0.863600X0.609600*%
%ADD56RoundRect,0.250000X0.350000X0.350000X-0.350000X0.350000X-0.350000X-0.350000X0.350000X-0.350000X0*%
%ADD57FreePoly0,180.000000*%
%ADD58RoundRect,0.050000X0.387500X0.050000X-0.387500X0.050000X-0.387500X-0.050000X0.387500X-0.050000X0*%
%ADD59FreePoly1,180.000000*%
%ADD60FreePoly2,180.000000*%
%ADD61RoundRect,0.050000X0.050000X0.387500X-0.050000X0.387500X-0.050000X-0.387500X0.050000X-0.387500X0*%
%ADD62FreePoly3,180.000000*%
%ADD63FreePoly4,180.000000*%
%ADD64FreePoly5,180.000000*%
%ADD65FreePoly6,180.000000*%
%ADD66FreePoly7,180.000000*%
%ADD67R,1.050000X2.200000*%
%ADD68R,1.000000X1.050000*%
G04 APERTURE END LIST*
D10*
%TO.C,U7*%
G36*
X145537500Y-72520000D02*
G01*
X144416700Y-72520000D01*
X144416700Y-71399200D01*
X145537500Y-71399200D01*
X145537500Y-72520000D01*
G37*
G36*
X145537500Y-73840800D02*
G01*
X144416700Y-73840800D01*
X144416700Y-72720000D01*
X145537500Y-72720000D01*
X145537500Y-73840800D01*
G37*
G36*
X146858300Y-72520000D02*
G01*
X145737500Y-72520000D01*
X145737500Y-71399200D01*
X146858300Y-71399200D01*
X146858300Y-72520000D01*
G37*
G36*
X146858300Y-73840800D02*
G01*
X145737500Y-73840800D01*
X145737500Y-72720000D01*
X146858300Y-72720000D01*
X146858300Y-73840800D01*
G37*
%TO.C,U3*%
G36*
X136617701Y-126391800D02*
G01*
X136617701Y-127066800D01*
X136567702Y-127116800D01*
X136457702Y-127116800D01*
X136407702Y-127066800D01*
X136407702Y-126741800D01*
X136317702Y-126651800D01*
X135892702Y-126651800D01*
X135842702Y-126601800D01*
X135842702Y-126391800D01*
X135892702Y-126341801D01*
X136567702Y-126341801D01*
X136617701Y-126391800D01*
G37*
G36*
X139142700Y-126391800D02*
G01*
X139142700Y-126601800D01*
X139092700Y-126651800D01*
X138667700Y-126651800D01*
X138577700Y-126741800D01*
X138577700Y-127066800D01*
X138527700Y-127116800D01*
X138417700Y-127116800D01*
X138367701Y-127066800D01*
X138367701Y-126391800D01*
X138417700Y-126341801D01*
X139092700Y-126341801D01*
X139142700Y-126391800D01*
G37*
G36*
X138527700Y-124816802D02*
G01*
X138577700Y-124866802D01*
X138577700Y-125191800D01*
X138667700Y-125281800D01*
X139092700Y-125281800D01*
X139142700Y-125331800D01*
X139142700Y-125541802D01*
X139092700Y-125591802D01*
X138417700Y-125591802D01*
X138367701Y-125541802D01*
X138367701Y-124866802D01*
X138417700Y-124816800D01*
X138527700Y-124816800D01*
X138527700Y-124816802D01*
G37*
G36*
X136567702Y-124816802D02*
G01*
X136617701Y-124866802D01*
X136617701Y-125541802D01*
X136567702Y-125591802D01*
X135892702Y-125591802D01*
X135842702Y-125541802D01*
X135842702Y-125331800D01*
X135892702Y-125281800D01*
X136317702Y-125281800D01*
X136407702Y-125191800D01*
X136407702Y-124866802D01*
X136457702Y-124816802D01*
X136457702Y-124816800D01*
X136567702Y-124816800D01*
X136567702Y-124816802D01*
G37*
G36*
X137077457Y-124817760D02*
G01*
X137086837Y-124820605D01*
X137095481Y-124825227D01*
X137103057Y-124831445D01*
X137109275Y-124839022D01*
X137113896Y-124847666D01*
X137116740Y-124857046D01*
X137117703Y-124866800D01*
X137117703Y-125816800D01*
X137116740Y-125826554D01*
X137113896Y-125835934D01*
X137109275Y-125844578D01*
X137103057Y-125852155D01*
X137095481Y-125858372D01*
X137086837Y-125862995D01*
X137077457Y-125865840D01*
X137067703Y-125866800D01*
X136917703Y-125866800D01*
X136907947Y-125865840D01*
X136898567Y-125862995D01*
X136889923Y-125858372D01*
X136882347Y-125852155D01*
X136876129Y-125844578D01*
X136871508Y-125835934D01*
X136868664Y-125826554D01*
X136867704Y-125816800D01*
X136867704Y-124866800D01*
X136868664Y-124857046D01*
X136871508Y-124847666D01*
X136876129Y-124839022D01*
X136882347Y-124831445D01*
X136889923Y-124825227D01*
X136898567Y-124820605D01*
X136907947Y-124817760D01*
X136917703Y-124816800D01*
X137067703Y-124816800D01*
X137077457Y-124817760D01*
G37*
G36*
X137077457Y-126067760D02*
G01*
X137086837Y-126070605D01*
X137095481Y-126075228D01*
X137103057Y-126081445D01*
X137109275Y-126089022D01*
X137113896Y-126097666D01*
X137116740Y-126107046D01*
X137117703Y-126116800D01*
X137117703Y-127066800D01*
X137116740Y-127076554D01*
X137113896Y-127085934D01*
X137109275Y-127094578D01*
X137103057Y-127102155D01*
X137095481Y-127108373D01*
X137086837Y-127112995D01*
X137077457Y-127115840D01*
X137067703Y-127116800D01*
X136917703Y-127116800D01*
X136907947Y-127115840D01*
X136898567Y-127112995D01*
X136889923Y-127108373D01*
X136882347Y-127102155D01*
X136876129Y-127094578D01*
X136871508Y-127085934D01*
X136868664Y-127076554D01*
X136867704Y-127066800D01*
X136867704Y-126116800D01*
X136868664Y-126107046D01*
X136871508Y-126097666D01*
X136876129Y-126089022D01*
X136882347Y-126081445D01*
X136889923Y-126075228D01*
X136898567Y-126070605D01*
X136907947Y-126067760D01*
X136917703Y-126066800D01*
X137067703Y-126066800D01*
X137077457Y-126067760D01*
G37*
G36*
X137577456Y-124817760D02*
G01*
X137586836Y-124820605D01*
X137595480Y-124825227D01*
X137603056Y-124831445D01*
X137609274Y-124839022D01*
X137613895Y-124847666D01*
X137616739Y-124857046D01*
X137617699Y-124866800D01*
X137617699Y-125816800D01*
X137616739Y-125826554D01*
X137613895Y-125835934D01*
X137609274Y-125844578D01*
X137603056Y-125852155D01*
X137595480Y-125858372D01*
X137586836Y-125862995D01*
X137577456Y-125865840D01*
X137567700Y-125866800D01*
X137417702Y-125866800D01*
X137407946Y-125865840D01*
X137398566Y-125862995D01*
X137389922Y-125858372D01*
X137382346Y-125852155D01*
X137376128Y-125844578D01*
X137371507Y-125835934D01*
X137368663Y-125826554D01*
X137367703Y-125816800D01*
X137367703Y-124866800D01*
X137368663Y-124857046D01*
X137371507Y-124847666D01*
X137376128Y-124839022D01*
X137382346Y-124831445D01*
X137389922Y-124825227D01*
X137398566Y-124820605D01*
X137407946Y-124817760D01*
X137417702Y-124816800D01*
X137567700Y-124816800D01*
X137577456Y-124817760D01*
G37*
G36*
X137577456Y-126067760D02*
G01*
X137586836Y-126070605D01*
X137595480Y-126075228D01*
X137603056Y-126081445D01*
X137609274Y-126089022D01*
X137613895Y-126097666D01*
X137616739Y-126107046D01*
X137617699Y-126116800D01*
X137617699Y-127066800D01*
X137616739Y-127076554D01*
X137613895Y-127085934D01*
X137609274Y-127094578D01*
X137603056Y-127102155D01*
X137595480Y-127108373D01*
X137586836Y-127112995D01*
X137577456Y-127115840D01*
X137567700Y-127116800D01*
X137417702Y-127116800D01*
X137407946Y-127115840D01*
X137398566Y-127112995D01*
X137389922Y-127108373D01*
X137382346Y-127102155D01*
X137376128Y-127094578D01*
X137371507Y-127085934D01*
X137368663Y-127076554D01*
X137367703Y-127066800D01*
X137367703Y-126116800D01*
X137368663Y-126107046D01*
X137371507Y-126097666D01*
X137376128Y-126089022D01*
X137382346Y-126081445D01*
X137389922Y-126075228D01*
X137398566Y-126070605D01*
X137407946Y-126067760D01*
X137417702Y-126066800D01*
X137567700Y-126066800D01*
X137577456Y-126067760D01*
G37*
G36*
X138077455Y-124817760D02*
G01*
X138086835Y-124820605D01*
X138095479Y-124825227D01*
X138103055Y-124831445D01*
X138109273Y-124839022D01*
X138113894Y-124847666D01*
X138116738Y-124857046D01*
X138117698Y-124866800D01*
X138117698Y-125816800D01*
X138116738Y-125826554D01*
X138113894Y-125835934D01*
X138109273Y-125844578D01*
X138103055Y-125852155D01*
X138095479Y-125858372D01*
X138086835Y-125862995D01*
X138077455Y-125865840D01*
X138067699Y-125866800D01*
X137917699Y-125866800D01*
X137907945Y-125865840D01*
X137898565Y-125862995D01*
X137889921Y-125858372D01*
X137882345Y-125852155D01*
X137876127Y-125844578D01*
X137871506Y-125835934D01*
X137868662Y-125826554D01*
X137867699Y-125816800D01*
X137867699Y-124866800D01*
X137868662Y-124857046D01*
X137871506Y-124847666D01*
X137876127Y-124839022D01*
X137882345Y-124831445D01*
X137889921Y-124825227D01*
X137898565Y-124820605D01*
X137907945Y-124817760D01*
X137917699Y-124816800D01*
X138067699Y-124816800D01*
X138077455Y-124817760D01*
G37*
G36*
X138077455Y-126067760D02*
G01*
X138086835Y-126070605D01*
X138095479Y-126075228D01*
X138103055Y-126081445D01*
X138109273Y-126089022D01*
X138113894Y-126097666D01*
X138116738Y-126107046D01*
X138117698Y-126116800D01*
X138117698Y-127066800D01*
X138116738Y-127076554D01*
X138113894Y-127085934D01*
X138109273Y-127094578D01*
X138103055Y-127102155D01*
X138095479Y-127108373D01*
X138086835Y-127112995D01*
X138077455Y-127115840D01*
X138067699Y-127116800D01*
X137917699Y-127116800D01*
X137907945Y-127115840D01*
X137898565Y-127112995D01*
X137889921Y-127108373D01*
X137882345Y-127102155D01*
X137876127Y-127094578D01*
X137871506Y-127085934D01*
X137868662Y-127076554D01*
X137867699Y-127066800D01*
X137867699Y-126116800D01*
X137868662Y-126107046D01*
X137871506Y-126097666D01*
X137876127Y-126089022D01*
X137882345Y-126081445D01*
X137889921Y-126075228D01*
X137898565Y-126070605D01*
X137907945Y-126067760D01*
X137917699Y-126066800D01*
X138067699Y-126066800D01*
X138077455Y-126067760D01*
G37*
%TD*%
D11*
%TO.C,C4*%
X139162500Y-111292500D03*
X139162500Y-110332500D03*
%TD*%
D12*
%TO.C,C11*%
X150902500Y-102867500D03*
X151862500Y-102867500D03*
%TD*%
%TO.C,C59*%
X147440000Y-55022500D03*
X148400000Y-55022500D03*
%TD*%
D13*
%TO.C,C48*%
X139300000Y-68592500D03*
X139300000Y-69552500D03*
%TD*%
D14*
%TO.C,R22*%
X165907689Y-106540565D03*
X165907689Y-105520565D03*
%TD*%
D15*
%TO.C,SW9*%
X119642500Y-120000000D03*
X125357500Y-120000000D03*
X119642500Y-123000000D03*
X125357500Y-123000000D03*
%TD*%
D16*
%TO.C,U7*%
X143669000Y-71370000D03*
X143669000Y-71869999D03*
X143669000Y-72370000D03*
X143669000Y-72870000D03*
X143669000Y-73370001D03*
X143669000Y-73870000D03*
D17*
X144387500Y-74588500D03*
X144887499Y-74588500D03*
X145387500Y-74588500D03*
X145887500Y-74588500D03*
X146387501Y-74588500D03*
X146887500Y-74588500D03*
D16*
X147606000Y-73870000D03*
X147606000Y-73370001D03*
X147606000Y-72870000D03*
X147606000Y-72370000D03*
X147606000Y-71869999D03*
X147606000Y-71370000D03*
D17*
X146887500Y-70651500D03*
X146387501Y-70651500D03*
X145887500Y-70651500D03*
X145387500Y-70651500D03*
X144887499Y-70651500D03*
X144387500Y-70651500D03*
D18*
X145637500Y-72620000D03*
%TD*%
D19*
%TO.C,U5*%
X131978649Y-119347501D03*
X131978649Y-119997500D03*
X131978649Y-120647499D03*
X134246351Y-120647499D03*
X134246351Y-119997500D03*
X134246351Y-119347501D03*
%TD*%
D20*
%TO.C,L2*%
X137922702Y-121896800D03*
X141622702Y-121896800D03*
%TD*%
D14*
%TO.C,R25*%
X165897689Y-104606765D03*
X165897689Y-103586765D03*
%TD*%
D21*
%TO.C,C60*%
X142210000Y-54822500D03*
X141250000Y-54822500D03*
%TD*%
D22*
%TO.C,J9*%
X130310000Y-66604941D03*
D23*
X130310000Y-64404941D03*
D22*
X130310000Y-62204941D03*
%TD*%
D24*
%TO.C,D4*%
X154650000Y-145470000D03*
X156150000Y-145470000D03*
%TD*%
D15*
%TO.C,SW13*%
X167142500Y-130000000D03*
X172857500Y-130000000D03*
X167142500Y-133000000D03*
X172857500Y-133000000D03*
%TD*%
D25*
%TO.C,IC5*%
X130020000Y-111650000D03*
X131940000Y-111650000D03*
X130980000Y-109550000D03*
%TD*%
D26*
%TO.C,R3*%
X134052700Y-132487700D03*
X135072700Y-132487700D03*
%TD*%
D27*
%TO.C,IC2*%
X132532700Y-129117700D03*
X132532700Y-131037700D03*
X134632700Y-130077700D03*
%TD*%
D28*
%TO.C,J8*%
X139950000Y-81270000D03*
D29*
X142150000Y-81270000D03*
D28*
X144350000Y-81270000D03*
%TD*%
D15*
%TO.C,SW11*%
X167142500Y-110000000D03*
X172857500Y-110000000D03*
X167142500Y-113000000D03*
X172857500Y-113000000D03*
%TD*%
D30*
%TO.C,R36*%
X142240000Y-55822500D03*
X141220000Y-55822500D03*
%TD*%
D31*
%TO.C,D2*%
X141532702Y-140227700D03*
X142332700Y-140227700D03*
X141932701Y-139186300D03*
%TD*%
D12*
%TO.C,C50*%
X142840000Y-68147500D03*
X143800000Y-68147500D03*
%TD*%
D26*
%TO.C,R5*%
X155827500Y-119897500D03*
X156847500Y-119897500D03*
%TD*%
D14*
%TO.C,R8*%
X145012500Y-112857500D03*
X145012500Y-111837500D03*
%TD*%
D30*
%TO.C,R13*%
X141207500Y-125997500D03*
X140187500Y-125997500D03*
%TD*%
D32*
%TO.C,L1*%
X142987500Y-112214290D03*
X141587500Y-112214290D03*
%TD*%
D33*
%TO.C,CR2*%
X134737500Y-141159600D03*
X134737500Y-144385400D03*
%TD*%
%TO.C,CR1*%
X141562500Y-136460400D03*
X141562500Y-133234600D03*
%TD*%
D34*
%TO.C,L15*%
X144960000Y-48877441D03*
X144960000Y-47907441D03*
%TD*%
D35*
%TO.C,D3*%
X154542500Y-138222500D03*
X156162500Y-138222500D03*
%TD*%
D15*
%TO.C,SW10*%
X119642500Y-130000000D03*
X125357500Y-130000000D03*
X119642500Y-133000000D03*
X125357500Y-133000000D03*
%TD*%
D12*
%TO.C,C28*%
X134092702Y-122856800D03*
X135052702Y-122856800D03*
%TD*%
D36*
%TO.C,D1*%
X138892700Y-132357700D03*
X138892700Y-135657700D03*
%TD*%
D34*
%TO.C,L13*%
X143820000Y-66122500D03*
X143820000Y-65152500D03*
%TD*%
D21*
%TO.C,C44*%
X143880000Y-76672500D03*
X142920000Y-76672500D03*
%TD*%
D13*
%TO.C,C52*%
X146150000Y-67142500D03*
X146150000Y-68102500D03*
%TD*%
D12*
%TO.C,C49*%
X142840000Y-69147500D03*
X143800000Y-69147500D03*
%TD*%
%TO.C,C32*%
X135987500Y-118422500D03*
X136947500Y-118422500D03*
%TD*%
D26*
%TO.C,R28*%
X152190000Y-145470000D03*
X153210000Y-145470000D03*
%TD*%
D14*
%TO.C,R39*%
X151100000Y-145040000D03*
X151100000Y-144020000D03*
%TD*%
D12*
%TO.C,C13*%
X147257500Y-96072500D03*
X148217500Y-96072500D03*
%TD*%
D37*
%TO.C,R9*%
X145550000Y-97090000D03*
X145550000Y-98110000D03*
%TD*%
D14*
%TO.C,R27*%
X173547689Y-104596765D03*
X173547689Y-103576765D03*
%TD*%
%TO.C,R23*%
X169797689Y-106536765D03*
X169797689Y-105516765D03*
%TD*%
D13*
%TO.C,C10*%
X148897500Y-108337500D03*
X148897500Y-109297500D03*
%TD*%
D38*
%TO.C,C31*%
X131600000Y-91070000D03*
X131600000Y-92970000D03*
%TD*%
D15*
%TO.C,SW14*%
X119642500Y-110000000D03*
X125357500Y-110000000D03*
X119642500Y-113000000D03*
X125357500Y-113000000D03*
%TD*%
D30*
%TO.C,R38*%
X119187500Y-100157500D03*
X118167500Y-100157500D03*
%TD*%
D26*
%TO.C,R1*%
X127812500Y-87962500D03*
X128832500Y-87962500D03*
%TD*%
%TO.C,R10*%
X134062702Y-123886800D03*
X135082702Y-123886800D03*
%TD*%
D39*
%TO.C,U4*%
X134415200Y-134817700D03*
X134415200Y-135767700D03*
X134415200Y-136717700D03*
X136690200Y-136717700D03*
X136690200Y-134817700D03*
%TD*%
D21*
%TO.C,C1*%
X150092500Y-119822500D03*
X149132500Y-119822500D03*
%TD*%
D40*
%TO.C,X1*%
X148337500Y-93047499D03*
X146137500Y-93047499D03*
X146137500Y-94647501D03*
X148337500Y-94647501D03*
%TD*%
D11*
%TO.C,C24*%
X165082500Y-92436300D03*
X165082500Y-91476300D03*
%TD*%
D30*
%TO.C,R4*%
X135072702Y-127046800D03*
X134052702Y-127046800D03*
%TD*%
D22*
%TO.C,J10*%
X150310000Y-66604941D03*
D23*
X150310000Y-64404941D03*
D22*
X150310000Y-62204941D03*
%TD*%
D28*
%TO.C,J2*%
X137250000Y-51270000D03*
D29*
X139450000Y-51270000D03*
D28*
X141650000Y-51270000D03*
%TD*%
D12*
%TO.C,C12*%
X144560000Y-96100000D03*
X145520000Y-96100000D03*
%TD*%
D37*
%TO.C,R20*%
X166102500Y-89492500D03*
X166102500Y-90512500D03*
%TD*%
D11*
%TO.C,C5*%
X140310000Y-98920000D03*
X140310000Y-97960000D03*
%TD*%
D13*
%TO.C,C61*%
X144867500Y-52640000D03*
X144867500Y-53600000D03*
%TD*%
D30*
%TO.C,R40*%
X135350000Y-105850000D03*
X134330000Y-105850000D03*
%TD*%
D14*
%TO.C,R6*%
X139162500Y-113282500D03*
X139162500Y-112262500D03*
%TD*%
D30*
%TO.C,R41*%
X131380000Y-108090000D03*
X130360000Y-108090000D03*
%TD*%
D21*
%TO.C,C6*%
X136240000Y-104310000D03*
X135280000Y-104310000D03*
%TD*%
D14*
%TO.C,R12*%
X137122700Y-133517700D03*
X137122700Y-132497700D03*
%TD*%
D26*
%TO.C,R29*%
X129547500Y-121327500D03*
X130567500Y-121327500D03*
%TD*%
D21*
%TO.C,C16*%
X138210000Y-104780000D03*
X137250000Y-104780000D03*
%TD*%
D34*
%TO.C,L14*%
X143802500Y-61130000D03*
X143802500Y-60160000D03*
%TD*%
D41*
%TO.C,C17*%
X136530000Y-139150000D03*
X134630000Y-139150000D03*
%TD*%
D11*
%TO.C,C15*%
X144240000Y-98830000D03*
X144240000Y-97870000D03*
%TD*%
D26*
%TO.C,R34*%
X152167500Y-136642500D03*
X153187500Y-136642500D03*
%TD*%
D13*
%TO.C,C53*%
X142820000Y-65137500D03*
X142820000Y-66097500D03*
%TD*%
D27*
%TO.C,IC6*%
X156020000Y-143820000D03*
X156020000Y-141900000D03*
X153920000Y-142860000D03*
%TD*%
D13*
%TO.C,C54*%
X145150000Y-67140000D03*
X145150000Y-68100000D03*
%TD*%
D42*
%TO.C,C30*%
X143662500Y-118372500D03*
X145562500Y-118372500D03*
%TD*%
D21*
%TO.C,C7*%
X137882500Y-106962500D03*
X136922500Y-106962500D03*
%TD*%
D13*
%TO.C,C26*%
X168767689Y-103606765D03*
X168767689Y-104566765D03*
%TD*%
D43*
%TO.C,U8*%
X144319301Y-56866000D03*
X144969300Y-56866000D03*
X145619299Y-56866000D03*
X145619299Y-54732400D03*
X144969300Y-54732400D03*
X144319301Y-54732400D03*
%TD*%
D12*
%TO.C,C58*%
X142840000Y-59122500D03*
X143800000Y-59122500D03*
%TD*%
D30*
%TO.C,R11*%
X135072702Y-124926800D03*
X134052702Y-124926800D03*
%TD*%
D44*
%TO.C,U3*%
X136167700Y-125966800D03*
X138817702Y-125966800D03*
%TD*%
D45*
%TO.C,J3*%
X138707500Y-141742500D03*
X139507500Y-141742500D03*
D46*
X140657500Y-141742500D03*
X141657500Y-141742500D03*
X142157500Y-141742500D03*
X143157500Y-141742500D03*
D45*
X144307500Y-141742500D03*
X145107500Y-141742500D03*
X145107500Y-141742500D03*
X144307500Y-141742500D03*
D46*
X143657500Y-141742500D03*
X142657500Y-141742500D03*
X141157500Y-141742500D03*
X140157500Y-141742500D03*
D45*
X139507500Y-141742500D03*
X138707500Y-141742500D03*
D47*
X137587500Y-142317500D03*
D48*
X137587500Y-146497500D03*
D47*
X146227500Y-142317500D03*
D48*
X146227500Y-146497500D03*
%TD*%
D12*
%TO.C,C55*%
X142840000Y-64117500D03*
X143800000Y-64117500D03*
%TD*%
D21*
%TO.C,C47*%
X147230000Y-76250000D03*
X146270000Y-76250000D03*
%TD*%
D37*
%TO.C,R21*%
X166102500Y-91432500D03*
X166102500Y-92452500D03*
%TD*%
D13*
%TO.C,C27*%
X172547689Y-103586765D03*
X172547689Y-104546765D03*
%TD*%
D15*
%TO.C,SW1*%
X117112500Y-84940000D03*
X122827500Y-84940000D03*
X117112500Y-87940000D03*
X122827500Y-87940000D03*
%TD*%
D25*
%TO.C,IC3*%
X154677500Y-136592500D03*
X156597500Y-136592500D03*
X155637500Y-134492500D03*
%TD*%
D49*
%TO.C,C2*%
X142722500Y-109467500D03*
X141692500Y-109467500D03*
%TD*%
D13*
%TO.C,C22*%
X174482500Y-100662500D03*
X174482500Y-101622500D03*
%TD*%
D37*
%TO.C,R17*%
X173732500Y-89492500D03*
X173732500Y-90512500D03*
%TD*%
D30*
%TO.C,R37*%
X122407500Y-105257500D03*
X121387500Y-105257500D03*
%TD*%
D12*
%TO.C,C8*%
X147382500Y-99097500D03*
X148342500Y-99097500D03*
%TD*%
D26*
%TO.C,R35*%
X147410000Y-56522500D03*
X148430000Y-56522500D03*
%TD*%
D30*
%TO.C,R2*%
X160820000Y-114770000D03*
X159800000Y-114770000D03*
%TD*%
D13*
%TO.C,C25*%
X164867689Y-103600565D03*
X164867689Y-104560565D03*
%TD*%
D11*
%TO.C,C21*%
X172692500Y-92422500D03*
X172692500Y-91462500D03*
%TD*%
D37*
%TO.C,R19*%
X169982500Y-91452500D03*
X169982500Y-92472500D03*
%TD*%
D50*
%TO.C,U2*%
X157032400Y-118252500D03*
X157032400Y-116982500D03*
X157032400Y-115712500D03*
X157032400Y-114442500D03*
X149742600Y-114442500D03*
X149742600Y-115712500D03*
X149742600Y-116982500D03*
X149742600Y-118252500D03*
%TD*%
D42*
%TO.C,C19*%
X138572700Y-130437700D03*
X140472700Y-130437700D03*
%TD*%
D41*
%TO.C,C29*%
X140212500Y-118372500D03*
X138312500Y-118372500D03*
%TD*%
%TO.C,C18*%
X130387500Y-137097500D03*
X128487500Y-137097500D03*
%TD*%
D27*
%TO.C,IC1*%
X132442700Y-134767700D03*
X132442700Y-132847700D03*
X130342700Y-133807700D03*
%TD*%
D51*
%TO.C,L9*%
X142925000Y-78122500D03*
X145050000Y-78122500D03*
%TD*%
D26*
%TO.C,R33*%
X152115500Y-138202500D03*
X153135500Y-138202500D03*
%TD*%
D27*
%TO.C,IC4*%
X120017500Y-105187500D03*
X120017500Y-103267500D03*
X117917500Y-104227500D03*
%TD*%
D52*
%TO.C,D6*%
X118317500Y-101617500D03*
X119837500Y-101617500D03*
%TD*%
D14*
%TO.C,R24*%
X173557689Y-106540565D03*
X173557689Y-105520565D03*
%TD*%
D13*
%TO.C,C57*%
X143820000Y-62142500D03*
X143820000Y-63102500D03*
%TD*%
D53*
%TO.C,L11*%
X143835000Y-67122500D03*
X142865000Y-67122500D03*
%TD*%
D54*
%TO.C,U6*%
X173062500Y-95100000D03*
X171792500Y-95100000D03*
X170522500Y-95100000D03*
X169252500Y-95100000D03*
X167982500Y-95100000D03*
X166712500Y-95100000D03*
X165442500Y-95100000D03*
X165442500Y-100027600D03*
X166712500Y-100027600D03*
X167982500Y-100027600D03*
X169252500Y-100027600D03*
X170522500Y-100027600D03*
X171792500Y-100027600D03*
X173062500Y-100027600D03*
%TD*%
D21*
%TO.C,C62*%
X145867500Y-49887500D03*
X144907500Y-49887500D03*
%TD*%
D55*
%TO.C,X2*%
X134943900Y-73307500D03*
X134943900Y-71957500D03*
X133496100Y-71957500D03*
X133496100Y-73307500D03*
%TD*%
D30*
%TO.C,R30*%
X130557500Y-120267500D03*
X129537500Y-120267500D03*
%TD*%
D14*
%TO.C,R15*%
X140512500Y-139582500D03*
X140512500Y-138562500D03*
%TD*%
D26*
%TO.C,R32*%
X151240000Y-140250000D03*
X152260000Y-140250000D03*
%TD*%
D21*
%TO.C,C63*%
X145880000Y-46900000D03*
X144920000Y-46900000D03*
%TD*%
D13*
%TO.C,C9*%
X147712500Y-113417500D03*
X147712500Y-114377500D03*
%TD*%
D15*
%TO.C,SW12*%
X167142500Y-120000000D03*
X172857500Y-120000000D03*
X167142500Y-123000000D03*
X172857500Y-123000000D03*
%TD*%
%TO.C,SW4*%
X168461250Y-84188750D03*
X174176250Y-84188750D03*
X168461250Y-87188750D03*
X174176250Y-87188750D03*
%TD*%
D14*
%TO.C,R7*%
X146062500Y-112857500D03*
X146062500Y-111837500D03*
%TD*%
D49*
%TO.C,C3*%
X142722500Y-110497500D03*
X141692500Y-110497500D03*
%TD*%
D37*
%TO.C,R16*%
X173722500Y-91432500D03*
X173722500Y-92452500D03*
%TD*%
D26*
%TO.C,R14*%
X145607500Y-139137500D03*
X146627500Y-139137500D03*
%TD*%
D21*
%TO.C,C20*%
X135042702Y-125986800D03*
X134082702Y-125986800D03*
%TD*%
D14*
%TO.C,R26*%
X169787689Y-104616765D03*
X169787689Y-103596765D03*
%TD*%
D53*
%TO.C,L12*%
X146135000Y-69122500D03*
X145165000Y-69122500D03*
%TD*%
D52*
%TO.C,D5*%
X154590000Y-140250000D03*
X156110000Y-140250000D03*
%TD*%
D56*
%TO.C,U1*%
X144900000Y-105077500D03*
X144900000Y-103677500D03*
X143500000Y-105077500D03*
X143500000Y-103677500D03*
D57*
X147637500Y-107177500D03*
D58*
X147637500Y-106777500D03*
X147637500Y-106377500D03*
X147637500Y-105977500D03*
X147637500Y-105577500D03*
X147637500Y-105177500D03*
X147637500Y-104777500D03*
X147637500Y-104377500D03*
X147637500Y-103977500D03*
X147637500Y-103577500D03*
X147637500Y-103177500D03*
X147637500Y-102777500D03*
X147637500Y-102377500D03*
X147637500Y-101977500D03*
D59*
X147637500Y-101577500D03*
D60*
X147000000Y-100940000D03*
D61*
X146600000Y-100940000D03*
X146200000Y-100940000D03*
X145800000Y-100940000D03*
X145400000Y-100940000D03*
X145000000Y-100940000D03*
X144600000Y-100940000D03*
X144200000Y-100940000D03*
X143800000Y-100940000D03*
X143400000Y-100940000D03*
X143000000Y-100940000D03*
X142600000Y-100940000D03*
X142200000Y-100940000D03*
X141800000Y-100940000D03*
D62*
X141400000Y-100940000D03*
D63*
X140762500Y-101577500D03*
D58*
X140762500Y-101977500D03*
X140762500Y-102377500D03*
X140762500Y-102777500D03*
X140762500Y-103177500D03*
X140762500Y-103577500D03*
X140762500Y-103977500D03*
X140762500Y-104377500D03*
X140762500Y-104777500D03*
X140762500Y-105177500D03*
X140762500Y-105577500D03*
X140762500Y-105977500D03*
X140762500Y-106377500D03*
X140762500Y-106777500D03*
D64*
X140762500Y-107177500D03*
D65*
X141400000Y-107815000D03*
D61*
X141800000Y-107815000D03*
X142200000Y-107815000D03*
X142600000Y-107815000D03*
X143000000Y-107815000D03*
X143400000Y-107815000D03*
X143800000Y-107815000D03*
X144200000Y-107815000D03*
X144600000Y-107815000D03*
X145000000Y-107815000D03*
X145400000Y-107815000D03*
X145800000Y-107815000D03*
X146200000Y-107815000D03*
X146600000Y-107815000D03*
D66*
X147000000Y-107815000D03*
%TD*%
D37*
%TO.C,R18*%
X169972500Y-89482500D03*
X169972500Y-90502500D03*
%TD*%
D67*
%TO.C,J4*%
X146395000Y-42580000D03*
X143445000Y-42580000D03*
D68*
X144920000Y-44205000D03*
%TD*%
D11*
%TO.C,C23*%
X168902500Y-92442500D03*
X168902500Y-91482500D03*
%TD*%
%TO.C,C14*%
X156050000Y-104350000D03*
X156050000Y-103390000D03*
%TD*%
M02*
