%TF.GenerationSoftware,KiCad,Pcbnew,8.0.7*%
%TF.CreationDate,2025-03-16T18:45:05-04:00*%
%TF.ProjectId,RP2350_V2,52503233-3530-45f5-9632-2e6b69636164,2.0*%
%TF.SameCoordinates,Original*%
%TF.FileFunction,Copper,L4,Bot*%
%TF.FilePolarity,Positive*%
%FSLAX46Y46*%
G04 Gerber Fmt 4.6, Leading zero omitted, Abs format (unit mm)*
G04 Created by KiCad (PCBNEW 8.0.7) date 2025-03-16 18:45:05*
%MOMM*%
%LPD*%
G01*
G04 APERTURE LIST*
G04 Aperture macros list*
%AMRoundRect*
0 Rectangle with rounded corners*
0 $1 Rounding radius*
0 $2 $3 $4 $5 $6 $7 $8 $9 X,Y pos of 4 corners*
0 Add a 4 corners polygon primitive as box body*
4,1,4,$2,$3,$4,$5,$6,$7,$8,$9,$2,$3,0*
0 Add four circle primitives for the rounded corners*
1,1,$1+$1,$2,$3*
1,1,$1+$1,$4,$5*
1,1,$1+$1,$6,$7*
1,1,$1+$1,$8,$9*
0 Add four rect primitives between the rounded corners*
20,1,$1+$1,$2,$3,$4,$5,0*
20,1,$1+$1,$4,$5,$6,$7,0*
20,1,$1+$1,$6,$7,$8,$9,0*
20,1,$1+$1,$8,$9,$2,$3,0*%
G04 Aperture macros list end*
%TA.AperFunction,HeatsinkPad*%
%ADD10C,0.800000*%
%TD*%
%TA.AperFunction,ComponentPad*%
%ADD11C,2.250000*%
%TD*%
%TA.AperFunction,ComponentPad*%
%ADD12C,2.400000*%
%TD*%
%TA.AperFunction,ComponentPad*%
%ADD13O,1.000000X2.100000*%
%TD*%
%TA.AperFunction,ComponentPad*%
%ADD14O,1.000000X1.800000*%
%TD*%
%TA.AperFunction,ComponentPad*%
%ADD15R,1.700000X1.700000*%
%TD*%
%TA.AperFunction,ComponentPad*%
%ADD16O,1.700000X1.700000*%
%TD*%
%TA.AperFunction,ComponentPad*%
%ADD17RoundRect,0.250000X0.350000X0.625000X-0.350000X0.625000X-0.350000X-0.625000X0.350000X-0.625000X0*%
%TD*%
%TA.AperFunction,ComponentPad*%
%ADD18O,1.200000X1.750000*%
%TD*%
%TA.AperFunction,ViaPad*%
%ADD19C,0.700000*%
%TD*%
%TA.AperFunction,Conductor*%
%ADD20C,0.750000*%
%TD*%
%TA.AperFunction,Conductor*%
%ADD21C,0.300000*%
%TD*%
%TA.AperFunction,Conductor*%
%ADD22C,0.500000*%
%TD*%
%TA.AperFunction,Conductor*%
%ADD23C,0.250000*%
%TD*%
%TA.AperFunction,Conductor*%
%ADD24C,0.200000*%
%TD*%
%TA.AperFunction,Conductor*%
%ADD25C,0.150000*%
%TD*%
G04 APERTURE END LIST*
D10*
%TO.P,,61,GND*%
%TO.N,GND*%
X146275000Y-74482559D03*
%TD*%
%TO.P,,61,GND*%
%TO.N,GND*%
X145000000Y-74482559D03*
%TD*%
%TO.P,,61,GND*%
%TO.N,GND*%
X145000000Y-73207559D03*
%TD*%
D11*
%TO.P,J4,1,1*%
%TO.N,Net-(C63-Pad2)*%
X144960000Y-40807559D03*
D12*
%TO.P,J4,2,2*%
%TO.N,GND*%
X142420000Y-43347559D03*
%TO.P,J4,3,3*%
X147500000Y-43347559D03*
%TO.P,J4,4,4*%
X147500000Y-38267559D03*
%TO.P,J4,5,5*%
X142420000Y-38267559D03*
%TD*%
D13*
%TO.P,J3,S1,SHIELD*%
%TO.N,unconnected-(J3-SHIELD-PadS1)_3*%
X137587500Y-142317500D03*
D14*
%TO.N,unconnected-(J3-SHIELD-PadS1)_1*%
X137587500Y-146497500D03*
D13*
%TO.N,unconnected-(J3-SHIELD-PadS1)_2*%
X146227500Y-142317500D03*
D14*
%TO.N,unconnected-(J3-SHIELD-PadS1)*%
X146227500Y-146497500D03*
%TD*%
D15*
%TO.P,J1,1,Pin_1*%
%TO.N,/SWCLK*%
X125162500Y-93107500D03*
D16*
%TO.P,J1,2,Pin_2*%
%TO.N,GND*%
X125162500Y-95647500D03*
%TO.P,J1,3,Pin_3*%
%TO.N,/SWD*%
X125162500Y-98187500D03*
%TO.P,J1,4,Pin_4*%
%TO.N,GND*%
X125162500Y-100727500D03*
%TD*%
D17*
%TO.P,J5,1,Pin_1*%
%TO.N,/DISPLAY_BUSY*%
X149800000Y-86700000D03*
D18*
%TO.P,J5,2,Pin_2*%
%TO.N,/DISPLAY_RESET*%
X147800000Y-86700000D03*
%TO.P,J5,3,Pin_3*%
%TO.N,/DISPLAY_DC*%
X145800000Y-86700000D03*
%TO.P,J5,4,Pin_4*%
%TO.N,/SPI1_CS*%
X143800000Y-86700000D03*
%TO.P,J5,5,Pin_5*%
%TO.N,/SPI1_CLK*%
X141800000Y-86700000D03*
%TO.P,J5,6,Pin_6*%
%TO.N,/SPI1_TX*%
X139800000Y-86700000D03*
%TO.P,J5,7,Pin_7*%
%TO.N,GND*%
X137800000Y-86700000D03*
%TO.P,J5,8,Pin_8*%
%TO.N,+3V3*%
X135800000Y-86700000D03*
%TD*%
D17*
%TO.P,J6,1,Pin_1*%
%TO.N,/VBAT*%
X129580000Y-141810000D03*
D18*
%TO.P,J6,2,Pin_2*%
%TO.N,GND*%
X127580000Y-141810000D03*
%TD*%
D15*
%TO.P,J7,1,Pin_1*%
%TO.N,/UART_Tx_DEBUG*%
X154067500Y-109372500D03*
D16*
%TO.P,J7,2,Pin_2*%
%TO.N,GND*%
X156607500Y-109372500D03*
%TO.P,J7,3,Pin_3*%
%TO.N,/UART_Rx_DEBUG*%
X159147500Y-109372500D03*
%TO.P,J7,4,Pin_4*%
%TO.N,GND*%
X161687500Y-109372500D03*
%TD*%
D10*
%TO.P,,61,GND*%
%TO.N,GND*%
X146275000Y-73207559D03*
%TD*%
%TO.P,U1,61,GND*%
%TO.N,GND*%
X145400000Y-105577500D03*
X145400000Y-104377500D03*
X145400000Y-103177500D03*
X144200000Y-105577500D03*
X144200000Y-104377500D03*
X144150000Y-103177500D03*
X143000000Y-105577500D03*
X143000000Y-104377500D03*
X143000000Y-103177500D03*
%TD*%
D19*
%TO.N,GND*%
X167720000Y-51850000D03*
X141800000Y-66857559D03*
X143800000Y-53825000D03*
X131400000Y-91600000D03*
X134850000Y-59632559D03*
X135150000Y-145730000D03*
X134700000Y-62582559D03*
X148800000Y-47667559D03*
X150040000Y-80500000D03*
X150225000Y-45225000D03*
X154600000Y-43867559D03*
X179270000Y-58120000D03*
X146800000Y-55157559D03*
X138700000Y-52650000D03*
X140600000Y-47067559D03*
X142475000Y-46025000D03*
X125980000Y-61750000D03*
X120175000Y-75925000D03*
X151460000Y-80550000D03*
X149310000Y-78960000D03*
X147025000Y-51300000D03*
X122710000Y-57727559D03*
X157500000Y-35260000D03*
X171120000Y-70500000D03*
X148290300Y-119664824D03*
X159950000Y-72615000D03*
X137500000Y-68557559D03*
X168400000Y-82025000D03*
X159200000Y-40867559D03*
X170800000Y-54210000D03*
X145840000Y-52867559D03*
X179270000Y-54250000D03*
X118200000Y-35875000D03*
X139740000Y-59287559D03*
X140530000Y-60557559D03*
X146550000Y-60632559D03*
X156200000Y-45617559D03*
X138090000Y-64917559D03*
X148300000Y-46160000D03*
X148337500Y-97547500D03*
X161325000Y-81375000D03*
X150225000Y-42225000D03*
X147350000Y-45800000D03*
X136662500Y-124022500D03*
X169920000Y-73460000D03*
X136000000Y-69757559D03*
X142525000Y-35492559D03*
X163790000Y-56370000D03*
X146750000Y-140170000D03*
X116612500Y-104597500D03*
X136200000Y-49530000D03*
X154080000Y-51500000D03*
X137925000Y-46717559D03*
X161060000Y-73890000D03*
X149000000Y-48867559D03*
X136125000Y-48417559D03*
X152677500Y-102825000D03*
X165487500Y-119512500D03*
X119560000Y-48260000D03*
X144700000Y-59132559D03*
X159000000Y-52957559D03*
X149525000Y-35492559D03*
X142140000Y-82620000D03*
X125275000Y-49750000D03*
X144700000Y-63132559D03*
X138990000Y-80010000D03*
X126140000Y-74730000D03*
X150400000Y-47467559D03*
X143730000Y-95420000D03*
X129800000Y-55557559D03*
X139500000Y-37267559D03*
X142200000Y-63157559D03*
X155922500Y-133282500D03*
X168767689Y-105426765D03*
X124560000Y-75700000D03*
X132600000Y-42067559D03*
X176490000Y-40210000D03*
X128150000Y-57300000D03*
X121880000Y-38820000D03*
X151800000Y-49867559D03*
X147525000Y-35492559D03*
X130360000Y-76730000D03*
X133000000Y-67057559D03*
X139500000Y-42267559D03*
X155305000Y-61957441D03*
X146625000Y-67607559D03*
X126190000Y-70450000D03*
X148650000Y-51400000D03*
X136460000Y-63197559D03*
X140877500Y-110447500D03*
X132000000Y-71057559D03*
X174500000Y-129500000D03*
X152400000Y-35867559D03*
X162975000Y-42117559D03*
X165095000Y-64660000D03*
X161500000Y-54632559D03*
X179160000Y-79660000D03*
X151820000Y-64950000D03*
X153000000Y-57557559D03*
X140400000Y-48467559D03*
X170320000Y-57810000D03*
X148430000Y-77050000D03*
X164880000Y-71970000D03*
X174482500Y-99822500D03*
X156785000Y-59615000D03*
X164710000Y-79160000D03*
X164250000Y-44950000D03*
X152400000Y-40067559D03*
X149100000Y-36550000D03*
X132000000Y-68057559D03*
X164710000Y-74950000D03*
X116200000Y-60650000D03*
X141187500Y-138072500D03*
X118870000Y-70457559D03*
X174380000Y-71640000D03*
X141920000Y-69197559D03*
X155365000Y-68237441D03*
X125940000Y-35190000D03*
X144700000Y-67132559D03*
X150225000Y-41225000D03*
X153450000Y-58450000D03*
X179270000Y-48180000D03*
X132000000Y-78557559D03*
X134000000Y-67057559D03*
X127000000Y-109500000D03*
X141957500Y-65360059D03*
X143970000Y-51807559D03*
X144700000Y-62132559D03*
X134200000Y-36467559D03*
X119400000Y-50557559D03*
X126000000Y-46267559D03*
X139500000Y-43267559D03*
X113410000Y-76680000D03*
X150225000Y-40225000D03*
X134600000Y-137810000D03*
X144000000Y-54757559D03*
X170000000Y-38632559D03*
X138780000Y-82620000D03*
X117360000Y-79337559D03*
X113220000Y-60360000D03*
X139200000Y-47667559D03*
X137650000Y-58207559D03*
X139500000Y-41267559D03*
X142725000Y-40925000D03*
X122190000Y-71217559D03*
X131200000Y-38467559D03*
X177250000Y-51332559D03*
X143970000Y-52807559D03*
X117725000Y-38175000D03*
X129250000Y-77960000D03*
X174510000Y-68540000D03*
X138310000Y-60577559D03*
X141687500Y-130437700D03*
X148750000Y-70100000D03*
X147467500Y-139357500D03*
X149350000Y-60880000D03*
X136325000Y-55757559D03*
X146550000Y-63632559D03*
X139000000Y-49467559D03*
X154400000Y-49667559D03*
X158425000Y-57132559D03*
X134725000Y-47342559D03*
X154400000Y-39067559D03*
X141600000Y-49467559D03*
X169725000Y-52382559D03*
X113330000Y-66670000D03*
X160480000Y-75690000D03*
X164145571Y-95843479D03*
X156205000Y-105025000D03*
X129200000Y-48467559D03*
X151000000Y-71157559D03*
X137200000Y-43467559D03*
X143430000Y-82610000D03*
X156885000Y-67015000D03*
X125180000Y-69320000D03*
X139500000Y-39267559D03*
X147680000Y-64580000D03*
X154020000Y-77220000D03*
X174220000Y-79330000D03*
X127260000Y-136610000D03*
X135000000Y-68797559D03*
X141882500Y-60360059D03*
X133187500Y-127217500D03*
X144700000Y-65132559D03*
X147300000Y-68407559D03*
X135070000Y-72317559D03*
X177450000Y-37620000D03*
X136787500Y-127797500D03*
X122820000Y-78727559D03*
X136350000Y-105340000D03*
X152400000Y-37667559D03*
X138200000Y-55757559D03*
X124238750Y-86000000D03*
X165690000Y-57240000D03*
X141512500Y-131897500D03*
X177520000Y-61070000D03*
X125770000Y-67650000D03*
X117987500Y-129512500D03*
X155385000Y-66037441D03*
X128640000Y-63880000D03*
X132000000Y-79557559D03*
X136775000Y-119285000D03*
X147420000Y-52697559D03*
X146550000Y-64632559D03*
X130980000Y-70180000D03*
X166820000Y-61480000D03*
X144525000Y-35492559D03*
X152640000Y-65860000D03*
X163100000Y-82250000D03*
X161840000Y-39130000D03*
X148400000Y-53550000D03*
X154900000Y-80480000D03*
X136625000Y-45967559D03*
X151940000Y-68890000D03*
X178960000Y-76540000D03*
X128925000Y-82475000D03*
X122940000Y-75727559D03*
X164360000Y-58630000D03*
X140887500Y-109387500D03*
X141800000Y-62027559D03*
X135770000Y-72317559D03*
X139500000Y-40267559D03*
X130687500Y-119107500D03*
X147800000Y-58757559D03*
X145840000Y-50867559D03*
X144625000Y-77182559D03*
X145525000Y-35492559D03*
X140825000Y-41500000D03*
X139500000Y-46267559D03*
X131930000Y-58967559D03*
X159475000Y-46692559D03*
X156510000Y-146660000D03*
X144000000Y-49667559D03*
X132550000Y-75207559D03*
X122250000Y-47550000D03*
X132230000Y-76410000D03*
X141525000Y-35492559D03*
X132675000Y-54182559D03*
X134400000Y-44067559D03*
X155317500Y-114442500D03*
X172875000Y-58207559D03*
X148025000Y-54750000D03*
X140180000Y-62117559D03*
X176360000Y-75030000D03*
X148700000Y-65630000D03*
X132460000Y-55957559D03*
X159480000Y-70180000D03*
X135000000Y-69707559D03*
X147350000Y-40725000D03*
X159010000Y-74170000D03*
X148000000Y-59957559D03*
X137200000Y-35667559D03*
X168840000Y-76680000D03*
X133950000Y-61232559D03*
X126030000Y-76510000D03*
X146550000Y-58582559D03*
X142600000Y-47267559D03*
X165102500Y-90622500D03*
X167075000Y-41850000D03*
X144875000Y-91985000D03*
X152690000Y-61580000D03*
X138290000Y-62297559D03*
X141200000Y-64057559D03*
X160090000Y-63970000D03*
X128000000Y-39867559D03*
X131340000Y-76240000D03*
X118400000Y-66825000D03*
X128530000Y-62030000D03*
X149800000Y-52757559D03*
X151430000Y-51660000D03*
X142180000Y-52627559D03*
X167420000Y-53560000D03*
X125420000Y-64830000D03*
X134800000Y-39867559D03*
X122800000Y-51157559D03*
X174500000Y-119500000D03*
X118625000Y-62550000D03*
X152220000Y-60390000D03*
X127000000Y-129500000D03*
X133197500Y-125127500D03*
X156315000Y-70147441D03*
X139200000Y-54757559D03*
X144700000Y-60132559D03*
X144000000Y-46767559D03*
X160950000Y-79400000D03*
X113450000Y-56150000D03*
X156400000Y-48117559D03*
X145800000Y-54757559D03*
X172720000Y-52060000D03*
X147800000Y-61157559D03*
X128620000Y-69360000D03*
X168230000Y-44840000D03*
X144000000Y-48667559D03*
X134725000Y-55557559D03*
X150225000Y-39225000D03*
X163145000Y-49560000D03*
X115600000Y-80700000D03*
X133650000Y-65400000D03*
X150425000Y-35475000D03*
X116160000Y-69020000D03*
X155000000Y-53757559D03*
X115500000Y-42460000D03*
X150580000Y-82160000D03*
X150400000Y-49067559D03*
X168902500Y-90647500D03*
X178350000Y-66307559D03*
X179080000Y-41030000D03*
X156385000Y-68815000D03*
X136560000Y-66817559D03*
X149690000Y-70860000D03*
X150225000Y-38225000D03*
X115340000Y-63610000D03*
X154200000Y-55557559D03*
X156670000Y-51820000D03*
X137200000Y-41067559D03*
X146525000Y-35492559D03*
X113370000Y-72270000D03*
X174595000Y-60885000D03*
X149300000Y-56257559D03*
X156585000Y-62815000D03*
X153210000Y-80640000D03*
X132040000Y-65350000D03*
X128550000Y-67390000D03*
X139500000Y-45267559D03*
X152690000Y-67050000D03*
X139500000Y-36342559D03*
X160850000Y-67110000D03*
X124150000Y-61047559D03*
X137950000Y-48350000D03*
X155000000Y-78710000D03*
X136600000Y-52557559D03*
X132000000Y-72057559D03*
X135800000Y-60982559D03*
X128720000Y-109550000D03*
X129650000Y-70150000D03*
X158630000Y-68220000D03*
X149737500Y-91797499D03*
X145850000Y-45050000D03*
X149000000Y-82070000D03*
X126530000Y-79120000D03*
X125000000Y-43957559D03*
X147660000Y-82020000D03*
X145737500Y-140177500D03*
X146550000Y-65632559D03*
X174240000Y-35650000D03*
X129640000Y-72670000D03*
X146812500Y-114347500D03*
X141450000Y-46050000D03*
X144607500Y-94992500D03*
X124275000Y-82400000D03*
X115400000Y-75125000D03*
X125800000Y-73210000D03*
X137200000Y-39067559D03*
X174450000Y-109550000D03*
X172480000Y-74700000D03*
X147560000Y-66140000D03*
X144700000Y-66132559D03*
X152690000Y-64440000D03*
X168242500Y-84990000D03*
X140475000Y-46075000D03*
X172425000Y-82175000D03*
X149850000Y-77560000D03*
X155445000Y-67177441D03*
X140000000Y-82650000D03*
X144700000Y-64132559D03*
X130020000Y-59550000D03*
X132000000Y-67057559D03*
X133820000Y-58217559D03*
X146722500Y-46595059D03*
X179090000Y-82510000D03*
X152840000Y-79100000D03*
X167920000Y-60060000D03*
X149612500Y-110172500D03*
X170840000Y-35690000D03*
X125070000Y-72100000D03*
X137000000Y-69757559D03*
X147750000Y-80330000D03*
X132480000Y-35260000D03*
X125760000Y-58900000D03*
X155365000Y-63257441D03*
X152800000Y-69850000D03*
X141700000Y-68257559D03*
X142030000Y-69967559D03*
X128657500Y-120587500D03*
X146550000Y-59632559D03*
X151200000Y-53757559D03*
X152510000Y-82140000D03*
X124680000Y-66180000D03*
X120570000Y-79680000D03*
X118420000Y-58327559D03*
X154390000Y-59150000D03*
X139690000Y-53380000D03*
X137200000Y-37267559D03*
X145840000Y-51867559D03*
X133107500Y-135972500D03*
X174170000Y-37740000D03*
X139650000Y-63717559D03*
X162120000Y-45200000D03*
X150800000Y-56957559D03*
X134975000Y-53507559D03*
X121410000Y-60440000D03*
X144100000Y-45025000D03*
X179230000Y-69530000D03*
X116350000Y-54250000D03*
X135900000Y-65157559D03*
X136250000Y-58232559D03*
X149800000Y-54557559D03*
X141800000Y-54757559D03*
X132000000Y-70057559D03*
X150150000Y-46150000D03*
X140600000Y-65867559D03*
X139225000Y-109435000D03*
X158400000Y-39067559D03*
X144700000Y-61132559D03*
X154985000Y-60015000D03*
X151140000Y-78660000D03*
X150117500Y-95767500D03*
X156440000Y-57837559D03*
X164445000Y-53160000D03*
X155445000Y-64847441D03*
X148000000Y-70920000D03*
X179275000Y-64400000D03*
X139500000Y-38267559D03*
X147680000Y-78710000D03*
X149310000Y-46200000D03*
X131780000Y-61987559D03*
X115585000Y-86000000D03*
X128750000Y-71390000D03*
X147290000Y-47647559D03*
X122525000Y-36450000D03*
X141600000Y-47867559D03*
X147650000Y-62650000D03*
X131200000Y-45867559D03*
X132400000Y-74557559D03*
X165437500Y-109562500D03*
X176400000Y-55125000D03*
X145850000Y-53825000D03*
X129880000Y-61120000D03*
X140525000Y-35492559D03*
X140400000Y-54357559D03*
X141110000Y-79940000D03*
X132925000Y-51525000D03*
X153000000Y-53357559D03*
X128530000Y-65490000D03*
X179280000Y-44390000D03*
X163060000Y-70070000D03*
X176820000Y-82380000D03*
X115425000Y-36950000D03*
X136975000Y-59807559D03*
X146000000Y-47667559D03*
X137000000Y-53957559D03*
X158570000Y-62050000D03*
X155000000Y-36667559D03*
X143970000Y-50807559D03*
X145562500Y-119672500D03*
X159440000Y-59790000D03*
X140090000Y-79970000D03*
X146825000Y-49567559D03*
X173740000Y-46190000D03*
X152430000Y-142580000D03*
X128750000Y-76060000D03*
X126600000Y-53557559D03*
X173140000Y-78670000D03*
X154600000Y-57157559D03*
X142810246Y-138747499D03*
X113700000Y-51750000D03*
X150220000Y-70030000D03*
X160510000Y-82570000D03*
X146550000Y-61632559D03*
X160850000Y-57707559D03*
X116425000Y-82400000D03*
X167480000Y-35300000D03*
X132000000Y-77557559D03*
X165675000Y-55157559D03*
X152410000Y-77560000D03*
X142630000Y-75627559D03*
X140367500Y-56057559D03*
X157000000Y-55757559D03*
X152400000Y-42067559D03*
X143525000Y-35492559D03*
X157875000Y-43217559D03*
X140030000Y-67477559D03*
X134440280Y-104600280D03*
X160380000Y-61500000D03*
X139500000Y-44267559D03*
X155385000Y-60867441D03*
X152500000Y-70970000D03*
X150890000Y-59690000D03*
X117630000Y-46210000D03*
X146550000Y-62632559D03*
X128640000Y-73780000D03*
X127800000Y-36267559D03*
X175460000Y-65790000D03*
X116200000Y-40050000D03*
X158210000Y-71240000D03*
X148470000Y-66840000D03*
X150225000Y-36325000D03*
X131290000Y-60410000D03*
X148580000Y-63580000D03*
X152660000Y-63000000D03*
X167770000Y-69990000D03*
X167345000Y-49510000D03*
X147000000Y-54157559D03*
X157360000Y-72460000D03*
X155335000Y-69487441D03*
X177500000Y-46500000D03*
X172702500Y-90647500D03*
X127800000Y-80740000D03*
X144700000Y-82610000D03*
X143675000Y-45875000D03*
X150520000Y-60900000D03*
X149100000Y-40925000D03*
X167610000Y-73210000D03*
X161125000Y-77550000D03*
X140750000Y-36675000D03*
X137310000Y-140250000D03*
X130200000Y-51157559D03*
X146000000Y-48667559D03*
X142600000Y-49667559D03*
X115400000Y-48957559D03*
X124600000Y-39757559D03*
X122675000Y-54550000D03*
X138000000Y-69757559D03*
X150225000Y-43225000D03*
X132000000Y-69057559D03*
X170750000Y-47200000D03*
X158150000Y-63670000D03*
X163510000Y-54560000D03*
X138940000Y-66027559D03*
X139525000Y-35517559D03*
X148630000Y-68610000D03*
X147600000Y-48667559D03*
X165487500Y-129512500D03*
X160000000Y-36467559D03*
X141030000Y-82610000D03*
X121960000Y-64587559D03*
X128400000Y-43867559D03*
X146550000Y-66632559D03*
X143100000Y-55337459D03*
X141220001Y-95829949D03*
X137157500Y-117557500D03*
X119070000Y-73060000D03*
X136090000Y-132487700D03*
X120800000Y-35420000D03*
X133275000Y-63832559D03*
X124860000Y-63657559D03*
X113640000Y-82330000D03*
X152400000Y-44067559D03*
X169090000Y-79820000D03*
X173375000Y-53482559D03*
X148700000Y-62320000D03*
X113410000Y-79930000D03*
X113750000Y-39425000D03*
X119400000Y-53957559D03*
X161730000Y-59790000D03*
X152230000Y-76200000D03*
X113680000Y-44270000D03*
X168800000Y-57757559D03*
X152550000Y-68220000D03*
X145025000Y-38525000D03*
X144000000Y-47667559D03*
X155300000Y-70850000D03*
X138261814Y-140223186D03*
X130900000Y-78710000D03*
X154820000Y-82220000D03*
X120490000Y-82600000D03*
X152200000Y-48267559D03*
X172497689Y-105366765D03*
X149800000Y-59080000D03*
X144950000Y-36775000D03*
X147700000Y-69857559D03*
X150225000Y-44225000D03*
X133950000Y-49317559D03*
X151400000Y-70150000D03*
X164600000Y-38467559D03*
X157575000Y-49667559D03*
X143100000Y-56657559D03*
X120910000Y-67110000D03*
X140600000Y-52357559D03*
X132110000Y-63930000D03*
X138300000Y-67767559D03*
X134990000Y-67887559D03*
X166925000Y-46292559D03*
X155400000Y-41867559D03*
X131860000Y-82570000D03*
X135060000Y-50580000D03*
X152400000Y-55557559D03*
X136162500Y-106962500D03*
X124490000Y-78640000D03*
X150225000Y-37225000D03*
X156585000Y-65615000D03*
X133207500Y-126147500D03*
X140250000Y-49480000D03*
X152400000Y-46267559D03*
X166250000Y-77170000D03*
X142600000Y-48667559D03*
X143100000Y-57457559D03*
X137600000Y-49530000D03*
X117987500Y-109512500D03*
X117987500Y-119512500D03*
X158630000Y-65680000D03*
X151730000Y-66960000D03*
X174792500Y-85060000D03*
X164872689Y-105441765D03*
X178960000Y-72780000D03*
X142470000Y-72167559D03*
X148525000Y-35492559D03*
X135000000Y-67057559D03*
X127000000Y-119500000D03*
X136200000Y-68357559D03*
X161220000Y-71240000D03*
X139300000Y-68957559D03*
X163840000Y-35420000D03*
X150800000Y-55557559D03*
X144550000Y-97000000D03*
X154200000Y-47267559D03*
X135120000Y-52210000D03*
X113530000Y-47440000D03*
%TO.N,+3V3*%
X148787500Y-107404700D03*
X139177500Y-106347500D03*
X136860000Y-81180000D03*
X147237500Y-112422500D03*
X172647689Y-106541765D03*
X140350000Y-57057559D03*
X174642500Y-89492500D03*
X143312500Y-114437500D03*
X135900000Y-108000000D03*
X139177500Y-104260000D03*
X168917689Y-106536765D03*
X135250000Y-109250000D03*
X170882500Y-89482500D03*
X139177500Y-107157500D03*
X136010000Y-78700000D03*
X143487500Y-123647500D03*
X135450000Y-108575000D03*
X141225000Y-70807559D03*
X166797689Y-106691765D03*
X136920000Y-78710000D03*
X166977500Y-89522500D03*
X137780000Y-78700000D03*
X152937500Y-121022500D03*
X141612500Y-114437500D03*
X139177500Y-100870000D03*
X149962500Y-102867500D03*
X142487500Y-114437500D03*
X140250000Y-70807559D03*
X135920000Y-81180000D03*
X140070000Y-99927500D03*
X135070000Y-78730000D03*
X174802500Y-102447500D03*
X145700000Y-99927500D03*
X139177500Y-107947500D03*
X139373750Y-100113750D03*
%TO.N,+1V1*%
X143919822Y-110415178D03*
X141787500Y-104797500D03*
X146587500Y-105197500D03*
X144199700Y-101947500D03*
X143987500Y-111097500D03*
X143362500Y-106647500D03*
%TO.N,/VBAT*%
X149280000Y-142780000D03*
%TO.N,/SWD*%
X142969999Y-96427767D03*
%TO.N,/SWCLK*%
X142970000Y-94370000D03*
%TO.N,/DISPLAY_RESET*%
X135190000Y-95940000D03*
X145990000Y-89300000D03*
%TO.N,/SPI1_TX*%
X138230000Y-89390000D03*
X131620000Y-95450000D03*
%TO.N,/DISPLAY_BUSY*%
X136252500Y-97872500D03*
X148860000Y-89390000D03*
%TO.N,/SPI1_CLK*%
X140630000Y-89380000D03*
X132590000Y-97720000D03*
%TO.N,/DISPLAY_DC*%
X141454265Y-91919535D03*
X134460000Y-98670000D03*
%TO.N,/SPI1_CS*%
X133920000Y-94320000D03*
X143060000Y-89440000D03*
%TO.N,/RUN*%
X128862500Y-107825000D03*
X128862500Y-106100000D03*
X142632736Y-98510000D03*
%TO.N,/~{USB_BOOT}*%
X160525000Y-94350000D03*
X160550000Y-100250000D03*
%TO.N,Net-(R20-Pad2)*%
X127770000Y-113000000D03*
X167135000Y-91430000D03*
%TO.N,Net-(R23-Pad2)*%
X170900000Y-108090000D03*
X127767500Y-118000000D03*
%TO.N,Net-(R24-Pad2)*%
X127742500Y-131500000D03*
X174747689Y-106841765D03*
%TO.N,/BTN_MACRO_C*%
X170480000Y-98500000D03*
X164210000Y-94312500D03*
%TO.N,/Converter_In*%
X139587500Y-127047500D03*
X139862500Y-125122500D03*
%TO.N,/UVLO_RST*%
X131962500Y-117282500D03*
X151127500Y-136307500D03*
%TO.N,/STATUS_LED*%
X123762500Y-105297500D03*
X141110000Y-97080000D03*
%TO.N,/SX1262/DIO2*%
X150450000Y-75823559D03*
X149325000Y-57757559D03*
%TO.N,/SX1262/XTB*%
X142547686Y-74340633D03*
X136070000Y-74561493D03*
%TO.N,/SX1262/XTA*%
X132490000Y-73657559D03*
X142550566Y-73440635D03*
%TD*%
D20*
%TO.N,+3V3*%
X148787500Y-108947500D02*
X148787500Y-102872500D01*
X139177500Y-100310000D02*
X139177500Y-104260000D01*
X139373750Y-100113750D02*
X139177500Y-100310000D01*
X148417500Y-99927500D02*
X148787500Y-100297500D01*
D21*
X149962500Y-102867500D02*
X148792500Y-102867500D01*
D20*
X141612500Y-114437500D02*
X143312500Y-114437500D01*
D21*
X146287500Y-111472500D02*
X146287500Y-111447500D01*
D20*
X146287500Y-111447500D02*
X148787500Y-108947500D01*
D21*
X147237500Y-112422500D02*
X146287500Y-111472500D01*
D20*
X143312500Y-114437500D02*
X143312500Y-114422500D01*
X139177500Y-104260000D02*
X139177500Y-107947500D01*
X148787500Y-100297500D02*
X148787500Y-102872500D01*
D21*
X145312500Y-121822500D02*
X152137500Y-121822500D01*
D20*
X143312500Y-114422500D02*
X146287500Y-111447500D01*
D21*
X148792500Y-102867500D02*
X148787500Y-102872500D01*
X152137500Y-121822500D02*
X152937500Y-121022500D01*
D20*
X139373750Y-100113750D02*
X139560000Y-99927500D01*
D21*
X143487500Y-123647500D02*
X145312500Y-121822500D01*
D20*
X139560000Y-99927500D02*
X148417500Y-99927500D01*
D22*
%TO.N,+1V1*%
X145937500Y-106647500D02*
X146587500Y-105997500D01*
X143937500Y-106647500D02*
X143937500Y-110397500D01*
X141812500Y-106072500D02*
X141812500Y-102572500D01*
X143987500Y-111097500D02*
X143987500Y-111122500D01*
X142437500Y-101947500D02*
X144199700Y-101947500D01*
X144199700Y-101947500D02*
X145812500Y-101947500D01*
X145812500Y-101947500D02*
X146587500Y-102722500D01*
X143919822Y-111029822D02*
X143987500Y-111097500D01*
X143937500Y-110397500D02*
X143919822Y-110415178D01*
X141812500Y-102572500D02*
X142437500Y-101947500D01*
X142387500Y-106647500D02*
X141812500Y-106072500D01*
X146587500Y-105997500D02*
X146587500Y-105197500D01*
X143362500Y-106647500D02*
X142387500Y-106647500D01*
X143362500Y-106647500D02*
X145937500Y-106647500D01*
X143919822Y-110415178D02*
X143919822Y-111029822D01*
X146587500Y-102722500D02*
X146587500Y-105197500D01*
D21*
%TO.N,/VBAT*%
X132147500Y-144377500D02*
X129580000Y-141810000D01*
X149280000Y-142780000D02*
X147682500Y-144377500D01*
X147682500Y-144377500D02*
X132147500Y-144377500D01*
%TO.N,/SWD*%
X142590000Y-95080000D02*
X140980000Y-95080000D01*
X128237893Y-104875000D02*
X127350000Y-103987107D01*
X131185000Y-104875000D02*
X128237893Y-104875000D01*
X142969999Y-96427767D02*
X142969999Y-95459999D01*
X142969999Y-95459999D02*
X142590000Y-95080000D01*
X125164606Y-98187500D02*
X125162500Y-98187500D01*
X140980000Y-95080000D02*
X131185000Y-104875000D01*
X127350000Y-100375000D02*
X125162500Y-98187500D01*
X125162500Y-98287500D02*
X125162500Y-98187500D01*
X127350000Y-103987107D02*
X127350000Y-100375000D01*
%TO.N,/SWCLK*%
X137325000Y-97789950D02*
X130739950Y-104375000D01*
X142970000Y-94370000D02*
X140740000Y-94370000D01*
X130739950Y-104375000D02*
X128445000Y-104375000D01*
X127850000Y-103780000D02*
X127850000Y-95795000D01*
X127850000Y-95795000D02*
X125162500Y-93107500D01*
X128445000Y-104375000D02*
X127850000Y-103780000D01*
X140740000Y-94370000D02*
X137325000Y-97785000D01*
X137325000Y-97785000D02*
X137325000Y-97789950D01*
%TO.N,/DISPLAY_RESET*%
X135190000Y-95530000D02*
X137970000Y-92750000D01*
X137970000Y-92750000D02*
X141670000Y-92750000D01*
X145120000Y-89300000D02*
X145990000Y-89300000D01*
X135190000Y-95940000D02*
X135190000Y-95530000D01*
X141670000Y-92750000D02*
X145120000Y-89300000D01*
%TO.N,/SPI1_TX*%
X131640000Y-93460000D02*
X131640000Y-93510000D01*
X131640000Y-95430000D02*
X131640000Y-93510000D01*
X131620000Y-95450000D02*
X131640000Y-95430000D01*
X135710000Y-89390000D02*
X131640000Y-93460000D01*
X138230000Y-89390000D02*
X135710000Y-89390000D01*
%TO.N,/DISPLAY_BUSY*%
X138030000Y-93500000D02*
X142000000Y-93500000D01*
X148250000Y-90000000D02*
X148860000Y-89390000D01*
X136252500Y-95277500D02*
X138030000Y-93500000D01*
X145500000Y-90000000D02*
X148250000Y-90000000D01*
X136252500Y-97872500D02*
X136252500Y-95277500D01*
X142000000Y-93500000D02*
X145500000Y-90000000D01*
%TO.N,/SPI1_CLK*%
X132620000Y-93870000D02*
X135990000Y-90500000D01*
X139510000Y-90500000D02*
X140630000Y-89380000D01*
X132590000Y-97720000D02*
X132620000Y-97690000D01*
X135990000Y-90500000D02*
X139510000Y-90500000D01*
X132620000Y-97690000D02*
X132620000Y-93870000D01*
%TO.N,/DISPLAY_DC*%
X137720465Y-91919535D02*
X141454265Y-91919535D01*
X134460000Y-95180000D02*
X137720465Y-91919535D01*
X134460000Y-98670000D02*
X134460000Y-95180000D01*
%TO.N,/SPI1_CS*%
X141250000Y-91160000D02*
X142970000Y-89440000D01*
X133920000Y-94320000D02*
X133920000Y-94080000D01*
X142970000Y-89440000D02*
X143060000Y-89440000D01*
X136840000Y-91160000D02*
X141250000Y-91160000D01*
X133920000Y-94080000D02*
X136840000Y-91160000D01*
%TO.N,/RUN*%
X128862500Y-106100000D02*
X128862500Y-107825000D01*
X142632736Y-98510000D02*
X139540610Y-98510000D01*
X139540610Y-98510000D02*
X131950610Y-106100000D01*
X131950610Y-106100000D02*
X128862500Y-106100000D01*
D23*
%TO.N,/~{USB_BOOT}*%
X160525000Y-94350000D02*
X160525000Y-100225000D01*
X160525000Y-100225000D02*
X160550000Y-100250000D01*
D24*
%TO.N,Net-(R20-Pad2)*%
X163470000Y-94133261D02*
X165043261Y-92560000D01*
X163470000Y-111315000D02*
X163470000Y-94133261D01*
X166830000Y-92560000D02*
X167135000Y-92255000D01*
X167135000Y-92255000D02*
X167135000Y-91430000D01*
X159412500Y-115372500D02*
X163470000Y-111315000D01*
X132702500Y-115372500D02*
X159412500Y-115372500D01*
X127770000Y-113000000D02*
X130330000Y-113000000D01*
X130330000Y-113000000D02*
X132702500Y-115372500D01*
X165043261Y-92560000D02*
X166830000Y-92560000D01*
%TO.N,Net-(R23-Pad2)*%
X164340000Y-111554314D02*
X159846814Y-116047500D01*
X129720000Y-116047500D02*
X127767500Y-118000000D01*
X164340000Y-109160000D02*
X164340000Y-111554314D01*
X170900000Y-108090000D02*
X170260000Y-108730000D01*
X159846814Y-116047500D02*
X129720000Y-116047500D01*
X164770000Y-108730000D02*
X164340000Y-109160000D01*
X170260000Y-108730000D02*
X164770000Y-108730000D01*
%TO.N,Net-(R24-Pad2)*%
X128007500Y-120856739D02*
X128007500Y-119852500D01*
X131262500Y-116597500D02*
X165612500Y-116597500D01*
X128020000Y-131222500D02*
X128020000Y-120869239D01*
X128020000Y-120869239D02*
X128007500Y-120856739D01*
X128007500Y-119852500D02*
X131262500Y-116597500D01*
X174747689Y-107462311D02*
X174747689Y-106841765D01*
X127742500Y-131500000D02*
X128020000Y-131222500D01*
X165612500Y-116597500D02*
X174747689Y-107462311D01*
D25*
%TO.N,/BTN_MACRO_C*%
X170469348Y-98500000D02*
X166281848Y-94312500D01*
X166281848Y-94312500D02*
X164210000Y-94312500D01*
X170480000Y-98500000D02*
X170469348Y-98500000D01*
D23*
%TO.N,/Converter_In*%
X139937500Y-125047500D02*
X139987500Y-124997500D01*
X139587500Y-127047500D02*
X139587500Y-125397500D01*
X139587500Y-127097500D02*
X139587500Y-127047500D01*
X139587500Y-125397500D02*
X139937500Y-125047500D01*
%TO.N,/UVLO_RST*%
X151127500Y-136307500D02*
X151237500Y-136417500D01*
X131947500Y-117282500D02*
X131962500Y-117282500D01*
X133622500Y-117282500D02*
X151150000Y-134810000D01*
X131962500Y-117282500D02*
X133622500Y-117282500D01*
X151150000Y-136285000D02*
X151127500Y-136307500D01*
X131912500Y-117247500D02*
X131947500Y-117282500D01*
X151150000Y-134810000D02*
X151150000Y-136285000D01*
%TO.N,/STATUS_LED*%
X123762500Y-105297500D02*
X123862500Y-105397500D01*
X139910000Y-97080000D02*
X131640000Y-105350000D01*
X131640000Y-105350000D02*
X123815000Y-105350000D01*
X141110000Y-97080000D02*
X139910000Y-97080000D01*
X123815000Y-105350000D02*
X123762500Y-105297500D01*
%TD*%
%TA.AperFunction,Conductor*%
%TO.N,GND*%
G36*
X172298963Y-34261214D02*
G01*
X172842927Y-34279799D01*
X172851356Y-34280376D01*
X173390682Y-34335824D01*
X173399033Y-34336972D01*
X173933329Y-34429097D01*
X173941601Y-34430817D01*
X174468337Y-34559182D01*
X174476467Y-34561459D01*
X174993095Y-34725433D01*
X174993227Y-34725475D01*
X175001207Y-34728311D01*
X175505549Y-34927201D01*
X175513308Y-34930572D01*
X176002907Y-35163418D01*
X176010416Y-35167308D01*
X176207292Y-35278007D01*
X176482999Y-35433031D01*
X176490217Y-35437421D01*
X176943541Y-35734758D01*
X176950458Y-35739640D01*
X177133826Y-35878693D01*
X177382469Y-36067246D01*
X177389013Y-36072571D01*
X177762897Y-36398583D01*
X177797638Y-36428876D01*
X177803826Y-36434655D01*
X178187181Y-36818013D01*
X178192960Y-36824201D01*
X178549260Y-37232826D01*
X178554603Y-37239394D01*
X178882179Y-37671370D01*
X178887060Y-37678285D01*
X179106913Y-38013479D01*
X179184408Y-38131629D01*
X179188807Y-38138864D01*
X179454511Y-38611423D01*
X179458406Y-38618940D01*
X179691244Y-39108529D01*
X179694618Y-39116295D01*
X179893511Y-39620658D01*
X179896346Y-39628636D01*
X180008960Y-39983455D01*
X180014769Y-40021508D01*
X179827956Y-82848327D01*
X179807979Y-82915280D01*
X179754976Y-82960804D01*
X179704313Y-82971785D01*
X145834356Y-83069122D01*
X145767261Y-83049631D01*
X145721354Y-82996958D01*
X145710000Y-82945123D01*
X145710000Y-75823558D01*
X149894750Y-75823558D01*
X149894750Y-75823559D01*
X149913670Y-75967267D01*
X149913671Y-75967271D01*
X149969137Y-76101181D01*
X149969138Y-76101183D01*
X149969139Y-76101184D01*
X150057379Y-76216180D01*
X150172375Y-76304420D01*
X150306291Y-76359889D01*
X150433280Y-76376607D01*
X150449999Y-76378809D01*
X150450000Y-76378809D01*
X150450001Y-76378809D01*
X150464977Y-76376837D01*
X150593709Y-76359889D01*
X150727625Y-76304420D01*
X150842621Y-76216180D01*
X150930861Y-76101184D01*
X150986330Y-75967268D01*
X151005250Y-75823559D01*
X150986330Y-75679850D01*
X150930861Y-75545934D01*
X150842621Y-75430938D01*
X150727625Y-75342698D01*
X150727624Y-75342697D01*
X150727622Y-75342696D01*
X150593712Y-75287230D01*
X150593710Y-75287229D01*
X150593709Y-75287229D01*
X150521854Y-75277769D01*
X150450001Y-75268309D01*
X150449999Y-75268309D01*
X150306291Y-75287229D01*
X150306287Y-75287230D01*
X150172377Y-75342696D01*
X150057379Y-75430938D01*
X149969137Y-75545936D01*
X149913671Y-75679846D01*
X149913670Y-75679850D01*
X149894750Y-75823558D01*
X145710000Y-75823558D01*
X145710000Y-71799920D01*
X145709999Y-71799919D01*
X142278279Y-71815964D01*
X142211148Y-71796593D01*
X142165147Y-71744003D01*
X142153700Y-71692115D01*
X142152445Y-70611483D01*
X142152410Y-70607932D01*
X142152331Y-70603649D01*
X142141849Y-70542539D01*
X142119783Y-70476245D01*
X142119782Y-70476241D01*
X142110403Y-70452930D01*
X142110400Y-70452924D01*
X142053741Y-70381131D01*
X141999346Y-70337298D01*
X141999345Y-70337297D01*
X141999341Y-70337294D01*
X141999338Y-70337292D01*
X141999335Y-70337290D01*
X141949045Y-70307451D01*
X141949046Y-70307451D01*
X141883412Y-70280265D01*
X141871090Y-70275161D01*
X141843061Y-70258978D01*
X141774708Y-70206529D01*
X141766553Y-70199695D01*
X141743622Y-70178738D01*
X141743563Y-70178684D01*
X141741698Y-70177001D01*
X141661587Y-70132877D01*
X141594423Y-70113634D01*
X141582832Y-70112045D01*
X141536472Y-70105689D01*
X141536468Y-70105689D01*
X139021847Y-70122186D01*
X139021820Y-70122188D01*
X138978860Y-70127021D01*
X138978819Y-70127028D01*
X138928158Y-70138224D01*
X138918627Y-70140569D01*
X138837916Y-70183579D01*
X138837913Y-70183581D01*
X138785104Y-70229340D01*
X138760821Y-70253133D01*
X138758458Y-70250721D01*
X138715251Y-70282358D01*
X138672882Y-70289723D01*
X134312291Y-70280265D01*
X134245294Y-70260435D01*
X134199654Y-70207532D01*
X134188569Y-70157720D01*
X134159842Y-67702950D01*
X134159841Y-67702949D01*
X132850000Y-67689999D01*
X132849999Y-67690000D01*
X132900000Y-71890000D01*
X136376000Y-71890000D01*
X136443039Y-71909685D01*
X136488794Y-71962489D01*
X136500000Y-72014000D01*
X136500000Y-73958168D01*
X136480315Y-74025207D01*
X136427511Y-74070962D01*
X136358353Y-74080906D01*
X136328549Y-74072730D01*
X136261583Y-74044992D01*
X136213709Y-74025163D01*
X136141854Y-74015703D01*
X136070001Y-74006243D01*
X136069999Y-74006243D01*
X135926291Y-74025163D01*
X135926287Y-74025164D01*
X135792377Y-74080630D01*
X135677379Y-74168872D01*
X135589137Y-74283870D01*
X135533671Y-74417780D01*
X135533670Y-74417784D01*
X135514750Y-74561492D01*
X135514750Y-74561493D01*
X135533670Y-74705201D01*
X135533671Y-74705205D01*
X135589137Y-74839115D01*
X135589138Y-74839117D01*
X135589139Y-74839118D01*
X135677379Y-74954114D01*
X135792375Y-75042354D01*
X135926291Y-75097823D01*
X136053280Y-75114541D01*
X136069999Y-75116743D01*
X136070000Y-75116743D01*
X136070001Y-75116743D01*
X136084977Y-75114771D01*
X136213709Y-75097823D01*
X136328548Y-75050256D01*
X136398017Y-75042787D01*
X136460496Y-75074063D01*
X136496148Y-75134152D01*
X136500000Y-75164817D01*
X136500000Y-75466696D01*
X136480315Y-75533735D01*
X136427511Y-75579490D01*
X136376699Y-75590694D01*
X132949841Y-75610000D01*
X132939999Y-80350000D01*
X132940000Y-80350000D01*
X134500000Y-80350000D01*
X134500000Y-79679500D01*
X134519685Y-79612461D01*
X134572489Y-79566706D01*
X134624000Y-79555500D01*
X141832951Y-79555500D01*
X141832952Y-79555500D01*
X141839146Y-79554832D01*
X141907910Y-79567214D01*
X141959064Y-79614806D01*
X141976425Y-79680290D01*
X141918780Y-82968658D01*
X141897923Y-83035343D01*
X141844326Y-83080165D01*
X141795350Y-83090484D01*
X112464551Y-83220831D01*
X112397425Y-83201444D01*
X112351436Y-83148844D01*
X112340000Y-83096832D01*
X112340000Y-81179999D01*
X135364750Y-81179999D01*
X135364750Y-81180000D01*
X135383670Y-81323708D01*
X135383671Y-81323712D01*
X135439137Y-81457622D01*
X135439138Y-81457624D01*
X135439139Y-81457625D01*
X135527379Y-81572621D01*
X135642375Y-81660861D01*
X135776291Y-81716330D01*
X135903280Y-81733048D01*
X135919999Y-81735250D01*
X135920000Y-81735250D01*
X135920001Y-81735250D01*
X135934977Y-81733278D01*
X136063709Y-81716330D01*
X136197625Y-81660861D01*
X136312621Y-81572621D01*
X136312621Y-81572620D01*
X136314513Y-81571169D01*
X136379682Y-81545974D01*
X136448127Y-81560012D01*
X136465487Y-81571169D01*
X136582373Y-81660860D01*
X136582374Y-81660860D01*
X136582375Y-81660861D01*
X136716291Y-81716330D01*
X136843280Y-81733048D01*
X136859999Y-81735250D01*
X136860000Y-81735250D01*
X136860001Y-81735250D01*
X136874977Y-81733278D01*
X137003709Y-81716330D01*
X137137625Y-81660861D01*
X137252621Y-81572621D01*
X137340861Y-81457625D01*
X137396330Y-81323709D01*
X137415250Y-81180000D01*
X137396330Y-81036291D01*
X137340861Y-80902375D01*
X137252621Y-80787379D01*
X137137625Y-80699139D01*
X137137624Y-80699138D01*
X137137622Y-80699137D01*
X137003712Y-80643671D01*
X137003710Y-80643670D01*
X137003709Y-80643670D01*
X136931854Y-80634210D01*
X136860001Y-80624750D01*
X136859999Y-80624750D01*
X136716291Y-80643670D01*
X136716287Y-80643671D01*
X136582376Y-80699138D01*
X136582374Y-80699139D01*
X136465486Y-80788831D01*
X136400317Y-80814025D01*
X136331872Y-80799987D01*
X136314514Y-80788831D01*
X136197625Y-80699139D01*
X136197623Y-80699138D01*
X136063712Y-80643671D01*
X136063710Y-80643670D01*
X136063709Y-80643670D01*
X135991854Y-80634210D01*
X135920001Y-80624750D01*
X135919999Y-80624750D01*
X135776291Y-80643670D01*
X135776287Y-80643671D01*
X135642377Y-80699137D01*
X135527379Y-80787379D01*
X135439137Y-80902377D01*
X135383671Y-81036287D01*
X135383670Y-81036291D01*
X135364750Y-81179999D01*
X112340000Y-81179999D01*
X112340000Y-73657558D01*
X131934750Y-73657558D01*
X131934750Y-73657559D01*
X131953670Y-73801267D01*
X131953671Y-73801271D01*
X132009137Y-73935181D01*
X132009138Y-73935183D01*
X132009139Y-73935184D01*
X132097379Y-74050180D01*
X132212375Y-74138420D01*
X132346291Y-74193889D01*
X132473280Y-74210607D01*
X132489999Y-74212809D01*
X132490000Y-74212809D01*
X132490001Y-74212809D01*
X132504977Y-74210837D01*
X132633709Y-74193889D01*
X132767625Y-74138420D01*
X132882621Y-74050180D01*
X132970861Y-73935184D01*
X133026330Y-73801268D01*
X133045250Y-73657559D01*
X133026330Y-73513850D01*
X132970861Y-73379934D01*
X132882621Y-73264938D01*
X132767625Y-73176698D01*
X132767624Y-73176697D01*
X132767622Y-73176696D01*
X132633712Y-73121230D01*
X132633710Y-73121229D01*
X132633709Y-73121229D01*
X132561854Y-73111769D01*
X132490001Y-73102309D01*
X132489999Y-73102309D01*
X132346291Y-73121229D01*
X132346287Y-73121230D01*
X132212377Y-73176696D01*
X132097379Y-73264938D01*
X132009137Y-73379936D01*
X131953671Y-73513846D01*
X131953670Y-73513850D01*
X131934750Y-73657558D01*
X112340000Y-73657558D01*
X112340000Y-57757558D01*
X148769750Y-57757558D01*
X148769750Y-57757559D01*
X148788670Y-57901267D01*
X148788671Y-57901271D01*
X148844137Y-58035181D01*
X148844138Y-58035183D01*
X148844139Y-58035184D01*
X148932379Y-58150180D01*
X149047375Y-58238420D01*
X149181291Y-58293889D01*
X149308280Y-58310607D01*
X149324999Y-58312809D01*
X149325000Y-58312809D01*
X149325001Y-58312809D01*
X149339977Y-58310837D01*
X149468709Y-58293889D01*
X149602625Y-58238420D01*
X149717621Y-58150180D01*
X149805861Y-58035184D01*
X149861330Y-57901268D01*
X149880250Y-57757559D01*
X149861330Y-57613850D01*
X149805861Y-57479934D01*
X149717621Y-57364938D01*
X149602625Y-57276698D01*
X149602624Y-57276697D01*
X149602622Y-57276696D01*
X149468712Y-57221230D01*
X149468710Y-57221229D01*
X149468709Y-57221229D01*
X149396854Y-57211769D01*
X149325001Y-57202309D01*
X149324999Y-57202309D01*
X149181291Y-57221229D01*
X149181287Y-57221230D01*
X149047377Y-57276696D01*
X148932379Y-57364938D01*
X148844137Y-57479936D01*
X148788671Y-57613846D01*
X148788670Y-57613850D01*
X148769750Y-57757558D01*
X112340000Y-57757558D01*
X112340000Y-57057558D01*
X139794750Y-57057558D01*
X139794750Y-57057559D01*
X139813670Y-57201267D01*
X139813671Y-57201271D01*
X139869137Y-57335181D01*
X139869138Y-57335183D01*
X139869139Y-57335184D01*
X139957379Y-57450180D01*
X140072375Y-57538420D01*
X140206291Y-57593889D01*
X140333280Y-57610607D01*
X140349999Y-57612809D01*
X140350000Y-57612809D01*
X140350001Y-57612809D01*
X140364977Y-57610837D01*
X140493709Y-57593889D01*
X140627625Y-57538420D01*
X140742621Y-57450180D01*
X140830861Y-57335184D01*
X140886330Y-57201268D01*
X140905250Y-57057559D01*
X140886330Y-56913850D01*
X140830861Y-56779934D01*
X140742621Y-56664938D01*
X140627625Y-56576698D01*
X140627624Y-56576697D01*
X140627622Y-56576696D01*
X140493712Y-56521230D01*
X140493710Y-56521229D01*
X140493709Y-56521229D01*
X140421854Y-56511769D01*
X140350001Y-56502309D01*
X140349999Y-56502309D01*
X140206291Y-56521229D01*
X140206287Y-56521230D01*
X140072377Y-56576696D01*
X139957379Y-56664938D01*
X139869137Y-56779936D01*
X139813671Y-56913846D01*
X139813670Y-56913850D01*
X139794750Y-57057558D01*
X112340000Y-57057558D01*
X112340000Y-42199891D01*
X118614181Y-42199891D01*
X118614181Y-42443945D01*
X118652360Y-42684994D01*
X118727777Y-42917103D01*
X118766960Y-42994005D01*
X118838577Y-43134560D01*
X118982020Y-43331994D01*
X118982024Y-43331999D01*
X119154599Y-43504574D01*
X119154604Y-43504578D01*
X119154632Y-43504598D01*
X119352042Y-43648024D01*
X119569496Y-43758822D01*
X119801605Y-43834239D01*
X120042654Y-43872418D01*
X120042655Y-43872418D01*
X120286707Y-43872418D01*
X120286708Y-43872418D01*
X120527757Y-43834239D01*
X120759866Y-43758822D01*
X120977320Y-43648024D01*
X121174764Y-43504573D01*
X121331783Y-43347554D01*
X140715233Y-43347554D01*
X140715233Y-43347563D01*
X140734273Y-43601638D01*
X140790968Y-43850036D01*
X140790973Y-43850053D01*
X140884058Y-44087230D01*
X140884057Y-44087230D01*
X141011457Y-44307891D01*
X141053452Y-44360552D01*
X141704152Y-43709851D01*
X141711049Y-43726501D01*
X141798599Y-43857529D01*
X141910030Y-43968960D01*
X142041058Y-44056510D01*
X142057705Y-44063405D01*
X141406813Y-44714296D01*
X141567623Y-44823934D01*
X141567624Y-44823935D01*
X141797176Y-44934480D01*
X141797174Y-44934480D01*
X142040652Y-45009583D01*
X142040658Y-45009585D01*
X142292595Y-45047558D01*
X142292604Y-45047559D01*
X142547396Y-45047559D01*
X142547404Y-45047558D01*
X142799341Y-45009585D01*
X142799347Y-45009583D01*
X143042824Y-44934480D01*
X143272381Y-44823932D01*
X143433185Y-44714296D01*
X142782294Y-44063405D01*
X142798942Y-44056510D01*
X142929970Y-43968960D01*
X143041401Y-43857529D01*
X143128951Y-43726501D01*
X143135846Y-43709853D01*
X143786545Y-44360552D01*
X143828545Y-44307886D01*
X143955941Y-44087230D01*
X144049026Y-43850053D01*
X144049031Y-43850036D01*
X144105726Y-43601638D01*
X144124767Y-43347563D01*
X144124767Y-43347554D01*
X145795233Y-43347554D01*
X145795233Y-43347563D01*
X145814273Y-43601638D01*
X145870968Y-43850036D01*
X145870973Y-43850053D01*
X145964058Y-44087230D01*
X145964057Y-44087230D01*
X146091457Y-44307891D01*
X146133452Y-44360552D01*
X146784152Y-43709851D01*
X146791049Y-43726501D01*
X146878599Y-43857529D01*
X146990030Y-43968960D01*
X147121058Y-44056510D01*
X147137705Y-44063405D01*
X146486813Y-44714296D01*
X146647623Y-44823934D01*
X146647624Y-44823935D01*
X146877176Y-44934480D01*
X146877174Y-44934480D01*
X147120652Y-45009583D01*
X147120658Y-45009585D01*
X147372595Y-45047558D01*
X147372604Y-45047559D01*
X147627396Y-45047559D01*
X147627404Y-45047558D01*
X147879341Y-45009585D01*
X147879347Y-45009583D01*
X148122824Y-44934480D01*
X148352381Y-44823932D01*
X148513185Y-44714296D01*
X147862294Y-44063405D01*
X147878942Y-44056510D01*
X148009970Y-43968960D01*
X148121401Y-43857529D01*
X148208951Y-43726501D01*
X148215846Y-43709853D01*
X148866545Y-44360552D01*
X148908545Y-44307886D01*
X149035941Y-44087230D01*
X149129026Y-43850053D01*
X149129031Y-43850036D01*
X149185726Y-43601638D01*
X149204767Y-43347563D01*
X149204767Y-43347554D01*
X149185726Y-43093479D01*
X149129031Y-42845081D01*
X149129026Y-42845064D01*
X149035941Y-42607887D01*
X149035942Y-42607887D01*
X148908544Y-42387230D01*
X148866546Y-42334565D01*
X148215846Y-42985264D01*
X148208951Y-42968617D01*
X148121401Y-42837589D01*
X148009970Y-42726158D01*
X147878942Y-42638608D01*
X147862292Y-42631711D01*
X148294093Y-42199911D01*
X170684821Y-42199911D01*
X170684821Y-42443964D01*
X170722996Y-42684994D01*
X170723000Y-42685014D01*
X170798417Y-42917123D01*
X170909206Y-43134560D01*
X170909217Y-43134580D01*
X171052660Y-43332014D01*
X171052664Y-43332019D01*
X171225239Y-43504594D01*
X171225244Y-43504598D01*
X171358809Y-43601638D01*
X171422682Y-43648044D01*
X171640136Y-43758842D01*
X171872245Y-43834259D01*
X172113294Y-43872438D01*
X172113295Y-43872438D01*
X172357347Y-43872438D01*
X172357348Y-43872438D01*
X172598397Y-43834259D01*
X172830506Y-43758842D01*
X173047960Y-43648044D01*
X173245404Y-43504593D01*
X173417976Y-43332021D01*
X173561427Y-43134577D01*
X173672225Y-42917123D01*
X173747642Y-42685014D01*
X173785821Y-42443965D01*
X173785821Y-42199911D01*
X173747642Y-41958862D01*
X173672225Y-41726753D01*
X173561427Y-41509299D01*
X173534938Y-41472840D01*
X173417981Y-41311861D01*
X173417977Y-41311856D01*
X173245402Y-41139281D01*
X173245397Y-41139277D01*
X173047963Y-40995834D01*
X173047962Y-40995833D01*
X173047960Y-40995832D01*
X172830506Y-40885034D01*
X172598397Y-40809617D01*
X172598395Y-40809616D01*
X172598393Y-40809616D01*
X172430090Y-40782959D01*
X172357348Y-40771438D01*
X172113294Y-40771438D01*
X172057414Y-40780288D01*
X171872248Y-40809616D01*
X171872245Y-40809617D01*
X171640195Y-40885015D01*
X171640133Y-40885035D01*
X171422678Y-40995834D01*
X171225244Y-41139277D01*
X171225239Y-41139281D01*
X171052664Y-41311856D01*
X171052660Y-41311861D01*
X170909217Y-41509295D01*
X170798418Y-41726750D01*
X170722999Y-41958865D01*
X170684821Y-42199911D01*
X148294093Y-42199911D01*
X148513185Y-41980820D01*
X148352377Y-41871183D01*
X148352376Y-41871182D01*
X148122823Y-41760637D01*
X148122825Y-41760637D01*
X147879347Y-41685534D01*
X147879341Y-41685532D01*
X147627404Y-41647559D01*
X147372595Y-41647559D01*
X147120658Y-41685532D01*
X147120652Y-41685534D01*
X146877175Y-41760637D01*
X146647624Y-41871182D01*
X146647616Y-41871187D01*
X146486813Y-41980820D01*
X147137705Y-42631712D01*
X147121058Y-42638608D01*
X146990030Y-42726158D01*
X146878599Y-42837589D01*
X146791049Y-42968617D01*
X146784153Y-42985265D01*
X146133453Y-42334565D01*
X146091455Y-42387229D01*
X145964058Y-42607887D01*
X145870973Y-42845064D01*
X145870968Y-42845081D01*
X145814273Y-43093479D01*
X145795233Y-43347554D01*
X144124767Y-43347554D01*
X144105726Y-43093479D01*
X144049031Y-42845081D01*
X144049026Y-42845064D01*
X143955941Y-42607887D01*
X143955942Y-42607887D01*
X143828544Y-42387230D01*
X143786546Y-42334565D01*
X143135846Y-42985264D01*
X143128951Y-42968617D01*
X143041401Y-42837589D01*
X142929970Y-42726158D01*
X142798942Y-42638608D01*
X142782292Y-42631711D01*
X143433185Y-41980820D01*
X143272377Y-41871183D01*
X143272376Y-41871182D01*
X143042823Y-41760637D01*
X143042825Y-41760637D01*
X142799347Y-41685534D01*
X142799341Y-41685532D01*
X142547404Y-41647559D01*
X142292595Y-41647559D01*
X142040658Y-41685532D01*
X142040652Y-41685534D01*
X141797175Y-41760637D01*
X141567624Y-41871182D01*
X141567616Y-41871187D01*
X141406813Y-41980820D01*
X142057705Y-42631712D01*
X142041058Y-42638608D01*
X141910030Y-42726158D01*
X141798599Y-42837589D01*
X141711049Y-42968617D01*
X141704153Y-42985265D01*
X141053453Y-42334565D01*
X141011455Y-42387229D01*
X140884058Y-42607887D01*
X140790973Y-42845064D01*
X140790968Y-42845081D01*
X140734273Y-43093479D01*
X140715233Y-43347554D01*
X121331783Y-43347554D01*
X121347336Y-43332001D01*
X121490787Y-43134557D01*
X121601585Y-42917103D01*
X121677002Y-42684994D01*
X121715181Y-42443945D01*
X121715181Y-42199891D01*
X121677002Y-41958842D01*
X121601585Y-41726733D01*
X121490787Y-41509279D01*
X121464313Y-41472840D01*
X121347341Y-41311841D01*
X121347337Y-41311836D01*
X121174762Y-41139261D01*
X121174757Y-41139257D01*
X120977323Y-40995814D01*
X120977322Y-40995813D01*
X120977320Y-40995812D01*
X120759866Y-40885014D01*
X120527757Y-40809597D01*
X120527755Y-40809596D01*
X120527753Y-40809596D01*
X120514879Y-40807557D01*
X143629437Y-40807557D01*
X143629437Y-40807560D01*
X143649650Y-41038603D01*
X143649651Y-41038610D01*
X143709678Y-41262633D01*
X143709679Y-41262635D01*
X143709680Y-41262638D01*
X143807699Y-41472841D01*
X143940730Y-41662828D01*
X144104731Y-41826829D01*
X144294718Y-41959860D01*
X144504921Y-42057879D01*
X144728950Y-42117908D01*
X144893985Y-42132346D01*
X144959998Y-42138122D01*
X144960000Y-42138122D01*
X144960002Y-42138122D01*
X145017762Y-42133068D01*
X145191050Y-42117908D01*
X145415079Y-42057879D01*
X145625282Y-41959860D01*
X145815269Y-41826829D01*
X145979270Y-41662828D01*
X146112301Y-41472841D01*
X146210320Y-41262638D01*
X146270349Y-41038609D01*
X146290563Y-40807559D01*
X146270349Y-40576509D01*
X146210320Y-40352480D01*
X146112301Y-40142278D01*
X146112299Y-40142275D01*
X146112298Y-40142273D01*
X145979273Y-39952294D01*
X145979268Y-39952288D01*
X145815269Y-39788289D01*
X145751925Y-39743935D01*
X145625282Y-39655258D01*
X145415079Y-39557239D01*
X145415076Y-39557238D01*
X145415074Y-39557237D01*
X145191051Y-39497210D01*
X145191044Y-39497209D01*
X144960002Y-39476996D01*
X144959998Y-39476996D01*
X144728955Y-39497209D01*
X144728948Y-39497210D01*
X144504917Y-39557240D01*
X144294718Y-39655258D01*
X144294714Y-39655260D01*
X144104735Y-39788285D01*
X144104729Y-39788290D01*
X143940731Y-39952288D01*
X143940726Y-39952294D01*
X143807701Y-40142273D01*
X143807699Y-40142277D01*
X143709681Y-40352476D01*
X143649651Y-40576507D01*
X143649650Y-40576514D01*
X143629437Y-40807557D01*
X120514879Y-40807557D01*
X120359450Y-40782939D01*
X120286708Y-40771418D01*
X120042654Y-40771418D01*
X119986774Y-40780268D01*
X119801608Y-40809596D01*
X119569493Y-40885015D01*
X119352038Y-40995814D01*
X119154604Y-41139257D01*
X119154599Y-41139261D01*
X118982024Y-41311836D01*
X118982020Y-41311841D01*
X118838577Y-41509275D01*
X118727778Y-41726730D01*
X118727777Y-41726732D01*
X118727777Y-41726733D01*
X118727771Y-41726753D01*
X118652359Y-41958845D01*
X118627166Y-42117907D01*
X118614181Y-42199891D01*
X112340000Y-42199891D01*
X112340000Y-40665033D01*
X112343526Y-40635675D01*
X112412539Y-40352476D01*
X112461029Y-40153493D01*
X112463300Y-40145387D01*
X112627317Y-39628611D01*
X112630151Y-39620637D01*
X112829053Y-39116253D01*
X112832410Y-39108528D01*
X113065262Y-38618906D01*
X113069153Y-38611399D01*
X113119623Y-38521638D01*
X113262486Y-38267554D01*
X140715233Y-38267554D01*
X140715233Y-38267563D01*
X140734273Y-38521638D01*
X140790968Y-38770036D01*
X140790973Y-38770053D01*
X140884058Y-39007230D01*
X140884057Y-39007230D01*
X141011457Y-39227891D01*
X141053452Y-39280552D01*
X141704152Y-38629851D01*
X141711049Y-38646501D01*
X141798599Y-38777529D01*
X141910030Y-38888960D01*
X142041058Y-38976510D01*
X142057705Y-38983405D01*
X141406813Y-39634296D01*
X141567623Y-39743934D01*
X141567624Y-39743935D01*
X141797176Y-39854480D01*
X141797174Y-39854480D01*
X142040652Y-39929583D01*
X142040658Y-39929585D01*
X142292595Y-39967558D01*
X142292604Y-39967559D01*
X142547396Y-39967559D01*
X142547404Y-39967558D01*
X142799341Y-39929585D01*
X142799347Y-39929583D01*
X143042824Y-39854480D01*
X143272381Y-39743932D01*
X143433185Y-39634296D01*
X142782294Y-38983405D01*
X142798942Y-38976510D01*
X142929970Y-38888960D01*
X143041401Y-38777529D01*
X143128951Y-38646501D01*
X143135846Y-38629853D01*
X143786545Y-39280552D01*
X143828545Y-39227886D01*
X143955941Y-39007230D01*
X144049026Y-38770053D01*
X144049031Y-38770036D01*
X144105726Y-38521638D01*
X144124767Y-38267563D01*
X144124767Y-38267554D01*
X145795233Y-38267554D01*
X145795233Y-38267563D01*
X145814273Y-38521638D01*
X145870968Y-38770036D01*
X145870973Y-38770053D01*
X145964058Y-39007230D01*
X145964057Y-39007230D01*
X146091457Y-39227891D01*
X146133452Y-39280552D01*
X146784152Y-38629851D01*
X146791049Y-38646501D01*
X146878599Y-38777529D01*
X146990030Y-38888960D01*
X147121058Y-38976510D01*
X147137705Y-38983405D01*
X146486813Y-39634296D01*
X146647623Y-39743934D01*
X146647624Y-39743935D01*
X146877176Y-39854480D01*
X146877174Y-39854480D01*
X147120652Y-39929583D01*
X147120658Y-39929585D01*
X147372595Y-39967558D01*
X147372604Y-39967559D01*
X147627396Y-39967559D01*
X147627404Y-39967558D01*
X147879341Y-39929585D01*
X147879347Y-39929583D01*
X148122824Y-39854480D01*
X148352381Y-39743932D01*
X148513185Y-39634296D01*
X147862294Y-38983405D01*
X147878942Y-38976510D01*
X148009970Y-38888960D01*
X148121401Y-38777529D01*
X148208951Y-38646501D01*
X148215846Y-38629853D01*
X148866545Y-39280552D01*
X148908545Y-39227886D01*
X149035941Y-39007230D01*
X149129026Y-38770053D01*
X149129031Y-38770036D01*
X149185726Y-38521638D01*
X149204767Y-38267563D01*
X149204767Y-38267554D01*
X149185726Y-38013479D01*
X149129031Y-37765081D01*
X149129026Y-37765064D01*
X149035941Y-37527887D01*
X149035942Y-37527887D01*
X148908544Y-37307230D01*
X148866546Y-37254565D01*
X148215846Y-37905264D01*
X148208951Y-37888617D01*
X148121401Y-37757589D01*
X148009970Y-37646158D01*
X147878942Y-37558608D01*
X147862292Y-37551711D01*
X148513185Y-36900820D01*
X148352377Y-36791183D01*
X148352376Y-36791182D01*
X148122823Y-36680637D01*
X148122825Y-36680637D01*
X147879347Y-36605534D01*
X147879341Y-36605532D01*
X147627404Y-36567559D01*
X147372595Y-36567559D01*
X147120658Y-36605532D01*
X147120652Y-36605534D01*
X146877175Y-36680637D01*
X146647624Y-36791182D01*
X146647616Y-36791187D01*
X146486813Y-36900820D01*
X147137705Y-37551712D01*
X147121058Y-37558608D01*
X146990030Y-37646158D01*
X146878599Y-37757589D01*
X146791049Y-37888617D01*
X146784153Y-37905265D01*
X146133453Y-37254565D01*
X146091455Y-37307229D01*
X145964058Y-37527887D01*
X145870973Y-37765064D01*
X145870968Y-37765081D01*
X145814273Y-38013479D01*
X145795233Y-38267554D01*
X144124767Y-38267554D01*
X144105726Y-38013479D01*
X144049031Y-37765081D01*
X144049026Y-37765064D01*
X143955941Y-37527887D01*
X143955942Y-37527887D01*
X143828544Y-37307230D01*
X143786546Y-37254565D01*
X143135846Y-37905264D01*
X143128951Y-37888617D01*
X143041401Y-37757589D01*
X142929970Y-37646158D01*
X142798942Y-37558608D01*
X142782292Y-37551711D01*
X143433185Y-36900820D01*
X143272377Y-36791183D01*
X143272376Y-36791182D01*
X143042823Y-36680637D01*
X143042825Y-36680637D01*
X142799347Y-36605534D01*
X142799341Y-36605532D01*
X142547404Y-36567559D01*
X142292595Y-36567559D01*
X142040658Y-36605532D01*
X142040652Y-36605534D01*
X141797175Y-36680637D01*
X141567624Y-36791182D01*
X141567616Y-36791187D01*
X141406813Y-36900820D01*
X142057705Y-37551712D01*
X142041058Y-37558608D01*
X141910030Y-37646158D01*
X141798599Y-37757589D01*
X141711049Y-37888617D01*
X141704153Y-37905265D01*
X141053453Y-37254565D01*
X141011455Y-37307229D01*
X140884058Y-37527887D01*
X140790973Y-37765064D01*
X140790968Y-37765081D01*
X140734273Y-38013479D01*
X140715233Y-38267554D01*
X113262486Y-38267554D01*
X113334874Y-38138812D01*
X113339242Y-38131629D01*
X113636621Y-37678235D01*
X113641473Y-37671361D01*
X113969077Y-37239351D01*
X113974401Y-37232806D01*
X114330727Y-36824153D01*
X114336479Y-36817993D01*
X114719872Y-36434597D01*
X114726030Y-36428847D01*
X115134660Y-36072538D01*
X115141216Y-36067205D01*
X115573225Y-35739601D01*
X115580122Y-35734731D01*
X116033480Y-35437371D01*
X116040670Y-35432999D01*
X116513295Y-35167253D01*
X116520763Y-35163384D01*
X117010400Y-34930521D01*
X117018122Y-34927167D01*
X117522527Y-34728253D01*
X117530430Y-34725444D01*
X118047248Y-34561411D01*
X118055347Y-34559142D01*
X118582125Y-34430768D01*
X118590358Y-34429056D01*
X119124657Y-34336932D01*
X119133034Y-34335780D01*
X119672357Y-34280333D01*
X119680780Y-34279756D01*
X120223524Y-34261214D01*
X120227758Y-34261142D01*
X120274454Y-34261142D01*
X172249261Y-34261142D01*
X172294729Y-34261142D01*
X172298963Y-34261214D01*
G37*
%TD.AperFunction*%
%TD*%
%TA.AperFunction,Conductor*%
%TO.N,+3V3*%
G36*
X168122689Y-103116765D02*
G01*
X168122689Y-105541765D01*
X168372493Y-105816549D01*
X168374308Y-105818707D01*
X168376965Y-105821469D01*
X168622689Y-106091765D01*
X169247689Y-106091765D01*
X169197689Y-107191765D01*
X168872689Y-107191765D01*
X166752236Y-107191765D01*
X166694045Y-107172858D01*
X166692353Y-107171600D01*
X166461806Y-106996478D01*
X166426904Y-106946224D01*
X166422689Y-106917643D01*
X166422689Y-104966743D01*
X166398942Y-103067002D01*
X166417120Y-103008580D01*
X166466167Y-102972000D01*
X166497934Y-102966765D01*
X166724699Y-102966765D01*
X168247689Y-102966765D01*
X168122689Y-103116765D01*
G37*
%TD.AperFunction*%
%TD*%
%TA.AperFunction,Conductor*%
%TO.N,+3V3*%
G36*
X175408940Y-88711685D02*
G01*
X175466965Y-88731092D01*
X175478091Y-88740677D01*
X176395530Y-89658116D01*
X176423307Y-89712633D01*
X176424526Y-89727929D01*
X176449355Y-102614226D01*
X176430560Y-102672453D01*
X176412063Y-102691832D01*
X174751789Y-104015240D01*
X174694500Y-104036726D01*
X174689485Y-104036823D01*
X172003021Y-104020638D01*
X172004715Y-103191765D01*
X172172689Y-102966765D01*
X170247689Y-102966765D01*
X170422689Y-103191765D01*
X170422689Y-104011119D01*
X168122689Y-103997264D01*
X168122689Y-103116765D01*
X168247689Y-102966765D01*
X166724701Y-102966765D01*
X166770114Y-102918324D01*
X166823707Y-102888803D01*
X166842338Y-102887034D01*
X173749448Y-102887034D01*
X174824448Y-101837034D01*
X174820991Y-100305697D01*
X174839766Y-100247467D01*
X174859718Y-100226940D01*
X174875121Y-100215121D01*
X174963361Y-100100125D01*
X175018830Y-99966209D01*
X175037750Y-99822500D01*
X175018830Y-99678791D01*
X174963361Y-99544875D01*
X174875121Y-99429879D01*
X174857537Y-99416386D01*
X174822882Y-99365961D01*
X174818807Y-99338074D01*
X174799448Y-90762034D01*
X174384023Y-90478790D01*
X174249448Y-90387034D01*
X173243018Y-90384342D01*
X173184878Y-90365279D01*
X173164741Y-90345609D01*
X173095125Y-90254884D01*
X173095124Y-90254883D01*
X173095121Y-90254879D01*
X172980125Y-90166639D01*
X172980121Y-90166637D01*
X172846209Y-90111170D01*
X172846208Y-90111169D01*
X172702500Y-90092250D01*
X172558791Y-90111169D01*
X172558790Y-90111170D01*
X172424878Y-90166637D01*
X172424874Y-90166639D01*
X172309881Y-90254877D01*
X172309873Y-90254885D01*
X172242471Y-90342724D01*
X172192046Y-90377379D01*
X172163665Y-90381456D01*
X169435205Y-90374161D01*
X169377065Y-90355098D01*
X169356930Y-90335430D01*
X169295121Y-90254879D01*
X169180125Y-90166639D01*
X169180121Y-90166637D01*
X169046209Y-90111170D01*
X169046208Y-90111169D01*
X168902500Y-90092250D01*
X168758791Y-90111169D01*
X168758790Y-90111170D01*
X168624878Y-90166637D01*
X168624874Y-90166639D01*
X168509881Y-90254877D01*
X168509873Y-90254885D01*
X168450252Y-90332584D01*
X168399827Y-90367239D01*
X168371446Y-90371316D01*
X165646615Y-90364031D01*
X165588475Y-90344968D01*
X165568341Y-90325301D01*
X165495121Y-90229879D01*
X165380125Y-90141639D01*
X165380121Y-90141637D01*
X165246209Y-90086170D01*
X165246208Y-90086169D01*
X165102500Y-90067250D01*
X164958791Y-90086169D01*
X164958790Y-90086170D01*
X164824878Y-90141637D01*
X164824874Y-90141639D01*
X164709881Y-90229877D01*
X164709877Y-90229881D01*
X164621639Y-90344874D01*
X164621637Y-90344878D01*
X164566170Y-90478790D01*
X164566169Y-90478791D01*
X164547250Y-90622499D01*
X164547250Y-90622504D01*
X164549226Y-90637517D01*
X164538074Y-90697677D01*
X164519160Y-90722305D01*
X164424448Y-90812033D01*
X164424448Y-92209449D01*
X164410184Y-92260643D01*
X164160004Y-92674734D01*
X164113729Y-92714764D01*
X164085281Y-92722032D01*
X158400001Y-93299999D01*
X158399999Y-93300000D01*
X154217496Y-96456605D01*
X154201606Y-92458394D01*
X154197500Y-91447500D01*
X153100000Y-92873867D01*
X153100000Y-92834727D01*
X153118907Y-92776536D01*
X153121694Y-92772882D01*
X153162374Y-92722032D01*
X155077253Y-90328433D01*
X155128367Y-90294807D01*
X155135730Y-90293087D01*
X163814717Y-88613916D01*
X163834366Y-88612119D01*
X175408940Y-88711685D01*
G37*
%TD.AperFunction*%
%TA.AperFunction,Conductor*%
G36*
X153153583Y-97259559D02*
G01*
X153140190Y-97264181D01*
X154065851Y-96571052D01*
X153153583Y-97259559D01*
G37*
%TD.AperFunction*%
%TD*%
%TA.AperFunction,Conductor*%
%TO.N,+3V3*%
G36*
X141604985Y-70330429D02*
G01*
X141631445Y-70354612D01*
X141631628Y-70354430D01*
X141635685Y-70358487D01*
X141637006Y-70359694D01*
X141637376Y-70360177D01*
X141637377Y-70360178D01*
X141637379Y-70360180D01*
X141752375Y-70448420D01*
X141870398Y-70497306D01*
X141924800Y-70541145D01*
X141946866Y-70607439D01*
X141946945Y-70611722D01*
X141948515Y-71963201D01*
X141939078Y-72010793D01*
X141933670Y-72023850D01*
X141924210Y-72095704D01*
X141914750Y-72167558D01*
X141914750Y-72167559D01*
X141933670Y-72311267D01*
X141933671Y-72311271D01*
X141939553Y-72325472D01*
X141948991Y-72372778D01*
X141956952Y-79225856D01*
X141937345Y-79292918D01*
X141884594Y-79338734D01*
X141832952Y-79350000D01*
X134624000Y-79350000D01*
X134556961Y-79330315D01*
X134511206Y-79277511D01*
X134500000Y-79226000D01*
X134500000Y-78254000D01*
X134519685Y-78186961D01*
X134572489Y-78141206D01*
X134624000Y-78130000D01*
X141250000Y-78130000D01*
X141250000Y-78101320D01*
X141260043Y-78067116D01*
X141256095Y-75590000D01*
X141250000Y-71765000D01*
X141250000Y-71290000D01*
X139024000Y-71290000D01*
X138956961Y-71270315D01*
X138911206Y-71217511D01*
X138900000Y-71166000D01*
X138900000Y-70451680D01*
X138919685Y-70384641D01*
X138972489Y-70338886D01*
X139023182Y-70327683D01*
X141537820Y-70311185D01*
X141604985Y-70330429D01*
G37*
%TD.AperFunction*%
%TD*%
%TA.AperFunction,Conductor*%
%TO.N,+3V3*%
G36*
X172004715Y-103191765D02*
G01*
X172003021Y-104020638D01*
X172003020Y-104020638D01*
X172000799Y-105108345D01*
X171993264Y-105146027D01*
X171961359Y-105223054D01*
X171942439Y-105366764D01*
X171942439Y-105366765D01*
X171961358Y-105510473D01*
X171961359Y-105510474D01*
X172016828Y-105644390D01*
X172105068Y-105759386D01*
X172220064Y-105847626D01*
X172233973Y-105853387D01*
X172276647Y-105887307D01*
X172297689Y-105916765D01*
X172451323Y-105916765D01*
X172464245Y-105917612D01*
X172497689Y-105922015D01*
X172531133Y-105917612D01*
X172544055Y-105916765D01*
X172686846Y-105916765D01*
X172745037Y-105935672D01*
X172750224Y-105939711D01*
X172987067Y-106137080D01*
X173019666Y-106188858D01*
X173022689Y-106213134D01*
X173022689Y-106980580D01*
X173003782Y-107038771D01*
X172967963Y-107069128D01*
X172693593Y-107206313D01*
X172649319Y-107216765D01*
X170519822Y-107216765D01*
X170517949Y-107216747D01*
X169197704Y-107191765D01*
X169197689Y-107191765D01*
X169247689Y-106091765D01*
X170122689Y-106091765D01*
X170422689Y-105691765D01*
X170422689Y-103191765D01*
X170247689Y-102966765D01*
X172172689Y-102966765D01*
X172004715Y-103191765D01*
G37*
%TD.AperFunction*%
%TD*%
%TA.AperFunction,Conductor*%
%TO.N,+3V3*%
G36*
X154201606Y-92458394D02*
G01*
X154217495Y-96456604D01*
X154194805Y-96473730D01*
X154193121Y-96475753D01*
X154066230Y-96570769D01*
X154066093Y-96570871D01*
X153151605Y-97255632D01*
X153151603Y-97255634D01*
X150078839Y-99556497D01*
X150076105Y-99558486D01*
X149118666Y-100235463D01*
X149052563Y-100258095D01*
X149049336Y-100258195D01*
X147018845Y-100295191D01*
X146951458Y-100276731D01*
X146904749Y-100224770D01*
X146892587Y-100170760D01*
X146897293Y-98884055D01*
X146917222Y-98817089D01*
X146940343Y-98790578D01*
X147738483Y-98102750D01*
X147859115Y-97998791D01*
X147922746Y-97969939D01*
X147991878Y-97980069D01*
X148015548Y-97994348D01*
X148045461Y-98017300D01*
X148059875Y-98028361D01*
X148193791Y-98083830D01*
X148320780Y-98100548D01*
X148337499Y-98102750D01*
X148337500Y-98102750D01*
X148337501Y-98102750D01*
X148352477Y-98100778D01*
X148481209Y-98083830D01*
X148615125Y-98028361D01*
X148730121Y-97940121D01*
X148818361Y-97825125D01*
X148873830Y-97691209D01*
X148892750Y-97547500D01*
X148873830Y-97403791D01*
X148834839Y-97309658D01*
X148827371Y-97240191D01*
X148858646Y-97177712D01*
X148871395Y-97165820D01*
X149486529Y-96668284D01*
X149488548Y-96666689D01*
X149919250Y-96333612D01*
X149984319Y-96308175D01*
X150011281Y-96308765D01*
X150099954Y-96320440D01*
X150117499Y-96322750D01*
X150117500Y-96322750D01*
X150117501Y-96322750D01*
X150132477Y-96320778D01*
X150261209Y-96303830D01*
X150395125Y-96248361D01*
X150510121Y-96160121D01*
X150598361Y-96045125D01*
X150653830Y-95911209D01*
X150672750Y-95767500D01*
X150672749Y-95767499D01*
X150672848Y-95766754D01*
X150701115Y-95702858D01*
X150716312Y-95687757D01*
X151327500Y-95177500D01*
X153100000Y-92873867D01*
X154197500Y-91447500D01*
X154201606Y-92458394D01*
G37*
%TD.AperFunction*%
%TD*%
M02*
