%TF.GenerationSoftware,KiCad,Pcbnew,8.0.7*%
%TF.CreationDate,2025-03-17T15:39:20-04:00*%
%TF.ProjectId,RP2350_V2,52503233-3530-45f5-9632-2e6b69636164,2.0*%
%TF.SameCoordinates,Original*%
%TF.FileFunction,Copper,L4,Bot*%
%TF.FilePolarity,Positive*%
%FSLAX46Y46*%
G04 Gerber Fmt 4.6, Leading zero omitted, Abs format (unit mm)*
G04 Created by KiCad (PCBNEW 8.0.7) date 2025-03-17 15:39:20*
%MOMM*%
%LPD*%
G01*
G04 APERTURE LIST*
G04 Aperture macros list*
%AMRoundRect*
0 Rectangle with rounded corners*
0 $1 Rounding radius*
0 $2 $3 $4 $5 $6 $7 $8 $9 X,Y pos of 4 corners*
0 Add a 4 corners polygon primitive as box body*
4,1,4,$2,$3,$4,$5,$6,$7,$8,$9,$2,$3,0*
0 Add four circle primitives for the rounded corners*
1,1,$1+$1,$2,$3*
1,1,$1+$1,$4,$5*
1,1,$1+$1,$6,$7*
1,1,$1+$1,$8,$9*
0 Add four rect primitives between the rounded corners*
20,1,$1+$1,$2,$3,$4,$5,0*
20,1,$1+$1,$4,$5,$6,$7,0*
20,1,$1+$1,$6,$7,$8,$9,0*
20,1,$1+$1,$8,$9,$2,$3,0*%
G04 Aperture macros list end*
%TA.AperFunction,HeatsinkPad*%
%ADD10C,0.800000*%
%TD*%
%TA.AperFunction,ComponentPad*%
%ADD11C,2.250000*%
%TD*%
%TA.AperFunction,ComponentPad*%
%ADD12C,2.400000*%
%TD*%
%TA.AperFunction,ComponentPad*%
%ADD13O,1.000000X2.100000*%
%TD*%
%TA.AperFunction,ComponentPad*%
%ADD14O,1.000000X1.800000*%
%TD*%
%TA.AperFunction,ComponentPad*%
%ADD15R,1.700000X1.700000*%
%TD*%
%TA.AperFunction,ComponentPad*%
%ADD16O,1.700000X1.700000*%
%TD*%
%TA.AperFunction,ComponentPad*%
%ADD17RoundRect,0.250000X0.350000X0.625000X-0.350000X0.625000X-0.350000X-0.625000X0.350000X-0.625000X0*%
%TD*%
%TA.AperFunction,ComponentPad*%
%ADD18O,1.200000X1.750000*%
%TD*%
%TA.AperFunction,ViaPad*%
%ADD19C,0.700000*%
%TD*%
%TA.AperFunction,Conductor*%
%ADD20C,0.300000*%
%TD*%
%TA.AperFunction,Conductor*%
%ADD21C,0.750000*%
%TD*%
%TA.AperFunction,Conductor*%
%ADD22C,0.500000*%
%TD*%
%TA.AperFunction,Conductor*%
%ADD23C,0.250000*%
%TD*%
%TA.AperFunction,Conductor*%
%ADD24C,0.200000*%
%TD*%
%TA.AperFunction,Conductor*%
%ADD25C,0.150000*%
%TD*%
G04 APERTURE END LIST*
D10*
%TO.P,,61,GND*%
%TO.N,GND*%
X146275000Y-73247500D03*
%TD*%
%TO.P,,61,GND*%
%TO.N,GND*%
X145000000Y-73247500D03*
%TD*%
%TO.P,,61,GND*%
%TO.N,GND*%
X145000000Y-71972500D03*
%TD*%
D11*
%TO.P,J4,1,1*%
%TO.N,Net-(C63-Pad2)*%
X144960000Y-39782441D03*
D12*
%TO.P,J4,2,2*%
%TO.N,GND*%
X142420000Y-42322441D03*
%TO.P,J4,3,3*%
X147500000Y-42322441D03*
%TO.P,J4,4,4*%
X147500000Y-37242441D03*
%TO.P,J4,5,5*%
X142420000Y-37242441D03*
%TD*%
D13*
%TO.P,J3,S1,SHIELD*%
%TO.N,unconnected-(J3-SHIELD-PadS1)_3*%
X137587500Y-142317500D03*
D14*
%TO.N,unconnected-(J3-SHIELD-PadS1)_1*%
X137587500Y-146497500D03*
D13*
%TO.N,unconnected-(J3-SHIELD-PadS1)_2*%
X146227500Y-142317500D03*
D14*
%TO.N,unconnected-(J3-SHIELD-PadS1)*%
X146227500Y-146497500D03*
%TD*%
D15*
%TO.P,J1,1,Pin_1*%
%TO.N,/SWCLK*%
X125162500Y-93107500D03*
D16*
%TO.P,J1,2,Pin_2*%
%TO.N,GND*%
X125162500Y-95647500D03*
%TO.P,J1,3,Pin_3*%
%TO.N,/SWD*%
X125162500Y-98187500D03*
%TO.P,J1,4,Pin_4*%
%TO.N,GND*%
X125162500Y-100727500D03*
%TD*%
D17*
%TO.P,J5,1,Pin_1*%
%TO.N,/DISPLAY_BUSY*%
X149800000Y-86700000D03*
D18*
%TO.P,J5,2,Pin_2*%
%TO.N,/DISPLAY_RESET*%
X147800000Y-86700000D03*
%TO.P,J5,3,Pin_3*%
%TO.N,/DISPLAY_DC*%
X145800000Y-86700000D03*
%TO.P,J5,4,Pin_4*%
%TO.N,/SPI1_CS*%
X143800000Y-86700000D03*
%TO.P,J5,5,Pin_5*%
%TO.N,/SPI1_CLK*%
X141800000Y-86700000D03*
%TO.P,J5,6,Pin_6*%
%TO.N,/SPI1_TX*%
X139800000Y-86700000D03*
%TO.P,J5,7,Pin_7*%
%TO.N,GND*%
X137800000Y-86700000D03*
%TO.P,J5,8,Pin_8*%
%TO.N,+3V3*%
X135800000Y-86700000D03*
%TD*%
D17*
%TO.P,J6,1,Pin_1*%
%TO.N,/VBAT*%
X129580000Y-141810000D03*
D18*
%TO.P,J6,2,Pin_2*%
%TO.N,GND*%
X127580000Y-141810000D03*
%TD*%
D15*
%TO.P,J7,1,Pin_1*%
%TO.N,/UART_Tx_DEBUG*%
X154067500Y-109372500D03*
D16*
%TO.P,J7,2,Pin_2*%
%TO.N,GND*%
X156607500Y-109372500D03*
%TO.P,J7,3,Pin_3*%
%TO.N,/UART_Rx_DEBUG*%
X159147500Y-109372500D03*
%TO.P,J7,4,Pin_4*%
%TO.N,GND*%
X161687500Y-109372500D03*
%TD*%
D10*
%TO.P,,61,GND*%
%TO.N,GND*%
X146275000Y-71972500D03*
%TD*%
%TO.P,U1,61,GND*%
%TO.N,GND*%
X145400000Y-105577500D03*
X145400000Y-104377500D03*
X145400000Y-103177500D03*
X144200000Y-105577500D03*
X144200000Y-104377500D03*
X144150000Y-103177500D03*
X143000000Y-105577500D03*
X143000000Y-104377500D03*
X143000000Y-103177500D03*
%TD*%
D19*
%TO.N,GND*%
X148750000Y-66650000D03*
%TO.N,/DISPLAY_DC*%
X148540000Y-82790000D03*
%TO.N,/SPI1_TX*%
X138940000Y-89370000D03*
%TO.N,/SPI1_CS*%
X143445000Y-89385000D03*
%TO.N,/SPI1_CLK*%
X141280000Y-89270000D03*
%TO.N,/DISPLAY_RESET*%
X145930000Y-89300000D03*
%TO.N,/DISPLAY_BUSY*%
X148860000Y-89390000D03*
%TO.N,GND*%
X141800000Y-65622500D03*
X134850000Y-58397500D03*
X135150000Y-145730000D03*
X134700000Y-61347500D03*
X149480000Y-46442441D03*
X148080000Y-79240000D03*
X150225000Y-44199882D03*
X154600000Y-42842441D03*
X179270000Y-56884941D03*
X146800000Y-53922500D03*
X142110000Y-47270000D03*
X143240000Y-45012441D03*
X125980000Y-60514941D03*
X120175000Y-74689941D03*
X176940000Y-62660000D03*
X150080000Y-79220000D03*
X147770000Y-77560000D03*
X147025000Y-51622441D03*
X122710000Y-56492500D03*
X157500000Y-34234882D03*
X171120000Y-69264941D03*
X148290300Y-119664824D03*
X159950000Y-71379941D03*
X137500000Y-67322500D03*
X168450000Y-82250000D03*
X159200000Y-39842441D03*
X179270000Y-53014941D03*
X118200000Y-34849882D03*
X139740000Y-58052500D03*
X140530000Y-59322500D03*
X146550000Y-59397500D03*
X156200000Y-44592441D03*
X138090000Y-63682500D03*
X147850000Y-45032441D03*
X148337500Y-97547500D03*
X161325000Y-80139941D03*
X150225000Y-41199882D03*
X146720000Y-45012441D03*
X136662500Y-124022500D03*
X169920000Y-72224941D03*
X123080000Y-66970000D03*
X136000000Y-68522500D03*
X142525000Y-34467441D03*
X162650000Y-55680000D03*
X146750000Y-140170000D03*
X116612500Y-104597500D03*
X135910000Y-49740000D03*
X154080000Y-51822441D03*
X138940000Y-47500000D03*
X161060000Y-72654941D03*
X148520000Y-48982441D03*
X136125000Y-48740000D03*
X162250000Y-61775000D03*
X133940000Y-45292441D03*
X140970000Y-46420000D03*
X130230000Y-80860000D03*
X152677500Y-102825000D03*
X165487500Y-119512500D03*
X119560000Y-48582441D03*
X144735000Y-58009941D03*
X159000000Y-53280000D03*
X149525000Y-34467441D03*
X142150000Y-82720000D03*
X125275000Y-50072441D03*
X144820000Y-61934941D03*
X139320000Y-79800000D03*
X126140000Y-73494941D03*
X147650000Y-46062441D03*
X143730000Y-95420000D03*
X172850000Y-60600000D03*
X139500000Y-36242441D03*
X142200000Y-61922500D03*
X155922500Y-133282500D03*
X168767689Y-105426765D03*
X124560000Y-74464941D03*
X132600000Y-41042441D03*
X176490000Y-39184882D03*
X128150000Y-56064941D03*
X121880000Y-37794882D03*
X151800000Y-50190000D03*
X147525000Y-34467441D03*
X130740000Y-76450000D03*
X133000000Y-65822500D03*
X139500000Y-41242441D03*
X155305000Y-60722382D03*
X146625000Y-66372500D03*
X126190000Y-69214941D03*
X148650000Y-51722441D03*
X136460000Y-61962500D03*
X140877500Y-110447500D03*
X132000000Y-69822500D03*
X174500000Y-129500000D03*
X154100000Y-33800000D03*
X157880000Y-68360000D03*
X162975000Y-41092441D03*
X166000000Y-62800000D03*
X161500000Y-53397500D03*
X176610000Y-69150000D03*
X179160000Y-78424941D03*
X145750000Y-44880000D03*
X152275000Y-55675000D03*
X140670000Y-47730000D03*
X171030000Y-55350000D03*
X148370000Y-76225000D03*
X164880000Y-70734941D03*
X174482500Y-99822500D03*
X156785000Y-58379941D03*
X164710000Y-77924941D03*
X164250000Y-43924882D03*
X179180000Y-80500000D03*
X152400000Y-39042441D03*
X149100000Y-35524882D03*
X132000000Y-66822500D03*
X164710000Y-73714941D03*
X116200000Y-59414941D03*
X141187500Y-138072500D03*
X176480000Y-80340000D03*
X118870000Y-69222500D03*
X174380000Y-70404941D03*
X141920000Y-67962500D03*
X155365000Y-67002382D03*
X125940000Y-34164882D03*
X144760000Y-65884941D03*
X150225000Y-40199882D03*
X153375000Y-56825000D03*
X179270000Y-48502441D03*
X132200000Y-77040000D03*
X134000000Y-65822500D03*
X127000000Y-109500000D03*
X126590000Y-81150000D03*
X141957500Y-64125000D03*
X143820000Y-52020000D03*
X144820000Y-60934941D03*
X134200000Y-35442441D03*
X119400000Y-50880000D03*
X126000000Y-45242441D03*
X139500000Y-42242441D03*
X167540000Y-80300000D03*
X113410000Y-75444941D03*
X150225000Y-39199882D03*
X134600000Y-137810000D03*
X143790000Y-53070000D03*
X170000000Y-37607441D03*
X138760000Y-82760000D03*
X117360000Y-78102500D03*
X113220000Y-59124941D03*
X139630000Y-48710000D03*
X138630000Y-57214941D03*
X139500000Y-40242441D03*
X142725000Y-39899882D03*
X122190000Y-69982500D03*
X131200000Y-37442441D03*
X177250000Y-51655000D03*
X129860000Y-53810000D03*
X117725000Y-37149882D03*
X129250000Y-76724941D03*
X174510000Y-67304941D03*
X138310000Y-59342500D03*
X141687500Y-130437700D03*
X147467500Y-139357500D03*
X149350000Y-59644941D03*
X136325000Y-54522500D03*
X146550000Y-62397500D03*
X138840000Y-49700000D03*
X159140000Y-44010000D03*
X154400000Y-49990000D03*
X158425000Y-55897500D03*
X134725000Y-47665000D03*
X154400000Y-38042441D03*
X141610000Y-49640000D03*
X169725000Y-52705000D03*
X113330000Y-65434941D03*
X160480000Y-74454941D03*
X164145571Y-95843479D03*
X157025000Y-103375000D03*
X129200000Y-48790000D03*
X149390000Y-69760000D03*
X137200000Y-42442441D03*
X143430000Y-82710000D03*
X156885000Y-65779941D03*
X125180000Y-68084941D03*
X139500000Y-38242441D03*
X147680000Y-63344941D03*
X154020000Y-75984941D03*
X174220000Y-78094941D03*
X127260000Y-136610000D03*
X135000000Y-67562500D03*
X141882500Y-59125000D03*
X148870000Y-43824882D03*
X163070000Y-74680000D03*
X133187500Y-127217500D03*
X144820000Y-63934941D03*
X147470000Y-66960000D03*
X135070000Y-71082500D03*
X177450000Y-36594882D03*
X136787500Y-127797500D03*
X122820000Y-77492500D03*
X136350000Y-105340000D03*
X152400000Y-36642441D03*
X138080000Y-53494941D03*
X124208750Y-84940000D03*
X166480000Y-55390000D03*
X141512500Y-131897500D03*
X177150000Y-58530000D03*
X125770000Y-66414941D03*
X117987500Y-129512500D03*
X121970000Y-72070000D03*
X155380000Y-65370000D03*
X156830000Y-62930000D03*
X128640000Y-62644941D03*
X132160000Y-78660000D03*
X127870000Y-51060000D03*
X136775000Y-119285000D03*
X146550000Y-63397500D03*
X130980000Y-68944941D03*
X166820000Y-60244941D03*
X144525000Y-34467441D03*
X163520000Y-46540000D03*
X152180000Y-66150000D03*
X163585000Y-82395000D03*
X161840000Y-38104882D03*
X154900000Y-79244941D03*
X136625000Y-44942441D03*
X150820000Y-69930000D03*
X178960000Y-75304941D03*
X128920000Y-82155000D03*
X122940000Y-74492500D03*
X164510000Y-57980000D03*
X140887500Y-109387500D03*
X141800000Y-60792500D03*
X135950000Y-71090000D03*
X139500000Y-39242441D03*
X130687500Y-119107500D03*
X147800000Y-57522500D03*
X145840000Y-51190000D03*
X144625000Y-75947500D03*
X145525000Y-34467441D03*
X140825000Y-40474882D03*
X139980000Y-45132441D03*
X131930000Y-57732500D03*
X159475000Y-47015000D03*
X156510000Y-146660000D03*
X124320000Y-80000000D03*
X171440000Y-80300000D03*
X143920000Y-49970000D03*
X132440000Y-74240000D03*
X143110000Y-79720000D03*
X122250000Y-47872441D03*
X132250000Y-75580000D03*
X141525000Y-34467441D03*
X132675000Y-52947500D03*
X134400000Y-43042441D03*
X155317500Y-114442500D03*
X174810000Y-56650000D03*
X148025000Y-53514941D03*
X140180000Y-60882500D03*
X176360000Y-73794941D03*
X148700000Y-64394941D03*
X132460000Y-54722500D03*
X159480000Y-68944941D03*
X135000000Y-68472500D03*
X147350000Y-39699882D03*
X159010000Y-72934941D03*
X148000000Y-58722500D03*
X137200000Y-34642441D03*
X168840000Y-75444941D03*
X133950000Y-59997500D03*
X126030000Y-75274941D03*
X144480000Y-79720000D03*
X146550000Y-57347500D03*
X142930000Y-46230000D03*
X165102500Y-90622500D03*
X167075000Y-40824882D03*
X144875000Y-91985000D03*
X152170000Y-61590000D03*
X138290000Y-61062500D03*
X141200000Y-62822500D03*
X160090000Y-62734941D03*
X128000000Y-38842441D03*
X130680000Y-75000000D03*
X118400000Y-65589941D03*
X128530000Y-60794941D03*
X151430000Y-51982441D03*
X167420000Y-52324941D03*
X125420000Y-63594941D03*
X134800000Y-38842441D03*
X122800000Y-51480000D03*
X174500000Y-119500000D03*
X118625000Y-61314941D03*
X152220000Y-59154941D03*
X127000000Y-129500000D03*
X133197500Y-125127500D03*
X156315000Y-68912382D03*
X139850000Y-53570000D03*
X144930000Y-58994941D03*
X144000000Y-47090000D03*
X160950000Y-78164941D03*
X113450000Y-54914941D03*
X156400000Y-48440000D03*
X146000000Y-53300000D03*
X172720000Y-52382441D03*
X147800000Y-59922500D03*
X128620000Y-68124941D03*
X168230000Y-43814882D03*
X144000000Y-48990000D03*
X134725000Y-54322500D03*
X150225000Y-38199882D03*
X163145000Y-49882441D03*
X115600000Y-79464941D03*
X133650000Y-64164941D03*
X150425000Y-34449882D03*
X116160000Y-67784941D03*
X155000000Y-52522500D03*
X115500000Y-41434882D03*
X150070000Y-81064941D03*
X150400000Y-49390000D03*
X168902500Y-90647500D03*
X179200000Y-65140000D03*
X179080000Y-40004882D03*
X152960000Y-53540000D03*
X156385000Y-67579941D03*
X136560000Y-65582500D03*
X150225000Y-37199882D03*
X115340000Y-62374941D03*
X154200000Y-54322500D03*
X156670000Y-52142441D03*
X137200000Y-40042441D03*
X146525000Y-34467441D03*
X113370000Y-71034941D03*
X175500000Y-60530000D03*
X149300000Y-55022500D03*
X156585000Y-61579941D03*
X152640000Y-79250000D03*
X132040000Y-64114941D03*
X128550000Y-66154941D03*
X139500000Y-44242441D03*
X152310000Y-67490000D03*
X139500000Y-35317441D03*
X160850000Y-65874941D03*
X124150000Y-59812500D03*
X137950000Y-48672441D03*
X155000000Y-77474941D03*
X132000000Y-70822500D03*
X161425000Y-67775000D03*
X135800000Y-59747500D03*
X128720000Y-109550000D03*
X129650000Y-68914941D03*
X158630000Y-66984941D03*
X149737500Y-91797499D03*
X145850000Y-44024882D03*
X148060000Y-80960000D03*
X126530000Y-77884941D03*
X125000000Y-42932441D03*
X145737500Y-140177500D03*
X146550000Y-64397500D03*
X174240000Y-34624882D03*
X129640000Y-71434941D03*
X146812500Y-114347500D03*
X142180000Y-45072441D03*
X144607500Y-94992500D03*
X124270000Y-82080000D03*
X115400000Y-73889941D03*
X145720000Y-45790000D03*
X125800000Y-71974941D03*
X137200000Y-38042441D03*
X174450000Y-109550000D03*
X172480000Y-73464941D03*
X147560000Y-64904941D03*
X144780000Y-64924941D03*
X152170000Y-64450000D03*
X166830000Y-84320000D03*
X141070000Y-45112441D03*
X172910000Y-82320000D03*
X150050000Y-76230000D03*
X139880000Y-82740000D03*
X144820000Y-62934941D03*
X130020000Y-58314941D03*
X132000000Y-65822500D03*
X133820000Y-56982500D03*
X146722500Y-46917500D03*
X179320000Y-82280000D03*
X152610000Y-77700000D03*
X167920000Y-58824941D03*
X149612500Y-110172500D03*
X170840000Y-34664882D03*
X125070000Y-70864941D03*
X137000000Y-68522500D03*
X132480000Y-34234882D03*
X125760000Y-57664941D03*
X155250000Y-62375000D03*
X152510000Y-68640000D03*
X129620000Y-73540000D03*
X141700000Y-67022500D03*
X142030000Y-68732500D03*
X128657500Y-120587500D03*
X146550000Y-58397500D03*
X151880000Y-52880000D03*
X152510000Y-80904941D03*
X124680000Y-64944941D03*
X120570000Y-78444941D03*
X118420000Y-57092500D03*
X154575000Y-57950000D03*
X139120000Y-52830000D03*
X137200000Y-36242441D03*
X146000000Y-52210000D03*
X133107500Y-135972500D03*
X174170000Y-36714882D03*
X139650000Y-62482500D03*
X162120000Y-44174882D03*
X158200000Y-57625000D03*
X135340000Y-52610000D03*
X121410000Y-59204941D03*
X144100000Y-43999882D03*
X179230000Y-68294941D03*
X116350000Y-53014941D03*
X135900000Y-63922500D03*
X136350000Y-56754941D03*
X149740000Y-52570000D03*
X141950000Y-53520000D03*
X132000000Y-68822500D03*
X150050000Y-45112441D03*
X140600000Y-64632500D03*
X139225000Y-109435000D03*
X158400000Y-38042441D03*
X144820000Y-59934941D03*
X155740000Y-54660000D03*
X150010000Y-77880000D03*
X150117500Y-95767500D03*
X156440000Y-56602500D03*
X155200000Y-63925000D03*
X147770000Y-69680000D03*
X179560000Y-61240000D03*
X139500000Y-37242441D03*
X149000000Y-45072441D03*
X131780000Y-60752500D03*
X115555000Y-84940000D03*
X128750000Y-70154941D03*
X147290000Y-48492441D03*
X122525000Y-35424882D03*
X141550000Y-48460000D03*
X147650000Y-61414941D03*
X131200000Y-44842441D03*
X132382500Y-73420000D03*
X165437500Y-109562500D03*
X176400000Y-53889941D03*
X165970000Y-65390000D03*
X129880000Y-59884941D03*
X140525000Y-34467441D03*
X141080000Y-52830000D03*
X142000000Y-79790000D03*
X134750000Y-51240000D03*
X128530000Y-64254941D03*
X179280000Y-43364882D03*
X163060000Y-68834941D03*
X176860000Y-82300000D03*
X115425000Y-35924882D03*
X136975000Y-58572500D03*
X146000000Y-47990000D03*
X136720000Y-53050000D03*
X158570000Y-60814941D03*
X155000000Y-35642441D03*
X144060000Y-51050000D03*
X145562500Y-119672500D03*
X159440000Y-58554941D03*
X140610000Y-79810000D03*
X146825000Y-49890000D03*
X173740000Y-45164882D03*
X152430000Y-142580000D03*
X128750000Y-74824941D03*
X126600000Y-52322500D03*
X173140000Y-77434941D03*
X154600000Y-55922500D03*
X142810246Y-138747499D03*
X113700000Y-52072441D03*
X150350000Y-68940000D03*
X160550000Y-82490000D03*
X146550000Y-60397500D03*
X159960000Y-57130000D03*
X116420000Y-82080000D03*
X167480000Y-34274882D03*
X164510000Y-55720000D03*
X165675000Y-53922500D03*
X151530000Y-76340000D03*
X142630000Y-74392500D03*
X161800000Y-64075000D03*
X118710000Y-80560000D03*
X140367500Y-54822500D03*
X157000000Y-54522500D03*
X152400000Y-41042441D03*
X143525000Y-34467441D03*
X157875000Y-42192441D03*
X139510000Y-46222441D03*
X140030000Y-66242500D03*
X117530000Y-75040000D03*
X134440280Y-104600280D03*
X160380000Y-60264941D03*
X139500000Y-43242441D03*
X155325000Y-59325000D03*
X152420000Y-69910000D03*
X150890000Y-58454941D03*
X117630000Y-45184882D03*
X146550000Y-61397500D03*
X128640000Y-72544941D03*
X127800000Y-35242441D03*
X175460000Y-64554941D03*
X116200000Y-39024882D03*
X158210000Y-70004941D03*
X148670000Y-65470000D03*
X150225000Y-35299882D03*
X131290000Y-59174941D03*
X148580000Y-62344941D03*
X152140000Y-63010000D03*
X167770000Y-68754941D03*
X167345000Y-49832441D03*
X147160000Y-52760000D03*
X157360000Y-71224941D03*
X155335000Y-68252382D03*
X176250000Y-76460000D03*
X177500000Y-46822441D03*
X172702500Y-90647500D03*
X127800000Y-79504941D03*
X144720000Y-82690000D03*
X149550000Y-47872441D03*
X144300000Y-45032441D03*
X150520000Y-59664941D03*
X149100000Y-39899882D03*
X167610000Y-71974941D03*
X161125000Y-76314941D03*
X170290000Y-65470000D03*
X140750000Y-35649882D03*
X137310000Y-140250000D03*
X130200000Y-51480000D03*
X146000000Y-48990000D03*
X115400000Y-49280000D03*
X124600000Y-38732441D03*
X122675000Y-53314941D03*
X138000000Y-68522500D03*
X150225000Y-42199882D03*
X132000000Y-67822500D03*
X170750000Y-47522441D03*
X158150000Y-62434941D03*
X163510000Y-53324941D03*
X138940000Y-64792500D03*
X139525000Y-34492441D03*
X147360000Y-67840000D03*
X149920000Y-50752441D03*
X165487500Y-129512500D03*
X160000000Y-35442441D03*
X141010000Y-82760000D03*
X121960000Y-63352500D03*
X128400000Y-42842441D03*
X146550000Y-65397500D03*
X143120000Y-53870000D03*
X141220001Y-95829949D03*
X125370000Y-55200000D03*
X137157500Y-117557500D03*
X119070000Y-71824941D03*
X136090000Y-132487700D03*
X120800000Y-34394882D03*
X133275000Y-62597500D03*
X124860000Y-62422500D03*
X113635000Y-82010000D03*
X152400000Y-43042441D03*
X144220000Y-46002441D03*
X169090000Y-78584941D03*
X172930000Y-53800000D03*
X148700000Y-61084941D03*
X113410000Y-78694941D03*
X113750000Y-38399882D03*
X119400000Y-52722500D03*
X161290000Y-59200000D03*
X152800000Y-74950000D03*
X113680000Y-43244882D03*
X169060000Y-56980000D03*
X145025000Y-37499882D03*
X144000000Y-47990000D03*
X155300000Y-69614941D03*
X138261814Y-140223186D03*
X130610000Y-77890000D03*
X136980000Y-46780000D03*
X154820000Y-80984941D03*
X143210000Y-57524941D03*
X121880000Y-80510000D03*
X120485000Y-82280000D03*
X152200000Y-48590000D03*
X172497689Y-105366765D03*
X149800000Y-57844941D03*
X144950000Y-35749882D03*
X147120000Y-68760000D03*
X150225000Y-43199882D03*
X133180000Y-49700000D03*
X164600000Y-37442441D03*
X157575000Y-49990000D03*
X143100000Y-55422500D03*
X120910000Y-65874941D03*
X156880000Y-60080000D03*
X132110000Y-62694941D03*
X138300000Y-66532500D03*
X134990000Y-66652500D03*
X166925000Y-45267441D03*
X155400000Y-40842441D03*
X131510000Y-81760000D03*
X136162500Y-106962500D03*
X124490000Y-77404941D03*
X150225000Y-36199882D03*
X156585000Y-64379941D03*
X133207500Y-126147500D03*
X140240000Y-49660000D03*
X152400000Y-45242441D03*
X167210000Y-78420000D03*
X166250000Y-75934941D03*
X142870000Y-49680000D03*
X143100000Y-56222500D03*
X137270000Y-49720000D03*
X117987500Y-109512500D03*
X117987500Y-119512500D03*
X158630000Y-64444941D03*
X140910000Y-43674882D03*
X152210000Y-60370000D03*
X175830000Y-84250000D03*
X164872689Y-105441765D03*
X178960000Y-71544941D03*
X142470000Y-70932500D03*
X165410000Y-80330000D03*
X148525000Y-34467441D03*
X135000000Y-65822500D03*
X127000000Y-119500000D03*
X136200000Y-67122500D03*
X161220000Y-70004941D03*
X139300000Y-67722500D03*
X163840000Y-34394882D03*
X150610000Y-55140000D03*
X144550000Y-97000000D03*
X154200000Y-47590000D03*
X134750000Y-49960000D03*
X113530000Y-47762441D03*
%TO.N,+3V3*%
X148787500Y-107404700D03*
X139177500Y-106347500D03*
X136860000Y-79944941D03*
X147237500Y-112422500D03*
X172647689Y-106541765D03*
X140350000Y-55822500D03*
X135430000Y-77530000D03*
X174642500Y-89492500D03*
X143312500Y-114437500D03*
X139177500Y-104260000D03*
X168917689Y-106536765D03*
X170882500Y-89482500D03*
X139177500Y-107157500D03*
X138170000Y-77520000D03*
X143487500Y-123647500D03*
X141225000Y-69572500D03*
X166797689Y-106691765D03*
X139570000Y-77520000D03*
X166977500Y-89522500D03*
X140830000Y-77530000D03*
X152937500Y-121022500D03*
X141612500Y-114437500D03*
X139177500Y-100870000D03*
X149962500Y-102867500D03*
X142487500Y-114437500D03*
X140250000Y-69572500D03*
X135920000Y-79944941D03*
X140070000Y-99927500D03*
X136820000Y-77530000D03*
X174802500Y-102447500D03*
X145700000Y-99927500D03*
X139177500Y-107947500D03*
X139373750Y-100113750D03*
%TO.N,+1V1*%
X143919822Y-110415178D03*
X141787500Y-104797500D03*
X146587500Y-105197500D03*
X144199700Y-101947500D03*
X143987500Y-111097500D03*
X143362500Y-106647500D03*
%TO.N,/VBAT*%
X149280000Y-142780000D03*
%TO.N,/SWD*%
X142969999Y-96427767D03*
%TO.N,/SWCLK*%
X142970000Y-94370000D03*
%TO.N,/DISPLAY_RESET*%
X135190000Y-95940000D03*
%TO.N,/DISPLAY_DC*%
X131620000Y-95450000D03*
%TO.N,/DISPLAY_BUSY*%
X136252500Y-97680000D03*
%TO.N,/SPI1_TX*%
X132590000Y-97720000D03*
%TO.N,/SPI1_CS*%
X134460000Y-98670000D03*
%TO.N,/SPI1_CLK*%
X133920000Y-94320000D03*
%TO.N,/RUN*%
X128862500Y-107825000D03*
X128862500Y-106100000D03*
X142632736Y-98510000D03*
%TO.N,/~{USB_BOOT}*%
X160525000Y-94350000D03*
X160550000Y-100250000D03*
%TO.N,Net-(R20-Pad2)*%
X127770000Y-113000000D03*
X167135000Y-91430000D03*
%TO.N,Net-(R23-Pad2)*%
X170900000Y-108090000D03*
X127767500Y-118000000D03*
%TO.N,Net-(R24-Pad2)*%
X127742500Y-131500000D03*
X174747689Y-106841765D03*
%TO.N,/BTN_MACRO_C*%
X170480000Y-98500000D03*
X164210000Y-94312500D03*
%TO.N,/Converter_In*%
X139587500Y-127047500D03*
X139862500Y-125122500D03*
%TO.N,/UVLO_RST*%
X131962500Y-117282500D03*
X151127500Y-136307500D03*
%TO.N,/STATUS_LED*%
X123762500Y-105297500D03*
X141110000Y-97080000D03*
%TO.N,/SX1262/DIO2*%
X150450000Y-74588500D03*
X149325000Y-56522500D03*
%TO.N,/SX1262/XTB*%
X142547686Y-73105574D03*
X136070000Y-73326434D03*
%TO.N,/SX1262/XTA*%
X132490000Y-72422500D03*
X142550566Y-72205576D03*
%TD*%
D20*
%TO.N,/DISPLAY_DC*%
X131640000Y-95430000D02*
X131620000Y-95450000D01*
X131640000Y-93460000D02*
X131640000Y-95430000D01*
X133580000Y-85980000D02*
X133580000Y-91520000D01*
X133580000Y-91520000D02*
X131640000Y-93460000D01*
X135780000Y-83780000D02*
X133580000Y-85980000D01*
X147550000Y-83780000D02*
X135780000Y-83780000D01*
X148540000Y-82790000D02*
X147550000Y-83780000D01*
%TO.N,/SPI1_CLK*%
X136840000Y-91160000D02*
X133920000Y-94080000D01*
X133920000Y-94080000D02*
X133920000Y-94320000D01*
X141280000Y-89270000D02*
X139390000Y-91160000D01*
X139390000Y-91160000D02*
X136840000Y-91160000D01*
%TO.N,/SPI1_TX*%
X135990000Y-90500000D02*
X132620000Y-93870000D01*
X138940000Y-89370000D02*
X137810000Y-90500000D01*
X137810000Y-90500000D02*
X135990000Y-90500000D01*
X132620000Y-93870000D02*
X132620000Y-97690000D01*
X132620000Y-97690000D02*
X132590000Y-97720000D01*
%TO.N,/SPI1_CS*%
X140910465Y-91919535D02*
X137720465Y-91919535D01*
X143445000Y-89385000D02*
X140910465Y-91919535D01*
X137720465Y-91919535D02*
X134460000Y-95180000D01*
X134460000Y-95180000D02*
X134460000Y-98670000D01*
%TO.N,/DISPLAY_RESET*%
X145930000Y-89300000D02*
X145990000Y-89300000D01*
D21*
%TO.N,+3V3*%
X148787500Y-108947500D02*
X148787500Y-102872500D01*
X139177500Y-100310000D02*
X139177500Y-104260000D01*
X139373750Y-100113750D02*
X139177500Y-100310000D01*
X148417500Y-99927500D02*
X148787500Y-100297500D01*
D20*
X149962500Y-102867500D02*
X148792500Y-102867500D01*
D21*
X141612500Y-114437500D02*
X143312500Y-114437500D01*
D20*
X146287500Y-111472500D02*
X146287500Y-111447500D01*
D21*
X146287500Y-111447500D02*
X148787500Y-108947500D01*
D20*
X147237500Y-112422500D02*
X146287500Y-111472500D01*
D21*
X143312500Y-114437500D02*
X143312500Y-114422500D01*
X139177500Y-104260000D02*
X139177500Y-107947500D01*
X148787500Y-100297500D02*
X148787500Y-102872500D01*
D20*
X145312500Y-121822500D02*
X152137500Y-121822500D01*
D21*
X143312500Y-114422500D02*
X146287500Y-111447500D01*
D20*
X148792500Y-102867500D02*
X148787500Y-102872500D01*
X152137500Y-121822500D02*
X152937500Y-121022500D01*
D21*
X139373750Y-100113750D02*
X139560000Y-99927500D01*
D20*
X143487500Y-123647500D02*
X145312500Y-121822500D01*
D21*
X139560000Y-99927500D02*
X148417500Y-99927500D01*
D22*
%TO.N,+1V1*%
X145937500Y-106647500D02*
X146587500Y-105997500D01*
X143937500Y-106647500D02*
X143937500Y-110397500D01*
X141812500Y-106072500D02*
X141812500Y-102572500D01*
X143987500Y-111097500D02*
X143987500Y-111122500D01*
X142437500Y-101947500D02*
X144199700Y-101947500D01*
X144199700Y-101947500D02*
X145812500Y-101947500D01*
X145812500Y-101947500D02*
X146587500Y-102722500D01*
X143919822Y-111029822D02*
X143987500Y-111097500D01*
X143937500Y-110397500D02*
X143919822Y-110415178D01*
X141812500Y-102572500D02*
X142437500Y-101947500D01*
X142387500Y-106647500D02*
X141812500Y-106072500D01*
X146587500Y-105997500D02*
X146587500Y-105197500D01*
X143362500Y-106647500D02*
X142387500Y-106647500D01*
X143362500Y-106647500D02*
X145937500Y-106647500D01*
X143919822Y-110415178D02*
X143919822Y-111029822D01*
X146587500Y-102722500D02*
X146587500Y-105197500D01*
D20*
%TO.N,/VBAT*%
X132147500Y-144377500D02*
X129580000Y-141810000D01*
X149280000Y-142780000D02*
X147682500Y-144377500D01*
X147682500Y-144377500D02*
X132147500Y-144377500D01*
%TO.N,/SWD*%
X140980000Y-95080000D02*
X131360000Y-104700000D01*
X131360000Y-104700000D02*
X128062893Y-104700000D01*
X142969999Y-96427767D02*
X142969999Y-95459999D01*
X127350000Y-103987107D02*
X127350000Y-100375000D01*
X127350000Y-100375000D02*
X125162500Y-98187500D01*
X125164606Y-98187500D02*
X125162500Y-98187500D01*
X142590000Y-95080000D02*
X140980000Y-95080000D01*
X142969999Y-95459999D02*
X142590000Y-95080000D01*
X128062893Y-104700000D02*
X127350000Y-103987107D01*
X125162500Y-98287500D02*
X125162500Y-98187500D01*
%TO.N,/SWCLK*%
X140600000Y-94370000D02*
X130950000Y-104020000D01*
X128080000Y-96025000D02*
X125162500Y-93107500D01*
X130950000Y-104020000D02*
X128660000Y-104020000D01*
X128080000Y-103440000D02*
X128080000Y-96025000D01*
X128660000Y-104020000D02*
X128080000Y-103440000D01*
X142970000Y-94370000D02*
X140740000Y-94370000D01*
X140740000Y-94370000D02*
X140600000Y-94370000D01*
%TO.N,/DISPLAY_RESET*%
X135190000Y-95530000D02*
X137970000Y-92750000D01*
X137970000Y-92750000D02*
X141670000Y-92750000D01*
X145120000Y-89300000D02*
X145930000Y-89300000D01*
X135190000Y-95940000D02*
X135190000Y-95530000D01*
X141670000Y-92750000D02*
X145120000Y-89300000D01*
%TO.N,/DISPLAY_BUSY*%
X148250000Y-90000000D02*
X148860000Y-89390000D01*
X138030000Y-93500000D02*
X142000000Y-93500000D01*
X136252500Y-95277500D02*
X138030000Y-93500000D01*
X145500000Y-90000000D02*
X148250000Y-90000000D01*
X142000000Y-93500000D02*
X145500000Y-90000000D01*
X136252500Y-97680000D02*
X136252500Y-95277500D01*
%TO.N,/RUN*%
X128862500Y-106100000D02*
X128862500Y-107825000D01*
X142632736Y-98510000D02*
X139540610Y-98510000D01*
X139540610Y-98510000D02*
X131950610Y-106100000D01*
X131950610Y-106100000D02*
X128862500Y-106100000D01*
D23*
%TO.N,/~{USB_BOOT}*%
X160525000Y-94350000D02*
X160525000Y-100225000D01*
X160525000Y-100225000D02*
X160550000Y-100250000D01*
D24*
%TO.N,Net-(R20-Pad2)*%
X163470000Y-94133261D02*
X165043261Y-92560000D01*
X163470000Y-111315000D02*
X163470000Y-94133261D01*
X166830000Y-92560000D02*
X167135000Y-92255000D01*
X167135000Y-92255000D02*
X167135000Y-91430000D01*
X159412500Y-115372500D02*
X163470000Y-111315000D01*
X132702500Y-115372500D02*
X159412500Y-115372500D01*
X127770000Y-113000000D02*
X130330000Y-113000000D01*
X130330000Y-113000000D02*
X132702500Y-115372500D01*
X165043261Y-92560000D02*
X166830000Y-92560000D01*
%TO.N,Net-(R23-Pad2)*%
X164340000Y-111554314D02*
X159846814Y-116047500D01*
X129720000Y-116047500D02*
X127767500Y-118000000D01*
X164340000Y-109160000D02*
X164340000Y-111554314D01*
X170900000Y-108090000D02*
X170260000Y-108730000D01*
X159846814Y-116047500D02*
X129720000Y-116047500D01*
X164770000Y-108730000D02*
X164340000Y-109160000D01*
X170260000Y-108730000D02*
X164770000Y-108730000D01*
%TO.N,Net-(R24-Pad2)*%
X128007500Y-120856739D02*
X128007500Y-119852500D01*
X131262500Y-116597500D02*
X165612500Y-116597500D01*
X128020000Y-131222500D02*
X128020000Y-120869239D01*
X128020000Y-120869239D02*
X128007500Y-120856739D01*
X128007500Y-119852500D02*
X131262500Y-116597500D01*
X174747689Y-107462311D02*
X174747689Y-106841765D01*
X127742500Y-131500000D02*
X128020000Y-131222500D01*
X165612500Y-116597500D02*
X174747689Y-107462311D01*
D25*
%TO.N,/BTN_MACRO_C*%
X170469348Y-98500000D02*
X166281848Y-94312500D01*
X166281848Y-94312500D02*
X164210000Y-94312500D01*
X170480000Y-98500000D02*
X170469348Y-98500000D01*
D23*
%TO.N,/Converter_In*%
X139937500Y-125047500D02*
X139987500Y-124997500D01*
X139587500Y-127047500D02*
X139587500Y-125397500D01*
X139587500Y-127097500D02*
X139587500Y-127047500D01*
X139587500Y-125397500D02*
X139937500Y-125047500D01*
%TO.N,/UVLO_RST*%
X151127500Y-136307500D02*
X151237500Y-136417500D01*
X131947500Y-117282500D02*
X131962500Y-117282500D01*
X133622500Y-117282500D02*
X151150000Y-134810000D01*
X131962500Y-117282500D02*
X133622500Y-117282500D01*
X151150000Y-136285000D02*
X151127500Y-136307500D01*
X131912500Y-117247500D02*
X131947500Y-117282500D01*
X151150000Y-134810000D02*
X151150000Y-136285000D01*
%TO.N,/STATUS_LED*%
X123762500Y-105297500D02*
X123862500Y-105397500D01*
X141110000Y-97080000D02*
X140040000Y-97080000D01*
X131770000Y-105350000D02*
X123815000Y-105350000D01*
X123815000Y-105350000D02*
X123762500Y-105297500D01*
X140040000Y-97080000D02*
X131770000Y-105350000D01*
%TD*%
%TA.AperFunction,Conductor*%
%TO.N,GND*%
G36*
X172298963Y-33236096D02*
G01*
X172842931Y-33254681D01*
X172851359Y-33255258D01*
X173390675Y-33310705D01*
X173399060Y-33311857D01*
X173933349Y-33403980D01*
X173941593Y-33405694D01*
X174468358Y-33534065D01*
X174476472Y-33536338D01*
X174941557Y-33683951D01*
X174993249Y-33700358D01*
X175001203Y-33703184D01*
X175505605Y-33902096D01*
X175513313Y-33905444D01*
X176002938Y-34138301D01*
X176010430Y-34142182D01*
X176456480Y-34392983D01*
X176483016Y-34407904D01*
X176490250Y-34412303D01*
X176943598Y-34709653D01*
X176950507Y-34714530D01*
X177382484Y-35042108D01*
X177389052Y-35047451D01*
X177797687Y-35403760D01*
X177803875Y-35409540D01*
X178187220Y-35792883D01*
X178192999Y-35799070D01*
X178549321Y-36207713D01*
X178554631Y-36214239D01*
X178882220Y-36646225D01*
X178882236Y-36646246D01*
X178887118Y-36653163D01*
X179025080Y-36863499D01*
X179184474Y-37106512D01*
X179188855Y-37113716D01*
X179454578Y-37586293D01*
X179458470Y-37593805D01*
X179533902Y-37752411D01*
X179691324Y-38083417D01*
X179694697Y-38091183D01*
X179893587Y-38595518D01*
X179896423Y-38603496D01*
X180060439Y-39120252D01*
X180062723Y-39128405D01*
X180191088Y-39655127D01*
X180192811Y-39663417D01*
X180284934Y-40197682D01*
X180286087Y-40206070D01*
X180341536Y-40745373D01*
X180342114Y-40753820D01*
X180360644Y-41296044D01*
X180360716Y-41300279D01*
X180360716Y-41356967D01*
X180360752Y-41357422D01*
X180387087Y-83043188D01*
X180367445Y-83110240D01*
X180314670Y-83156028D01*
X180263465Y-83167265D01*
X156189945Y-83240634D01*
X156122846Y-83221154D01*
X156076930Y-83168490D01*
X156065568Y-83117047D01*
X156061749Y-81956565D01*
X147061876Y-81942729D01*
X146994867Y-81922941D01*
X146949194Y-81870067D01*
X146938070Y-81817933D01*
X146984642Y-74588498D01*
X149844318Y-74588498D01*
X149844318Y-74588501D01*
X149864955Y-74745260D01*
X149864956Y-74745262D01*
X149925464Y-74891341D01*
X150021718Y-75016782D01*
X150147159Y-75113036D01*
X150293238Y-75173544D01*
X150371619Y-75183863D01*
X150449999Y-75194182D01*
X150450000Y-75194182D01*
X150450001Y-75194182D01*
X150502254Y-75187302D01*
X150606762Y-75173544D01*
X150752841Y-75113036D01*
X150878282Y-75016782D01*
X150974536Y-74891341D01*
X151035044Y-74745262D01*
X151055682Y-74588500D01*
X151035044Y-74431738D01*
X150974536Y-74285659D01*
X150878282Y-74160218D01*
X150752841Y-74063964D01*
X150606762Y-74003456D01*
X150606760Y-74003455D01*
X150450001Y-73982818D01*
X150449999Y-73982818D01*
X150293239Y-74003455D01*
X150293237Y-74003456D01*
X150147160Y-74063963D01*
X150021718Y-74160218D01*
X149925463Y-74285660D01*
X149864956Y-74431737D01*
X149864955Y-74431739D01*
X149844318Y-74588498D01*
X146984642Y-74588498D01*
X147010601Y-70558779D01*
X142328279Y-70580672D01*
X142261148Y-70561301D01*
X142215147Y-70508711D01*
X142203700Y-70456822D01*
X142202445Y-69376366D01*
X142202402Y-69371951D01*
X142202323Y-69367668D01*
X142189290Y-69291689D01*
X142167224Y-69225395D01*
X142149046Y-69183636D01*
X142149043Y-69183631D01*
X142085117Y-69107142D01*
X142030712Y-69063300D01*
X141968170Y-69026194D01*
X141950482Y-69018867D01*
X141896304Y-68996427D01*
X141868276Y-68980245D01*
X141806853Y-68933113D01*
X141798689Y-68926271D01*
X141777338Y-68906757D01*
X141763998Y-68895381D01*
X141759189Y-68892905D01*
X141675359Y-68849753D01*
X141675356Y-68849752D01*
X141675354Y-68849751D01*
X141608195Y-68830509D01*
X141593784Y-68828533D01*
X141536144Y-68820631D01*
X141536140Y-68820631D01*
X139021521Y-68837128D01*
X139021511Y-68837128D01*
X139021506Y-68837129D01*
X138994477Y-68840170D01*
X138968052Y-68843143D01*
X138968035Y-68843146D01*
X138917354Y-68854347D01*
X138891804Y-68861401D01*
X138805174Y-68910731D01*
X138805173Y-68910732D01*
X138752371Y-68956484D01*
X138720742Y-68989263D01*
X138715556Y-68996455D01*
X138714196Y-68995474D01*
X138672871Y-69038292D01*
X138611255Y-69054530D01*
X134312291Y-69045206D01*
X134245294Y-69025376D01*
X134199654Y-68972473D01*
X134188569Y-68922661D01*
X134159842Y-66467891D01*
X134159841Y-66467890D01*
X132850000Y-66454940D01*
X132849999Y-66454941D01*
X132900000Y-70654941D01*
X136376000Y-70654941D01*
X136443039Y-70674626D01*
X136488794Y-70727430D01*
X136500000Y-70778941D01*
X136500000Y-72668989D01*
X136480315Y-72736028D01*
X136427511Y-72781783D01*
X136358353Y-72791727D01*
X136328548Y-72783550D01*
X136226765Y-72741391D01*
X136226760Y-72741389D01*
X136070001Y-72720752D01*
X136069999Y-72720752D01*
X135913239Y-72741389D01*
X135913237Y-72741390D01*
X135767160Y-72801897D01*
X135641718Y-72898152D01*
X135545463Y-73023594D01*
X135484956Y-73169671D01*
X135484955Y-73169673D01*
X135464318Y-73326432D01*
X135464318Y-73326435D01*
X135484955Y-73483194D01*
X135484956Y-73483196D01*
X135545464Y-73629275D01*
X135641718Y-73754716D01*
X135767159Y-73850970D01*
X135913238Y-73911478D01*
X135991619Y-73921797D01*
X136069999Y-73932116D01*
X136070000Y-73932116D01*
X136070001Y-73932116D01*
X136122254Y-73925236D01*
X136226762Y-73911478D01*
X136328547Y-73869316D01*
X136398017Y-73861848D01*
X136460496Y-73893123D01*
X136496148Y-73953212D01*
X136500000Y-73983878D01*
X136500000Y-74231637D01*
X136480315Y-74298676D01*
X136427511Y-74344431D01*
X136376699Y-74355635D01*
X132949841Y-74374941D01*
X132939999Y-79114941D01*
X134377771Y-79114941D01*
X134444810Y-79134626D01*
X134445853Y-79135472D01*
X135697396Y-79128676D01*
X135764541Y-79147996D01*
X135810582Y-79200551D01*
X135820901Y-79269654D01*
X135792222Y-79333367D01*
X135745522Y-79367235D01*
X135617160Y-79420404D01*
X135491718Y-79516659D01*
X135395463Y-79642101D01*
X135334956Y-79788178D01*
X135334955Y-79788180D01*
X135314318Y-79944939D01*
X135314318Y-79944942D01*
X135334955Y-80101701D01*
X135334956Y-80101703D01*
X135395464Y-80247782D01*
X135491718Y-80373223D01*
X135617159Y-80469477D01*
X135763238Y-80529985D01*
X135841619Y-80540304D01*
X135919999Y-80550623D01*
X135920000Y-80550623D01*
X135920001Y-80550623D01*
X135972254Y-80543743D01*
X136076762Y-80529985D01*
X136222841Y-80469477D01*
X136314515Y-80399133D01*
X136379682Y-80373939D01*
X136448127Y-80387977D01*
X136465480Y-80399129D01*
X136520263Y-80441166D01*
X136557157Y-80469476D01*
X136557158Y-80469476D01*
X136557159Y-80469477D01*
X136703238Y-80529985D01*
X136781619Y-80540304D01*
X136859999Y-80550623D01*
X136860000Y-80550623D01*
X136860001Y-80550623D01*
X136912254Y-80543743D01*
X137016762Y-80529985D01*
X137162841Y-80469477D01*
X137288282Y-80373223D01*
X137384536Y-80247782D01*
X137445044Y-80101703D01*
X137465682Y-79944941D01*
X137445044Y-79788179D01*
X137384536Y-79642100D01*
X137288282Y-79516659D01*
X137162841Y-79420405D01*
X137162839Y-79420404D01*
X137016570Y-79359817D01*
X136962167Y-79315976D01*
X136940102Y-79249681D01*
X136957381Y-79181982D01*
X137008519Y-79134372D01*
X137063347Y-79121258D01*
X141784803Y-79095620D01*
X141851946Y-79114940D01*
X141897987Y-79167495D01*
X141909473Y-79220139D01*
X141893151Y-83102103D01*
X141873185Y-83169059D01*
X141820189Y-83214592D01*
X141769703Y-83225581D01*
X112314042Y-83356481D01*
X112246916Y-83337094D01*
X112200927Y-83284494D01*
X112189491Y-83232564D01*
X112182662Y-72422498D01*
X131884318Y-72422498D01*
X131884318Y-72422501D01*
X131904955Y-72579260D01*
X131904956Y-72579262D01*
X131965464Y-72725341D01*
X132061718Y-72850782D01*
X132187159Y-72947036D01*
X132333238Y-73007544D01*
X132411619Y-73017863D01*
X132489999Y-73028182D01*
X132490000Y-73028182D01*
X132490001Y-73028182D01*
X132542254Y-73021302D01*
X132646762Y-73007544D01*
X132792841Y-72947036D01*
X132918282Y-72850782D01*
X133014536Y-72725341D01*
X133075044Y-72579262D01*
X133095682Y-72422500D01*
X133075044Y-72265738D01*
X133014536Y-72119659D01*
X132918282Y-71994218D01*
X132792841Y-71897964D01*
X132646762Y-71837456D01*
X132646760Y-71837455D01*
X132490001Y-71816818D01*
X132489999Y-71816818D01*
X132333239Y-71837455D01*
X132333237Y-71837456D01*
X132187160Y-71897963D01*
X132061718Y-71994218D01*
X131965463Y-72119660D01*
X131904956Y-72265737D01*
X131904955Y-72265739D01*
X131884318Y-72422498D01*
X112182662Y-72422498D01*
X112172617Y-56522498D01*
X148719318Y-56522498D01*
X148719318Y-56522501D01*
X148739955Y-56679260D01*
X148739956Y-56679262D01*
X148800464Y-56825341D01*
X148896718Y-56950782D01*
X149022159Y-57047036D01*
X149168238Y-57107544D01*
X149246619Y-57117863D01*
X149324999Y-57128182D01*
X149325000Y-57128182D01*
X149325001Y-57128182D01*
X149377254Y-57121302D01*
X149481762Y-57107544D01*
X149627841Y-57047036D01*
X149753282Y-56950782D01*
X149849536Y-56825341D01*
X149910044Y-56679262D01*
X149930682Y-56522500D01*
X149910044Y-56365738D01*
X149849536Y-56219659D01*
X149753282Y-56094218D01*
X149627841Y-55997964D01*
X149582690Y-55979262D01*
X149481762Y-55937456D01*
X149481760Y-55937455D01*
X149325001Y-55916818D01*
X149324999Y-55916818D01*
X149168239Y-55937455D01*
X149168237Y-55937456D01*
X149022160Y-55997963D01*
X148896718Y-56094218D01*
X148800463Y-56219660D01*
X148739956Y-56365737D01*
X148739955Y-56365739D01*
X148719318Y-56522498D01*
X112172617Y-56522498D01*
X112172175Y-55822498D01*
X139744318Y-55822498D01*
X139744318Y-55822501D01*
X139764955Y-55979260D01*
X139764956Y-55979262D01*
X139825464Y-56125341D01*
X139921718Y-56250782D01*
X140047159Y-56347036D01*
X140193238Y-56407544D01*
X140271619Y-56417863D01*
X140349999Y-56428182D01*
X140350000Y-56428182D01*
X140350001Y-56428182D01*
X140402254Y-56421302D01*
X140506762Y-56407544D01*
X140652841Y-56347036D01*
X140778282Y-56250782D01*
X140874536Y-56125341D01*
X140935044Y-55979262D01*
X140955682Y-55822500D01*
X140935044Y-55665738D01*
X140874536Y-55519659D01*
X140778282Y-55394218D01*
X140652841Y-55297964D01*
X140506762Y-55237456D01*
X140506760Y-55237455D01*
X140350001Y-55216818D01*
X140349999Y-55216818D01*
X140193239Y-55237455D01*
X140193237Y-55237456D01*
X140047160Y-55297963D01*
X139921718Y-55394218D01*
X139825463Y-55519660D01*
X139764956Y-55665737D01*
X139764955Y-55665739D01*
X139744318Y-55822498D01*
X112172175Y-55822498D01*
X112163001Y-41302018D01*
X112163073Y-41297729D01*
X112163131Y-41296044D01*
X112167273Y-41174773D01*
X118614181Y-41174773D01*
X118614181Y-41418827D01*
X118652360Y-41659876D01*
X118727777Y-41891985D01*
X118766960Y-41968887D01*
X118838577Y-42109442D01*
X118982020Y-42306876D01*
X118982024Y-42306881D01*
X119154599Y-42479456D01*
X119154604Y-42479460D01*
X119154632Y-42479480D01*
X119352042Y-42622906D01*
X119569496Y-42733704D01*
X119801605Y-42809121D01*
X120042654Y-42847300D01*
X120042655Y-42847300D01*
X120286707Y-42847300D01*
X120286708Y-42847300D01*
X120527757Y-42809121D01*
X120759866Y-42733704D01*
X120977320Y-42622906D01*
X121174764Y-42479455D01*
X121331783Y-42322436D01*
X140715233Y-42322436D01*
X140715233Y-42322445D01*
X140734273Y-42576520D01*
X140790968Y-42824918D01*
X140790973Y-42824935D01*
X140884058Y-43062112D01*
X140884057Y-43062112D01*
X141011457Y-43282773D01*
X141053452Y-43335434D01*
X141704152Y-42684733D01*
X141711049Y-42701383D01*
X141798599Y-42832411D01*
X141910030Y-42943842D01*
X142041058Y-43031392D01*
X142057705Y-43038287D01*
X141406813Y-43689178D01*
X141567623Y-43798816D01*
X141567624Y-43798817D01*
X141797176Y-43909362D01*
X141797174Y-43909362D01*
X142040652Y-43984465D01*
X142040658Y-43984467D01*
X142292595Y-44022440D01*
X142292604Y-44022441D01*
X142547396Y-44022441D01*
X142547404Y-44022440D01*
X142799341Y-43984467D01*
X142799347Y-43984465D01*
X143042824Y-43909362D01*
X143272381Y-43798814D01*
X143433185Y-43689178D01*
X142782294Y-43038287D01*
X142798942Y-43031392D01*
X142929970Y-42943842D01*
X143041401Y-42832411D01*
X143128951Y-42701383D01*
X143135846Y-42684735D01*
X143786545Y-43335434D01*
X143828545Y-43282768D01*
X143955941Y-43062112D01*
X144049026Y-42824935D01*
X144049031Y-42824918D01*
X144105726Y-42576520D01*
X144124767Y-42322445D01*
X144124767Y-42322436D01*
X145795233Y-42322436D01*
X145795233Y-42322445D01*
X145814273Y-42576520D01*
X145870968Y-42824918D01*
X145870973Y-42824935D01*
X145964058Y-43062112D01*
X145964057Y-43062112D01*
X146091457Y-43282773D01*
X146133452Y-43335434D01*
X146784152Y-42684733D01*
X146791049Y-42701383D01*
X146878599Y-42832411D01*
X146990030Y-42943842D01*
X147121058Y-43031392D01*
X147137705Y-43038287D01*
X146486813Y-43689178D01*
X146647623Y-43798816D01*
X146647624Y-43798817D01*
X146877176Y-43909362D01*
X146877174Y-43909362D01*
X147120652Y-43984465D01*
X147120658Y-43984467D01*
X147372595Y-44022440D01*
X147372604Y-44022441D01*
X147627396Y-44022441D01*
X147627404Y-44022440D01*
X147879341Y-43984467D01*
X147879347Y-43984465D01*
X148122824Y-43909362D01*
X148352381Y-43798814D01*
X148513185Y-43689178D01*
X147862294Y-43038287D01*
X147878942Y-43031392D01*
X148009970Y-42943842D01*
X148121401Y-42832411D01*
X148208951Y-42701383D01*
X148215846Y-42684735D01*
X148866545Y-43335434D01*
X148908545Y-43282768D01*
X149035941Y-43062112D01*
X149129026Y-42824935D01*
X149129031Y-42824918D01*
X149185726Y-42576520D01*
X149204767Y-42322445D01*
X149204767Y-42322436D01*
X149185726Y-42068361D01*
X149129031Y-41819963D01*
X149129026Y-41819946D01*
X149035941Y-41582769D01*
X149035942Y-41582769D01*
X148908544Y-41362112D01*
X148866546Y-41309447D01*
X148215846Y-41960146D01*
X148208951Y-41943499D01*
X148121401Y-41812471D01*
X148009970Y-41701040D01*
X147878942Y-41613490D01*
X147862292Y-41606593D01*
X148294093Y-41174793D01*
X170684821Y-41174793D01*
X170684821Y-41418846D01*
X170722996Y-41659876D01*
X170723000Y-41659896D01*
X170798417Y-41892005D01*
X170909206Y-42109442D01*
X170909217Y-42109462D01*
X171052660Y-42306896D01*
X171052664Y-42306901D01*
X171225239Y-42479476D01*
X171225244Y-42479480D01*
X171358809Y-42576520D01*
X171422682Y-42622926D01*
X171640136Y-42733724D01*
X171872245Y-42809141D01*
X172113294Y-42847320D01*
X172113295Y-42847320D01*
X172357347Y-42847320D01*
X172357348Y-42847320D01*
X172598397Y-42809141D01*
X172830506Y-42733724D01*
X173047960Y-42622926D01*
X173245404Y-42479475D01*
X173417976Y-42306903D01*
X173561427Y-42109459D01*
X173672225Y-41892005D01*
X173747642Y-41659896D01*
X173785821Y-41418847D01*
X173785821Y-41174793D01*
X173747642Y-40933744D01*
X173672225Y-40701635D01*
X173561427Y-40484181D01*
X173536679Y-40450118D01*
X173417981Y-40286743D01*
X173417977Y-40286738D01*
X173245402Y-40114163D01*
X173245397Y-40114159D01*
X173047963Y-39970716D01*
X173047962Y-39970715D01*
X173047960Y-39970714D01*
X172830506Y-39859916D01*
X172598397Y-39784499D01*
X172598395Y-39784498D01*
X172598393Y-39784498D01*
X172430090Y-39757841D01*
X172357348Y-39746320D01*
X172113294Y-39746320D01*
X172057414Y-39755170D01*
X171872248Y-39784498D01*
X171872245Y-39784499D01*
X171640195Y-39859897D01*
X171640133Y-39859917D01*
X171422678Y-39970716D01*
X171225244Y-40114159D01*
X171225239Y-40114163D01*
X171052664Y-40286738D01*
X171052660Y-40286743D01*
X170909217Y-40484177D01*
X170798418Y-40701632D01*
X170722999Y-40933747D01*
X170684821Y-41174793D01*
X148294093Y-41174793D01*
X148513185Y-40955702D01*
X148352377Y-40846065D01*
X148352376Y-40846064D01*
X148122823Y-40735519D01*
X148122825Y-40735519D01*
X147879347Y-40660416D01*
X147879341Y-40660414D01*
X147627404Y-40622441D01*
X147372595Y-40622441D01*
X147120658Y-40660414D01*
X147120652Y-40660416D01*
X146877175Y-40735519D01*
X146647624Y-40846064D01*
X146647616Y-40846069D01*
X146486813Y-40955702D01*
X147137705Y-41606594D01*
X147121058Y-41613490D01*
X146990030Y-41701040D01*
X146878599Y-41812471D01*
X146791049Y-41943499D01*
X146784153Y-41960147D01*
X146133453Y-41309447D01*
X146091455Y-41362111D01*
X145964058Y-41582769D01*
X145870973Y-41819946D01*
X145870968Y-41819963D01*
X145814273Y-42068361D01*
X145795233Y-42322436D01*
X144124767Y-42322436D01*
X144105726Y-42068361D01*
X144049031Y-41819963D01*
X144049026Y-41819946D01*
X143955941Y-41582769D01*
X143955942Y-41582769D01*
X143828544Y-41362112D01*
X143786546Y-41309447D01*
X143135846Y-41960146D01*
X143128951Y-41943499D01*
X143041401Y-41812471D01*
X142929970Y-41701040D01*
X142798942Y-41613490D01*
X142782292Y-41606593D01*
X143433185Y-40955702D01*
X143272377Y-40846065D01*
X143272376Y-40846064D01*
X143042823Y-40735519D01*
X143042825Y-40735519D01*
X142799347Y-40660416D01*
X142799341Y-40660414D01*
X142547404Y-40622441D01*
X142292595Y-40622441D01*
X142040658Y-40660414D01*
X142040652Y-40660416D01*
X141797175Y-40735519D01*
X141567624Y-40846064D01*
X141567616Y-40846069D01*
X141406813Y-40955702D01*
X142057705Y-41606594D01*
X142041058Y-41613490D01*
X141910030Y-41701040D01*
X141798599Y-41812471D01*
X141711049Y-41943499D01*
X141704153Y-41960147D01*
X141053453Y-41309447D01*
X141011455Y-41362111D01*
X140884058Y-41582769D01*
X140790973Y-41819946D01*
X140790968Y-41819963D01*
X140734273Y-42068361D01*
X140715233Y-42322436D01*
X121331783Y-42322436D01*
X121347336Y-42306883D01*
X121490787Y-42109439D01*
X121601585Y-41891985D01*
X121677002Y-41659876D01*
X121715181Y-41418827D01*
X121715181Y-41174773D01*
X121677002Y-40933724D01*
X121601585Y-40701615D01*
X121490787Y-40484161D01*
X121458229Y-40439349D01*
X121347341Y-40286723D01*
X121347337Y-40286718D01*
X121174762Y-40114143D01*
X121174757Y-40114139D01*
X120977323Y-39970696D01*
X120977322Y-39970695D01*
X120977320Y-39970694D01*
X120759866Y-39859896D01*
X120527757Y-39784479D01*
X120527755Y-39784478D01*
X120527753Y-39784478D01*
X120514848Y-39782434D01*
X143579786Y-39782434D01*
X143579786Y-39782447D01*
X143598608Y-40009609D01*
X143598610Y-40009620D01*
X143654569Y-40230596D01*
X143746137Y-40439349D01*
X143870814Y-40630183D01*
X144025208Y-40797899D01*
X144025212Y-40797902D01*
X144199745Y-40933747D01*
X144205094Y-40937910D01*
X144205096Y-40937911D01*
X144205099Y-40937913D01*
X144321646Y-41000984D01*
X144405574Y-41046404D01*
X144517529Y-41084838D01*
X144621173Y-41120420D01*
X144621175Y-41120420D01*
X144621177Y-41120421D01*
X144846023Y-41157941D01*
X144846024Y-41157941D01*
X145073976Y-41157941D01*
X145073977Y-41157941D01*
X145298823Y-41120421D01*
X145514426Y-41046404D01*
X145714906Y-40937910D01*
X145894794Y-40797897D01*
X146049183Y-40630186D01*
X146173862Y-40439350D01*
X146265430Y-40230596D01*
X146321390Y-40009617D01*
X146321391Y-40009609D01*
X146340214Y-39782447D01*
X146340214Y-39782434D01*
X146321391Y-39555272D01*
X146321389Y-39555261D01*
X146265430Y-39334285D01*
X146173862Y-39125532D01*
X146049185Y-38934698D01*
X145909774Y-38783258D01*
X145894794Y-38766985D01*
X145894793Y-38766984D01*
X145894791Y-38766982D01*
X145894787Y-38766979D01*
X145714909Y-38626974D01*
X145714900Y-38626968D01*
X145514432Y-38518481D01*
X145514429Y-38518480D01*
X145514426Y-38518478D01*
X145514420Y-38518476D01*
X145514418Y-38518475D01*
X145298826Y-38444461D01*
X145130188Y-38416321D01*
X145073977Y-38406941D01*
X144846023Y-38406941D01*
X144801053Y-38414445D01*
X144621173Y-38444461D01*
X144405581Y-38518475D01*
X144405567Y-38518481D01*
X144205099Y-38626968D01*
X144205090Y-38626974D01*
X144025212Y-38766979D01*
X144025208Y-38766982D01*
X143870814Y-38934698D01*
X143746137Y-39125532D01*
X143654569Y-39334285D01*
X143598610Y-39555261D01*
X143598608Y-39555272D01*
X143579786Y-39782434D01*
X120514848Y-39782434D01*
X120359450Y-39757821D01*
X120286708Y-39746300D01*
X120042654Y-39746300D01*
X119986774Y-39755150D01*
X119801608Y-39784478D01*
X119569493Y-39859897D01*
X119352038Y-39970696D01*
X119154604Y-40114139D01*
X119154599Y-40114143D01*
X118982024Y-40286718D01*
X118982020Y-40286723D01*
X118838577Y-40484157D01*
X118727778Y-40701612D01*
X118727777Y-40701614D01*
X118727777Y-40701615D01*
X118727771Y-40701635D01*
X118652359Y-40933727D01*
X118622790Y-41120420D01*
X118614181Y-41174773D01*
X112167273Y-41174773D01*
X112181653Y-40753796D01*
X112182228Y-40745382D01*
X112237672Y-40206041D01*
X112238818Y-40197699D01*
X112330943Y-39663383D01*
X112332660Y-39655127D01*
X112461024Y-39128370D01*
X112463293Y-39120273D01*
X112627310Y-38603493D01*
X112630144Y-38595519D01*
X112829045Y-38091136D01*
X112832402Y-38083411D01*
X113065258Y-37593781D01*
X113069127Y-37586313D01*
X113262480Y-37242436D01*
X140715233Y-37242436D01*
X140715233Y-37242445D01*
X140734273Y-37496520D01*
X140790968Y-37744918D01*
X140790973Y-37744935D01*
X140884058Y-37982112D01*
X140884057Y-37982112D01*
X141011457Y-38202773D01*
X141053452Y-38255434D01*
X141704152Y-37604733D01*
X141711049Y-37621383D01*
X141798599Y-37752411D01*
X141910030Y-37863842D01*
X142041058Y-37951392D01*
X142057705Y-37958287D01*
X141406813Y-38609178D01*
X141567623Y-38718816D01*
X141567624Y-38718817D01*
X141797176Y-38829362D01*
X141797174Y-38829362D01*
X142040652Y-38904465D01*
X142040658Y-38904467D01*
X142292595Y-38942440D01*
X142292604Y-38942441D01*
X142547396Y-38942441D01*
X142547404Y-38942440D01*
X142799341Y-38904467D01*
X142799347Y-38904465D01*
X143042824Y-38829362D01*
X143272381Y-38718814D01*
X143433185Y-38609178D01*
X142782294Y-37958287D01*
X142798942Y-37951392D01*
X142929970Y-37863842D01*
X143041401Y-37752411D01*
X143128951Y-37621383D01*
X143135846Y-37604735D01*
X143786545Y-38255434D01*
X143828545Y-38202768D01*
X143955941Y-37982112D01*
X144049026Y-37744935D01*
X144049031Y-37744918D01*
X144105726Y-37496520D01*
X144124767Y-37242445D01*
X144124767Y-37242436D01*
X145795233Y-37242436D01*
X145795233Y-37242445D01*
X145814273Y-37496520D01*
X145870968Y-37744918D01*
X145870973Y-37744935D01*
X145964058Y-37982112D01*
X145964057Y-37982112D01*
X146091457Y-38202773D01*
X146133452Y-38255434D01*
X146784152Y-37604733D01*
X146791049Y-37621383D01*
X146878599Y-37752411D01*
X146990030Y-37863842D01*
X147121058Y-37951392D01*
X147137705Y-37958287D01*
X146486813Y-38609178D01*
X146647623Y-38718816D01*
X146647624Y-38718817D01*
X146877176Y-38829362D01*
X146877174Y-38829362D01*
X147120652Y-38904465D01*
X147120658Y-38904467D01*
X147372595Y-38942440D01*
X147372604Y-38942441D01*
X147627396Y-38942441D01*
X147627404Y-38942440D01*
X147879341Y-38904467D01*
X147879347Y-38904465D01*
X148122824Y-38829362D01*
X148352381Y-38718814D01*
X148513185Y-38609178D01*
X147862294Y-37958287D01*
X147878942Y-37951392D01*
X148009970Y-37863842D01*
X148121401Y-37752411D01*
X148208951Y-37621383D01*
X148215846Y-37604735D01*
X148866545Y-38255434D01*
X148908545Y-38202768D01*
X149035941Y-37982112D01*
X149129026Y-37744935D01*
X149129031Y-37744918D01*
X149185726Y-37496520D01*
X149204767Y-37242445D01*
X149204767Y-37242436D01*
X149185726Y-36988361D01*
X149129031Y-36739963D01*
X149129026Y-36739946D01*
X149035941Y-36502769D01*
X149035942Y-36502769D01*
X148908544Y-36282112D01*
X148866546Y-36229447D01*
X148215846Y-36880146D01*
X148208951Y-36863499D01*
X148121401Y-36732471D01*
X148009970Y-36621040D01*
X147878942Y-36533490D01*
X147862292Y-36526593D01*
X148513185Y-35875702D01*
X148352377Y-35766065D01*
X148352376Y-35766064D01*
X148122823Y-35655519D01*
X148122825Y-35655519D01*
X147879347Y-35580416D01*
X147879341Y-35580414D01*
X147627404Y-35542441D01*
X147372595Y-35542441D01*
X147120658Y-35580414D01*
X147120652Y-35580416D01*
X146877175Y-35655519D01*
X146647624Y-35766064D01*
X146647616Y-35766069D01*
X146486813Y-35875702D01*
X147137705Y-36526594D01*
X147121058Y-36533490D01*
X146990030Y-36621040D01*
X146878599Y-36732471D01*
X146791049Y-36863499D01*
X146784153Y-36880147D01*
X146133453Y-36229447D01*
X146091455Y-36282111D01*
X145964058Y-36502769D01*
X145870973Y-36739946D01*
X145870968Y-36739963D01*
X145814273Y-36988361D01*
X145795233Y-37242436D01*
X144124767Y-37242436D01*
X144105726Y-36988361D01*
X144049031Y-36739963D01*
X144049026Y-36739946D01*
X143955941Y-36502769D01*
X143955942Y-36502769D01*
X143828544Y-36282112D01*
X143786546Y-36229447D01*
X143135846Y-36880146D01*
X143128951Y-36863499D01*
X143041401Y-36732471D01*
X142929970Y-36621040D01*
X142798942Y-36533490D01*
X142782292Y-36526593D01*
X143433185Y-35875702D01*
X143272377Y-35766065D01*
X143272376Y-35766064D01*
X143042823Y-35655519D01*
X143042825Y-35655519D01*
X142799347Y-35580416D01*
X142799341Y-35580414D01*
X142547404Y-35542441D01*
X142292595Y-35542441D01*
X142040658Y-35580414D01*
X142040652Y-35580416D01*
X141797175Y-35655519D01*
X141567624Y-35766064D01*
X141567616Y-35766069D01*
X141406813Y-35875702D01*
X142057705Y-36526594D01*
X142041058Y-36533490D01*
X141910030Y-36621040D01*
X141798599Y-36732471D01*
X141711049Y-36863499D01*
X141704153Y-36880147D01*
X141053453Y-36229447D01*
X141011455Y-36282111D01*
X140884058Y-36502769D01*
X140790973Y-36739946D01*
X140790968Y-36739963D01*
X140734273Y-36988361D01*
X140715233Y-37242436D01*
X113262480Y-37242436D01*
X113334862Y-37113704D01*
X113339247Y-37106493D01*
X113636613Y-36653120D01*
X113641465Y-36646246D01*
X113969072Y-36214230D01*
X113974402Y-36207679D01*
X114330719Y-35799038D01*
X114336469Y-35792881D01*
X114719850Y-35409499D01*
X114726007Y-35403748D01*
X115134668Y-35047415D01*
X115141213Y-35042091D01*
X115573222Y-34714487D01*
X115580096Y-34709635D01*
X116033469Y-34412269D01*
X116040680Y-34407884D01*
X116513289Y-34142149D01*
X116520758Y-34138279D01*
X117010387Y-33905423D01*
X117018112Y-33902066D01*
X117522498Y-33703163D01*
X117530473Y-33700330D01*
X118047244Y-33536315D01*
X118055351Y-33534044D01*
X118582104Y-33405679D01*
X118590372Y-33403961D01*
X119124654Y-33311843D01*
X119133030Y-33310691D01*
X119672360Y-33255248D01*
X119680772Y-33254673D01*
X120224632Y-33236095D01*
X120228865Y-33236024D01*
X120274452Y-33236024D01*
X172249261Y-33236024D01*
X172294729Y-33236024D01*
X172298963Y-33236096D01*
G37*
%TD.AperFunction*%
%TD*%
%TA.AperFunction,Conductor*%
%TO.N,+3V3*%
G36*
X168122689Y-103116765D02*
G01*
X168122689Y-105541765D01*
X168372493Y-105816549D01*
X168374308Y-105818707D01*
X168376965Y-105821469D01*
X168622689Y-106091765D01*
X169247689Y-106091765D01*
X169197689Y-107191765D01*
X168872689Y-107191765D01*
X166752236Y-107191765D01*
X166694045Y-107172858D01*
X166692353Y-107171600D01*
X166461806Y-106996478D01*
X166426904Y-106946224D01*
X166422689Y-106917643D01*
X166422689Y-104966743D01*
X166398942Y-103067002D01*
X166417120Y-103008580D01*
X166466167Y-102972000D01*
X166497934Y-102966765D01*
X166724699Y-102966765D01*
X168247689Y-102966765D01*
X168122689Y-103116765D01*
G37*
%TD.AperFunction*%
%TD*%
%TA.AperFunction,Conductor*%
%TO.N,+3V3*%
G36*
X175408940Y-88711685D02*
G01*
X175466965Y-88731092D01*
X175478091Y-88740677D01*
X176395530Y-89658116D01*
X176423307Y-89712633D01*
X176424526Y-89727929D01*
X176449355Y-102614226D01*
X176430560Y-102672453D01*
X176412063Y-102691832D01*
X174751789Y-104015240D01*
X174694500Y-104036726D01*
X174689485Y-104036823D01*
X172003021Y-104020638D01*
X172004715Y-103191765D01*
X172172689Y-102966765D01*
X170247689Y-102966765D01*
X170422689Y-103191765D01*
X170422689Y-104011119D01*
X168122689Y-103997264D01*
X168122689Y-103116765D01*
X168247689Y-102966765D01*
X166724701Y-102966765D01*
X166770114Y-102918324D01*
X166823707Y-102888803D01*
X166842338Y-102887034D01*
X173749448Y-102887034D01*
X174824448Y-101837034D01*
X174820991Y-100305697D01*
X174839766Y-100247467D01*
X174859718Y-100226940D01*
X174875121Y-100215121D01*
X174963361Y-100100125D01*
X175018830Y-99966209D01*
X175037750Y-99822500D01*
X175018830Y-99678791D01*
X174963361Y-99544875D01*
X174875121Y-99429879D01*
X174857537Y-99416386D01*
X174822882Y-99365961D01*
X174818807Y-99338074D01*
X174799448Y-90762034D01*
X174384023Y-90478790D01*
X174249448Y-90387034D01*
X173243018Y-90384342D01*
X173184878Y-90365279D01*
X173164741Y-90345609D01*
X173095125Y-90254884D01*
X173095124Y-90254883D01*
X173095121Y-90254879D01*
X172980125Y-90166639D01*
X172980121Y-90166637D01*
X172846209Y-90111170D01*
X172846208Y-90111169D01*
X172702500Y-90092250D01*
X172558791Y-90111169D01*
X172558790Y-90111170D01*
X172424878Y-90166637D01*
X172424874Y-90166639D01*
X172309881Y-90254877D01*
X172309873Y-90254885D01*
X172242471Y-90342724D01*
X172192046Y-90377379D01*
X172163665Y-90381456D01*
X169435205Y-90374161D01*
X169377065Y-90355098D01*
X169356930Y-90335430D01*
X169295121Y-90254879D01*
X169180125Y-90166639D01*
X169180121Y-90166637D01*
X169046209Y-90111170D01*
X169046208Y-90111169D01*
X168902500Y-90092250D01*
X168758791Y-90111169D01*
X168758790Y-90111170D01*
X168624878Y-90166637D01*
X168624874Y-90166639D01*
X168509881Y-90254877D01*
X168509873Y-90254885D01*
X168450252Y-90332584D01*
X168399827Y-90367239D01*
X168371446Y-90371316D01*
X165646615Y-90364031D01*
X165588475Y-90344968D01*
X165568341Y-90325301D01*
X165495121Y-90229879D01*
X165380125Y-90141639D01*
X165380121Y-90141637D01*
X165246209Y-90086170D01*
X165246208Y-90086169D01*
X165102500Y-90067250D01*
X164958791Y-90086169D01*
X164958790Y-90086170D01*
X164824878Y-90141637D01*
X164824874Y-90141639D01*
X164709881Y-90229877D01*
X164709877Y-90229881D01*
X164621639Y-90344874D01*
X164621637Y-90344878D01*
X164566170Y-90478790D01*
X164566169Y-90478791D01*
X164547250Y-90622499D01*
X164547250Y-90622504D01*
X164549226Y-90637517D01*
X164538074Y-90697677D01*
X164519160Y-90722305D01*
X164424448Y-90812033D01*
X164424448Y-92209449D01*
X164410184Y-92260643D01*
X164160004Y-92674734D01*
X164113729Y-92714764D01*
X164085281Y-92722032D01*
X158400001Y-93299999D01*
X158399999Y-93300000D01*
X154217496Y-96456605D01*
X154201606Y-92458394D01*
X154197500Y-91447500D01*
X153100000Y-92873867D01*
X153100000Y-92834727D01*
X153118907Y-92776536D01*
X153121694Y-92772882D01*
X153162374Y-92722032D01*
X155077253Y-90328433D01*
X155128367Y-90294807D01*
X155135730Y-90293087D01*
X163814717Y-88613916D01*
X163834366Y-88612119D01*
X175408940Y-88711685D01*
G37*
%TD.AperFunction*%
%TA.AperFunction,Conductor*%
G36*
X153153583Y-97259559D02*
G01*
X153140190Y-97264181D01*
X154065851Y-96571052D01*
X153153583Y-97259559D01*
G37*
%TD.AperFunction*%
%TD*%
%TA.AperFunction,Conductor*%
%TO.N,+3V3*%
G36*
X141604985Y-69095370D02*
G01*
X141631445Y-69119553D01*
X141631628Y-69119371D01*
X141635685Y-69123428D01*
X141637006Y-69124635D01*
X141637376Y-69125118D01*
X141637377Y-69125119D01*
X141637379Y-69125121D01*
X141752375Y-69213361D01*
X141870398Y-69262247D01*
X141924800Y-69306086D01*
X141946866Y-69372380D01*
X141946945Y-69376663D01*
X141948515Y-70728142D01*
X141939078Y-70775734D01*
X141933670Y-70788791D01*
X141930565Y-70812375D01*
X141914750Y-70932499D01*
X141914750Y-70932500D01*
X141933670Y-71076208D01*
X141933671Y-71076212D01*
X141939553Y-71090413D01*
X141948991Y-71137719D01*
X141956952Y-77990797D01*
X141937345Y-78057859D01*
X141884594Y-78103675D01*
X141832952Y-78114941D01*
X134624000Y-78114941D01*
X134556961Y-78095256D01*
X134511206Y-78042452D01*
X134500000Y-77990941D01*
X134500000Y-77018941D01*
X134519685Y-76951902D01*
X134572489Y-76906147D01*
X134624000Y-76894941D01*
X141250000Y-76894941D01*
X141250000Y-76866261D01*
X141260043Y-76832057D01*
X141256095Y-74354941D01*
X141250000Y-70529941D01*
X141250000Y-70054941D01*
X139024000Y-70054941D01*
X138956961Y-70035256D01*
X138911206Y-69982452D01*
X138900000Y-69930941D01*
X138900000Y-69216621D01*
X138919685Y-69149582D01*
X138972489Y-69103827D01*
X139023182Y-69092624D01*
X141537820Y-69076126D01*
X141604985Y-69095370D01*
G37*
%TD.AperFunction*%
%TD*%
%TA.AperFunction,Conductor*%
%TO.N,+3V3*%
G36*
X172004715Y-103191765D02*
G01*
X172003021Y-104020638D01*
X172003020Y-104020638D01*
X172000799Y-105108345D01*
X171993264Y-105146027D01*
X171961359Y-105223054D01*
X171942439Y-105366764D01*
X171942439Y-105366765D01*
X171961358Y-105510473D01*
X171961359Y-105510474D01*
X172016828Y-105644390D01*
X172105068Y-105759386D01*
X172220064Y-105847626D01*
X172233973Y-105853387D01*
X172276647Y-105887307D01*
X172297689Y-105916765D01*
X172451323Y-105916765D01*
X172464245Y-105917612D01*
X172497689Y-105922015D01*
X172531133Y-105917612D01*
X172544055Y-105916765D01*
X172686846Y-105916765D01*
X172745037Y-105935672D01*
X172750224Y-105939711D01*
X172987067Y-106137080D01*
X173019666Y-106188858D01*
X173022689Y-106213134D01*
X173022689Y-106980580D01*
X173003782Y-107038771D01*
X172967963Y-107069128D01*
X172693593Y-107206313D01*
X172649319Y-107216765D01*
X170519822Y-107216765D01*
X170517949Y-107216747D01*
X169197704Y-107191765D01*
X169197689Y-107191765D01*
X169247689Y-106091765D01*
X170122689Y-106091765D01*
X170422689Y-105691765D01*
X170422689Y-103191765D01*
X170247689Y-102966765D01*
X172172689Y-102966765D01*
X172004715Y-103191765D01*
G37*
%TD.AperFunction*%
%TD*%
%TA.AperFunction,Conductor*%
%TO.N,+3V3*%
G36*
X154201606Y-92458394D02*
G01*
X154217495Y-96456604D01*
X154194805Y-96473730D01*
X154193121Y-96475753D01*
X154066230Y-96570769D01*
X154066093Y-96570871D01*
X153151605Y-97255632D01*
X153151603Y-97255634D01*
X150078839Y-99556497D01*
X150076105Y-99558486D01*
X149118666Y-100235463D01*
X149052563Y-100258095D01*
X149049336Y-100258195D01*
X147018845Y-100295191D01*
X146951458Y-100276731D01*
X146904749Y-100224770D01*
X146892587Y-100170760D01*
X146897293Y-98884055D01*
X146917222Y-98817089D01*
X146940343Y-98790578D01*
X147738483Y-98102750D01*
X147859115Y-97998791D01*
X147922746Y-97969939D01*
X147991878Y-97980069D01*
X148015548Y-97994348D01*
X148045461Y-98017300D01*
X148059875Y-98028361D01*
X148193791Y-98083830D01*
X148320780Y-98100548D01*
X148337499Y-98102750D01*
X148337500Y-98102750D01*
X148337501Y-98102750D01*
X148352477Y-98100778D01*
X148481209Y-98083830D01*
X148615125Y-98028361D01*
X148730121Y-97940121D01*
X148818361Y-97825125D01*
X148873830Y-97691209D01*
X148892750Y-97547500D01*
X148873830Y-97403791D01*
X148834839Y-97309658D01*
X148827371Y-97240191D01*
X148858646Y-97177712D01*
X148871395Y-97165820D01*
X149486529Y-96668284D01*
X149488548Y-96666689D01*
X149919250Y-96333612D01*
X149984319Y-96308175D01*
X150011281Y-96308765D01*
X150099954Y-96320440D01*
X150117499Y-96322750D01*
X150117500Y-96322750D01*
X150117501Y-96322750D01*
X150132477Y-96320778D01*
X150261209Y-96303830D01*
X150395125Y-96248361D01*
X150510121Y-96160121D01*
X150598361Y-96045125D01*
X150653830Y-95911209D01*
X150672750Y-95767500D01*
X150672749Y-95767499D01*
X150672848Y-95766754D01*
X150701115Y-95702858D01*
X150716312Y-95687757D01*
X151327500Y-95177500D01*
X153100000Y-92873867D01*
X154197500Y-91447500D01*
X154201606Y-92458394D01*
G37*
%TD.AperFunction*%
%TD*%
M02*
