M48
; DRILL file {KiCad 8.0.7} date 2025-03-17T23:14:41-0400
; FORMAT={-:-/ absolute / metric / decimal}
; #@! TF.CreationDate,2025-03-17T23:14:41-04:00
; #@! TF.GenerationSoftware,Kicad,Pcbnew,8.0.7
; #@! TF.FileFunction,Plated,1,4,PTH
FMAT,2
METRIC
; #@! TA.AperFunction,Plated,PTH,ViaDrill
T1C0.300
; #@! TA.AperFunction,Plated,PTH,ComponentDrill
T2C0.300
; #@! TA.AperFunction,Plated,PTH,ComponentDrill
T3C0.600
; #@! TA.AperFunction,Plated,PTH,ComponentDrill
T4C0.750
; #@! TA.AperFunction,Plated,PTH,ComponentDrill
T5C1.000
%
G90
G05
T1
X113.11Y-47.91
X113.22Y-59.125
X113.23Y-51.35
X113.31Y-44.8
X113.33Y-65.435
X113.37Y-71.035
X113.41Y-75.445
X113.41Y-78.695
X113.45Y-54.915
X113.635Y-82.01
X113.75Y-42.435
X115.34Y-62.375
X115.4Y-49.28
X115.4Y-73.89
X115.425Y-39.96
X115.5Y-45.47
X115.555Y-84.94
X115.6Y-79.465
X115.98Y-70.9
X116.16Y-67.785
X116.2Y-43.06
X116.2Y-59.415
X116.35Y-53.015
X116.42Y-82.08
X116.612Y-104.597
X117.27Y-48.5
X117.36Y-78.102
X117.53Y-75.04
X117.725Y-41.185
X117.987Y-109.512
X117.987Y-119.512
X117.987Y-129.512
X118.2Y-38.885
X118.36Y-82.37
X118.4Y-65.59
X118.42Y-57.092
X118.625Y-61.315
X118.71Y-80.56
X118.83Y-49.95
X118.87Y-69.222
X119.07Y-71.825
X119.68Y-52.1
X119.83Y-54.63
X120.175Y-74.69
X120.485Y-82.28
X120.57Y-78.445
X120.8Y-38.43
X120.91Y-65.875
X121.41Y-59.205
X121.88Y-80.51
X121.96Y-63.352
X121.97Y-72.07
X122.19Y-69.983
X122.54Y-82.47
X122.61Y-51.32
X122.675Y-53.315
X122.69Y-40.78
X122.71Y-56.492
X122.82Y-77.492
X122.94Y-74.492
X123.08Y-66.97
X123.21Y-48.84
X123.762Y-105.297
X124.02Y-38.34
X124.1Y-44.79
X124.15Y-59.812
X124.209Y-84.94
X124.27Y-82.08
X124.32Y-80.0
X124.49Y-77.405
X124.56Y-74.465
X124.6Y-42.768
X124.68Y-64.945
X124.86Y-62.422
X125.06Y-47.39
X125.07Y-70.865
X125.18Y-68.085
X125.275Y-50.072
X125.37Y-55.2
X125.42Y-63.595
X125.76Y-57.665
X125.77Y-66.415
X125.8Y-71.975
X125.98Y-60.515
X126.0Y-45.242
X126.03Y-75.275
X126.06Y-40.41
X126.14Y-73.495
X126.19Y-69.215
X126.53Y-77.885
X126.59Y-81.15
X126.6Y-52.322
X126.71Y-82.52
X126.79Y-48.06
X127.0Y-109.5
X127.0Y-119.5
X127.0Y-129.5
X127.26Y-136.61
X127.42Y-38.34
X127.742Y-131.5
X127.767Y-118.0
X127.77Y-113.0
X127.8Y-79.505
X127.87Y-51.06
X128.0Y-42.878
X128.15Y-56.065
X128.4Y-46.878
X128.53Y-60.795
X128.53Y-64.255
X128.55Y-66.155
X128.62Y-68.125
X128.64Y-62.645
X128.64Y-72.545
X128.657Y-120.587
X128.72Y-109.55
X128.75Y-70.155
X128.75Y-74.825
X128.862Y-106.1
X128.862Y-107.825
X128.92Y-82.155
X129.2Y-48.79
X129.25Y-76.725
X129.62Y-73.54
X129.64Y-71.435
X129.65Y-68.915
X129.81Y-40.56
X129.86Y-53.81
X129.88Y-59.885
X130.02Y-58.315
X130.2Y-51.48
X130.23Y-80.86
X130.51Y-82.43
X130.61Y-77.89
X130.68Y-75.0
X130.688Y-119.108
X130.69Y-94.23
X130.74Y-76.45
X130.98Y-68.945
X131.06Y-38.29
X131.2Y-44.842
X131.29Y-59.175
X131.51Y-81.76
X131.62Y-95.45
X131.72Y-47.31
X131.78Y-60.752
X131.93Y-57.732
X131.963Y-117.282
X132.0Y-65.822
X132.0Y-66.822
X132.0Y-67.822
X132.0Y-68.822
X132.0Y-69.822
X132.04Y-64.115
X132.11Y-62.695
X132.16Y-78.66
X132.2Y-77.04
X132.21Y-70.98
X132.25Y-75.58
X132.382Y-73.42
X132.44Y-74.24
X132.46Y-54.722
X132.49Y-72.422
X132.59Y-97.72
X132.6Y-41.042
X132.675Y-52.947
X132.88Y-82.47
X133.0Y-65.822
X133.107Y-135.972
X133.18Y-49.7
X133.188Y-127.218
X133.197Y-125.127
X133.207Y-126.147
X133.275Y-62.597
X133.52Y-81.43
X133.65Y-64.165
X133.82Y-56.982
X133.92Y-94.32
X133.94Y-45.292
X133.95Y-59.997
X134.0Y-65.822
X134.4Y-43.042
X134.44Y-104.6
X134.46Y-98.67
X134.53Y-38.29
X134.6Y-137.81
X134.7Y-61.347
X134.71Y-40.75
X134.725Y-47.665
X134.725Y-54.322
X134.75Y-49.96
X134.75Y-51.24
X134.85Y-58.398
X134.99Y-66.653
X135.0Y-65.822
X135.0Y-67.562
X135.0Y-68.472
X135.07Y-71.082
X135.15Y-145.73
X135.19Y-95.94
X135.34Y-52.61
X135.43Y-77.53
X135.8Y-59.747
X135.9Y-63.922
X135.91Y-49.74
X135.92Y-79.945
X135.95Y-71.09
X136.0Y-68.522
X136.07Y-73.326
X136.09Y-132.488
X136.125Y-48.74
X136.162Y-106.962
X136.2Y-67.123
X136.252Y-97.68
X136.325Y-54.523
X136.35Y-56.755
X136.35Y-105.34
X136.46Y-61.962
X136.48Y-42.12
X136.56Y-65.582
X136.625Y-44.942
X136.662Y-124.022
X136.72Y-53.05
X136.775Y-119.285
X136.787Y-127.797
X136.82Y-77.53
X136.86Y-79.945
X136.92Y-38.11
X136.975Y-58.572
X136.98Y-46.78
X137.0Y-68.522
X137.157Y-117.557
X137.2Y-40.042
X137.27Y-49.72
X137.31Y-140.25
X137.5Y-67.322
X137.95Y-48.672
X138.0Y-68.522
X138.08Y-53.495
X138.09Y-63.682
X138.17Y-77.52
X138.262Y-140.223
X138.29Y-61.062
X138.3Y-66.532
X138.31Y-59.342
X138.61Y-40.71
X138.63Y-57.215
X138.65Y-42.88
X138.72Y-44.47
X138.76Y-82.76
X138.84Y-49.7
X138.9Y-38.27
X138.94Y-47.5
X138.94Y-64.793
X138.94Y-89.37
X139.12Y-52.83
X139.177Y-100.87
X139.177Y-104.26
X139.177Y-106.347
X139.177Y-107.157
X139.177Y-107.947
X139.225Y-109.435
X139.3Y-67.722
X139.32Y-79.8
X139.374Y-100.114
X139.51Y-46.222
X139.57Y-77.52
X139.588Y-127.047
X139.63Y-48.71
X139.65Y-62.482
X139.74Y-58.052
X139.85Y-53.57
X139.862Y-125.122
X139.88Y-82.74
X139.94Y-39.52
X140.03Y-66.242
X140.07Y-99.927
X140.18Y-60.883
X140.23Y-41.11
X140.24Y-49.66
X140.25Y-69.572
X140.26Y-44.5
X140.27Y-42.88
X140.35Y-55.822
X140.368Y-54.822
X140.53Y-59.322
X140.6Y-64.632
X140.61Y-79.81
X140.67Y-47.73
X140.77Y-38.27
X140.83Y-77.53
X140.877Y-110.447
X140.887Y-109.387
X140.97Y-46.42
X141.01Y-82.76
X141.08Y-52.83
X141.11Y-97.08
X141.2Y-62.822
X141.201Y-137.741
X141.22Y-95.83
X141.225Y-69.572
X141.28Y-89.27
X141.48Y-39.37
X141.512Y-131.898
X141.55Y-48.46
X141.57Y-44.97
X141.59Y-41.14
X141.59Y-44.11
X141.6Y-42.12
X141.6Y-43.12
X141.61Y-49.64
X141.612Y-114.438
X141.64Y-40.25
X141.688Y-130.438
X141.7Y-67.022
X141.787Y-104.797
X141.8Y-60.792
X141.8Y-65.623
X141.882Y-59.125
X141.92Y-67.962
X141.94Y-47.23
X141.95Y-53.52
X141.957Y-64.125
X142.0Y-79.79
X142.03Y-68.733
X142.15Y-82.72
X142.16Y-45.56
X142.2Y-61.922
X142.34Y-39.56
X142.47Y-70.932
X142.487Y-114.438
X142.548Y-73.106
X142.551Y-72.206
X142.63Y-74.392
X142.633Y-98.51
X142.733Y-138.607
X142.8Y-38.26
X142.82Y-46.59
X142.87Y-49.68
X142.95Y-53.87
X142.97Y-96.428
X142.97Y-47.61
X142.97Y-94.37
X143.07Y-45.58
X143.1Y-55.422
X143.1Y-56.222
X143.11Y-79.72
X143.21Y-57.525
X143.312Y-114.438
X143.362Y-106.647
X143.42Y-40.52
X143.43Y-82.71
X143.445Y-44.625
X143.445Y-89.385
X143.45Y-39.58
X143.487Y-123.647
X143.73Y-95.42
X143.81Y-52.53
X143.81Y-53.52
X143.89Y-46.72
X143.89Y-49.79
X143.92Y-110.415
X143.92Y-47.68
X143.97Y-51.65
X143.98Y-48.73
X143.987Y-111.097
X144.01Y-45.6
X144.02Y-50.73
X144.2Y-101.947
X144.38Y-38.46
X144.47Y-39.58
X144.48Y-79.72
X144.55Y-97.0
X144.607Y-93.54
X144.607Y-94.992
X144.625Y-75.947
X144.72Y-82.69
X144.735Y-58.01
X144.76Y-65.885
X144.78Y-64.925
X144.82Y-59.935
X144.82Y-60.935
X144.82Y-61.935
X144.82Y-62.935
X144.82Y-63.935
X144.875Y-91.985
X144.93Y-58.995
X145.34Y-39.54
X145.562Y-119.672
X145.68Y-51.42
X145.7Y-99.927
X145.737Y-140.177
X145.81Y-45.53
X145.88Y-52.48
X145.93Y-89.3
X145.96Y-53.45
X146.0Y-47.99
X146.0Y-48.99
X146.13Y-38.14
X146.25Y-39.54
X146.395Y-44.635
X146.4Y-40.5
X146.55Y-57.347
X146.55Y-58.398
X146.55Y-59.398
X146.55Y-60.397
X146.55Y-61.397
X146.55Y-62.397
X146.55Y-63.397
X146.55Y-64.397
X146.55Y-65.397
X146.588Y-105.197
X146.625Y-66.373
X146.69Y-45.55
X146.7Y-51.12
X146.722Y-46.917
X146.75Y-140.17
X146.812Y-114.347
X146.825Y-49.89
X146.93Y-53.79
X147.07Y-52.42
X147.12Y-68.76
X147.237Y-112.422
X147.25Y-39.55
X147.29Y-48.492
X147.36Y-67.84
X147.43Y-91.647
X147.468Y-139.357
X147.47Y-66.96
X147.55Y-45.54
X147.56Y-64.905
X147.65Y-61.415
X147.68Y-63.345
X147.74Y-82.54
X147.77Y-69.68
X147.77Y-77.56
X147.8Y-57.523
X147.8Y-59.922
X148.0Y-58.722
X148.025Y-53.515
X148.06Y-80.96
X148.08Y-79.24
X148.13Y-51.09
X148.14Y-41.6
X148.14Y-42.59
X148.14Y-44.56
X148.15Y-43.52
X148.17Y-38.2
X148.19Y-40.59
X148.22Y-39.67
X148.29Y-119.665
X148.338Y-97.547
X148.34Y-52.35
X148.37Y-76.225
X148.43Y-45.44
X148.52Y-48.982
X148.58Y-62.345
X148.67Y-65.47
X148.7Y-61.085
X148.7Y-64.395
X148.75Y-66.65
X148.787Y-107.405
X148.86Y-89.39
X149.28Y-142.78
X149.3Y-55.023
X149.325Y-56.523
X149.35Y-59.645
X149.39Y-69.76
X149.48Y-46.442
X149.5Y-41.24
X149.55Y-47.872
X149.57Y-43.12
X149.6Y-44.72
X149.612Y-110.172
X149.66Y-39.97
X149.737Y-91.797
X149.74Y-52.57
X149.8Y-57.845
X149.92Y-50.752
X149.963Y-102.867
X150.05Y-76.23
X150.118Y-93.7
X150.118Y-95.767
X150.25Y-79.45
X150.35Y-68.94
X150.37Y-82.79
X150.39Y-77.85
X150.4Y-49.39
X150.43Y-42.07
X150.45Y-74.588
X150.46Y-81.09
X150.52Y-59.665
X150.54Y-38.23
X150.61Y-55.14
X150.82Y-69.93
X150.89Y-44.56
X150.89Y-58.455
X151.05Y-51.65
X151.1Y-40.48
X151.127Y-136.308
X151.53Y-76.34
X151.8Y-50.19
X151.83Y-47.02
X151.88Y-52.88
X152.14Y-63.01
X152.17Y-61.59
X152.17Y-64.45
X152.18Y-66.15
X152.2Y-48.59
X152.21Y-60.37
X152.22Y-59.155
X152.22Y-82.57
X152.275Y-55.675
X152.31Y-67.49
X152.4Y-41.042
X152.4Y-43.042
X152.4Y-45.242
X152.42Y-69.91
X152.43Y-142.58
X152.51Y-68.64
X152.51Y-80.905
X152.61Y-77.7
X152.64Y-79.25
X152.677Y-102.825
X152.8Y-74.95
X152.91Y-38.65
X152.938Y-121.022
X152.96Y-53.54
X153.375Y-56.825
X153.76Y-51.49
X154.02Y-75.985
X154.2Y-47.59
X154.2Y-54.322
X154.4Y-49.99
X154.49Y-82.62
X154.575Y-57.95
X154.6Y-42.842
X154.6Y-55.922
X154.82Y-80.985
X154.9Y-79.245
X155.0Y-52.523
X155.0Y-77.475
X155.2Y-63.925
X155.25Y-62.375
X155.26Y-46.14
X155.3Y-69.615
X155.305Y-60.722
X155.317Y-114.442
X155.325Y-59.325
X155.335Y-68.252
X155.365Y-67.002
X155.38Y-65.37
X155.4Y-40.842
X155.61Y-38.05
X155.74Y-54.66
X155.922Y-133.282
X156.2Y-44.592
X156.315Y-68.912
X156.385Y-67.58
X156.4Y-48.44
X156.44Y-56.602
X156.51Y-146.66
X156.585Y-61.58
X156.585Y-64.38
X156.67Y-52.142
X156.785Y-58.38
X156.83Y-62.93
X156.88Y-60.08
X156.885Y-65.78
X157.0Y-54.523
X157.025Y-103.375
X157.36Y-71.225
X157.575Y-49.99
X157.875Y-42.192
X157.88Y-68.36
X158.02Y-53.43
X158.15Y-62.435
X158.19Y-39.73
X158.2Y-57.625
X158.21Y-70.005
X158.425Y-55.898
X158.57Y-60.815
X158.63Y-64.445
X158.63Y-66.985
X159.01Y-72.935
X159.14Y-44.01
X159.435Y-59.972
X159.47Y-48.433
X159.79Y-46.31
X159.955Y-58.548
X160.085Y-64.153
X160.15Y-38.17
X160.375Y-61.682
X160.48Y-74.455
X160.525Y-69.048
X160.525Y-94.35
X160.53Y-71.57
X160.55Y-82.49
X160.55Y-100.25
X160.765Y-65.598
X160.845Y-67.293
X160.95Y-78.165
X161.125Y-76.315
X161.19Y-40.37
X161.285Y-60.618
X161.325Y-80.14
X161.48Y-55.51
X161.71Y-47.09
X162.12Y-44.175
X162.18Y-72.59
X162.245Y-63.193
X162.56Y-56.89
X163.04Y-42.21
X163.07Y-74.68
X163.14Y-51.3
X163.42Y-46.25
X163.48Y-77.59
X163.515Y-47.958
X163.585Y-82.395
X163.805Y-66.968
X163.94Y-80.09
X164.125Y-70.538
X164.146Y-95.843
X164.21Y-94.312
X164.39Y-38.17
X164.41Y-56.24
X164.44Y-58.2
X164.44Y-59.93
X164.873Y-105.442
X164.89Y-40.65
X165.05Y-43.88
X165.102Y-90.623
X165.155Y-72.958
X165.438Y-109.562
X165.487Y-119.512
X165.487Y-129.512
X165.87Y-78.5
X165.94Y-55.2
X165.995Y-64.218
X166.25Y-75.935
X166.38Y-80.88
X166.41Y-56.66
X166.56Y-47.87
X166.705Y-66.878
X166.79Y-45.62
X166.798Y-106.692
X166.83Y-84.32
X166.977Y-89.522
X167.135Y-91.43
X167.225Y-62.348
X167.225Y-70.698
X167.34Y-51.25
X167.48Y-38.31
X167.48Y-42.91
X167.68Y-73.33
X167.75Y-53.51
X167.94Y-40.66
X168.395Y-63.998
X168.42Y-79.58
X168.45Y-82.25
X168.768Y-105.427
X168.84Y-75.445
X168.903Y-90.647
X168.918Y-106.537
X168.985Y-67.138
X169.015Y-60.388
X169.865Y-58.178
X170.0Y-41.643
X170.25Y-53.78
X170.25Y-77.98
X170.29Y-72.88
X170.48Y-98.5
X170.84Y-38.7
X170.882Y-89.483
X170.9Y-108.09
X171.025Y-56.768
X171.115Y-70.682
X171.44Y-80.3
X171.46Y-75.28
X172.17Y-55.12
X172.29Y-53.59
X172.48Y-73.465
X172.498Y-105.367
X172.648Y-106.542
X172.702Y-90.647
X172.725Y-67.238
X172.845Y-62.018
X172.91Y-82.32
X173.41Y-77.23
X173.435Y-64.758
X173.93Y-79.53
X174.165Y-53.578
X174.17Y-40.75
X174.24Y-38.66
X174.375Y-71.822
X174.45Y-109.55
X174.48Y-48.66
X174.482Y-99.822
X174.5Y-119.5
X174.5Y-129.5
X174.505Y-68.722
X174.642Y-89.492
X174.748Y-106.842
X174.802Y-102.447
X174.805Y-58.068
X175.455Y-65.972
X175.495Y-61.948
X175.83Y-84.25
X176.06Y-45.77
X176.25Y-76.46
X176.36Y-73.795
X176.395Y-55.307
X176.48Y-80.34
X176.49Y-43.22
X176.605Y-70.568
X176.86Y-82.3
X176.935Y-64.078
X177.145Y-59.948
X177.245Y-53.073
X177.45Y-40.63
X177.495Y-48.24
X178.96Y-71.545
X178.96Y-75.305
X179.08Y-44.04
X179.16Y-78.425
X179.18Y-80.5
X179.2Y-65.14
X179.23Y-68.295
X179.27Y-53.015
X179.27Y-56.885
X179.28Y-47.4
X179.32Y-82.28
X179.44Y-50.12
X179.56Y-61.24
T2
X143.0Y-103.177
X143.0Y-104.377
X143.0Y-105.578
X144.15Y-103.177
X144.2Y-104.377
X144.2Y-105.578
X145.0Y-71.972
X145.0Y-73.248
X145.4Y-103.177
X145.4Y-104.377
X145.4Y-105.578
X146.275Y-71.972
X146.275Y-73.248
T4
X127.58Y-141.81
X129.58Y-141.81
X135.8Y-86.7
X137.8Y-86.7
X139.8Y-86.7
X141.8Y-86.7
X143.8Y-86.7
X145.8Y-86.7
X147.8Y-86.7
X149.8Y-86.7
T5
X125.162Y-93.108
X125.162Y-95.647
X125.162Y-98.188
X125.162Y-100.727
X154.067Y-109.372
X156.607Y-109.372
X159.147Y-109.372
X161.688Y-109.372
T3
G00X137.588Y-141.767
M15
G01X137.588Y-142.868
M16
G05
G00X137.588Y-146.097
M15
G01X137.588Y-146.897
M16
G05
G00X146.227Y-141.767
M15
G01X146.227Y-142.868
M16
G05
G00X146.227Y-146.097
M15
G01X146.227Y-146.897
M16
G05
M30
