M48
; DRILL file {KiCad 8.0.7} date 2025-03-01T11:55:13-0500
; FORMAT={-:-/ absolute / metric / decimal}
; #@! TF.CreationDate,2025-03-01T11:55:13-05:00
; #@! TF.GenerationSoftware,Kicad,Pcbnew,8.0.7
; #@! TF.FileFunction,Plated,1,4,PTH
FMAT,2
METRIC
; #@! TA.AperFunction,Plated,PTH,ViaDrill
T1C0.300
; #@! TA.AperFunction,Plated,PTH,ComponentDrill
T2C0.300
; #@! TA.AperFunction,Plated,PTH,ComponentDrill
T3C0.600
; #@! TA.AperFunction,Plated,PTH,ComponentDrill
T4C0.750
; #@! TA.AperFunction,Plated,PTH,ComponentDrill
T5C1.000
%
G90
G05
T1
X117.225Y-82.8
X119.325Y-91.5
X119.325Y-97.55
X119.425Y-85.875
X122.175Y-62.4
X124.375Y-83.5
X127.925Y-115.65
X128.125Y-91.375
X128.175Y-97.525
X128.25Y-85.35
X128.355Y-100.905
X128.38Y-94.63
X128.382Y-88.642
X129.27Y-98.79
X129.475Y-80.275
X129.475Y-82.75
X129.55Y-72.775
X131.075Y-62.4
X131.3Y-97.31
X132.575Y-95.485
X133.72Y-114.175
X133.8Y-105.42
X133.81Y-103.33
X133.82Y-104.35
X134.45Y-116.475
X134.5Y-123.85
X136.41Y-72.075
X136.45Y-81.575
X136.625Y-83.625
X136.625Y-110.69
X136.775Y-85.165
X137.275Y-102.225
X137.387Y-97.487
X137.4Y-106.0
X137.625Y-83.8
X137.77Y-95.76
X138.874Y-118.426
X139.735Y-82.508
X139.79Y-84.55
X139.79Y-85.36
X139.79Y-86.15
X139.838Y-87.638
X140.2Y-105.25
X140.475Y-103.325
X140.55Y-75.25
X141.28Y-78.13
X141.49Y-88.65
X141.5Y-87.59
X141.8Y-116.275
X142.125Y-110.1
X142.225Y-92.64
X142.3Y-108.64
X142.4Y-83.0
X142.825Y-71.975
X143.1Y-92.64
X143.275Y-72.755
X143.32Y-73.7
X143.423Y-116.95
X143.55Y-67.725
X143.925Y-92.64
X143.975Y-84.85
X144.1Y-101.85
X144.425Y-74.95
X144.532Y-88.618
X144.6Y-89.3
X144.812Y-80.15
X145.275Y-73.25
X145.415Y-76.025
X145.487Y-70.188
X146.175Y-97.875
X146.35Y-118.38
X146.725Y-78.13
X147.2Y-83.4
X147.425Y-92.55
X147.725Y-67.6
X147.85Y-90.625
X148.08Y-117.56
X148.903Y-97.867
X148.95Y-75.75
X149.4Y-85.607
X149.873Y-76.948
X150.225Y-88.375
X150.35Y-70.0
X150.35Y-73.65
X150.575Y-81.07
X150.825Y-60.775
X151.325Y-75.4
X151.35Y-76.6
X151.625Y-119.25
X151.74Y-114.51
X153.325Y-80.45
X153.55Y-99.225
X155.33Y-69.35
X155.93Y-92.645
X156.52Y-69.1
X156.535Y-111.485
X156.625Y-82.6
X157.15Y-117.975
X157.15Y-120.775
X158.34Y-60.13
X160.175Y-70.175
X161.526Y-82.901
X162.95Y-70.475
X162.975Y-71.9
X163.925Y-81.175
X164.0Y-65.55
X164.89Y-60.2
X165.85Y-82.425
X165.875Y-64.45
X165.875Y-85.325
X165.907Y-92.042
X165.95Y-98.075
X166.032Y-66.358
X167.8Y-65.575
X167.82Y-81.16
X167.97Y-82.27
X169.397Y-73.927
X169.78Y-64.41
X169.975Y-83.225
X171.55Y-81.1
X171.6Y-65.575
X171.7Y-82.275
X173.38Y-74.75
X173.54Y-64.42
X173.7Y-77.375
X173.8Y-82.575
X174.775Y-92.025
X174.8Y-98.05
X174.925Y-85.35
T2
X143.612Y-81.38
X143.612Y-82.58
X143.612Y-83.78
X144.762Y-81.38
X144.812Y-82.58
X144.812Y-83.78
X146.012Y-81.38
X146.012Y-82.58
X146.012Y-83.78
T4
X128.925Y-120.225
X130.925Y-120.225
X137.85Y-37.76
X139.85Y-37.76
X141.85Y-37.76
X143.85Y-37.76
X145.85Y-37.76
X147.85Y-37.76
X149.85Y-37.76
X151.85Y-37.76
T5
X125.775Y-71.31
X125.775Y-73.85
X125.775Y-76.39
X125.775Y-78.93
X137.495Y-47.805
X137.495Y-50.345
X137.495Y-52.885
X137.495Y-55.425
X137.495Y-57.965
X137.495Y-60.505
X137.495Y-63.045
X137.495Y-65.585
X152.88Y-47.77
X152.88Y-50.31
X152.88Y-52.85
X152.88Y-55.39
X152.88Y-57.93
X152.88Y-60.47
X152.88Y-63.01
X152.88Y-65.55
X154.68Y-87.575
X157.22Y-87.575
X159.76Y-87.575
X162.3Y-87.575
T3
G00X138.2Y-119.97
M15
G01X138.2Y-121.07
M16
G05
G00X138.2Y-124.3
M15
G01X138.2Y-125.1
M16
G05
G00X146.84Y-119.97
M15
G01X146.84Y-121.07
M16
G05
G00X146.84Y-124.3
M15
G01X146.84Y-125.1
M16
G05
M30
