%TF.GenerationSoftware,KiCad,Pcbnew,8.0.7*%
%TF.CreationDate,2025-02-18T20:15:04-05:00*%
%TF.ProjectId,RP2350_V1,52503233-3530-45f5-9631-2e6b69636164,1.0*%
%TF.SameCoordinates,Original*%
%TF.FileFunction,Copper,L4,Bot*%
%TF.FilePolarity,Positive*%
%FSLAX46Y46*%
G04 Gerber Fmt 4.6, Leading zero omitted, Abs format (unit mm)*
G04 Created by KiCad (PCBNEW 8.0.7) date 2025-02-18 20:15:04*
%MOMM*%
%LPD*%
G01*
G04 APERTURE LIST*
G04 Aperture macros list*
%AMRoundRect*
0 Rectangle with rounded corners*
0 $1 Rounding radius*
0 $2 $3 $4 $5 $6 $7 $8 $9 X,Y pos of 4 corners*
0 Add a 4 corners polygon primitive as box body*
4,1,4,$2,$3,$4,$5,$6,$7,$8,$9,$2,$3,0*
0 Add four circle primitives for the rounded corners*
1,1,$1+$1,$2,$3*
1,1,$1+$1,$4,$5*
1,1,$1+$1,$6,$7*
1,1,$1+$1,$8,$9*
0 Add four rect primitives between the rounded corners*
20,1,$1+$1,$2,$3,$4,$5,0*
20,1,$1+$1,$4,$5,$6,$7,0*
20,1,$1+$1,$6,$7,$8,$9,0*
20,1,$1+$1,$8,$9,$2,$3,0*%
G04 Aperture macros list end*
%TA.AperFunction,ComponentPad*%
%ADD10R,1.700000X1.700000*%
%TD*%
%TA.AperFunction,ComponentPad*%
%ADD11O,1.700000X1.700000*%
%TD*%
%TA.AperFunction,ComponentPad*%
%ADD12O,1.000000X2.100000*%
%TD*%
%TA.AperFunction,ComponentPad*%
%ADD13O,1.000000X1.800000*%
%TD*%
%TA.AperFunction,ComponentPad*%
%ADD14RoundRect,0.250000X-0.350000X-0.625000X0.350000X-0.625000X0.350000X0.625000X-0.350000X0.625000X0*%
%TD*%
%TA.AperFunction,ComponentPad*%
%ADD15O,1.200000X1.750000*%
%TD*%
%TA.AperFunction,HeatsinkPad*%
%ADD16C,0.800000*%
%TD*%
%TA.AperFunction,ViaPad*%
%ADD17C,0.700000*%
%TD*%
%TA.AperFunction,Conductor*%
%ADD18C,0.300000*%
%TD*%
%TA.AperFunction,Conductor*%
%ADD19C,0.750000*%
%TD*%
%TA.AperFunction,Conductor*%
%ADD20C,0.500000*%
%TD*%
%TA.AperFunction,Conductor*%
%ADD21C,0.150000*%
%TD*%
%TA.AperFunction,Conductor*%
%ADD22C,0.250000*%
%TD*%
%TA.AperFunction,Conductor*%
%ADD23C,0.200000*%
%TD*%
G04 APERTURE END LIST*
D10*
%TO.P,J4,1,Pin_1*%
%TO.N,unconnected-(J4-Pin_1-Pad1)*%
X137495000Y-47805000D03*
D11*
%TO.P,J4,2,Pin_2*%
%TO.N,GND*%
X137495000Y-50345000D03*
%TO.P,J4,3,Pin_3*%
%TO.N,/CS{slash}NSS*%
X137495000Y-52885000D03*
%TO.P,J4,4,Pin_4*%
%TO.N,/SPI0_CLK*%
X137495000Y-55425000D03*
%TO.P,J4,5,Pin_5*%
%TO.N,/SPI0_TX*%
X137495000Y-57965000D03*
%TO.P,J4,6,Pin_6*%
%TO.N,/SPI0_RX*%
X137495000Y-60505000D03*
%TO.P,J4,7,Pin_7*%
%TO.N,/uC_RESET*%
X137495000Y-63045000D03*
%TO.P,J4,8,Pin_8*%
%TO.N,/uC_BUSY*%
X137495000Y-65585000D03*
%TD*%
D10*
%TO.P,J2,1,Pin_1*%
%TO.N,GND*%
X152880000Y-47770000D03*
D11*
%TO.P,J2,2,Pin_2*%
X152880000Y-50310000D03*
%TO.P,J2,3,Pin_3*%
%TO.N,unconnected-(J2-Pin_3-Pad3)*%
X152880000Y-52850000D03*
%TO.P,J2,4,Pin_4*%
%TO.N,unconnected-(J2-Pin_4-Pad4)*%
X152880000Y-55390000D03*
%TO.P,J2,5,Pin_5*%
%TO.N,unconnected-(J2-Pin_5-Pad5)*%
X152880000Y-57930000D03*
%TO.P,J2,6,Pin_6*%
%TO.N,/DIO1*%
X152880000Y-60470000D03*
%TO.P,J2,7,Pin_7*%
%TO.N,GND*%
X152880000Y-63010000D03*
%TO.P,J2,8,Pin_8*%
%TO.N,+3V3*%
X152880000Y-65550000D03*
%TD*%
D12*
%TO.P,J3,S1,SHIELD*%
%TO.N,unconnected-(J3-SHIELD-PadS1)_3*%
X138200000Y-120520000D03*
D13*
%TO.N,unconnected-(J3-SHIELD-PadS1)_1*%
X138200000Y-124700000D03*
D12*
%TO.N,unconnected-(J3-SHIELD-PadS1)_2*%
X146840000Y-120520000D03*
D13*
%TO.N,unconnected-(J3-SHIELD-PadS1)*%
X146840000Y-124700000D03*
%TD*%
D10*
%TO.P,J1,1,Pin_1*%
%TO.N,/SWCLK*%
X125775000Y-71310000D03*
D11*
%TO.P,J1,2,Pin_2*%
%TO.N,GND*%
X125775000Y-73850000D03*
%TO.P,J1,3,Pin_3*%
%TO.N,/SWD*%
X125775000Y-76390000D03*
%TO.P,J1,4,Pin_4*%
%TO.N,GND*%
X125775000Y-78930000D03*
%TD*%
D14*
%TO.P,J5,1,Pin_1*%
%TO.N,+3V3*%
X137850000Y-37760000D03*
D15*
%TO.P,J5,2,Pin_2*%
%TO.N,GND*%
X139850000Y-37760000D03*
%TO.P,J5,3,Pin_3*%
%TO.N,/SPI1_TX*%
X141850000Y-37760000D03*
%TO.P,J5,4,Pin_4*%
%TO.N,/SPI1_CLK*%
X143850000Y-37760000D03*
%TO.P,J5,5,Pin_5*%
%TO.N,/SPI1_CS*%
X145850000Y-37760000D03*
%TO.P,J5,6,Pin_6*%
%TO.N,/DISPLAY_DC*%
X147850000Y-37760000D03*
%TO.P,J5,7,Pin_7*%
%TO.N,/DISPLAY_RESET*%
X149850000Y-37760000D03*
%TO.P,J5,8,Pin_8*%
%TO.N,/DISPLAY_BUSY*%
X151850000Y-37760000D03*
%TD*%
%TO.P,J6,2,Pin_2*%
%TO.N,/VBAT*%
X130925000Y-120225000D03*
D14*
%TO.P,J6,1,Pin_1*%
%TO.N,GND*%
X128925000Y-120225000D03*
%TD*%
D10*
%TO.P,J7,1,Pin_1*%
%TO.N,/UART_Tx_DEBUG*%
X153770000Y-87120000D03*
D11*
%TO.P,J7,2,Pin_2*%
%TO.N,GND*%
X156310000Y-87120000D03*
%TO.P,J7,3,Pin_3*%
%TO.N,/UART_Rx_DEBUG*%
X158850000Y-87120000D03*
%TO.P,J7,4,Pin_4*%
%TO.N,GND*%
X161390000Y-87120000D03*
%TD*%
D16*
%TO.P,U1,61,GND*%
%TO.N,GND*%
X146012500Y-83780000D03*
X146012500Y-82580000D03*
X146012500Y-81380000D03*
X144812500Y-83780000D03*
X144812500Y-82580000D03*
X144762500Y-81380000D03*
X143612500Y-83780000D03*
X143612500Y-82580000D03*
X143612500Y-81380000D03*
%TD*%
D17*
%TO.N,GND*%
X137990000Y-82300000D03*
X148902800Y-97867324D03*
X137275000Y-102225000D03*
X152853058Y-81043058D03*
X156535000Y-111485000D03*
X167820000Y-81160000D03*
X119440000Y-91550000D03*
X141490000Y-88650000D03*
X173380000Y-74750000D03*
X141125000Y-115920000D03*
X157150000Y-120775000D03*
X142300000Y-108640200D03*
X148080000Y-117560000D03*
X127925000Y-115650000D03*
X133800000Y-105420000D03*
X137400000Y-106000000D03*
X137990000Y-83290000D03*
X131075000Y-62400000D03*
X137387500Y-97487500D03*
X141500000Y-87590000D03*
X131300000Y-97310000D03*
X128130000Y-97610000D03*
X128122500Y-85647500D03*
X155930000Y-92645000D03*
X164000000Y-65550000D03*
X133810000Y-103330000D03*
X153100000Y-83575000D03*
X167800000Y-65575000D03*
X146350000Y-118380000D03*
X164200000Y-98010000D03*
X147925000Y-92875000D03*
X119420000Y-97710000D03*
X172980000Y-85950000D03*
X158340000Y-60130000D03*
X150390000Y-87570000D03*
X142750000Y-70000000D03*
X129270000Y-98790000D03*
X133720000Y-114175000D03*
X135590000Y-118820000D03*
X139837500Y-87637500D03*
X147490000Y-76570000D03*
X122175000Y-62400000D03*
X165410000Y-84640000D03*
X119440000Y-85450000D03*
X146175000Y-97875000D03*
X172960000Y-91980000D03*
X143422746Y-116949999D03*
X164132615Y-92075698D03*
X162950000Y-70475000D03*
X157150000Y-117975000D03*
X171600000Y-65575000D03*
X137770000Y-95760000D03*
X136625000Y-110690200D03*
X128070000Y-91550000D03*
X138874314Y-118425686D03*
X171550000Y-81100000D03*
X144375000Y-75690000D03*
X136775000Y-85165000D03*
X145570000Y-72060000D03*
X133820000Y-104350000D03*
X164890000Y-60200000D03*
X163925000Y-81175000D03*
X172980000Y-97890000D03*
%TO.N,+3V3*%
X149400000Y-85607200D03*
X139790000Y-84550000D03*
X171700000Y-82275000D03*
X148300000Y-71880000D03*
X141280000Y-78130000D03*
X173540000Y-64420000D03*
X167970000Y-82270000D03*
X169780000Y-64410000D03*
X139790000Y-85360000D03*
X144100000Y-101850000D03*
X165850000Y-82425000D03*
X165875000Y-64450000D03*
X146925000Y-69875000D03*
X153550000Y-99225000D03*
X146390000Y-78130000D03*
X173700000Y-77375000D03*
X139790000Y-86150000D03*
%TO.N,+1V1*%
X144532322Y-88617678D03*
X144600000Y-89300000D03*
X144240000Y-84850000D03*
%TO.N,/VBAT*%
X151625000Y-119250000D03*
%TO.N,/SWD*%
X143275000Y-74409534D03*
%TO.N,/SWCLK*%
X143450000Y-73400000D03*
%TO.N,/DIO1*%
X136410000Y-72075000D03*
X150825000Y-60775000D03*
%TO.N,/DISPLAY_RESET*%
X149450000Y-77100000D03*
X156520000Y-69100000D03*
%TO.N,/DISPLAY_BUSY*%
X148775000Y-76400000D03*
X155330000Y-69350000D03*
%TO.N,/RUN*%
X129550000Y-72775000D03*
X143334825Y-72507397D03*
%TO.N,/~{USB_BOOT}*%
X160175000Y-70175000D03*
X160525000Y-83850000D03*
%TO.N,Net-(R20-Pad2)*%
X128382500Y-88642500D03*
X166032500Y-66357500D03*
%TO.N,Net-(R23-Pad2)*%
X128380000Y-94630000D03*
X169975000Y-83225000D03*
%TO.N,Net-(R24-Pad2)*%
X128355000Y-100905000D03*
X173800000Y-82575000D03*
%TO.N,/BTN_MACRO_C*%
X169397500Y-73927500D03*
X162975000Y-71900000D03*
%TO.N,/Converter_In*%
X140200000Y-105250000D03*
X140475000Y-103325000D03*
%TO.N,/UVLO_RST*%
X132575000Y-95485000D03*
X151740000Y-114510000D03*
%TD*%
D18*
%TO.N,/VBAT*%
X130990000Y-120240000D02*
X130990000Y-120290000D01*
X130990000Y-120290000D02*
X133280000Y-122580000D01*
X133280000Y-122580000D02*
X148295000Y-122580000D01*
X148295000Y-122580000D02*
X151625000Y-119250000D01*
D19*
%TO.N,+3V3*%
X141280000Y-78130000D02*
X146390000Y-78130000D01*
X139790000Y-86150000D02*
X139790000Y-78130000D01*
X149400000Y-78200000D02*
X149330000Y-78130000D01*
X149330000Y-78130000D02*
X146390000Y-78130000D01*
D18*
X145925000Y-100025000D02*
X152750000Y-100025000D01*
D19*
X149400000Y-85607200D02*
X149400000Y-78200000D01*
D18*
X152750000Y-100025000D02*
X153550000Y-99225000D01*
D19*
X139790000Y-78130000D02*
X141280000Y-78130000D01*
D18*
X144100000Y-101850000D02*
X145925000Y-100025000D01*
D20*
%TO.N,+1V1*%
X144600000Y-89300000D02*
X144600000Y-89325000D01*
X144550000Y-88600000D02*
X144550000Y-85160000D01*
X144532322Y-89232322D02*
X144600000Y-89300000D01*
X144532322Y-88617678D02*
X144550000Y-88600000D01*
X144550000Y-85160000D02*
X144240000Y-84850000D01*
X144532322Y-88617678D02*
X144532322Y-89232322D01*
D18*
%TO.N,/SWD*%
X143275000Y-74409534D02*
X141294534Y-76390000D01*
X141294534Y-76390000D02*
X125775000Y-76390000D01*
%TO.N,/SWCLK*%
X143450000Y-73400000D02*
X143170000Y-73680000D01*
X143170000Y-73680000D02*
X128145000Y-73680000D01*
X128145000Y-73680000D02*
X125775000Y-71310000D01*
%TO.N,/DIO1*%
X138570000Y-69910000D02*
X136410000Y-72070000D01*
X150875000Y-60725000D02*
X150825000Y-60775000D01*
X141690000Y-69910000D02*
X138570000Y-69910000D01*
X150825000Y-60775000D02*
X141690000Y-69910000D01*
%TO.N,/DISPLAY_RESET*%
X156520000Y-71450000D02*
X156520000Y-69170000D01*
X149450000Y-77100000D02*
X150870000Y-77100000D01*
X150870000Y-77100000D02*
X156520000Y-71450000D01*
%TO.N,/DISPLAY_BUSY*%
X148775000Y-76400000D02*
X149740000Y-76400000D01*
X149740000Y-76400000D02*
X155330000Y-70810000D01*
X155330000Y-70810000D02*
X155330000Y-69350000D01*
X155330000Y-69350000D02*
X155330000Y-69280000D01*
D21*
%TO.N,/RUN*%
X142942222Y-72900000D02*
X129575000Y-72900000D01*
X143334825Y-72507397D02*
X142942222Y-72900000D01*
D22*
%TO.N,/~{USB_BOOT}*%
X160125000Y-70125000D02*
X160175000Y-70175000D01*
X160175000Y-70175000D02*
X160525000Y-70525000D01*
X160525000Y-70525000D02*
X160525000Y-83850000D01*
D23*
%TO.N,Net-(R20-Pad2)*%
X162300000Y-72144239D02*
X162300000Y-70090000D01*
X163180000Y-73024239D02*
X162300000Y-72144239D01*
X162240000Y-89950000D02*
X163180000Y-89010000D01*
X128360000Y-88620000D02*
X128382500Y-88642500D01*
X162300000Y-70090000D02*
X166032500Y-66357500D01*
X166032500Y-66357500D02*
X166120000Y-66270000D01*
X128382500Y-88642500D02*
X129690000Y-89950000D01*
X129690000Y-89950000D02*
X162240000Y-89950000D01*
X163180000Y-89010000D02*
X163180000Y-73024239D01*
%TO.N,Net-(R23-Pad2)*%
X159310000Y-93890000D02*
X129120000Y-93890000D01*
X169975000Y-83225000D02*
X159310000Y-93890000D01*
X169980000Y-83220000D02*
X169975000Y-83225000D01*
X129120000Y-93890000D02*
X128380000Y-94630000D01*
X128380000Y-94630000D02*
X128360000Y-94650000D01*
%TO.N,Net-(R24-Pad2)*%
X131925000Y-94750000D02*
X128430000Y-98245000D01*
X173800000Y-82575000D02*
X172500000Y-83875000D01*
X172500000Y-83875000D02*
X170700000Y-83875000D01*
X128430000Y-98245000D02*
X128430000Y-100830000D01*
X159825000Y-94750000D02*
X131925000Y-94750000D01*
X170700000Y-83875000D02*
X159825000Y-94750000D01*
D21*
%TO.N,/BTN_MACRO_C*%
X163590000Y-72515000D02*
X167985000Y-72515000D01*
X162975000Y-71900000D02*
X163590000Y-72515000D01*
X167985000Y-72515000D02*
X169397500Y-73927500D01*
X169397500Y-73927500D02*
X169420000Y-73950000D01*
D22*
%TO.N,/Converter_In*%
X140550000Y-103250000D02*
X140600000Y-103200000D01*
X140200000Y-105250000D02*
X140200000Y-103600000D01*
X140200000Y-105300000D02*
X140200000Y-105250000D01*
X140200000Y-103600000D02*
X140550000Y-103250000D01*
%TO.N,/UVLO_RST*%
X150600000Y-111850000D02*
X150600000Y-113370000D01*
X151740000Y-114510000D02*
X151850000Y-114620000D01*
X132560000Y-95485000D02*
X132575000Y-95485000D01*
X134235000Y-95485000D02*
X150600000Y-111850000D01*
X132525000Y-95450000D02*
X132560000Y-95485000D01*
X132575000Y-95485000D02*
X134235000Y-95485000D01*
X150600000Y-113370000D02*
X151740000Y-114510000D01*
%TD*%
%TA.AperFunction,Conductor*%
%TO.N,+3V3*%
G36*
X167290759Y-78711087D02*
G01*
X167290758Y-78711087D01*
X167175000Y-78849999D01*
X167175000Y-78850000D01*
X167175000Y-81275000D01*
X167424804Y-81549784D01*
X167426619Y-81551942D01*
X167429276Y-81554704D01*
X167675000Y-81825000D01*
X168300000Y-81825000D01*
X168250000Y-82925000D01*
X167925000Y-82925000D01*
X165804547Y-82925000D01*
X165746356Y-82906093D01*
X165744664Y-82904835D01*
X165514117Y-82729713D01*
X165479215Y-82679459D01*
X165475000Y-82650878D01*
X165475000Y-80699978D01*
X165450008Y-78700639D01*
X165450004Y-78700000D01*
X167300000Y-78700000D01*
X167290759Y-78711087D01*
G37*
%TD.AperFunction*%
%TD*%
%TA.AperFunction,Conductor*%
%TO.N,+3V3*%
G36*
X162850417Y-63325003D02*
G01*
X174434492Y-63424651D01*
X174492517Y-63444058D01*
X174503643Y-63453643D01*
X175421082Y-64371082D01*
X175448859Y-64425599D01*
X175450078Y-64440895D01*
X175474907Y-77327192D01*
X175456112Y-77385419D01*
X175437615Y-77404798D01*
X173777341Y-78728206D01*
X173720052Y-78749692D01*
X173715037Y-78749789D01*
X171199144Y-78734633D01*
X171225000Y-78700000D01*
X169300000Y-78700000D01*
X169318122Y-78723299D01*
X167290760Y-78711087D01*
X167300000Y-78700000D01*
X165450003Y-78700000D01*
X165450000Y-78699403D01*
X165450000Y-78039148D01*
X165468907Y-77980957D01*
X165476769Y-77971445D01*
X165795666Y-77631290D01*
X165849259Y-77601769D01*
X165867890Y-77600000D01*
X172775000Y-77600000D01*
X173850000Y-76550000D01*
X173846679Y-75078935D01*
X173858730Y-75033767D01*
X173858378Y-75033621D01*
X173859478Y-75030964D01*
X173859948Y-75029204D01*
X173860851Y-75027637D01*
X173860861Y-75027625D01*
X173916330Y-74893709D01*
X173935250Y-74750000D01*
X173916330Y-74606291D01*
X173860861Y-74472375D01*
X173860859Y-74472372D01*
X173858451Y-74468200D01*
X173845189Y-74418926D01*
X173831433Y-68325000D01*
X173825000Y-65475000D01*
X173724225Y-65406290D01*
X173275000Y-65100000D01*
X171902339Y-65096329D01*
X171864719Y-65088793D01*
X171743709Y-65038670D01*
X171743708Y-65038669D01*
X171600000Y-65019750D01*
X171456291Y-65038669D01*
X171456290Y-65038670D01*
X171339163Y-65087185D01*
X171301013Y-65094721D01*
X168077650Y-65086103D01*
X168040030Y-65078567D01*
X168033924Y-65076038D01*
X168015731Y-65068502D01*
X167943713Y-65038671D01*
X167943705Y-65038669D01*
X167800000Y-65019750D01*
X167656293Y-65038669D01*
X167563533Y-65077090D01*
X167525384Y-65084625D01*
X164313709Y-65076038D01*
X164276089Y-65068502D01*
X164143709Y-65013670D01*
X164143708Y-65013669D01*
X164000000Y-64994750D01*
X163856291Y-65013669D01*
X163856290Y-65013670D01*
X163722378Y-65069137D01*
X163722374Y-65069139D01*
X163607381Y-65157377D01*
X163607377Y-65157381D01*
X163519139Y-65272374D01*
X163519137Y-65272378D01*
X163463670Y-65406290D01*
X163463669Y-65406291D01*
X163454624Y-65475000D01*
X163444750Y-65550000D01*
X163448041Y-65575000D01*
X163449153Y-65583442D01*
X163450000Y-65596365D01*
X163450000Y-66897017D01*
X163431093Y-66955208D01*
X163405915Y-66979390D01*
X162274782Y-67733478D01*
X162220213Y-67750104D01*
X155100001Y-67774999D01*
X155100000Y-67774999D01*
X154807341Y-68090168D01*
X154800000Y-65300000D01*
X154200000Y-64498077D01*
X155245795Y-63381189D01*
X155299368Y-63351637D01*
X155317721Y-63349859D01*
X162849567Y-63325001D01*
X162850417Y-63325003D01*
G37*
%TD.AperFunction*%
%TD*%
%TA.AperFunction,Conductor*%
%TO.N,+3V3*%
G36*
X171199144Y-78734632D02*
G01*
X171199143Y-78734633D01*
X171057026Y-78924998D01*
X171057026Y-78925000D01*
X171053111Y-80841581D01*
X171045575Y-80879264D01*
X171013670Y-80956290D01*
X171013669Y-80956291D01*
X170994750Y-81099999D01*
X170994750Y-81100000D01*
X171013669Y-81243708D01*
X171013670Y-81243709D01*
X171069139Y-81377625D01*
X171157379Y-81492621D01*
X171272375Y-81580861D01*
X171286284Y-81586622D01*
X171328958Y-81620542D01*
X171350000Y-81650000D01*
X171503634Y-81650000D01*
X171516556Y-81650847D01*
X171550000Y-81655250D01*
X171583444Y-81650847D01*
X171596366Y-81650000D01*
X171739157Y-81650000D01*
X171797348Y-81668907D01*
X171802535Y-81672946D01*
X172039378Y-81870315D01*
X172071977Y-81922093D01*
X172075000Y-81946369D01*
X172075000Y-82713815D01*
X172056093Y-82772006D01*
X172020274Y-82802363D01*
X171745904Y-82939548D01*
X171701630Y-82950000D01*
X170506697Y-82950000D01*
X170448506Y-82931093D01*
X170428155Y-82911268D01*
X170425786Y-82908180D01*
X170367621Y-82832379D01*
X170252625Y-82744139D01*
X170252621Y-82744137D01*
X170118709Y-82688670D01*
X170118708Y-82688669D01*
X169975000Y-82669750D01*
X169831291Y-82688669D01*
X169831290Y-82688670D01*
X169697378Y-82744137D01*
X169697374Y-82744139D01*
X169582381Y-82832377D01*
X169582373Y-82832385D01*
X169523688Y-82908864D01*
X169473263Y-82943519D01*
X169443274Y-82947578D01*
X168250015Y-82925000D01*
X168250000Y-82925000D01*
X168300000Y-81825000D01*
X169175000Y-81825000D01*
X169475000Y-81425000D01*
X169475000Y-78925000D01*
X169318122Y-78723300D01*
X169318123Y-78723300D01*
X169318122Y-78723299D01*
X169300000Y-78700000D01*
X171225000Y-78700000D01*
X171199144Y-78734632D01*
G37*
%TD.AperFunction*%
%TD*%
%TA.AperFunction,Conductor*%
%TO.N,+3V3*%
G36*
X154800000Y-65300000D02*
G01*
X154807340Y-68090167D01*
X154807340Y-68090169D01*
X154810107Y-69141615D01*
X154800670Y-69189389D01*
X154793671Y-69206286D01*
X154793670Y-69206291D01*
X154774750Y-69349999D01*
X154774750Y-69350000D01*
X154793670Y-69493710D01*
X154801771Y-69513268D01*
X154811209Y-69560393D01*
X154813956Y-70603904D01*
X154794448Y-70670995D01*
X154770954Y-70698120D01*
X149233725Y-75475002D01*
X148976338Y-75808953D01*
X148919822Y-75850035D01*
X148861939Y-75856195D01*
X148775002Y-75844750D01*
X148774999Y-75844750D01*
X148631291Y-75863670D01*
X148631287Y-75863671D01*
X148497377Y-75919137D01*
X148382379Y-76007379D01*
X148294137Y-76122377D01*
X148238671Y-76256287D01*
X148238670Y-76256291D01*
X148230878Y-76315472D01*
X148202610Y-76379368D01*
X148144285Y-76417839D01*
X148074421Y-76418669D01*
X148015198Y-76381596D01*
X147993379Y-76346739D01*
X147970861Y-76292375D01*
X147882621Y-76177379D01*
X147767625Y-76089139D01*
X147767624Y-76089138D01*
X147767622Y-76089137D01*
X147633712Y-76033671D01*
X147633710Y-76033670D01*
X147633709Y-76033670D01*
X147561854Y-76024210D01*
X147490001Y-76014750D01*
X147489999Y-76014750D01*
X147346291Y-76033670D01*
X147346287Y-76033671D01*
X147212377Y-76089137D01*
X147097379Y-76177379D01*
X147009137Y-76292377D01*
X146953671Y-76426287D01*
X146953670Y-76426291D01*
X146934750Y-76569999D01*
X146934750Y-76570000D01*
X146953670Y-76713708D01*
X146953671Y-76713712D01*
X147009137Y-76847622D01*
X147009138Y-76847624D01*
X147009139Y-76847625D01*
X147097379Y-76962621D01*
X147212375Y-77050861D01*
X147346291Y-77106330D01*
X147473280Y-77123048D01*
X147489999Y-77125250D01*
X147490000Y-77125250D01*
X147490001Y-77125250D01*
X147504977Y-77123278D01*
X147633709Y-77106330D01*
X147767625Y-77050861D01*
X147882621Y-76962621D01*
X147970861Y-76847625D01*
X148026330Y-76713709D01*
X148034121Y-76654527D01*
X148062387Y-76590632D01*
X148120712Y-76552161D01*
X148190576Y-76551330D01*
X148249800Y-76588402D01*
X148271621Y-76623262D01*
X148294139Y-76677625D01*
X148382379Y-76792621D01*
X148497375Y-76880861D01*
X148559797Y-76906716D01*
X148614199Y-76950556D01*
X148636265Y-77016850D01*
X148636340Y-77022229D01*
X148625944Y-78376952D01*
X148605746Y-78443838D01*
X148552592Y-78489186D01*
X148501948Y-78500000D01*
X145069697Y-78500000D01*
X145002658Y-78480315D01*
X144956903Y-78427511D01*
X144945702Y-78374931D01*
X144957363Y-77022229D01*
X144966511Y-75961054D01*
X144975127Y-75932617D01*
X144974998Y-75906298D01*
X144975000Y-75906298D01*
X144958566Y-72533350D01*
X144977924Y-72466219D01*
X145030505Y-72420207D01*
X145099614Y-72409927D01*
X145163310Y-72438642D01*
X145171361Y-72447144D01*
X145171632Y-72446874D01*
X145177374Y-72452616D01*
X145177376Y-72452618D01*
X145177379Y-72452621D01*
X145292375Y-72540861D01*
X145426291Y-72596330D01*
X145553280Y-72613048D01*
X145569999Y-72615250D01*
X145570000Y-72615250D01*
X145570001Y-72615250D01*
X145584977Y-72613278D01*
X145713709Y-72596330D01*
X145847625Y-72540861D01*
X145962621Y-72452621D01*
X146050861Y-72337625D01*
X146106330Y-72203709D01*
X146125250Y-72060000D01*
X146106330Y-71916291D01*
X146050861Y-71782375D01*
X145962621Y-71667379D01*
X145847625Y-71579139D01*
X145847624Y-71579138D01*
X145847622Y-71579137D01*
X145713712Y-71523671D01*
X145713710Y-71523670D01*
X145713709Y-71523670D01*
X145641854Y-71514210D01*
X145570001Y-71504750D01*
X145569999Y-71504750D01*
X145426291Y-71523670D01*
X145426287Y-71523671D01*
X145292377Y-71579137D01*
X145177374Y-71667383D01*
X145176358Y-71668708D01*
X145175216Y-71669541D01*
X145171632Y-71673126D01*
X145171072Y-71672566D01*
X145119928Y-71709907D01*
X145050181Y-71714057D01*
X144989263Y-71679840D01*
X144956515Y-71618121D01*
X144953989Y-71593819D01*
X144953917Y-71579137D01*
X144950171Y-70810137D01*
X144968289Y-70744995D01*
X148738195Y-64560378D01*
X148789896Y-64513381D01*
X148845704Y-64500930D01*
X150675000Y-64525000D01*
X150675003Y-64524999D01*
X150675005Y-64525000D01*
X150757663Y-64524368D01*
X151716090Y-64517048D01*
X151783277Y-64536220D01*
X151829434Y-64588673D01*
X151839905Y-64657753D01*
X151818611Y-64712167D01*
X151706400Y-64872420D01*
X151706399Y-64872422D01*
X151606570Y-65086507D01*
X151606567Y-65086513D01*
X151549364Y-65299999D01*
X151549364Y-65300000D01*
X152446988Y-65300000D01*
X152414075Y-65357007D01*
X152380000Y-65484174D01*
X152380000Y-65615826D01*
X152414075Y-65742993D01*
X152446988Y-65800000D01*
X151549364Y-65800000D01*
X151606567Y-66013486D01*
X151606570Y-66013492D01*
X151706399Y-66227578D01*
X151841894Y-66421082D01*
X152008917Y-66588105D01*
X152202421Y-66723600D01*
X152416507Y-66823429D01*
X152416516Y-66823433D01*
X152630000Y-66880634D01*
X152630000Y-65983012D01*
X152687007Y-66015925D01*
X152814174Y-66050000D01*
X152945826Y-66050000D01*
X153072993Y-66015925D01*
X153130000Y-65983012D01*
X153130000Y-66880633D01*
X153343483Y-66823433D01*
X153343492Y-66823429D01*
X153557578Y-66723600D01*
X153751082Y-66588105D01*
X153918105Y-66421082D01*
X154053600Y-66227578D01*
X154153429Y-66013492D01*
X154153432Y-66013486D01*
X154210636Y-65800000D01*
X153313012Y-65800000D01*
X153345925Y-65742993D01*
X153380000Y-65615826D01*
X153380000Y-65484174D01*
X153345925Y-65357007D01*
X153313012Y-65300000D01*
X154210636Y-65300000D01*
X154210635Y-65299999D01*
X154153432Y-65086513D01*
X154153429Y-65086507D01*
X154053600Y-64872422D01*
X154053599Y-64872420D01*
X153929016Y-64694497D01*
X153906689Y-64628291D01*
X153923699Y-64560524D01*
X153974647Y-64512711D01*
X154029643Y-64499378D01*
X154200000Y-64498077D01*
X154800000Y-65300000D01*
G37*
%TD.AperFunction*%
%TD*%
M02*
