%TF.GenerationSoftware,KiCad,Pcbnew,8.0.7*%
%TF.CreationDate,2025-02-19T12:10:22-05:00*%
%TF.ProjectId,RP2350_V1,52503233-3530-45f5-9631-2e6b69636164,1.0*%
%TF.SameCoordinates,Original*%
%TF.FileFunction,Copper,L1,Top*%
%TF.FilePolarity,Positive*%
%FSLAX46Y46*%
G04 Gerber Fmt 4.6, Leading zero omitted, Abs format (unit mm)*
G04 Created by KiCad (PCBNEW 8.0.7) date 2025-02-19 12:10:22*
%MOMM*%
%LPD*%
G01*
G04 APERTURE LIST*
G04 Aperture macros list*
%AMRoundRect*
0 Rectangle with rounded corners*
0 $1 Rounding radius*
0 $2 $3 $4 $5 $6 $7 $8 $9 X,Y pos of 4 corners*
0 Add a 4 corners polygon primitive as box body*
4,1,4,$2,$3,$4,$5,$6,$7,$8,$9,$2,$3,0*
0 Add four circle primitives for the rounded corners*
1,1,$1+$1,$2,$3*
1,1,$1+$1,$4,$5*
1,1,$1+$1,$6,$7*
1,1,$1+$1,$8,$9*
0 Add four rect primitives between the rounded corners*
20,1,$1+$1,$2,$3,$4,$5,0*
20,1,$1+$1,$4,$5,$6,$7,0*
20,1,$1+$1,$6,$7,$8,$9,0*
20,1,$1+$1,$8,$9,$2,$3,0*%
%AMFreePoly0*
4,1,18,-0.437500,0.050000,-0.433694,0.069134,-0.422855,0.085355,-0.406634,0.096194,-0.387500,0.100000,0.387500,0.100000,0.437500,0.050000,0.437500,-0.050000,0.433694,-0.069134,0.422855,-0.085355,0.406634,-0.096194,0.387500,-0.100000,-0.387500,-0.100000,-0.406634,-0.096194,-0.422855,-0.085355,-0.433694,-0.069134,-0.437500,-0.050000,-0.437500,0.050000,-0.437500,0.050000,$1*%
%AMFreePoly1*
4,1,18,-0.437500,0.050000,-0.433694,0.069134,-0.422855,0.085355,-0.406634,0.096194,-0.387500,0.100000,0.387500,0.100000,0.406634,0.096194,0.422855,0.085355,0.433694,0.069134,0.437500,0.050000,0.437500,-0.050000,0.387500,-0.100000,-0.387500,-0.100000,-0.406634,-0.096194,-0.422855,-0.085355,-0.433694,-0.069134,-0.437500,-0.050000,-0.437500,0.050000,-0.437500,0.050000,$1*%
%AMFreePoly2*
4,1,18,-0.100000,0.387500,-0.050000,0.437500,0.050000,0.437500,0.069134,0.433694,0.085355,0.422855,0.096194,0.406634,0.100000,0.387500,0.100000,-0.387500,0.096194,-0.406634,0.085355,-0.422855,0.069134,-0.433694,0.050000,-0.437500,-0.050000,-0.437500,-0.069134,-0.433694,-0.085355,-0.422855,-0.096194,-0.406634,-0.100000,-0.387500,-0.100000,0.387500,-0.100000,0.387500,$1*%
%AMFreePoly3*
4,1,18,-0.100000,0.387500,-0.096194,0.406634,-0.085355,0.422855,-0.069134,0.433694,-0.050000,0.437500,0.050000,0.437500,0.100000,0.387500,0.100000,-0.387500,0.096194,-0.406634,0.085355,-0.422855,0.069134,-0.433694,0.050000,-0.437500,-0.050000,-0.437500,-0.069134,-0.433694,-0.085355,-0.422855,-0.096194,-0.406634,-0.100000,-0.387500,-0.100000,0.387500,-0.100000,0.387500,$1*%
%AMFreePoly4*
4,1,18,-0.437500,0.050000,-0.433694,0.069134,-0.422855,0.085355,-0.406634,0.096194,-0.387500,0.100000,0.387500,0.100000,0.406634,0.096194,0.422855,0.085355,0.433694,0.069134,0.437500,0.050000,0.437500,-0.050000,0.433694,-0.069134,0.422855,-0.085355,0.406634,-0.096194,0.387500,-0.100000,-0.387500,-0.100000,-0.437500,-0.050000,-0.437500,0.050000,-0.437500,0.050000,$1*%
%AMFreePoly5*
4,1,18,-0.437500,0.050000,-0.387500,0.100000,0.387500,0.100000,0.406634,0.096194,0.422855,0.085355,0.433694,0.069134,0.437500,0.050000,0.437500,-0.050000,0.433694,-0.069134,0.422855,-0.085355,0.406634,-0.096194,0.387500,-0.100000,-0.387500,-0.100000,-0.406634,-0.096194,-0.422855,-0.085355,-0.433694,-0.069134,-0.437500,-0.050000,-0.437500,0.050000,-0.437500,0.050000,$1*%
%AMFreePoly6*
4,1,18,-0.100000,0.387500,-0.096194,0.406634,-0.085355,0.422855,-0.069134,0.433694,-0.050000,0.437500,0.050000,0.437500,0.069134,0.433694,0.085355,0.422855,0.096194,0.406634,0.100000,0.387500,0.100000,-0.387500,0.050000,-0.437500,-0.050000,-0.437500,-0.069134,-0.433694,-0.085355,-0.422855,-0.096194,-0.406634,-0.100000,-0.387500,-0.100000,0.387500,-0.100000,0.387500,$1*%
%AMFreePoly7*
4,1,18,-0.100000,0.387500,-0.096194,0.406634,-0.085355,0.422855,-0.069134,0.433694,-0.050000,0.437500,0.050000,0.437500,0.069134,0.433694,0.085355,0.422855,0.096194,0.406634,0.100000,0.387500,0.100000,-0.387500,0.096194,-0.406634,0.085355,-0.422855,0.069134,-0.433694,0.050000,-0.437500,-0.050000,-0.437500,-0.100000,-0.387500,-0.100000,0.387500,-0.100000,0.387500,$1*%
G04 Aperture macros list end*
%TA.AperFunction,EtchedComponent*%
%ADD10C,0.000000*%
%TD*%
%TA.AperFunction,SMDPad,CuDef*%
%ADD11R,1.400000X1.100000*%
%TD*%
%TA.AperFunction,SMDPad,CuDef*%
%ADD12RoundRect,0.140000X-0.140000X-0.170000X0.140000X-0.170000X0.140000X0.170000X-0.140000X0.170000X0*%
%TD*%
%TA.AperFunction,SMDPad,CuDef*%
%ADD13RoundRect,0.140000X0.170000X-0.140000X0.170000X0.140000X-0.170000X0.140000X-0.170000X-0.140000X0*%
%TD*%
%TA.AperFunction,SMDPad,CuDef*%
%ADD14RoundRect,0.135000X0.185000X-0.135000X0.185000X0.135000X-0.185000X0.135000X-0.185000X-0.135000X0*%
%TD*%
%TA.AperFunction,SMDPad,CuDef*%
%ADD15R,0.910000X0.930000*%
%TD*%
%TA.AperFunction,SMDPad,CuDef*%
%ADD16R,0.845299X0.354800*%
%TD*%
%TA.AperFunction,SMDPad,CuDef*%
%ADD17RoundRect,0.375000X-0.375000X-0.875000X0.375000X-0.875000X0.375000X0.875000X-0.375000X0.875000X0*%
%TD*%
%TA.AperFunction,SMDPad,CuDef*%
%ADD18R,0.800000X0.800000*%
%TD*%
%TA.AperFunction,SMDPad,CuDef*%
%ADD19RoundRect,0.135000X-0.135000X-0.185000X0.135000X-0.185000X0.135000X0.185000X-0.135000X0.185000X0*%
%TD*%
%TA.AperFunction,SMDPad,CuDef*%
%ADD20R,1.100000X0.650000*%
%TD*%
%TA.AperFunction,SMDPad,CuDef*%
%ADD21R,0.228600X0.406400*%
%TD*%
%TA.AperFunction,SMDPad,CuDef*%
%ADD22RoundRect,0.135000X0.135000X0.185000X-0.135000X0.185000X-0.135000X-0.185000X0.135000X-0.185000X0*%
%TD*%
%TA.AperFunction,SMDPad,CuDef*%
%ADD23R,0.700000X1.700000*%
%TD*%
%TA.AperFunction,SMDPad,CuDef*%
%ADD24R,0.810000X0.930000*%
%TD*%
%TA.AperFunction,SMDPad,CuDef*%
%ADD25RoundRect,0.225000X-0.375000X0.225000X-0.375000X-0.225000X0.375000X-0.225000X0.375000X0.225000X0*%
%TD*%
%TA.AperFunction,ComponentPad*%
%ADD26R,1.700000X1.700000*%
%TD*%
%TA.AperFunction,ComponentPad*%
%ADD27O,1.700000X1.700000*%
%TD*%
%TA.AperFunction,SMDPad,CuDef*%
%ADD28R,1.701800X0.990600*%
%TD*%
%TA.AperFunction,SMDPad,CuDef*%
%ADD29RoundRect,0.135000X-0.185000X0.135000X-0.185000X-0.135000X0.185000X-0.135000X0.185000X0.135000X0*%
%TD*%
%TA.AperFunction,SMDPad,CuDef*%
%ADD30RoundRect,0.140000X-0.170000X0.140000X-0.170000X-0.140000X0.170000X-0.140000X0.170000X0.140000X0*%
%TD*%
%TA.AperFunction,SMDPad,CuDef*%
%ADD31RoundRect,0.250000X0.250000X0.475000X-0.250000X0.475000X-0.250000X-0.475000X0.250000X-0.475000X0*%
%TD*%
%TA.AperFunction,SMDPad,CuDef*%
%ADD32RoundRect,0.150000X-0.512500X-0.150000X0.512500X-0.150000X0.512500X0.150000X-0.512500X0.150000X0*%
%TD*%
%TA.AperFunction,SMDPad,CuDef*%
%ADD33RoundRect,0.140000X0.140000X0.170000X-0.140000X0.170000X-0.140000X-0.170000X0.140000X-0.170000X0*%
%TD*%
%TA.AperFunction,SMDPad,CuDef*%
%ADD34RoundRect,0.250000X-0.250000X-0.475000X0.250000X-0.475000X0.250000X0.475000X-0.250000X0.475000X0*%
%TD*%
%TA.AperFunction,SMDPad,CuDef*%
%ADD35R,0.249999X0.775000*%
%TD*%
%TA.AperFunction,SMDPad,CuDef*%
%ADD36R,0.249999X2.300000*%
%TD*%
%TA.AperFunction,SMDPad,CuDef*%
%ADD37R,0.650001X0.249999*%
%TD*%
%TA.AperFunction,SMDPad,CuDef*%
%ADD38RoundRect,0.150000X-0.150000X-0.425000X0.150000X-0.425000X0.150000X0.425000X-0.150000X0.425000X0*%
%TD*%
%TA.AperFunction,SMDPad,CuDef*%
%ADD39RoundRect,0.075000X-0.075000X-0.500000X0.075000X-0.500000X0.075000X0.500000X-0.075000X0.500000X0*%
%TD*%
%TA.AperFunction,ComponentPad*%
%ADD40O,1.000000X2.100000*%
%TD*%
%TA.AperFunction,ComponentPad*%
%ADD41O,1.000000X1.800000*%
%TD*%
%TA.AperFunction,SMDPad,CuDef*%
%ADD42R,0.650000X1.100000*%
%TD*%
%TA.AperFunction,SMDPad,CuDef*%
%ADD43R,1.524000X0.533400*%
%TD*%
%TA.AperFunction,ComponentPad*%
%ADD44RoundRect,0.250000X-0.350000X-0.625000X0.350000X-0.625000X0.350000X0.625000X-0.350000X0.625000X0*%
%TD*%
%TA.AperFunction,ComponentPad*%
%ADD45O,1.200000X1.750000*%
%TD*%
%TA.AperFunction,SMDPad,CuDef*%
%ADD46R,0.558800X1.981200*%
%TD*%
%TA.AperFunction,SMDPad,CuDef*%
%ADD47FreePoly0,180.000000*%
%TD*%
%TA.AperFunction,SMDPad,CuDef*%
%ADD48RoundRect,0.050000X0.387500X0.050000X-0.387500X0.050000X-0.387500X-0.050000X0.387500X-0.050000X0*%
%TD*%
%TA.AperFunction,SMDPad,CuDef*%
%ADD49FreePoly1,180.000000*%
%TD*%
%TA.AperFunction,SMDPad,CuDef*%
%ADD50FreePoly2,180.000000*%
%TD*%
%TA.AperFunction,SMDPad,CuDef*%
%ADD51RoundRect,0.050000X0.050000X0.387500X-0.050000X0.387500X-0.050000X-0.387500X0.050000X-0.387500X0*%
%TD*%
%TA.AperFunction,SMDPad,CuDef*%
%ADD52FreePoly3,180.000000*%
%TD*%
%TA.AperFunction,SMDPad,CuDef*%
%ADD53FreePoly4,180.000000*%
%TD*%
%TA.AperFunction,SMDPad,CuDef*%
%ADD54FreePoly5,180.000000*%
%TD*%
%TA.AperFunction,SMDPad,CuDef*%
%ADD55FreePoly6,180.000000*%
%TD*%
%TA.AperFunction,SMDPad,CuDef*%
%ADD56FreePoly7,180.000000*%
%TD*%
%TA.AperFunction,HeatsinkPad*%
%ADD57C,0.800000*%
%TD*%
%TA.AperFunction,SMDPad,CuDef*%
%ADD58RoundRect,0.153000X-1.547000X1.547000X-1.547000X-1.547000X1.547000X-1.547000X1.547000X1.547000X0*%
%TD*%
%TA.AperFunction,SMDPad,CuDef*%
%ADD59R,0.470000X0.530000*%
%TD*%
%TA.AperFunction,ViaPad*%
%ADD60C,0.700000*%
%TD*%
%TA.AperFunction,Conductor*%
%ADD61C,0.150000*%
%TD*%
%TA.AperFunction,Conductor*%
%ADD62C,0.300000*%
%TD*%
%TA.AperFunction,Conductor*%
%ADD63C,0.200000*%
%TD*%
%TA.AperFunction,Conductor*%
%ADD64C,0.500000*%
%TD*%
%TA.AperFunction,Conductor*%
%ADD65C,0.250000*%
%TD*%
%TA.AperFunction,Conductor*%
%ADD66C,1.000000*%
%TD*%
%TA.AperFunction,Conductor*%
%ADD67C,0.313400*%
%TD*%
G04 APERTURE END LIST*
D10*
%TA.AperFunction,EtchedComponent*%
%TO.C,U3*%
G36*
X137230199Y-104594300D02*
G01*
X137230199Y-105269300D01*
X137180199Y-105319300D01*
X137030199Y-105319300D01*
X136980199Y-105269300D01*
X136980199Y-104944300D01*
X136930200Y-104894300D01*
X136505199Y-104894300D01*
X136455199Y-104844300D01*
X136455199Y-104594300D01*
X136505199Y-104544301D01*
X137180199Y-104544301D01*
X137230199Y-104594300D01*
G37*
%TD.AperFunction*%
%TA.AperFunction,EtchedComponent*%
G36*
X137230199Y-103069300D02*
G01*
X137230199Y-103744300D01*
X137180199Y-103794299D01*
X136505199Y-103794299D01*
X136455199Y-103744300D01*
X136455199Y-103494300D01*
X136505199Y-103444300D01*
X136930200Y-103444300D01*
X136980199Y-103394300D01*
X136980199Y-103069300D01*
X137030199Y-103019300D01*
X137180199Y-103019300D01*
X137230199Y-103069300D01*
G37*
%TD.AperFunction*%
%TA.AperFunction,EtchedComponent*%
G36*
X139230200Y-103069300D02*
G01*
X139230200Y-103394300D01*
X139280200Y-103444300D01*
X139705200Y-103444300D01*
X139755200Y-103494300D01*
X139755200Y-103744300D01*
X139705200Y-103794299D01*
X139030200Y-103794299D01*
X138980201Y-103744300D01*
X138980201Y-103069300D01*
X139030200Y-103019300D01*
X139180200Y-103019300D01*
X139230200Y-103069300D01*
G37*
%TD.AperFunction*%
%TA.AperFunction,EtchedComponent*%
G36*
X139755200Y-104594300D02*
G01*
X139755200Y-104844300D01*
X139705200Y-104894300D01*
X139280200Y-104894300D01*
X139230200Y-104944300D01*
X139230200Y-105269300D01*
X139180200Y-105319300D01*
X139030200Y-105319300D01*
X138980201Y-105269300D01*
X138980201Y-104594300D01*
X139030200Y-104544301D01*
X139705200Y-104544301D01*
X139755200Y-104594300D01*
G37*
%TD.AperFunction*%
%TD*%
D11*
%TO.P,X1,1,1*%
%TO.N,/XIN*%
X148950000Y-71249999D03*
%TO.P,X1,2,2*%
%TO.N,GND*%
X146750000Y-71249999D03*
%TO.P,X1,3,3*%
%TO.N,Net-(C12-Pad2)*%
X146750000Y-72850001D03*
%TO.P,X1,4,4*%
%TO.N,GND*%
X148950000Y-72850001D03*
%TD*%
D12*
%TO.P,C13,2*%
%TO.N,GND*%
X148830000Y-74275000D03*
%TO.P,C13,1*%
%TO.N,/XIN*%
X147870000Y-74275000D03*
%TD*%
%TO.P,C12,1*%
%TO.N,GND*%
X145415000Y-74300000D03*
%TO.P,C12,2*%
%TO.N,Net-(C12-Pad2)*%
X146375000Y-74300000D03*
%TD*%
D13*
%TO.P,C4,1*%
%TO.N,/VREG_AVDD*%
X139775000Y-89495000D03*
%TO.P,C4,2*%
%TO.N,GND*%
X139775000Y-88535000D03*
%TD*%
D12*
%TO.P,C11,1*%
%TO.N,+3V3*%
X151070000Y-81070000D03*
%TO.P,C11,2*%
%TO.N,GND*%
X152030000Y-81070000D03*
%TD*%
D14*
%TO.P,R22,1*%
%TO.N,+3V3*%
X164960000Y-82273800D03*
%TO.P,R22,2*%
%TO.N,Net-(R22-Pad2)*%
X164960000Y-81253800D03*
%TD*%
D15*
%TO.P,D5,A*%
%TO.N,Net-(D5-PadA)*%
X155202000Y-119190000D03*
%TO.P,D5,C*%
%TO.N,GND*%
X156722000Y-119190000D03*
%TD*%
D16*
%TO.P,U5,1,OUT*%
%TO.N,Net-(U5-OUT)*%
X134858851Y-98849999D03*
%TO.P,U5,2,V-*%
%TO.N,Net-(U5-V+)*%
X134858851Y-98200000D03*
%TO.P,U5,3,IN+*%
%TO.N,+3V3*%
X134858851Y-97550001D03*
%TO.P,U5,4,IN-*%
%TO.N,GND*%
X132591149Y-97550001D03*
%TO.P,U5,5,REF*%
%TO.N,/UVLO_RST*%
X132591149Y-98200000D03*
%TO.P,U5,6,V+*%
%TO.N,Net-(U5-V+)*%
X132591149Y-98849999D03*
%TD*%
D14*
%TO.P,R31,1*%
%TO.N,/UVLO_RST*%
X129475000Y-90810000D03*
%TO.P,R31,2*%
%TO.N,/RUN*%
X129475000Y-89790000D03*
%TD*%
D17*
%TO.P,L2,1,1*%
%TO.N,/Converter_Out*%
X138535202Y-100099300D03*
%TO.P,L2,2,2*%
%TO.N,+3V3*%
X142235202Y-100099300D03*
%TD*%
D14*
%TO.P,R25,1*%
%TO.N,Net-(R22-Pad2)*%
X164950000Y-80340000D03*
%TO.P,R25,2*%
%TO.N,Net-(C25-Pad1)*%
X164950000Y-79320000D03*
%TD*%
D18*
%TO.P,D4,A,A*%
%TO.N,Net-(D4-PadA)*%
X155250000Y-121885000D03*
%TO.P,D4,C,C*%
%TO.N,GND*%
X156750000Y-121885000D03*
%TD*%
D19*
%TO.P,R3,1*%
%TO.N,VBUS*%
X134665200Y-110690200D03*
%TO.P,R3,2*%
%TO.N,GND*%
X135685200Y-110690200D03*
%TD*%
D20*
%TO.P,IC2,1,G*%
%TO.N,VBUS*%
X133145200Y-107320200D03*
%TO.P,IC2,2,S*%
%TO.N,Net-(IC1-S)*%
X133145200Y-109240200D03*
%TO.P,IC2,3,D*%
%TO.N,/Converter_In*%
X135245200Y-108280200D03*
%TD*%
D21*
%TO.P,D2,1,K*%
%TO.N,/USB_D-*%
X142145202Y-118430200D03*
%TO.P,D2,2,K*%
%TO.N,/USB_D+*%
X142945200Y-118430200D03*
%TO.P,D2,3,A*%
%TO.N,GND*%
X142545201Y-117388800D03*
%TD*%
D19*
%TO.P,R5,1*%
%TO.N,+3V3*%
X156440000Y-98100000D03*
%TO.P,R5,2*%
%TO.N,/QSPI_SS*%
X157460000Y-98100000D03*
%TD*%
D14*
%TO.P,R8,1*%
%TO.N,/USB_D-*%
X145625000Y-91060000D03*
%TO.P,R8,2*%
%TO.N,Net-(U1-USB_DM)*%
X145625000Y-90040000D03*
%TD*%
D22*
%TO.P,R13,1*%
%TO.N,+3V3*%
X141820000Y-104200000D03*
%TO.P,R13,2*%
%TO.N,/PG*%
X140800000Y-104200000D03*
%TD*%
D23*
%TO.P,L1,1,1*%
%TO.N,+1V1*%
X143600000Y-90416790D03*
%TO.P,L1,2,2*%
%TO.N,/VREG_LX*%
X142200000Y-90416790D03*
%TD*%
D24*
%TO.P,D3,A,A*%
%TO.N,Net-(D3-PadA)*%
X155155000Y-116425000D03*
%TO.P,D3,C,C*%
%TO.N,Net-(IC3-S)*%
X156775000Y-116425000D03*
%TD*%
D12*
%TO.P,C28,1*%
%TO.N,+3V3*%
X134705202Y-101059300D03*
%TO.P,C28,2*%
%TO.N,/FB*%
X135665202Y-101059300D03*
%TD*%
D25*
%TO.P,D1,1,K*%
%TO.N,/Converter_In*%
X139505200Y-110560200D03*
%TO.P,D1,2,A*%
%TO.N,VBUS*%
X139505200Y-113860200D03*
%TD*%
D26*
%TO.P,J4,1,Pin_1*%
%TO.N,unconnected-(J4-Pin_1-Pad1)*%
X137495000Y-47805000D03*
D27*
%TO.P,J4,2,Pin_2*%
%TO.N,GND*%
X137495000Y-50345000D03*
%TO.P,J4,3,Pin_3*%
%TO.N,/CS{slash}NSS*%
X137495000Y-52885000D03*
%TO.P,J4,4,Pin_4*%
%TO.N,/SPI0_CLK*%
X137495000Y-55425000D03*
%TO.P,J4,5,Pin_5*%
%TO.N,/SPI0_TX*%
X137495000Y-57965000D03*
%TO.P,J4,6,Pin_6*%
%TO.N,/SPI0_RX*%
X137495000Y-60505000D03*
%TO.P,J4,7,Pin_7*%
%TO.N,/uC_RESET*%
X137495000Y-63045000D03*
%TO.P,J4,8,Pin_8*%
%TO.N,/uC_BUSY*%
X137495000Y-65585000D03*
%TD*%
D28*
%TO.P,SW11,1,1*%
%TO.N,GND*%
X165820000Y-86070000D03*
%TO.P,SW11,2,2*%
X171535000Y-86070000D03*
%TO.P,SW11,3,3*%
%TO.N,Net-(R22-Pad2)*%
X165820000Y-89070000D03*
%TO.P,SW11,4,4*%
X171535000Y-89070000D03*
%TD*%
D12*
%TO.P,C32,1*%
%TO.N,+3V3*%
X136600000Y-96625000D03*
%TO.P,C32,2*%
%TO.N,GND*%
X137560000Y-96625000D03*
%TD*%
D19*
%TO.P,R28,1*%
%TO.N,VBUS*%
X152790000Y-121885000D03*
%TO.P,R28,2*%
%TO.N,Net-(D4-PadA)*%
X153810000Y-121885000D03*
%TD*%
D29*
%TO.P,R9,1*%
%TO.N,Net-(C12-Pad2)*%
X146325000Y-75400000D03*
%TO.P,R9,2*%
%TO.N,/XOUT*%
X146325000Y-76420000D03*
%TD*%
D14*
%TO.P,R27,1*%
%TO.N,Net-(R24-Pad2)*%
X172600000Y-80330000D03*
%TO.P,R27,2*%
%TO.N,Net-(C27-Pad1)*%
X172600000Y-79310000D03*
%TD*%
%TO.P,R23,1*%
%TO.N,+3V3*%
X168850000Y-82270000D03*
%TO.P,R23,2*%
%TO.N,Net-(R23-Pad2)*%
X168850000Y-81250000D03*
%TD*%
D30*
%TO.P,C10,1*%
%TO.N,+3V3*%
X149510000Y-86540000D03*
%TO.P,C10,2*%
%TO.N,GND*%
X149510000Y-87500000D03*
%TD*%
D31*
%TO.P,C31,1*%
%TO.N,+3V3*%
X146600000Y-67675000D03*
%TO.P,C31,2*%
%TO.N,GND*%
X144700000Y-67675000D03*
%TD*%
D28*
%TO.P,SW14,1,1*%
%TO.N,GND*%
X120935000Y-85740000D03*
%TO.P,SW14,2,2*%
X126650000Y-85740000D03*
%TO.P,SW14,3,3*%
%TO.N,Net-(R20-Pad2)*%
X120935000Y-88740000D03*
%TO.P,SW14,4,4*%
X126650000Y-88740000D03*
%TD*%
D29*
%TO.P,R1,1*%
%TO.N,/RUN_IN*%
X129550000Y-67540000D03*
%TO.P,R1,2*%
%TO.N,/RUN*%
X129550000Y-68560000D03*
%TD*%
D28*
%TO.P,SW12,1,1*%
%TO.N,GND*%
X165792500Y-92050000D03*
%TO.P,SW12,2,2*%
X171507500Y-92050000D03*
%TO.P,SW12,3,3*%
%TO.N,Net-(R16-Pad1)*%
X165792500Y-95050000D03*
%TO.P,SW12,4,4*%
X171507500Y-95050000D03*
%TD*%
D19*
%TO.P,R10,1*%
%TO.N,+3V3*%
X134675202Y-102089300D03*
%TO.P,R10,2*%
%TO.N,/FB*%
X135695202Y-102089300D03*
%TD*%
D32*
%TO.P,U4,1,CE*%
%TO.N,unconnected-(U4-CE-Pad1)*%
X135027700Y-113020200D03*
%TO.P,U4,2,V_{SS}*%
%TO.N,GND*%
X135027700Y-113970200D03*
%TO.P,U4,3,V_{BAT}*%
%TO.N,/VBAT*%
X135027700Y-114920200D03*
%TO.P,U4,4,V_{DD}*%
%TO.N,VBUS*%
X137302700Y-114920200D03*
%TO.P,U4,5,PROG*%
%TO.N,Net-(U4-PROG)*%
X137302700Y-113020200D03*
%TD*%
D33*
%TO.P,C1,1*%
%TO.N,+3V3*%
X150705000Y-98025000D03*
%TO.P,C1,2*%
%TO.N,GND*%
X149745000Y-98025000D03*
%TD*%
D13*
%TO.P,C24,1*%
%TO.N,Net-(C24-Pad1)*%
X163980000Y-67363800D03*
%TO.P,C24,2*%
%TO.N,GND*%
X163980000Y-66403800D03*
%TD*%
D22*
%TO.P,R4,1*%
%TO.N,/COMP_FSET*%
X135685202Y-105249300D03*
%TO.P,R4,2*%
%TO.N,GND*%
X134665202Y-105249300D03*
%TD*%
D26*
%TO.P,J2,1,Pin_1*%
%TO.N,GND*%
X152880000Y-47770000D03*
D27*
%TO.P,J2,2,Pin_2*%
X152880000Y-50310000D03*
%TO.P,J2,3,Pin_3*%
%TO.N,unconnected-(J2-Pin_3-Pad3)*%
X152880000Y-52850000D03*
%TO.P,J2,4,Pin_4*%
%TO.N,unconnected-(J2-Pin_4-Pad4)*%
X152880000Y-55390000D03*
%TO.P,J2,5,Pin_5*%
%TO.N,unconnected-(J2-Pin_5-Pad5)*%
X152880000Y-57930000D03*
%TO.P,J2,6,Pin_6*%
%TO.N,/DIO1*%
X152880000Y-60470000D03*
%TO.P,J2,7,Pin_7*%
%TO.N,GND*%
X152880000Y-63010000D03*
%TO.P,J2,8,Pin_8*%
%TO.N,+3V3*%
X152880000Y-65550000D03*
%TD*%
D19*
%TO.P,R32,1*%
%TO.N,/VBAT*%
X152715000Y-119175000D03*
%TO.P,R32,2*%
%TO.N,Net-(D5-PadA)*%
X153735000Y-119175000D03*
%TD*%
D29*
%TO.P,R20,1*%
%TO.N,+3V3*%
X165000000Y-64420000D03*
%TO.P,R20,2*%
%TO.N,Net-(R20-Pad2)*%
X165000000Y-65440000D03*
%TD*%
D13*
%TO.P,C5,1*%
%TO.N,+3V3*%
X140580000Y-77240000D03*
%TO.P,C5,2*%
%TO.N,GND*%
X140580000Y-76280000D03*
%TD*%
D28*
%TO.P,SW13,1,1*%
%TO.N,GND*%
X165782500Y-98000000D03*
%TO.P,SW13,2,2*%
X171497500Y-98000000D03*
%TO.P,SW13,3,3*%
%TO.N,Net-(R18-Pad2)*%
X165782500Y-101000000D03*
%TO.P,SW13,4,4*%
X171497500Y-101000000D03*
%TD*%
D14*
%TO.P,R6,1*%
%TO.N,+3V3*%
X139775000Y-91485000D03*
%TO.P,R6,2*%
%TO.N,/VREG_AVDD*%
X139775000Y-90465000D03*
%TD*%
D33*
%TO.P,C6,1*%
%TO.N,+3V3*%
X139710000Y-82300000D03*
%TO.P,C6,2*%
%TO.N,GND*%
X138750000Y-82300000D03*
%TD*%
D14*
%TO.P,R12,1*%
%TO.N,Net-(U4-PROG)*%
X137735200Y-111720200D03*
%TO.P,R12,2*%
%TO.N,GND*%
X137735200Y-110700200D03*
%TD*%
D19*
%TO.P,R29,1*%
%TO.N,+3V3*%
X130160000Y-99530000D03*
%TO.P,R29,2*%
%TO.N,Net-(U5-OUT)*%
X131180000Y-99530000D03*
%TD*%
D33*
%TO.P,C16,1*%
%TO.N,+1V1*%
X139720000Y-83290000D03*
%TO.P,C16,2*%
%TO.N,GND*%
X138760000Y-83290000D03*
%TD*%
D31*
%TO.P,C17,1*%
%TO.N,VBUS*%
X137485200Y-117400200D03*
%TO.P,C17,2*%
%TO.N,GND*%
X135585200Y-117400200D03*
%TD*%
D13*
%TO.P,C15,2*%
%TO.N,GND*%
X144425000Y-75920000D03*
%TO.P,C15,1*%
%TO.N,+1V1*%
X144425000Y-76880000D03*
%TD*%
D19*
%TO.P,R34,1*%
%TO.N,/UVLO_RST*%
X152780000Y-114845000D03*
%TO.P,R34,2*%
%TO.N,Net-(IC3-G)*%
X153800000Y-114845000D03*
%TD*%
D34*
%TO.P,C30,1*%
%TO.N,+3V3*%
X144275000Y-96575000D03*
%TO.P,C30,2*%
%TO.N,GND*%
X146175000Y-96575000D03*
%TD*%
D33*
%TO.P,C7,1*%
%TO.N,+3V3*%
X138495000Y-85165000D03*
%TO.P,C7,2*%
%TO.N,GND*%
X137535000Y-85165000D03*
%TD*%
D30*
%TO.P,C26,1*%
%TO.N,Net-(C26-Pad1)*%
X167820000Y-79340000D03*
%TO.P,C26,2*%
%TO.N,GND*%
X167820000Y-80300000D03*
%TD*%
D22*
%TO.P,R11,1*%
%TO.N,/FB*%
X135685202Y-103129300D03*
%TO.P,R11,2*%
%TO.N,GND*%
X134665202Y-103129300D03*
%TD*%
D35*
%TO.P,U3,1,MODE_SYNC*%
%TO.N,/Converter_In*%
X139105202Y-103408400D03*
D36*
%TO.P,U3,2,VIN*%
X138605200Y-104169300D03*
%TO.P,U3,3,SW*%
%TO.N,/Converter_Out*%
X138105201Y-104169300D03*
%TO.P,U3,4,GND*%
%TO.N,GND*%
X137605202Y-104169300D03*
D35*
%TO.P,U3,5,FB*%
%TO.N,/FB*%
X137105203Y-103408400D03*
D37*
%TO.P,U3,6,SS_TR*%
%TO.N,Net-(U3-SS_TR)*%
X136780200Y-104169300D03*
D35*
%TO.P,U3,7,COMP_FSET*%
%TO.N,/COMP_FSET*%
X137105200Y-104930200D03*
%TO.P,U3,8,EN*%
%TO.N,/Converter_In*%
X139105202Y-104930200D03*
D37*
%TO.P,U3,9,PG*%
%TO.N,/PG*%
X139430202Y-104169300D03*
%TD*%
D38*
%TO.P,J3,A1,GND*%
%TO.N,GND*%
X139320000Y-119945000D03*
%TO.P,J3,A4,VBUS*%
%TO.N,VBUS*%
X140120000Y-119945000D03*
D39*
%TO.P,J3,A5,CC1*%
%TO.N,/USB_CC1*%
X141270000Y-119945000D03*
%TO.P,J3,A6,D+*%
%TO.N,/USB_D+*%
X142270000Y-119945000D03*
%TO.P,J3,A7,D-*%
%TO.N,/USB_D-*%
X142770000Y-119945000D03*
%TO.P,J3,A8,SBU1*%
%TO.N,unconnected-(J3-SBU1-PadA8)*%
X143770000Y-119945000D03*
D38*
%TO.P,J3,A9,VBUS*%
%TO.N,VBUS*%
X144920000Y-119945000D03*
%TO.P,J3,A12,GND*%
%TO.N,GND*%
X145720000Y-119945000D03*
%TO.P,J3,B1,GND*%
X145720000Y-119945000D03*
%TO.P,J3,B4,VBUS*%
%TO.N,VBUS*%
X144920000Y-119945000D03*
D39*
%TO.P,J3,B5,CC2*%
%TO.N,/USB_CC2*%
X144270000Y-119945000D03*
%TO.P,J3,B6,D+*%
%TO.N,/USB_D+*%
X143270000Y-119945000D03*
%TO.P,J3,B7,D-*%
%TO.N,/USB_D-*%
X141770000Y-119945000D03*
%TO.P,J3,B8,SBU2*%
%TO.N,unconnected-(J3-SBU2-PadB8)*%
X140770000Y-119945000D03*
D38*
%TO.P,J3,B9,VBUS*%
%TO.N,VBUS*%
X140120000Y-119945000D03*
%TO.P,J3,B12,GND*%
%TO.N,GND*%
X139320000Y-119945000D03*
D40*
%TO.P,J3,S1,SHIELD*%
%TO.N,unconnected-(J3-SHIELD-PadS1)_3*%
X138200000Y-120520000D03*
D41*
%TO.N,unconnected-(J3-SHIELD-PadS1)_1*%
X138200000Y-124700000D03*
D40*
%TO.N,unconnected-(J3-SHIELD-PadS1)_2*%
X146840000Y-120520000D03*
D41*
%TO.N,unconnected-(J3-SHIELD-PadS1)*%
X146840000Y-124700000D03*
%TD*%
D29*
%TO.P,R21,1*%
%TO.N,Net-(R20-Pad2)*%
X165000000Y-66360000D03*
%TO.P,R21,2*%
%TO.N,Net-(C24-Pad1)*%
X165000000Y-67380000D03*
%TD*%
D30*
%TO.P,C27,1*%
%TO.N,Net-(C27-Pad1)*%
X171600000Y-79320000D03*
%TO.P,C27,2*%
%TO.N,GND*%
X171600000Y-80280000D03*
%TD*%
D28*
%TO.P,SW1,1,1*%
%TO.N,GND*%
X123732500Y-62400000D03*
%TO.P,SW1,2,2*%
X129447500Y-62400000D03*
%TO.P,SW1,3,3*%
%TO.N,/RUN_IN*%
X123732500Y-65400000D03*
%TO.P,SW1,4,4*%
X129447500Y-65400000D03*
%TD*%
D42*
%TO.P,IC3,1,G*%
%TO.N,Net-(IC3-G)*%
X155290000Y-114795000D03*
%TO.P,IC3,2,S*%
%TO.N,Net-(IC3-S)*%
X157210000Y-114795000D03*
%TO.P,IC3,3,D*%
%TO.N,GND*%
X156250000Y-112695000D03*
%TD*%
D30*
%TO.P,C22,1*%
%TO.N,GND*%
X173380000Y-75590000D03*
%TO.P,C22,2*%
%TO.N,+3V3*%
X173380000Y-76550000D03*
%TD*%
D29*
%TO.P,R17,1*%
%TO.N,+3V3*%
X172630000Y-64420000D03*
%TO.P,R17,2*%
%TO.N,Net-(R16-Pad1)*%
X172630000Y-65440000D03*
%TD*%
D12*
%TO.P,C8,2*%
%TO.N,GND*%
X148955000Y-77300000D03*
%TO.P,C8,1*%
%TO.N,+3V3*%
X147995000Y-77300000D03*
%TD*%
D22*
%TO.P,R2,1*%
%TO.N,/~{USB_BOOT}*%
X161750000Y-91750000D03*
%TO.P,R2,2*%
%TO.N,/QSPI_SS*%
X160730000Y-91750000D03*
%TD*%
D30*
%TO.P,C25,1*%
%TO.N,Net-(C25-Pad1)*%
X163920000Y-79333800D03*
%TO.P,C25,2*%
%TO.N,GND*%
X163920000Y-80293800D03*
%TD*%
D13*
%TO.P,C21,1*%
%TO.N,Net-(C21-Pad1)*%
X171590000Y-67350000D03*
%TO.P,C21,2*%
%TO.N,GND*%
X171590000Y-66390000D03*
%TD*%
D29*
%TO.P,R19,1*%
%TO.N,Net-(R18-Pad2)*%
X168880000Y-66380000D03*
%TO.P,R19,2*%
%TO.N,Net-(C23-Pad1)*%
X168880000Y-67400000D03*
%TD*%
D43*
%TO.P,U2,1,~{CS}*%
%TO.N,/QSPI_SS*%
X157644900Y-96455000D03*
%TO.P,U2,2,DO(IO1)*%
%TO.N,/QSPI_SD1*%
X157644900Y-95185000D03*
%TO.P,U2,3,IO2*%
%TO.N,/QSPI_SD2*%
X157644900Y-93915000D03*
%TO.P,U2,4,GND*%
%TO.N,GND*%
X157644900Y-92645000D03*
%TO.P,U2,5,DI(IO0)*%
%TO.N,/QSPI_SD0*%
X150355100Y-92645000D03*
%TO.P,U2,6,CLK*%
%TO.N,/QSPI_SCLK*%
X150355100Y-93915000D03*
%TO.P,U2,7,IO3*%
%TO.N,/QSPI_SD3*%
X150355100Y-95185000D03*
%TO.P,U2,8,VCC*%
%TO.N,+3V3*%
X150355100Y-96455000D03*
%TD*%
D34*
%TO.P,C19,1*%
%TO.N,/Converter_In*%
X139185200Y-108640200D03*
%TO.P,C19,2*%
%TO.N,GND*%
X141085200Y-108640200D03*
%TD*%
D31*
%TO.P,C29,1*%
%TO.N,+3V3*%
X140825000Y-96575000D03*
%TO.P,C29,2*%
%TO.N,GND*%
X138925000Y-96575000D03*
%TD*%
D28*
%TO.P,SW9,1,1*%
%TO.N,GND*%
X120895000Y-91760000D03*
%TO.P,SW9,2,2*%
X126610000Y-91760000D03*
%TO.P,SW9,3,3*%
%TO.N,Net-(R23-Pad2)*%
X120895000Y-94760000D03*
%TO.P,SW9,4,4*%
X126610000Y-94760000D03*
%TD*%
D31*
%TO.P,C18,1*%
%TO.N,/VBAT*%
X131000000Y-115300000D03*
%TO.P,C18,2*%
%TO.N,GND*%
X129100000Y-115300000D03*
%TD*%
D20*
%TO.P,IC1,1,G*%
%TO.N,VBUS*%
X133055200Y-112970200D03*
%TO.P,IC1,2,S*%
%TO.N,Net-(IC1-S)*%
X133055200Y-111050200D03*
%TO.P,IC1,3,D*%
%TO.N,/VBAT*%
X130955200Y-112010200D03*
%TD*%
D26*
%TO.P,J1,1,Pin_1*%
%TO.N,/SWCLK*%
X125775000Y-71310000D03*
D27*
%TO.P,J1,2,Pin_2*%
%TO.N,GND*%
X125775000Y-73850000D03*
%TO.P,J1,3,Pin_3*%
%TO.N,/SWD*%
X125775000Y-76390000D03*
%TO.P,J1,4,Pin_4*%
%TO.N,GND*%
X125775000Y-78930000D03*
%TD*%
D19*
%TO.P,R33,1*%
%TO.N,/VBAT*%
X152728000Y-116405000D03*
%TO.P,R33,2*%
%TO.N,Net-(D3-PadA)*%
X153748000Y-116405000D03*
%TD*%
D14*
%TO.P,R24,1*%
%TO.N,+3V3*%
X172610000Y-82273800D03*
%TO.P,R24,2*%
%TO.N,Net-(R24-Pad2)*%
X172610000Y-81253800D03*
%TD*%
D44*
%TO.P,J5,1,Pin_1*%
%TO.N,+3V3*%
X137850000Y-37760000D03*
D45*
%TO.P,J5,2,Pin_2*%
%TO.N,GND*%
X139850000Y-37760000D03*
%TO.P,J5,3,Pin_3*%
%TO.N,/SPI1_TX*%
X141850000Y-37760000D03*
%TO.P,J5,4,Pin_4*%
%TO.N,/SPI1_CLK*%
X143850000Y-37760000D03*
%TO.P,J5,5,Pin_5*%
%TO.N,/SPI1_CS*%
X145850000Y-37760000D03*
%TO.P,J5,6,Pin_6*%
%TO.N,/DISPLAY_DC*%
X147850000Y-37760000D03*
%TO.P,J5,7,Pin_7*%
%TO.N,/DISPLAY_RESET*%
X149850000Y-37760000D03*
%TO.P,J5,8,Pin_8*%
%TO.N,/DISPLAY_BUSY*%
X151850000Y-37760000D03*
%TD*%
D46*
%TO.P,U6,1*%
%TO.N,Net-(C21-Pad1)*%
X171960000Y-70782400D03*
%TO.P,U6,2*%
%TO.N,/BTN_BACK*%
X170690000Y-70782400D03*
%TO.P,U6,3*%
%TO.N,Net-(C23-Pad1)*%
X169420000Y-70782400D03*
%TO.P,U6,4*%
%TO.N,/BTN_OK*%
X168150000Y-70782400D03*
%TO.P,U6,5*%
%TO.N,Net-(C24-Pad1)*%
X166880000Y-70782400D03*
%TO.P,U6,6*%
%TO.N,/BTN_NEXT*%
X165610000Y-70782400D03*
%TO.P,U6,7,GND*%
%TO.N,GND*%
X164340000Y-70782400D03*
%TO.P,U6,8*%
%TO.N,/BTN_MACRO_A*%
X164340000Y-75710000D03*
%TO.P,U6,9*%
%TO.N,Net-(C25-Pad1)*%
X165610000Y-75710000D03*
%TO.P,U6,10*%
%TO.N,/BTN_MACRO_B*%
X166880000Y-75710000D03*
%TO.P,U6,11*%
%TO.N,Net-(C26-Pad1)*%
X168150000Y-75710000D03*
%TO.P,U6,12*%
%TO.N,/BTN_MACRO_C*%
X169420000Y-75710000D03*
%TO.P,U6,13*%
%TO.N,Net-(C27-Pad1)*%
X170690000Y-75710000D03*
%TO.P,U6,14,VCC*%
%TO.N,+3V3*%
X171960000Y-75710000D03*
%TD*%
D28*
%TO.P,SW10,1,1*%
%TO.N,GND*%
X120945000Y-97950000D03*
%TO.P,SW10,2,2*%
X126660000Y-97950000D03*
%TO.P,SW10,3,3*%
%TO.N,Net-(R24-Pad2)*%
X120945000Y-100950000D03*
%TO.P,SW10,4,4*%
X126660000Y-100950000D03*
%TD*%
D22*
%TO.P,R30,1*%
%TO.N,Net-(U5-OUT)*%
X131170000Y-98470000D03*
%TO.P,R30,2*%
%TO.N,GND*%
X130150000Y-98470000D03*
%TD*%
D44*
%TO.P,J6,1,Pin_1*%
%TO.N,GND*%
X128925000Y-120225000D03*
D45*
%TO.P,J6,2,Pin_2*%
%TO.N,/VBAT*%
X130925000Y-120225000D03*
%TD*%
D14*
%TO.P,R15,1*%
%TO.N,/USB_CC1*%
X141125000Y-117785000D03*
%TO.P,R15,2*%
%TO.N,GND*%
X141125000Y-116765000D03*
%TD*%
D30*
%TO.P,C9,1*%
%TO.N,+3V3*%
X147850000Y-90935000D03*
%TO.P,C9,2*%
%TO.N,GND*%
X147850000Y-91895000D03*
%TD*%
D26*
%TO.P,J7,1,Pin_1*%
%TO.N,/UART_Tx_DEBUG*%
X153770000Y-87120000D03*
D27*
%TO.P,J7,2,Pin_2*%
%TO.N,GND*%
X156310000Y-87120000D03*
%TO.P,J7,3,Pin_3*%
%TO.N,/UART_Rx_DEBUG*%
X158850000Y-87120000D03*
%TO.P,J7,4,Pin_4*%
%TO.N,GND*%
X161390000Y-87120000D03*
%TD*%
D28*
%TO.P,SW4,1,1*%
%TO.N,GND*%
X158742500Y-59050000D03*
%TO.P,SW4,2,2*%
X164457500Y-59050000D03*
%TO.P,SW4,3,3*%
%TO.N,/~{USB_BOOT}*%
X158742500Y-62050000D03*
%TO.P,SW4,4,4*%
X164457500Y-62050000D03*
%TD*%
D14*
%TO.P,R7,1*%
%TO.N,/USB_D+*%
X146675000Y-91060000D03*
%TO.P,R7,2*%
%TO.N,Net-(U1-USB_DP)*%
X146675000Y-90040000D03*
%TD*%
D29*
%TO.P,R16,1*%
%TO.N,Net-(R16-Pad1)*%
X172620000Y-66360000D03*
%TO.P,R16,2*%
%TO.N,Net-(C21-Pad1)*%
X172620000Y-67380000D03*
%TD*%
D19*
%TO.P,R14,1*%
%TO.N,/USB_CC2*%
X146220000Y-117340000D03*
%TO.P,R14,2*%
%TO.N,GND*%
X147240000Y-117340000D03*
%TD*%
D33*
%TO.P,C20,1*%
%TO.N,Net-(U3-SS_TR)*%
X135655202Y-104189300D03*
%TO.P,C20,2*%
%TO.N,GND*%
X134695202Y-104189300D03*
%TD*%
D14*
%TO.P,R26,1*%
%TO.N,Net-(R23-Pad2)*%
X168840000Y-80350000D03*
%TO.P,R26,2*%
%TO.N,Net-(C26-Pad1)*%
X168840000Y-79330000D03*
%TD*%
D47*
%TO.P,U1,1,IOVDD*%
%TO.N,+3V3*%
X148250000Y-85380000D03*
D48*
%TO.P,U1,2,GPIO0*%
%TO.N,/UART_Tx_DEBUG*%
X148250000Y-84980000D03*
%TO.P,U1,3,GPIO1*%
%TO.N,/UART_Rx_DEBUG*%
X148250000Y-84580000D03*
%TO.P,U1,4,GPIO2*%
%TO.N,/BTN_MACRO_A*%
X148250000Y-84180000D03*
%TO.P,U1,5,GPIO3*%
%TO.N,/BTN_MACRO_B*%
X148250000Y-83780000D03*
%TO.P,U1,6,DVDD*%
%TO.N,+1V1*%
X148250000Y-83380000D03*
%TO.P,U1,7,GPIO4*%
%TO.N,/BTN_BACK*%
X148250000Y-82980000D03*
%TO.P,U1,8,GPIO5*%
%TO.N,/BTN_OK*%
X148250000Y-82580000D03*
%TO.P,U1,9,GPIO6*%
%TO.N,/BTN_NEXT*%
X148250000Y-82180000D03*
%TO.P,U1,10,GPIO7*%
%TO.N,/BTN_MACRO_C*%
X148250000Y-81780000D03*
%TO.P,U1,11,IOVDD*%
%TO.N,+3V3*%
X148250000Y-81380000D03*
%TO.P,U1,12,GPIO8*%
%TO.N,/DISPLAY_DC*%
X148250000Y-80980000D03*
%TO.P,U1,13,GPIO9*%
%TO.N,/SPI1_CS*%
X148250000Y-80580000D03*
%TO.P,U1,14,GPIO10*%
%TO.N,/SPI1_CLK*%
X148250000Y-80180000D03*
D49*
%TO.P,U1,15,GPIO11*%
%TO.N,/SPI1_TX*%
X148250000Y-79780000D03*
D50*
%TO.P,U1,16,GPIO12*%
%TO.N,/DISPLAY_RESET*%
X147612500Y-79142500D03*
D51*
%TO.P,U1,17,GPIO13*%
%TO.N,/DISPLAY_BUSY*%
X147212500Y-79142500D03*
%TO.P,U1,18,GPIO14*%
%TO.N,unconnected-(U1-GPIO14-Pad18)*%
X146812500Y-79142500D03*
%TO.P,U1,19,GPIO15*%
%TO.N,unconnected-(U1-GPIO15-Pad19)*%
X146412500Y-79142500D03*
%TO.P,U1,20,IOVDD*%
%TO.N,+3V3*%
X146012500Y-79142500D03*
%TO.P,U1,21,XIN*%
%TO.N,/XIN*%
X145612500Y-79142500D03*
%TO.P,U1,22,XOUT*%
%TO.N,/XOUT*%
X145212500Y-79142500D03*
%TO.P,U1,23,DVDD*%
%TO.N,+1V1*%
X144812500Y-79142500D03*
%TO.P,U1,24,SWCLK*%
%TO.N,/SWCLK*%
X144412500Y-79142500D03*
%TO.P,U1,25,SWD*%
%TO.N,/SWD*%
X144012500Y-79142500D03*
%TO.P,U1,26,RUN*%
%TO.N,/RUN*%
X143612500Y-79142500D03*
%TO.P,U1,27,GPIO16*%
%TO.N,unconnected-(U1-GPIO16-Pad27)*%
X143212500Y-79142500D03*
%TO.P,U1,28,GPIO17*%
%TO.N,/CS{slash}NSS*%
X142812500Y-79142500D03*
%TO.P,U1,29,GPIO18*%
%TO.N,/SPI0_CLK*%
X142412500Y-79142500D03*
D52*
%TO.P,U1,30,IOVDD*%
%TO.N,+3V3*%
X142012500Y-79142500D03*
D53*
%TO.P,U1,31,GPIO19*%
%TO.N,/SPI0_TX*%
X141375000Y-79780000D03*
D48*
%TO.P,U1,32,GPIO20*%
%TO.N,/uC_RESET*%
X141375000Y-80180000D03*
%TO.P,U1,33,GPIO21*%
%TO.N,/uC_BUSY*%
X141375000Y-80580000D03*
%TO.P,U1,34,GPIO22*%
%TO.N,/DIO1*%
X141375000Y-80980000D03*
%TO.P,U1,35,GPIO23*%
%TO.N,/SPI0_RX*%
X141375000Y-81380000D03*
%TO.P,U1,36,GPIO24*%
%TO.N,unconnected-(U1-GPIO24-Pad36)*%
X141375000Y-81780000D03*
%TO.P,U1,37,GPIO25*%
%TO.N,unconnected-(U1-GPIO25-Pad37)*%
X141375000Y-82180000D03*
%TO.P,U1,38,IOVDD*%
%TO.N,+3V3*%
X141375000Y-82580000D03*
%TO.P,U1,39,DVDD*%
%TO.N,+1V1*%
X141375000Y-82980000D03*
%TO.P,U1,40,GPIO26_ADC0*%
%TO.N,unconnected-(U1-GPIO26_ADC0-Pad40)*%
X141375000Y-83380000D03*
%TO.P,U1,41,GPIO27_ADC1*%
%TO.N,unconnected-(U1-GPIO27_ADC1-Pad41)*%
X141375000Y-83780000D03*
%TO.P,U1,42,GPIO28_ADC2*%
%TO.N,unconnected-(U1-GPIO28_ADC2-Pad42)*%
X141375000Y-84180000D03*
%TO.P,U1,43,GPIO29_ADC3*%
%TO.N,unconnected-(U1-GPIO29_ADC3-Pad43)*%
X141375000Y-84580000D03*
%TO.P,U1,44,ADC_AVDD*%
%TO.N,+3V3*%
X141375000Y-84980000D03*
D54*
%TO.P,U1,45,IOVDD*%
X141375000Y-85380000D03*
D55*
%TO.P,U1,46,VREG_AVDD*%
%TO.N,/VREG_AVDD*%
X142012500Y-86017500D03*
D51*
%TO.P,U1,47,VREG_PGND*%
%TO.N,GND*%
X142412500Y-86017500D03*
%TO.P,U1,48,VREG_LX*%
%TO.N,/VREG_LX*%
X142812500Y-86017500D03*
%TO.P,U1,49,VREG_VIN*%
%TO.N,+3V3*%
X143212500Y-86017500D03*
%TO.P,U1,50,VREG_FB*%
%TO.N,+1V1*%
X143612500Y-86017500D03*
%TO.P,U1,51,USB_DM*%
%TO.N,Net-(U1-USB_DM)*%
X144012500Y-86017500D03*
%TO.P,U1,52,USB_DP*%
%TO.N,Net-(U1-USB_DP)*%
X144412500Y-86017500D03*
%TO.P,U1,53,USB_OTP_VDD*%
%TO.N,+3V3*%
X144812500Y-86017500D03*
%TO.P,U1,54,QSPI_IOVDD*%
X145212500Y-86017500D03*
%TO.P,U1,55,QSPI_SD3*%
%TO.N,/QSPI_SD3*%
X145612500Y-86017500D03*
%TO.P,U1,56,QSPI_SCLK*%
%TO.N,/QSPI_SCLK*%
X146012500Y-86017500D03*
%TO.P,U1,57,QSPI_SD0*%
%TO.N,/QSPI_SD0*%
X146412500Y-86017500D03*
%TO.P,U1,58,QSPI_SD2*%
%TO.N,/QSPI_SD2*%
X146812500Y-86017500D03*
%TO.P,U1,59,QSPI_SD1*%
%TO.N,/QSPI_SD1*%
X147212500Y-86017500D03*
D56*
%TO.P,U1,60,QSPI_SS*%
%TO.N,/QSPI_SS*%
X147612500Y-86017500D03*
D57*
%TO.P,U1,61,GND*%
%TO.N,GND*%
X146012500Y-83780000D03*
X146012500Y-82580000D03*
X146012500Y-81380000D03*
X144812500Y-83780000D03*
X144812500Y-82580000D03*
D58*
X144812500Y-82580000D03*
D57*
X144762500Y-81380000D03*
X143612500Y-83780000D03*
X143612500Y-82580000D03*
X143612500Y-81380000D03*
%TD*%
D29*
%TO.P,R18,1*%
%TO.N,+3V3*%
X168870000Y-64410000D03*
%TO.P,R18,2*%
%TO.N,Net-(R18-Pad2)*%
X168870000Y-65430000D03*
%TD*%
D13*
%TO.P,C23,1*%
%TO.N,Net-(C23-Pad1)*%
X167800000Y-67370000D03*
%TO.P,C23,2*%
%TO.N,GND*%
X167800000Y-66410000D03*
%TD*%
D12*
%TO.P,C14,1*%
%TO.N,+1V1*%
X151165000Y-83400000D03*
%TO.P,C14,2*%
%TO.N,GND*%
X152125000Y-83400000D03*
%TD*%
D59*
%TO.P,C3,1*%
%TO.N,+1V1*%
X143335000Y-88700000D03*
%TO.P,C3,2*%
%TO.N,GND*%
X142305000Y-88700000D03*
%TD*%
%TO.P,C2,1*%
%TO.N,+3V3*%
X143335000Y-87670000D03*
%TO.P,C2,2*%
%TO.N,GND*%
X142305000Y-87670000D03*
%TD*%
D60*
%TO.N,GND*%
X149350000Y-75300000D03*
X149848071Y-76723071D03*
X144425000Y-74950000D03*
X145415000Y-76025000D03*
X145275000Y-73250000D03*
X150550000Y-72875000D03*
X150175000Y-69925000D03*
X145700000Y-69975000D03*
X137990000Y-82300000D03*
X148902800Y-97867324D03*
X137275000Y-102225000D03*
X152853058Y-81043058D03*
X156535000Y-111485000D03*
X167820000Y-81160000D03*
X119440000Y-91550000D03*
X141490000Y-88650000D03*
X173380000Y-74750000D03*
X141125000Y-115920000D03*
X157150000Y-120775000D03*
X142300000Y-108640200D03*
X148080000Y-117560000D03*
X127925000Y-115650000D03*
X133800000Y-105420000D03*
X137400000Y-106000000D03*
X137990000Y-83290000D03*
X131075000Y-62400000D03*
X137387500Y-97487500D03*
X141500000Y-87590000D03*
X131300000Y-97310000D03*
X128130000Y-97610000D03*
X128122500Y-85647500D03*
X155930000Y-92645000D03*
X164000000Y-65550000D03*
X133810000Y-103330000D03*
X153100000Y-83575000D03*
X167800000Y-65575000D03*
X146350000Y-118380000D03*
X164200000Y-98010000D03*
X147925000Y-92875000D03*
X119420000Y-97710000D03*
X172980000Y-85950000D03*
X158340000Y-60130000D03*
X150390000Y-87570000D03*
X143550000Y-67725000D03*
X129270000Y-98790000D03*
X133720000Y-114175000D03*
X135590000Y-118820000D03*
X139837500Y-87637500D03*
X122175000Y-62400000D03*
X165410000Y-84640000D03*
X119440000Y-85450000D03*
X146175000Y-97875000D03*
X172960000Y-91980000D03*
X143422746Y-116949999D03*
X164132615Y-92075698D03*
X162950000Y-70475000D03*
X157150000Y-117975000D03*
X171600000Y-65575000D03*
X137770000Y-95760000D03*
X136625000Y-110690200D03*
X128070000Y-91550000D03*
X138874314Y-118425686D03*
X171550000Y-81100000D03*
X136775000Y-85165000D03*
X133820000Y-104350000D03*
X164890000Y-60200000D03*
X163925000Y-81175000D03*
X172980000Y-97890000D03*
%TO.N,+3V3*%
X149400000Y-85607200D03*
X139790000Y-84550000D03*
X171700000Y-82275000D03*
X141280000Y-78130000D03*
X173540000Y-64420000D03*
X167970000Y-82270000D03*
X169780000Y-64410000D03*
X139790000Y-85360000D03*
X144100000Y-101850000D03*
X165850000Y-82425000D03*
X165875000Y-64450000D03*
X147725000Y-67600000D03*
X153550000Y-99225000D03*
X173700000Y-77375000D03*
X139790000Y-86150000D03*
%TO.N,+1V1*%
X144532322Y-88617678D03*
X144600000Y-89300000D03*
X144240000Y-84850000D03*
%TO.N,/VBAT*%
X151625000Y-119250000D03*
%TO.N,/SWD*%
X143319974Y-73699546D03*
%TO.N,/SWCLK*%
X143275000Y-72754569D03*
%TO.N,/DIO1*%
X136410000Y-72075000D03*
X150825000Y-60775000D03*
%TO.N,/DISPLAY_RESET*%
X151350000Y-75900000D03*
X156520000Y-69100000D03*
%TO.N,/DISPLAY_BUSY*%
X151350000Y-74725000D03*
X155330000Y-69350000D03*
%TO.N,/RUN*%
X129550000Y-72775000D03*
X142825000Y-71975000D03*
%TO.N,/~{USB_BOOT}*%
X160175000Y-70175000D03*
X160525000Y-83850000D03*
%TO.N,Net-(R20-Pad2)*%
X128382500Y-88642500D03*
X166032500Y-66357500D03*
%TO.N,Net-(R23-Pad2)*%
X128380000Y-94630000D03*
X169975000Y-83225000D03*
%TO.N,Net-(R24-Pad2)*%
X128355000Y-100905000D03*
X173800000Y-82575000D03*
%TO.N,/BTN_MACRO_C*%
X169397500Y-73927500D03*
X162975000Y-71900000D03*
%TO.N,/Converter_In*%
X140200000Y-105250000D03*
X140475000Y-103325000D03*
%TO.N,/UVLO_RST*%
X132575000Y-95485000D03*
X151740000Y-114510000D03*
%TD*%
D61*
%TO.N,/DISPLAY_BUSY*%
X151350000Y-74725000D02*
X150675000Y-75400000D01*
X150675000Y-75400000D02*
X150675000Y-77030026D01*
X149655026Y-78050000D02*
X147575000Y-78050000D01*
X150675000Y-77030026D02*
X149655026Y-78050000D01*
X147212200Y-78412800D02*
X147212200Y-79144700D01*
X147575000Y-78050000D02*
X147212200Y-78412800D01*
D62*
%TO.N,+3V3*%
X136600000Y-96625000D02*
X136600000Y-97875000D01*
X136600000Y-97875000D02*
X136600000Y-98840000D01*
X134858851Y-97550001D02*
X136275001Y-97550001D01*
X136275001Y-97550001D02*
X136600000Y-97875000D01*
%TO.N,GND*%
X146750000Y-71249999D02*
X146675001Y-71175000D01*
X146675001Y-71175000D02*
X145350000Y-71175000D01*
X145350000Y-73175000D02*
X145350000Y-71175000D01*
X145350000Y-71175000D02*
X145350000Y-70325000D01*
X145750000Y-69925000D02*
X146575000Y-69925000D01*
X146575000Y-69925000D02*
X150175000Y-69925000D01*
D61*
%TO.N,/DISPLAY_RESET*%
X151350000Y-75900000D02*
X151350000Y-76850000D01*
X151350000Y-76850000D02*
X149055300Y-79144700D01*
X149055300Y-79144700D02*
X147612200Y-79144700D01*
D62*
%TO.N,/SPI1_TX*%
X143700000Y-62325000D02*
X143700000Y-39610000D01*
D61*
X151075000Y-78225000D02*
X150505002Y-78225000D01*
X150505002Y-78225000D02*
X148947802Y-79782200D01*
D62*
X151075000Y-78225000D02*
X152050000Y-77250000D01*
X152050000Y-77250000D02*
X152050000Y-70675000D01*
D61*
X148947802Y-79782200D02*
X148249700Y-79782200D01*
D62*
X152050000Y-70675000D02*
X143700000Y-62325000D01*
X143700000Y-39610000D02*
X141850000Y-37760000D01*
%TO.N,GND*%
X149350000Y-75300000D02*
X150550000Y-74100000D01*
X150550000Y-74100000D02*
X150550000Y-72875000D01*
D61*
X149848071Y-76723071D02*
X149271142Y-77300000D01*
X149271142Y-77300000D02*
X148955000Y-77300000D01*
D62*
X149000000Y-75270000D02*
X148830000Y-75100000D01*
X148830000Y-75100000D02*
X148830000Y-72970001D01*
X148830000Y-72970001D02*
X148950000Y-72850001D01*
D63*
%TO.N,/XIN*%
X147850000Y-74295000D02*
X147875000Y-74270000D01*
X145612500Y-78262500D02*
X147850000Y-76025000D01*
X147875000Y-72174999D02*
X148800000Y-71249999D01*
X147850000Y-76025000D02*
X147850000Y-74295000D01*
X145612500Y-79142500D02*
X145612500Y-78262500D01*
X147875000Y-74270000D02*
X147875000Y-72174999D01*
X148800000Y-71249999D02*
X148950000Y-71249999D01*
D61*
%TO.N,/DIO1*%
X138307200Y-80982200D02*
X141374700Y-80982200D01*
X138175000Y-80850000D02*
X138307200Y-80982200D01*
D62*
X138175000Y-80850000D02*
X136410000Y-79085000D01*
X136410000Y-79085000D02*
X136410000Y-72075000D01*
%TO.N,GND*%
X150175000Y-69925000D02*
X150550000Y-70300000D01*
X150550000Y-70300000D02*
X150550000Y-73075000D01*
X145415000Y-73390000D02*
X145275000Y-73250000D01*
X145415000Y-76025000D02*
X145415000Y-73390000D01*
D61*
X144425000Y-74950000D02*
X144425000Y-75920000D01*
%TO.N,/SWCLK*%
X143275000Y-72754569D02*
X143944974Y-73424543D01*
X143944974Y-73958430D02*
X143650000Y-74253404D01*
X143650000Y-74253404D02*
X143650000Y-77340000D01*
X143650000Y-77340000D02*
X144412200Y-78102200D01*
X143944974Y-73424543D02*
X143944974Y-73958430D01*
X144412200Y-78102200D02*
X144412200Y-79144700D01*
%TO.N,/SWD*%
X143300000Y-73719520D02*
X143300000Y-77484974D01*
X143319974Y-73699546D02*
X143300000Y-73719520D01*
X143300000Y-77484974D02*
X144012200Y-78197174D01*
X144012200Y-78197174D02*
X144012200Y-79144700D01*
%TO.N,/RUN*%
X142825000Y-77665000D02*
X143612200Y-78452200D01*
X142825000Y-71975000D02*
X142650000Y-72150000D01*
X142650000Y-72150000D02*
X142650000Y-75425000D01*
X142825000Y-75600000D02*
X142825000Y-77665000D01*
X142650000Y-75425000D02*
X142825000Y-75600000D01*
X143612200Y-78452200D02*
X143612200Y-79144700D01*
%TO.N,GND*%
X144425000Y-75920000D02*
X144425000Y-75700000D01*
X144425000Y-75700000D02*
X144400000Y-75675000D01*
D63*
%TO.N,/XOUT*%
X145212500Y-79142500D02*
X145212500Y-77532500D01*
X146250000Y-76495000D02*
X146250000Y-76285000D01*
X145212500Y-77532500D02*
X146250000Y-76495000D01*
%TO.N,Net-(C12-Pad2)*%
X146325000Y-75400000D02*
X146375000Y-75350000D01*
X146375000Y-75350000D02*
X146375000Y-73225001D01*
X146375000Y-73225001D02*
X146750000Y-72850001D01*
D62*
%TO.N,GND*%
X150550000Y-73075000D02*
X150550000Y-72875000D01*
X145700000Y-69975000D02*
X145750000Y-69925000D01*
D63*
%TO.N,Net-(C12-Pad2)*%
X146925000Y-73025001D02*
X146750000Y-72850001D01*
D61*
%TO.N,+1V1*%
X144425000Y-76880000D02*
X144425000Y-77620026D01*
X144812500Y-78007526D02*
X144812500Y-79142500D01*
X144425000Y-77620026D02*
X144812500Y-78007526D01*
D64*
%TO.N,GND*%
X142300000Y-108640200D02*
X142315200Y-108640200D01*
D61*
X127770000Y-97970000D02*
X126667500Y-97970000D01*
D62*
X144575000Y-67725000D02*
X144750000Y-67550000D01*
D61*
X137375000Y-97500000D02*
X137387500Y-97487500D01*
D62*
X139320000Y-119945000D02*
X139320000Y-118871372D01*
D61*
X128050000Y-85720000D02*
X126597500Y-85720000D01*
D62*
X136625000Y-110690200D02*
X137725200Y-110690200D01*
X143550000Y-67725000D02*
X144575000Y-67725000D01*
D61*
X120952500Y-97970000D02*
X126667500Y-97970000D01*
D62*
X149075000Y-98025000D02*
X148950000Y-97900000D01*
X145720000Y-119010000D02*
X145720000Y-119945000D01*
D61*
X172870000Y-98000000D02*
X172980000Y-97890000D01*
X165792500Y-92050000D02*
X164240000Y-92050000D01*
D62*
X156250000Y-111770000D02*
X156535000Y-111485000D01*
D61*
X128122500Y-85647500D02*
X128050000Y-85720000D01*
D62*
X143422746Y-116949999D02*
X143372745Y-117000000D01*
X143300001Y-116949999D02*
X142861200Y-117388800D01*
D61*
X172925000Y-92015000D02*
X172960000Y-91980000D01*
D62*
X156722000Y-119190000D02*
X156722000Y-118403000D01*
D61*
X164240000Y-92050000D02*
X164210000Y-92020000D01*
D62*
X133924800Y-113970200D02*
X135027700Y-113970200D01*
D65*
X158340000Y-60130000D02*
X158340000Y-59452500D01*
D61*
X165820000Y-86070000D02*
X165820000Y-85050000D01*
D62*
X134695202Y-103159300D02*
X134665202Y-103129300D01*
D61*
X120882500Y-91730000D02*
X126597500Y-91730000D01*
D63*
X155925000Y-92650000D02*
X155930000Y-92645000D01*
D61*
X128130000Y-97610000D02*
X127770000Y-97970000D01*
D62*
X133980700Y-104189300D02*
X134695202Y-104189300D01*
D61*
X147850000Y-92800000D02*
X147925000Y-92875000D01*
X137387500Y-97487500D02*
X137560000Y-97315000D01*
X164210000Y-92010000D02*
X164200000Y-92010000D01*
D62*
X133810000Y-103330000D02*
X134010700Y-103129300D01*
X137400000Y-106000000D02*
X137400000Y-105900000D01*
X133800000Y-105420000D02*
X133970700Y-105249300D01*
D61*
X137560000Y-97315000D02*
X137560000Y-96625000D01*
X120882500Y-91730000D02*
X119620000Y-91730000D01*
D62*
X136600000Y-110690200D02*
X136625000Y-110690200D01*
X171590000Y-65585000D02*
X171590000Y-66390000D01*
D63*
X152796942Y-81043058D02*
X152853058Y-81043058D01*
D62*
X146350000Y-118380000D02*
X145720000Y-119010000D01*
X171600000Y-65575000D02*
X171590000Y-65585000D01*
D61*
X119620000Y-91730000D02*
X119440000Y-91550000D01*
D63*
X152765000Y-81075000D02*
X152796942Y-81043058D01*
D65*
X171550000Y-81100000D02*
X171600000Y-81050000D01*
D62*
X133820000Y-104350000D02*
X133980700Y-104189300D01*
D65*
X163980000Y-65570000D02*
X163980000Y-66403800D01*
X163257400Y-70782400D02*
X164340000Y-70782400D01*
X171600000Y-81050000D02*
X171600000Y-80280000D01*
D64*
X142315200Y-108640200D02*
X142325000Y-108650000D01*
D62*
X141125000Y-116765000D02*
X141125000Y-115920000D01*
X134665202Y-104219300D02*
X134695202Y-104189300D01*
D63*
X152826116Y-81070000D02*
X152030000Y-81070000D01*
D65*
X158742500Y-59050000D02*
X164457500Y-59050000D01*
D63*
X153000000Y-83575000D02*
X152825000Y-83400000D01*
D61*
X165820000Y-85050000D02*
X165410000Y-84640000D01*
D62*
X133720000Y-114175000D02*
X133924800Y-113970200D01*
X157150000Y-120775000D02*
X156750000Y-121175000D01*
D65*
X167800000Y-65575000D02*
X167800000Y-66410000D01*
D63*
X139775000Y-87700000D02*
X139775000Y-88535000D01*
D62*
X134695202Y-104189300D02*
X134695202Y-103159300D01*
X156250000Y-112695000D02*
X156250000Y-111770000D01*
X133970700Y-105249300D02*
X134665202Y-105249300D01*
X143422746Y-116949999D02*
X143300001Y-116949999D01*
D61*
X171497500Y-98000000D02*
X172870000Y-98000000D01*
D62*
X137725200Y-110690200D02*
X137735200Y-110700200D01*
D61*
X119440000Y-85450000D02*
X119710000Y-85720000D01*
D63*
X137535000Y-85165000D02*
X136775000Y-85165000D01*
D62*
X137400000Y-106000000D02*
X137605202Y-105794798D01*
D65*
X164000000Y-65550000D02*
X163980000Y-65570000D01*
D62*
X132591149Y-97550001D02*
X131540001Y-97550001D01*
D65*
X125725000Y-62400000D02*
X129447500Y-62400000D01*
D62*
X135685200Y-110690200D02*
X136600000Y-110690200D01*
D61*
X172860000Y-86070000D02*
X172980000Y-85950000D01*
X165782500Y-98000000D02*
X171497500Y-98000000D01*
D63*
X153100000Y-83575000D02*
X153055000Y-83575000D01*
D61*
X147850000Y-91895000D02*
X147850000Y-92800000D01*
X164210000Y-92020000D02*
X164210000Y-92010000D01*
D62*
X137605202Y-104169300D02*
X137605202Y-102555202D01*
D65*
X163920000Y-81170000D02*
X163920000Y-80293800D01*
D63*
X137990000Y-82300000D02*
X138750000Y-82300000D01*
D62*
X135590000Y-118820000D02*
X135585200Y-118815200D01*
D61*
X164200000Y-92010000D02*
X164210000Y-92020000D01*
D62*
X148080000Y-117560000D02*
X147860000Y-117340000D01*
D61*
X120952500Y-97970000D02*
X119680000Y-97970000D01*
D62*
X142861200Y-117388800D02*
X142545201Y-117388800D01*
D61*
X126597500Y-91730000D02*
X127890000Y-91730000D01*
D65*
X162950000Y-70475000D02*
X163257400Y-70782400D01*
D61*
X119710000Y-85720000D02*
X120882500Y-85720000D01*
D62*
X156750000Y-121175000D02*
X156750000Y-121885000D01*
D65*
X163925000Y-81175000D02*
X163920000Y-81170000D01*
D61*
X119680000Y-97970000D02*
X119420000Y-97710000D01*
X137770000Y-95760000D02*
X138110000Y-95760000D01*
D63*
X137990000Y-83290000D02*
X138760000Y-83290000D01*
D61*
X128140000Y-85630000D02*
X128122500Y-85647500D01*
D63*
X152853058Y-81043058D02*
X152826116Y-81070000D01*
D61*
X164210000Y-98000000D02*
X164200000Y-98010000D01*
D62*
X173380000Y-74750000D02*
X173380000Y-75590000D01*
D61*
X127210000Y-97970000D02*
X126667500Y-97970000D01*
X129270000Y-98790000D02*
X129590000Y-98470000D01*
D62*
X137605202Y-105794798D02*
X137605202Y-104169300D01*
X137605202Y-102555202D02*
X137275000Y-102225000D01*
D63*
X139875000Y-87600000D02*
X139837500Y-87637500D01*
D62*
X131540001Y-97550001D02*
X131300000Y-97310000D01*
D61*
X171507500Y-92050000D02*
X172890000Y-92050000D01*
D64*
X141085200Y-108640200D02*
X142300000Y-108640200D01*
D65*
X122175000Y-62400000D02*
X123732500Y-62400000D01*
D62*
X137400000Y-105900000D02*
X137500000Y-105800000D01*
D63*
X153100000Y-83575000D02*
X153000000Y-83575000D01*
D62*
X127925000Y-115650000D02*
X128275000Y-115300000D01*
D61*
X137845000Y-95685000D02*
X137770000Y-95760000D01*
D63*
X153055000Y-83575000D02*
X152875000Y-83395000D01*
D62*
X134010700Y-103129300D02*
X134665202Y-103129300D01*
D61*
X149580000Y-87570000D02*
X149510000Y-87500000D01*
D63*
X152825000Y-83400000D02*
X152125000Y-83400000D01*
D62*
X157600000Y-92645000D02*
X155930000Y-92645000D01*
D65*
X167820000Y-81160000D02*
X167820000Y-80300000D01*
D62*
X146175000Y-97875000D02*
X146175000Y-96575000D01*
X156535000Y-111485000D02*
X156575000Y-111445000D01*
X149745000Y-98025000D02*
X149075000Y-98025000D01*
D61*
X150390000Y-87570000D02*
X149580000Y-87570000D01*
D62*
X135585200Y-118815200D02*
X135585200Y-117400200D01*
X147860000Y-117340000D02*
X147240000Y-117340000D01*
D61*
X165792500Y-92050000D02*
X171507500Y-92050000D01*
X172890000Y-92050000D02*
X172925000Y-92015000D01*
D65*
X123732500Y-62400000D02*
X125725000Y-62400000D01*
X164890000Y-59482500D02*
X164457500Y-59050000D01*
D61*
X127890000Y-91730000D02*
X128070000Y-91550000D01*
D65*
X164890000Y-60200000D02*
X164890000Y-59482500D01*
D62*
X128275000Y-115300000D02*
X129100000Y-115300000D01*
D65*
X158340000Y-59452500D02*
X158742500Y-59050000D01*
D61*
X165820000Y-86070000D02*
X171535000Y-86070000D01*
X171535000Y-86070000D02*
X172860000Y-86070000D01*
X138110000Y-95760000D02*
X138925000Y-96575000D01*
D62*
X143372745Y-117000000D02*
X143250000Y-117000000D01*
D65*
X131075000Y-62400000D02*
X129447500Y-62400000D01*
D62*
X139320000Y-118871372D02*
X138874314Y-118425686D01*
D61*
X129590000Y-98470000D02*
X130150000Y-98470000D01*
D63*
X139837500Y-87637500D02*
X139775000Y-87700000D01*
D62*
X134665202Y-105249300D02*
X134665202Y-104219300D01*
D61*
X165782500Y-98000000D02*
X164210000Y-98000000D01*
X120882500Y-85720000D02*
X126597500Y-85720000D01*
D62*
X156722000Y-118403000D02*
X157150000Y-117975000D01*
D61*
%TO.N,+3V3*%
X145212200Y-87362070D02*
X146375000Y-88524870D01*
D63*
X143212200Y-85400000D02*
X143087200Y-85275000D01*
D61*
X148249700Y-81382200D02*
X149327699Y-81382200D01*
D62*
X134705202Y-100734798D02*
X134705202Y-101059300D01*
D63*
X141930000Y-84980000D02*
X141776900Y-84980000D01*
D62*
X130160000Y-99530000D02*
X130160000Y-100010000D01*
D65*
X139812200Y-85382200D02*
X141374700Y-85382200D01*
D62*
X153775000Y-99000000D02*
X153550000Y-99225000D01*
D61*
X149175000Y-85382200D02*
X148249700Y-85382200D01*
D65*
X139790000Y-85360000D02*
X139812200Y-85382200D01*
D61*
X147850000Y-90935000D02*
X147850000Y-89999870D01*
X151060000Y-81060000D02*
X151070000Y-81070000D01*
D63*
X139790000Y-84550000D02*
X140222200Y-84982200D01*
D61*
X139992200Y-82582200D02*
X141374700Y-82582200D01*
D63*
X142012200Y-79144700D02*
X142012200Y-78662200D01*
D61*
X149400000Y-85607200D02*
X149400000Y-86430000D01*
D62*
X141280000Y-78130000D02*
X141280000Y-77940000D01*
X141210000Y-78060000D02*
X141280000Y-78130000D01*
X173540000Y-64420000D02*
X172630000Y-64420000D01*
D63*
X145125000Y-85275000D02*
X145212200Y-85362200D01*
X144812200Y-85387800D02*
X144925000Y-85275000D01*
D61*
X149400000Y-85607200D02*
X149175000Y-85382200D01*
D63*
X142081160Y-84982200D02*
X142373960Y-85275000D01*
D62*
X130430000Y-100280000D02*
X135160000Y-100280000D01*
X147725000Y-67600000D02*
X146700000Y-67600000D01*
X165875000Y-64450000D02*
X165845000Y-64420000D01*
X172800000Y-76550000D02*
X173380000Y-76550000D01*
X150705000Y-98025000D02*
X150705000Y-96760000D01*
D63*
X140222200Y-84982200D02*
X142081160Y-84982200D01*
D62*
X173700000Y-77375000D02*
X173380000Y-77055000D01*
D61*
X145212200Y-86019700D02*
X145212200Y-87362070D01*
D63*
X145212200Y-85362200D02*
X145212200Y-86019700D01*
D61*
X139710000Y-82300000D02*
X139992200Y-82582200D01*
X149400000Y-86430000D02*
X149510000Y-86540000D01*
D62*
X173380000Y-77055000D02*
X173380000Y-76550000D01*
X169780000Y-64410000D02*
X168870000Y-64410000D01*
X135160000Y-100280000D02*
X134705202Y-100734798D01*
X153775000Y-98025000D02*
X156365000Y-98025000D01*
X130160000Y-100010000D02*
X130430000Y-100280000D01*
X134675202Y-102089300D02*
X134675202Y-101089300D01*
D63*
X144925000Y-85275000D02*
X145125000Y-85275000D01*
X143212200Y-86019700D02*
X143212200Y-85400000D01*
D61*
X149327699Y-81382200D02*
X149649899Y-81060000D01*
D62*
X165698800Y-82273800D02*
X164960000Y-82273800D01*
D63*
X142012200Y-78662200D02*
X141480000Y-78130000D01*
X150470000Y-96525000D02*
X150400000Y-96455000D01*
D62*
X153775000Y-98025000D02*
X153775000Y-99000000D01*
X165845000Y-64420000D02*
X165000000Y-64420000D01*
X146700000Y-67600000D02*
X146650000Y-67550000D01*
D63*
X142373960Y-85275000D02*
X142225000Y-85275000D01*
X144812200Y-86019700D02*
X144812200Y-85387800D01*
D62*
X134675202Y-101089300D02*
X134705202Y-101059300D01*
X167970000Y-82270000D02*
X168850000Y-82270000D01*
D61*
X149649899Y-81060000D02*
X151060000Y-81060000D01*
D62*
X135160000Y-100280000D02*
X136600000Y-98840000D01*
X165850000Y-82425000D02*
X165698800Y-82273800D01*
D63*
X143087200Y-85275000D02*
X142225000Y-85275000D01*
D62*
X150705000Y-96760000D02*
X150400000Y-96455000D01*
X171960000Y-75710000D02*
X172800000Y-76550000D01*
X156365000Y-98025000D02*
X156440000Y-98100000D01*
D63*
X141480000Y-78130000D02*
X141280000Y-78130000D01*
X142225000Y-85275000D02*
X141930000Y-84980000D01*
D62*
X150705000Y-98025000D02*
X153775000Y-98025000D01*
X171700000Y-82275000D02*
X171701200Y-82273800D01*
D63*
X141776900Y-84980000D02*
X141374700Y-85382200D01*
D61*
X147850000Y-89999870D02*
X146375000Y-88524870D01*
D62*
X139775000Y-91485000D02*
X139775000Y-92125000D01*
X141280000Y-77940000D02*
X140580000Y-77240000D01*
D61*
X136579998Y-96604998D02*
X136600000Y-96625000D01*
D62*
X171701200Y-82273800D02*
X172610000Y-82273800D01*
D61*
%TO.N,+1V1*%
X141374700Y-82982200D02*
X142507200Y-82982200D01*
D65*
X147200000Y-83400000D02*
X147180000Y-83420000D01*
D61*
X150300000Y-83400000D02*
X147200000Y-83400000D01*
D65*
X144770000Y-80280000D02*
X142525000Y-80280000D01*
D61*
X140027800Y-82982200D02*
X141374700Y-82982200D01*
D62*
X150300000Y-83400000D02*
X151165000Y-83400000D01*
D65*
X147180000Y-83380000D02*
X147180000Y-80280000D01*
X142550000Y-84850000D02*
X143675000Y-84850000D01*
D61*
X142507200Y-82982200D02*
X142525000Y-83000000D01*
X143612200Y-86019700D02*
X143625000Y-86006900D01*
D65*
X147200000Y-83400000D02*
X147180000Y-83380000D01*
D61*
X144825000Y-80225000D02*
X144775000Y-80275000D01*
X139720000Y-83290000D02*
X140027800Y-82982200D01*
D65*
X147180000Y-83420000D02*
X147180000Y-84850000D01*
X144240000Y-84850000D02*
X144512908Y-84850000D01*
X147180000Y-80280000D02*
X144780000Y-80280000D01*
X144240000Y-84850000D02*
X143675000Y-84850000D01*
D61*
X143625000Y-84900000D02*
X143675000Y-84850000D01*
D65*
X144775000Y-80275000D02*
X144770000Y-80280000D01*
X147180000Y-84850000D02*
X144512908Y-84850000D01*
X144780000Y-80280000D02*
X144775000Y-80275000D01*
X142525000Y-80280000D02*
X142525000Y-84825000D01*
X142525000Y-84825000D02*
X142550000Y-84850000D01*
X144467798Y-84850000D02*
X144512908Y-84850000D01*
X144400000Y-84782202D02*
X144467798Y-84850000D01*
D61*
X143625000Y-86006900D02*
X143625000Y-84900000D01*
D63*
%TO.N,/VREG_AVDD*%
X141571900Y-86460000D02*
X141200000Y-86460000D01*
X139775000Y-89495000D02*
X139775000Y-90465000D01*
X140675000Y-86985000D02*
X140675000Y-88595000D01*
X141200000Y-86460000D02*
X140675000Y-86985000D01*
X142012200Y-86019700D02*
X141571900Y-86460000D01*
X140675000Y-88595000D02*
X139775000Y-89495000D01*
X139785000Y-90475000D02*
X139775000Y-90465000D01*
D62*
%TO.N,VBUS*%
X144340000Y-121440000D02*
X144340000Y-121050000D01*
D64*
X139505200Y-114744800D02*
X139500000Y-114750000D01*
D62*
X133145200Y-107320200D02*
X134045200Y-108220200D01*
X134175400Y-111850000D02*
X135825000Y-111850000D01*
D64*
X144340000Y-121440000D02*
X144340000Y-122960000D01*
D62*
X140120000Y-120485000D02*
X140120000Y-119945000D01*
D64*
X140840000Y-121360000D02*
X140840000Y-123140000D01*
D62*
X140840000Y-121360000D02*
X140840000Y-121205000D01*
D64*
X137485200Y-117400200D02*
X138980200Y-117400200D01*
X140840000Y-123140000D02*
X141000000Y-123300000D01*
D62*
X134045200Y-108220200D02*
X134045200Y-110070200D01*
D64*
X139505200Y-113860200D02*
X139505200Y-114744800D01*
D62*
X140840000Y-121205000D02*
X140120000Y-120485000D01*
X144520000Y-120870000D02*
X144523120Y-120870000D01*
D64*
X140120000Y-118540000D02*
X140120000Y-119945000D01*
D62*
X136040200Y-112065200D02*
X134665200Y-110690200D01*
D64*
X138980200Y-117400200D02*
X140120000Y-118540000D01*
X144340000Y-122960000D02*
X144000000Y-123300000D01*
D62*
X136225000Y-113842500D02*
X136225000Y-112250000D01*
D65*
X152790000Y-121885000D02*
X151505000Y-123170000D01*
D62*
X137302700Y-114920200D02*
X136225000Y-113842500D01*
X134045200Y-110070200D02*
X134665200Y-110690200D01*
X133055200Y-112970200D02*
X134175400Y-111850000D01*
D64*
X141000000Y-123300000D02*
X143325000Y-123300000D01*
D65*
X151505000Y-123170000D02*
X144130000Y-123170000D01*
D62*
X135825000Y-111850000D02*
X136040200Y-112065200D01*
D64*
X144000000Y-123300000D02*
X143325000Y-123300000D01*
D62*
X136225000Y-112250000D02*
X136040200Y-112065200D01*
X144920000Y-120473120D02*
X144920000Y-119945000D01*
D65*
X144130000Y-123170000D02*
X144000000Y-123300000D01*
D62*
X144340000Y-121050000D02*
X144520000Y-120870000D01*
X144523120Y-120870000D02*
X144920000Y-120473120D01*
D65*
%TO.N,/VBAT*%
X152728000Y-117997000D02*
X152728000Y-116405000D01*
D66*
X131000000Y-115300000D02*
X131000000Y-112055000D01*
D62*
X152705000Y-119165000D02*
X152715000Y-119175000D01*
D65*
X152640000Y-119250000D02*
X152715000Y-119175000D01*
D64*
X134972900Y-114975000D02*
X135027700Y-114920200D01*
X131325000Y-114975000D02*
X134972900Y-114975000D01*
D65*
X151625000Y-119100000D02*
X152728000Y-117997000D01*
X151625000Y-119250000D02*
X152640000Y-119250000D01*
X151625000Y-119250000D02*
X151625000Y-119100000D01*
D64*
X131000000Y-115300000D02*
X131325000Y-114975000D01*
D65*
%TO.N,Net-(C21-Pad1)*%
X171590000Y-67350000D02*
X172590000Y-67350000D01*
X171960000Y-67720000D02*
X171590000Y-67350000D01*
X172590000Y-67350000D02*
X172620000Y-67380000D01*
X171960000Y-70782400D02*
X171960000Y-67720000D01*
%TO.N,Net-(C23-Pad1)*%
X169420000Y-70782400D02*
X169420000Y-67940000D01*
X169420000Y-67940000D02*
X168880000Y-67400000D01*
X168850000Y-67370000D02*
X168880000Y-67400000D01*
X167800000Y-67370000D02*
X168850000Y-67370000D01*
%TO.N,Net-(C24-Pad1)*%
X166880000Y-69260000D02*
X165000000Y-67380000D01*
X166880000Y-70782400D02*
X166880000Y-69260000D01*
X163980000Y-67363800D02*
X164983800Y-67363800D01*
X164983800Y-67363800D02*
X165000000Y-67380000D01*
%TO.N,Net-(C25-Pad1)*%
X165610000Y-78660000D02*
X164950000Y-79320000D01*
X164936200Y-79333800D02*
X164950000Y-79320000D01*
X165610000Y-75710000D02*
X165610000Y-78660000D01*
X163920000Y-79333800D02*
X164936200Y-79333800D01*
%TO.N,Net-(C26-Pad1)*%
X168150000Y-79010000D02*
X167820000Y-79340000D01*
X167830000Y-79330000D02*
X167820000Y-79340000D01*
X168840000Y-79330000D02*
X167830000Y-79330000D01*
X168150000Y-75710000D02*
X168150000Y-79010000D01*
%TO.N,Net-(C27-Pad1)*%
X172600000Y-79310000D02*
X171610000Y-79310000D01*
X170690000Y-78410000D02*
X171600000Y-79320000D01*
X171610000Y-79310000D02*
X171600000Y-79320000D01*
X170690000Y-75710000D02*
X170690000Y-78410000D01*
D62*
%TO.N,/USB_D+*%
X143023120Y-120870000D02*
X143270000Y-120623120D01*
X142270000Y-120623120D02*
X142516880Y-120870000D01*
D63*
X142945200Y-118341980D02*
X142945200Y-118430200D01*
D62*
X142270000Y-119945000D02*
X142270000Y-120623120D01*
D67*
X146431700Y-95493300D02*
X146431700Y-91783301D01*
X146675000Y-91540001D02*
X146675000Y-91060000D01*
D62*
X143270000Y-118755000D02*
X143270000Y-119945000D01*
D67*
X146431700Y-91783301D02*
X146675000Y-91540001D01*
X147080000Y-95890070D02*
X146683230Y-95493300D01*
X142945200Y-118430200D02*
X142945200Y-118426970D01*
D62*
X142516880Y-120870000D02*
X143023120Y-120870000D01*
D67*
X142945200Y-118426970D02*
X146431700Y-114940470D01*
X147080000Y-97969425D02*
X147080000Y-95890070D01*
D62*
X143270000Y-120623120D02*
X143270000Y-119945000D01*
D67*
X146431700Y-98581700D02*
X146467725Y-98581700D01*
X146683230Y-95493300D02*
X146431700Y-95493300D01*
X146467725Y-98581700D02*
X147080000Y-97969425D01*
X146431700Y-114940470D02*
X146431700Y-98581700D01*
D62*
X142945200Y-118430200D02*
X143270000Y-118755000D01*
%TO.N,/USB_D-*%
X142523120Y-119020000D02*
X141975000Y-119020000D01*
D67*
X145868300Y-91783301D02*
X145625000Y-91540001D01*
X145625000Y-91540001D02*
X145625000Y-91060000D01*
X142038501Y-117047429D02*
X142842630Y-116243300D01*
X144332102Y-116243300D02*
X145868300Y-114707102D01*
X142842630Y-116243300D02*
X144332102Y-116243300D01*
X142074201Y-117634382D02*
X142038501Y-117598682D01*
X142474200Y-118101202D02*
X142474200Y-117948700D01*
D62*
X141770000Y-118805402D02*
X141770000Y-119945000D01*
D67*
X145250000Y-97949425D02*
X145250000Y-95910070D01*
D63*
X141770000Y-119945000D02*
X141770000Y-119337590D01*
D62*
X142770000Y-119266880D02*
X142523120Y-119020000D01*
X142770000Y-119945000D02*
X142770000Y-119266880D01*
D67*
X142074201Y-117948700D02*
X142074201Y-117634382D01*
D62*
X141770000Y-119225000D02*
X141770000Y-119337590D01*
D67*
X145250000Y-95910070D02*
X145666770Y-95493300D01*
X142038501Y-117598682D02*
X142038501Y-117047429D01*
X142145202Y-118430200D02*
X142474200Y-118101202D01*
X145868300Y-114707102D02*
X145868300Y-98567725D01*
D62*
X142145202Y-118430200D02*
X141770000Y-118805402D01*
D67*
X145868300Y-98567725D02*
X145250000Y-97949425D01*
D62*
X141975000Y-119020000D02*
X141770000Y-119225000D01*
D67*
X145666770Y-95493300D02*
X145868300Y-95493300D01*
X142474200Y-117948700D02*
X142074201Y-117948700D01*
X145868300Y-95493300D02*
X145868300Y-91783301D01*
D62*
%TO.N,/DIO1*%
X151130000Y-60470000D02*
X152880000Y-60470000D01*
X136410000Y-72070000D02*
X136410000Y-72075000D01*
X150875000Y-60725000D02*
X151130000Y-60470000D01*
%TO.N,/USB_CC1*%
X141270000Y-117930000D02*
X141125000Y-117785000D01*
X141270000Y-119945000D02*
X141270000Y-117930000D01*
%TO.N,/USB_CC2*%
X144270000Y-119945000D02*
X144270000Y-118830000D01*
X144270000Y-118830000D02*
X145760000Y-117340000D01*
X145760000Y-117340000D02*
X146220000Y-117340000D01*
%TO.N,/uC_RESET*%
X138840000Y-64390000D02*
X137495000Y-63045000D01*
X139555000Y-80145000D02*
X138840000Y-79430000D01*
D61*
X139555000Y-80145000D02*
X139592200Y-80182200D01*
D62*
X138840000Y-79430000D02*
X138840000Y-64390000D01*
D61*
X139592200Y-80182200D02*
X141374700Y-80182200D01*
%TO.N,/uC_BUSY*%
X138982200Y-80582200D02*
X141374700Y-80582200D01*
X138905000Y-80505000D02*
X138982200Y-80582200D01*
D62*
X137650000Y-79250000D02*
X137650000Y-65740000D01*
X138905000Y-80505000D02*
X137650000Y-79250000D01*
X137650000Y-65740000D02*
X137495000Y-65585000D01*
%TO.N,/CS{slash}NSS*%
X141975000Y-75605000D02*
X142200000Y-75830000D01*
D61*
X142350000Y-75980000D02*
X142200000Y-75830000D01*
D62*
X137495000Y-52885000D02*
X141975000Y-57365000D01*
D61*
X142350000Y-77875026D02*
X142350000Y-75980000D01*
X142812200Y-78337226D02*
X142350000Y-77875026D01*
D62*
X141975000Y-57365000D02*
X141975000Y-75605000D01*
D61*
X142812200Y-79144700D02*
X142812200Y-78337226D01*
%TO.N,/SPI0_TX*%
X140282200Y-79782200D02*
X141374700Y-79782200D01*
X140230000Y-79730000D02*
X140282200Y-79782200D01*
D62*
X139850000Y-60320000D02*
X137495000Y-57965000D01*
X139850000Y-79350000D02*
X139850000Y-60320000D01*
X140230000Y-79730000D02*
X139850000Y-79350000D01*
D61*
%TO.N,/SPI0_CLK*%
X141905000Y-76515000D02*
X141480000Y-76090000D01*
X142412200Y-78432200D02*
X141905000Y-77925000D01*
D62*
X140925000Y-75535000D02*
X140925000Y-58855000D01*
X140925000Y-58855000D02*
X137495000Y-55425000D01*
D61*
X141905000Y-77925000D02*
X141905000Y-76515000D01*
D62*
X141480000Y-76090000D02*
X140925000Y-75535000D01*
D61*
X142412200Y-79144700D02*
X142412200Y-78432200D01*
D62*
%TO.N,/DISPLAY_RESET*%
X149850000Y-36970000D02*
X149850000Y-37760000D01*
X152520000Y-36020000D02*
X150800000Y-36020000D01*
X156520000Y-69100000D02*
X156520000Y-40020000D01*
X150800000Y-36020000D02*
X149850000Y-36970000D01*
X156520000Y-40020000D02*
X152520000Y-36020000D01*
X156520000Y-69170000D02*
X156520000Y-69100000D01*
%TO.N,/DISPLAY_BUSY*%
X155330000Y-41240000D02*
X151850000Y-37760000D01*
X155330000Y-69280000D02*
X155330000Y-41240000D01*
D61*
%TO.N,/SPI1_CLK*%
X149042776Y-80182200D02*
X150354976Y-78870000D01*
D62*
X152775000Y-70500000D02*
X145850000Y-63575000D01*
X145850000Y-63575000D02*
X145850000Y-39760000D01*
X152775000Y-77295000D02*
X152775000Y-70500000D01*
D61*
X150354976Y-78870000D02*
X151200000Y-78870000D01*
X148249700Y-80182200D02*
X149042776Y-80182200D01*
D62*
X145850000Y-39760000D02*
X143850000Y-37760000D01*
X151200000Y-78870000D02*
X152775000Y-77295000D01*
%TO.N,/DISPLAY_DC*%
X154130000Y-70005000D02*
X149475000Y-65350000D01*
X152990000Y-80230000D02*
X154130000Y-79090000D01*
X149475000Y-39385000D02*
X147850000Y-37760000D01*
X149475000Y-65350000D02*
X149475000Y-39385000D01*
D61*
X149232725Y-80982200D02*
X149984925Y-80230000D01*
X149984925Y-80230000D02*
X152990000Y-80230000D01*
D62*
X154130000Y-79090000D02*
X154130000Y-70005000D01*
D61*
X148249700Y-80982200D02*
X149232725Y-80982200D01*
D62*
%TO.N,/SPI1_CS*%
X147650000Y-39560000D02*
X145850000Y-37760000D01*
X147650000Y-64450000D02*
X147650000Y-39560000D01*
D61*
X152320000Y-79510000D02*
X150209950Y-79510000D01*
X150209950Y-79510000D02*
X149137750Y-80582200D01*
D62*
X153400000Y-70200000D02*
X147650000Y-64450000D01*
X153400000Y-78430000D02*
X153400000Y-70200000D01*
D61*
X149137750Y-80582200D02*
X148249700Y-80582200D01*
D62*
X152320000Y-79510000D02*
X153400000Y-78430000D01*
D65*
%TO.N,/RUN_IN*%
X129550000Y-67540000D02*
X129550000Y-65502500D01*
X129625000Y-65577500D02*
X129447500Y-65400000D01*
X129550000Y-65502500D02*
X129447500Y-65400000D01*
X123732500Y-65400000D02*
X129447500Y-65400000D01*
%TO.N,/RUN*%
X129575000Y-72900000D02*
X129550000Y-72925000D01*
X129550000Y-72775000D02*
X129550000Y-72875000D01*
X129550000Y-72875000D02*
X129575000Y-72900000D01*
X129550000Y-68560000D02*
X129550000Y-72775000D01*
X129550000Y-89450000D02*
X129525000Y-89475000D01*
X129550000Y-72925000D02*
X129550000Y-89450000D01*
D61*
%TO.N,/QSPI_SS*%
X159400000Y-91310050D02*
X159400000Y-95720000D01*
X158665000Y-96455000D02*
X157600000Y-96455000D01*
X159555000Y-90575000D02*
X160730000Y-91750000D01*
X147612200Y-86792226D02*
X151394974Y-90575000D01*
X158664950Y-90575000D02*
X159555000Y-90575000D01*
X151394974Y-90575000D02*
X158664950Y-90575000D01*
X147612200Y-86019700D02*
X147612200Y-86792226D01*
X159400000Y-95720000D02*
X158665000Y-96455000D01*
X158664950Y-90575000D02*
X159400000Y-91310050D01*
D63*
X157460000Y-96595000D02*
X157600000Y-96455000D01*
X157460000Y-98100000D02*
X157460000Y-96595000D01*
D65*
%TO.N,/~{USB_BOOT}*%
X163050000Y-84300000D02*
X163660000Y-84910000D01*
X160125000Y-70125000D02*
X158742500Y-68742500D01*
X158742500Y-68742500D02*
X158742500Y-62050000D01*
X158742500Y-62050000D02*
X164457500Y-62050000D01*
X163660000Y-84910000D02*
X163660000Y-89830000D01*
X163660000Y-89830000D02*
X161750000Y-91740000D01*
X160975000Y-84300000D02*
X163050000Y-84300000D01*
X160525000Y-83850000D02*
X160975000Y-84300000D01*
X161750000Y-91740000D02*
X161750000Y-91750000D01*
D61*
%TO.N,Net-(U1-USB_DP)*%
X146675000Y-90040000D02*
X146675000Y-89319844D01*
X144412200Y-87057044D02*
X144412200Y-86019700D01*
X146675000Y-89319844D02*
X144412200Y-87057044D01*
%TO.N,Net-(U1-USB_DM)*%
X144012200Y-87213671D02*
X144012200Y-86019700D01*
X145625000Y-90040000D02*
X145625000Y-88826471D01*
X145625000Y-88826471D02*
X144012200Y-87213671D01*
D62*
%TO.N,Net-(U4-PROG)*%
X137302700Y-112152700D02*
X137735200Y-111720200D01*
X137302700Y-113020200D02*
X137302700Y-112152700D01*
D61*
%TO.N,Net-(R16-Pad1)*%
X171507500Y-95050000D02*
X172960000Y-95050000D01*
X174770000Y-67580000D02*
X172630000Y-65440000D01*
X174770000Y-93240000D02*
X174770000Y-67580000D01*
D65*
X172620000Y-66360000D02*
X172620000Y-65450000D01*
X172620000Y-65450000D02*
X172630000Y-65440000D01*
D61*
X171507500Y-95050000D02*
X165792500Y-95050000D01*
X172960000Y-95050000D02*
X174770000Y-93240000D01*
%TO.N,Net-(R18-Pad2)*%
X171700000Y-63550000D02*
X169820000Y-65430000D01*
X171497500Y-101000000D02*
X165782500Y-101000000D01*
X171497500Y-101000000D02*
X173070000Y-101000000D01*
X173070000Y-101000000D02*
X176140000Y-97930000D01*
X174200000Y-63550000D02*
X171700000Y-63550000D01*
X169050000Y-65490000D02*
X169100000Y-65540000D01*
X169820000Y-65430000D02*
X168870000Y-65430000D01*
D65*
X168880000Y-65440000D02*
X168870000Y-65430000D01*
D61*
X176140000Y-65490000D02*
X174200000Y-63550000D01*
X176140000Y-97930000D02*
X176140000Y-65490000D01*
D65*
X168880000Y-66380000D02*
X168880000Y-65440000D01*
D61*
%TO.N,Net-(R20-Pad2)*%
X120882500Y-88720000D02*
X126597500Y-88720000D01*
D63*
X165950000Y-66360000D02*
X165000000Y-66360000D01*
D65*
X165000000Y-66360000D02*
X165000000Y-65440000D01*
D61*
X128260000Y-88720000D02*
X126597500Y-88720000D01*
X128360000Y-88620000D02*
X128260000Y-88720000D01*
D63*
X165990000Y-66400000D02*
X165950000Y-66360000D01*
D61*
%TO.N,Net-(R22-Pad2)*%
X171535000Y-89070000D02*
X165820000Y-89070000D01*
D65*
X164950000Y-80340000D02*
X164950000Y-81243800D01*
D61*
X164360000Y-81853800D02*
X164960000Y-81253800D01*
X164360000Y-87610000D02*
X164360000Y-81853800D01*
X165820000Y-89070000D02*
X164360000Y-87610000D01*
D65*
X164950000Y-81243800D02*
X164960000Y-81253800D01*
D61*
%TO.N,Net-(R23-Pad2)*%
X128360000Y-94650000D02*
X128280000Y-94730000D01*
X120882500Y-94730000D02*
X126597500Y-94730000D01*
X128280000Y-94730000D02*
X126597500Y-94730000D01*
D65*
X168840000Y-80350000D02*
X168840000Y-81240000D01*
X168840000Y-81240000D02*
X168850000Y-81250000D01*
D63*
X169980000Y-82380000D02*
X168850000Y-81250000D01*
X169980000Y-83220000D02*
X169980000Y-82380000D01*
D61*
%TO.N,Net-(R24-Pad2)*%
X120952500Y-100970000D02*
X126667500Y-100970000D01*
D63*
X173800000Y-82575000D02*
X173800000Y-82443800D01*
D61*
X128430000Y-100830000D02*
X128355000Y-100905000D01*
D65*
X172600000Y-81243800D02*
X172610000Y-81253800D01*
D61*
X128290000Y-100970000D02*
X126667500Y-100970000D01*
D63*
X173800000Y-82443800D02*
X172610000Y-81253800D01*
D61*
X128355000Y-100905000D02*
X128290000Y-100970000D01*
D65*
X172600000Y-80330000D02*
X172600000Y-81243800D01*
D61*
%TO.N,/BTN_BACK*%
X158600000Y-81030000D02*
X156835000Y-82795000D01*
X170690000Y-71493600D02*
X168463600Y-73720000D01*
X168463600Y-73720000D02*
X162410000Y-73720000D01*
X150303959Y-82795000D02*
X150116759Y-82982200D01*
X150116759Y-82982200D02*
X148249700Y-82982200D01*
X170690000Y-70782400D02*
X170690000Y-71493600D01*
X158600000Y-77530000D02*
X158600000Y-81030000D01*
X156835000Y-82795000D02*
X150303959Y-82795000D01*
X162410000Y-73720000D02*
X158600000Y-77530000D01*
%TO.N,/BTN_MACRO_B*%
X159560000Y-78000000D02*
X159560000Y-81560000D01*
X163290000Y-74270000D02*
X159560000Y-78000000D01*
X166880000Y-75710000D02*
X166880000Y-74998800D01*
X151254922Y-84450000D02*
X156670000Y-84450000D01*
X148249700Y-83799700D02*
X148269400Y-83780000D01*
X166151200Y-74270000D02*
X163290000Y-74270000D01*
X166880000Y-74998800D02*
X166151200Y-74270000D01*
X150078959Y-83780000D02*
X150123959Y-83825000D01*
X159560000Y-81560000D02*
X159055000Y-82065000D01*
X148269400Y-83780000D02*
X150078959Y-83780000D01*
X150629922Y-83825000D02*
X151254922Y-84450000D01*
X150123959Y-83825000D02*
X150629922Y-83825000D01*
X156670000Y-84450000D02*
X159180000Y-81940000D01*
X148249700Y-83782200D02*
X148249700Y-83799700D01*
%TO.N,/QSPI_SD3*%
X145612200Y-87267096D02*
X148950000Y-90604896D01*
X145612200Y-86019700D02*
X145612200Y-87258036D01*
X148950000Y-94620000D02*
X149515000Y-95185000D01*
X149515000Y-95185000D02*
X150400000Y-95185000D01*
X148950000Y-90604896D02*
X148950000Y-94620000D01*
%TO.N,/BTN_MACRO_A*%
X151259948Y-84950000D02*
X150492148Y-84182200D01*
X164340000Y-75710000D02*
X163400000Y-75710000D01*
X150492148Y-84182200D02*
X148249700Y-84182200D01*
X158000000Y-84950000D02*
X151259948Y-84950000D01*
X163400000Y-75710000D02*
X160330000Y-78780000D01*
X160330000Y-82620000D02*
X158000000Y-84950000D01*
X160330000Y-78780000D02*
X160330000Y-82620000D01*
%TO.N,/QSPI_SD2*%
X158700000Y-93650000D02*
X158435000Y-93915000D01*
X158400000Y-91300000D02*
X158700000Y-91600000D01*
X158435000Y-93915000D02*
X157600000Y-93915000D01*
X151130026Y-91300000D02*
X158400000Y-91300000D01*
X146812200Y-86982174D02*
X151130026Y-91300000D01*
X158700000Y-91600000D02*
X158700000Y-93650000D01*
X146812200Y-86019700D02*
X146812200Y-86982174D01*
%TO.N,/BTN_NEXT*%
X154345000Y-82095000D02*
X156620000Y-79820000D01*
X156620000Y-79820000D02*
X156620000Y-78830000D01*
X161100000Y-72580000D02*
X156620000Y-77060000D01*
X156620000Y-77060000D02*
X156620000Y-79020000D01*
X148249700Y-82182200D02*
X149867800Y-82182200D01*
X165610000Y-70782400D02*
X165610000Y-71493600D01*
X165610000Y-71493600D02*
X164523600Y-72580000D01*
X149955000Y-82095000D02*
X154345000Y-82095000D01*
X149867800Y-82182200D02*
X149955000Y-82095000D01*
X164523600Y-72580000D02*
X161100000Y-72580000D01*
%TO.N,unconnected-(U1-GPIO16-Pad27)*%
X143212200Y-79144700D02*
X143230000Y-79126900D01*
%TO.N,/QSPI_SD1*%
X158519975Y-90925000D02*
X159050000Y-91455025D01*
X159050000Y-94860000D02*
X158725000Y-95185000D01*
X147212200Y-86887200D02*
X151250000Y-90925000D01*
X151250000Y-90925000D02*
X158519975Y-90925000D01*
X158725000Y-95185000D02*
X157600000Y-95185000D01*
X147212200Y-86019700D02*
X147212200Y-86887200D01*
X159050000Y-91455025D02*
X159050000Y-94860000D01*
%TO.N,/UART_Tx_DEBUG*%
X150287275Y-84982200D02*
X152425075Y-87120000D01*
X152425075Y-87120000D02*
X153770000Y-87120000D01*
X148249700Y-84982200D02*
X150287275Y-84982200D01*
%TO.N,/UART_Rx_DEBUG*%
X157500000Y-85770000D02*
X158850000Y-87120000D01*
X148249700Y-84582200D02*
X150382249Y-84582200D01*
X150382249Y-84582200D02*
X151570049Y-85770000D01*
X151570049Y-85770000D02*
X157500000Y-85770000D01*
%TO.N,/BTN_OK*%
X148249700Y-82582200D02*
X149987800Y-82582200D01*
X161740000Y-73150000D02*
X157590000Y-77300000D01*
X149987800Y-82582200D02*
X150125000Y-82445000D01*
X155655000Y-82445000D02*
X157590000Y-80510000D01*
X157590000Y-80510000D02*
X157590000Y-78240000D01*
X157590000Y-77300000D02*
X157590000Y-78300000D01*
X150125000Y-82445000D02*
X155655000Y-82445000D01*
X168150000Y-71493600D02*
X166493600Y-73150000D01*
X168150000Y-70782400D02*
X168150000Y-71493600D01*
X166493600Y-73150000D02*
X161740000Y-73150000D01*
%TO.N,/QSPI_SCLK*%
X146012200Y-86019700D02*
X146012200Y-87172122D01*
X149555000Y-93915000D02*
X150400000Y-93915000D01*
X149300000Y-90459922D02*
X149300000Y-93660000D01*
X149300000Y-93660000D02*
X149555000Y-93915000D01*
X146012200Y-87172122D02*
X149300000Y-90459922D01*
%TO.N,/QSPI_SD0*%
X149750000Y-91995000D02*
X150400000Y-92645000D01*
X149750000Y-90414948D02*
X149750000Y-91995000D01*
X146412200Y-86019700D02*
X146412200Y-87077148D01*
X146412200Y-87077148D02*
X149750000Y-90414948D01*
%TO.N,/BTN_MACRO_C*%
X153035000Y-81745000D02*
X149755000Y-81745000D01*
X169420000Y-73950000D02*
X169420000Y-75710000D01*
X149717800Y-81782200D02*
X148249700Y-81782200D01*
X155360000Y-76920000D02*
X155360000Y-79420000D01*
X160380000Y-71900000D02*
X155360000Y-76920000D01*
X155360000Y-79420000D02*
X153035000Y-81745000D01*
X162975000Y-71900000D02*
X160380000Y-71900000D01*
X149755000Y-81745000D02*
X149717800Y-81782200D01*
D64*
%TO.N,/Converter_In*%
X140286402Y-103300000D02*
X139213602Y-103300000D01*
D65*
X139800000Y-105700000D02*
X140200000Y-105300000D01*
D64*
X139505200Y-108960200D02*
X139185200Y-108640200D01*
X140393201Y-103406799D02*
X140286402Y-103300000D01*
D65*
X139800000Y-105700000D02*
X139800000Y-106200000D01*
X140475000Y-103325000D02*
X140393201Y-103406799D01*
X139800000Y-105700000D02*
X139300000Y-105200000D01*
X140550000Y-103250000D02*
X140475000Y-103325000D01*
D64*
X139505200Y-110560200D02*
X139505200Y-108960200D01*
D62*
X138605200Y-106294800D02*
X138600000Y-106300000D01*
D65*
X139300000Y-105200000D02*
X139300000Y-104800000D01*
D62*
X138605200Y-104169300D02*
X138605200Y-106294800D01*
D65*
%TO.N,Net-(U3-SS_TR)*%
X135675202Y-104169300D02*
X135655202Y-104189300D01*
X136780200Y-104169300D02*
X135675202Y-104169300D01*
D66*
%TO.N,Net-(IC1-S)*%
X133055200Y-111050200D02*
X133055200Y-109330200D01*
X133055200Y-109330200D02*
X133145200Y-109240200D01*
D62*
%TO.N,/Converter_Out*%
X138105202Y-102849393D02*
X138535202Y-102419393D01*
X138535202Y-102419393D02*
X138535202Y-100099300D01*
X138105201Y-104169300D02*
X138105202Y-102849393D01*
D63*
X138535202Y-100099300D02*
X138105201Y-100529301D01*
X138155200Y-104119301D02*
X138105201Y-104169300D01*
X138535202Y-100099300D02*
X138155200Y-100479302D01*
D62*
%TO.N,Net-(IC3-S)*%
X157210000Y-115990000D02*
X156775000Y-116425000D01*
X157210000Y-114795000D02*
X157210000Y-115990000D01*
%TO.N,Net-(D3-PadA)*%
X153748000Y-116405000D02*
X155135000Y-116405000D01*
X155135000Y-116405000D02*
X155155000Y-116425000D01*
%TO.N,Net-(D4-PadA)*%
X153810000Y-121885000D02*
X155250000Y-121885000D01*
%TO.N,Net-(D5-PadA)*%
X155187000Y-119175000D02*
X155202000Y-119190000D01*
X153735000Y-119175000D02*
X155187000Y-119175000D01*
%TO.N,Net-(IC3-G)*%
X155290000Y-114795000D02*
X153850000Y-114795000D01*
X153850000Y-114795000D02*
X153800000Y-114845000D01*
D61*
%TO.N,/UVLO_RST*%
X133091199Y-98200000D02*
X133288798Y-98002401D01*
D62*
X152075000Y-114845000D02*
X151850000Y-114620000D01*
D61*
X132591149Y-98200000D02*
X133091199Y-98200000D01*
D65*
X132525000Y-96384796D02*
X132525000Y-94425000D01*
D61*
X133288798Y-98002401D02*
X133288798Y-97148594D01*
X133288798Y-97148594D02*
X132525000Y-96384796D01*
D65*
X129475000Y-91375000D02*
X129475000Y-90810000D01*
D62*
X152780000Y-114845000D02*
X152075000Y-114845000D01*
D65*
X132525000Y-94425000D02*
X129475000Y-91375000D01*
D62*
%TO.N,/PG*%
X140800000Y-104200000D02*
X140769300Y-104169300D01*
D65*
X140769300Y-104169300D02*
X139430202Y-104169300D01*
D62*
%TO.N,/FB*%
X135685202Y-102099300D02*
X135695202Y-102089300D01*
D64*
X136882049Y-103250000D02*
X136996415Y-103364366D01*
X135805902Y-103250000D02*
X136882049Y-103250000D01*
D62*
X135695202Y-101089300D02*
X135665202Y-101059300D01*
X135695202Y-102089300D02*
X135695202Y-101089300D01*
D64*
X135685202Y-103129300D02*
X135805902Y-103250000D01*
D62*
X135685202Y-103129300D02*
X135685202Y-102099300D01*
D64*
%TO.N,/COMP_FSET*%
X135685202Y-105249300D02*
X135809502Y-105125000D01*
X136900000Y-104950000D02*
X136875000Y-104925000D01*
X135809502Y-105125000D02*
X136900000Y-105125000D01*
X136900000Y-105125000D02*
X136900000Y-104950000D01*
D61*
%TO.N,Net-(U5-OUT)*%
X131150000Y-99700000D02*
X131180000Y-99670000D01*
X134858851Y-98849999D02*
X134178850Y-99530000D01*
X131180000Y-98605000D02*
X131280000Y-98505000D01*
X134178850Y-99530000D02*
X131180000Y-99530000D01*
X131180000Y-99670000D02*
X131180000Y-98605000D01*
%TO.N,Net-(U5-V+)*%
X133711203Y-98849999D02*
X134361202Y-98200000D01*
X134361202Y-98200000D02*
X134858851Y-98200000D01*
X132591149Y-98849999D02*
X133711203Y-98849999D01*
D63*
%TO.N,+1V1*%
X144812200Y-80237800D02*
X144775000Y-80275000D01*
X144812200Y-79144700D02*
X144812200Y-80237800D01*
D62*
%TO.N,GND*%
X150325001Y-72850001D02*
X150550000Y-73075000D01*
X148950000Y-72850001D02*
X150325001Y-72850001D01*
D61*
%TO.N,/SPI0_RX*%
X137600000Y-81375000D02*
X141367500Y-81375000D01*
X137475000Y-81250000D02*
X137600000Y-81375000D01*
X141367500Y-81375000D02*
X141374700Y-81382200D01*
D62*
X135350000Y-79125000D02*
X135350000Y-62650000D01*
X137475000Y-81250000D02*
X135350000Y-79125000D01*
X135350000Y-62650000D02*
X137495000Y-60505000D01*
%TO.N,GND*%
X145350000Y-70325000D02*
X145700000Y-69975000D01*
X145275000Y-73250000D02*
X145350000Y-73175000D01*
X149350000Y-75300000D02*
X149050000Y-75300000D01*
X149050000Y-75300000D02*
X148525000Y-75825000D01*
X148525000Y-75825000D02*
X148525000Y-76125000D01*
X146750000Y-71249999D02*
X146750000Y-70100000D01*
D61*
%TO.N,+3V3*%
X147775000Y-77425000D02*
X147875000Y-77325000D01*
X146012500Y-78643994D02*
X146381494Y-78275000D01*
X147550000Y-77425000D02*
X147775000Y-77425000D01*
X146381494Y-78275000D02*
X146700000Y-78275000D01*
X146700000Y-78275000D02*
X147550000Y-77425000D01*
X146012500Y-79142500D02*
X146012500Y-78643994D01*
%TD*%
%TA.AperFunction,Conductor*%
%TO.N,+3V3*%
G36*
X144215677Y-91569685D02*
G01*
X144236319Y-91586319D01*
X145013681Y-92363681D01*
X145047166Y-92425004D01*
X145050000Y-92451362D01*
X145050000Y-95320454D01*
X145030315Y-95387493D01*
X144977511Y-95433248D01*
X144908353Y-95443192D01*
X144860904Y-95425993D01*
X144844128Y-95415645D01*
X144844119Y-95415641D01*
X144677697Y-95360494D01*
X144677690Y-95360493D01*
X144574986Y-95350000D01*
X144525000Y-95350000D01*
X144525000Y-97799999D01*
X144574972Y-97799999D01*
X144574986Y-97799998D01*
X144677698Y-97789505D01*
X144729794Y-97772242D01*
X144799623Y-97769839D01*
X144859665Y-97805569D01*
X144890858Y-97868089D01*
X144892800Y-97889947D01*
X144892800Y-97996448D01*
X144892799Y-97996448D01*
X144917143Y-98087300D01*
X144917146Y-98087305D01*
X144964164Y-98168744D01*
X144964170Y-98168752D01*
X145013681Y-98218263D01*
X145047166Y-98279586D01*
X145050000Y-98305944D01*
X145050000Y-104748638D01*
X145030315Y-104815677D01*
X145013681Y-104836319D01*
X144911319Y-104938681D01*
X144849996Y-104972166D01*
X144823638Y-104975000D01*
X142560491Y-104975000D01*
X142493452Y-104955315D01*
X142447697Y-104902511D01*
X142437753Y-104833353D01*
X142458306Y-104784915D01*
X142456765Y-104784004D01*
X142542406Y-104639191D01*
X142542407Y-104639188D01*
X142587166Y-104485128D01*
X142587167Y-104485122D01*
X142589931Y-104450000D01*
X141944000Y-104450000D01*
X141876961Y-104430315D01*
X141831206Y-104377511D01*
X141820000Y-104326000D01*
X141820000Y-104200000D01*
X141694000Y-104200000D01*
X141626961Y-104180315D01*
X141581206Y-104127511D01*
X141570000Y-104076000D01*
X141570000Y-103387154D01*
X142070000Y-103387154D01*
X142070000Y-103950000D01*
X142589931Y-103950000D01*
X142587167Y-103914877D01*
X142587166Y-103914871D01*
X142542407Y-103760811D01*
X142542406Y-103760808D01*
X142460738Y-103622714D01*
X142460731Y-103622705D01*
X142347294Y-103509268D01*
X142347285Y-103509261D01*
X142209191Y-103427593D01*
X142209188Y-103427591D01*
X142070001Y-103387153D01*
X142070000Y-103387154D01*
X141570000Y-103387154D01*
X141570000Y-103384474D01*
X141532756Y-103334575D01*
X141525000Y-103291407D01*
X141525000Y-102675000D01*
X140586319Y-101736319D01*
X140552834Y-101674996D01*
X140550000Y-101648638D01*
X140550000Y-101050396D01*
X140985202Y-101050396D01*
X140988099Y-101093124D01*
X141034033Y-101277823D01*
X141118592Y-101448322D01*
X141118594Y-101448325D01*
X141237834Y-101596666D01*
X141237835Y-101596667D01*
X141386176Y-101715907D01*
X141386179Y-101715909D01*
X141556678Y-101800468D01*
X141741377Y-101846402D01*
X141784105Y-101849300D01*
X141985202Y-101849300D01*
X142485202Y-101849300D01*
X142686299Y-101849300D01*
X142729026Y-101846402D01*
X142913725Y-101800468D01*
X143084224Y-101715909D01*
X143084227Y-101715907D01*
X143232568Y-101596667D01*
X143232569Y-101596666D01*
X143351809Y-101448325D01*
X143351811Y-101448322D01*
X143436370Y-101277823D01*
X143482304Y-101093124D01*
X143485202Y-101050396D01*
X143485202Y-100349300D01*
X142485202Y-100349300D01*
X142485202Y-101849300D01*
X141985202Y-101849300D01*
X141985202Y-100349300D01*
X140985202Y-100349300D01*
X140985202Y-101050396D01*
X140550000Y-101050396D01*
X140550000Y-99148203D01*
X140985202Y-99148203D01*
X140985202Y-99849300D01*
X141985202Y-99849300D01*
X142485202Y-99849300D01*
X143485202Y-99849300D01*
X143485202Y-99148203D01*
X143482304Y-99105475D01*
X143436370Y-98920776D01*
X143351811Y-98750277D01*
X143351809Y-98750274D01*
X143232569Y-98601933D01*
X143232568Y-98601932D01*
X143084227Y-98482692D01*
X143084224Y-98482690D01*
X142913725Y-98398131D01*
X142729026Y-98352197D01*
X142686299Y-98349300D01*
X142485202Y-98349300D01*
X142485202Y-99849300D01*
X141985202Y-99849300D01*
X141985202Y-98349300D01*
X141784105Y-98349300D01*
X141741377Y-98352197D01*
X141556678Y-98398131D01*
X141386179Y-98482690D01*
X141386176Y-98482692D01*
X141237835Y-98601932D01*
X141237834Y-98601933D01*
X141118594Y-98750274D01*
X141118592Y-98750277D01*
X141034033Y-98920776D01*
X140988099Y-99105475D01*
X140985202Y-99148203D01*
X140550000Y-99148203D01*
X140550000Y-98449999D01*
X140002326Y-98062064D01*
X139958998Y-98007251D01*
X139950000Y-97960877D01*
X139950000Y-97767865D01*
X139969685Y-97700826D01*
X140022489Y-97655071D01*
X140091647Y-97645127D01*
X140139097Y-97662326D01*
X140255875Y-97734356D01*
X140255880Y-97734358D01*
X140422302Y-97789505D01*
X140422309Y-97789506D01*
X140525019Y-97799999D01*
X141075000Y-97799999D01*
X141124972Y-97799999D01*
X141124986Y-97799998D01*
X141227697Y-97789505D01*
X141394119Y-97734358D01*
X141394124Y-97734356D01*
X141543345Y-97642315D01*
X141667315Y-97518345D01*
X141759356Y-97369124D01*
X141759358Y-97369119D01*
X141814505Y-97202697D01*
X141814506Y-97202690D01*
X141824999Y-97099986D01*
X143275001Y-97099986D01*
X143285494Y-97202697D01*
X143340641Y-97369119D01*
X143340643Y-97369124D01*
X143432684Y-97518345D01*
X143556654Y-97642315D01*
X143705875Y-97734356D01*
X143705880Y-97734358D01*
X143872302Y-97789505D01*
X143872309Y-97789506D01*
X143975019Y-97799999D01*
X144024999Y-97799998D01*
X144025000Y-97799998D01*
X144025000Y-96825000D01*
X143275001Y-96825000D01*
X143275001Y-97099986D01*
X141824999Y-97099986D01*
X141825000Y-97099973D01*
X141825000Y-96825000D01*
X141075000Y-96825000D01*
X141075000Y-97799999D01*
X140525019Y-97799999D01*
X140574999Y-97799998D01*
X140575000Y-97799998D01*
X140575000Y-96325000D01*
X141075000Y-96325000D01*
X141824999Y-96325000D01*
X141824999Y-96050028D01*
X141824998Y-96050013D01*
X143275000Y-96050013D01*
X143275000Y-96325000D01*
X144025000Y-96325000D01*
X144025000Y-95350000D01*
X144024999Y-95349999D01*
X143975029Y-95350000D01*
X143975011Y-95350001D01*
X143872302Y-95360494D01*
X143705880Y-95415641D01*
X143705875Y-95415643D01*
X143556654Y-95507684D01*
X143432684Y-95631654D01*
X143340643Y-95780875D01*
X143340641Y-95780880D01*
X143285494Y-95947302D01*
X143285493Y-95947309D01*
X143275000Y-96050013D01*
X141824998Y-96050013D01*
X141814505Y-95947302D01*
X141759358Y-95780880D01*
X141759356Y-95780875D01*
X141667315Y-95631654D01*
X141543345Y-95507684D01*
X141394124Y-95415643D01*
X141394119Y-95415641D01*
X141227697Y-95360494D01*
X141227690Y-95360493D01*
X141124986Y-95350000D01*
X141075000Y-95350000D01*
X141075000Y-96325000D01*
X140575000Y-96325000D01*
X140575000Y-95350000D01*
X140574999Y-95349999D01*
X140525029Y-95350000D01*
X140525011Y-95350001D01*
X140422302Y-95360494D01*
X140255880Y-95415641D01*
X140255875Y-95415643D01*
X140106654Y-95507684D01*
X140090263Y-95524075D01*
X140028939Y-95557559D01*
X139959248Y-95552573D01*
X139935530Y-95540698D01*
X139599999Y-95324999D01*
X138374934Y-95300979D01*
X138308293Y-95279984D01*
X138289688Y-95264688D01*
X138200000Y-95175000D01*
X138200000Y-92525000D01*
X139025000Y-92275000D01*
X139025000Y-92010000D01*
X140290000Y-92010000D01*
X140713681Y-91586319D01*
X140775004Y-91552834D01*
X140801362Y-91550000D01*
X144148638Y-91550000D01*
X144215677Y-91569685D01*
G37*
%TD.AperFunction*%
%TD*%
%TA.AperFunction,Conductor*%
%TO.N,+1V1*%
G36*
X144704403Y-88295490D02*
G01*
X144952142Y-88543229D01*
X144973816Y-88595554D01*
X144973816Y-89674816D01*
X144952142Y-89727142D01*
X144899816Y-89748816D01*
X144510328Y-89748816D01*
X144458002Y-89727142D01*
X144451601Y-89719840D01*
X144323361Y-89552571D01*
X143898816Y-88998816D01*
X143673816Y-88998816D01*
X143673816Y-89223816D01*
X143929384Y-89502617D01*
X143948835Y-89552571D01*
X143949950Y-91200950D01*
X143928311Y-91253290D01*
X143876000Y-91275000D01*
X143323936Y-91275000D01*
X143271610Y-91253326D01*
X143249939Y-91201660D01*
X143224482Y-88348476D01*
X143245688Y-88295959D01*
X143297819Y-88273819D01*
X143298479Y-88273816D01*
X144652077Y-88273816D01*
X144704403Y-88295490D01*
G37*
%TD.AperFunction*%
%TD*%
%TA.AperFunction,Conductor*%
%TO.N,+3V3*%
G36*
X137311325Y-36194685D02*
G01*
X137357080Y-36247489D01*
X137367024Y-36316647D01*
X137337999Y-36380203D01*
X137283290Y-36416706D01*
X137180880Y-36450641D01*
X137180875Y-36450643D01*
X137031654Y-36542684D01*
X136907684Y-36666654D01*
X136815643Y-36815875D01*
X136815641Y-36815880D01*
X136760494Y-36982302D01*
X136760493Y-36982309D01*
X136750000Y-37085013D01*
X136750000Y-37510000D01*
X137569670Y-37510000D01*
X137549925Y-37529745D01*
X137500556Y-37615255D01*
X137475000Y-37710630D01*
X137475000Y-37809370D01*
X137500556Y-37904745D01*
X137549925Y-37990255D01*
X137569670Y-38010000D01*
X136750001Y-38010000D01*
X136750001Y-38434986D01*
X136760494Y-38537697D01*
X136815641Y-38704119D01*
X136815643Y-38704124D01*
X136907684Y-38853345D01*
X137031654Y-38977315D01*
X137180875Y-39069356D01*
X137180880Y-39069358D01*
X137347302Y-39124505D01*
X137347309Y-39124506D01*
X137450019Y-39134999D01*
X137599999Y-39134999D01*
X137600000Y-39134998D01*
X137600000Y-38040330D01*
X137619745Y-38060075D01*
X137705255Y-38109444D01*
X137800630Y-38135000D01*
X137899370Y-38135000D01*
X137994745Y-38109444D01*
X138080255Y-38060075D01*
X138100000Y-38040330D01*
X138100000Y-39134999D01*
X138249972Y-39134999D01*
X138249986Y-39134998D01*
X138352697Y-39124505D01*
X138519119Y-39069358D01*
X138519124Y-39069356D01*
X138668345Y-38977315D01*
X138713319Y-38932342D01*
X138774642Y-38898857D01*
X138844334Y-38903841D01*
X138900267Y-38945713D01*
X138924684Y-39011177D01*
X138925000Y-39020023D01*
X138925000Y-44732729D01*
X138905315Y-44799768D01*
X138899181Y-44808469D01*
X138287229Y-45601740D01*
X138230695Y-45642797D01*
X138189048Y-45650000D01*
X136225000Y-45650000D01*
X134500000Y-46250000D01*
X134500000Y-79425000D01*
X135772075Y-81015094D01*
X135798583Y-81079740D01*
X135799229Y-81094694D01*
X135750000Y-83950000D01*
X136218318Y-85042744D01*
X136227283Y-85107774D01*
X136219750Y-85164997D01*
X136219750Y-85165000D01*
X136238670Y-85308708D01*
X136238671Y-85308712D01*
X136294137Y-85442622D01*
X136294138Y-85442624D01*
X136294139Y-85442625D01*
X136382379Y-85557621D01*
X136400224Y-85571314D01*
X136440996Y-85602600D01*
X136479483Y-85652128D01*
X136499999Y-85699999D01*
X136500000Y-85700000D01*
X136613064Y-85700000D01*
X136629250Y-85701061D01*
X136631289Y-85701329D01*
X136631291Y-85701330D01*
X136729734Y-85714290D01*
X136774999Y-85720250D01*
X136775000Y-85720250D01*
X136775001Y-85720250D01*
X136820265Y-85714290D01*
X136918709Y-85701330D01*
X136918710Y-85701329D01*
X136920750Y-85701061D01*
X136936936Y-85700000D01*
X137763541Y-85700000D01*
X137830580Y-85719685D01*
X137851223Y-85736319D01*
X137959620Y-85844717D01*
X137959625Y-85844721D01*
X138098804Y-85927031D01*
X138245000Y-85969504D01*
X138245000Y-85969503D01*
X138745000Y-85969503D01*
X138891195Y-85927031D01*
X139030374Y-85844721D01*
X139030383Y-85844714D01*
X139144714Y-85730383D01*
X139144721Y-85730374D01*
X139227031Y-85591195D01*
X139227033Y-85591190D01*
X139272144Y-85435918D01*
X139272145Y-85435912D01*
X139273790Y-85415000D01*
X138745000Y-85415000D01*
X138745000Y-85969503D01*
X138245000Y-85969503D01*
X138245000Y-84360494D01*
X138745000Y-84360494D01*
X138745000Y-84915000D01*
X139273790Y-84915000D01*
X139272145Y-84894089D01*
X139227031Y-84738804D01*
X139144721Y-84599625D01*
X139144714Y-84599616D01*
X139030383Y-84485285D01*
X139030374Y-84485278D01*
X138891193Y-84402967D01*
X138891190Y-84402965D01*
X138745001Y-84360493D01*
X138745000Y-84360494D01*
X138245000Y-84360494D01*
X138229861Y-84349128D01*
X138213725Y-84349082D01*
X138155055Y-84311139D01*
X138126212Y-84247500D01*
X138125000Y-84230205D01*
X138125000Y-84124000D01*
X138144685Y-84056961D01*
X138197489Y-84011206D01*
X138249000Y-84000000D01*
X140613000Y-84000000D01*
X140680039Y-84019685D01*
X140725794Y-84072489D01*
X140737000Y-84124000D01*
X140737000Y-84254675D01*
X140737616Y-84257772D01*
X140740000Y-84281969D01*
X140740000Y-84478031D01*
X140737617Y-84502226D01*
X140737000Y-84505327D01*
X140737000Y-84654675D01*
X140737616Y-84657772D01*
X140740000Y-84681969D01*
X140740000Y-85739128D01*
X140738107Y-85760710D01*
X140586850Y-86616504D01*
X140555798Y-86679094D01*
X140552425Y-86682603D01*
X140490489Y-86744540D01*
X140434539Y-86800490D01*
X140404455Y-86852597D01*
X140353887Y-86900812D01*
X140342147Y-86906112D01*
X139907028Y-87075914D01*
X139845771Y-87083338D01*
X139837503Y-87082250D01*
X139837499Y-87082250D01*
X139693791Y-87101170D01*
X139693787Y-87101171D01*
X139559877Y-87156637D01*
X139444879Y-87244879D01*
X139356637Y-87359877D01*
X139301170Y-87493789D01*
X139287659Y-87596402D01*
X139270765Y-87644483D01*
X139025000Y-88049999D01*
X139025000Y-88050000D01*
X139025000Y-89975000D01*
X139025000Y-92275000D01*
X138200000Y-92525000D01*
X138200000Y-95174999D01*
X138199999Y-95174999D01*
X138088640Y-95241815D01*
X138021026Y-95259427D01*
X137977392Y-95250048D01*
X137913707Y-95223669D01*
X137770001Y-95204750D01*
X137769999Y-95204750D01*
X137626291Y-95223670D01*
X137626287Y-95223671D01*
X137492377Y-95279137D01*
X137377379Y-95367379D01*
X137289137Y-95482377D01*
X137233671Y-95616287D01*
X137233670Y-95616292D01*
X137221684Y-95707330D01*
X137193417Y-95771227D01*
X137162543Y-95797473D01*
X137081142Y-95846314D01*
X137013528Y-95863926D01*
X136982749Y-95859061D01*
X136850001Y-95820493D01*
X136850000Y-95820494D01*
X136850000Y-96501000D01*
X136830315Y-96568039D01*
X136777511Y-96613794D01*
X136726000Y-96625000D01*
X136600000Y-96625000D01*
X136600000Y-96751000D01*
X136580315Y-96818039D01*
X136527511Y-96863794D01*
X136476000Y-96875000D01*
X135821210Y-96875000D01*
X135822854Y-96895910D01*
X135833204Y-96931534D01*
X135833004Y-97001404D01*
X135795061Y-97060073D01*
X135731422Y-97088916D01*
X135712946Y-97090122D01*
X134175669Y-97075482D01*
X134108820Y-97055160D01*
X134089169Y-97039169D01*
X134011319Y-96961319D01*
X133977834Y-96899996D01*
X133975000Y-96873638D01*
X133975000Y-96374999D01*
X135821209Y-96374999D01*
X135821210Y-96375000D01*
X136350000Y-96375000D01*
X136350000Y-95820494D01*
X136349998Y-95820493D01*
X136203809Y-95862965D01*
X136203806Y-95862967D01*
X136064625Y-95945278D01*
X136064616Y-95945285D01*
X135950285Y-96059616D01*
X135950278Y-96059625D01*
X135867968Y-96198804D01*
X135867966Y-96198809D01*
X135822855Y-96354081D01*
X135822854Y-96354087D01*
X135821209Y-96374999D01*
X133975000Y-96374999D01*
X133975000Y-94575000D01*
X132214043Y-92497467D01*
X131779428Y-91984719D01*
X131751098Y-91920852D01*
X131750021Y-91904484D01*
X131750929Y-89975000D01*
X131774973Y-38831584D01*
X131794689Y-38764556D01*
X131817759Y-38737941D01*
X134740044Y-36205294D01*
X134803597Y-36176264D01*
X134821255Y-36175000D01*
X137244286Y-36175000D01*
X137311325Y-36194685D01*
G37*
%TD.AperFunction*%
%TD*%
%TA.AperFunction,Conductor*%
%TO.N,/VREG_LX*%
G36*
X142880470Y-85621674D02*
G01*
X142902112Y-85671824D01*
X142907468Y-85853912D01*
X142907500Y-85856088D01*
X142907500Y-86402146D01*
X142906078Y-86416582D01*
X142899874Y-86447772D01*
X142899865Y-86447823D01*
X142896912Y-86467734D01*
X142895490Y-86482164D01*
X142895490Y-86482172D01*
X142894500Y-86502316D01*
X142894500Y-86502327D01*
X142894500Y-87875998D01*
X142898078Y-87893986D01*
X142899500Y-87908423D01*
X142899500Y-87954746D01*
X142911133Y-88013232D01*
X142912526Y-88015316D01*
X142925000Y-88056432D01*
X142925000Y-88313568D01*
X142912529Y-88354680D01*
X142911133Y-88356768D01*
X142899500Y-88415253D01*
X142899500Y-88984746D01*
X142911133Y-89043232D01*
X142912526Y-89045316D01*
X142925000Y-89086432D01*
X142925000Y-89564434D01*
X142903326Y-89616760D01*
X142897227Y-89622218D01*
X142550001Y-89899998D01*
X142550000Y-89900001D01*
X142550000Y-91226000D01*
X142528326Y-91278326D01*
X142476000Y-91300000D01*
X141923658Y-91300000D01*
X141871332Y-91278326D01*
X141849659Y-91226342D01*
X141842053Y-89582132D01*
X141856018Y-89538526D01*
X142055092Y-89262310D01*
X142103266Y-89232535D01*
X142114776Y-89231580D01*
X142277282Y-89230835D01*
X142355414Y-89215014D01*
X142377761Y-89205697D01*
X142406235Y-89200000D01*
X142499999Y-89200000D01*
X142500000Y-89200000D01*
X142518992Y-89183381D01*
X142556379Y-89167201D01*
X142556182Y-89166209D01*
X142559746Y-89165500D01*
X142559748Y-89165500D01*
X142618231Y-89153867D01*
X142684552Y-89109552D01*
X142728867Y-89043231D01*
X142740500Y-88984748D01*
X142740500Y-88415252D01*
X142728867Y-88356769D01*
X142728866Y-88356767D01*
X142712471Y-88332229D01*
X142700000Y-88291118D01*
X142700000Y-88078880D01*
X142712473Y-88037766D01*
X142728866Y-88013233D01*
X142728866Y-88013232D01*
X142728867Y-88013231D01*
X142740500Y-87954748D01*
X142740500Y-87385252D01*
X142728867Y-87326769D01*
X142728866Y-87326767D01*
X142712471Y-87302229D01*
X142700000Y-87261118D01*
X142700000Y-86601226D01*
X142701334Y-86587238D01*
X142701645Y-86585623D01*
X142703830Y-86569573D01*
X142705640Y-86547121D01*
X142707845Y-86461089D01*
X142709241Y-86448567D01*
X142713000Y-86429674D01*
X142713000Y-86261063D01*
X142713024Y-86259166D01*
X142714040Y-86219540D01*
X142717408Y-86088204D01*
X142717460Y-86085536D01*
X142717484Y-86083639D01*
X142717500Y-86081039D01*
X142717500Y-85674000D01*
X142739174Y-85621674D01*
X142791500Y-85600000D01*
X142828144Y-85600000D01*
X142880470Y-85621674D01*
G37*
%TD.AperFunction*%
%TD*%
%TA.AperFunction,Conductor*%
%TO.N,GND*%
G36*
X142490326Y-85597174D02*
G01*
X142512000Y-85649500D01*
X142512000Y-86081039D01*
X142511976Y-86082936D01*
X142500208Y-86541853D01*
X142498023Y-86557903D01*
X142450000Y-86750001D01*
X142450000Y-87899042D01*
X142433784Y-87945269D01*
X142350001Y-88049997D01*
X142350000Y-88050000D01*
X142350000Y-88951338D01*
X142328326Y-89003664D01*
X142276339Y-89025337D01*
X141285239Y-89029884D01*
X141239950Y-89014667D01*
X141119048Y-88922213D01*
X141090649Y-88873211D01*
X141090000Y-88863431D01*
X141090000Y-87457935D01*
X141111674Y-87405609D01*
X141120794Y-87397858D01*
X142300000Y-86550000D01*
X142300000Y-86502316D01*
X142301422Y-86487879D01*
X142313000Y-86429672D01*
X142313000Y-85649500D01*
X142334674Y-85597174D01*
X142387000Y-85575500D01*
X142413522Y-85575500D01*
X142438000Y-85575500D01*
X142490326Y-85597174D01*
G37*
%TD.AperFunction*%
%TD*%
%TA.AperFunction,Conductor*%
%TO.N,+3V3*%
G36*
X143278326Y-85621674D02*
G01*
X143300000Y-85674000D01*
X143300000Y-86650001D01*
X143594707Y-87386767D01*
X143600000Y-87414250D01*
X143600000Y-87876000D01*
X143578326Y-87928326D01*
X143526000Y-87950000D01*
X143174000Y-87950000D01*
X143121674Y-87928326D01*
X143100000Y-87876000D01*
X143100000Y-86502316D01*
X143101422Y-86487879D01*
X143113000Y-86429672D01*
X143113000Y-85674000D01*
X143134674Y-85621674D01*
X143187000Y-85600000D01*
X143226000Y-85600000D01*
X143278326Y-85621674D01*
G37*
%TD.AperFunction*%
%TD*%
%TA.AperFunction,Conductor*%
%TO.N,/VBAT*%
G36*
X133105102Y-114769685D02*
G01*
X133130213Y-114791028D01*
X133147764Y-114810521D01*
X133147767Y-114810523D01*
X133147770Y-114810526D01*
X133235134Y-114874000D01*
X133292410Y-114915614D01*
X133377584Y-114953535D01*
X133430822Y-114998785D01*
X133451144Y-115065633D01*
X133451149Y-115066364D01*
X133474853Y-121584654D01*
X133455413Y-121651765D01*
X133451378Y-121657706D01*
X133275207Y-121901636D01*
X133187598Y-122022942D01*
X133187122Y-122023601D01*
X133131914Y-122066423D01*
X133086598Y-122075000D01*
X130313915Y-122075000D01*
X130246876Y-122055315D01*
X130212918Y-122022942D01*
X129948524Y-121651765D01*
X129947435Y-121650236D01*
X129924574Y-121584214D01*
X129924436Y-121577428D01*
X129926059Y-121355143D01*
X129946232Y-121288253D01*
X129999368Y-121242885D01*
X130068597Y-121233446D01*
X130131939Y-121262934D01*
X130137736Y-121268371D01*
X130208397Y-121339032D01*
X130348475Y-121440804D01*
X130502744Y-121519408D01*
X130667415Y-121572914D01*
X130667414Y-121572914D01*
X130674999Y-121574115D01*
X130675000Y-121574114D01*
X130675000Y-120505330D01*
X130694745Y-120525075D01*
X130780255Y-120574444D01*
X130875630Y-120600000D01*
X130974370Y-120600000D01*
X131069745Y-120574444D01*
X131155255Y-120525075D01*
X131175000Y-120505330D01*
X131175000Y-121574115D01*
X131182584Y-121572914D01*
X131347255Y-121519408D01*
X131501524Y-121440804D01*
X131641602Y-121339032D01*
X131764032Y-121216602D01*
X131865804Y-121076524D01*
X131944408Y-120922257D01*
X131997914Y-120757584D01*
X132025000Y-120586571D01*
X132025000Y-120475000D01*
X131205330Y-120475000D01*
X131225075Y-120455255D01*
X131274444Y-120369745D01*
X131300000Y-120274370D01*
X131300000Y-120175630D01*
X131274444Y-120080255D01*
X131225075Y-119994745D01*
X131205330Y-119975000D01*
X132025000Y-119975000D01*
X132025000Y-119863428D01*
X131997914Y-119692415D01*
X131944408Y-119527742D01*
X131865804Y-119373475D01*
X131764032Y-119233397D01*
X131641602Y-119110967D01*
X131501524Y-119009195D01*
X131347257Y-118930591D01*
X131182589Y-118877087D01*
X131182581Y-118877085D01*
X131175000Y-118875884D01*
X131175000Y-119944670D01*
X131155255Y-119924925D01*
X131069745Y-119875556D01*
X130974370Y-119850000D01*
X130875630Y-119850000D01*
X130780255Y-119875556D01*
X130694745Y-119924925D01*
X130675000Y-119944670D01*
X130675000Y-118875884D01*
X130674999Y-118875884D01*
X130667418Y-118877085D01*
X130667410Y-118877087D01*
X130502742Y-118930591D01*
X130348475Y-119009195D01*
X130208397Y-119110967D01*
X130154367Y-119164997D01*
X130093044Y-119198481D01*
X130023352Y-119193496D01*
X129967419Y-119151625D01*
X129943003Y-119086160D01*
X129942690Y-119076435D01*
X129950000Y-118075000D01*
X129936817Y-116321681D01*
X129955995Y-116254501D01*
X130008454Y-116208350D01*
X130077536Y-116197887D01*
X130141308Y-116226433D01*
X130155333Y-116240994D01*
X130281654Y-116367315D01*
X130430875Y-116459356D01*
X130430880Y-116459358D01*
X130597302Y-116514505D01*
X130597309Y-116514506D01*
X130700019Y-116524999D01*
X131250000Y-116524999D01*
X131299972Y-116524999D01*
X131299986Y-116524998D01*
X131402697Y-116514505D01*
X131569119Y-116459358D01*
X131569124Y-116459356D01*
X131718345Y-116367315D01*
X131842315Y-116243345D01*
X131934356Y-116094124D01*
X131934358Y-116094119D01*
X131989505Y-115927697D01*
X131989506Y-115927690D01*
X131999999Y-115824986D01*
X132000000Y-115824973D01*
X132000000Y-115550000D01*
X131250000Y-115550000D01*
X131250000Y-116524999D01*
X130700019Y-116524999D01*
X130749999Y-116524998D01*
X130750000Y-116524998D01*
X130750000Y-115424000D01*
X130769685Y-115356961D01*
X130822489Y-115311206D01*
X130874000Y-115300000D01*
X131000000Y-115300000D01*
X131000000Y-115174000D01*
X131019685Y-115106961D01*
X131072489Y-115061206D01*
X131124000Y-115050000D01*
X131999999Y-115050000D01*
X131999999Y-114874000D01*
X132019684Y-114806961D01*
X132072488Y-114761206D01*
X132123999Y-114750000D01*
X133038063Y-114750000D01*
X133105102Y-114769685D01*
G37*
%TD.AperFunction*%
%TD*%
%TA.AperFunction,Conductor*%
%TO.N,VBUS*%
G36*
X140125294Y-114562045D02*
G01*
X140554312Y-114766339D01*
X140606376Y-114812934D01*
X140625000Y-114878294D01*
X140625000Y-115168814D01*
X140605315Y-115235853D01*
X140573888Y-115269130D01*
X140552771Y-115284472D01*
X140552764Y-115284478D01*
X140433140Y-115417336D01*
X140343750Y-115572164D01*
X140343747Y-115572170D01*
X140288504Y-115742192D01*
X140288503Y-115742194D01*
X140269815Y-115920000D01*
X140288503Y-116097805D01*
X140288504Y-116097807D01*
X140343747Y-116267829D01*
X140343752Y-116267839D01*
X140344020Y-116268303D01*
X140344093Y-116268604D01*
X140346391Y-116273765D01*
X140345446Y-116274185D01*
X140360486Y-116336205D01*
X140353160Y-116367783D01*
X140354307Y-116368116D01*
X140307335Y-116529791D01*
X140307334Y-116529797D01*
X140304500Y-116565811D01*
X140304500Y-116964169D01*
X140304501Y-116964191D01*
X140307335Y-117000205D01*
X140352129Y-117154388D01*
X140352132Y-117154395D01*
X140386128Y-117211881D01*
X140403309Y-117279605D01*
X140386128Y-117338119D01*
X140352132Y-117395604D01*
X140352129Y-117395611D01*
X140307335Y-117549791D01*
X140307334Y-117549797D01*
X140304500Y-117585811D01*
X140304500Y-117984169D01*
X140304501Y-117984191D01*
X140307335Y-118020205D01*
X140352129Y-118174388D01*
X140352131Y-118174393D01*
X140433863Y-118312595D01*
X140433869Y-118312603D01*
X140547396Y-118426130D01*
X140547402Y-118426135D01*
X140558617Y-118432767D01*
X140606302Y-118483833D01*
X140619500Y-118539501D01*
X140619500Y-118770501D01*
X140599815Y-118837540D01*
X140547011Y-118883295D01*
X140542946Y-118885065D01*
X140530163Y-118890359D01*
X140460693Y-118897823D01*
X140448124Y-118894872D01*
X140372492Y-118872900D01*
X140372493Y-118872900D01*
X140370000Y-118872703D01*
X140370000Y-118907829D01*
X140350315Y-118974868D01*
X140321487Y-119006204D01*
X140284552Y-119034545D01*
X140200906Y-119143553D01*
X140144478Y-119184755D01*
X140074732Y-119188909D01*
X140013812Y-119154696D01*
X139995800Y-119131187D01*
X139988081Y-119118135D01*
X139988080Y-119118134D01*
X139987765Y-119117601D01*
X139970500Y-119054484D01*
X139970500Y-118807300D01*
X139945502Y-118681633D01*
X139945501Y-118681632D01*
X139945501Y-118681628D01*
X139896465Y-118563245D01*
X139896464Y-118563244D01*
X139896461Y-118563238D01*
X139825277Y-118456704D01*
X139794259Y-118425686D01*
X139752940Y-118384367D01*
X139719457Y-118323047D01*
X139717302Y-118309647D01*
X139710811Y-118247884D01*
X139655566Y-118077856D01*
X139655563Y-118077850D01*
X139622282Y-118020205D01*
X139566173Y-117923021D01*
X139519317Y-117870982D01*
X139446549Y-117790164D01*
X139446546Y-117790162D01*
X139446545Y-117790161D01*
X139446544Y-117790160D01*
X139301907Y-117685074D01*
X139138581Y-117612357D01*
X139138579Y-117612356D01*
X139010908Y-117585219D01*
X138963705Y-117575186D01*
X138784923Y-117575186D01*
X138773044Y-117577711D01*
X138610048Y-117612356D01*
X138610043Y-117612358D01*
X138549126Y-117639480D01*
X138498692Y-117650200D01*
X137609200Y-117650200D01*
X137542161Y-117630515D01*
X137496406Y-117577711D01*
X137485200Y-117526200D01*
X137485200Y-117400200D01*
X137359200Y-117400200D01*
X137292161Y-117380515D01*
X137246406Y-117327711D01*
X137235200Y-117276200D01*
X137235200Y-117150200D01*
X137735200Y-117150200D01*
X138485199Y-117150200D01*
X138485199Y-116875228D01*
X138485198Y-116875213D01*
X138474705Y-116772502D01*
X138419558Y-116606080D01*
X138419556Y-116606075D01*
X138327515Y-116456854D01*
X138203545Y-116332884D01*
X138054324Y-116240843D01*
X138054319Y-116240841D01*
X137887897Y-116185694D01*
X137887890Y-116185693D01*
X137785186Y-116175200D01*
X137735200Y-116175200D01*
X137735200Y-117150200D01*
X137235200Y-117150200D01*
X137235200Y-116175200D01*
X137235199Y-116175199D01*
X137185229Y-116175200D01*
X137185204Y-116175202D01*
X137161599Y-116177613D01*
X137092906Y-116164842D01*
X137042023Y-116116960D01*
X137025000Y-116054255D01*
X137025000Y-115799262D01*
X137044685Y-115732223D01*
X137052700Y-115722276D01*
X137052700Y-115720200D01*
X137552700Y-115720200D01*
X137880834Y-115720200D01*
X137880849Y-115720199D01*
X137917689Y-115717300D01*
X137917695Y-115717299D01*
X138075393Y-115671483D01*
X138075396Y-115671482D01*
X138216752Y-115587885D01*
X138216761Y-115587878D01*
X138332878Y-115471761D01*
X138332885Y-115471752D01*
X138416481Y-115330398D01*
X138462300Y-115172686D01*
X138462495Y-115170201D01*
X138462495Y-115170200D01*
X137552700Y-115170200D01*
X137552700Y-115720200D01*
X137052700Y-115720200D01*
X137052700Y-115044200D01*
X137072385Y-114977161D01*
X137125189Y-114931406D01*
X137176700Y-114920200D01*
X137302700Y-114920200D01*
X137302700Y-114794200D01*
X137322385Y-114727161D01*
X137375189Y-114681406D01*
X137426700Y-114670200D01*
X138462495Y-114670200D01*
X138467550Y-114664730D01*
X138477926Y-114615349D01*
X138526978Y-114565594D01*
X138587178Y-114550000D01*
X138750000Y-114550000D01*
X139100000Y-114550000D01*
X140071982Y-114550000D01*
X140125294Y-114562045D01*
G37*
%TD.AperFunction*%
%TD*%
%TA.AperFunction,Conductor*%
%TO.N,/Converter_In*%
G36*
X138724913Y-105719685D02*
G01*
X138735674Y-105727444D01*
X138756906Y-105744554D01*
X138797225Y-105762967D01*
X138887780Y-105804323D01*
X138887783Y-105804323D01*
X138887784Y-105804324D01*
X139030200Y-105824800D01*
X139030203Y-105824800D01*
X139180200Y-105824800D01*
X139180216Y-105824799D01*
X139228193Y-105819640D01*
X139287652Y-105813248D01*
X139287656Y-105813246D01*
X139287658Y-105813246D01*
X139409408Y-105767835D01*
X139422460Y-105762967D01*
X139473534Y-105724732D01*
X139538998Y-105700316D01*
X139547845Y-105700000D01*
X139950964Y-105700000D01*
X140018003Y-105719685D01*
X140035771Y-105733536D01*
X140271618Y-105954642D01*
X140360809Y-106038258D01*
X140396253Y-106098470D01*
X140400000Y-106128721D01*
X140400000Y-107487670D01*
X140380315Y-107554709D01*
X140363681Y-107575351D01*
X140242488Y-107696543D01*
X140242483Y-107696549D01*
X140240441Y-107699861D01*
X140238447Y-107701653D01*
X140238007Y-107702211D01*
X140237911Y-107702135D01*
X140188491Y-107746583D01*
X140119528Y-107757802D01*
X140055447Y-107729955D01*
X140029368Y-107699856D01*
X140027519Y-107696859D01*
X140027516Y-107696855D01*
X139903545Y-107572884D01*
X139754324Y-107480843D01*
X139754319Y-107480841D01*
X139587897Y-107425694D01*
X139587890Y-107425693D01*
X139485186Y-107415200D01*
X139435200Y-107415200D01*
X139435200Y-108516200D01*
X139415515Y-108583239D01*
X139362711Y-108628994D01*
X139311200Y-108640200D01*
X139185200Y-108640200D01*
X139185200Y-108766200D01*
X139165515Y-108833239D01*
X139112711Y-108878994D01*
X139061200Y-108890200D01*
X138185200Y-108890200D01*
X138183141Y-108892258D01*
X138165515Y-108952288D01*
X138112711Y-108998043D01*
X138056774Y-109009170D01*
X137800000Y-109000000D01*
X136360189Y-109000000D01*
X136293150Y-108980315D01*
X136247395Y-108927511D01*
X136237451Y-108858353D01*
X136244007Y-108832667D01*
X136288796Y-108712579D01*
X136288798Y-108712572D01*
X136295199Y-108653044D01*
X136295200Y-108653027D01*
X136295200Y-108530200D01*
X135369200Y-108530200D01*
X135302161Y-108510515D01*
X135256406Y-108457711D01*
X135245200Y-108406200D01*
X135245200Y-108154200D01*
X135256648Y-108115213D01*
X138185200Y-108115213D01*
X138185200Y-108390200D01*
X138935200Y-108390200D01*
X138935200Y-107415200D01*
X138935199Y-107415199D01*
X138885229Y-107415200D01*
X138885211Y-107415201D01*
X138782502Y-107425694D01*
X138616080Y-107480841D01*
X138616075Y-107480843D01*
X138466854Y-107572884D01*
X138342884Y-107696854D01*
X138250843Y-107846075D01*
X138250841Y-107846080D01*
X138195694Y-108012502D01*
X138195693Y-108012509D01*
X138185200Y-108115213D01*
X135256648Y-108115213D01*
X135264885Y-108087161D01*
X135317689Y-108041406D01*
X135369200Y-108030200D01*
X136295200Y-108030200D01*
X136295200Y-107907372D01*
X136295199Y-107907355D01*
X136288798Y-107847827D01*
X136288796Y-107847820D01*
X136258777Y-107767333D01*
X136253793Y-107697641D01*
X136287278Y-107636318D01*
X136348601Y-107602834D01*
X136374959Y-107600000D01*
X137700000Y-107600000D01*
X138100000Y-107200000D01*
X138100000Y-106521789D01*
X138116613Y-106459789D01*
X138181250Y-106347835D01*
X138236497Y-106177803D01*
X138255185Y-106000000D01*
X138250417Y-105954640D01*
X138262986Y-105885913D01*
X138274530Y-105867292D01*
X138284323Y-105854235D01*
X138340185Y-105812457D01*
X138472532Y-105763096D01*
X138523778Y-105724732D01*
X138589242Y-105700316D01*
X138598089Y-105700000D01*
X138657874Y-105700000D01*
X138724913Y-105719685D01*
G37*
%TD.AperFunction*%
%TD*%
M02*
