%TF.GenerationSoftware,KiCad,Pcbnew,8.0.7*%
%TF.CreationDate,2025-02-23T15:46:05-05:00*%
%TF.ProjectId,RP2350_V1,52503233-3530-45f5-9631-2e6b69636164,1.0*%
%TF.SameCoordinates,Original*%
%TF.FileFunction,Copper,L4,Bot*%
%TF.FilePolarity,Positive*%
%FSLAX46Y46*%
G04 Gerber Fmt 4.6, Leading zero omitted, Abs format (unit mm)*
G04 Created by KiCad (PCBNEW 8.0.7) date 2025-02-23 15:46:05*
%MOMM*%
%LPD*%
G01*
G04 APERTURE LIST*
G04 Aperture macros list*
%AMRoundRect*
0 Rectangle with rounded corners*
0 $1 Rounding radius*
0 $2 $3 $4 $5 $6 $7 $8 $9 X,Y pos of 4 corners*
0 Add a 4 corners polygon primitive as box body*
4,1,4,$2,$3,$4,$5,$6,$7,$8,$9,$2,$3,0*
0 Add four circle primitives for the rounded corners*
1,1,$1+$1,$2,$3*
1,1,$1+$1,$4,$5*
1,1,$1+$1,$6,$7*
1,1,$1+$1,$8,$9*
0 Add four rect primitives between the rounded corners*
20,1,$1+$1,$2,$3,$4,$5,0*
20,1,$1+$1,$4,$5,$6,$7,0*
20,1,$1+$1,$6,$7,$8,$9,0*
20,1,$1+$1,$8,$9,$2,$3,0*%
G04 Aperture macros list end*
%TA.AperFunction,ComponentPad*%
%ADD10R,1.700000X1.700000*%
%TD*%
%TA.AperFunction,ComponentPad*%
%ADD11O,1.700000X1.700000*%
%TD*%
%TA.AperFunction,ComponentPad*%
%ADD12O,1.000000X2.100000*%
%TD*%
%TA.AperFunction,ComponentPad*%
%ADD13O,1.000000X1.800000*%
%TD*%
%TA.AperFunction,ComponentPad*%
%ADD14RoundRect,0.250000X-0.350000X-0.625000X0.350000X-0.625000X0.350000X0.625000X-0.350000X0.625000X0*%
%TD*%
%TA.AperFunction,ComponentPad*%
%ADD15O,1.200000X1.750000*%
%TD*%
%TA.AperFunction,HeatsinkPad*%
%ADD16C,0.800000*%
%TD*%
%TA.AperFunction,ViaPad*%
%ADD17C,0.700000*%
%TD*%
%TA.AperFunction,Conductor*%
%ADD18C,0.750000*%
%TD*%
%TA.AperFunction,Conductor*%
%ADD19C,0.300000*%
%TD*%
%TA.AperFunction,Conductor*%
%ADD20C,0.500000*%
%TD*%
%TA.AperFunction,Conductor*%
%ADD21C,0.150000*%
%TD*%
%TA.AperFunction,Conductor*%
%ADD22C,0.250000*%
%TD*%
%TA.AperFunction,Conductor*%
%ADD23C,0.200000*%
%TD*%
G04 APERTURE END LIST*
D10*
%TO.P,J4,1,Pin_1*%
%TO.N,unconnected-(J4-Pin_1-Pad1)*%
X137495000Y-47805000D03*
D11*
%TO.P,J4,2,Pin_2*%
%TO.N,GND*%
X137495000Y-50345000D03*
%TO.P,J4,3,Pin_3*%
%TO.N,/CS{slash}NSS*%
X137495000Y-52885000D03*
%TO.P,J4,4,Pin_4*%
%TO.N,/SPI0_CLK*%
X137495000Y-55425000D03*
%TO.P,J4,5,Pin_5*%
%TO.N,/SPI0_TX*%
X137495000Y-57965000D03*
%TO.P,J4,6,Pin_6*%
%TO.N,/SPI0_RX*%
X137495000Y-60505000D03*
%TO.P,J4,7,Pin_7*%
%TO.N,/uC_RESET*%
X137495000Y-63045000D03*
%TO.P,J4,8,Pin_8*%
%TO.N,/uC_BUSY*%
X137495000Y-65585000D03*
%TD*%
D10*
%TO.P,J2,1,Pin_1*%
%TO.N,GND*%
X152880000Y-47770000D03*
D11*
%TO.P,J2,2,Pin_2*%
X152880000Y-50310000D03*
%TO.P,J2,3,Pin_3*%
%TO.N,unconnected-(J2-Pin_3-Pad3)*%
X152880000Y-52850000D03*
%TO.P,J2,4,Pin_4*%
%TO.N,unconnected-(J2-Pin_4-Pad4)*%
X152880000Y-55390000D03*
%TO.P,J2,5,Pin_5*%
%TO.N,unconnected-(J2-Pin_5-Pad5)*%
X152880000Y-57930000D03*
%TO.P,J2,6,Pin_6*%
%TO.N,/DIO1*%
X152880000Y-60470000D03*
%TO.P,J2,7,Pin_7*%
%TO.N,GND*%
X152880000Y-63010000D03*
%TO.P,J2,8,Pin_8*%
%TO.N,+3V3*%
X152880000Y-65550000D03*
%TD*%
D12*
%TO.P,J3,S1,SHIELD*%
%TO.N,unconnected-(J3-SHIELD-PadS1)_3*%
X138200000Y-120520000D03*
D13*
%TO.N,unconnected-(J3-SHIELD-PadS1)_1*%
X138200000Y-124700000D03*
D12*
%TO.N,unconnected-(J3-SHIELD-PadS1)_2*%
X146840000Y-120520000D03*
D13*
%TO.N,unconnected-(J3-SHIELD-PadS1)*%
X146840000Y-124700000D03*
%TD*%
D10*
%TO.P,J1,1,Pin_1*%
%TO.N,/SWCLK*%
X125775000Y-71310000D03*
D11*
%TO.P,J1,2,Pin_2*%
%TO.N,GND*%
X125775000Y-73850000D03*
%TO.P,J1,3,Pin_3*%
%TO.N,/SWD*%
X125775000Y-76390000D03*
%TO.P,J1,4,Pin_4*%
%TO.N,GND*%
X125775000Y-78930000D03*
%TD*%
D14*
%TO.P,J5,1,Pin_1*%
%TO.N,+3V3*%
X137850000Y-37760000D03*
D15*
%TO.P,J5,2,Pin_2*%
%TO.N,GND*%
X139850000Y-37760000D03*
%TO.P,J5,3,Pin_3*%
%TO.N,/SPI1_TX*%
X141850000Y-37760000D03*
%TO.P,J5,4,Pin_4*%
%TO.N,/SPI1_CLK*%
X143850000Y-37760000D03*
%TO.P,J5,5,Pin_5*%
%TO.N,/SPI1_CS*%
X145850000Y-37760000D03*
%TO.P,J5,6,Pin_6*%
%TO.N,/DISPLAY_DC*%
X147850000Y-37760000D03*
%TO.P,J5,7,Pin_7*%
%TO.N,/DISPLAY_RESET*%
X149850000Y-37760000D03*
%TO.P,J5,8,Pin_8*%
%TO.N,/DISPLAY_BUSY*%
X151850000Y-37760000D03*
%TD*%
D14*
%TO.P,J6,1,Pin_1*%
%TO.N,GND*%
X128925000Y-120225000D03*
D15*
%TO.P,J6,2,Pin_2*%
%TO.N,/VBAT*%
X130925000Y-120225000D03*
%TD*%
D10*
%TO.P,J7,1,Pin_1*%
%TO.N,/UART_Tx_DEBUG*%
X153770000Y-87120000D03*
D11*
%TO.P,J7,2,Pin_2*%
%TO.N,GND*%
X156310000Y-87120000D03*
%TO.P,J7,3,Pin_3*%
%TO.N,/UART_Rx_DEBUG*%
X158850000Y-87120000D03*
%TO.P,J7,4,Pin_4*%
%TO.N,GND*%
X161390000Y-87120000D03*
%TD*%
D16*
%TO.P,U1,61,GND*%
%TO.N,GND*%
X146012500Y-83780000D03*
X146012500Y-82580000D03*
X146012500Y-81380000D03*
X144812500Y-83780000D03*
X144812500Y-82580000D03*
X144762500Y-81380000D03*
X143612500Y-83780000D03*
X143612500Y-82580000D03*
X143612500Y-81380000D03*
%TD*%
D17*
%TO.N,GND*%
X134500000Y-123850000D03*
X137990000Y-82300000D03*
X148902800Y-97867324D03*
X149350000Y-75300000D03*
X137275000Y-102225000D03*
X152853058Y-81043058D03*
X145415000Y-76025000D03*
X156535000Y-111485000D03*
X167820000Y-81160000D03*
X119440000Y-91550000D03*
X141490000Y-88650000D03*
X173380000Y-74750000D03*
X141800000Y-116275000D03*
X157150000Y-120775000D03*
X142300000Y-108640200D03*
X148080000Y-117560000D03*
X127925000Y-115650000D03*
X133800000Y-105420000D03*
X137400000Y-106000000D03*
X137990000Y-83290000D03*
X131075000Y-62400000D03*
X142125000Y-110100000D03*
X137387500Y-97487500D03*
X141500000Y-87590000D03*
X131300000Y-97310000D03*
X128130000Y-97610000D03*
X128122500Y-85647500D03*
X155930000Y-92645000D03*
X164000000Y-65550000D03*
X145700000Y-69975000D03*
X133810000Y-103330000D03*
X153100000Y-83575000D03*
X167800000Y-65575000D03*
X150175000Y-69925000D03*
X146350000Y-118380000D03*
X164200000Y-98010000D03*
X147925000Y-92875000D03*
X119420000Y-97710000D03*
X145275000Y-73250000D03*
X172980000Y-85950000D03*
X158340000Y-60130000D03*
X150390000Y-87570000D03*
X143550000Y-67725000D03*
X129270000Y-98790000D03*
X133720000Y-114175000D03*
X134450000Y-116475000D03*
X139837500Y-87637500D03*
X150550000Y-72875000D03*
X122175000Y-62400000D03*
X165410000Y-84640000D03*
X119440000Y-85450000D03*
X146175000Y-97875000D03*
X172960000Y-91980000D03*
X143422746Y-116949999D03*
X149848071Y-76723071D03*
X164132615Y-92075698D03*
X162950000Y-70475000D03*
X157150000Y-117975000D03*
X171600000Y-65575000D03*
X137770000Y-95760000D03*
X136625000Y-110690200D03*
X128070000Y-91550000D03*
X138874314Y-118425686D03*
X171550000Y-81100000D03*
X136775000Y-85165000D03*
X133820000Y-104350000D03*
X164890000Y-60200000D03*
X163925000Y-81175000D03*
X172980000Y-97890000D03*
X144425000Y-74950000D03*
%TO.N,+3V3*%
X149400000Y-85607200D03*
X139790000Y-84550000D03*
X171700000Y-82275000D03*
X141280000Y-78130000D03*
X173540000Y-64420000D03*
X167970000Y-82270000D03*
X169780000Y-64410000D03*
X139790000Y-85360000D03*
X144100000Y-101850000D03*
X165850000Y-82425000D03*
X165875000Y-64450000D03*
X147725000Y-67600000D03*
X153550000Y-99225000D03*
X173700000Y-77375000D03*
X139790000Y-86150000D03*
%TO.N,+1V1*%
X144532322Y-88617678D03*
X144600000Y-89300000D03*
X144240000Y-84850000D03*
%TO.N,/VBAT*%
X151625000Y-119250000D03*
%TO.N,/SWD*%
X143319974Y-73699546D03*
%TO.N,/SWCLK*%
X143275000Y-72754569D03*
%TO.N,/DIO1*%
X136410000Y-72075000D03*
X150825000Y-60775000D03*
%TO.N,/DISPLAY_RESET*%
X151350000Y-75900000D03*
X156520000Y-69100000D03*
%TO.N,/DISPLAY_BUSY*%
X151350000Y-74725000D03*
X155330000Y-69350000D03*
%TO.N,/RUN*%
X129550000Y-72775000D03*
X142825000Y-71975000D03*
%TO.N,/~{USB_BOOT}*%
X160175000Y-70175000D03*
X160525000Y-83850000D03*
%TO.N,Net-(R20-Pad2)*%
X128382500Y-88642500D03*
X166032500Y-66357500D03*
%TO.N,Net-(R23-Pad2)*%
X128380000Y-94630000D03*
X169975000Y-83225000D03*
%TO.N,Net-(R24-Pad2)*%
X128355000Y-100905000D03*
X173800000Y-82575000D03*
%TO.N,/BTN_MACRO_C*%
X169397500Y-73927500D03*
X162975000Y-71900000D03*
%TO.N,/Converter_In*%
X140200000Y-105250000D03*
X140475000Y-103325000D03*
%TO.N,/UVLO_RST*%
X132575000Y-95485000D03*
X151740000Y-114510000D03*
%TD*%
D18*
%TO.N,+3V3*%
X141280000Y-78130000D02*
X146390000Y-78130000D01*
X139790000Y-86150000D02*
X139790000Y-78130000D01*
X149400000Y-78200000D02*
X149330000Y-78130000D01*
X149330000Y-78130000D02*
X146390000Y-78130000D01*
D19*
X145925000Y-100025000D02*
X152750000Y-100025000D01*
D18*
X149400000Y-85607200D02*
X149400000Y-78200000D01*
D19*
X152750000Y-100025000D02*
X153550000Y-99225000D01*
D18*
X139790000Y-78130000D02*
X141280000Y-78130000D01*
D19*
X144100000Y-101850000D02*
X145925000Y-100025000D01*
D20*
%TO.N,+1V1*%
X144600000Y-89300000D02*
X144600000Y-89325000D01*
X144550000Y-88600000D02*
X144550000Y-85160000D01*
X144532322Y-89232322D02*
X144600000Y-89300000D01*
X144532322Y-88617678D02*
X144550000Y-88600000D01*
X144550000Y-85160000D02*
X144240000Y-84850000D01*
X144532322Y-88617678D02*
X144532322Y-89232322D01*
D19*
%TO.N,/VBAT*%
X148295000Y-122580000D02*
X151625000Y-119250000D01*
X130990000Y-120290000D02*
X133280000Y-122580000D01*
X133280000Y-122580000D02*
X148295000Y-122580000D01*
X130990000Y-120240000D02*
X130990000Y-120290000D01*
%TO.N,/SWD*%
X143319974Y-73699546D02*
X140629520Y-76390000D01*
X140629520Y-76390000D02*
X125775000Y-76390000D01*
%TO.N,/SWCLK*%
X128145000Y-73680000D02*
X125775000Y-71310000D01*
X142349569Y-73680000D02*
X128145000Y-73680000D01*
X143275000Y-72754569D02*
X142349569Y-73680000D01*
%TO.N,/DIO1*%
X150825000Y-60775000D02*
X147705000Y-60775000D01*
X147705000Y-60775000D02*
X136410000Y-72070000D01*
X150875000Y-60725000D02*
X150825000Y-60775000D01*
%TO.N,/DISPLAY_RESET*%
X151350000Y-75900000D02*
X152070000Y-75900000D01*
X152070000Y-75900000D02*
X156520000Y-71450000D01*
X156520000Y-71450000D02*
X156520000Y-69170000D01*
%TO.N,/DISPLAY_BUSY*%
X151350000Y-74725000D02*
X152125000Y-74725000D01*
X155330000Y-69350000D02*
X155330000Y-69280000D01*
X155330000Y-71520000D02*
X155330000Y-69350000D01*
X152125000Y-74725000D02*
X155330000Y-71520000D01*
D21*
%TO.N,/RUN*%
X141900000Y-72900000D02*
X129575000Y-72900000D01*
X142825000Y-71975000D02*
X141900000Y-72900000D01*
D22*
%TO.N,/~{USB_BOOT}*%
X160125000Y-70125000D02*
X160175000Y-70175000D01*
X160175000Y-70175000D02*
X160525000Y-70525000D01*
X160525000Y-70525000D02*
X160525000Y-83850000D01*
D23*
%TO.N,Net-(R20-Pad2)*%
X162300000Y-72144239D02*
X162300000Y-70090000D01*
X163180000Y-73024239D02*
X162300000Y-72144239D01*
X162240000Y-89950000D02*
X163180000Y-89010000D01*
X128360000Y-88620000D02*
X128382500Y-88642500D01*
X162300000Y-70090000D02*
X166032500Y-66357500D01*
X166032500Y-66357500D02*
X166120000Y-66270000D01*
X128382500Y-88642500D02*
X129690000Y-89950000D01*
X129690000Y-89950000D02*
X162240000Y-89950000D01*
X163180000Y-89010000D02*
X163180000Y-73024239D01*
%TO.N,Net-(R23-Pad2)*%
X159310000Y-93890000D02*
X129120000Y-93890000D01*
X169975000Y-83225000D02*
X159310000Y-93890000D01*
X169980000Y-83220000D02*
X169975000Y-83225000D01*
X129120000Y-93890000D02*
X128380000Y-94630000D01*
X128380000Y-94630000D02*
X128360000Y-94650000D01*
%TO.N,Net-(R24-Pad2)*%
X131925000Y-94750000D02*
X128430000Y-98245000D01*
X173800000Y-82575000D02*
X172500000Y-83875000D01*
X172500000Y-83875000D02*
X170700000Y-83875000D01*
X128430000Y-98245000D02*
X128430000Y-100830000D01*
X159825000Y-94750000D02*
X131925000Y-94750000D01*
X170700000Y-83875000D02*
X159825000Y-94750000D01*
D21*
%TO.N,/BTN_MACRO_C*%
X163590000Y-72515000D02*
X167985000Y-72515000D01*
X162975000Y-71900000D02*
X163590000Y-72515000D01*
X167985000Y-72515000D02*
X169397500Y-73927500D01*
X169397500Y-73927500D02*
X169420000Y-73950000D01*
D22*
%TO.N,/Converter_In*%
X140550000Y-103250000D02*
X140600000Y-103200000D01*
X140200000Y-105250000D02*
X140200000Y-103600000D01*
X140200000Y-105300000D02*
X140200000Y-105250000D01*
X140200000Y-103600000D02*
X140550000Y-103250000D01*
%TO.N,/UVLO_RST*%
X150600000Y-111850000D02*
X150600000Y-113370000D01*
X151740000Y-114510000D02*
X151850000Y-114620000D01*
X132560000Y-95485000D02*
X132575000Y-95485000D01*
X134235000Y-95485000D02*
X150600000Y-111850000D01*
X132525000Y-95450000D02*
X132560000Y-95485000D01*
X132575000Y-95485000D02*
X134235000Y-95485000D01*
X150600000Y-113370000D02*
X151740000Y-114510000D01*
%TD*%
%TA.AperFunction,Conductor*%
%TO.N,+3V3*%
G36*
X167290759Y-78711087D02*
G01*
X167290758Y-78711087D01*
X167175000Y-78849999D01*
X167175000Y-78850000D01*
X167175000Y-81275000D01*
X167424804Y-81549784D01*
X167426619Y-81551942D01*
X167429276Y-81554704D01*
X167675000Y-81825000D01*
X168300000Y-81825000D01*
X168250000Y-82925000D01*
X167925000Y-82925000D01*
X165804547Y-82925000D01*
X165746356Y-82906093D01*
X165744664Y-82904835D01*
X165514117Y-82729713D01*
X165479215Y-82679459D01*
X165475000Y-82650878D01*
X165475000Y-80699978D01*
X165450008Y-78700639D01*
X165450004Y-78700000D01*
X167300000Y-78700000D01*
X167290759Y-78711087D01*
G37*
%TD.AperFunction*%
%TD*%
%TA.AperFunction,Conductor*%
%TO.N,+3V3*%
G36*
X162850417Y-63325003D02*
G01*
X174434492Y-63424651D01*
X174492517Y-63444058D01*
X174503643Y-63453643D01*
X175421082Y-64371082D01*
X175448859Y-64425599D01*
X175450078Y-64440895D01*
X175474907Y-77327192D01*
X175456112Y-77385419D01*
X175437615Y-77404798D01*
X173777341Y-78728206D01*
X173720052Y-78749692D01*
X173715037Y-78749789D01*
X171199144Y-78734633D01*
X171225000Y-78700000D01*
X169300000Y-78700000D01*
X169318122Y-78723299D01*
X167290760Y-78711087D01*
X167300000Y-78700000D01*
X165450003Y-78700000D01*
X165450000Y-78699403D01*
X165450000Y-78039148D01*
X165468907Y-77980957D01*
X165476769Y-77971445D01*
X165795666Y-77631290D01*
X165849259Y-77601769D01*
X165867890Y-77600000D01*
X172775000Y-77600000D01*
X173850000Y-76550000D01*
X173846679Y-75078935D01*
X173858730Y-75033767D01*
X173858378Y-75033621D01*
X173859478Y-75030964D01*
X173859948Y-75029204D01*
X173860851Y-75027637D01*
X173860861Y-75027625D01*
X173916330Y-74893709D01*
X173935250Y-74750000D01*
X173916330Y-74606291D01*
X173860861Y-74472375D01*
X173860859Y-74472372D01*
X173858451Y-74468200D01*
X173845189Y-74418926D01*
X173831433Y-68325000D01*
X173825000Y-65475000D01*
X173724225Y-65406290D01*
X173275000Y-65100000D01*
X171902339Y-65096329D01*
X171864719Y-65088793D01*
X171743709Y-65038670D01*
X171743708Y-65038669D01*
X171600000Y-65019750D01*
X171456291Y-65038669D01*
X171456290Y-65038670D01*
X171339163Y-65087185D01*
X171301013Y-65094721D01*
X168077650Y-65086103D01*
X168040030Y-65078567D01*
X168033924Y-65076038D01*
X168015731Y-65068502D01*
X167943713Y-65038671D01*
X167943705Y-65038669D01*
X167800000Y-65019750D01*
X167656293Y-65038669D01*
X167563533Y-65077090D01*
X167525384Y-65084625D01*
X164313709Y-65076038D01*
X164276089Y-65068502D01*
X164143709Y-65013670D01*
X164143708Y-65013669D01*
X164000000Y-64994750D01*
X163856291Y-65013669D01*
X163856290Y-65013670D01*
X163722378Y-65069137D01*
X163722374Y-65069139D01*
X163607381Y-65157377D01*
X163607377Y-65157381D01*
X163519139Y-65272374D01*
X163519137Y-65272378D01*
X163463670Y-65406290D01*
X163463669Y-65406291D01*
X163454624Y-65475000D01*
X163444750Y-65550000D01*
X163448041Y-65575000D01*
X163449153Y-65583442D01*
X163450000Y-65596365D01*
X163450000Y-66897017D01*
X163431093Y-66955208D01*
X163405915Y-66979390D01*
X162274782Y-67733478D01*
X162220213Y-67750104D01*
X155100001Y-67774999D01*
X155100000Y-67774999D01*
X154807341Y-68090168D01*
X154800000Y-65300000D01*
X154200000Y-64498077D01*
X155245795Y-63381189D01*
X155299368Y-63351637D01*
X155317721Y-63349859D01*
X162849567Y-63325001D01*
X162850417Y-63325003D01*
G37*
%TD.AperFunction*%
%TD*%
%TA.AperFunction,Conductor*%
%TO.N,+3V3*%
G36*
X171199144Y-78734632D02*
G01*
X171199143Y-78734633D01*
X171057026Y-78924998D01*
X171057026Y-78925000D01*
X171053111Y-80841581D01*
X171045575Y-80879264D01*
X171013670Y-80956290D01*
X171013669Y-80956291D01*
X170994750Y-81099999D01*
X170994750Y-81100000D01*
X171013669Y-81243708D01*
X171013670Y-81243709D01*
X171069139Y-81377625D01*
X171157379Y-81492621D01*
X171272375Y-81580861D01*
X171286284Y-81586622D01*
X171328958Y-81620542D01*
X171350000Y-81650000D01*
X171503634Y-81650000D01*
X171516556Y-81650847D01*
X171550000Y-81655250D01*
X171583444Y-81650847D01*
X171596366Y-81650000D01*
X171739157Y-81650000D01*
X171797348Y-81668907D01*
X171802535Y-81672946D01*
X172039378Y-81870315D01*
X172071977Y-81922093D01*
X172075000Y-81946369D01*
X172075000Y-82713815D01*
X172056093Y-82772006D01*
X172020274Y-82802363D01*
X171745904Y-82939548D01*
X171701630Y-82950000D01*
X170506697Y-82950000D01*
X170448506Y-82931093D01*
X170428155Y-82911268D01*
X170425786Y-82908180D01*
X170367621Y-82832379D01*
X170252625Y-82744139D01*
X170252621Y-82744137D01*
X170118709Y-82688670D01*
X170118708Y-82688669D01*
X169975000Y-82669750D01*
X169831291Y-82688669D01*
X169831290Y-82688670D01*
X169697378Y-82744137D01*
X169697374Y-82744139D01*
X169582381Y-82832377D01*
X169582373Y-82832385D01*
X169523688Y-82908864D01*
X169473263Y-82943519D01*
X169443274Y-82947578D01*
X168250015Y-82925000D01*
X168250000Y-82925000D01*
X168300000Y-81825000D01*
X169175000Y-81825000D01*
X169475000Y-81425000D01*
X169475000Y-78925000D01*
X169318122Y-78723300D01*
X169318123Y-78723300D01*
X169318122Y-78723299D01*
X169300000Y-78700000D01*
X171225000Y-78700000D01*
X171199144Y-78734632D01*
G37*
%TD.AperFunction*%
%TD*%
%TA.AperFunction,Conductor*%
%TO.N,+3V3*%
G36*
X154800000Y-65300000D02*
G01*
X154807340Y-68090167D01*
X154807340Y-68090169D01*
X154810107Y-69141615D01*
X154800670Y-69189389D01*
X154793671Y-69206286D01*
X154793670Y-69206291D01*
X154774750Y-69349999D01*
X154774750Y-69350000D01*
X154793670Y-69493710D01*
X154801771Y-69513268D01*
X154811209Y-69560393D01*
X154813956Y-70603904D01*
X154794448Y-70670995D01*
X154770954Y-70698120D01*
X149897935Y-74901996D01*
X149834316Y-74930882D01*
X149765179Y-74920787D01*
X149741453Y-74906482D01*
X149686134Y-74864035D01*
X149627626Y-74819139D01*
X149627623Y-74819138D01*
X149493712Y-74763671D01*
X149493710Y-74763670D01*
X149493709Y-74763670D01*
X149421854Y-74754210D01*
X149350001Y-74744750D01*
X149349999Y-74744750D01*
X149206291Y-74763670D01*
X149206287Y-74763671D01*
X149072377Y-74819137D01*
X148957379Y-74907379D01*
X148869137Y-75022377D01*
X148813671Y-75156287D01*
X148813670Y-75156291D01*
X148804279Y-75227625D01*
X148794750Y-75300000D01*
X148811978Y-75430861D01*
X148813670Y-75443708D01*
X148813671Y-75443712D01*
X148869138Y-75577623D01*
X148869139Y-75577626D01*
X148953518Y-75687589D01*
X148978713Y-75752758D01*
X148964675Y-75821203D01*
X148953357Y-75838772D01*
X148642327Y-76242326D01*
X148642326Y-76242328D01*
X148625944Y-78376952D01*
X148605746Y-78443838D01*
X148552592Y-78489186D01*
X148501948Y-78500000D01*
X145069697Y-78500000D01*
X145002658Y-78480315D01*
X144956903Y-78427511D01*
X144945702Y-78374931D01*
X144960854Y-76617246D01*
X144981114Y-76550384D01*
X145034311Y-76505086D01*
X145103552Y-76495739D01*
X145132300Y-76503759D01*
X145137375Y-76505861D01*
X145271291Y-76561330D01*
X145398280Y-76578048D01*
X145414999Y-76580250D01*
X145415000Y-76580250D01*
X145415001Y-76580250D01*
X145429977Y-76578278D01*
X145558709Y-76561330D01*
X145692625Y-76505861D01*
X145807621Y-76417621D01*
X145895861Y-76302625D01*
X145951330Y-76168709D01*
X145970250Y-76025000D01*
X145951330Y-75881291D01*
X145895861Y-75747375D01*
X145807621Y-75632379D01*
X145692625Y-75544139D01*
X145692624Y-75544138D01*
X145692622Y-75544137D01*
X145558712Y-75488671D01*
X145558710Y-75488670D01*
X145558709Y-75488670D01*
X145486854Y-75479210D01*
X145415001Y-75469750D01*
X145414999Y-75469750D01*
X145271291Y-75488670D01*
X145271287Y-75488671D01*
X145144117Y-75541346D01*
X145074648Y-75548815D01*
X145012169Y-75517539D01*
X144976517Y-75457450D01*
X144972666Y-75427394D01*
X144970735Y-75030999D01*
X144971794Y-75014225D01*
X144980250Y-74950000D01*
X144970980Y-74879589D01*
X144969922Y-74864035D01*
X144965243Y-73903731D01*
X144984601Y-73836598D01*
X145037182Y-73790587D01*
X145106291Y-73780307D01*
X145123255Y-73784916D01*
X145123440Y-73784226D01*
X145131284Y-73786327D01*
X145131291Y-73786330D01*
X145258280Y-73803048D01*
X145274999Y-73805250D01*
X145275000Y-73805250D01*
X145275001Y-73805250D01*
X145289977Y-73803278D01*
X145418709Y-73786330D01*
X145552625Y-73730861D01*
X145667621Y-73642621D01*
X145755861Y-73527625D01*
X145811330Y-73393709D01*
X145830250Y-73250000D01*
X145811330Y-73106291D01*
X145755861Y-72972375D01*
X145681141Y-72874999D01*
X149994750Y-72874999D01*
X149994750Y-72875000D01*
X150013670Y-73018708D01*
X150013671Y-73018712D01*
X150069137Y-73152622D01*
X150069138Y-73152624D01*
X150069139Y-73152625D01*
X150157379Y-73267621D01*
X150272375Y-73355861D01*
X150406291Y-73411330D01*
X150533280Y-73428048D01*
X150549999Y-73430250D01*
X150550000Y-73430250D01*
X150550001Y-73430250D01*
X150564977Y-73428278D01*
X150693709Y-73411330D01*
X150827625Y-73355861D01*
X150942621Y-73267621D01*
X151030861Y-73152625D01*
X151086330Y-73018709D01*
X151105250Y-72875000D01*
X151086330Y-72731291D01*
X151030861Y-72597375D01*
X150942621Y-72482379D01*
X150827625Y-72394139D01*
X150827624Y-72394138D01*
X150827622Y-72394137D01*
X150693712Y-72338671D01*
X150693710Y-72338670D01*
X150693709Y-72338670D01*
X150621854Y-72329210D01*
X150550001Y-72319750D01*
X150549999Y-72319750D01*
X150406291Y-72338670D01*
X150406287Y-72338671D01*
X150272377Y-72394137D01*
X150157379Y-72482379D01*
X150069137Y-72597377D01*
X150013671Y-72731287D01*
X150013670Y-72731291D01*
X149994750Y-72874999D01*
X145681141Y-72874999D01*
X145667621Y-72857379D01*
X145552625Y-72769139D01*
X145552624Y-72769138D01*
X145552622Y-72769137D01*
X145418712Y-72713671D01*
X145418710Y-72713670D01*
X145418709Y-72713670D01*
X145346854Y-72704210D01*
X145275001Y-72694750D01*
X145274999Y-72694750D01*
X145131291Y-72713670D01*
X145131284Y-72713672D01*
X145130331Y-72714067D01*
X145129462Y-72714160D01*
X145123440Y-72715774D01*
X145123188Y-72714834D01*
X145060861Y-72721529D01*
X144998385Y-72690247D01*
X144962739Y-72630155D01*
X144958892Y-72600113D01*
X144950171Y-70810137D01*
X144968289Y-70744995D01*
X145161228Y-70428474D01*
X145212927Y-70381479D01*
X145281830Y-70369894D01*
X145342590Y-70394640D01*
X145422375Y-70455861D01*
X145422376Y-70455861D01*
X145422377Y-70455862D01*
X145467013Y-70474350D01*
X145556291Y-70511330D01*
X145683280Y-70528048D01*
X145699999Y-70530250D01*
X145700000Y-70530250D01*
X145700001Y-70530250D01*
X145714977Y-70528278D01*
X145843709Y-70511330D01*
X145977625Y-70455861D01*
X146092621Y-70367621D01*
X146180861Y-70252625D01*
X146236330Y-70118709D01*
X146255250Y-69975000D01*
X146248667Y-69924999D01*
X149619750Y-69924999D01*
X149619750Y-69925000D01*
X149638670Y-70068708D01*
X149638671Y-70068712D01*
X149694137Y-70202622D01*
X149694138Y-70202624D01*
X149694139Y-70202625D01*
X149782379Y-70317621D01*
X149897375Y-70405861D01*
X150031291Y-70461330D01*
X150158280Y-70478048D01*
X150174999Y-70480250D01*
X150175000Y-70480250D01*
X150175001Y-70480250D01*
X150189977Y-70478278D01*
X150318709Y-70461330D01*
X150452625Y-70405861D01*
X150567621Y-70317621D01*
X150655861Y-70202625D01*
X150711330Y-70068709D01*
X150730250Y-69925000D01*
X150711330Y-69781291D01*
X150655861Y-69647375D01*
X150567621Y-69532379D01*
X150452625Y-69444139D01*
X150452624Y-69444138D01*
X150452622Y-69444137D01*
X150318712Y-69388671D01*
X150318710Y-69388670D01*
X150318709Y-69388670D01*
X150246854Y-69379210D01*
X150175001Y-69369750D01*
X150174999Y-69369750D01*
X150031291Y-69388670D01*
X150031287Y-69388671D01*
X149897377Y-69444137D01*
X149782379Y-69532379D01*
X149694137Y-69647377D01*
X149638671Y-69781287D01*
X149638670Y-69781291D01*
X149619750Y-69924999D01*
X146248667Y-69924999D01*
X146236330Y-69831291D01*
X146180861Y-69697375D01*
X146092621Y-69582379D01*
X145977625Y-69494139D01*
X145977623Y-69494138D01*
X145914341Y-69467926D01*
X145859938Y-69424085D01*
X145837873Y-69357791D01*
X145855152Y-69290092D01*
X145855807Y-69289001D01*
X148738195Y-64560378D01*
X148789896Y-64513381D01*
X148845704Y-64500930D01*
X150675000Y-64525000D01*
X150675003Y-64524999D01*
X150675005Y-64525000D01*
X150757663Y-64524368D01*
X151716090Y-64517048D01*
X151783277Y-64536220D01*
X151829434Y-64588673D01*
X151839905Y-64657753D01*
X151818611Y-64712167D01*
X151706400Y-64872420D01*
X151706399Y-64872422D01*
X151606570Y-65086507D01*
X151606567Y-65086513D01*
X151549364Y-65299999D01*
X151549364Y-65300000D01*
X152446988Y-65300000D01*
X152414075Y-65357007D01*
X152380000Y-65484174D01*
X152380000Y-65615826D01*
X152414075Y-65742993D01*
X152446988Y-65800000D01*
X151549364Y-65800000D01*
X151606567Y-66013486D01*
X151606570Y-66013492D01*
X151706399Y-66227578D01*
X151841894Y-66421082D01*
X152008917Y-66588105D01*
X152202421Y-66723600D01*
X152416507Y-66823429D01*
X152416516Y-66823433D01*
X152630000Y-66880634D01*
X152630000Y-65983012D01*
X152687007Y-66015925D01*
X152814174Y-66050000D01*
X152945826Y-66050000D01*
X153072993Y-66015925D01*
X153130000Y-65983012D01*
X153130000Y-66880633D01*
X153343483Y-66823433D01*
X153343492Y-66823429D01*
X153557578Y-66723600D01*
X153751082Y-66588105D01*
X153918105Y-66421082D01*
X154053600Y-66227578D01*
X154153429Y-66013492D01*
X154153432Y-66013486D01*
X154210636Y-65800000D01*
X153313012Y-65800000D01*
X153345925Y-65742993D01*
X153380000Y-65615826D01*
X153380000Y-65484174D01*
X153345925Y-65357007D01*
X153313012Y-65300000D01*
X154210636Y-65300000D01*
X154210635Y-65299999D01*
X154153432Y-65086513D01*
X154153429Y-65086507D01*
X154053600Y-64872422D01*
X154053599Y-64872420D01*
X153929016Y-64694497D01*
X153906689Y-64628291D01*
X153923699Y-64560524D01*
X153974647Y-64512711D01*
X154029643Y-64499378D01*
X154200000Y-64498077D01*
X154800000Y-65300000D01*
G37*
%TD.AperFunction*%
%TD*%
M02*
