%TF.GenerationSoftware,KiCad,Pcbnew,8.0.7*%
%TF.CreationDate,2025-02-19T12:10:22-05:00*%
%TF.ProjectId,RP2350_V1,52503233-3530-45f5-9631-2e6b69636164,1.0*%
%TF.SameCoordinates,Original*%
%TF.FileFunction,Copper,L2,Inr*%
%TF.FilePolarity,Positive*%
%FSLAX46Y46*%
G04 Gerber Fmt 4.6, Leading zero omitted, Abs format (unit mm)*
G04 Created by KiCad (PCBNEW 8.0.7) date 2025-02-19 12:10:22*
%MOMM*%
%LPD*%
G01*
G04 APERTURE LIST*
G04 Aperture macros list*
%AMRoundRect*
0 Rectangle with rounded corners*
0 $1 Rounding radius*
0 $2 $3 $4 $5 $6 $7 $8 $9 X,Y pos of 4 corners*
0 Add a 4 corners polygon primitive as box body*
4,1,4,$2,$3,$4,$5,$6,$7,$8,$9,$2,$3,0*
0 Add four circle primitives for the rounded corners*
1,1,$1+$1,$2,$3*
1,1,$1+$1,$4,$5*
1,1,$1+$1,$6,$7*
1,1,$1+$1,$8,$9*
0 Add four rect primitives between the rounded corners*
20,1,$1+$1,$2,$3,$4,$5,0*
20,1,$1+$1,$4,$5,$6,$7,0*
20,1,$1+$1,$6,$7,$8,$9,0*
20,1,$1+$1,$8,$9,$2,$3,0*%
G04 Aperture macros list end*
%TA.AperFunction,ComponentPad*%
%ADD10R,1.700000X1.700000*%
%TD*%
%TA.AperFunction,ComponentPad*%
%ADD11O,1.700000X1.700000*%
%TD*%
%TA.AperFunction,ComponentPad*%
%ADD12O,1.000000X2.100000*%
%TD*%
%TA.AperFunction,ComponentPad*%
%ADD13O,1.000000X1.800000*%
%TD*%
%TA.AperFunction,ComponentPad*%
%ADD14RoundRect,0.250000X-0.350000X-0.625000X0.350000X-0.625000X0.350000X0.625000X-0.350000X0.625000X0*%
%TD*%
%TA.AperFunction,ComponentPad*%
%ADD15O,1.200000X1.750000*%
%TD*%
%TA.AperFunction,HeatsinkPad*%
%ADD16C,0.800000*%
%TD*%
%TA.AperFunction,ViaPad*%
%ADD17C,0.700000*%
%TD*%
G04 APERTURE END LIST*
D10*
%TO.N,unconnected-(J4-Pin_1-Pad1)*%
%TO.C,J4*%
X137495000Y-47805000D03*
D11*
%TO.N,GND*%
X137495000Y-50345000D03*
%TO.N,/CS{slash}NSS*%
X137495000Y-52885000D03*
%TO.N,/SPI0_CLK*%
X137495000Y-55425000D03*
%TO.N,/SPI0_TX*%
X137495000Y-57965000D03*
%TO.N,/SPI0_RX*%
X137495000Y-60505000D03*
%TO.N,/uC_RESET*%
X137495000Y-63045000D03*
%TO.N,/uC_BUSY*%
X137495000Y-65585000D03*
%TD*%
D10*
%TO.N,GND*%
%TO.C,J2*%
X152880000Y-47770000D03*
D11*
X152880000Y-50310000D03*
%TO.N,unconnected-(J2-Pin_3-Pad3)*%
X152880000Y-52850000D03*
%TO.N,unconnected-(J2-Pin_4-Pad4)*%
X152880000Y-55390000D03*
%TO.N,unconnected-(J2-Pin_5-Pad5)*%
X152880000Y-57930000D03*
%TO.N,/DIO1*%
X152880000Y-60470000D03*
%TO.N,GND*%
X152880000Y-63010000D03*
%TO.N,+3V3*%
X152880000Y-65550000D03*
%TD*%
D12*
%TO.N,unconnected-(J3-SHIELD-PadS1)_3*%
%TO.C,J3*%
X138200000Y-120520000D03*
D13*
%TO.N,unconnected-(J3-SHIELD-PadS1)_1*%
X138200000Y-124700000D03*
D12*
%TO.N,unconnected-(J3-SHIELD-PadS1)_2*%
X146840000Y-120520000D03*
D13*
%TO.N,unconnected-(J3-SHIELD-PadS1)*%
X146840000Y-124700000D03*
%TD*%
D10*
%TO.N,/SWCLK*%
%TO.C,J1*%
X125775000Y-71310000D03*
D11*
%TO.N,GND*%
X125775000Y-73850000D03*
%TO.N,/SWD*%
X125775000Y-76390000D03*
%TO.N,GND*%
X125775000Y-78930000D03*
%TD*%
D14*
%TO.N,+3V3*%
%TO.C,J5*%
X137850000Y-37760000D03*
D15*
%TO.N,GND*%
X139850000Y-37760000D03*
%TO.N,/SPI1_TX*%
X141850000Y-37760000D03*
%TO.N,/SPI1_CLK*%
X143850000Y-37760000D03*
%TO.N,/SPI1_CS*%
X145850000Y-37760000D03*
%TO.N,/DISPLAY_DC*%
X147850000Y-37760000D03*
%TO.N,/DISPLAY_RESET*%
X149850000Y-37760000D03*
%TO.N,/DISPLAY_BUSY*%
X151850000Y-37760000D03*
%TD*%
D14*
%TO.N,GND*%
%TO.C,J6*%
X128925000Y-120225000D03*
D15*
%TO.N,/VBAT*%
X130925000Y-120225000D03*
%TD*%
D10*
%TO.N,/UART_Tx_DEBUG*%
%TO.C,J7*%
X153770000Y-87120000D03*
D11*
%TO.N,GND*%
X156310000Y-87120000D03*
%TO.N,/UART_Rx_DEBUG*%
X158850000Y-87120000D03*
%TO.N,GND*%
X161390000Y-87120000D03*
%TD*%
D16*
%TO.N,GND*%
%TO.C,U1*%
X146012500Y-83780000D03*
X146012500Y-82580000D03*
X146012500Y-81380000D03*
X144812500Y-83780000D03*
X144812500Y-82580000D03*
X144762500Y-81380000D03*
X143612500Y-83780000D03*
X143612500Y-82580000D03*
X143612500Y-81380000D03*
%TD*%
D17*
%TO.N,GND*%
X149350000Y-75300000D03*
X149848071Y-76723071D03*
X144425000Y-74950000D03*
X145415000Y-76025000D03*
X145275000Y-73250000D03*
X150550000Y-72875000D03*
X150175000Y-69925000D03*
X145700000Y-69975000D03*
X137990000Y-82300000D03*
X148902800Y-97867324D03*
X137275000Y-102225000D03*
X152853058Y-81043058D03*
X156535000Y-111485000D03*
X167820000Y-81160000D03*
X119440000Y-91550000D03*
X141490000Y-88650000D03*
X173380000Y-74750000D03*
X141125000Y-115920000D03*
X157150000Y-120775000D03*
X142300000Y-108640200D03*
X148080000Y-117560000D03*
X127925000Y-115650000D03*
X133800000Y-105420000D03*
X137400000Y-106000000D03*
X137990000Y-83290000D03*
X131075000Y-62400000D03*
X137387500Y-97487500D03*
X141500000Y-87590000D03*
X131300000Y-97310000D03*
X128130000Y-97610000D03*
X128122500Y-85647500D03*
X155930000Y-92645000D03*
X164000000Y-65550000D03*
X133810000Y-103330000D03*
X153100000Y-83575000D03*
X167800000Y-65575000D03*
X146350000Y-118380000D03*
X164200000Y-98010000D03*
X147925000Y-92875000D03*
X119420000Y-97710000D03*
X172980000Y-85950000D03*
X158340000Y-60130000D03*
X150390000Y-87570000D03*
X143550000Y-67725000D03*
X129270000Y-98790000D03*
X133720000Y-114175000D03*
X135590000Y-118820000D03*
X139837500Y-87637500D03*
X122175000Y-62400000D03*
X165410000Y-84640000D03*
X119440000Y-85450000D03*
X146175000Y-97875000D03*
X172960000Y-91980000D03*
X143422746Y-116949999D03*
X164132615Y-92075698D03*
X162950000Y-70475000D03*
X157150000Y-117975000D03*
X171600000Y-65575000D03*
X137770000Y-95760000D03*
X136625000Y-110690200D03*
X128070000Y-91550000D03*
X138874314Y-118425686D03*
X171550000Y-81100000D03*
X136775000Y-85165000D03*
X133820000Y-104350000D03*
X164890000Y-60200000D03*
X163925000Y-81175000D03*
X172980000Y-97890000D03*
%TO.N,+3V3*%
X149400000Y-85607200D03*
X139790000Y-84550000D03*
X171700000Y-82275000D03*
X141280000Y-78130000D03*
X173540000Y-64420000D03*
X167970000Y-82270000D03*
X169780000Y-64410000D03*
X139790000Y-85360000D03*
X144100000Y-101850000D03*
X165850000Y-82425000D03*
X165875000Y-64450000D03*
X147725000Y-67600000D03*
X153550000Y-99225000D03*
X173700000Y-77375000D03*
X139790000Y-86150000D03*
%TO.N,+1V1*%
X144532322Y-88617678D03*
X144600000Y-89300000D03*
X144240000Y-84850000D03*
%TO.N,/VBAT*%
X151625000Y-119250000D03*
%TO.N,/SWD*%
X143319974Y-73699546D03*
%TO.N,/SWCLK*%
X143275000Y-72754569D03*
%TO.N,/DIO1*%
X136410000Y-72075000D03*
X150825000Y-60775000D03*
%TO.N,/DISPLAY_RESET*%
X151350000Y-75900000D03*
X156520000Y-69100000D03*
%TO.N,/DISPLAY_BUSY*%
X151350000Y-74725000D03*
X155330000Y-69350000D03*
%TO.N,/RUN*%
X129550000Y-72775000D03*
X142825000Y-71975000D03*
%TO.N,/~{USB_BOOT}*%
X160175000Y-70175000D03*
X160525000Y-83850000D03*
%TO.N,Net-(R20-Pad2)*%
X128382500Y-88642500D03*
X166032500Y-66357500D03*
%TO.N,Net-(R23-Pad2)*%
X128380000Y-94630000D03*
X169975000Y-83225000D03*
%TO.N,Net-(R24-Pad2)*%
X128355000Y-100905000D03*
X173800000Y-82575000D03*
%TO.N,/BTN_MACRO_C*%
X169397500Y-73927500D03*
X162975000Y-71900000D03*
%TO.N,/Converter_In*%
X140200000Y-105250000D03*
X140475000Y-103325000D03*
%TO.N,/UVLO_RST*%
X132575000Y-95485000D03*
X151740000Y-114510000D03*
%TD*%
%TA.AperFunction,Conductor*%
%TO.N,GND*%
G36*
X153130000Y-49876988D02*
G01*
X153072993Y-49844075D01*
X152945826Y-49810000D01*
X152814174Y-49810000D01*
X152687007Y-49844075D01*
X152630000Y-49876988D01*
X152630000Y-48203012D01*
X152687007Y-48235925D01*
X152814174Y-48270000D01*
X152945826Y-48270000D01*
X153072993Y-48235925D01*
X153130000Y-48203012D01*
X153130000Y-49876988D01*
G37*
%TD.AperFunction*%
%TA.AperFunction,Conductor*%
G36*
X171114607Y-31761214D02*
G01*
X171140731Y-31762106D01*
X171658577Y-31779796D01*
X171667000Y-31780373D01*
X172206341Y-31835818D01*
X172214679Y-31836964D01*
X172665681Y-31914725D01*
X172748969Y-31929086D01*
X172757259Y-31930809D01*
X172880815Y-31960918D01*
X173284002Y-32059172D01*
X173292116Y-32061445D01*
X173663079Y-32179184D01*
X173808879Y-32225459D01*
X173816857Y-32228294D01*
X173999689Y-32300393D01*
X174321228Y-32427191D01*
X174328974Y-32430557D01*
X174818580Y-32663404D01*
X174826072Y-32667285D01*
X175023025Y-32778026D01*
X175298657Y-32933006D01*
X175305891Y-32937405D01*
X175759238Y-33234755D01*
X175766147Y-33239633D01*
X176198133Y-33567218D01*
X176204701Y-33572562D01*
X176613317Y-33928857D01*
X176619505Y-33934636D01*
X177002863Y-34317994D01*
X177008642Y-34324182D01*
X177364937Y-34732798D01*
X177370281Y-34739366D01*
X177697866Y-35171352D01*
X177702749Y-35178269D01*
X178000094Y-35631608D01*
X178004493Y-35638842D01*
X178270207Y-36111414D01*
X178274102Y-36118932D01*
X178506938Y-36608515D01*
X178510312Y-36616281D01*
X178709205Y-37120642D01*
X178712040Y-37128620D01*
X178876048Y-37645364D01*
X178878332Y-37653517D01*
X179006690Y-38180240D01*
X179008413Y-38188530D01*
X179100531Y-38722795D01*
X179101684Y-38731183D01*
X179157125Y-39270486D01*
X179157703Y-39278933D01*
X179176286Y-39822892D01*
X179176358Y-39827126D01*
X179176358Y-118933515D01*
X179176286Y-118937749D01*
X179157703Y-119481708D01*
X179157125Y-119490155D01*
X179101684Y-120029457D01*
X179100531Y-120037845D01*
X179008413Y-120572111D01*
X179006690Y-120580401D01*
X178878332Y-121107123D01*
X178876048Y-121115276D01*
X178712036Y-121632033D01*
X178709201Y-121640011D01*
X178682476Y-121707781D01*
X178510309Y-122144364D01*
X178506943Y-122152113D01*
X178274102Y-122641708D01*
X178270207Y-122649226D01*
X178004492Y-123121798D01*
X178000093Y-123129032D01*
X177702749Y-123582371D01*
X177697866Y-123589288D01*
X177370281Y-124021273D01*
X177364937Y-124027841D01*
X177008642Y-124436457D01*
X177002863Y-124442645D01*
X176619504Y-124826004D01*
X176613316Y-124831783D01*
X176204700Y-125188078D01*
X176198132Y-125193422D01*
X175766147Y-125521007D01*
X175759230Y-125525890D01*
X175305891Y-125823234D01*
X175298657Y-125827633D01*
X174826085Y-126093348D01*
X174818567Y-126097243D01*
X174328983Y-126330078D01*
X174321217Y-126333452D01*
X173816856Y-126532345D01*
X173808878Y-126535180D01*
X173292135Y-126699188D01*
X173283982Y-126701472D01*
X172757260Y-126829830D01*
X172748970Y-126831553D01*
X172214703Y-126923671D01*
X172206315Y-126924824D01*
X171667013Y-126980265D01*
X171658566Y-126980843D01*
X171388094Y-126990083D01*
X171114533Y-126999428D01*
X171110331Y-126999500D01*
X122589626Y-126999500D01*
X122585392Y-126999428D01*
X122041432Y-126980845D01*
X122032986Y-126980267D01*
X121493682Y-126924826D01*
X121485293Y-126923673D01*
X120951025Y-126831555D01*
X120942736Y-126829832D01*
X120416014Y-126701475D01*
X120407860Y-126699191D01*
X119891115Y-126535183D01*
X119883137Y-126532348D01*
X119378774Y-126333454D01*
X119371008Y-126330080D01*
X118881416Y-126097241D01*
X118873899Y-126093346D01*
X118401338Y-125827640D01*
X118394103Y-125823241D01*
X118394092Y-125823234D01*
X117940753Y-125525890D01*
X117933840Y-125521010D01*
X117508604Y-125198543D01*
X137199499Y-125198543D01*
X137237947Y-125391829D01*
X137237950Y-125391839D01*
X137313364Y-125573907D01*
X137313371Y-125573920D01*
X137422860Y-125737781D01*
X137422863Y-125737785D01*
X137562214Y-125877136D01*
X137562218Y-125877139D01*
X137726079Y-125986628D01*
X137726092Y-125986635D01*
X137908160Y-126062049D01*
X137908165Y-126062051D01*
X137908169Y-126062051D01*
X137908170Y-126062052D01*
X138101456Y-126100500D01*
X138101459Y-126100500D01*
X138298543Y-126100500D01*
X138428582Y-126074632D01*
X138491835Y-126062051D01*
X138673914Y-125986632D01*
X138837782Y-125877139D01*
X138977139Y-125737782D01*
X139086632Y-125573914D01*
X139162051Y-125391835D01*
X139200500Y-125198543D01*
X145839499Y-125198543D01*
X145877947Y-125391829D01*
X145877950Y-125391839D01*
X145953364Y-125573907D01*
X145953371Y-125573920D01*
X146062860Y-125737781D01*
X146062863Y-125737785D01*
X146202214Y-125877136D01*
X146202218Y-125877139D01*
X146366079Y-125986628D01*
X146366092Y-125986635D01*
X146548160Y-126062049D01*
X146548165Y-126062051D01*
X146548169Y-126062051D01*
X146548170Y-126062052D01*
X146741456Y-126100500D01*
X146741459Y-126100500D01*
X146938543Y-126100500D01*
X147068582Y-126074632D01*
X147131835Y-126062051D01*
X147313914Y-125986632D01*
X147477782Y-125877139D01*
X147617139Y-125737782D01*
X147726632Y-125573914D01*
X147802051Y-125391835D01*
X147840500Y-125198541D01*
X147840500Y-124201459D01*
X147840500Y-124201456D01*
X147802052Y-124008170D01*
X147802051Y-124008169D01*
X147802051Y-124008165D01*
X147802049Y-124008160D01*
X147726635Y-123826092D01*
X147726628Y-123826079D01*
X147617139Y-123662218D01*
X147617136Y-123662214D01*
X147477785Y-123522863D01*
X147477781Y-123522860D01*
X147313920Y-123413371D01*
X147313907Y-123413364D01*
X147131839Y-123337950D01*
X147131829Y-123337947D01*
X146938543Y-123299500D01*
X146938541Y-123299500D01*
X146741459Y-123299500D01*
X146741457Y-123299500D01*
X146548170Y-123337947D01*
X146548160Y-123337950D01*
X146366092Y-123413364D01*
X146366079Y-123413371D01*
X146202218Y-123522860D01*
X146202214Y-123522863D01*
X146062863Y-123662214D01*
X146062860Y-123662218D01*
X145953371Y-123826079D01*
X145953364Y-123826092D01*
X145877950Y-124008160D01*
X145877947Y-124008170D01*
X145839500Y-124201456D01*
X145839500Y-124201459D01*
X145839500Y-125198541D01*
X145839500Y-125198543D01*
X145839499Y-125198543D01*
X139200500Y-125198543D01*
X139200500Y-125198541D01*
X139200500Y-124201459D01*
X139200500Y-124201456D01*
X139162052Y-124008170D01*
X139162051Y-124008169D01*
X139162051Y-124008165D01*
X139162049Y-124008160D01*
X139086635Y-123826092D01*
X139086628Y-123826079D01*
X138977139Y-123662218D01*
X138977136Y-123662214D01*
X138837785Y-123522863D01*
X138837781Y-123522860D01*
X138673920Y-123413371D01*
X138673907Y-123413364D01*
X138491839Y-123337950D01*
X138491829Y-123337947D01*
X138298543Y-123299500D01*
X138298541Y-123299500D01*
X138101459Y-123299500D01*
X138101457Y-123299500D01*
X137908170Y-123337947D01*
X137908160Y-123337950D01*
X137726092Y-123413364D01*
X137726079Y-123413371D01*
X137562218Y-123522860D01*
X137562214Y-123522863D01*
X137422863Y-123662214D01*
X137422860Y-123662218D01*
X137313371Y-123826079D01*
X137313364Y-123826092D01*
X137237950Y-124008160D01*
X137237947Y-124008170D01*
X137199500Y-124201456D01*
X137199500Y-124201459D01*
X137199500Y-125198541D01*
X137199500Y-125198543D01*
X137199499Y-125198543D01*
X117508604Y-125198543D01*
X117501863Y-125193431D01*
X117495295Y-125188088D01*
X117086667Y-124831785D01*
X117080479Y-124826006D01*
X116697112Y-124442642D01*
X116691333Y-124436453D01*
X116335049Y-124027851D01*
X116329705Y-124021283D01*
X116002101Y-123589274D01*
X115997219Y-123582358D01*
X115958194Y-123522860D01*
X115699880Y-123129031D01*
X115695490Y-123121813D01*
X115639601Y-123022415D01*
X115429760Y-122649216D01*
X115425878Y-122641724D01*
X115193026Y-122152110D01*
X115189663Y-122144366D01*
X114990757Y-121639981D01*
X114987941Y-121632060D01*
X114823913Y-121115258D01*
X114821640Y-121107144D01*
X114765792Y-120877973D01*
X118449500Y-120877973D01*
X118449500Y-121122026D01*
X118484445Y-121342661D01*
X118487679Y-121363076D01*
X118563096Y-121595185D01*
X118620468Y-121707785D01*
X118673896Y-121812642D01*
X118817339Y-122010076D01*
X118817343Y-122010081D01*
X118989918Y-122182656D01*
X118989923Y-122182660D01*
X119162136Y-122307779D01*
X119187361Y-122326106D01*
X119404815Y-122436904D01*
X119636924Y-122512321D01*
X119877973Y-122550500D01*
X119877974Y-122550500D01*
X120122026Y-122550500D01*
X120122027Y-122550500D01*
X120363076Y-122512321D01*
X120595185Y-122436904D01*
X120812639Y-122326106D01*
X121010083Y-122182655D01*
X121182655Y-122010083D01*
X121326106Y-121812639D01*
X121436904Y-121595185D01*
X121512321Y-121363076D01*
X121550500Y-121122027D01*
X121550500Y-120877973D01*
X121512321Y-120636924D01*
X121436904Y-120404815D01*
X121326106Y-120187361D01*
X121235992Y-120063329D01*
X121182660Y-119989923D01*
X121182656Y-119989918D01*
X121010081Y-119817343D01*
X121010076Y-119817339D01*
X120812642Y-119673896D01*
X120812641Y-119673895D01*
X120812639Y-119673894D01*
X120595185Y-119563096D01*
X120554920Y-119550013D01*
X127825000Y-119550013D01*
X127825000Y-119975000D01*
X128644670Y-119975000D01*
X128624925Y-119994745D01*
X128575556Y-120080255D01*
X128550000Y-120175630D01*
X128550000Y-120274370D01*
X128575556Y-120369745D01*
X128624925Y-120455255D01*
X128644670Y-120475000D01*
X127825001Y-120475000D01*
X127825001Y-120899986D01*
X127835494Y-121002697D01*
X127890641Y-121169119D01*
X127890643Y-121169124D01*
X127982684Y-121318345D01*
X128106654Y-121442315D01*
X128255875Y-121534356D01*
X128255880Y-121534358D01*
X128422302Y-121589505D01*
X128422309Y-121589506D01*
X128525019Y-121599999D01*
X128674999Y-121599999D01*
X128675000Y-121599998D01*
X128675000Y-120505330D01*
X128694745Y-120525075D01*
X128780255Y-120574444D01*
X128875630Y-120600000D01*
X128974370Y-120600000D01*
X129069745Y-120574444D01*
X129155255Y-120525075D01*
X129175000Y-120505330D01*
X129175000Y-121599999D01*
X129324972Y-121599999D01*
X129324986Y-121599998D01*
X129427697Y-121589505D01*
X129594119Y-121534358D01*
X129594124Y-121534356D01*
X129743345Y-121442315D01*
X129867315Y-121318345D01*
X129906945Y-121254094D01*
X129958893Y-121207368D01*
X130027855Y-121196145D01*
X130091937Y-121223988D01*
X130100166Y-121231508D01*
X130208072Y-121339414D01*
X130348212Y-121441232D01*
X130502555Y-121519873D01*
X130667299Y-121573402D01*
X130838389Y-121600500D01*
X130838390Y-121600500D01*
X131011610Y-121600500D01*
X131011611Y-121600500D01*
X131182701Y-121573402D01*
X131347445Y-121519873D01*
X131501788Y-121441232D01*
X131641928Y-121339414D01*
X131764414Y-121216928D01*
X131799568Y-121168543D01*
X137199499Y-121168543D01*
X137237947Y-121361829D01*
X137237950Y-121361839D01*
X137313364Y-121543907D01*
X137313371Y-121543920D01*
X137422860Y-121707781D01*
X137422863Y-121707785D01*
X137562214Y-121847136D01*
X137562218Y-121847139D01*
X137726079Y-121956628D01*
X137726092Y-121956635D01*
X137855112Y-122010076D01*
X137908165Y-122032051D01*
X137908169Y-122032051D01*
X137908170Y-122032052D01*
X138101456Y-122070500D01*
X138101459Y-122070500D01*
X138298543Y-122070500D01*
X138428582Y-122044632D01*
X138491835Y-122032051D01*
X138673914Y-121956632D01*
X138837782Y-121847139D01*
X138977139Y-121707782D01*
X139086632Y-121543914D01*
X139110544Y-121486182D01*
X139154384Y-121431782D01*
X139220678Y-121409716D01*
X139288377Y-121426995D01*
X139300334Y-121436283D01*
X139300890Y-121435559D01*
X139307333Y-121440503D01*
X139307335Y-121440505D01*
X139427164Y-121509688D01*
X139560817Y-121545500D01*
X139560819Y-121545500D01*
X139699181Y-121545500D01*
X139699183Y-121545500D01*
X139832836Y-121509688D01*
X139952665Y-121440505D01*
X140050505Y-121342665D01*
X140119688Y-121222836D01*
X140155500Y-121089183D01*
X140155500Y-120950817D01*
X144884500Y-120950817D01*
X144884500Y-121089183D01*
X144918730Y-121216929D01*
X144920312Y-121222835D01*
X144920313Y-121222838D01*
X144989492Y-121342661D01*
X144989494Y-121342664D01*
X144989495Y-121342665D01*
X145087335Y-121440505D01*
X145207164Y-121509688D01*
X145340817Y-121545500D01*
X145340819Y-121545500D01*
X145479181Y-121545500D01*
X145479183Y-121545500D01*
X145612836Y-121509688D01*
X145732665Y-121440505D01*
X145732669Y-121440500D01*
X145739110Y-121435559D01*
X145741238Y-121438333D01*
X145788331Y-121412516D01*
X145858031Y-121417382D01*
X145914035Y-121459159D01*
X145929455Y-121486184D01*
X145953366Y-121543910D01*
X145953371Y-121543920D01*
X146062860Y-121707781D01*
X146062863Y-121707785D01*
X146202214Y-121847136D01*
X146202218Y-121847139D01*
X146366079Y-121956628D01*
X146366092Y-121956635D01*
X146495112Y-122010076D01*
X146548165Y-122032051D01*
X146548169Y-122032051D01*
X146548170Y-122032052D01*
X146741456Y-122070500D01*
X146741459Y-122070500D01*
X146938543Y-122070500D01*
X147068582Y-122044632D01*
X147131835Y-122032051D01*
X147313914Y-121956632D01*
X147477782Y-121847139D01*
X147617139Y-121707782D01*
X147726632Y-121543914D01*
X147802051Y-121361835D01*
X147840500Y-121168541D01*
X147840500Y-120877973D01*
X171449500Y-120877973D01*
X171449500Y-121122026D01*
X171484445Y-121342661D01*
X171487679Y-121363076D01*
X171563096Y-121595185D01*
X171620468Y-121707785D01*
X171673896Y-121812642D01*
X171817339Y-122010076D01*
X171817343Y-122010081D01*
X171989918Y-122182656D01*
X171989923Y-122182660D01*
X172162136Y-122307779D01*
X172187361Y-122326106D01*
X172404815Y-122436904D01*
X172636924Y-122512321D01*
X172877973Y-122550500D01*
X172877974Y-122550500D01*
X173122026Y-122550500D01*
X173122027Y-122550500D01*
X173363076Y-122512321D01*
X173595185Y-122436904D01*
X173812639Y-122326106D01*
X174010083Y-122182655D01*
X174182655Y-122010083D01*
X174326106Y-121812639D01*
X174436904Y-121595185D01*
X174512321Y-121363076D01*
X174550500Y-121122027D01*
X174550500Y-120877973D01*
X174512321Y-120636924D01*
X174436904Y-120404815D01*
X174326106Y-120187361D01*
X174235992Y-120063329D01*
X174182660Y-119989923D01*
X174182656Y-119989918D01*
X174010081Y-119817343D01*
X174010076Y-119817339D01*
X173812642Y-119673896D01*
X173812641Y-119673895D01*
X173812639Y-119673894D01*
X173595185Y-119563096D01*
X173363076Y-119487679D01*
X173363074Y-119487678D01*
X173363072Y-119487678D01*
X173194769Y-119461021D01*
X173122027Y-119449500D01*
X172877973Y-119449500D01*
X172822093Y-119458350D01*
X172636927Y-119487678D01*
X172404812Y-119563097D01*
X172187357Y-119673896D01*
X171989923Y-119817339D01*
X171989918Y-119817343D01*
X171817343Y-119989918D01*
X171817339Y-119989923D01*
X171673896Y-120187357D01*
X171563097Y-120404812D01*
X171563096Y-120404814D01*
X171563096Y-120404815D01*
X171527801Y-120513441D01*
X171487678Y-120636927D01*
X171449500Y-120877973D01*
X147840500Y-120877973D01*
X147840500Y-119871459D01*
X147840500Y-119871456D01*
X147802052Y-119678170D01*
X147802051Y-119678169D01*
X147802051Y-119678165D01*
X147800282Y-119673894D01*
X147726635Y-119496092D01*
X147726628Y-119496079D01*
X147617139Y-119332218D01*
X147617136Y-119332214D01*
X147534922Y-119250000D01*
X150769815Y-119250000D01*
X150788503Y-119427805D01*
X150788504Y-119427807D01*
X150843747Y-119597829D01*
X150843750Y-119597835D01*
X150933141Y-119752665D01*
X150974812Y-119798946D01*
X151052764Y-119885521D01*
X151052767Y-119885523D01*
X151052770Y-119885526D01*
X151197407Y-119990612D01*
X151360733Y-120063329D01*
X151535609Y-120100500D01*
X151535610Y-120100500D01*
X151714389Y-120100500D01*
X151714391Y-120100500D01*
X151889267Y-120063329D01*
X152052593Y-119990612D01*
X152197230Y-119885526D01*
X152316859Y-119752665D01*
X152406250Y-119597835D01*
X152461497Y-119427803D01*
X152480185Y-119250000D01*
X152461497Y-119072197D01*
X152417128Y-118935644D01*
X152406252Y-118902170D01*
X152406249Y-118902164D01*
X152398100Y-118888049D01*
X152316859Y-118747335D01*
X152270003Y-118695296D01*
X152197235Y-118614478D01*
X152197232Y-118614476D01*
X152197231Y-118614475D01*
X152197230Y-118614474D01*
X152052593Y-118509388D01*
X151889267Y-118436671D01*
X151889265Y-118436670D01*
X151761594Y-118409533D01*
X151714391Y-118399500D01*
X151535609Y-118399500D01*
X151504954Y-118406015D01*
X151360733Y-118436670D01*
X151360728Y-118436672D01*
X151197408Y-118509387D01*
X151052768Y-118614475D01*
X150933140Y-118747336D01*
X150843750Y-118902164D01*
X150843747Y-118902170D01*
X150788504Y-119072192D01*
X150788503Y-119072194D01*
X150769815Y-119250000D01*
X147534922Y-119250000D01*
X147477785Y-119192863D01*
X147477781Y-119192860D01*
X147313920Y-119083371D01*
X147313907Y-119083364D01*
X147131839Y-119007950D01*
X147131829Y-119007947D01*
X146938543Y-118969500D01*
X146938541Y-118969500D01*
X146741459Y-118969500D01*
X146741457Y-118969500D01*
X146548170Y-119007947D01*
X146548160Y-119007950D01*
X146366092Y-119083364D01*
X146366079Y-119083371D01*
X146202218Y-119192860D01*
X146202214Y-119192863D01*
X146062863Y-119332214D01*
X146062860Y-119332218D01*
X145953371Y-119496079D01*
X145953364Y-119496092D01*
X145877950Y-119678160D01*
X145877947Y-119678170D01*
X145839500Y-119871456D01*
X145839500Y-120446402D01*
X145819815Y-120513441D01*
X145767011Y-120559196D01*
X145697853Y-120569140D01*
X145653501Y-120553789D01*
X145612842Y-120530315D01*
X145612838Y-120530313D01*
X145612836Y-120530312D01*
X145479183Y-120494500D01*
X145340817Y-120494500D01*
X145207164Y-120530312D01*
X145207161Y-120530313D01*
X145087338Y-120599492D01*
X145087333Y-120599496D01*
X144989496Y-120697333D01*
X144989492Y-120697338D01*
X144920313Y-120817161D01*
X144920312Y-120817164D01*
X144884500Y-120950817D01*
X140155500Y-120950817D01*
X140119688Y-120817164D01*
X140050505Y-120697335D01*
X139952665Y-120599495D01*
X139952664Y-120599494D01*
X139952661Y-120599492D01*
X139832838Y-120530313D01*
X139832837Y-120530312D01*
X139832836Y-120530312D01*
X139699183Y-120494500D01*
X139560817Y-120494500D01*
X139427164Y-120530312D01*
X139427157Y-120530315D01*
X139386499Y-120553789D01*
X139318599Y-120570262D01*
X139252572Y-120547409D01*
X139209382Y-120492488D01*
X139200500Y-120446402D01*
X139200500Y-119871456D01*
X139162052Y-119678170D01*
X139162051Y-119678169D01*
X139162051Y-119678165D01*
X139160282Y-119673894D01*
X139086635Y-119496092D01*
X139086628Y-119496079D01*
X138977139Y-119332218D01*
X138977136Y-119332214D01*
X138837785Y-119192863D01*
X138837781Y-119192860D01*
X138673920Y-119083371D01*
X138673907Y-119083364D01*
X138491839Y-119007950D01*
X138491829Y-119007947D01*
X138298543Y-118969500D01*
X138298541Y-118969500D01*
X138101459Y-118969500D01*
X138101457Y-118969500D01*
X137908170Y-119007947D01*
X137908160Y-119007950D01*
X137726092Y-119083364D01*
X137726079Y-119083371D01*
X137562218Y-119192860D01*
X137562214Y-119192863D01*
X137422863Y-119332214D01*
X137422860Y-119332218D01*
X137313371Y-119496079D01*
X137313364Y-119496092D01*
X137237950Y-119678160D01*
X137237947Y-119678170D01*
X137199500Y-119871456D01*
X137199500Y-119871459D01*
X137199500Y-121168541D01*
X137199500Y-121168543D01*
X137199499Y-121168543D01*
X131799568Y-121168543D01*
X131866232Y-121076788D01*
X131944873Y-120922445D01*
X131998402Y-120757701D01*
X132025500Y-120586611D01*
X132025500Y-119863389D01*
X131998402Y-119692299D01*
X131944873Y-119527555D01*
X131866232Y-119373212D01*
X131764414Y-119233072D01*
X131641928Y-119110586D01*
X131501788Y-119008768D01*
X131347445Y-118930127D01*
X131182701Y-118876598D01*
X131182699Y-118876597D01*
X131182698Y-118876597D01*
X131051271Y-118855781D01*
X131011611Y-118849500D01*
X130838389Y-118849500D01*
X130798728Y-118855781D01*
X130667302Y-118876597D01*
X130502552Y-118930128D01*
X130348211Y-119008768D01*
X130208073Y-119110585D01*
X130100166Y-119218492D01*
X130038843Y-119251976D01*
X129969151Y-119246992D01*
X129913218Y-119205120D01*
X129906946Y-119195906D01*
X129867317Y-119131656D01*
X129743345Y-119007684D01*
X129594124Y-118915643D01*
X129594119Y-118915641D01*
X129427697Y-118860494D01*
X129427690Y-118860493D01*
X129324986Y-118850000D01*
X129175000Y-118850000D01*
X129175000Y-119944670D01*
X129155255Y-119924925D01*
X129069745Y-119875556D01*
X128974370Y-119850000D01*
X128875630Y-119850000D01*
X128780255Y-119875556D01*
X128694745Y-119924925D01*
X128675000Y-119944670D01*
X128675000Y-118850000D01*
X128525027Y-118850000D01*
X128525012Y-118850001D01*
X128422302Y-118860494D01*
X128255880Y-118915641D01*
X128255875Y-118915643D01*
X128106654Y-119007684D01*
X127982684Y-119131654D01*
X127890643Y-119280875D01*
X127890641Y-119280880D01*
X127835494Y-119447302D01*
X127835493Y-119447309D01*
X127825000Y-119550013D01*
X120554920Y-119550013D01*
X120363076Y-119487679D01*
X120363074Y-119487678D01*
X120363072Y-119487678D01*
X120194769Y-119461021D01*
X120122027Y-119449500D01*
X119877973Y-119449500D01*
X119822093Y-119458350D01*
X119636927Y-119487678D01*
X119404812Y-119563097D01*
X119187357Y-119673896D01*
X118989923Y-119817339D01*
X118989918Y-119817343D01*
X118817343Y-119989918D01*
X118817339Y-119989923D01*
X118673896Y-120187357D01*
X118563097Y-120404812D01*
X118563096Y-120404814D01*
X118563096Y-120404815D01*
X118527801Y-120513441D01*
X118487678Y-120636927D01*
X118449500Y-120877973D01*
X114765792Y-120877973D01*
X114693269Y-120580379D01*
X114691555Y-120572135D01*
X114599433Y-120037845D01*
X114598280Y-120029460D01*
X114579830Y-119850000D01*
X114542833Y-119490144D01*
X114542256Y-119481706D01*
X114540414Y-119427803D01*
X114523714Y-118938976D01*
X114523642Y-118934742D01*
X114523642Y-114510000D01*
X150884815Y-114510000D01*
X150903503Y-114687805D01*
X150903504Y-114687807D01*
X150958747Y-114857829D01*
X150958750Y-114857835D01*
X151048141Y-115012665D01*
X151089812Y-115058946D01*
X151167764Y-115145521D01*
X151167767Y-115145523D01*
X151167770Y-115145526D01*
X151312407Y-115250612D01*
X151475733Y-115323329D01*
X151650609Y-115360500D01*
X151650610Y-115360500D01*
X151829389Y-115360500D01*
X151829391Y-115360500D01*
X152004267Y-115323329D01*
X152167593Y-115250612D01*
X152312230Y-115145526D01*
X152431859Y-115012665D01*
X152521250Y-114857835D01*
X152576497Y-114687803D01*
X152595185Y-114510000D01*
X152576497Y-114332197D01*
X152521250Y-114162165D01*
X152431859Y-114007335D01*
X152385003Y-113955296D01*
X152312235Y-113874478D01*
X152312232Y-113874476D01*
X152312231Y-113874475D01*
X152312230Y-113874474D01*
X152167593Y-113769388D01*
X152004267Y-113696671D01*
X152004265Y-113696670D01*
X151876594Y-113669533D01*
X151829391Y-113659500D01*
X151650609Y-113659500D01*
X151619954Y-113666015D01*
X151475733Y-113696670D01*
X151475728Y-113696672D01*
X151312408Y-113769387D01*
X151167768Y-113874475D01*
X151048140Y-114007336D01*
X150958750Y-114162164D01*
X150958747Y-114162170D01*
X150903504Y-114332192D01*
X150903503Y-114332194D01*
X150884815Y-114510000D01*
X114523642Y-114510000D01*
X114523642Y-105250000D01*
X139344815Y-105250000D01*
X139363503Y-105427805D01*
X139363504Y-105427807D01*
X139418747Y-105597829D01*
X139418750Y-105597835D01*
X139508141Y-105752665D01*
X139549812Y-105798946D01*
X139627764Y-105885521D01*
X139627767Y-105885523D01*
X139627770Y-105885526D01*
X139772407Y-105990612D01*
X139935733Y-106063329D01*
X140110609Y-106100500D01*
X140110610Y-106100500D01*
X140289389Y-106100500D01*
X140289391Y-106100500D01*
X140464267Y-106063329D01*
X140627593Y-105990612D01*
X140772230Y-105885526D01*
X140891859Y-105752665D01*
X140981250Y-105597835D01*
X141036497Y-105427803D01*
X141055185Y-105250000D01*
X141036497Y-105072197D01*
X140981250Y-104902165D01*
X140891859Y-104747335D01*
X140845003Y-104695296D01*
X140772235Y-104614478D01*
X140772232Y-104614476D01*
X140772231Y-104614475D01*
X140772230Y-104614474D01*
X140627593Y-104509388D01*
X140464267Y-104436671D01*
X140464265Y-104436670D01*
X140389553Y-104420790D01*
X140328071Y-104387598D01*
X140323150Y-104378687D01*
X140269101Y-104399141D01*
X140259666Y-104399500D01*
X140110609Y-104399500D01*
X140079954Y-104406015D01*
X139935733Y-104436670D01*
X139935728Y-104436672D01*
X139772408Y-104509387D01*
X139627768Y-104614475D01*
X139508140Y-104747336D01*
X139418750Y-104902164D01*
X139418747Y-104902170D01*
X139363504Y-105072192D01*
X139363503Y-105072194D01*
X139344815Y-105250000D01*
X114523642Y-105250000D01*
X114523642Y-103325000D01*
X139619815Y-103325000D01*
X139638503Y-103502805D01*
X139638504Y-103502807D01*
X139693747Y-103672829D01*
X139693750Y-103672835D01*
X139783141Y-103827665D01*
X139824812Y-103873946D01*
X139902764Y-103960521D01*
X139902767Y-103960523D01*
X139902770Y-103960526D01*
X140047407Y-104065612D01*
X140210733Y-104138329D01*
X140267604Y-104150417D01*
X140285447Y-104154210D01*
X140346929Y-104187402D01*
X140351849Y-104196312D01*
X140405899Y-104175859D01*
X140415334Y-104175500D01*
X140564389Y-104175500D01*
X140564391Y-104175500D01*
X140739267Y-104138329D01*
X140902593Y-104065612D01*
X141047230Y-103960526D01*
X141166859Y-103827665D01*
X141256250Y-103672835D01*
X141311497Y-103502803D01*
X141330185Y-103325000D01*
X141311497Y-103147197D01*
X141256250Y-102977165D01*
X141166859Y-102822335D01*
X141120003Y-102770296D01*
X141047235Y-102689478D01*
X141047232Y-102689476D01*
X141047231Y-102689475D01*
X141047230Y-102689474D01*
X140902593Y-102584388D01*
X140739267Y-102511671D01*
X140739265Y-102511670D01*
X140611594Y-102484533D01*
X140564391Y-102474500D01*
X140385609Y-102474500D01*
X140354954Y-102481015D01*
X140210733Y-102511670D01*
X140210728Y-102511672D01*
X140047408Y-102584387D01*
X139902768Y-102689475D01*
X139783140Y-102822336D01*
X139693750Y-102977164D01*
X139693747Y-102977170D01*
X139638504Y-103147192D01*
X139638503Y-103147194D01*
X139619815Y-103325000D01*
X114523642Y-103325000D01*
X114523642Y-101850000D01*
X143244815Y-101850000D01*
X143263503Y-102027805D01*
X143263504Y-102027807D01*
X143318747Y-102197829D01*
X143318750Y-102197835D01*
X143408141Y-102352665D01*
X143449812Y-102398946D01*
X143527764Y-102485521D01*
X143527767Y-102485523D01*
X143527770Y-102485526D01*
X143672407Y-102590612D01*
X143835733Y-102663329D01*
X144010609Y-102700500D01*
X144010610Y-102700500D01*
X144189389Y-102700500D01*
X144189391Y-102700500D01*
X144364267Y-102663329D01*
X144527593Y-102590612D01*
X144672230Y-102485526D01*
X144791859Y-102352665D01*
X144881250Y-102197835D01*
X144936497Y-102027803D01*
X144955185Y-101850000D01*
X144936497Y-101672197D01*
X144908873Y-101587181D01*
X144881252Y-101502170D01*
X144881249Y-101502164D01*
X144826689Y-101407663D01*
X144791859Y-101347335D01*
X144706771Y-101252835D01*
X144672235Y-101214478D01*
X144672232Y-101214476D01*
X144672231Y-101214475D01*
X144672230Y-101214474D01*
X144527593Y-101109388D01*
X144364267Y-101036671D01*
X144364265Y-101036670D01*
X144236594Y-101009533D01*
X144189391Y-100999500D01*
X144010609Y-100999500D01*
X143979954Y-101006015D01*
X143835733Y-101036670D01*
X143835728Y-101036672D01*
X143672408Y-101109387D01*
X143527768Y-101214475D01*
X143408140Y-101347336D01*
X143318750Y-101502164D01*
X143318747Y-101502170D01*
X143263504Y-101672192D01*
X143263503Y-101672194D01*
X143244815Y-101850000D01*
X114523642Y-101850000D01*
X114523642Y-100905000D01*
X127499815Y-100905000D01*
X127518503Y-101082805D01*
X127518504Y-101082807D01*
X127573747Y-101252829D01*
X127573750Y-101252835D01*
X127663141Y-101407665D01*
X127704812Y-101453946D01*
X127782764Y-101540521D01*
X127782767Y-101540523D01*
X127782770Y-101540526D01*
X127927407Y-101645612D01*
X128090733Y-101718329D01*
X128265609Y-101755500D01*
X128265610Y-101755500D01*
X128444389Y-101755500D01*
X128444391Y-101755500D01*
X128619267Y-101718329D01*
X128782593Y-101645612D01*
X128927230Y-101540526D01*
X129046859Y-101407665D01*
X129136250Y-101252835D01*
X129191497Y-101082803D01*
X129210185Y-100905000D01*
X129191497Y-100727197D01*
X129136250Y-100557165D01*
X129046859Y-100402335D01*
X129000003Y-100350296D01*
X128927235Y-100269478D01*
X128927232Y-100269476D01*
X128927231Y-100269475D01*
X128927230Y-100269474D01*
X128782593Y-100164388D01*
X128619267Y-100091671D01*
X128619265Y-100091670D01*
X128491594Y-100064533D01*
X128444391Y-100054500D01*
X128265609Y-100054500D01*
X128234954Y-100061015D01*
X128090733Y-100091670D01*
X128090728Y-100091672D01*
X127927408Y-100164387D01*
X127782768Y-100269475D01*
X127663140Y-100402336D01*
X127573750Y-100557164D01*
X127573747Y-100557170D01*
X127518504Y-100727192D01*
X127518503Y-100727194D01*
X127499815Y-100905000D01*
X114523642Y-100905000D01*
X114523642Y-99225000D01*
X152694815Y-99225000D01*
X152713503Y-99402805D01*
X152713504Y-99402807D01*
X152768747Y-99572829D01*
X152768750Y-99572835D01*
X152858141Y-99727665D01*
X152899812Y-99773946D01*
X152977764Y-99860521D01*
X152977767Y-99860523D01*
X152977770Y-99860526D01*
X153122407Y-99965612D01*
X153285733Y-100038329D01*
X153460609Y-100075500D01*
X153460610Y-100075500D01*
X153639389Y-100075500D01*
X153639391Y-100075500D01*
X153814267Y-100038329D01*
X153977593Y-99965612D01*
X154122230Y-99860526D01*
X154241859Y-99727665D01*
X154331250Y-99572835D01*
X154386497Y-99402803D01*
X154405185Y-99225000D01*
X154386497Y-99047197D01*
X154331250Y-98877165D01*
X154241859Y-98722335D01*
X154195003Y-98670296D01*
X154122235Y-98589478D01*
X154122232Y-98589476D01*
X154122231Y-98589475D01*
X154122230Y-98589474D01*
X153977593Y-98484388D01*
X153814267Y-98411671D01*
X153814265Y-98411670D01*
X153686594Y-98384533D01*
X153639391Y-98374500D01*
X153460609Y-98374500D01*
X153429954Y-98381015D01*
X153285733Y-98411670D01*
X153285728Y-98411672D01*
X153122408Y-98484387D01*
X152977768Y-98589475D01*
X152858140Y-98722336D01*
X152768750Y-98877164D01*
X152768747Y-98877170D01*
X152713504Y-99047192D01*
X152713503Y-99047194D01*
X152694815Y-99225000D01*
X114523642Y-99225000D01*
X114523642Y-95485000D01*
X131719815Y-95485000D01*
X131738503Y-95662805D01*
X131738504Y-95662807D01*
X131793747Y-95832829D01*
X131793750Y-95832835D01*
X131883141Y-95987665D01*
X131924812Y-96033946D01*
X132002764Y-96120521D01*
X132002767Y-96120523D01*
X132002770Y-96120526D01*
X132147407Y-96225612D01*
X132310733Y-96298329D01*
X132485609Y-96335500D01*
X132485610Y-96335500D01*
X132664389Y-96335500D01*
X132664391Y-96335500D01*
X132839267Y-96298329D01*
X133002593Y-96225612D01*
X133147230Y-96120526D01*
X133266859Y-95987665D01*
X133356250Y-95832835D01*
X133411497Y-95662803D01*
X133430185Y-95485000D01*
X133411497Y-95307197D01*
X133356250Y-95137165D01*
X133266859Y-94982335D01*
X133220003Y-94930296D01*
X133147235Y-94849478D01*
X133147232Y-94849476D01*
X133147231Y-94849475D01*
X133147230Y-94849474D01*
X133002593Y-94744388D01*
X132839267Y-94671671D01*
X132839265Y-94671670D01*
X132711594Y-94644533D01*
X132664391Y-94634500D01*
X132485609Y-94634500D01*
X132454954Y-94641015D01*
X132310733Y-94671670D01*
X132310728Y-94671672D01*
X132147408Y-94744387D01*
X132002768Y-94849475D01*
X131883140Y-94982336D01*
X131793750Y-95137164D01*
X131793747Y-95137170D01*
X131738504Y-95307192D01*
X131738503Y-95307194D01*
X131719815Y-95485000D01*
X114523642Y-95485000D01*
X114523642Y-94630000D01*
X127524815Y-94630000D01*
X127543503Y-94807805D01*
X127543504Y-94807807D01*
X127598747Y-94977829D01*
X127598750Y-94977835D01*
X127688141Y-95132665D01*
X127729812Y-95178946D01*
X127807764Y-95265521D01*
X127807767Y-95265523D01*
X127807770Y-95265526D01*
X127952407Y-95370612D01*
X128115733Y-95443329D01*
X128290609Y-95480500D01*
X128290610Y-95480500D01*
X128469389Y-95480500D01*
X128469391Y-95480500D01*
X128644267Y-95443329D01*
X128807593Y-95370612D01*
X128952230Y-95265526D01*
X129071859Y-95132665D01*
X129161250Y-94977835D01*
X129216497Y-94807803D01*
X129235185Y-94630000D01*
X129216497Y-94452197D01*
X129161250Y-94282165D01*
X129071859Y-94127335D01*
X129025003Y-94075296D01*
X128952235Y-93994478D01*
X128952232Y-93994476D01*
X128952231Y-93994475D01*
X128952230Y-93994474D01*
X128807593Y-93889388D01*
X128644267Y-93816671D01*
X128644265Y-93816670D01*
X128516594Y-93789533D01*
X128469391Y-93779500D01*
X128290609Y-93779500D01*
X128259954Y-93786015D01*
X128115733Y-93816670D01*
X128115728Y-93816672D01*
X127952408Y-93889387D01*
X127807768Y-93994475D01*
X127688140Y-94127336D01*
X127598750Y-94282164D01*
X127598747Y-94282170D01*
X127543504Y-94452192D01*
X127543503Y-94452194D01*
X127524815Y-94630000D01*
X114523642Y-94630000D01*
X114523642Y-88642500D01*
X127527315Y-88642500D01*
X127546003Y-88820305D01*
X127546004Y-88820307D01*
X127601247Y-88990329D01*
X127601250Y-88990335D01*
X127690641Y-89145165D01*
X127732312Y-89191446D01*
X127810264Y-89278021D01*
X127810267Y-89278023D01*
X127810270Y-89278026D01*
X127954907Y-89383112D01*
X128118233Y-89455829D01*
X128293109Y-89493000D01*
X128293110Y-89493000D01*
X128471889Y-89493000D01*
X128471891Y-89493000D01*
X128646767Y-89455829D01*
X128810093Y-89383112D01*
X128954730Y-89278026D01*
X129074359Y-89145165D01*
X129163750Y-88990335D01*
X129218997Y-88820303D01*
X129237685Y-88642500D01*
X129235076Y-88617678D01*
X143677137Y-88617678D01*
X143695825Y-88795483D01*
X143695826Y-88795485D01*
X143751072Y-88965515D01*
X143751073Y-88965517D01*
X143763998Y-88987904D01*
X143780471Y-89055804D01*
X143774543Y-89088219D01*
X143763503Y-89122195D01*
X143744815Y-89300000D01*
X143763503Y-89477805D01*
X143763504Y-89477807D01*
X143818747Y-89647829D01*
X143818750Y-89647835D01*
X143908141Y-89802665D01*
X143949812Y-89848946D01*
X144027764Y-89935521D01*
X144027767Y-89935523D01*
X144027770Y-89935526D01*
X144172407Y-90040612D01*
X144335733Y-90113329D01*
X144510609Y-90150500D01*
X144510610Y-90150500D01*
X144689389Y-90150500D01*
X144689391Y-90150500D01*
X144864267Y-90113329D01*
X145027593Y-90040612D01*
X145172230Y-89935526D01*
X145291859Y-89802665D01*
X145381250Y-89647835D01*
X145436497Y-89477803D01*
X145455185Y-89300000D01*
X145436497Y-89122197D01*
X145393650Y-88990329D01*
X145381252Y-88952170D01*
X145381247Y-88952159D01*
X145368323Y-88929774D01*
X145351850Y-88861874D01*
X145357777Y-88829462D01*
X145368819Y-88795481D01*
X145387507Y-88617678D01*
X145368819Y-88439875D01*
X145321637Y-88294664D01*
X145313574Y-88269848D01*
X145313571Y-88269842D01*
X145224181Y-88115013D01*
X145142654Y-88024468D01*
X145104557Y-87982156D01*
X145104554Y-87982154D01*
X145104553Y-87982153D01*
X145104552Y-87982152D01*
X144959915Y-87877066D01*
X144796589Y-87804349D01*
X144796587Y-87804348D01*
X144668916Y-87777211D01*
X144621713Y-87767178D01*
X144442931Y-87767178D01*
X144412276Y-87773693D01*
X144268055Y-87804348D01*
X144268050Y-87804350D01*
X144104730Y-87877065D01*
X143960090Y-87982153D01*
X143840462Y-88115014D01*
X143751072Y-88269842D01*
X143751069Y-88269848D01*
X143695826Y-88439870D01*
X143695825Y-88439872D01*
X143677137Y-88617678D01*
X129235076Y-88617678D01*
X129218997Y-88464697D01*
X129163750Y-88294665D01*
X129074359Y-88139835D01*
X129018217Y-88077483D01*
X128954735Y-88006978D01*
X128954732Y-88006976D01*
X128954731Y-88006975D01*
X128954730Y-88006974D01*
X128810093Y-87901888D01*
X128646767Y-87829171D01*
X128646765Y-87829170D01*
X128498133Y-87797578D01*
X128471891Y-87792000D01*
X128293109Y-87792000D01*
X128266867Y-87797578D01*
X128118233Y-87829170D01*
X128118228Y-87829172D01*
X127954908Y-87901887D01*
X127810268Y-88006975D01*
X127690640Y-88139836D01*
X127601250Y-88294664D01*
X127601247Y-88294670D01*
X127546004Y-88464692D01*
X127546003Y-88464694D01*
X127527315Y-88642500D01*
X114523642Y-88642500D01*
X114523642Y-84550000D01*
X138934815Y-84550000D01*
X138953503Y-84727805D01*
X138953504Y-84727807D01*
X139008750Y-84897837D01*
X139011393Y-84903773D01*
X139008862Y-84904899D01*
X139022425Y-84960998D01*
X139009404Y-85005341D01*
X139011393Y-85006227D01*
X139008750Y-85012162D01*
X138953504Y-85182192D01*
X138953503Y-85182194D01*
X138934815Y-85360000D01*
X138953503Y-85537805D01*
X138953504Y-85537807D01*
X139010758Y-85714015D01*
X139008655Y-85714698D01*
X139016576Y-85773831D01*
X139010130Y-85795781D01*
X139010758Y-85795985D01*
X138953504Y-85972192D01*
X138953503Y-85972194D01*
X138934815Y-86150000D01*
X138953503Y-86327805D01*
X138953504Y-86327807D01*
X139008747Y-86497829D01*
X139008750Y-86497835D01*
X139098141Y-86652665D01*
X139139812Y-86698946D01*
X139217764Y-86785521D01*
X139217767Y-86785523D01*
X139217770Y-86785526D01*
X139362407Y-86890612D01*
X139525733Y-86963329D01*
X139700609Y-87000500D01*
X139700610Y-87000500D01*
X139879389Y-87000500D01*
X139879391Y-87000500D01*
X140054267Y-86963329D01*
X140217593Y-86890612D01*
X140362230Y-86785526D01*
X140481859Y-86652665D01*
X140571250Y-86497835D01*
X140626497Y-86327803D01*
X140645185Y-86150000D01*
X140626497Y-85972197D01*
X140585525Y-85846098D01*
X140569242Y-85795984D01*
X140571353Y-85795297D01*
X140563415Y-85736224D01*
X140569874Y-85714221D01*
X140569242Y-85714016D01*
X140609338Y-85590612D01*
X140626497Y-85537803D01*
X140645185Y-85360000D01*
X140626497Y-85182197D01*
X140571250Y-85012165D01*
X140571249Y-85012164D01*
X140571249Y-85012162D01*
X140568608Y-85006230D01*
X140571167Y-85005090D01*
X140557564Y-84949186D01*
X140570634Y-84904672D01*
X140568608Y-84903770D01*
X140571249Y-84897837D01*
X140581402Y-84866589D01*
X140586792Y-84850000D01*
X143384815Y-84850000D01*
X143403503Y-85027805D01*
X143403504Y-85027807D01*
X143458747Y-85197829D01*
X143458750Y-85197835D01*
X143548141Y-85352665D01*
X143589812Y-85398946D01*
X143667764Y-85485521D01*
X143667767Y-85485523D01*
X143667770Y-85485526D01*
X143812407Y-85590612D01*
X143975733Y-85663329D01*
X144150609Y-85700500D01*
X144150610Y-85700500D01*
X144329389Y-85700500D01*
X144329391Y-85700500D01*
X144504267Y-85663329D01*
X144630336Y-85607200D01*
X148544815Y-85607200D01*
X148563503Y-85785005D01*
X148563504Y-85785007D01*
X148618747Y-85955029D01*
X148618750Y-85955035D01*
X148708141Y-86109865D01*
X148744279Y-86150000D01*
X148827764Y-86242721D01*
X148827767Y-86242723D01*
X148827770Y-86242726D01*
X148972407Y-86347812D01*
X149135733Y-86420529D01*
X149310609Y-86457700D01*
X149310610Y-86457700D01*
X149489389Y-86457700D01*
X149489391Y-86457700D01*
X149664267Y-86420529D01*
X149827593Y-86347812D01*
X149972230Y-86242726D01*
X149981486Y-86232447D01*
X149990771Y-86222135D01*
X152419500Y-86222135D01*
X152419500Y-88017870D01*
X152419501Y-88017876D01*
X152425908Y-88077483D01*
X152476202Y-88212328D01*
X152476206Y-88212335D01*
X152562452Y-88327544D01*
X152562455Y-88327547D01*
X152677664Y-88413793D01*
X152677671Y-88413797D01*
X152812517Y-88464091D01*
X152812516Y-88464091D01*
X152818107Y-88464692D01*
X152872127Y-88470500D01*
X154667872Y-88470499D01*
X154727483Y-88464091D01*
X154862331Y-88413796D01*
X154977546Y-88327546D01*
X155063796Y-88212331D01*
X155113002Y-88080401D01*
X155154872Y-88024468D01*
X155220337Y-88000050D01*
X155288610Y-88014901D01*
X155316865Y-88036053D01*
X155438917Y-88158105D01*
X155632421Y-88293600D01*
X155846507Y-88393429D01*
X155846516Y-88393433D01*
X156060000Y-88450634D01*
X156060000Y-87553012D01*
X156117007Y-87585925D01*
X156244174Y-87620000D01*
X156375826Y-87620000D01*
X156502993Y-87585925D01*
X156560000Y-87553012D01*
X156560000Y-88450633D01*
X156773483Y-88393433D01*
X156773492Y-88393429D01*
X156987578Y-88293600D01*
X157181082Y-88158105D01*
X157348105Y-87991082D01*
X157478119Y-87805405D01*
X157532696Y-87761781D01*
X157602195Y-87754588D01*
X157664549Y-87786110D01*
X157681269Y-87805405D01*
X157811505Y-87991401D01*
X157978599Y-88158495D01*
X158075384Y-88226265D01*
X158172165Y-88294032D01*
X158172167Y-88294033D01*
X158172170Y-88294035D01*
X158386337Y-88393903D01*
X158614592Y-88455063D01*
X158791034Y-88470500D01*
X158849999Y-88475659D01*
X158850000Y-88475659D01*
X158850001Y-88475659D01*
X158908966Y-88470500D01*
X159085408Y-88455063D01*
X159313663Y-88393903D01*
X159527830Y-88294035D01*
X159721401Y-88158495D01*
X159888495Y-87991401D01*
X160018730Y-87805405D01*
X160073307Y-87761781D01*
X160142805Y-87754587D01*
X160205160Y-87786110D01*
X160221879Y-87805405D01*
X160351890Y-87991078D01*
X160518917Y-88158105D01*
X160712421Y-88293600D01*
X160926507Y-88393429D01*
X160926516Y-88393433D01*
X161140000Y-88450634D01*
X161140000Y-87553012D01*
X161197007Y-87585925D01*
X161324174Y-87620000D01*
X161455826Y-87620000D01*
X161582993Y-87585925D01*
X161640000Y-87553012D01*
X161640000Y-88450633D01*
X161853483Y-88393433D01*
X161853492Y-88393429D01*
X162067578Y-88293600D01*
X162261082Y-88158105D01*
X162428105Y-87991082D01*
X162563600Y-87797578D01*
X162663429Y-87583492D01*
X162663432Y-87583486D01*
X162720636Y-87370000D01*
X161823012Y-87370000D01*
X161855925Y-87312993D01*
X161890000Y-87185826D01*
X161890000Y-87054174D01*
X161855925Y-86927007D01*
X161823012Y-86870000D01*
X162720636Y-86870000D01*
X162720635Y-86869999D01*
X162663432Y-86656513D01*
X162663429Y-86656507D01*
X162563600Y-86442422D01*
X162563599Y-86442420D01*
X162428113Y-86248926D01*
X162428108Y-86248920D01*
X162261082Y-86081894D01*
X162067578Y-85946399D01*
X161853492Y-85846570D01*
X161853486Y-85846567D01*
X161640000Y-85789364D01*
X161640000Y-86686988D01*
X161582993Y-86654075D01*
X161455826Y-86620000D01*
X161324174Y-86620000D01*
X161197007Y-86654075D01*
X161140000Y-86686988D01*
X161140000Y-85789364D01*
X161139999Y-85789364D01*
X160926513Y-85846567D01*
X160926507Y-85846570D01*
X160712422Y-85946399D01*
X160712420Y-85946400D01*
X160518926Y-86081886D01*
X160518920Y-86081891D01*
X160351891Y-86248920D01*
X160351890Y-86248922D01*
X160221880Y-86434595D01*
X160167303Y-86478219D01*
X160097804Y-86485412D01*
X160035450Y-86453890D01*
X160018730Y-86434594D01*
X159888494Y-86248597D01*
X159721402Y-86081506D01*
X159721395Y-86081501D01*
X159527834Y-85945967D01*
X159527830Y-85945965D01*
X159527828Y-85945964D01*
X159313663Y-85846097D01*
X159313659Y-85846096D01*
X159313655Y-85846094D01*
X159085413Y-85784938D01*
X159085403Y-85784936D01*
X158850001Y-85764341D01*
X158849999Y-85764341D01*
X158614596Y-85784936D01*
X158614586Y-85784938D01*
X158386344Y-85846094D01*
X158386335Y-85846098D01*
X158172171Y-85945964D01*
X158172169Y-85945965D01*
X157978597Y-86081505D01*
X157811508Y-86248594D01*
X157681269Y-86434595D01*
X157626692Y-86478219D01*
X157557193Y-86485412D01*
X157494839Y-86453890D01*
X157478119Y-86434594D01*
X157348113Y-86248926D01*
X157348108Y-86248920D01*
X157181082Y-86081894D01*
X156987578Y-85946399D01*
X156773492Y-85846570D01*
X156773486Y-85846567D01*
X156560000Y-85789364D01*
X156560000Y-86686988D01*
X156502993Y-86654075D01*
X156375826Y-86620000D01*
X156244174Y-86620000D01*
X156117007Y-86654075D01*
X156060000Y-86686988D01*
X156060000Y-85789364D01*
X156059999Y-85789364D01*
X155846513Y-85846567D01*
X155846507Y-85846570D01*
X155632422Y-85946399D01*
X155632420Y-85946400D01*
X155438926Y-86081886D01*
X155316865Y-86203947D01*
X155255542Y-86237431D01*
X155185850Y-86232447D01*
X155129917Y-86190575D01*
X155113002Y-86159598D01*
X155063797Y-86027671D01*
X155063793Y-86027664D01*
X154977547Y-85912455D01*
X154977544Y-85912452D01*
X154862335Y-85826206D01*
X154862328Y-85826202D01*
X154727482Y-85775908D01*
X154727483Y-85775908D01*
X154667883Y-85769501D01*
X154667881Y-85769500D01*
X154667873Y-85769500D01*
X154667864Y-85769500D01*
X152872129Y-85769500D01*
X152872123Y-85769501D01*
X152812516Y-85775908D01*
X152677671Y-85826202D01*
X152677664Y-85826206D01*
X152562455Y-85912452D01*
X152562452Y-85912455D01*
X152476206Y-86027664D01*
X152476202Y-86027671D01*
X152425908Y-86162517D01*
X152419501Y-86222116D01*
X152419500Y-86222135D01*
X149990771Y-86222135D01*
X150019187Y-86190575D01*
X150091859Y-86109865D01*
X150181250Y-85955035D01*
X150236497Y-85785003D01*
X150255185Y-85607200D01*
X150236497Y-85429397D01*
X150181250Y-85259365D01*
X150091859Y-85104535D01*
X150022769Y-85027803D01*
X149972235Y-84971678D01*
X149972232Y-84971676D01*
X149972231Y-84971675D01*
X149972230Y-84971674D01*
X149827593Y-84866588D01*
X149664267Y-84793871D01*
X149664265Y-84793870D01*
X149536594Y-84766733D01*
X149489391Y-84756700D01*
X149310609Y-84756700D01*
X149279954Y-84763215D01*
X149135733Y-84793870D01*
X149135728Y-84793872D01*
X148972408Y-84866587D01*
X148827768Y-84971675D01*
X148708140Y-85104536D01*
X148618750Y-85259364D01*
X148618747Y-85259370D01*
X148563504Y-85429392D01*
X148563503Y-85429394D01*
X148544815Y-85607200D01*
X144630336Y-85607200D01*
X144667593Y-85590612D01*
X144812230Y-85485526D01*
X144931859Y-85352665D01*
X145021250Y-85197835D01*
X145076497Y-85027803D01*
X145095185Y-84850000D01*
X145076497Y-84672197D01*
X145021250Y-84502165D01*
X144931859Y-84347335D01*
X144885003Y-84295296D01*
X144812235Y-84214478D01*
X144812232Y-84214476D01*
X144812231Y-84214475D01*
X144812230Y-84214474D01*
X144667593Y-84109388D01*
X144504267Y-84036671D01*
X144504265Y-84036670D01*
X144376594Y-84009533D01*
X144329391Y-83999500D01*
X144150609Y-83999500D01*
X144119954Y-84006015D01*
X143975733Y-84036670D01*
X143975728Y-84036672D01*
X143812408Y-84109387D01*
X143667768Y-84214475D01*
X143548140Y-84347336D01*
X143458750Y-84502164D01*
X143458747Y-84502170D01*
X143403504Y-84672192D01*
X143403503Y-84672194D01*
X143384815Y-84850000D01*
X140586792Y-84850000D01*
X140626497Y-84727803D01*
X140645185Y-84550000D01*
X140626497Y-84372197D01*
X140575250Y-84214475D01*
X140571252Y-84202170D01*
X140571249Y-84202164D01*
X140568750Y-84197835D01*
X140481859Y-84047335D01*
X140435003Y-83995296D01*
X140362235Y-83914478D01*
X140362232Y-83914476D01*
X140362231Y-83914475D01*
X140362230Y-83914474D01*
X140273490Y-83850000D01*
X159669815Y-83850000D01*
X159688503Y-84027805D01*
X159688504Y-84027807D01*
X159743747Y-84197829D01*
X159743750Y-84197835D01*
X159833141Y-84352665D01*
X159850728Y-84372197D01*
X159952764Y-84485521D01*
X159952767Y-84485523D01*
X159952770Y-84485526D01*
X160097407Y-84590612D01*
X160260733Y-84663329D01*
X160435609Y-84700500D01*
X160435610Y-84700500D01*
X160614389Y-84700500D01*
X160614391Y-84700500D01*
X160789267Y-84663329D01*
X160952593Y-84590612D01*
X161097230Y-84485526D01*
X161216859Y-84352665D01*
X161306250Y-84197835D01*
X161361497Y-84027803D01*
X161380185Y-83850000D01*
X161361497Y-83672197D01*
X161306250Y-83502165D01*
X161216859Y-83347335D01*
X161170003Y-83295296D01*
X161097235Y-83214478D01*
X161097232Y-83214476D01*
X161097231Y-83214475D01*
X161097230Y-83214474D01*
X160952593Y-83109388D01*
X160789267Y-83036671D01*
X160789265Y-83036670D01*
X160661594Y-83009533D01*
X160614391Y-82999500D01*
X160435609Y-82999500D01*
X160404954Y-83006015D01*
X160260733Y-83036670D01*
X160260728Y-83036672D01*
X160097408Y-83109387D01*
X159952768Y-83214475D01*
X159833140Y-83347336D01*
X159743750Y-83502164D01*
X159743747Y-83502170D01*
X159688504Y-83672192D01*
X159688503Y-83672194D01*
X159669815Y-83850000D01*
X140273490Y-83850000D01*
X140217593Y-83809388D01*
X140054267Y-83736671D01*
X140054265Y-83736670D01*
X139926594Y-83709533D01*
X139879391Y-83699500D01*
X139700609Y-83699500D01*
X139669954Y-83706015D01*
X139525733Y-83736670D01*
X139525728Y-83736672D01*
X139362408Y-83809387D01*
X139217768Y-83914475D01*
X139098140Y-84047336D01*
X139008750Y-84202164D01*
X139008747Y-84202170D01*
X138953504Y-84372192D01*
X138953503Y-84372194D01*
X138934815Y-84550000D01*
X114523642Y-84550000D01*
X114523642Y-82425000D01*
X164994815Y-82425000D01*
X165013503Y-82602805D01*
X165013504Y-82602807D01*
X165068747Y-82772829D01*
X165068750Y-82772835D01*
X165158141Y-82927665D01*
X165199812Y-82973946D01*
X165277764Y-83060521D01*
X165277767Y-83060523D01*
X165277770Y-83060526D01*
X165422407Y-83165612D01*
X165585733Y-83238329D01*
X165760609Y-83275500D01*
X165760610Y-83275500D01*
X165939389Y-83275500D01*
X165939391Y-83275500D01*
X166114267Y-83238329D01*
X166144205Y-83225000D01*
X169119815Y-83225000D01*
X169138503Y-83402805D01*
X169138504Y-83402807D01*
X169193747Y-83572829D01*
X169193750Y-83572835D01*
X169283141Y-83727665D01*
X169324812Y-83773946D01*
X169402764Y-83860521D01*
X169402767Y-83860523D01*
X169402770Y-83860526D01*
X169547407Y-83965612D01*
X169710733Y-84038329D01*
X169885609Y-84075500D01*
X169885610Y-84075500D01*
X170064389Y-84075500D01*
X170064391Y-84075500D01*
X170239267Y-84038329D01*
X170402593Y-83965612D01*
X170547230Y-83860526D01*
X170666859Y-83727665D01*
X170756250Y-83572835D01*
X170811497Y-83402803D01*
X170830185Y-83225000D01*
X170811497Y-83047197D01*
X170765464Y-82905523D01*
X170756252Y-82877170D01*
X170756249Y-82877164D01*
X170666859Y-82722335D01*
X170620003Y-82670296D01*
X170547235Y-82589478D01*
X170547232Y-82589476D01*
X170547231Y-82589475D01*
X170547230Y-82589474D01*
X170402593Y-82484388D01*
X170239267Y-82411671D01*
X170239265Y-82411670D01*
X170111594Y-82384533D01*
X170064391Y-82374500D01*
X169885609Y-82374500D01*
X169854954Y-82381015D01*
X169710733Y-82411670D01*
X169710728Y-82411672D01*
X169547408Y-82484387D01*
X169402768Y-82589475D01*
X169283140Y-82722336D01*
X169193750Y-82877164D01*
X169193747Y-82877170D01*
X169138504Y-83047192D01*
X169138503Y-83047194D01*
X169119815Y-83225000D01*
X166144205Y-83225000D01*
X166277593Y-83165612D01*
X166422230Y-83060526D01*
X166541859Y-82927665D01*
X166631250Y-82772835D01*
X166686497Y-82602803D01*
X166705185Y-82425000D01*
X166688894Y-82270000D01*
X167114815Y-82270000D01*
X167133503Y-82447805D01*
X167133504Y-82447807D01*
X167188747Y-82617829D01*
X167188750Y-82617835D01*
X167278141Y-82772665D01*
X167319812Y-82818946D01*
X167397764Y-82905521D01*
X167397767Y-82905523D01*
X167397770Y-82905526D01*
X167542407Y-83010612D01*
X167705733Y-83083329D01*
X167880609Y-83120500D01*
X167880610Y-83120500D01*
X168059389Y-83120500D01*
X168059391Y-83120500D01*
X168234267Y-83083329D01*
X168397593Y-83010612D01*
X168542230Y-82905526D01*
X168661859Y-82772665D01*
X168751250Y-82617835D01*
X168806497Y-82447803D01*
X168824659Y-82275000D01*
X170844815Y-82275000D01*
X170863503Y-82452805D01*
X170863504Y-82452807D01*
X170918747Y-82622829D01*
X170918750Y-82622835D01*
X171008141Y-82777665D01*
X171049812Y-82823946D01*
X171127764Y-82910521D01*
X171127767Y-82910523D01*
X171127770Y-82910526D01*
X171272407Y-83015612D01*
X171435733Y-83088329D01*
X171610609Y-83125500D01*
X171610610Y-83125500D01*
X171789389Y-83125500D01*
X171789391Y-83125500D01*
X171964267Y-83088329D01*
X172127593Y-83015612D01*
X172272230Y-82910526D01*
X172391859Y-82777665D01*
X172481250Y-82622835D01*
X172496793Y-82575000D01*
X172944815Y-82575000D01*
X172963503Y-82752805D01*
X172963504Y-82752807D01*
X173018747Y-82922829D01*
X173018750Y-82922835D01*
X173108141Y-83077665D01*
X173136704Y-83109387D01*
X173227764Y-83210521D01*
X173227767Y-83210523D01*
X173227770Y-83210526D01*
X173372407Y-83315612D01*
X173535733Y-83388329D01*
X173710609Y-83425500D01*
X173710610Y-83425500D01*
X173889389Y-83425500D01*
X173889391Y-83425500D01*
X174064267Y-83388329D01*
X174227593Y-83315612D01*
X174372230Y-83210526D01*
X174491859Y-83077665D01*
X174581250Y-82922835D01*
X174636497Y-82752803D01*
X174655185Y-82575000D01*
X174636497Y-82397197D01*
X174581250Y-82227165D01*
X174491859Y-82072335D01*
X174445003Y-82020296D01*
X174372235Y-81939478D01*
X174372232Y-81939476D01*
X174372231Y-81939475D01*
X174372230Y-81939474D01*
X174227593Y-81834388D01*
X174064267Y-81761671D01*
X174064265Y-81761670D01*
X173936594Y-81734533D01*
X173889391Y-81724500D01*
X173710609Y-81724500D01*
X173679954Y-81731015D01*
X173535733Y-81761670D01*
X173535728Y-81761672D01*
X173372408Y-81834387D01*
X173227768Y-81939475D01*
X173108140Y-82072336D01*
X173018750Y-82227164D01*
X173018747Y-82227170D01*
X172963504Y-82397192D01*
X172963503Y-82397194D01*
X172944815Y-82575000D01*
X172496793Y-82575000D01*
X172536497Y-82452803D01*
X172555185Y-82275000D01*
X172536497Y-82097197D01*
X172485250Y-81939475D01*
X172481252Y-81927170D01*
X172481249Y-81927164D01*
X172478363Y-81922165D01*
X172391859Y-81772335D01*
X172312672Y-81684389D01*
X172272235Y-81639478D01*
X172272232Y-81639476D01*
X172272231Y-81639475D01*
X172272230Y-81639474D01*
X172127593Y-81534388D01*
X171964267Y-81461671D01*
X171964265Y-81461670D01*
X171836594Y-81434533D01*
X171789391Y-81424500D01*
X171610609Y-81424500D01*
X171579954Y-81431015D01*
X171435733Y-81461670D01*
X171435728Y-81461672D01*
X171272408Y-81534387D01*
X171127768Y-81639475D01*
X171008140Y-81772336D01*
X170918750Y-81927164D01*
X170918747Y-81927170D01*
X170863504Y-82097192D01*
X170863503Y-82097194D01*
X170844815Y-82275000D01*
X168824659Y-82275000D01*
X168825185Y-82270000D01*
X168806497Y-82092197D01*
X168778873Y-82007181D01*
X168751252Y-81922170D01*
X168751249Y-81922164D01*
X168661859Y-81767335D01*
X168587173Y-81684388D01*
X168542235Y-81634478D01*
X168542232Y-81634476D01*
X168542231Y-81634475D01*
X168542230Y-81634474D01*
X168397593Y-81529388D01*
X168234267Y-81456671D01*
X168234265Y-81456670D01*
X168082914Y-81424500D01*
X168059391Y-81419500D01*
X167880609Y-81419500D01*
X167857086Y-81424500D01*
X167705733Y-81456670D01*
X167705728Y-81456672D01*
X167542408Y-81529387D01*
X167397768Y-81634475D01*
X167278140Y-81767336D01*
X167188750Y-81922164D01*
X167188747Y-81922170D01*
X167133504Y-82092192D01*
X167133503Y-82092194D01*
X167114815Y-82270000D01*
X166688894Y-82270000D01*
X166686497Y-82247197D01*
X166637757Y-82097192D01*
X166631252Y-82077170D01*
X166631249Y-82077164D01*
X166551755Y-81939476D01*
X166541859Y-81922335D01*
X166462672Y-81834389D01*
X166422235Y-81789478D01*
X166422232Y-81789476D01*
X166422231Y-81789475D01*
X166422230Y-81789474D01*
X166277593Y-81684388D01*
X166114267Y-81611671D01*
X166114265Y-81611670D01*
X165986594Y-81584533D01*
X165939391Y-81574500D01*
X165760609Y-81574500D01*
X165729954Y-81581015D01*
X165585733Y-81611670D01*
X165585728Y-81611672D01*
X165422408Y-81684387D01*
X165277768Y-81789475D01*
X165158140Y-81922336D01*
X165068750Y-82077164D01*
X165068747Y-82077170D01*
X165013504Y-82247192D01*
X165013503Y-82247194D01*
X164994815Y-82425000D01*
X114523642Y-82425000D01*
X114523642Y-76389999D01*
X124419341Y-76389999D01*
X124419341Y-76390000D01*
X124439936Y-76625403D01*
X124439938Y-76625413D01*
X124501094Y-76853655D01*
X124501096Y-76853659D01*
X124501097Y-76853663D01*
X124582002Y-77027164D01*
X124600965Y-77067830D01*
X124600967Y-77067834D01*
X124736501Y-77261395D01*
X124736506Y-77261402D01*
X124903597Y-77428493D01*
X124903603Y-77428498D01*
X125089594Y-77558730D01*
X125133219Y-77613307D01*
X125140413Y-77682805D01*
X125108890Y-77745160D01*
X125089595Y-77761880D01*
X124903922Y-77891890D01*
X124903920Y-77891891D01*
X124736891Y-78058920D01*
X124736886Y-78058926D01*
X124601400Y-78252420D01*
X124601399Y-78252422D01*
X124501570Y-78466507D01*
X124501567Y-78466513D01*
X124444364Y-78679999D01*
X124444364Y-78680000D01*
X125341988Y-78680000D01*
X125309075Y-78737007D01*
X125275000Y-78864174D01*
X125275000Y-78995826D01*
X125309075Y-79122993D01*
X125341988Y-79180000D01*
X124444364Y-79180000D01*
X124501567Y-79393486D01*
X124501570Y-79393492D01*
X124601399Y-79607578D01*
X124736894Y-79801082D01*
X124903917Y-79968105D01*
X125097421Y-80103600D01*
X125311507Y-80203429D01*
X125311516Y-80203433D01*
X125525000Y-80260634D01*
X125525000Y-79363012D01*
X125582007Y-79395925D01*
X125709174Y-79430000D01*
X125840826Y-79430000D01*
X125967993Y-79395925D01*
X126025000Y-79363012D01*
X126025000Y-80260633D01*
X126238483Y-80203433D01*
X126238492Y-80203429D01*
X126452578Y-80103600D01*
X126646082Y-79968105D01*
X126813105Y-79801082D01*
X126948600Y-79607578D01*
X127048429Y-79393492D01*
X127048432Y-79393486D01*
X127105636Y-79180000D01*
X126208012Y-79180000D01*
X126240925Y-79122993D01*
X126275000Y-78995826D01*
X126275000Y-78864174D01*
X126240925Y-78737007D01*
X126208012Y-78680000D01*
X127105636Y-78680000D01*
X127105635Y-78679999D01*
X127048432Y-78466513D01*
X127048429Y-78466507D01*
X126948600Y-78252422D01*
X126948599Y-78252420D01*
X126862880Y-78130000D01*
X140424815Y-78130000D01*
X140443503Y-78307805D01*
X140443504Y-78307807D01*
X140498747Y-78477829D01*
X140498750Y-78477835D01*
X140588141Y-78632665D01*
X140629812Y-78678946D01*
X140707764Y-78765521D01*
X140707767Y-78765523D01*
X140707770Y-78765526D01*
X140852407Y-78870612D01*
X141015733Y-78943329D01*
X141190609Y-78980500D01*
X141190610Y-78980500D01*
X141369389Y-78980500D01*
X141369391Y-78980500D01*
X141544267Y-78943329D01*
X141707593Y-78870612D01*
X141852230Y-78765526D01*
X141971859Y-78632665D01*
X142061250Y-78477835D01*
X142116497Y-78307803D01*
X142135185Y-78130000D01*
X142116497Y-77952197D01*
X142061250Y-77782165D01*
X141971859Y-77627335D01*
X141910087Y-77558730D01*
X141852235Y-77494478D01*
X141852232Y-77494476D01*
X141852231Y-77494475D01*
X141852230Y-77494474D01*
X141707593Y-77389388D01*
X141675277Y-77375000D01*
X172844815Y-77375000D01*
X172863503Y-77552805D01*
X172863504Y-77552807D01*
X172918747Y-77722829D01*
X172918750Y-77722835D01*
X173008141Y-77877665D01*
X173049812Y-77923946D01*
X173127764Y-78010521D01*
X173127767Y-78010523D01*
X173127770Y-78010526D01*
X173272407Y-78115612D01*
X173435733Y-78188329D01*
X173610609Y-78225500D01*
X173610610Y-78225500D01*
X173789389Y-78225500D01*
X173789391Y-78225500D01*
X173964267Y-78188329D01*
X174127593Y-78115612D01*
X174272230Y-78010526D01*
X174391859Y-77877665D01*
X174481250Y-77722835D01*
X174536497Y-77552803D01*
X174555185Y-77375000D01*
X174536497Y-77197197D01*
X174481250Y-77027165D01*
X174391859Y-76872335D01*
X174345003Y-76820296D01*
X174272235Y-76739478D01*
X174272232Y-76739476D01*
X174272231Y-76739475D01*
X174272230Y-76739474D01*
X174127593Y-76634388D01*
X173964267Y-76561671D01*
X173964265Y-76561670D01*
X173836594Y-76534533D01*
X173789391Y-76524500D01*
X173610609Y-76524500D01*
X173579954Y-76531015D01*
X173435733Y-76561670D01*
X173435728Y-76561672D01*
X173272408Y-76634387D01*
X173127768Y-76739475D01*
X173008140Y-76872336D01*
X172918750Y-77027164D01*
X172918747Y-77027170D01*
X172863504Y-77197192D01*
X172863503Y-77197194D01*
X172844815Y-77375000D01*
X141675277Y-77375000D01*
X141544267Y-77316671D01*
X141544265Y-77316670D01*
X141416594Y-77289533D01*
X141369391Y-77279500D01*
X141190609Y-77279500D01*
X141159954Y-77286015D01*
X141015733Y-77316670D01*
X141015728Y-77316672D01*
X140852408Y-77389387D01*
X140707768Y-77494475D01*
X140588140Y-77627336D01*
X140498750Y-77782164D01*
X140498747Y-77782170D01*
X140443504Y-77952192D01*
X140443503Y-77952194D01*
X140424815Y-78130000D01*
X126862880Y-78130000D01*
X126813113Y-78058926D01*
X126813108Y-78058920D01*
X126646078Y-77891890D01*
X126460405Y-77761879D01*
X126416780Y-77707302D01*
X126409588Y-77637804D01*
X126441110Y-77575449D01*
X126460406Y-77558730D01*
X126468871Y-77552803D01*
X126646401Y-77428495D01*
X126813495Y-77261401D01*
X126949035Y-77067830D01*
X127048903Y-76853663D01*
X127110063Y-76625408D01*
X127130659Y-76390000D01*
X127110063Y-76154592D01*
X127048903Y-75926337D01*
X126949035Y-75712171D01*
X126836998Y-75552164D01*
X126813494Y-75518597D01*
X126646402Y-75351506D01*
X126646401Y-75351505D01*
X126460405Y-75221269D01*
X126416781Y-75166692D01*
X126409588Y-75097193D01*
X126441110Y-75034839D01*
X126460405Y-75018119D01*
X126646082Y-74888105D01*
X126809187Y-74725000D01*
X150494815Y-74725000D01*
X150513503Y-74902805D01*
X150513504Y-74902807D01*
X150568747Y-75072829D01*
X150568750Y-75072835D01*
X150658140Y-75227664D01*
X150658143Y-75227669D01*
X150659821Y-75229532D01*
X150660450Y-75230843D01*
X150661959Y-75232920D01*
X150661579Y-75233195D01*
X150690048Y-75292524D01*
X150681421Y-75361859D01*
X150659821Y-75395468D01*
X150658143Y-75397330D01*
X150658140Y-75397335D01*
X150568750Y-75552164D01*
X150568747Y-75552170D01*
X150513504Y-75722192D01*
X150513503Y-75722194D01*
X150494815Y-75900000D01*
X150513503Y-76077805D01*
X150513504Y-76077807D01*
X150568747Y-76247829D01*
X150568750Y-76247835D01*
X150658141Y-76402665D01*
X150699812Y-76448946D01*
X150777764Y-76535521D01*
X150777767Y-76535523D01*
X150777770Y-76535526D01*
X150922407Y-76640612D01*
X151085733Y-76713329D01*
X151260609Y-76750500D01*
X151260610Y-76750500D01*
X151439389Y-76750500D01*
X151439391Y-76750500D01*
X151614267Y-76713329D01*
X151777593Y-76640612D01*
X151922230Y-76535526D01*
X152041859Y-76402665D01*
X152131250Y-76247835D01*
X152186497Y-76077803D01*
X152205185Y-75900000D01*
X152186497Y-75722197D01*
X152131250Y-75552165D01*
X152041859Y-75397335D01*
X152040182Y-75395473D01*
X152039552Y-75394160D01*
X152038041Y-75392080D01*
X152038421Y-75391803D01*
X152009952Y-75332486D01*
X152018574Y-75263150D01*
X152040181Y-75229528D01*
X152041859Y-75227665D01*
X152131250Y-75072835D01*
X152186497Y-74902803D01*
X152205185Y-74725000D01*
X152186497Y-74547197D01*
X152131250Y-74377165D01*
X152041859Y-74222335D01*
X151983037Y-74157007D01*
X151922235Y-74089478D01*
X151922232Y-74089476D01*
X151922231Y-74089475D01*
X151922230Y-74089474D01*
X151777593Y-73984388D01*
X151649820Y-73927500D01*
X168542315Y-73927500D01*
X168561003Y-74105305D01*
X168561004Y-74105307D01*
X168616247Y-74275329D01*
X168616250Y-74275335D01*
X168705641Y-74430165D01*
X168714639Y-74440158D01*
X168825264Y-74563021D01*
X168825267Y-74563023D01*
X168825270Y-74563026D01*
X168969907Y-74668112D01*
X169133233Y-74740829D01*
X169308109Y-74778000D01*
X169308110Y-74778000D01*
X169486889Y-74778000D01*
X169486891Y-74778000D01*
X169661767Y-74740829D01*
X169825093Y-74668112D01*
X169969730Y-74563026D01*
X169981418Y-74550046D01*
X170014886Y-74512875D01*
X170089359Y-74430165D01*
X170178750Y-74275335D01*
X170233997Y-74105303D01*
X170252685Y-73927500D01*
X170233997Y-73749697D01*
X170193643Y-73625500D01*
X170178752Y-73579670D01*
X170178749Y-73579664D01*
X170157577Y-73542993D01*
X170089359Y-73424835D01*
X170021977Y-73350000D01*
X169969735Y-73291978D01*
X169969732Y-73291976D01*
X169969731Y-73291975D01*
X169969730Y-73291974D01*
X169825093Y-73186888D01*
X169661767Y-73114171D01*
X169661765Y-73114170D01*
X169534094Y-73087033D01*
X169486891Y-73077000D01*
X169308109Y-73077000D01*
X169277454Y-73083515D01*
X169133233Y-73114170D01*
X169133228Y-73114172D01*
X168969908Y-73186887D01*
X168825268Y-73291975D01*
X168705640Y-73424836D01*
X168616250Y-73579664D01*
X168616247Y-73579670D01*
X168561004Y-73749692D01*
X168561003Y-73749694D01*
X168542315Y-73927500D01*
X151649820Y-73927500D01*
X151614267Y-73911671D01*
X151614265Y-73911670D01*
X151452813Y-73877353D01*
X151439391Y-73874500D01*
X151260609Y-73874500D01*
X151247187Y-73877353D01*
X151085733Y-73911670D01*
X151085728Y-73911672D01*
X150922408Y-73984387D01*
X150777768Y-74089475D01*
X150658140Y-74222336D01*
X150568750Y-74377164D01*
X150568747Y-74377170D01*
X150513504Y-74547192D01*
X150513503Y-74547194D01*
X150494815Y-74725000D01*
X126809187Y-74725000D01*
X126813105Y-74721082D01*
X126948600Y-74527578D01*
X127048429Y-74313492D01*
X127048432Y-74313486D01*
X127105636Y-74100000D01*
X126208012Y-74100000D01*
X126240925Y-74042993D01*
X126275000Y-73915826D01*
X126275000Y-73784174D01*
X126240925Y-73657007D01*
X126208012Y-73600000D01*
X127105636Y-73600000D01*
X127105635Y-73599999D01*
X127048432Y-73386513D01*
X127048429Y-73386507D01*
X126948600Y-73172422D01*
X126948599Y-73172420D01*
X126813113Y-72978926D01*
X126813108Y-72978920D01*
X126691053Y-72856865D01*
X126657568Y-72795542D01*
X126659037Y-72775000D01*
X128694815Y-72775000D01*
X128713503Y-72952805D01*
X128713504Y-72952807D01*
X128768747Y-73122829D01*
X128768750Y-73122835D01*
X128858141Y-73277665D01*
X128871025Y-73291974D01*
X128977764Y-73410521D01*
X128977767Y-73410523D01*
X128977770Y-73410526D01*
X129122407Y-73515612D01*
X129285733Y-73588329D01*
X129460609Y-73625500D01*
X129460610Y-73625500D01*
X129639389Y-73625500D01*
X129639391Y-73625500D01*
X129814267Y-73588329D01*
X129977593Y-73515612D01*
X130122230Y-73410526D01*
X130143852Y-73386513D01*
X130148148Y-73381741D01*
X130241859Y-73277665D01*
X130331250Y-73122835D01*
X130386497Y-72952803D01*
X130405185Y-72775000D01*
X130386497Y-72597197D01*
X130331250Y-72427165D01*
X130241859Y-72272335D01*
X130183809Y-72207864D01*
X130122235Y-72139478D01*
X130122232Y-72139476D01*
X130122231Y-72139475D01*
X130122230Y-72139474D01*
X130033490Y-72075000D01*
X135554815Y-72075000D01*
X135573503Y-72252805D01*
X135573504Y-72252807D01*
X135628747Y-72422829D01*
X135628750Y-72422835D01*
X135718141Y-72577665D01*
X135759812Y-72623946D01*
X135837764Y-72710521D01*
X135837767Y-72710523D01*
X135837770Y-72710526D01*
X135982407Y-72815612D01*
X136145733Y-72888329D01*
X136320609Y-72925500D01*
X136320610Y-72925500D01*
X136499389Y-72925500D01*
X136499391Y-72925500D01*
X136674267Y-72888329D01*
X136837593Y-72815612D01*
X136982230Y-72710526D01*
X136993900Y-72697566D01*
X137008148Y-72681741D01*
X137101859Y-72577665D01*
X137191250Y-72422835D01*
X137246497Y-72252803D01*
X137265185Y-72075000D01*
X137254674Y-71975000D01*
X141969815Y-71975000D01*
X141988503Y-72152805D01*
X141988504Y-72152807D01*
X142043747Y-72322829D01*
X142043750Y-72322835D01*
X142133141Y-72477665D01*
X142169048Y-72517544D01*
X142252764Y-72610521D01*
X142252767Y-72610523D01*
X142252770Y-72610526D01*
X142372571Y-72697567D01*
X142415235Y-72752896D01*
X142423005Y-72784922D01*
X142438503Y-72932373D01*
X142438504Y-72932376D01*
X142493747Y-73102398D01*
X142493752Y-73102409D01*
X142552409Y-73204006D01*
X142568882Y-73271906D01*
X142552412Y-73328001D01*
X142538723Y-73351712D01*
X142483478Y-73521738D01*
X142483477Y-73521740D01*
X142464789Y-73699546D01*
X142483477Y-73877351D01*
X142483478Y-73877353D01*
X142538721Y-74047375D01*
X142538724Y-74047381D01*
X142628115Y-74202211D01*
X142646235Y-74222335D01*
X142747738Y-74335067D01*
X142747741Y-74335069D01*
X142747744Y-74335072D01*
X142892381Y-74440158D01*
X143055707Y-74512875D01*
X143230583Y-74550046D01*
X143230584Y-74550046D01*
X143409363Y-74550046D01*
X143409365Y-74550046D01*
X143584241Y-74512875D01*
X143747567Y-74440158D01*
X143892204Y-74335072D01*
X144011833Y-74202211D01*
X144101224Y-74047381D01*
X144156471Y-73877349D01*
X144175159Y-73699546D01*
X144156471Y-73521743D01*
X144101224Y-73351711D01*
X144042562Y-73250106D01*
X144026090Y-73182208D01*
X144042563Y-73126108D01*
X144056250Y-73102404D01*
X144111497Y-72932372D01*
X144130185Y-72754569D01*
X144111497Y-72576766D01*
X144062890Y-72427170D01*
X144056252Y-72406739D01*
X144056249Y-72406733D01*
X143966859Y-72251904D01*
X143920003Y-72199865D01*
X143847235Y-72119047D01*
X143847232Y-72119045D01*
X143847231Y-72119044D01*
X143847230Y-72119043D01*
X143727428Y-72032001D01*
X143684764Y-71976672D01*
X143676995Y-71944650D01*
X143672302Y-71900000D01*
X162119815Y-71900000D01*
X162138503Y-72077805D01*
X162138504Y-72077807D01*
X162193747Y-72247829D01*
X162193750Y-72247835D01*
X162283141Y-72402665D01*
X162324812Y-72448946D01*
X162402764Y-72535521D01*
X162402767Y-72535523D01*
X162402770Y-72535526D01*
X162547407Y-72640612D01*
X162710733Y-72713329D01*
X162885609Y-72750500D01*
X162885610Y-72750500D01*
X163064389Y-72750500D01*
X163064391Y-72750500D01*
X163239267Y-72713329D01*
X163402593Y-72640612D01*
X163547230Y-72535526D01*
X163563419Y-72517547D01*
X163599330Y-72477663D01*
X163666859Y-72402665D01*
X163756250Y-72247835D01*
X163811497Y-72077803D01*
X163830185Y-71900000D01*
X163811497Y-71722197D01*
X163756250Y-71552165D01*
X163666859Y-71397335D01*
X163614762Y-71339476D01*
X163547235Y-71264478D01*
X163547232Y-71264476D01*
X163547231Y-71264475D01*
X163547230Y-71264474D01*
X163402593Y-71159388D01*
X163239267Y-71086671D01*
X163239265Y-71086670D01*
X163111594Y-71059533D01*
X163064391Y-71049500D01*
X162885609Y-71049500D01*
X162854954Y-71056015D01*
X162710733Y-71086670D01*
X162710728Y-71086672D01*
X162547408Y-71159387D01*
X162402768Y-71264475D01*
X162283140Y-71397336D01*
X162193750Y-71552164D01*
X162193747Y-71552170D01*
X162138504Y-71722192D01*
X162138503Y-71722194D01*
X162119815Y-71900000D01*
X143672302Y-71900000D01*
X143661497Y-71797197D01*
X143606250Y-71627165D01*
X143516859Y-71472335D01*
X143470003Y-71420296D01*
X143397235Y-71339478D01*
X143397232Y-71339476D01*
X143397231Y-71339475D01*
X143397230Y-71339474D01*
X143252593Y-71234388D01*
X143089267Y-71161671D01*
X143089265Y-71161670D01*
X142961594Y-71134533D01*
X142914391Y-71124500D01*
X142735609Y-71124500D01*
X142704954Y-71131015D01*
X142560733Y-71161670D01*
X142560728Y-71161672D01*
X142397408Y-71234387D01*
X142252768Y-71339475D01*
X142133140Y-71472336D01*
X142043750Y-71627164D01*
X142043747Y-71627170D01*
X141988504Y-71797192D01*
X141988503Y-71797194D01*
X141969815Y-71975000D01*
X137254674Y-71975000D01*
X137246497Y-71897197D01*
X137191250Y-71727165D01*
X137101859Y-71572335D01*
X137055003Y-71520296D01*
X136982235Y-71439478D01*
X136982232Y-71439476D01*
X136982231Y-71439475D01*
X136982230Y-71439474D01*
X136837593Y-71334388D01*
X136674267Y-71261671D01*
X136674265Y-71261670D01*
X136545906Y-71234387D01*
X136499391Y-71224500D01*
X136320609Y-71224500D01*
X136289954Y-71231015D01*
X136145733Y-71261670D01*
X136145728Y-71261672D01*
X135982408Y-71334387D01*
X135837768Y-71439475D01*
X135718140Y-71572336D01*
X135628750Y-71727164D01*
X135628747Y-71727170D01*
X135573504Y-71897192D01*
X135573503Y-71897194D01*
X135554815Y-72075000D01*
X130033490Y-72075000D01*
X129977593Y-72034388D01*
X129814267Y-71961671D01*
X129814265Y-71961670D01*
X129686594Y-71934533D01*
X129639391Y-71924500D01*
X129460609Y-71924500D01*
X129429954Y-71931015D01*
X129285733Y-71961670D01*
X129285728Y-71961672D01*
X129122408Y-72034387D01*
X128977768Y-72139475D01*
X128858140Y-72272336D01*
X128768750Y-72427164D01*
X128768747Y-72427170D01*
X128713504Y-72597192D01*
X128713503Y-72597194D01*
X128694815Y-72775000D01*
X126659037Y-72775000D01*
X126662552Y-72725850D01*
X126704424Y-72669917D01*
X126735400Y-72653002D01*
X126849295Y-72610523D01*
X126867326Y-72603798D01*
X126867326Y-72603797D01*
X126867331Y-72603796D01*
X126982546Y-72517546D01*
X127068796Y-72402331D01*
X127119091Y-72267483D01*
X127125500Y-72207873D01*
X127125499Y-70412128D01*
X127119091Y-70352517D01*
X127068796Y-70217669D01*
X127068795Y-70217668D01*
X127068793Y-70217664D01*
X126982547Y-70102455D01*
X126982544Y-70102452D01*
X126867335Y-70016206D01*
X126867328Y-70016202D01*
X126732482Y-69965908D01*
X126732483Y-69965908D01*
X126672883Y-69959501D01*
X126672881Y-69959500D01*
X126672873Y-69959500D01*
X126672864Y-69959500D01*
X124877129Y-69959500D01*
X124877123Y-69959501D01*
X124817516Y-69965908D01*
X124682671Y-70016202D01*
X124682664Y-70016206D01*
X124567455Y-70102452D01*
X124567452Y-70102455D01*
X124481206Y-70217664D01*
X124481202Y-70217671D01*
X124430908Y-70352517D01*
X124424501Y-70412116D01*
X124424501Y-70412123D01*
X124424500Y-70412135D01*
X124424500Y-72207870D01*
X124424501Y-72207876D01*
X124430908Y-72267483D01*
X124481202Y-72402328D01*
X124481206Y-72402335D01*
X124567452Y-72517544D01*
X124567455Y-72517547D01*
X124682664Y-72603793D01*
X124682671Y-72603797D01*
X124700705Y-72610523D01*
X124814598Y-72653002D01*
X124870531Y-72694873D01*
X124894949Y-72760337D01*
X124880098Y-72828610D01*
X124858947Y-72856865D01*
X124736886Y-72978926D01*
X124601400Y-73172420D01*
X124601399Y-73172422D01*
X124501570Y-73386507D01*
X124501567Y-73386513D01*
X124444364Y-73599999D01*
X124444364Y-73600000D01*
X125341988Y-73600000D01*
X125309075Y-73657007D01*
X125275000Y-73784174D01*
X125275000Y-73915826D01*
X125309075Y-74042993D01*
X125341988Y-74100000D01*
X124444364Y-74100000D01*
X124501567Y-74313486D01*
X124501570Y-74313492D01*
X124601399Y-74527578D01*
X124736894Y-74721082D01*
X124903917Y-74888105D01*
X125089595Y-75018119D01*
X125133219Y-75072696D01*
X125140412Y-75142195D01*
X125108890Y-75204549D01*
X125089595Y-75221269D01*
X124903594Y-75351508D01*
X124736505Y-75518597D01*
X124600965Y-75712169D01*
X124600964Y-75712171D01*
X124501098Y-75926335D01*
X124501094Y-75926344D01*
X124439938Y-76154586D01*
X124439936Y-76154596D01*
X124419341Y-76389999D01*
X114523642Y-76389999D01*
X114523642Y-69350000D01*
X154474815Y-69350000D01*
X154493503Y-69527805D01*
X154493504Y-69527807D01*
X154548747Y-69697829D01*
X154548750Y-69697835D01*
X154638141Y-69852665D01*
X154638687Y-69853271D01*
X154757764Y-69985521D01*
X154757767Y-69985523D01*
X154757770Y-69985526D01*
X154902407Y-70090612D01*
X155065733Y-70163329D01*
X155240609Y-70200500D01*
X155240610Y-70200500D01*
X155419389Y-70200500D01*
X155419391Y-70200500D01*
X155539359Y-70175000D01*
X159319815Y-70175000D01*
X159338503Y-70352805D01*
X159338504Y-70352807D01*
X159393747Y-70522829D01*
X159393750Y-70522835D01*
X159483141Y-70677665D01*
X159524812Y-70723946D01*
X159602764Y-70810521D01*
X159602767Y-70810523D01*
X159602770Y-70810526D01*
X159747407Y-70915612D01*
X159910733Y-70988329D01*
X160085609Y-71025500D01*
X160085610Y-71025500D01*
X160264389Y-71025500D01*
X160264391Y-71025500D01*
X160439267Y-70988329D01*
X160602593Y-70915612D01*
X160747230Y-70810526D01*
X160866859Y-70677665D01*
X160956250Y-70522835D01*
X161011497Y-70352803D01*
X161030185Y-70175000D01*
X161011497Y-69997197D01*
X160966361Y-69858282D01*
X160956252Y-69827170D01*
X160956249Y-69827164D01*
X160903342Y-69735526D01*
X160866859Y-69672335D01*
X160804126Y-69602663D01*
X160747235Y-69539478D01*
X160747232Y-69539476D01*
X160747231Y-69539475D01*
X160747230Y-69539474D01*
X160602593Y-69434388D01*
X160439267Y-69361671D01*
X160439265Y-69361670D01*
X160311594Y-69334533D01*
X160264391Y-69324500D01*
X160085609Y-69324500D01*
X160054954Y-69331015D01*
X159910733Y-69361670D01*
X159910728Y-69361672D01*
X159747408Y-69434387D01*
X159602768Y-69539475D01*
X159483140Y-69672336D01*
X159393750Y-69827164D01*
X159393747Y-69827170D01*
X159338504Y-69997192D01*
X159338503Y-69997194D01*
X159319815Y-70175000D01*
X155539359Y-70175000D01*
X155594267Y-70163329D01*
X155757593Y-70090612D01*
X155902230Y-69985526D01*
X155989512Y-69888589D01*
X156048997Y-69851942D01*
X156118854Y-69853271D01*
X156132087Y-69858278D01*
X156255733Y-69913329D01*
X156430609Y-69950500D01*
X156430610Y-69950500D01*
X156609389Y-69950500D01*
X156609391Y-69950500D01*
X156784267Y-69913329D01*
X156947593Y-69840612D01*
X157092230Y-69735526D01*
X157211859Y-69602665D01*
X157301250Y-69447835D01*
X157356497Y-69277803D01*
X157375185Y-69100000D01*
X157356497Y-68922197D01*
X157301250Y-68752165D01*
X157211859Y-68597335D01*
X157123768Y-68499500D01*
X157092235Y-68464478D01*
X157092232Y-68464476D01*
X157092231Y-68464475D01*
X157092230Y-68464474D01*
X156947593Y-68359388D01*
X156784267Y-68286671D01*
X156784265Y-68286670D01*
X156656594Y-68259533D01*
X156609391Y-68249500D01*
X156430609Y-68249500D01*
X156399954Y-68256015D01*
X156255733Y-68286670D01*
X156255728Y-68286672D01*
X156092408Y-68359387D01*
X155947768Y-68464475D01*
X155860487Y-68561410D01*
X155801000Y-68598058D01*
X155731143Y-68596727D01*
X155717903Y-68591717D01*
X155649832Y-68561410D01*
X155594267Y-68536671D01*
X155594265Y-68536670D01*
X155466594Y-68509533D01*
X155419391Y-68499500D01*
X155240609Y-68499500D01*
X155209954Y-68506015D01*
X155065733Y-68536670D01*
X155065728Y-68536672D01*
X154902408Y-68609387D01*
X154757768Y-68714475D01*
X154638140Y-68847336D01*
X154548750Y-69002164D01*
X154548747Y-69002170D01*
X154493504Y-69172192D01*
X154493503Y-69172194D01*
X154474815Y-69350000D01*
X114523642Y-69350000D01*
X114523642Y-67600000D01*
X146869815Y-67600000D01*
X146888503Y-67777805D01*
X146888504Y-67777807D01*
X146943747Y-67947829D01*
X146943750Y-67947835D01*
X147033141Y-68102665D01*
X147074812Y-68148946D01*
X147152764Y-68235521D01*
X147152767Y-68235523D01*
X147152770Y-68235526D01*
X147297407Y-68340612D01*
X147460733Y-68413329D01*
X147635609Y-68450500D01*
X147635610Y-68450500D01*
X147814389Y-68450500D01*
X147814391Y-68450500D01*
X147989267Y-68413329D01*
X148152593Y-68340612D01*
X148297230Y-68235526D01*
X148416859Y-68102665D01*
X148506250Y-67947835D01*
X148561497Y-67777803D01*
X148580185Y-67600000D01*
X148561497Y-67422197D01*
X148506250Y-67252165D01*
X148416859Y-67097335D01*
X148370003Y-67045296D01*
X148297235Y-66964478D01*
X148297232Y-66964476D01*
X148297231Y-66964475D01*
X148297230Y-66964474D01*
X148152593Y-66859388D01*
X147989267Y-66786671D01*
X147989265Y-66786670D01*
X147859236Y-66759032D01*
X147814391Y-66749500D01*
X147635609Y-66749500D01*
X147604954Y-66756015D01*
X147460733Y-66786670D01*
X147460728Y-66786672D01*
X147297408Y-66859387D01*
X147152768Y-66964475D01*
X147033140Y-67097336D01*
X146943750Y-67252164D01*
X146943747Y-67252170D01*
X146888504Y-67422192D01*
X146888503Y-67422194D01*
X146869815Y-67600000D01*
X114523642Y-67600000D01*
X114523642Y-52884999D01*
X136139341Y-52884999D01*
X136139341Y-52885000D01*
X136159936Y-53120403D01*
X136159938Y-53120413D01*
X136221094Y-53348655D01*
X136221096Y-53348659D01*
X136221097Y-53348663D01*
X136304644Y-53527830D01*
X136320965Y-53562830D01*
X136320967Y-53562834D01*
X136456501Y-53756395D01*
X136456506Y-53756402D01*
X136623597Y-53923493D01*
X136623603Y-53923498D01*
X136809158Y-54053425D01*
X136852783Y-54108002D01*
X136859977Y-54177500D01*
X136828454Y-54239855D01*
X136809158Y-54256575D01*
X136623597Y-54386505D01*
X136456505Y-54553597D01*
X136320965Y-54747169D01*
X136320964Y-54747171D01*
X136221098Y-54961335D01*
X136221094Y-54961344D01*
X136159938Y-55189586D01*
X136159936Y-55189596D01*
X136139341Y-55424999D01*
X136139341Y-55425000D01*
X136159936Y-55660403D01*
X136159938Y-55660413D01*
X136221094Y-55888655D01*
X136221096Y-55888659D01*
X136221097Y-55888663D01*
X136304644Y-56067830D01*
X136320965Y-56102830D01*
X136320967Y-56102834D01*
X136456501Y-56296395D01*
X136456506Y-56296402D01*
X136623597Y-56463493D01*
X136623603Y-56463498D01*
X136809158Y-56593425D01*
X136852783Y-56648002D01*
X136859977Y-56717500D01*
X136828454Y-56779855D01*
X136809158Y-56796575D01*
X136623597Y-56926505D01*
X136456505Y-57093597D01*
X136320965Y-57287169D01*
X136320964Y-57287171D01*
X136221098Y-57501335D01*
X136221094Y-57501344D01*
X136159938Y-57729586D01*
X136159936Y-57729596D01*
X136139341Y-57964999D01*
X136139341Y-57965000D01*
X136159936Y-58200403D01*
X136159938Y-58200413D01*
X136221094Y-58428655D01*
X136221096Y-58428659D01*
X136221097Y-58428663D01*
X136304644Y-58607830D01*
X136320965Y-58642830D01*
X136320967Y-58642834D01*
X136456501Y-58836395D01*
X136456506Y-58836402D01*
X136623597Y-59003493D01*
X136623603Y-59003498D01*
X136809158Y-59133425D01*
X136852783Y-59188002D01*
X136859977Y-59257500D01*
X136828454Y-59319855D01*
X136809158Y-59336575D01*
X136623597Y-59466505D01*
X136456505Y-59633597D01*
X136320965Y-59827169D01*
X136320964Y-59827171D01*
X136221098Y-60041335D01*
X136221094Y-60041344D01*
X136159938Y-60269586D01*
X136159936Y-60269596D01*
X136139341Y-60504999D01*
X136139341Y-60505000D01*
X136159936Y-60740403D01*
X136159938Y-60740413D01*
X136221094Y-60968655D01*
X136221096Y-60968659D01*
X136221097Y-60968663D01*
X136241091Y-61011540D01*
X136320965Y-61182830D01*
X136320967Y-61182834D01*
X136456501Y-61376395D01*
X136456506Y-61376402D01*
X136623597Y-61543493D01*
X136623603Y-61543498D01*
X136809158Y-61673425D01*
X136852783Y-61728002D01*
X136859977Y-61797500D01*
X136828454Y-61859855D01*
X136809158Y-61876575D01*
X136623597Y-62006505D01*
X136456505Y-62173597D01*
X136320965Y-62367169D01*
X136320964Y-62367171D01*
X136221098Y-62581335D01*
X136221094Y-62581344D01*
X136159938Y-62809586D01*
X136159936Y-62809596D01*
X136139341Y-63044999D01*
X136139341Y-63045000D01*
X136159936Y-63280403D01*
X136159938Y-63280413D01*
X136221094Y-63508655D01*
X136221096Y-63508659D01*
X136221097Y-63508663D01*
X136280788Y-63636670D01*
X136320965Y-63722830D01*
X136320967Y-63722834D01*
X136456501Y-63916395D01*
X136456506Y-63916402D01*
X136623597Y-64083493D01*
X136623603Y-64083498D01*
X136809158Y-64213425D01*
X136852783Y-64268002D01*
X136859977Y-64337500D01*
X136828454Y-64399855D01*
X136809158Y-64416575D01*
X136623597Y-64546505D01*
X136456505Y-64713597D01*
X136320965Y-64907169D01*
X136320964Y-64907171D01*
X136221098Y-65121335D01*
X136221094Y-65121344D01*
X136159938Y-65349586D01*
X136159936Y-65349596D01*
X136139341Y-65584999D01*
X136139341Y-65585000D01*
X136159936Y-65820403D01*
X136159938Y-65820413D01*
X136221094Y-66048655D01*
X136221096Y-66048659D01*
X136221097Y-66048663D01*
X136304644Y-66227830D01*
X136320965Y-66262830D01*
X136320967Y-66262834D01*
X136429281Y-66417521D01*
X136456505Y-66456401D01*
X136623599Y-66623495D01*
X136720384Y-66691265D01*
X136817165Y-66759032D01*
X136817167Y-66759033D01*
X136817170Y-66759035D01*
X137031337Y-66858903D01*
X137031343Y-66858904D01*
X137031344Y-66858905D01*
X137086285Y-66873626D01*
X137259592Y-66920063D01*
X137447918Y-66936539D01*
X137494999Y-66940659D01*
X137495000Y-66940659D01*
X137495001Y-66940659D01*
X137534234Y-66937226D01*
X137730408Y-66920063D01*
X137958663Y-66858903D01*
X138172830Y-66759035D01*
X138366401Y-66623495D01*
X138533495Y-66456401D01*
X138669035Y-66262830D01*
X138768903Y-66048663D01*
X138830063Y-65820408D01*
X138850659Y-65585000D01*
X138830063Y-65349592D01*
X138768903Y-65121337D01*
X138669035Y-64907171D01*
X138644527Y-64872169D01*
X138533494Y-64713597D01*
X138366402Y-64546506D01*
X138366396Y-64546501D01*
X138180842Y-64416575D01*
X138137217Y-64361998D01*
X138130023Y-64292500D01*
X138161546Y-64230145D01*
X138180842Y-64213425D01*
X138339730Y-64102170D01*
X138366401Y-64083495D01*
X138533495Y-63916401D01*
X138669035Y-63722830D01*
X138768903Y-63508663D01*
X138830063Y-63280408D01*
X138850659Y-63045000D01*
X138830063Y-62809592D01*
X138768903Y-62581337D01*
X138669035Y-62367171D01*
X138644703Y-62332420D01*
X138533494Y-62173597D01*
X138366402Y-62006506D01*
X138366396Y-62006501D01*
X138180842Y-61876575D01*
X138137217Y-61821998D01*
X138130023Y-61752500D01*
X138161546Y-61690145D01*
X138180842Y-61673425D01*
X138302371Y-61588329D01*
X138366401Y-61543495D01*
X138533495Y-61376401D01*
X138669035Y-61182830D01*
X138768903Y-60968663D01*
X138820794Y-60775000D01*
X149969815Y-60775000D01*
X149988503Y-60952805D01*
X149988504Y-60952807D01*
X150043747Y-61122829D01*
X150043750Y-61122835D01*
X150133141Y-61277665D01*
X150174812Y-61323946D01*
X150252764Y-61410521D01*
X150252767Y-61410523D01*
X150252770Y-61410526D01*
X150397407Y-61515612D01*
X150560733Y-61588329D01*
X150735609Y-61625500D01*
X150735610Y-61625500D01*
X150914389Y-61625500D01*
X150914391Y-61625500D01*
X151089267Y-61588329D01*
X151252593Y-61515612D01*
X151397230Y-61410526D01*
X151427956Y-61376402D01*
X151437000Y-61366356D01*
X151516859Y-61277665D01*
X151546083Y-61227046D01*
X151596649Y-61178832D01*
X151665256Y-61165608D01*
X151730121Y-61191576D01*
X151755043Y-61217921D01*
X151841505Y-61341401D01*
X152008599Y-61508495D01*
X152175699Y-61625500D01*
X152194594Y-61638730D01*
X152238219Y-61693307D01*
X152245413Y-61762805D01*
X152213890Y-61825160D01*
X152194595Y-61841880D01*
X152008922Y-61971890D01*
X152008920Y-61971891D01*
X151841891Y-62138920D01*
X151841886Y-62138926D01*
X151706400Y-62332420D01*
X151706399Y-62332422D01*
X151606570Y-62546507D01*
X151606567Y-62546513D01*
X151549364Y-62759999D01*
X151549364Y-62760000D01*
X152446988Y-62760000D01*
X152414075Y-62817007D01*
X152380000Y-62944174D01*
X152380000Y-63075826D01*
X152414075Y-63202993D01*
X152446988Y-63260000D01*
X151549364Y-63260000D01*
X151606567Y-63473486D01*
X151606570Y-63473492D01*
X151706399Y-63687578D01*
X151841894Y-63881082D01*
X152008917Y-64048105D01*
X152194595Y-64178119D01*
X152238219Y-64232696D01*
X152245412Y-64302195D01*
X152213890Y-64364549D01*
X152194595Y-64381269D01*
X152008594Y-64511508D01*
X151841505Y-64678597D01*
X151705965Y-64872169D01*
X151705964Y-64872171D01*
X151606098Y-65086335D01*
X151606094Y-65086344D01*
X151544938Y-65314586D01*
X151544936Y-65314596D01*
X151524341Y-65549999D01*
X151524341Y-65550000D01*
X151544936Y-65785403D01*
X151544938Y-65785413D01*
X151606094Y-66013655D01*
X151606096Y-66013659D01*
X151606097Y-66013663D01*
X151683518Y-66179692D01*
X151705965Y-66227830D01*
X151705967Y-66227834D01*
X151796761Y-66357500D01*
X151841505Y-66421401D01*
X152008599Y-66588495D01*
X152105384Y-66656265D01*
X152202165Y-66724032D01*
X152202167Y-66724033D01*
X152202170Y-66724035D01*
X152416337Y-66823903D01*
X152644592Y-66885063D01*
X152832918Y-66901539D01*
X152879999Y-66905659D01*
X152880000Y-66905659D01*
X152880001Y-66905659D01*
X152919234Y-66902226D01*
X153115408Y-66885063D01*
X153343663Y-66823903D01*
X153557830Y-66724035D01*
X153751401Y-66588495D01*
X153918495Y-66421401D01*
X154054035Y-66227830D01*
X154153903Y-66013663D01*
X154215063Y-65785408D01*
X154235659Y-65550000D01*
X154215063Y-65314592D01*
X154153903Y-65086337D01*
X154054035Y-64872171D01*
X154001981Y-64797829D01*
X153918494Y-64678597D01*
X153751402Y-64511506D01*
X153751401Y-64511505D01*
X153663563Y-64450000D01*
X165019815Y-64450000D01*
X165038503Y-64627805D01*
X165038504Y-64627807D01*
X165093747Y-64797829D01*
X165093750Y-64797835D01*
X165183141Y-64952665D01*
X165224812Y-64998946D01*
X165302764Y-65085521D01*
X165302767Y-65085523D01*
X165302770Y-65085526D01*
X165447407Y-65190612D01*
X165610733Y-65263329D01*
X165610735Y-65263329D01*
X165610736Y-65263330D01*
X165680221Y-65278099D01*
X165779487Y-65299198D01*
X165840968Y-65332390D01*
X165874745Y-65393553D01*
X165870093Y-65463267D01*
X165828489Y-65519400D01*
X165779491Y-65541777D01*
X165768237Y-65544169D01*
X165768228Y-65544172D01*
X165604908Y-65616887D01*
X165460268Y-65721975D01*
X165340640Y-65854836D01*
X165251250Y-66009664D01*
X165251247Y-66009670D01*
X165196004Y-66179692D01*
X165196003Y-66179694D01*
X165177315Y-66357500D01*
X165196003Y-66535305D01*
X165196004Y-66535307D01*
X165251247Y-66705329D01*
X165251250Y-66705335D01*
X165340641Y-66860165D01*
X165381604Y-66905659D01*
X165460264Y-66993021D01*
X165460267Y-66993023D01*
X165460270Y-66993026D01*
X165604907Y-67098112D01*
X165768233Y-67170829D01*
X165943109Y-67208000D01*
X165943110Y-67208000D01*
X166121889Y-67208000D01*
X166121891Y-67208000D01*
X166296767Y-67170829D01*
X166460093Y-67098112D01*
X166604730Y-66993026D01*
X166724359Y-66860165D01*
X166813750Y-66705335D01*
X166868997Y-66535303D01*
X166887685Y-66357500D01*
X166868997Y-66179697D01*
X166826419Y-66048655D01*
X166813752Y-66009670D01*
X166813749Y-66009664D01*
X166724359Y-65854835D01*
X166661851Y-65785413D01*
X166604735Y-65721978D01*
X166604732Y-65721976D01*
X166604731Y-65721975D01*
X166604730Y-65721974D01*
X166460093Y-65616888D01*
X166296767Y-65544171D01*
X166296765Y-65544170D01*
X166128012Y-65508301D01*
X166066530Y-65475109D01*
X166032754Y-65413946D01*
X166037406Y-65344231D01*
X166079011Y-65288099D01*
X166128014Y-65265720D01*
X166139267Y-65263329D01*
X166302593Y-65190612D01*
X166447230Y-65085526D01*
X166566859Y-64952665D01*
X166656250Y-64797835D01*
X166711497Y-64627803D01*
X166730185Y-64450000D01*
X166725981Y-64410000D01*
X168924815Y-64410000D01*
X168943503Y-64587805D01*
X168943504Y-64587807D01*
X168998747Y-64757829D01*
X168998750Y-64757835D01*
X169088141Y-64912665D01*
X169124157Y-64952665D01*
X169207764Y-65045521D01*
X169207767Y-65045523D01*
X169207770Y-65045526D01*
X169352407Y-65150612D01*
X169515733Y-65223329D01*
X169690609Y-65260500D01*
X169690610Y-65260500D01*
X169869389Y-65260500D01*
X169869391Y-65260500D01*
X170044267Y-65223329D01*
X170207593Y-65150612D01*
X170352230Y-65045526D01*
X170471859Y-64912665D01*
X170561250Y-64757835D01*
X170616497Y-64587803D01*
X170634134Y-64420000D01*
X172684815Y-64420000D01*
X172703503Y-64597805D01*
X172703504Y-64597807D01*
X172758747Y-64767829D01*
X172758750Y-64767835D01*
X172848141Y-64922665D01*
X172875153Y-64952665D01*
X172967764Y-65055521D01*
X172967767Y-65055523D01*
X172967770Y-65055526D01*
X173112407Y-65160612D01*
X173275733Y-65233329D01*
X173450609Y-65270500D01*
X173450610Y-65270500D01*
X173629389Y-65270500D01*
X173629391Y-65270500D01*
X173804267Y-65233329D01*
X173967593Y-65160612D01*
X174112230Y-65055526D01*
X174231859Y-64922665D01*
X174321250Y-64767835D01*
X174376497Y-64597803D01*
X174395185Y-64420000D01*
X174376497Y-64242197D01*
X174348873Y-64157181D01*
X174321252Y-64072170D01*
X174321249Y-64072164D01*
X174315479Y-64062170D01*
X174231859Y-63917335D01*
X174185003Y-63865296D01*
X174112235Y-63784478D01*
X174112232Y-63784476D01*
X174112231Y-63784475D01*
X174112230Y-63784474D01*
X173967593Y-63679388D01*
X173804267Y-63606671D01*
X173804265Y-63606670D01*
X173676594Y-63579533D01*
X173629391Y-63569500D01*
X173450609Y-63569500D01*
X173419954Y-63576015D01*
X173275733Y-63606670D01*
X173275728Y-63606672D01*
X173112408Y-63679387D01*
X172967768Y-63784475D01*
X172848140Y-63917336D01*
X172758750Y-64072164D01*
X172758747Y-64072170D01*
X172703504Y-64242192D01*
X172703503Y-64242194D01*
X172684815Y-64420000D01*
X170634134Y-64420000D01*
X170635185Y-64410000D01*
X170616497Y-64232197D01*
X170588873Y-64147181D01*
X170561252Y-64062170D01*
X170561249Y-64062164D01*
X170553132Y-64048105D01*
X170471859Y-63907335D01*
X170425003Y-63855296D01*
X170352235Y-63774478D01*
X170352232Y-63774476D01*
X170352231Y-63774475D01*
X170352230Y-63774474D01*
X170207593Y-63669388D01*
X170044267Y-63596671D01*
X170044265Y-63596670D01*
X169916437Y-63569500D01*
X169869391Y-63559500D01*
X169690609Y-63559500D01*
X169659954Y-63566015D01*
X169515733Y-63596670D01*
X169515728Y-63596672D01*
X169352408Y-63669387D01*
X169207768Y-63774475D01*
X169088140Y-63907336D01*
X168998750Y-64062164D01*
X168998747Y-64062170D01*
X168943504Y-64232192D01*
X168943503Y-64232194D01*
X168924815Y-64410000D01*
X166725981Y-64410000D01*
X166711497Y-64272197D01*
X166656250Y-64102165D01*
X166566859Y-63947335D01*
X166520003Y-63895296D01*
X166447235Y-63814478D01*
X166447232Y-63814476D01*
X166447231Y-63814475D01*
X166447230Y-63814474D01*
X166302593Y-63709388D01*
X166139267Y-63636671D01*
X166139265Y-63636670D01*
X166011594Y-63609533D01*
X165964391Y-63599500D01*
X165785609Y-63599500D01*
X165754954Y-63606015D01*
X165610733Y-63636670D01*
X165610728Y-63636672D01*
X165447408Y-63709387D01*
X165302768Y-63814475D01*
X165183140Y-63947336D01*
X165093750Y-64102164D01*
X165093747Y-64102170D01*
X165038504Y-64272192D01*
X165038503Y-64272194D01*
X165019815Y-64450000D01*
X153663563Y-64450000D01*
X153565405Y-64381269D01*
X153521781Y-64326692D01*
X153514588Y-64257193D01*
X153546110Y-64194839D01*
X153565405Y-64178119D01*
X153751082Y-64048105D01*
X153918105Y-63881082D01*
X154053600Y-63687578D01*
X154153429Y-63473492D01*
X154153432Y-63473486D01*
X154210636Y-63260000D01*
X153313012Y-63260000D01*
X153345925Y-63202993D01*
X153380000Y-63075826D01*
X153380000Y-62944174D01*
X153345925Y-62817007D01*
X153313012Y-62760000D01*
X154210636Y-62760000D01*
X154210635Y-62759999D01*
X154153432Y-62546513D01*
X154153429Y-62546507D01*
X154053600Y-62332422D01*
X154053599Y-62332420D01*
X153918113Y-62138926D01*
X153918108Y-62138920D01*
X153751078Y-61971890D01*
X153565405Y-61841879D01*
X153521780Y-61787302D01*
X153514588Y-61717804D01*
X153546110Y-61655449D01*
X153565406Y-61638730D01*
X153751401Y-61508495D01*
X153918495Y-61341401D01*
X154054035Y-61147830D01*
X154153903Y-60933663D01*
X154215063Y-60705408D01*
X154235659Y-60470000D01*
X154215063Y-60234592D01*
X154153903Y-60006337D01*
X154054035Y-59792171D01*
X153943003Y-59633599D01*
X153918494Y-59598597D01*
X153751402Y-59431506D01*
X153751396Y-59431501D01*
X153565842Y-59301575D01*
X153522217Y-59246998D01*
X153515023Y-59177500D01*
X153546546Y-59115145D01*
X153565842Y-59098425D01*
X153588026Y-59082891D01*
X153751401Y-58968495D01*
X153918495Y-58801401D01*
X154054035Y-58607830D01*
X154153903Y-58393663D01*
X154215063Y-58165408D01*
X154235659Y-57930000D01*
X154215063Y-57694592D01*
X154153903Y-57466337D01*
X154054035Y-57252171D01*
X153943003Y-57093599D01*
X153918494Y-57058597D01*
X153751402Y-56891506D01*
X153751396Y-56891501D01*
X153565842Y-56761575D01*
X153522217Y-56706998D01*
X153515023Y-56637500D01*
X153546546Y-56575145D01*
X153565842Y-56558425D01*
X153588026Y-56542891D01*
X153751401Y-56428495D01*
X153918495Y-56261401D01*
X154054035Y-56067830D01*
X154153903Y-55853663D01*
X154215063Y-55625408D01*
X154235659Y-55390000D01*
X154215063Y-55154592D01*
X154153903Y-54926337D01*
X154054035Y-54712171D01*
X153943003Y-54553599D01*
X153918494Y-54518597D01*
X153751402Y-54351506D01*
X153751396Y-54351501D01*
X153565842Y-54221575D01*
X153522217Y-54166998D01*
X153515023Y-54097500D01*
X153546546Y-54035145D01*
X153565842Y-54018425D01*
X153588026Y-54002891D01*
X153751401Y-53888495D01*
X153918495Y-53721401D01*
X154054035Y-53527830D01*
X154153903Y-53313663D01*
X154215063Y-53085408D01*
X154235659Y-52850000D01*
X154215063Y-52614592D01*
X154153903Y-52386337D01*
X154054035Y-52172171D01*
X153943003Y-52013599D01*
X153918494Y-51978597D01*
X153751402Y-51811506D01*
X153751401Y-51811505D01*
X153565405Y-51681269D01*
X153521781Y-51626692D01*
X153514588Y-51557193D01*
X153546110Y-51494839D01*
X153565405Y-51478119D01*
X153751082Y-51348105D01*
X153918105Y-51181082D01*
X154053600Y-50987578D01*
X154153429Y-50773492D01*
X154153432Y-50773486D01*
X154210636Y-50560000D01*
X153313012Y-50560000D01*
X153345925Y-50502993D01*
X153380000Y-50375826D01*
X153380000Y-50244174D01*
X153345925Y-50117007D01*
X153313012Y-50060000D01*
X154210636Y-50060000D01*
X154210635Y-50059999D01*
X154153432Y-49846513D01*
X154153429Y-49846507D01*
X154053600Y-49632422D01*
X154053599Y-49632420D01*
X153918113Y-49438926D01*
X153918108Y-49438920D01*
X153795665Y-49316477D01*
X153762180Y-49255154D01*
X153767164Y-49185462D01*
X153809036Y-49129529D01*
X153840013Y-49112614D01*
X153972086Y-49063354D01*
X153972093Y-49063350D01*
X154087187Y-48977190D01*
X154087190Y-48977187D01*
X154173350Y-48862093D01*
X154173354Y-48862086D01*
X154223596Y-48727379D01*
X154223598Y-48727372D01*
X154229999Y-48667844D01*
X154230000Y-48667827D01*
X154230000Y-48020000D01*
X153313012Y-48020000D01*
X153345925Y-47962993D01*
X153380000Y-47835826D01*
X153380000Y-47704174D01*
X153345925Y-47577007D01*
X153313012Y-47520000D01*
X154230000Y-47520000D01*
X154230000Y-46872172D01*
X154229999Y-46872155D01*
X154223598Y-46812627D01*
X154223596Y-46812620D01*
X154173354Y-46677913D01*
X154173350Y-46677906D01*
X154087190Y-46562812D01*
X154087187Y-46562809D01*
X153972093Y-46476649D01*
X153972086Y-46476645D01*
X153837379Y-46426403D01*
X153837372Y-46426401D01*
X153777844Y-46420000D01*
X153130000Y-46420000D01*
X153130000Y-47336988D01*
X153072993Y-47304075D01*
X152945826Y-47270000D01*
X152814174Y-47270000D01*
X152687007Y-47304075D01*
X152630000Y-47336988D01*
X152630000Y-46420000D01*
X151982155Y-46420000D01*
X151922627Y-46426401D01*
X151922620Y-46426403D01*
X151787913Y-46476645D01*
X151787906Y-46476649D01*
X151672812Y-46562809D01*
X151672809Y-46562812D01*
X151586649Y-46677906D01*
X151586645Y-46677913D01*
X151536403Y-46812620D01*
X151536401Y-46812627D01*
X151530000Y-46872155D01*
X151530000Y-47520000D01*
X152446988Y-47520000D01*
X152414075Y-47577007D01*
X152380000Y-47704174D01*
X152380000Y-47835826D01*
X152414075Y-47962993D01*
X152446988Y-48020000D01*
X151530000Y-48020000D01*
X151530000Y-48667844D01*
X151536401Y-48727372D01*
X151536403Y-48727379D01*
X151586645Y-48862086D01*
X151586649Y-48862093D01*
X151672809Y-48977187D01*
X151672812Y-48977190D01*
X151787906Y-49063350D01*
X151787913Y-49063354D01*
X151919986Y-49112614D01*
X151975920Y-49154485D01*
X152000337Y-49219949D01*
X151985486Y-49288222D01*
X151964335Y-49316477D01*
X151841886Y-49438926D01*
X151706400Y-49632420D01*
X151706399Y-49632422D01*
X151606570Y-49846507D01*
X151606567Y-49846513D01*
X151549364Y-50059999D01*
X151549364Y-50060000D01*
X152446988Y-50060000D01*
X152414075Y-50117007D01*
X152380000Y-50244174D01*
X152380000Y-50375826D01*
X152414075Y-50502993D01*
X152446988Y-50560000D01*
X151549364Y-50560000D01*
X151606567Y-50773486D01*
X151606570Y-50773492D01*
X151706399Y-50987578D01*
X151841894Y-51181082D01*
X152008917Y-51348105D01*
X152194595Y-51478119D01*
X152238219Y-51532696D01*
X152245412Y-51602195D01*
X152213890Y-51664549D01*
X152194595Y-51681269D01*
X152008594Y-51811508D01*
X151841505Y-51978597D01*
X151705965Y-52172169D01*
X151705964Y-52172171D01*
X151606098Y-52386335D01*
X151606094Y-52386344D01*
X151544938Y-52614586D01*
X151544936Y-52614596D01*
X151524341Y-52849999D01*
X151524341Y-52850000D01*
X151544936Y-53085403D01*
X151544938Y-53085413D01*
X151606094Y-53313655D01*
X151606096Y-53313659D01*
X151606097Y-53313663D01*
X151705965Y-53527830D01*
X151705967Y-53527834D01*
X151841501Y-53721395D01*
X151841506Y-53721402D01*
X152008597Y-53888493D01*
X152008603Y-53888498D01*
X152194158Y-54018425D01*
X152237783Y-54073002D01*
X152244977Y-54142500D01*
X152213454Y-54204855D01*
X152194158Y-54221575D01*
X152008597Y-54351505D01*
X151841505Y-54518597D01*
X151705965Y-54712169D01*
X151705964Y-54712171D01*
X151606098Y-54926335D01*
X151606094Y-54926344D01*
X151544938Y-55154586D01*
X151544936Y-55154596D01*
X151524341Y-55389999D01*
X151524341Y-55390000D01*
X151544936Y-55625403D01*
X151544938Y-55625413D01*
X151606094Y-55853655D01*
X151606096Y-55853659D01*
X151606097Y-55853663D01*
X151705965Y-56067830D01*
X151705967Y-56067834D01*
X151841501Y-56261395D01*
X151841506Y-56261402D01*
X152008597Y-56428493D01*
X152008603Y-56428498D01*
X152194158Y-56558425D01*
X152237783Y-56613002D01*
X152244977Y-56682500D01*
X152213454Y-56744855D01*
X152194158Y-56761575D01*
X152008597Y-56891505D01*
X151841505Y-57058597D01*
X151705965Y-57252169D01*
X151705964Y-57252171D01*
X151606098Y-57466335D01*
X151606094Y-57466344D01*
X151544938Y-57694586D01*
X151544936Y-57694596D01*
X151524341Y-57929999D01*
X151524341Y-57930000D01*
X151544936Y-58165403D01*
X151544938Y-58165413D01*
X151606094Y-58393655D01*
X151606096Y-58393659D01*
X151606097Y-58393663D01*
X151705965Y-58607830D01*
X151705967Y-58607834D01*
X151841501Y-58801395D01*
X151841506Y-58801402D01*
X152008597Y-58968493D01*
X152008603Y-58968498D01*
X152194158Y-59098425D01*
X152237783Y-59153002D01*
X152244977Y-59222500D01*
X152213454Y-59284855D01*
X152194158Y-59301575D01*
X152008597Y-59431505D01*
X151841505Y-59598597D01*
X151705965Y-59792169D01*
X151705964Y-59792171D01*
X151606098Y-60006335D01*
X151606095Y-60006341D01*
X151588897Y-60070528D01*
X151552532Y-60130188D01*
X151489685Y-60160717D01*
X151420309Y-60152422D01*
X151396236Y-60138752D01*
X151262157Y-60041337D01*
X151252593Y-60034388D01*
X151089267Y-59961671D01*
X151089265Y-59961670D01*
X150961594Y-59934533D01*
X150914391Y-59924500D01*
X150735609Y-59924500D01*
X150704954Y-59931015D01*
X150560733Y-59961670D01*
X150560728Y-59961672D01*
X150397408Y-60034387D01*
X150252768Y-60139475D01*
X150133140Y-60272336D01*
X150043750Y-60427164D01*
X150043747Y-60427170D01*
X149988504Y-60597192D01*
X149988503Y-60597194D01*
X149969815Y-60775000D01*
X138820794Y-60775000D01*
X138830063Y-60740408D01*
X138850659Y-60505000D01*
X138830063Y-60269592D01*
X138768903Y-60041337D01*
X138669035Y-59827171D01*
X138644527Y-59792169D01*
X138533494Y-59633597D01*
X138366402Y-59466506D01*
X138366396Y-59466501D01*
X138180842Y-59336575D01*
X138137217Y-59281998D01*
X138130023Y-59212500D01*
X138161546Y-59150145D01*
X138180842Y-59133425D01*
X138230827Y-59098425D01*
X138366401Y-59003495D01*
X138533495Y-58836401D01*
X138669035Y-58642830D01*
X138768903Y-58428663D01*
X138830063Y-58200408D01*
X138850659Y-57965000D01*
X138830063Y-57729592D01*
X138768903Y-57501337D01*
X138669035Y-57287171D01*
X138644527Y-57252169D01*
X138533494Y-57093597D01*
X138366402Y-56926506D01*
X138366396Y-56926501D01*
X138180842Y-56796575D01*
X138137217Y-56741998D01*
X138130023Y-56672500D01*
X138161546Y-56610145D01*
X138180842Y-56593425D01*
X138230827Y-56558425D01*
X138366401Y-56463495D01*
X138533495Y-56296401D01*
X138669035Y-56102830D01*
X138768903Y-55888663D01*
X138830063Y-55660408D01*
X138850659Y-55425000D01*
X138830063Y-55189592D01*
X138768903Y-54961337D01*
X138669035Y-54747171D01*
X138644527Y-54712169D01*
X138533494Y-54553597D01*
X138366402Y-54386506D01*
X138366396Y-54386501D01*
X138180842Y-54256575D01*
X138137217Y-54201998D01*
X138130023Y-54132500D01*
X138161546Y-54070145D01*
X138180842Y-54053425D01*
X138230827Y-54018425D01*
X138366401Y-53923495D01*
X138533495Y-53756401D01*
X138669035Y-53562830D01*
X138768903Y-53348663D01*
X138830063Y-53120408D01*
X138850659Y-52885000D01*
X138830063Y-52649592D01*
X138768903Y-52421337D01*
X138669035Y-52207171D01*
X138644527Y-52172169D01*
X138533494Y-52013597D01*
X138366402Y-51846506D01*
X138366401Y-51846505D01*
X138180405Y-51716269D01*
X138136781Y-51661692D01*
X138129588Y-51592193D01*
X138161110Y-51529839D01*
X138180405Y-51513119D01*
X138366082Y-51383105D01*
X138533105Y-51216082D01*
X138668600Y-51022578D01*
X138768429Y-50808492D01*
X138768432Y-50808486D01*
X138825636Y-50595000D01*
X137928012Y-50595000D01*
X137960925Y-50537993D01*
X137995000Y-50410826D01*
X137995000Y-50279174D01*
X137960925Y-50152007D01*
X137928012Y-50095000D01*
X138825636Y-50095000D01*
X138825635Y-50094999D01*
X138768432Y-49881513D01*
X138768429Y-49881507D01*
X138668600Y-49667422D01*
X138668599Y-49667420D01*
X138533113Y-49473926D01*
X138533108Y-49473920D01*
X138411053Y-49351865D01*
X138377568Y-49290542D01*
X138382552Y-49220850D01*
X138424424Y-49164917D01*
X138455400Y-49148002D01*
X138587331Y-49098796D01*
X138702546Y-49012546D01*
X138788796Y-48897331D01*
X138839091Y-48762483D01*
X138845500Y-48702873D01*
X138845499Y-46907128D01*
X138839091Y-46847517D01*
X138826075Y-46812620D01*
X138788797Y-46712671D01*
X138788793Y-46712664D01*
X138702547Y-46597455D01*
X138702544Y-46597452D01*
X138587335Y-46511206D01*
X138587328Y-46511202D01*
X138452482Y-46460908D01*
X138452483Y-46460908D01*
X138392883Y-46454501D01*
X138392881Y-46454500D01*
X138392873Y-46454500D01*
X138392864Y-46454500D01*
X136597129Y-46454500D01*
X136597123Y-46454501D01*
X136537516Y-46460908D01*
X136402671Y-46511202D01*
X136402664Y-46511206D01*
X136287455Y-46597452D01*
X136287452Y-46597455D01*
X136201206Y-46712664D01*
X136201202Y-46712671D01*
X136150908Y-46847517D01*
X136148258Y-46872172D01*
X136144501Y-46907123D01*
X136144500Y-46907135D01*
X136144500Y-48702870D01*
X136144501Y-48702876D01*
X136150908Y-48762483D01*
X136201202Y-48897328D01*
X136201206Y-48897335D01*
X136287452Y-49012544D01*
X136287455Y-49012547D01*
X136402664Y-49098793D01*
X136402671Y-49098797D01*
X136402674Y-49098798D01*
X136534598Y-49148002D01*
X136590531Y-49189873D01*
X136614949Y-49255337D01*
X136600098Y-49323610D01*
X136578947Y-49351865D01*
X136456886Y-49473926D01*
X136321400Y-49667420D01*
X136321399Y-49667422D01*
X136221570Y-49881507D01*
X136221567Y-49881513D01*
X136164364Y-50094999D01*
X136164364Y-50095000D01*
X137061988Y-50095000D01*
X137029075Y-50152007D01*
X136995000Y-50279174D01*
X136995000Y-50410826D01*
X137029075Y-50537993D01*
X137061988Y-50595000D01*
X136164364Y-50595000D01*
X136221567Y-50808486D01*
X136221570Y-50808492D01*
X136321399Y-51022578D01*
X136456894Y-51216082D01*
X136623917Y-51383105D01*
X136809595Y-51513119D01*
X136853219Y-51567696D01*
X136860412Y-51637195D01*
X136828890Y-51699549D01*
X136809595Y-51716269D01*
X136623594Y-51846508D01*
X136456505Y-52013597D01*
X136320965Y-52207169D01*
X136320964Y-52207171D01*
X136221098Y-52421335D01*
X136221094Y-52421344D01*
X136159938Y-52649586D01*
X136159936Y-52649596D01*
X136139341Y-52884999D01*
X114523642Y-52884999D01*
X114523642Y-39827126D01*
X114523714Y-39822893D01*
X114533332Y-39541342D01*
X114542296Y-39278920D01*
X114542872Y-39270501D01*
X114598318Y-38731154D01*
X114599463Y-38722824D01*
X114691586Y-38188529D01*
X114693309Y-38180240D01*
X114707495Y-38122026D01*
X114766969Y-37877973D01*
X118449500Y-37877973D01*
X118449500Y-38122026D01*
X118476532Y-38292701D01*
X118487679Y-38363076D01*
X118563096Y-38595185D01*
X118650351Y-38766434D01*
X118673896Y-38812642D01*
X118817339Y-39010076D01*
X118817343Y-39010081D01*
X118989918Y-39182656D01*
X118989923Y-39182660D01*
X119122433Y-39278933D01*
X119187361Y-39326106D01*
X119404815Y-39436904D01*
X119636924Y-39512321D01*
X119877973Y-39550500D01*
X119877974Y-39550500D01*
X120122026Y-39550500D01*
X120122027Y-39550500D01*
X120363076Y-39512321D01*
X120595185Y-39436904D01*
X120812639Y-39326106D01*
X121010083Y-39182655D01*
X121182655Y-39010083D01*
X121326106Y-38812639D01*
X121436904Y-38595185D01*
X121512321Y-38363076D01*
X121550500Y-38122027D01*
X121550500Y-37877973D01*
X121512321Y-37636924D01*
X121436904Y-37404815D01*
X121326106Y-37187361D01*
X121251730Y-37084991D01*
X121251724Y-37084983D01*
X136749500Y-37084983D01*
X136749500Y-38435001D01*
X136749501Y-38435018D01*
X136760000Y-38537796D01*
X136760001Y-38537799D01*
X136815185Y-38704331D01*
X136815187Y-38704336D01*
X136831677Y-38731071D01*
X136907288Y-38853656D01*
X137031344Y-38977712D01*
X137180666Y-39069814D01*
X137347203Y-39124999D01*
X137449991Y-39135500D01*
X138250008Y-39135499D01*
X138250016Y-39135498D01*
X138250019Y-39135498D01*
X138306302Y-39129748D01*
X138352797Y-39124999D01*
X138519334Y-39069814D01*
X138668656Y-38977712D01*
X138792712Y-38853656D01*
X138832581Y-38789016D01*
X138884525Y-38742294D01*
X138953488Y-38731071D01*
X139017570Y-38758914D01*
X139025799Y-38766434D01*
X139133397Y-38874032D01*
X139273475Y-38975804D01*
X139427744Y-39054408D01*
X139592415Y-39107914D01*
X139592414Y-39107914D01*
X139599999Y-39109115D01*
X139600000Y-39109114D01*
X139600000Y-38040330D01*
X139619745Y-38060075D01*
X139705255Y-38109444D01*
X139800630Y-38135000D01*
X139899370Y-38135000D01*
X139994745Y-38109444D01*
X140080255Y-38060075D01*
X140100000Y-38040330D01*
X140100000Y-39109115D01*
X140107584Y-39107914D01*
X140272255Y-39054408D01*
X140426524Y-38975804D01*
X140566602Y-38874032D01*
X140689036Y-38751598D01*
X140749371Y-38668552D01*
X140804700Y-38625886D01*
X140874313Y-38619905D01*
X140936109Y-38652510D01*
X140950008Y-38668550D01*
X140950318Y-38668976D01*
X141010586Y-38751928D01*
X141133072Y-38874414D01*
X141273212Y-38976232D01*
X141427555Y-39054873D01*
X141592299Y-39108402D01*
X141763389Y-39135500D01*
X141763390Y-39135500D01*
X141936610Y-39135500D01*
X141936611Y-39135500D01*
X142107701Y-39108402D01*
X142272445Y-39054873D01*
X142426788Y-38976232D01*
X142566928Y-38874414D01*
X142689414Y-38751928D01*
X142749682Y-38668975D01*
X142805012Y-38626311D01*
X142874626Y-38620332D01*
X142936421Y-38652938D01*
X142950315Y-38668973D01*
X143010586Y-38751928D01*
X143133072Y-38874414D01*
X143273212Y-38976232D01*
X143427555Y-39054873D01*
X143592299Y-39108402D01*
X143763389Y-39135500D01*
X143763390Y-39135500D01*
X143936610Y-39135500D01*
X143936611Y-39135500D01*
X144107701Y-39108402D01*
X144272445Y-39054873D01*
X144426788Y-38976232D01*
X144566928Y-38874414D01*
X144689414Y-38751928D01*
X144749682Y-38668975D01*
X144805012Y-38626311D01*
X144874626Y-38620332D01*
X144936421Y-38652938D01*
X144950315Y-38668973D01*
X145010586Y-38751928D01*
X145133072Y-38874414D01*
X145273212Y-38976232D01*
X145427555Y-39054873D01*
X145592299Y-39108402D01*
X145763389Y-39135500D01*
X145763390Y-39135500D01*
X145936610Y-39135500D01*
X145936611Y-39135500D01*
X146107701Y-39108402D01*
X146272445Y-39054873D01*
X146426788Y-38976232D01*
X146566928Y-38874414D01*
X146689414Y-38751928D01*
X146749682Y-38668975D01*
X146805012Y-38626311D01*
X146874626Y-38620332D01*
X146936421Y-38652938D01*
X146950315Y-38668973D01*
X147010586Y-38751928D01*
X147133072Y-38874414D01*
X147273212Y-38976232D01*
X147427555Y-39054873D01*
X147592299Y-39108402D01*
X147763389Y-39135500D01*
X147763390Y-39135500D01*
X147936610Y-39135500D01*
X147936611Y-39135500D01*
X148107701Y-39108402D01*
X148272445Y-39054873D01*
X148426788Y-38976232D01*
X148566928Y-38874414D01*
X148689414Y-38751928D01*
X148749682Y-38668975D01*
X148805012Y-38626311D01*
X148874626Y-38620332D01*
X148936421Y-38652938D01*
X148950315Y-38668973D01*
X149010586Y-38751928D01*
X149133072Y-38874414D01*
X149273212Y-38976232D01*
X149427555Y-39054873D01*
X149592299Y-39108402D01*
X149763389Y-39135500D01*
X149763390Y-39135500D01*
X149936610Y-39135500D01*
X149936611Y-39135500D01*
X150107701Y-39108402D01*
X150272445Y-39054873D01*
X150426788Y-38976232D01*
X150566928Y-38874414D01*
X150689414Y-38751928D01*
X150749682Y-38668975D01*
X150805012Y-38626311D01*
X150874626Y-38620332D01*
X150936421Y-38652938D01*
X150950315Y-38668973D01*
X151010586Y-38751928D01*
X151133072Y-38874414D01*
X151273212Y-38976232D01*
X151427555Y-39054873D01*
X151592299Y-39108402D01*
X151763389Y-39135500D01*
X151763390Y-39135500D01*
X151936610Y-39135500D01*
X151936611Y-39135500D01*
X152107701Y-39108402D01*
X152272445Y-39054873D01*
X152426788Y-38976232D01*
X152566928Y-38874414D01*
X152689414Y-38751928D01*
X152791232Y-38611788D01*
X152869873Y-38457445D01*
X152923402Y-38292701D01*
X152950500Y-38121611D01*
X152950500Y-37877973D01*
X171449500Y-37877973D01*
X171449500Y-38122026D01*
X171476532Y-38292701D01*
X171487679Y-38363076D01*
X171563096Y-38595185D01*
X171650351Y-38766434D01*
X171673896Y-38812642D01*
X171817339Y-39010076D01*
X171817343Y-39010081D01*
X171989918Y-39182656D01*
X171989923Y-39182660D01*
X172122433Y-39278933D01*
X172187361Y-39326106D01*
X172404815Y-39436904D01*
X172636924Y-39512321D01*
X172877973Y-39550500D01*
X172877974Y-39550500D01*
X173122026Y-39550500D01*
X173122027Y-39550500D01*
X173363076Y-39512321D01*
X173595185Y-39436904D01*
X173812639Y-39326106D01*
X174010083Y-39182655D01*
X174182655Y-39010083D01*
X174326106Y-38812639D01*
X174436904Y-38595185D01*
X174512321Y-38363076D01*
X174550500Y-38122027D01*
X174550500Y-37877973D01*
X174512321Y-37636924D01*
X174436904Y-37404815D01*
X174326106Y-37187361D01*
X174251730Y-37084991D01*
X174182660Y-36989923D01*
X174182656Y-36989918D01*
X174010081Y-36817343D01*
X174010076Y-36817339D01*
X173812642Y-36673896D01*
X173812641Y-36673895D01*
X173812639Y-36673894D01*
X173595185Y-36563096D01*
X173363076Y-36487679D01*
X173363074Y-36487678D01*
X173363072Y-36487678D01*
X173126364Y-36450187D01*
X173122027Y-36449500D01*
X172877973Y-36449500D01*
X172873636Y-36450187D01*
X172636927Y-36487678D01*
X172404812Y-36563097D01*
X172187357Y-36673896D01*
X171989923Y-36817339D01*
X171989918Y-36817343D01*
X171817343Y-36989918D01*
X171817339Y-36989923D01*
X171673896Y-37187357D01*
X171563097Y-37404812D01*
X171487678Y-37636927D01*
X171449500Y-37877973D01*
X152950500Y-37877973D01*
X152950500Y-37398389D01*
X152923402Y-37227299D01*
X152869873Y-37062555D01*
X152791232Y-36908212D01*
X152689414Y-36768072D01*
X152566928Y-36645586D01*
X152426788Y-36543768D01*
X152272445Y-36465127D01*
X152107701Y-36411598D01*
X152107699Y-36411597D01*
X152107698Y-36411597D01*
X151976271Y-36390781D01*
X151936611Y-36384500D01*
X151763389Y-36384500D01*
X151723728Y-36390781D01*
X151592302Y-36411597D01*
X151427552Y-36465128D01*
X151273211Y-36543768D01*
X151193256Y-36601859D01*
X151133072Y-36645586D01*
X151133070Y-36645588D01*
X151133069Y-36645588D01*
X151010588Y-36768069D01*
X151010581Y-36768078D01*
X150950317Y-36851023D01*
X150894987Y-36893689D01*
X150825374Y-36899667D01*
X150763579Y-36867061D01*
X150749683Y-36851023D01*
X150689418Y-36768078D01*
X150689414Y-36768072D01*
X150566928Y-36645586D01*
X150426788Y-36543768D01*
X150272445Y-36465127D01*
X150107701Y-36411598D01*
X150107699Y-36411597D01*
X150107698Y-36411597D01*
X149976271Y-36390781D01*
X149936611Y-36384500D01*
X149763389Y-36384500D01*
X149723728Y-36390781D01*
X149592302Y-36411597D01*
X149427552Y-36465128D01*
X149273211Y-36543768D01*
X149193256Y-36601859D01*
X149133072Y-36645586D01*
X149133070Y-36645588D01*
X149133069Y-36645588D01*
X149010588Y-36768069D01*
X149010581Y-36768078D01*
X148950317Y-36851023D01*
X148894987Y-36893689D01*
X148825374Y-36899667D01*
X148763579Y-36867061D01*
X148749683Y-36851023D01*
X148689418Y-36768078D01*
X148689414Y-36768072D01*
X148566928Y-36645586D01*
X148426788Y-36543768D01*
X148272445Y-36465127D01*
X148107701Y-36411598D01*
X148107699Y-36411597D01*
X148107698Y-36411597D01*
X147976271Y-36390781D01*
X147936611Y-36384500D01*
X147763389Y-36384500D01*
X147723728Y-36390781D01*
X147592302Y-36411597D01*
X147427552Y-36465128D01*
X147273211Y-36543768D01*
X147193256Y-36601859D01*
X147133072Y-36645586D01*
X147133070Y-36645588D01*
X147133069Y-36645588D01*
X147010588Y-36768069D01*
X147010581Y-36768078D01*
X146950317Y-36851023D01*
X146894987Y-36893689D01*
X146825374Y-36899667D01*
X146763579Y-36867061D01*
X146749683Y-36851023D01*
X146689418Y-36768078D01*
X146689414Y-36768072D01*
X146566928Y-36645586D01*
X146426788Y-36543768D01*
X146272445Y-36465127D01*
X146107701Y-36411598D01*
X146107699Y-36411597D01*
X146107698Y-36411597D01*
X145976271Y-36390781D01*
X145936611Y-36384500D01*
X145763389Y-36384500D01*
X145723728Y-36390781D01*
X145592302Y-36411597D01*
X145427552Y-36465128D01*
X145273211Y-36543768D01*
X145193256Y-36601859D01*
X145133072Y-36645586D01*
X145133070Y-36645588D01*
X145133069Y-36645588D01*
X145010588Y-36768069D01*
X145010581Y-36768078D01*
X144950317Y-36851023D01*
X144894987Y-36893689D01*
X144825374Y-36899667D01*
X144763579Y-36867061D01*
X144749683Y-36851023D01*
X144689418Y-36768078D01*
X144689414Y-36768072D01*
X144566928Y-36645586D01*
X144426788Y-36543768D01*
X144272445Y-36465127D01*
X144107701Y-36411598D01*
X144107699Y-36411597D01*
X144107698Y-36411597D01*
X143976271Y-36390781D01*
X143936611Y-36384500D01*
X143763389Y-36384500D01*
X143723728Y-36390781D01*
X143592302Y-36411597D01*
X143427552Y-36465128D01*
X143273211Y-36543768D01*
X143193256Y-36601859D01*
X143133072Y-36645586D01*
X143133070Y-36645588D01*
X143133069Y-36645588D01*
X143010588Y-36768069D01*
X143010581Y-36768078D01*
X142950317Y-36851023D01*
X142894987Y-36893689D01*
X142825374Y-36899667D01*
X142763579Y-36867061D01*
X142749683Y-36851023D01*
X142689418Y-36768078D01*
X142689414Y-36768072D01*
X142566928Y-36645586D01*
X142426788Y-36543768D01*
X142272445Y-36465127D01*
X142107701Y-36411598D01*
X142107699Y-36411597D01*
X142107698Y-36411597D01*
X141976271Y-36390781D01*
X141936611Y-36384500D01*
X141763389Y-36384500D01*
X141723728Y-36390781D01*
X141592302Y-36411597D01*
X141427552Y-36465128D01*
X141273211Y-36543768D01*
X141193256Y-36601859D01*
X141133072Y-36645586D01*
X141133070Y-36645588D01*
X141133069Y-36645588D01*
X141010585Y-36768072D01*
X140950007Y-36851450D01*
X140894677Y-36894115D01*
X140825063Y-36900093D01*
X140763269Y-36867486D01*
X140749371Y-36851447D01*
X140689036Y-36768401D01*
X140566602Y-36645967D01*
X140426524Y-36544195D01*
X140272257Y-36465591D01*
X140107589Y-36412087D01*
X140107581Y-36412085D01*
X140100000Y-36410884D01*
X140100000Y-37479670D01*
X140080255Y-37459925D01*
X139994745Y-37410556D01*
X139899370Y-37385000D01*
X139800630Y-37385000D01*
X139705255Y-37410556D01*
X139619745Y-37459925D01*
X139600000Y-37479670D01*
X139600000Y-36410884D01*
X139599999Y-36410884D01*
X139592418Y-36412085D01*
X139592410Y-36412087D01*
X139427742Y-36465591D01*
X139273475Y-36544195D01*
X139133401Y-36645964D01*
X139025799Y-36753566D01*
X138964476Y-36787050D01*
X138894784Y-36782066D01*
X138838851Y-36740194D01*
X138832585Y-36730988D01*
X138792712Y-36666344D01*
X138668656Y-36542288D01*
X138543559Y-36465128D01*
X138519336Y-36450187D01*
X138519331Y-36450185D01*
X138517264Y-36449500D01*
X138352797Y-36395001D01*
X138352795Y-36395000D01*
X138250010Y-36384500D01*
X137449998Y-36384500D01*
X137449980Y-36384501D01*
X137347203Y-36395000D01*
X137347200Y-36395001D01*
X137180668Y-36450185D01*
X137180663Y-36450187D01*
X137031342Y-36542289D01*
X136907289Y-36666342D01*
X136815187Y-36815663D01*
X136815185Y-36815668D01*
X136789332Y-36893689D01*
X136760001Y-36982203D01*
X136760001Y-36982204D01*
X136760000Y-36982204D01*
X136749500Y-37084983D01*
X121251724Y-37084983D01*
X121182660Y-36989923D01*
X121182656Y-36989918D01*
X121010081Y-36817343D01*
X121010076Y-36817339D01*
X120812642Y-36673896D01*
X120812641Y-36673895D01*
X120812639Y-36673894D01*
X120595185Y-36563096D01*
X120363076Y-36487679D01*
X120363074Y-36487678D01*
X120363072Y-36487678D01*
X120126364Y-36450187D01*
X120122027Y-36449500D01*
X119877973Y-36449500D01*
X119873636Y-36450187D01*
X119636927Y-36487678D01*
X119404812Y-36563097D01*
X119187357Y-36673896D01*
X118989923Y-36817339D01*
X118989918Y-36817343D01*
X118817343Y-36989918D01*
X118817339Y-36989923D01*
X118673896Y-37187357D01*
X118563097Y-37404812D01*
X118487678Y-37636927D01*
X118449500Y-37877973D01*
X114766969Y-37877973D01*
X114821674Y-37653490D01*
X114823943Y-37645391D01*
X114987960Y-37128616D01*
X114990794Y-37120642D01*
X115189695Y-36616260D01*
X115193052Y-36608535D01*
X115425909Y-36118907D01*
X115429779Y-36111438D01*
X115695513Y-35638830D01*
X115699898Y-35631619D01*
X115997265Y-35178247D01*
X116002117Y-35171373D01*
X116329724Y-34739357D01*
X116335054Y-34732806D01*
X116691371Y-34324166D01*
X116697121Y-34318009D01*
X117080509Y-33934621D01*
X117086666Y-33928871D01*
X117495306Y-33572554D01*
X117501857Y-33567224D01*
X117933873Y-33239617D01*
X117940747Y-33234765D01*
X118394119Y-32937398D01*
X118401330Y-32933013D01*
X118873938Y-32667279D01*
X118881407Y-32663409D01*
X119371035Y-32430552D01*
X119378760Y-32427195D01*
X119883145Y-32228292D01*
X119891120Y-32225459D01*
X120407891Y-32061443D01*
X120415990Y-32059174D01*
X120942740Y-31930808D01*
X120951030Y-31929086D01*
X120955786Y-31928266D01*
X121485324Y-31836963D01*
X121493654Y-31835818D01*
X122033001Y-31780372D01*
X122041420Y-31779796D01*
X122561111Y-31762043D01*
X122585393Y-31761214D01*
X122589626Y-31761142D01*
X122635095Y-31761142D01*
X171064905Y-31761142D01*
X171110374Y-31761142D01*
X171114607Y-31761214D01*
G37*
%TD.AperFunction*%
%TD*%
M02*
